<?xml version="1.0" encoding="UTF-8" standalone="no"?>
<svg
   xmlns:dc="http://purl.org/dc/elements/1.1/"
   xmlns:cc="http://creativecommons.org/ns#"
   xmlns:rdf="http://www.w3.org/1999/02/22-rdf-syntax-ns#"
   xmlns:svg="http://www.w3.org/2000/svg"
   xmlns="http://www.w3.org/2000/svg"
   xmlns:sodipodi="http://sodipodi.sourceforge.net/DTD/sodipodi-0.dtd"
   xmlns:inkscape="http://www.inkscape.org/namespaces/inkscape"
   inkscape:export-ydpi="548.57001"
   inkscape:export-xdpi="548.57001"
   inkscape:export-filename="/home/nikku/camunda/projects/bpmn-io/.other/brand-design/forum.bpmn.io/logo_small.png"
   inkscape:version="1.0 (4035a4fb49, 2020-05-01)"
   height="21"
   width="21"
   sodipodi:docname="logo_small.svg"
   id="svg966"
   version="1.1"
   viewBox="0 0 21 20.999999">
  <metadata
     id="metadata972">
    <rdf:RDF>
      <cc:Work
         rdf:about="">
        <dc:format>image/svg+xml</dc:format>
        <dc:type
           rdf:resource="http://purl.org/dc/dcmitype/StillImage" />
        <dc:title></dc:title>
      </cc:Work>
    </rdf:RDF>
  </metadata>
  <defs
     id="defs970" />
  <sodipodi:namedview
     fit-margin-bottom="0"
     fit-margin-right="0"
     fit-margin-left="0"
     fit-margin-top="0"
     inkscape:current-layer="svg966"
     inkscape:window-maximized="0"
     inkscape:window-y="1497"
     inkscape:window-x="0"
     inkscape:cy="-7.9382416"
     inkscape:cx="21.151915"
     inkscape:zoom="18.415094"
     units="px"
     showgrid="false"
     id="namedview968"
     inkscape:window-height="1379"
     inkscape:window-width="2552"
     inkscape:pageshadow="2"
     inkscape:pageopacity="0"
     guidetolerance="10"
     gridtolerance="10"
     objecttolerance="10"
     borderopacity="1"
     bordercolor="#666666"
     pagecolor="#ffffff" />
  <path
     d="M 14.15918,17 H 6.8408203 v 4 H 14.15918 Z M 6.8408203,0 v 15 h 3.6992187 c 2.4,0 3.601563,-1.2 3.601563,-3.5 V 10.300781 C 14.141602,8.7007812 13.64043,7.5 12.44043,7 c 1,-0.5 1.40039,-1.5 1.40039,-3 V 3.4003906 C 13.84082,1.2003906 12.84043,0 10.44043,0 Z M 9.2412109,2.0996094 H 10.44043 c 0.9,0 1.201172,0.4996093 1.201172,1.5996094 V 4.5 c 0,1.2 -0.500391,1.5996094 -1.400391,1.5996094 H 9.2412109 Z m -0.099609,6.3007812 h 1.0996091 c 1,0 1.5,0.3988282 1.5,1.7988284 V 11.5 c 0,1.1 -0.401171,1.5 -1.201172,1.5 H 9.1416015 Z"
     style="fill:#ffffff"
     id="path1564" />
</svg>
