<svg xmlns="http://www.w3.org/2000/svg" viewBox="0 0 76 76"><g fill="#52b415"><path d="M29.514 66.25c-5.36 5.443-14.192 5.64-19.65.297-5.46-5.343-5.658-14.15-.2-19.592 5.36-5.541 14.193-5.64 19.652-.297 5.458 5.344 5.558 14.051.198 19.592z"/><path d="M67.626 35.576l1.588 5.838-6.452 2.671-3.076-5.145.198-.099c-2.282.396-4.664.495-7.046 0l-3.077 5.146-6.451-2.672 1.488-5.838.1.099c-1.886-1.386-3.573-2.969-4.863-4.849l-5.856 1.484-2.68-6.431 5.161-3.068.1.198a20.868 20.868 0 0 1 0-7.025l-5.162-3.068 2.68-6.432 5.856 1.485v.296C40.928 6.98 41.82 5.99 42.913 5H9.268C6.886 5 5 6.979 5 9.354v28.102l3.97 2.87-.1.098c1.986-1.286 4.07-2.177 6.353-2.671l.794-5.838 6.848-.1.893 5.839h-.199c2.184.395 4.367 1.286 6.352 2.473l4.665-3.562 4.863 4.75-3.474 4.75-.099-.1c1.29 1.98 2.184 4.057 2.68 6.234l5.856.792.099 6.828-5.856.99v-.199c-.496 2.177-1.29 4.354-2.481 6.333L39.34 71h27.392C69.114 71 71 69.12 71 66.646v-33.84c-1.092.989-2.183 1.978-3.374 2.77z"/><path d="M69.412 24.79c-2.977 7.223-11.314 10.588-18.46 7.62-7.245-2.97-10.62-11.281-7.642-18.406 2.977-7.223 11.314-10.587 18.46-7.619 7.245 2.969 10.62 11.182 7.642 18.405z"/></g></svg>