<?xml version="1.0" encoding="UTF-8" standalone="no"?>
<svg
   xmlns:dc="http://purl.org/dc/elements/1.1/"
   xmlns:cc="http://creativecommons.org/ns#"
   xmlns:rdf="http://www.w3.org/1999/02/22-rdf-syntax-ns#"
   xmlns:svg="http://www.w3.org/2000/svg"
   xmlns="http://www.w3.org/2000/svg"
   version="1.1"
   id="svg3891"
   height="2048"
   width="2048">
  <defs
     id="defs3893" />
  <metadata
     id="metadata3896">
    <rdf:RDF>
      <cc:Work
         rdf:about="">
        <dc:format>image/svg+xml</dc:format>
        <dc:type
           rdf:resource="http://purl.org/dc/dcmitype/StillImage" />
        <dc:title></dc:title>
      </cc:Work>
    </rdf:RDF>
  </metadata>
  <g
     transform="translate(0,995.63783)"
     id="layer1">
    <g
       id="layer1-6"
       transform="matrix(96.752895,0,0,96.752895,55.328158,-100816.34)">
      <path
         id="path7791"
         transform="matrix(0.01033561,0,0,0.01033561,-0.57185015,1031.7077)"
         d="M 1866.4062 206.69141 C 1866.4062 206.69141 1280.953 505.41548 983.5625 645.09766 C 1047.2698 703.27519 1106.5262 766.02366 1168 826.50391 C 879.65763 1118.6939 1008.7096 993.4808 759.13867 1246.8984 L 330.84766 1316.502 L 248.64453 1822.375 L 754.51953 1740.1738 L 759.43164 1709.9375 L 824.10547 1311.9238 C 1075.6492 1056.5283 945.59542 1182.7636 1234.5 890.00391 C 1296.0877 951.37428 1357.3273 1013.0904 1418.9375 1074.4414 C 1577.7824 761.61021 1866.4062 206.69141 1866.4062 206.69141 z M 734.10938 1336.9062 L 680.44336 1666.0898 L 351.25586 1719.7578 L 404.92383 1390.3828 L 734.10938 1336.9062 z "
         style="color:#000000;font-style:normal;font-variant:normal;font-weight:normal;font-stretch:normal;font-size:medium;line-height:normal;font-family:Sans;-inkscape-font-specification:Sans;text-indent:0;text-align:start;text-decoration:none;text-decoration-line:none;letter-spacing:normal;word-spacing:normal;text-transform:none;direction:ltr;block-progression:tb;writing-mode:lr-tb;baseline-shift:baseline;text-anchor:start;display:inline;overflow:visible;visibility:visible;fill:#000000;fill-opacity:1;fill-rule:nonzero;stroke:none;stroke-width:0.95637447;marker:none;enable-background:accumulate" />
    </g>
  </g>
</svg>
