<?xml version="1.0" encoding="UTF-8" standalone="no"?>
<!-- Created with Inkscape (http://www.inkscape.org/) -->

<svg
   width="2048"
   height="2048"
   id="svg3891"
   version="1.1"
   xmlns="http://www.w3.org/2000/svg"
   xmlns:svg="http://www.w3.org/2000/svg"
   xmlns:rdf="http://www.w3.org/1999/02/22-rdf-syntax-ns#"
   xmlns:cc="http://creativecommons.org/ns#"
   xmlns:dc="http://purl.org/dc/elements/1.1/">
  <defs
     id="defs3893" />
  <metadata
     id="metadata3896">
    <rdf:RDF>
      <cc:Work
         rdf:about="">
        <dc:format>image/svg+xml</dc:format>
        <dc:type
           rdf:resource="http://purl.org/dc/dcmitype/StillImage" />
      </cc:Work>
    </rdf:RDF>
  </metadata>
  <g
     id="layer1"
     transform="translate(0,995.63783)">
    <g
       transform="matrix(96.752895,0,0,96.752895,55.328158,-100816.34)"
       id="layer1-6">
      <path
         id="path7791"
         style="color:#000000;font-style:normal;font-variant:normal;font-weight:normal;font-stretch:normal;font-size:medium;line-height:normal;font-family:Sans;-inkscape-font-specification:Sans;text-indent:0;text-align:start;text-decoration:none;text-decoration-line:none;letter-spacing:normal;word-spacing:normal;text-transform:none;writing-mode:lr-tb;direction:ltr;baseline-shift:baseline;text-anchor:start;display:inline;overflow:visible;visibility:visible;fill:#000000;fill-opacity:1;fill-rule:nonzero;stroke:none;stroke-width:0.00988471;marker:none;enable-background:accumulate"
         d="M 18.594566 1033.7197 C 18.594566 1033.7197 12.543548 1036.8072 9.469839 1038.2509 C 10.128293 1038.8522 10.782087 1039.5421 11.417455 1040.1672 C 8.4270691 1043.1975 9.7413887 1041.8474 7.1228082 1044.4994 L 2.744144 1045.2109 L 1.8945247 1050.4395 L 7.1230504 1049.5898 L 7.17382 1049.2773 L 7.850217 1045.1148 C 10.425711 1042.5066 9.1267288 1043.8413 12.104773 1040.8235 C 12.741319 1041.4578 13.332926 1042.0544 13.969704 1042.6885 C 15.611462 1039.4552 18.594566 1033.7197 18.594566 1033.7197 z M 6.9121192 1045.4219 L 6.3574281 1048.8242 L 2.9550752 1049.3789 L 3.5097662 1045.9746 L 6.9121192 1045.4219 z " />
    </g>
  </g>
</svg>
