<?xml version="1.0" encoding="UTF-8" standalone="no"?>
<!-- Created with Inkscape (http://www.inkscape.org/) -->

<svg
   width="2048"
   height="2048"
   id="svg3891"
   version="1.1"
   xmlns="http://www.w3.org/2000/svg"
   xmlns:svg="http://www.w3.org/2000/svg"
   xmlns:rdf="http://www.w3.org/1999/02/22-rdf-syntax-ns#"
   xmlns:cc="http://creativecommons.org/ns#"
   xmlns:dc="http://purl.org/dc/elements/1.1/">
  <defs
     id="defs3893" />
  <metadata
     id="metadata3896">
    <rdf:RDF>
      <cc:Work
         rdf:about="">
        <dc:format>image/svg+xml</dc:format>
        <dc:type
           rdf:resource="http://purl.org/dc/dcmitype/StillImage" />
      </cc:Work>
    </rdf:RDF>
  </metadata>
  <g
     id="layer1"
     transform="translate(0,995.63783)">
    <g
       transform="matrix(96.752895,0,0,96.752895,55.328158,-100816.34)"
       id="layer1-6">
      <path
         id="path7791"
         style="color:#000000;font-style:normal;font-variant:normal;font-weight:normal;font-stretch:normal;font-size:medium;line-height:normal;font-family:Sans;-inkscape-font-specification:Sans;text-indent:0;text-align:start;text-decoration:none;text-decoration-line:none;letter-spacing:normal;word-spacing:normal;text-transform:none;writing-mode:lr-tb;direction:ltr;baseline-shift:baseline;text-anchor:start;display:inline;overflow:visible;visibility:visible;fill:#000000;fill-opacity:1;fill-rule:nonzero;stroke:none;stroke-width:0.00988084;stroke-dasharray:none;marker:none;enable-background:accumulate"
         d="m 18.832212,1033.467 -8.731823,3.4247 a 0.06494072,0.06494072 101.58477 0 0 -0.02187,0.1067 l 2.032557,2.0033 a 0.09928243,0.09928243 89.791064 0 1 5.14e-4,0.1409 l -9.9777931,9.9787 a 0.09761258,0.09761258 89.305197 0 0 0.00169,0.1397 l 0.9559394,0.9107 a 0.1025523,0.1025523 179.33495 0 0 0.1431823,-0 l 9.9776473,-9.9579 a 0.09959292,0.09959292 0.17373903 0 1 0.141132,4e-4 l 1.889597,1.9089 a 0.06632953,0.06632953 168.84673 0 0 0.108463,-0.021 l 3.535749,-8.5771 a 0.04263498,0.04263498 45.493821 0 0 -0.05498,-0.056 z" />
    </g>
  </g>
</svg>
