<?xml version="1.0" encoding="UTF-8" standalone="no"?>
<svg
   xmlns:dc="http://purl.org/dc/elements/1.1/"
   xmlns:cc="http://creativecommons.org/ns#"
   xmlns:rdf="http://www.w3.org/1999/02/22-rdf-syntax-ns#"
   xmlns:svg="http://www.w3.org/2000/svg"
   xmlns="http://www.w3.org/2000/svg"
   version="1.1"
   id="svg3891"
   height="2048"
   width="2048">
  <defs
     id="defs3893" />
  <metadata
     id="metadata3896">
    <rdf:RDF>
      <cc:Work
         rdf:about="">
        <dc:format>image/svg+xml</dc:format>
        <dc:type
           rdf:resource="http://purl.org/dc/dcmitype/StillImage" />
        <dc:title></dc:title>
      </cc:Work>
    </rdf:RDF>
  </metadata>
  <g
     transform="translate(0,995.63783)"
     id="layer1">
    <g
       id="layer1-6"
       transform="matrix(96.752895,0,0,96.752895,55.328158,-100816.34)">
      <path
         d="m 1866.4062,206.6875 c 0,0 -585.4533,298.7241 -882.8437,438.40625 63.7073,58.17752 122.9637,120.92602 184.4375,181.40625 -302.3528,306.3874 -604.7097,612.7689 -907.0625,919.1562 22.17254,21.1599 44.32746,42.3089 66.5,63.4688 C 629.7903,1502.7376 932.1472,1196.3874 1234.5,890 c 61.5877,61.37036 122.8273,123.0865 184.4375,184.4375 158.8449,-312.83114 447.4687,-867.75 447.4687,-867.75 z"
         style="font-size:medium;font-style:normal;font-variant:normal;font-weight:normal;font-stretch:normal;text-indent:0;text-align:start;text-decoration:none;line-height:normal;letter-spacing:normal;word-spacing:normal;text-transform:none;direction:ltr;block-progression:tb;writing-mode:lr-tb;text-anchor:start;baseline-shift:baseline;color:#000000;fill:#000000;fill-opacity:1;fill-rule:nonzero;stroke:none;stroke-width:0.95637447;marker:none;visibility:visible;display:inline;overflow:visible;enable-background:accumulate;font-family:Sans;-inkscape-font-specification:Sans"
         transform="matrix(0.01033561,0,0,0.01033561,-0.57185015,1031.7077)"
         id="path7791" />
      <g
         transform="matrix(0.01033561,0,0,0.01033561,19.338451,1039.3007)"
         id="layer1-9">
        <g
           style="stroke:#000000;stroke-width:0.93020457;stroke-miterlimit:4;stroke-dasharray:none;stroke-opacity:1"
           transform="matrix(125.07184,0,0,96.752895,613.03918,-100952.21)"
           id="layer1-6-1">
          <path
             id="path4203"
             d="m -18.199126,1050.7133 5.930228,0"
             style="color:#000000;clip-rule:nonzero;display:inline;overflow:visible;visibility:visible;opacity:1;isolation:auto;mix-blend-mode:normal;color-interpolation:sRGB;color-interpolation-filters:linearRGB;solid-color:#000000;solid-opacity:1;fill:none;fill-opacity:1;fill-rule:evenodd;stroke:#000000;stroke-width:0.90905082;stroke-linecap:butt;stroke-linejoin:miter;stroke-miterlimit:4;stroke-dasharray:none;stroke-dashoffset:0;stroke-opacity:1;color-rendering:auto;image-rendering:auto;shape-rendering:auto;text-rendering:auto;enable-background:accumulate" />
        </g>
      </g>
    </g>
  </g>
</svg>
