<svg xmlns="http://www.w3.org/2000/svg" width="2048" height="2048"><path d="M534.605 370.924h100v-100h-100zm200 0h100v-100h-100zm200 0h100v-100h-100zm200 0h100v-100h-100zm200 0h100v-100h-100zm200 0c30.974.734 62.182-1.937 92.965 2.504l13.782-99.047c-35.327-5.418-71.174-2.864-106.747-3.457zM446.73 271.02a333.547 333.547 0 0 0-51.44 5.197c6.272 32.737 12.701 65.447 17.756 98.4 20.08-5.71 53.182 5.517 41.894-27.156-5.387-21.481 9.224-67.923-8.21-76.441zm1257.668 128.207c24.017 13.149 45.603 30.724 63.474 51.439 23.596-22.455 56.357-43.673 74.817-66.354-25.315-29.134-55.766-53.81-89.582-72.423zm-1420.6-80.944c-32.931 19.89-62.363 45.576-86.447 75.58 26.381 18.717 53.941 48.315 79.623 60.56 16.814-20.374 37.142-37.858 59.87-51.33-18.434-27.723-30.884-59.326-53.046-84.81zm1556.162 191.965c-31.619 2.59-31.3 19.246-21.24 44.047 8.685 14.026-5.462 48.474 14.06 47.758 29.518-1.274 64.063 2.48 90.616-1.758-.058-38.781-6.893-77.562-20.328-113.951l-63.108 23.904zM139.579 502.1c-11.073 35.154-15.737 72.148-14.974 108.955h100c-.707-28.097 2.695-56.422 11.713-83.112l-95.148-30.765-1.444 4.464zm1683.815 299.953h100v-100h-100zm-1698.789 9.002h100v-100h-100zm1698.79 190.998h100v-100h-100zm-1698.79 9.002h100v-100h-100zm1698.79 190.998h100v-100h-100zm-1698.79 9.002h100v-100h-100zm1698.79 190.998h100v-100h-100zm-1698.79 9.002h100v-100h-100zm1694.114 82.648c-5.336 26.187-15.287 51.436-29.332 74.176 28.411 15.882 58.774 40.18 86.021 51.04 20.16-33.102 34.42-69.797 41.803-107.849-32.39-5.243-67.957-14.814-98.492-17.367zm-1685.541 28.613c8.812 38.045 24.47 74.501 46.062 107.043l83.572-54.914c-15.31-22.988-26.324-48.804-32.46-75.728l-97.174 23.6zm1598.017 109.221a229.123 229.123 0 0 1-69.351 35.291l30.765 95.15c37.237-11.645 72.362-30.006 103.17-53.945l-60.8-79.392-3.726 2.852-.058.044zm-1470.812 82.62c31.872 23.227 67.99 40.623 106.025 51.05 7.854-32.004 19.314-66.086 24.985-96.832-25.856-7.32-50.418-19.22-72.135-35.05zm218.119 62.92h100v-100h-100zm199.52 0h100.48v-100h-100.48zm200.48 0h100v-100h-100zm200 0h100v-100h-100zm194 0h97.978v-100h-97.978zm206 0h100v-100h-100zm-108.022-30.642v-701.21H678.021v701.21zm-629.468-637.722h565.976v565.723H741.012zm75.113 224.728v96.207h415.748v-96.207z" style="line-height:normal;text-indent:0;text-align:start;text-decoration-line:none;text-decoration-style:solid;text-decoration-color:#000;text-transform:none;block-progression:tb;white-space:normal;isolation:auto;mix-blend-mode:normal;solid-color:#000;solid-opacity:1" color="#000" font-weight="400" font-family="sans-serif" overflow="visible" opacity=".97"/></svg>