<?xml version="1.0" encoding="UTF-8" standalone="no"?>
<svg
   xmlns:dc="http://purl.org/dc/elements/1.1/"
   xmlns:cc="http://creativecommons.org/ns#"
   xmlns:rdf="http://www.w3.org/1999/02/22-rdf-syntax-ns#"
   xmlns:svg="http://www.w3.org/2000/svg"
   xmlns="http://www.w3.org/2000/svg"
   width="2048"
   height="2048"
   id="svg3891"
   version="1.1">
  <defs
     id="defs3893" />
  <metadata
     id="metadata3896">
    <rdf:RDF>
      <cc:Work
         rdf:about="">
        <dc:format>image/svg+xml</dc:format>
        <dc:type
           rdf:resource="http://purl.org/dc/dcmitype/StillImage" />
        <dc:title></dc:title>
      </cc:Work>
    </rdf:RDF>
  </metadata>
  <g
     id="layer1"
     transform="translate(0,995.63783)">
    <g
       transform="matrix(96.752895,0,0,96.752895,55.328158,-100816.34)"
       id="layer1-6">
      <path
         style="color:#000000;font-style:normal;font-variant:normal;font-weight:normal;font-stretch:normal;font-size:medium;line-height:normal;font-family:sans-serif;font-variant-ligatures:normal;font-variant-position:normal;font-variant-caps:normal;font-variant-numeric:normal;font-variant-alternates:normal;font-feature-settings:normal;text-indent:0;text-align:start;text-decoration:none;text-decoration-line:none;text-decoration-style:solid;text-decoration-color:#000000;letter-spacing:normal;word-spacing:normal;text-transform:none;writing-mode:lr-tb;direction:ltr;text-orientation:mixed;dominant-baseline:auto;baseline-shift:baseline;text-anchor:start;white-space:normal;shape-padding:0;clip-rule:nonzero;display:inline;overflow:visible;visibility:visible;opacity:1;isolation:auto;mix-blend-mode:normal;color-interpolation:sRGB;color-interpolation-filters:linearRGB;solid-color:#000000;solid-opacity:1;vector-effect:none;fill:#000000;fill-opacity:1;fill-rule:nonzero;stroke:none;stroke-width:1.0061419;stroke-linecap:butt;stroke-linejoin:round;stroke-miterlimit:4;stroke-dasharray:8.04913504, 2.01228375, 1.00614189, 2.01228375;stroke-dashoffset:3.73684072;stroke-opacity:1;paint-order:normal;color-rendering:auto;image-rendering:auto;shape-rendering:auto;text-rendering:auto;enable-background:accumulate"
         d="m 4.883559,1034.1379 c -1.1907187,0.013 -2.3896097,0.9029 -2.6984029,2.127 -0.2265963,0.8482 -0.087227,1.7457 -0.1261672,2.6157 v 1.4909 h 1.0411058 c 0.018927,-1.1897 -0.03906,-2.3836 0.031231,-3.5706 0.1200405,-0.9597 1.001557,-1.6827 1.9063746,-1.6312 h 4.5682483 v -1.0354 c -1.5740848,0 -3.1485086,-0.01 -4.7223898,0 z m 6.678926,1.032 h 0.979092 v -1.0355 h -0.979092 z m 2.935629,0 c 0.645623,-0.035 1.356972,0.023 1.83768,0.5383 0.528323,0.5013 0.61246,1.2867 0.572135,1.9948 v 3.2195 h 1.060129 c -0.01571,-1.3653 0.03162,-2.7337 -0.02401,-4.097 -0.0868,-1.3989 -1.33605,-2.607 -2.66038,-2.6705 -0.260578,-0.033 -0.523787,-0.01 -0.785595,-0.017 1.5e-5,0.344 2.9e-5,0.6879 4.5e-5,1.0318 z m -12.4391251,8.3044 h 1.0411059 v -1.0337 H 2.0589889 Z m 14.8489441,0.5526 h 1.060129 v -1.0355 h -1.060129 z m -14.8489441,3.441 c 0.00191,1.131 0.7105119,2.2267 1.6897946,2.6933 0.8814582,0.4349 1.8776012,0.2284 2.8160937,0.277 0.2190732,-0.057 0.6583338,0.1181 0.7317986,-0.093 v -0.9422 c -0.9116703,-0.022 -1.8277671,0.048 -2.7361839,-0.042 -0.8523602,-0.1802 -1.4891334,-1.0443 -1.460397,-1.9607 v -1.8586 h -1.041106 v 1.9264 z m 14.8489441,-0.035 c 0.01986,1.0004 -0.769625,1.9317 -1.725291,1.9599 -0.996645,0.031 -1.996073,0.01 -2.993798,0.013 v 1.0355 c 1.07996,-0.021 2.163734,0.041 3.241203,-0.032 1.287481,-0.1348 2.457876,-1.3485 2.519827,-2.7152 0.04081,-0.5298 0.0073,-1.0634 0.01823,-1.5947 h -1.060129 l -4.5e-5,1.3333 z m -7.654721,3.0087 h 0.979092 v -1.0355 H 9.253212 Z"
         id="rect3804" />
    </g>
  </g>
</svg>
