<?xml version="1.0" encoding="UTF-8" standalone="no"?>
<!-- Created with Inkscape (http://www.inkscape.org/) -->

<svg
   xmlns:dc="http://purl.org/dc/elements/1.1/"
   xmlns:cc="http://creativecommons.org/ns#"
   xmlns:rdf="http://www.w3.org/1999/02/22-rdf-syntax-ns#"
   xmlns:svg="http://www.w3.org/2000/svg"
   xmlns="http://www.w3.org/2000/svg"
   version="1.1"
   width="2048"
   height="2048"
   id="svg3891">
  <defs
     id="defs3893" />
  <metadata
     id="metadata3896">
    <rdf:RDF>
      <cc:Work
         rdf:about="">
        <dc:format>image/svg+xml</dc:format>
        <dc:type
           rdf:resource="http://purl.org/dc/dcmitype/StillImage" />
        <dc:title></dc:title>
      </cc:Work>
    </rdf:RDF>
  </metadata>
  <g
     transform="translate(0,995.63783)"
     id="layer1">
    <g
       transform="matrix(96.752895,0,0,96.752895,55.328158,-100816.34)"
       id="layer1-6">
      <path
         d="m 9.9998645,1032.9063 c -3.6469978,-0.051 -7.1723553,2.2626 -8.5939028,5.6183 -1.51518542,3.3713 -0.77427099,7.5933 1.8054088,10.2422 2.4292487,2.6276 6.4271038,3.6114 9.8012115,2.4253 3.577339,-1.1701 6.238105,-4.6611 6.381386,-8.4277 0.235299,-3.6176 -1.874438,-7.2263 -5.116603,-8.8337 -1.318062,-0.6745 -2.797182,-1.0266 -4.2775005,-1.0244 z m 0,1.0313 c 3.6384995,-0.063 7.1124755,2.535 8.0573725,6.0534 0.987478,3.3173 -0.3527,7.1556 -3.209076,9.1201 -2.964105,2.1818 -7.3666386,2.0311 -10.1629501,-0.3673 -2.8699879,-2.3004 -3.84842242,-6.5758 -2.2947515,-9.9037 1.296496,-2.9521 4.3859757,-4.9401 7.6094051,-4.9025 z m 0,1.1873 c -3.2411856,-0.063 -6.2985347,2.3692 -6.9731854,5.5385 -0.7720757,3.1108 0.8406416,6.5943 3.7126369,8.017 2.8381548,1.5224 6.630977,0.7691 8.691748,-1.6999 2.151395,-2.3915 2.347297,-6.2588 0.427301,-8.8444 -1.323007,-1.8714 -3.565154,-3.0285 -5.8585005,-3.0112 z m 0,1.0313 c 2.8864535,-0.062 5.6031025,2.1808 6.0603025,5.0365 0.558113,2.8004 -1.130917,5.8184 -3.803025,6.8178 -2.5893886,1.074 -5.824318,0.075 -7.3405914,-2.2872 -1.6888288,-2.4244 -1.2740774,-6.0334 0.9583159,-7.9818 1.1142199,-1.0201 2.6152157,-1.5926 4.124998,-1.5853 z"
         id="path4481-5-4"
         style="font-size:medium;font-style:normal;font-variant:normal;font-weight:normal;font-stretch:normal;text-indent:0;text-align:start;text-decoration:none;line-height:normal;letter-spacing:normal;word-spacing:normal;text-transform:none;direction:ltr;block-progression:tb;writing-mode:lr-tb;text-anchor:start;baseline-shift:baseline;color:#000000;fill:#000000;fill-opacity:1;fill-rule:nonzero;stroke:none;stroke-width:1.03356075;marker:none;visibility:visible;display:inline;overflow:visible;enable-background:accumulate;font-family:Sans;-inkscape-font-specification:Sans" />
    </g>
  </g>
</svg>
