<?xml version="1.0" encoding="UTF-8" standalone="no"?>
<svg
   xmlns:dc="http://purl.org/dc/elements/1.1/"
   xmlns:cc="http://creativecommons.org/ns#"
   xmlns:rdf="http://www.w3.org/1999/02/22-rdf-syntax-ns#"
   xmlns:svg="http://www.w3.org/2000/svg"
   xmlns="http://www.w3.org/2000/svg"
   version="1.1"
   id="svg3891"
   height="2048"
   width="2048">
  <defs
     id="defs3893" />
  <metadata
     id="metadata3896">
    <rdf:RDF>
      <cc:Work
         rdf:about="">
        <dc:format>image/svg+xml</dc:format>
        <dc:type
           rdf:resource="http://purl.org/dc/dcmitype/StillImage" />
        <dc:title></dc:title>
      </cc:Work>
    </rdf:RDF>
  </metadata>
  <g
     transform="translate(0,995.63783)"
     id="layer1">
    <path
       id="rect3804"
       transform="translate(0,-995.63783)"
       d="M 441.21484 273.59961 C 266.48882 273.59961 124.31055 415.76814 124.31055 590.49414 L 124.31055 1457.4961 C 124.31055 1632.2222 266.48882 1774.4004 441.21484 1774.4004 L 1606.7852 1774.4004 C 1781.5113 1774.4004 1923.6895 1632.2222 1923.6895 1457.4961 L 1923.6895 590.49414 C 1923.6895 415.76814 1781.5113 273.59961 1606.7852 273.59961 L 441.21484 273.59961 z M 441.21484 373.56445 L 1606.7852 373.56445 C 1727.841 373.56445 1823.7227 469.44664 1823.7227 590.49414 L 1823.7227 1457.4961 C 1823.7227 1578.5534 1727.841 1674.4355 1606.7852 1674.4355 L 1370.457 1674.4355 L 1370.457 1076.9688 L 1370.457 1045.2246 L 1338.7129 1045.2246 L 709.28711 1045.2246 L 677.54297 1045.2246 L 677.54297 1076.9688 L 677.54297 1674.4355 L 441.21484 1674.4355 C 320.15909 1674.4355 224.27734 1578.5534 224.27734 1457.4961 L 224.27734 590.49414 C 224.27734 469.44664 320.15909 373.56445 441.21484 373.56445 z M 741.01172 1108.7129 L 1306.9883 1108.7129 L 1306.9883 1674.4355 L 741.01172 1674.4355 L 741.01172 1108.7129 z M 816.125 1333.4414 L 816.125 1429.6484 L 1231.873 1429.6484 L 1231.873 1333.4414 L 816.125 1333.4414 z "
       style="color:#000000;font-style:normal;font-variant:normal;font-weight:normal;font-stretch:normal;font-size:medium;line-height:normal;font-family:sans-serif;text-indent:0;text-align:start;text-decoration:none;text-decoration-line:none;text-decoration-style:solid;text-decoration-color:#000000;letter-spacing:normal;word-spacing:normal;text-transform:none;direction:ltr;block-progression:tb;writing-mode:lr-tb;baseline-shift:baseline;text-anchor:start;white-space:normal;clip-rule:nonzero;display:inline;overflow:visible;visibility:visible;opacity:1;isolation:auto;mix-blend-mode:normal;color-interpolation:sRGB;color-interpolation-filters:linearRGB;solid-color:#000000;solid-opacity:1;fill:#000000;fill-opacity:1;fill-rule:nonzero;stroke:none;stroke-width:1.03356075;stroke-linecap:round;stroke-linejoin:round;stroke-miterlimit:4;stroke-dasharray:none;stroke-dashoffset:0;stroke-opacity:1;color-rendering:auto;image-rendering:auto;shape-rendering:auto;text-rendering:auto;enable-background:accumulate" />
  </g>
</svg>
