<?xml version="1.0" encoding="UTF-8" standalone="no"?>
<!-- Created with Inkscape (http://www.inkscape.org/) -->

<svg
   xmlns:dc="http://purl.org/dc/elements/1.1/"
   xmlns:cc="http://creativecommons.org/ns#"
   xmlns:rdf="http://www.w3.org/1999/02/22-rdf-syntax-ns#"
   xmlns:svg="http://www.w3.org/2000/svg"
   xmlns="http://www.w3.org/2000/svg"
   xmlns:inkscape="http://www.inkscape.org/namespaces/inkscape"
   version="1.1"
   width="2048"
   height="2048"
   id="svg3891">
  <defs
     id="defs3893">
    <inkscape:path-effect
       effect="spiro"
       id="path-effect3840" />
    <inkscape:path-effect
       effect="spiro"
       id="path-effect3836" />
    <inkscape:path-effect
       effect="spiro"
       id="path-effect3836-9" />
  </defs>
  <metadata
     id="metadata3896">
    <rdf:RDF>
      <cc:Work
         rdf:about="">
        <dc:format>image/svg+xml</dc:format>
        <dc:type
           rdf:resource="http://purl.org/dc/dcmitype/StillImage" />
        <dc:title></dc:title>
      </cc:Work>
    </rdf:RDF>
  </metadata>
  <g
     transform="translate(0,995.63783)"
     id="layer1">
    <path
       d="m 1608.375,249 c -8.5667,0.01 -17.1644,-0.002 -25.7812,1.15625 l -1138.2813,0 C 252.55198,245.0401 83.520358,424.03191 100.125,615.125 c 0.29951,286.38864 -0.585795,572.8085 0.46875,859.1875 5.44575,187.9172 187.11316,340.6614 372.65625,323.3437 383.65828,0 767.3197,0.9654 1150.9688,0 185.204,-4.73 339.4893,-180.8301 323.6562,-364.5 -0.2898,-286.3886 0.5963,-572.80844 -0.4375,-859.18745 -4.4761,-176.36242 -164.8679,-324.68341 -339.0625,-324.5 l 0,-0.46875 z m -425.1562,151.46875 c 147.7787,-0.01 295.5585,6.6e-4 443.3124,1.0625 108.3578,6.27453 183.1461,114.52596 170.375,217.96875 -0.6279,285.53917 1.2886,571.1653 -0.9374,856.6562 -6.2762,108.2694 -114.6591,183.0115 -218.1876,170.25 -69.1058,-0.1735 -138.2025,-0.2068 -207.3124,-0.2187 l 0,-603.2187 0,-31.75 -31.75,0 -629.43755,0 -31.75,0 0,31.75 0,603.375 c -84.35848,-0.1402 -168.71424,-0.4191 -253.0625,-0.9063 -108.40493,-6.3711 -186.38129,-113.4954 -173.375,-218 0.65505,-285.5392 -1.33587,-571.16534 0.96875,-856.65625 7.60082,-96.43463 96.49786,-172.35208 192.25,-170.21875 246.28697,0.96531 492.60847,-0.0335 738.9063,-0.0625 l 0,-0.0312 z M 741,1074.7188 l 566,0 0,565.9374 -566,0 0,-565.9374 z m 75.125,230.7187 0,96.2187 415.75,0 0,-96.2187 -415.75,0 z"
       transform="translate(0,-995.63783)"
       id="rect3804"
       style="font-size:medium;font-style:normal;font-variant:normal;font-weight:normal;font-stretch:normal;text-indent:0;text-align:start;text-decoration:none;line-height:normal;letter-spacing:normal;word-spacing:normal;text-transform:none;direction:ltr;block-progression:tb;writing-mode:lr-tb;text-anchor:start;baseline-shift:baseline;color:#000000;fill:#000000;fill-opacity:1;stroke:none;stroke-width:1.55755734;marker:none;visibility:visible;display:inline;overflow:visible;enable-background:accumulate;font-family:Sans;-inkscape-font-specification:Sans" />
  </g>
</svg>
