<?xml version="1.0" encoding="UTF-8" standalone="no"?>
<!-- Created with Inkscape (http://www.inkscape.org/) -->

<svg
   xmlns:dc="http://purl.org/dc/elements/1.1/"
   xmlns:cc="http://creativecommons.org/ns#"
   xmlns:rdf="http://www.w3.org/1999/02/22-rdf-syntax-ns#"
   xmlns:svg="http://www.w3.org/2000/svg"
   xmlns="http://www.w3.org/2000/svg"
   version="1.1"
   width="2048"
   height="2048"
   id="svg3891">
  <defs
     id="defs3893" />
  <metadata
     id="metadata3896">
    <rdf:RDF>
      <cc:Work
         rdf:about="">
        <dc:format>image/svg+xml</dc:format>
        <dc:type
           rdf:resource="http://purl.org/dc/dcmitype/StillImage" />
        <dc:title></dc:title>
      </cc:Work>
    </rdf:RDF>
  </metadata>
  <g
     transform="translate(0,995.63783)"
     id="layer1">
    <path
       d="m 1607.0312,249 c -8.5667,0.01 -17.1643,-0.002 -25.7812,1.15625 l -1138.25,0 C 251.23948,245.0401 82.207854,424.03191 98.8125,615.125 c 0.299502,286.38864 -0.585793,572.8085 0.46875,859.1875 5.44575,187.9172 187.08191,340.6614 372.625,323.3437 383.65828,0 767.35095,0.9654 1150.99995,0 185.2041,-4.73 339.4894,-180.8301 323.6563,-364.5 -0.2898,-286.3886 0.5963,-572.80844 -0.4375,-859.18745 -4.4761,-176.36242 -164.8991,-324.68341 -339.0938,-324.5 l 0,-0.46875 z m -425.125,151.46875 c 147.7788,-0.01 295.5273,6.6e-4 443.2813,1.0625 108.3578,6.27453 183.1774,114.52596 170.4063,217.96875 -0.628,285.53917 1.2884,571.1653 -0.9376,856.6562 -6.2761,108.2694 -114.6589,183.0115 -218.1874,170.25 -68.658,-0.1724 -137.3381,-0.2061 -206,-0.2187 l 0,-600.8125 0,-31.75 -31.75,0 -629.43755,0 -31.75,0 0,31.75 0,600.9688 c -84.80145,-0.1395 -169.58386,-0.4165 -254.375,-0.9063 -108.40493,-6.3711 -186.38129,-113.4954 -173.375,-218 C 250.4363,1141.8983 248.44538,856.27216 250.75,570.78125 258.35082,474.34662 347.24786,398.42917 443,400.5625 689.28697,401.52781 935.6085,400.529 1181.9062,400.5 l 0,-0.0312 z m -440.87495,676.62505 565.96875,0 0,565.9687 -565.96875,0 0,-565.9687 z m 235.5,80.5312 0,47.4688 0,110.2187 -110.25,0 -47.46875,0 0,94.9687 47.46875,0 110.25,0 0,110.2188 0,47.5 94.93755,0 0,-47.5 0,-110.2188 110.25,0 47.4687,0 0,-94.9687 -47.4687,0 -110.25,0 0,-110.2187 0,-47.4688 -94.93755,0 z"
       transform="translate(0,-995.63783)"
       id="rect3804"
       style="font-size:medium;font-style:normal;font-variant:normal;font-weight:normal;font-stretch:normal;text-indent:0;text-align:start;text-decoration:none;line-height:normal;letter-spacing:normal;word-spacing:normal;text-transform:none;direction:ltr;block-progression:tb;writing-mode:lr-tb;text-anchor:start;baseline-shift:baseline;color:#000000;fill:#000000;fill-opacity:1;stroke:none;stroke-width:1.55755734;marker:none;visibility:visible;display:inline;overflow:visible;enable-background:accumulate;font-family:Sans;-inkscape-font-specification:Sans" />
  </g>
</svg>
