<?xml version="1.0" encoding="UTF-8" standalone="no"?>
<!-- Created with Inkscape (http://www.inkscape.org/) -->

<svg
   xmlns:dc="http://purl.org/dc/elements/1.1/"
   xmlns:cc="http://creativecommons.org/ns#"
   xmlns:rdf="http://www.w3.org/1999/02/22-rdf-syntax-ns#"
   xmlns:svg="http://www.w3.org/2000/svg"
   xmlns="http://www.w3.org/2000/svg"
   version="1.1"
   width="2048"
   height="2048"
   id="svg3891">
  <defs
     id="defs3893" />
  <metadata
     id="metadata3896">
    <rdf:RDF>
      <cc:Work
         rdf:about="">
        <dc:format>image/svg+xml</dc:format>
        <dc:type
           rdf:resource="http://purl.org/dc/dcmitype/StillImage" />
        <dc:title></dc:title>
      </cc:Work>
    </rdf:RDF>
  </metadata>
  <g
     transform="translate(0,995.63783)"
     id="layer1">
    <g
       transform="matrix(96.752895,0,0,96.752895,55.328158,-100816.34)"
       id="layer1-6">
      <path
         d="m 1608.0625,248.3125 c -8.5793,0.009 -17.1832,0.38167 -25.8125,1.125 l -1139.90625,0 0,-0.4375 C 250.30772,243.8721 81.027748,423.28047 97.65625,614.8125 c 0.299934,287.04649 -0.587308,574.1194 0.46875,861.1563 5.45357,188.3488 187.37784,341.4512 373.1875,324.0937 384.2095,0 768.4249,0.9675 1152.625,0 185.4703,-4.7409 339.9808,-181.252 324.125,-365.3437 -0.2903,-287.0465 0.5978,-574.11949 -0.4375,-861.1563 -4.4827,-176.77192 -165.1176,-325.43359 -339.5625,-325.25 z m -425.75,151.8125 c 147.991,-0.0142 295.9711,0.19676 443.9375,1.03125 108.5135,6.28894 183.4144,114.8196 170.625,218.5 -0.6289,286.19506 1.2907,572.44705 -0.9375,858.59375 -6.2851,108.518 -114.8227,183.447 -218.5,170.6562 -384.9786,-0.9675 -770.03832,1.2566 -1154.96875,-0.9687 -108.56067,-6.3857 -186.64998,-113.7553 -173.625,-218.5 0.65598,-286.1951 -1.33919,-572.47831 0.96875,-858.625 7.61174,-96.65614 96.64153,-172.76324 192.53125,-170.625 246.64082,0.60471 493.31711,-0.0389 739.96875,-0.0625 z"
         transform="matrix(0.01033561,0,0,0.01033561,-0.57185015,1031.7077)"
         id="rect3804"
         style="font-size:medium;font-style:normal;font-variant:normal;font-weight:normal;font-stretch:normal;text-indent:0;text-align:start;text-decoration:none;line-height:normal;letter-spacing:normal;word-spacing:normal;text-transform:none;direction:ltr;block-progression:tb;writing-mode:lr-tb;text-anchor:start;baseline-shift:baseline;color:#000000;fill:#000000;fill-opacity:1;stroke:none;stroke-width:1.55755734;marker:none;visibility:visible;display:inline;overflow:visible;enable-background:accumulate;font-family:Sans;-inkscape-font-specification:Sans" />
    </g>
  </g>
</svg>
