<?xml version="1.0" encoding="UTF-8" standalone="no"?>
<!-- Created with Inkscape (http://www.inkscape.org/) -->

<svg
   width="2048"
   height="2048"
   id="svg2"
   version="1.1"
   xmlns="http://www.w3.org/2000/svg"
   xmlns:svg="http://www.w3.org/2000/svg"
   xmlns:rdf="http://www.w3.org/1999/02/22-rdf-syntax-ns#"
   xmlns:cc="http://creativecommons.org/ns#"
   xmlns:dc="http://purl.org/dc/elements/1.1/">
  <defs
     id="defs4" />
  <metadata
     id="metadata7">
    <rdf:RDF>
      <cc:Work
         rdf:about="">
        <dc:format>image/svg+xml</dc:format>
        <dc:type
           rdf:resource="http://purl.org/dc/dcmitype/StillImage" />
      </cc:Work>
    </rdf:RDF>
  </metadata>
  <g
     id="layer1"
     transform="translate(0,995.6378)">
    <path
       id="rect2985"
       style="color:#000000;fill:#000000;stroke-linecap:square;-inkscape-stroke:none"
       d="M 1264.8535 -867.87413 L 1264.8535 28.356341 L 1264.8535 924.60048 L 1804.2715 924.60048 L 1865.1738 924.60048 L 1865.1738 802.79384 L 1804.2715 802.79384 L 1386.6602 802.79384 L 1386.6602 28.356341 L 1386.6602 -746.06749 L 1804.2715 -746.06749 L 1865.1738 -746.06749 L 1865.1738 -867.87413 L 1804.2715 -867.87413 L 1264.8535 -867.87413 z M 1057.498 -259.81944 L 932.54492 -133.95616 L 1058.4082 -9.0030344 L 1183.3613 -134.86632 L 1057.498 -259.81944 z M 807.5918 -8.0928781 L 682.63867 117.76845 L 808.50195 242.72158 L 933.45508 116.86025 L 807.5918 -8.0928781 z M 557.68555 243.63173 L 432.73242 369.49501 L 558.5957 494.44814 L 683.54883 368.58486 L 557.68555 243.63173 z M 307.7793 495.35829 L 182.82617 621.22158 L 308.68945 746.1747 L 433.64258 620.31142 L 307.7793 495.35829 z " />
  </g>
</svg>
