<?xml version="1.0" encoding="UTF-8" standalone="no"?>
<!-- Created with Inkscape (http://www.inkscape.org/) -->

<svg
   xmlns:dc="http://purl.org/dc/elements/1.1/"
   xmlns:cc="http://creativecommons.org/ns#"
   xmlns:rdf="http://www.w3.org/1999/02/22-rdf-syntax-ns#"
   xmlns:svg="http://www.w3.org/2000/svg"
   xmlns="http://www.w3.org/2000/svg"
   xmlns:sodipodi="http://sodipodi.sourceforge.net/DTD/sodipodi-0.dtd"
   xmlns:inkscape="http://www.inkscape.org/namespaces/inkscape"
   width="2048"
   height="2048"
   id="svg3891"
   version="1.1"
   inkscape:version="0.91 r13725"
   sodipodi:docname="transaction.svg"
   inkscape:export-filename="/home/nikku/camunda/projects/bpmn.io/bpmn-font/raw/subprocess-collapsed.png"
   inkscape:export-xdpi="0.88"
   inkscape:export-ydpi="0.88">
  <defs
     id="defs3893" />
  <sodipodi:namedview
     id="base"
     pagecolor="#ffffff"
     bordercolor="#666666"
     borderopacity="1.0"
     inkscape:pageopacity="0.0"
     inkscape:pageshadow="2"
     inkscape:zoom="0.175"
     inkscape:cx="2886.2385"
     inkscape:cy="1130.2092"
     inkscape:document-units="px"
     inkscape:current-layer="layer1"
     showgrid="false"
     inkscape:window-width="1596"
     inkscape:window-height="861"
     inkscape:window-x="0"
     inkscape:window-y="37"
     inkscape:window-maximized="0" />
  <metadata
     id="metadata3896">
    <rdf:RDF>
      <cc:Work
         rdf:about="">
        <dc:format>image/svg+xml</dc:format>
        <dc:type
           rdf:resource="http://purl.org/dc/dcmitype/StillImage" />
        <dc:title></dc:title>
      </cc:Work>
    </rdf:RDF>
  </metadata>
  <g
     inkscape:label="Layer 1"
     inkscape:groupmode="layer"
     id="layer1"
     transform="translate(0,995.63783)">
    <path
       style="color:#000000;font-style:normal;font-variant:normal;font-weight:normal;font-stretch:normal;font-size:medium;line-height:normal;font-family:sans-serif;text-indent:0;text-align:start;text-decoration:none;text-decoration-line:none;text-decoration-style:solid;text-decoration-color:#000000;letter-spacing:normal;word-spacing:normal;text-transform:none;direction:ltr;block-progression:tb;writing-mode:lr-tb;baseline-shift:baseline;text-anchor:start;white-space:normal;clip-rule:nonzero;display:inline;overflow:visible;visibility:visible;opacity:1;isolation:auto;mix-blend-mode:normal;color-interpolation:sRGB;color-interpolation-filters:linearRGB;solid-color:#000000;solid-opacity:1;fill:#000000;fill-opacity:1;fill-rule:nonzero;stroke:none;stroke-width:69.99999237;stroke-linecap:butt;stroke-linejoin:miter;stroke-miterlimit:4;stroke-dasharray:none;stroke-dashoffset:0;stroke-opacity:1;color-rendering:auto;image-rendering:auto;shape-rendering:auto;text-rendering:auto;enable-background:accumulate"
       d="M 429 274 C 260.6354 274 124 410.6354 124 579 L 124 1469 C 124 1637.3646 260.6354 1774 429 1774 L 1619 1774 C 1787.3646 1774 1924 1637.3646 1924 1469 L 1924 579 C 1924 410.6354 1787.3646 274 1619 274 L 429 274 z M 429 344 L 1619 344 C 1749.7954 344 1854 448.20459 1854 579 L 1854 1469 C 1854 1599.7954 1749.7954 1704 1619 1704 L 429 1704 C 298.2046 1704 194 1599.7954 194 1469 L 194 579 C 194 448.20459 298.2046 344 429 344 z M 488.40625 444 C 384.08939 444 299 529.04255 299 633.33789 L 299 1414.6641 C 299 1518.9594 384.08939 1604 488.40625 1604 L 1559.5938 1604 C 1663.9106 1604 1749 1518.9594 1749 1414.6641 L 1749 633.33789 C 1749 529.04255 1663.9106 444 1559.5938 444 L 488.40625 444 z M 488.40625 514 L 1559.5938 514 C 1626.3583 514 1679 566.62862 1679 633.33789 L 1679 1414.6641 C 1679 1481.3733 1626.3582 1534 1559.5938 1534 L 488.40625 1534 C 421.64171 1534 369 1481.3733 369 1414.6641 L 369 633.33789 C 369 566.62862 421.64171 514 488.40625 514 z "
       transform="translate(0,-995.63783)"
       id="rect3804" />
  </g>
</svg>
