<?xml version="1.0" encoding="UTF-8" standalone="no"?>
<!-- Created with Inkscape (http://www.inkscape.org/) -->

<svg
   xmlns:dc="http://purl.org/dc/elements/1.1/"
   xmlns:cc="http://creativecommons.org/ns#"
   xmlns:rdf="http://www.w3.org/1999/02/22-rdf-syntax-ns#"
   xmlns:svg="http://www.w3.org/2000/svg"
   xmlns="http://www.w3.org/2000/svg"
   version="1.1"
   width="2048"
   height="2048"
   id="svg3891">
  <defs
     id="defs3893" />
  <metadata
     id="metadata3896">
    <rdf:RDF>
      <cc:Work
         rdf:about="">
        <dc:format>image/svg+xml</dc:format>
        <dc:type
           rdf:resource="http://purl.org/dc/dcmitype/StillImage" />
        <dc:title></dc:title>
      </cc:Work>
    </rdf:RDF>
  </metadata>
  <g
     transform="translate(0,995.63783)"
     id="layer1">
    <g
       transform="matrix(96.752895,0,0,96.752895,55.328158,-100816.34)"
       id="layer1-6"
       style="display:inline">
      <path
         d="m 7.6268725,1033.6863 c 0,0.4337 0,0.8674 0,1.301 -0.5851902,-0.035 -1.1226807,0.2636 -1.685233,0.387 -0.9877359,0.2891 -2.9632076,0.8672 -2.9632076,0.8672 0,0 -0.1652359,0.9088 0.1777618,0.8343 4.6296679,0 9.2593353,0 13.8890033,0 -0.06498,-0.2196 0.158734,-0.863 -0.170767,-0.8837 -1.404387,-0.3974 -2.804097,-0.8279 -4.211399,-1.2048 -0.404356,0.1231 -0.232178,-0.3305 -0.266275,-0.5777 -0.05704,-0.2137 0.115938,-0.6574 -0.08888,-0.7233 -1.560334,0 -3.1206681,0 -4.6810025,0 z m -4.1894749,4.6882 c 0.4581265,4.2399 0.9164451,8.4798 1.378835,12.7193 3.5091549,0 7.0183104,0 10.5274644,0 0.430405,-4.2201 0.860809,-8.4402 1.291214,-12.6602 -4.399126,-0.027 -8.7982929,-0.055 -13.1975134,-0.059 z m 1.4999554,1.3443 c 3.395894,0 6.791788,0 10.187682,0 -0.333323,3.3438 -0.666647,6.6875 -0.99997,10.0313 -2.718804,0 -5.437608,0 -8.1564119,0 -0.3437668,-3.3438 -0.6875334,-6.6875 -1.0313001,-10.0313 z m 8.066621,1.0826 c -0.567241,-0.027 -0.698105,0.5707 -0.721331,1.0138 -0.290128,2.1459 -0.611687,4.289 -0.88212,6.4367 0.02623,0.8762 1.400974,0.7289 1.31127,-0.1155 0.301466,-2.2471 0.63948,-4.491 0.918074,-6.7401 -0.01625,-0.3241 -0.302074,-0.5939 -0.625893,-0.5949 z m -6.0062818,0.01 c -0.6137173,0.031 -0.6534417,0.7065 -0.5305421,1.1644 0.2972507,2.1585 0.598851,4.3165 0.8933792,6.4753 0.2351814,0.9444 1.6207076,0.3347 1.2089113,-0.4978 -0.31513,-2.2298 -0.6091946,-4.4633 -0.9375124,-6.6909 -0.078647,-0.2719 -0.351921,-0.4652 -0.634236,-0.451 z"
         id="rect4089"
         style="font-size:medium;font-style:normal;font-variant:normal;font-weight:normal;font-stretch:normal;text-indent:0;text-align:start;text-decoration:none;line-height:normal;letter-spacing:normal;word-spacing:normal;text-transform:none;direction:ltr;block-progression:tb;writing-mode:lr-tb;text-anchor:start;baseline-shift:baseline;color:#000000;fill:#000000;fill-opacity:1;fill-rule:nonzero;stroke:none;stroke-width:1.343629;marker:none;visibility:visible;display:inline;overflow:visible;enable-background:accumulate;font-family:Sans;-inkscape-font-specification:Sans" />
    </g>
  </g>
</svg>
