<?xml version="1.0" encoding="UTF-8" standalone="no"?>
<!-- Created with Inkscape (http://www.inkscape.org/) -->

<svg
   xmlns:dc="http://purl.org/dc/elements/1.1/"
   xmlns:cc="http://creativecommons.org/ns#"
   xmlns:rdf="http://www.w3.org/1999/02/22-rdf-syntax-ns#"
   xmlns:svg="http://www.w3.org/2000/svg"
   xmlns="http://www.w3.org/2000/svg"
   xmlns:sodipodi="http://sodipodi.sourceforge.net/DTD/sodipodi-0.dtd"
   xmlns:inkscape="http://www.inkscape.org/namespaces/inkscape"
   width="2000"
   height="2000"
   viewBox="0 0 2000 2000"
   id="svg2"
   version="1.1"
   inkscape:version="0.91 r13725"
   sodipodi:docname="event-based-gateway-high-quality.svg">
  <defs
     id="defs4" />
  <sodipodi:namedview
     id="base"
     pagecolor="#ffffff"
     bordercolor="#666666"
     borderopacity="1.0"
     inkscape:pageopacity="0.0"
     inkscape:pageshadow="2"
     inkscape:zoom="0.84863282"
     inkscape:cx="347.76264"
     inkscape:cy="866.32372"
     inkscape:document-units="px"
     inkscape:current-layer="layer1"
     showgrid="true"
     units="px"
     showguides="false"
     inkscape:window-width="1878"
     inkscape:window-height="1035"
     inkscape:window-x="42"
     inkscape:window-y="0"
     inkscape:window-maximized="0">
    <inkscape:grid
       type="xygrid"
       id="grid4008"
       empspacing="20"
       dotted="false" />
  </sodipodi:namedview>
  <metadata
     id="metadata7">
    <rdf:RDF>
      <cc:Work
         rdf:about="">
        <dc:format>image/svg+xml</dc:format>
        <dc:type
           rdf:resource="http://purl.org/dc/dcmitype/StillImage" />
        <dc:title />
        <cc:license
           rdf:resource="https://github.com/bpmn-io/bpmn-font/blob/master/LICENSE" />
        <dc:creator>
          <cc:Agent>
            <dc:title>Jörg Dotzki</dc:title>
          </cc:Agent>
        </dc:creator>
        <dc:subject>
          <rdf:Bag>
            <rdf:li>BPMN</rdf:li>
            <rdf:li>bpmn-io</rdf:li>
            <rdf:li>bpmn.io</rdf:li>
            <rdf:li>Font</rdf:li>
          </rdf:Bag>
        </dc:subject>
      </cc:Work>
    </rdf:RDF>
  </metadata>
  <g
     inkscape:label="Ebene 1"
     inkscape:groupmode="layer"
     id="layer1"
     transform="translate(0,947.63784)">
    <path
       style="color:#000000;font-style:normal;font-variant:normal;font-weight:normal;font-stretch:normal;font-size:medium;line-height:normal;font-family:sans-serif;text-indent:0;text-align:start;text-decoration:none;text-decoration-line:none;text-decoration-style:solid;text-decoration-color:#000000;letter-spacing:normal;word-spacing:normal;text-transform:none;direction:ltr;block-progression:tb;writing-mode:lr-tb;baseline-shift:baseline;text-anchor:start;white-space:normal;clip-rule:nonzero;display:inline;overflow:visible;visibility:visible;opacity:1;isolation:auto;mix-blend-mode:normal;color-interpolation:sRGB;color-interpolation-filters:linearRGB;solid-color:#000000;solid-opacity:1;fill:#000000;fill-opacity:1;fill-rule:nonzero;stroke:none;stroke-width:40;stroke-linecap:round;stroke-linejoin:miter;stroke-miterlimit:4;stroke-dasharray:none;stroke-dashoffset:0;stroke-opacity:1;color-rendering:auto;image-rendering:auto;shape-rendering:auto;text-rendering:auto;enable-background:accumulate"
       d="M 1000 10 L 985.85938 24.142578 L 10 1000.002 L 1000 1990 L 1990 1000 L 1000 10 z M 1000 66.568359 L 1933.4316 1000 L 1000 1933.4316 L 66.568359 1000.002 L 1000 66.568359 z M 1000 430 C 848.83044 430 703.84224 490.0562 596.94922 596.94922 C 490.0562 703.84224 430 848.83044 430 1000 C 430 1151.1696 490.0562 1296.1578 596.94922 1403.0508 C 703.84224 1509.9438 848.83044 1570 1000 1570 C 1151.1696 1570 1296.1578 1509.9438 1403.0508 1403.0508 C 1509.9438 1296.1578 1570 1151.1696 1570 1000 C 1570 848.83044 1509.9438 703.84224 1403.0508 596.94922 C 1296.1578 490.0562 1151.1696 430 1000 430 z M 1000 450 C 1145.8729 450 1285.7605 507.94408 1388.9082 611.0918 C 1492.0559 714.23953 1550 854.12709 1550 1000 C 1550 1145.8729 1492.0559 1285.7624 1388.9082 1388.9102 C 1285.7605 1492.0579 1145.8729 1550 1000 1550 C 854.12709 1550 714.23952 1492.0579 611.0918 1388.9102 C 507.94407 1285.7624 450 1145.8729 450 1000 C 450 854.12709 507.94407 714.23953 611.0918 611.0918 C 714.23952 507.94408 854.12709 450 1000 450 z M 1000 560 C 883.30859 560 771.38634 606.35976 688.87305 688.87305 C 606.35976 771.38633 560 883.30859 560 1000 C 560 1116.6914 606.35976 1228.6137 688.87305 1311.127 C 771.38634 1393.6402 883.30859 1440 1000 1440 C 1116.6914 1440 1228.6137 1393.6402 1311.127 1311.127 C 1393.6402 1228.6137 1440 1116.6914 1440 1000 C 1440 883.30859 1393.6402 771.38633 1311.127 688.87305 C 1228.6137 606.35976 1116.6914 560 1000 560 z M 1000 580 C 1111.3948 580 1218.2164 624.24764 1296.9844 703.01562 C 1375.7524 781.78363 1420 888.60523 1420 1000 C 1420 1111.3948 1375.7524 1218.2183 1296.9844 1296.9863 C 1218.2164 1375.7543 1111.3948 1420 1000 1420 C 888.60523 1420 781.78363 1375.7543 703.01562 1296.9863 C 624.24763 1218.2183 580 1111.3948 580 1000 C 580 888.60523 624.24764 781.78363 703.01562 703.01562 C 781.78363 624.24764 888.60523 580 1000 580 z M 1000 677.5625 L 994.12109 681.83398 L 695.07617 899.10156 L 811.54688 1257.5625 L 1188.4531 1257.5625 L 1304.9238 899.10156 L 1000 677.5625 z M 999.99805 702.28516 L 1281.4121 906.74219 L 1173.9238 1237.5625 L 826.07617 1237.5625 L 718.58789 906.74219 L 999.99805 702.28516 z "
       transform="translate(0,-947.63784)"
       id="rect4135" />
  </g>
</svg>
