<?xml version="1.0" encoding="UTF-8" standalone="no"?>
<!-- Created with Inkscape (http://www.inkscape.org/) -->

<svg
   xmlns:dc="http://purl.org/dc/elements/1.1/"
   xmlns:cc="http://creativecommons.org/ns#"
   xmlns:rdf="http://www.w3.org/1999/02/22-rdf-syntax-ns#"
   xmlns:svg="http://www.w3.org/2000/svg"
   xmlns="http://www.w3.org/2000/svg"
   xmlns:sodipodi="http://sodipodi.sourceforge.net/DTD/sodipodi-0.dtd"
   xmlns:inkscape="http://www.inkscape.org/namespaces/inkscape"
   width="2000"
   height="2000"
   viewBox="0 0 2000 2000"
   id="svg2"
   version="1.1"
   inkscape:version="0.91 r13725"
   sodipodi:docname="event-based-gateway-high-quality.svg">
  <defs
     id="defs4" />
  <sodipodi:namedview
     id="base"
     pagecolor="#ffffff"
     bordercolor="#666666"
     borderopacity="1.0"
     inkscape:pageopacity="0.0"
     inkscape:pageshadow="2"
     inkscape:zoom="0.4345"
     inkscape:cx="164.55696"
     inkscape:cy="1000"
     inkscape:document-units="px"
     inkscape:current-layer="layer1"
     showgrid="true"
     units="px"
     showguides="false"
     inkscape:window-width="1878"
     inkscape:window-height="1035"
     inkscape:window-x="42"
     inkscape:window-y="0"
     inkscape:window-maximized="0">
    <inkscape:grid
       type="xygrid"
       id="grid4008"
       empspacing="20"
       dotted="false" />
  </sodipodi:namedview>
  <metadata
     id="metadata7">
    <rdf:RDF>
      <cc:Work
         rdf:about="">
        <dc:format>image/svg+xml</dc:format>
        <dc:type
           rdf:resource="http://purl.org/dc/dcmitype/StillImage" />
        <dc:title />
        <cc:license
           rdf:resource="https://github.com/bpmn-io/bpmn-font/blob/master/LICENSE" />
        <dc:creator>
          <cc:Agent>
            <dc:title>Jörg Dotzki</dc:title>
          </cc:Agent>
        </dc:creator>
        <dc:subject>
          <rdf:Bag>
            <rdf:li>BPMN</rdf:li>
            <rdf:li>bpmn-io</rdf:li>
            <rdf:li>bpmn.io</rdf:li>
            <rdf:li>Font</rdf:li>
          </rdf:Bag>
        </dc:subject>
      </cc:Work>
    </rdf:RDF>
  </metadata>
  <g
     inkscape:label="Ebene 1"
     inkscape:groupmode="layer"
     id="layer1"
     transform="translate(0,947.63784)">
    <path
       style="color:#000000;font-style:normal;font-variant:normal;font-weight:normal;font-stretch:normal;font-size:medium;line-height:normal;font-family:sans-serif;text-indent:0;text-align:start;text-decoration:none;text-decoration-line:none;text-decoration-style:solid;text-decoration-color:#000000;letter-spacing:normal;word-spacing:normal;text-transform:none;direction:ltr;block-progression:tb;writing-mode:lr-tb;baseline-shift:baseline;text-anchor:start;white-space:normal;clip-rule:nonzero;display:inline;overflow:visible;visibility:visible;opacity:1;isolation:auto;mix-blend-mode:normal;color-interpolation:sRGB;color-interpolation-filters:linearRGB;solid-color:#000000;solid-opacity:1;fill:#000000;fill-opacity:1;fill-rule:nonzero;stroke:none;stroke-width:100;stroke-linecap:round;stroke-linejoin:miter;stroke-miterlimit:4;stroke-dasharray:none;stroke-dashoffset:0;stroke-opacity:1;color-rendering:auto;image-rendering:auto;shape-rendering:auto;text-rendering:auto;enable-background:accumulate"
       d="M 1000 9.8574219 L 964.64453 45.212891 L 9.8574219 1000 L 1000 1990.1406 L 1990.1406 1000 L 1000 9.8574219 z M 1000 151.2793 L 1848.7188 1000 L 1000 1848.7207 L 151.2793 1000 L 1000 151.2793 z M 1000 450 C 854.13861 450 714.23137 507.95223 611.0918 611.0918 C 507.95222 714.23138 450 854.13861 450 1000 C 450 1145.8614 507.95222 1285.7706 611.0918 1388.9102 C 714.23137 1492.0497 854.13861 1550 1000 1550 C 1145.8614 1550 1285.7686 1492.0497 1388.9082 1388.9102 C 1492.0478 1285.7706 1550 1145.8614 1550 1000 C 1550 854.13861 1492.0478 714.23138 1388.9082 611.0918 C 1285.7686 507.95223 1145.8614 450 1000 450 z M 1000 490 C 1135.2681 490 1264.976 543.72796 1360.625 639.37695 C 1456.274 735.02594 1510 864.73191 1510 1000 C 1510 1135.2681 1456.274 1264.976 1360.625 1360.625 C 1264.976 1456.274 1135.2681 1510 1000 1510 C 864.73191 1510 735.02399 1456.274 639.375 1360.625 C 543.72601 1264.976 490 1135.2681 490 1000 C 490 864.73191 543.72601 735.02594 639.375 639.37695 C 735.02399 543.72796 864.73191 490 1000 490 z M 1000 560 C 883.31243 560 771.38362 606.36247 688.87305 688.87305 C 606.36247 771.38362 560 883.31243 560 1000 C 560 1116.6876 606.36247 1228.6164 688.87305 1311.127 C 771.38362 1393.6375 883.31243 1440 1000 1440 C 1116.6876 1440 1228.6164 1393.6375 1311.127 1311.127 C 1393.6375 1228.6164 1440 1116.6876 1440 1000 C 1440 883.31243 1393.6375 771.38362 1311.127 688.87305 C 1228.6164 606.36247 1116.6876 560 1000 560 z M 1000 600 C 1106.0943 600 1207.8218 642.13822 1282.8418 717.1582 C 1357.8618 792.17819 1400 893.90572 1400 1000 C 1400 1106.0943 1357.8618 1207.8238 1282.8418 1282.8438 C 1207.8218 1357.8637 1106.0943 1400 1000 1400 C 893.90572 1400 792.17819 1357.8637 717.1582 1282.8438 C 642.13822 1207.8238 600 1106.0943 600 1000 C 600 893.90572 642.13822 792.17819 717.1582 717.1582 C 792.17819 642.13822 893.90572 600 1000 600 z M 1000 665.20117 L 988.24414 673.74414 L 683.32031 895.2832 L 804.28125 1267.5625 L 1195.7188 1267.5625 L 1316.6797 895.2832 L 1000 665.20117 z M 999.99805 714.64648 L 1269.6562 910.5625 L 1166.6562 1227.5625 L 833.3418 1227.5625 L 730.34375 910.5625 L 999.99805 714.64648 z "
       transform="translate(0,-947.63784)"
       id="rect4135" />
  </g>
</svg>
