<?xml version="1.0" encoding="UTF-8" standalone="no"?>
<!-- Created with Inkscape (http://www.inkscape.org/) -->

<svg
   xmlns:dc="http://purl.org/dc/elements/1.1/"
   xmlns:cc="http://creativecommons.org/ns#"
   xmlns:rdf="http://www.w3.org/1999/02/22-rdf-syntax-ns#"
   xmlns:svg="http://www.w3.org/2000/svg"
   xmlns="http://www.w3.org/2000/svg"
   xmlns:sodipodi="http://sodipodi.sourceforge.net/DTD/sodipodi-0.dtd"
   xmlns:inkscape="http://www.inkscape.org/namespaces/inkscape"
   width="2000"
   height="2000"
   viewBox="0 0 2000 2000"
   id="svg2"
   version="1.1"
   inkscape:version="0.91 r13725"
   sodipodi:docname="exclusive-event-based.svg">
  <defs
     id="defs4" />
  <sodipodi:namedview
     id="base"
     pagecolor="#ffffff"
     bordercolor="#666666"
     borderopacity="1.0"
     inkscape:pageopacity="0.0"
     inkscape:pageshadow="2"
     inkscape:zoom="0.4345"
     inkscape:cx="26.636331"
     inkscape:cy="1000"
     inkscape:document-units="px"
     inkscape:current-layer="layer1"
     showgrid="true"
     units="px"
     showguides="false"
     inkscape:window-width="1878"
     inkscape:window-height="1035"
     inkscape:window-x="42"
     inkscape:window-y="0"
     inkscape:window-maximized="0">
    <inkscape:grid
       type="xygrid"
       id="grid4008"
       empspacing="20"
       dotted="false" />
  </sodipodi:namedview>
  <metadata
     id="metadata7">
    <rdf:RDF>
      <cc:Work
         rdf:about="">
        <dc:format>image/svg+xml</dc:format>
        <dc:type
           rdf:resource="http://purl.org/dc/dcmitype/StillImage" />
        <dc:title />
        <cc:license
           rdf:resource="https://github.com/bpmn-io/bpmn-font/blob/master/LICENSE" />
        <dc:creator>
          <cc:Agent>
            <dc:title>Jörg Dotzki</dc:title>
          </cc:Agent>
        </dc:creator>
        <dc:subject>
          <rdf:Bag>
            <rdf:li>BPMN</rdf:li>
            <rdf:li>bpmn-io</rdf:li>
            <rdf:li>bpmn.io</rdf:li>
            <rdf:li>Font</rdf:li>
          </rdf:Bag>
        </dc:subject>
      </cc:Work>
    </rdf:RDF>
  </metadata>
  <g
     inkscape:label="Ebene 1"
     inkscape:groupmode="layer"
     id="layer1"
     transform="translate(0,947.63784)">
    <path
       style="color:#000000;font-style:normal;font-variant:normal;font-weight:normal;font-stretch:normal;font-size:medium;line-height:normal;font-family:sans-serif;text-indent:0;text-align:start;text-decoration:none;text-decoration-line:none;text-decoration-style:solid;text-decoration-color:#000000;letter-spacing:normal;word-spacing:normal;text-transform:none;direction:ltr;block-progression:tb;writing-mode:lr-tb;baseline-shift:baseline;text-anchor:start;white-space:normal;clip-rule:nonzero;display:inline;overflow:visible;visibility:visible;opacity:1;isolation:auto;mix-blend-mode:normal;color-interpolation:sRGB;color-interpolation-filters:linearRGB;solid-color:#000000;solid-opacity:1;fill:#000000;fill-opacity:1;fill-rule:nonzero;stroke:none;stroke-width:100;stroke-linecap:round;stroke-linejoin:miter;stroke-miterlimit:4;stroke-dasharray:none;stroke-dashoffset:0;stroke-opacity:1;color-rendering:auto;image-rendering:auto;shape-rendering:auto;text-rendering:auto;enable-background:accumulate"
       d="M 1000 10 L 964.64648 45.355469 L 10 1000.002 L 1000 1990 L 1990 1000 L 1000 10 z M 1000 151.42188 L 1848.5781 1000 L 1000 1848.5781 L 151.42188 1000.002 L 1000 151.42188 z M 1000 470 C 859.44294 470 724.62321 525.84554 625.23438 625.23438 C 525.84553 724.62323 470 859.44294 470 1000 C 470 1140.5571 525.84553 1275.3787 625.23438 1374.7676 C 724.62321 1474.1564 859.44294 1530 1000 1530 C 1140.5571 1530 1275.3768 1474.1564 1374.7656 1374.7676 C 1474.1545 1275.3787 1530 1140.5571 1530 1000 C 1530 859.44294 1474.1545 724.62322 1374.7656 625.23438 C 1275.3768 525.84554 1140.5571 470 1000 470 z M 1000 510 C 1129.9638 510 1254.5842 561.61932 1346.4824 653.51758 C 1438.3807 745.41583 1490 870.03624 1490 1000 C 1490 1129.9638 1438.3807 1254.5842 1346.4824 1346.4824 C 1254.5842 1438.3807 1129.9638 1490 1000 1490 C 870.03624 1490 745.41584 1438.3807 653.51758 1346.4824 C 561.61932 1254.5842 510 1129.9638 510 1000 C 510 870.03624 561.61932 745.41583 653.51758 653.51758 C 745.41584 561.61932 870.03624 510 1000 510 z M 1000.002 597.05273 L 988.24609 605.59375 L 611.66211 879.19531 L 759.99609 1335.7148 L 1240.0059 1335.7148 L 1388.3379 879.19531 L 1000.002 597.05273 z M 1000.002 646.49609 L 1341.3145 894.47461 L 1210.9434 1295.7129 L 789.05664 1295.7129 L 658.68555 894.47266 L 1000.002 646.49609 z "
       transform="translate(0,-947.63784)"
       id="rect4135" />
  </g>
</svg>
