<?xml version="1.0" encoding="UTF-8" standalone="no"?>
<svg
   xmlns:dc="http://purl.org/dc/elements/1.1/"
   xmlns:cc="http://creativecommons.org/ns#"
   xmlns:rdf="http://www.w3.org/1999/02/22-rdf-syntax-ns#"
   xmlns:svg="http://www.w3.org/2000/svg"
   xmlns="http://www.w3.org/2000/svg"
   version="1.1"
   id="svg3891"
   height="2048"
   width="2048">
  <defs
     id="defs3893" />
  <metadata
     id="metadata3896">
    <rdf:RDF>
      <cc:Work
         rdf:about="">
        <dc:format>image/svg+xml</dc:format>
        <dc:type
           rdf:resource="http://purl.org/dc/dcmitype/StillImage" />
        <dc:title></dc:title>
      </cc:Work>
    </rdf:RDF>
  </metadata>
  <g
     transform="translate(0,995.63783)"
     id="layer1">
    <g
       id="layer1-6"
       transform="matrix(96.752895,0,0,96.752895,55.328158,-100816.34)">
      <path
         id="rect3092"
         transform="matrix(0.01033561,0,0,0.01033561,-0.57185015,1031.7077)"
         d="M 1024.0215 99.355469 C 1004.6981 99.338537 985.37559 106.50458 971.04102 120.90625 L 120.9375 971.01758 C 92.26835 999.68546 92.401149 1048.3126 121.07031 1076.9805 L 971.04102 1926.9453 C 999.71017 1955.6229 1048.3348 1955.7486 1077.0039 1926.9453 L 1927.1094 1076.8457 C 1955.7785 1048.1778 1955.6458 999.54874 1926.9746 970.88086 L 1077.002 120.90625 C 1062.6674 106.57231 1043.3449 99.372401 1024.0215 99.355469 z M 1023.957 225.40039 L 1822.6172 1024.0664 L 1023.957 1822.7227 L 225.29688 1024.0664 L 1023.957 225.40039 z M 1005.0781 617.76172 L 1005.0762 618.17773 C 1005.0762 618.18741 996.70924 619.72656 996.70508 619.72656 C 996.69508 619.72656 989.85288 624.37109 989.84766 624.37109 C 989.83766 624.37109 985.08424 631.43359 985.08008 631.43359 C 985.08008 631.44327 983.4698 639.85156 983.4668 639.85156 L 983.4668 926.09375 L 780.82617 723.45508 L 780.83594 723.45508 C 780.82593 723.45508 773.64011 718.81055 773.63672 718.81055 C 773.62476 718.81055 765.61988 717.18367 765.55859 717.17188 C 765.48108 717.18407 757.24341 718.71484 757.24023 718.71484 C 757.23024 718.70517 750.17439 723.45508 750.17188 723.45508 L 723.53906 750.07227 C 723.53906 750.07227 718.67861 757.23242 718.67773 757.23242 C 718.66774 757.23242 717.17363 765.45508 717.17383 765.45508 C 717.17403 765.46475 718.78761 773.58203 718.78906 773.58203 C 718.78927 773.59171 723.40149 780.74219 723.4043 780.74219 L 925.94336 983.28516 L 639.48633 983.28516 L 639.42969 983.2168 C 639.42969 983.22647 631.0981 985.05469 631.09375 985.05469 C 631.08376 985.06436 624.24283 989.69922 624.23828 989.69922 L 624.23828 989.65039 C 624.22829 989.66007 619.47515 996.71484 619.4707 996.71484 C 619.46071 996.71484 617.85876 1005.1309 617.85547 1005.1309 L 617.85547 1042.7969 C 617.85547 1042.7969 619.4561 1051.3125 619.51367 1051.3125 C 619.51367 1051.3319 624.25928 1058.1816 624.25977 1058.1816 C 624.26977 1058.1816 631.15402 1062.8262 631.15625 1062.8262 C 631.16625 1062.8455 639.52357 1064.6641 639.52734 1064.6641 L 925.88672 1064.6641 L 723.51953 1267.0312 L 723.51953 1266.9551 C 723.50953 1266.9648 718.65946 1274.1152 718.6582 1274.1152 C 718.6482 1274.1249 717.15234 1282.3379 717.15234 1282.3379 C 717.15255 1282.3572 718.76837 1290.4648 718.76953 1290.4648 C 718.76953 1290.4648 723.40015 1297.625 723.38477 1297.625 L 750.02148 1324.2422 C 750.03148 1324.2519 757.29954 1328.9824 757.30273 1328.9824 C 757.30273 1328.9824 765.40677 1330.627 765.41016 1330.627 C 765.42215 1330.627 773.6227 1329.0801 773.62695 1329.0801 C 773.62695 1329.0801 780.79827 1324.2422 780.80078 1324.2422 L 983.46875 1121.5742 L 983.46875 1408.4355 L 983.41602 1408.3789 C 983.41602 1408.3886 985.07606 1416.8926 985.07422 1416.8926 C 985.07422 1416.9023 989.81836 1423.7617 989.81836 1423.7617 C 989.82835 1423.7714 996.7131 1428.4062 996.71484 1428.4062 C 996.71484 1428.4062 1005.0234 1430.1474 1005.0859 1430.2441 L 1042.7402 1430.2344 C 1042.7502 1430.2344 1051.2715 1428.4941 1051.2773 1428.4941 C 1051.2773 1428.4941 1058.128 1423.8496 1058.1328 1423.8496 C 1058.1428 1423.8399 1062.8741 1416.9805 1062.8789 1416.9805 C 1062.8789 1416.9805 1064.5118 1408.4648 1064.5156 1408.4648 L 1064.5156 1121.7676 L 1267.0391 1324.2812 C 1267.0291 1324.3006 1274.3145 1329.0215 1274.3184 1329.0215 C 1274.3283 1329.0312 1282.4248 1330.5703 1282.4277 1330.5703 C 1282.4397 1330.5703 1290.6397 1329.0215 1290.6445 1329.0215 C 1290.6445 1329.0215 1297.8155 1324.1836 1297.8203 1324.1836 L 1324.4453 1297.5488 C 1324.4554 1297.5488 1329.1646 1290.4844 1329.2246 1290.4844 C 1329.2244 1290.465 1330.8649 1282.1651 1330.8242 1282.0684 C 1330.824 1282.0587 1329.207 1273.9395 1329.2051 1273.9395 C 1329.1931 1273.9491 1324.4916 1266.6836 1324.4297 1266.6836 L 1122.4141 1064.6543 L 1408.3711 1064.6543 C 1408.3811 1064.664 1416.9024 1062.9121 1416.9062 1062.9121 C 1416.9162 1062.9121 1423.7588 1058.2676 1423.7617 1058.2676 C 1423.7717 1058.2482 1428.502 1051.3984 1428.5078 1051.3984 C 1428.5078 1051.3984 1430.1407 1042.8848 1430.1445 1042.8848 L 1430.1445 1005.2285 C 1430.1445 1005.2188 1428.5186 996.9073 1428.5215 996.81055 C 1428.5114 996.80087 1423.8002 989.74805 1423.7422 989.74805 C 1423.7321 989.73837 1416.8467 985.10352 1416.8438 985.10352 C 1416.8438 985.11319 1408.3359 983.26653 1408.332 983.36328 L 1121.5078 983.36328 L 1324.4336 780.44336 C 1324.4436 780.43368 1329.151 773.37891 1329.2109 773.37891 C 1329.2107 773.35956 1330.8535 765.05859 1330.8535 765.05859 C 1330.8533 765.04892 1329.2373 756.93164 1329.2363 756.93164 C 1329.2263 756.92197 1324.3906 749.77148 1324.3887 749.77148 L 1297.7578 723.13477 C 1297.7478 723.13477 1290.7158 718.39453 1290.7129 718.39453 C 1290.7028 718.38486 1282.6064 716.84766 1282.6016 716.84766 C 1282.5896 716.84766 1274.2549 718.39453 1274.252 718.39453 C 1274.2419 718.40421 1267.1855 723.13477 1267.1836 723.13477 L 1064.5117 925.80469 L 1064.5117 639.54102 C 1064.5117 639.53134 1062.8858 631.2198 1062.8887 631.12305 C 1062.8787 631.1037 1058.168 624.06055 1058.168 624.06055 C 1058.158 624.05087 1051.2734 619.41602 1051.2715 619.41602 C 1051.2615 619.41602 1042.7402 617.77148 1042.7383 617.77148 L 1005.0781 617.76172 z M 765.55859 717.17188 C 765.5589 717.17183 765.59175 717.16602 765.5918 717.16602 L 765.5293 717.16602 C 765.52931 717.16602 765.55837 717.17183 765.55859 717.17188 z "
         style="color:#000000;font-style:normal;font-variant:normal;font-weight:normal;font-stretch:normal;font-size:medium;line-height:normal;font-family:sans-serif;text-indent:0;text-align:start;text-decoration:none;text-decoration-line:none;text-decoration-style:solid;text-decoration-color:#000000;letter-spacing:normal;word-spacing:normal;text-transform:none;direction:ltr;block-progression:tb;writing-mode:lr-tb;baseline-shift:baseline;text-anchor:start;white-space:normal;clip-rule:nonzero;display:inline;overflow:visible;visibility:visible;opacity:1;isolation:auto;mix-blend-mode:normal;color-interpolation:sRGB;color-interpolation-filters:linearRGB;solid-color:#000000;solid-opacity:1;fill:#000000;fill-opacity:1;fill-rule:nonzero;stroke:none;stroke-width:1.14980412;stroke-linecap:butt;stroke-linejoin:miter;stroke-miterlimit:4;stroke-dasharray:none;stroke-dashoffset:0;stroke-opacity:1;color-rendering:auto;image-rendering:auto;shape-rendering:auto;text-rendering:auto;enable-background:accumulate" />
    </g>
  </g>
</svg>
