<?xml version="1.0" encoding="UTF-8" standalone="no"?>
<!-- Created with Inkscape (http://www.inkscape.org/) -->

<svg
   xmlns:dc="http://purl.org/dc/elements/1.1/"
   xmlns:cc="http://creativecommons.org/ns#"
   xmlns:rdf="http://www.w3.org/1999/02/22-rdf-syntax-ns#"
   xmlns:svg="http://www.w3.org/2000/svg"
   xmlns="http://www.w3.org/2000/svg"
   xmlns:sodipodi="http://sodipodi.sourceforge.net/DTD/sodipodi-0.dtd"
   xmlns:inkscape="http://www.inkscape.org/namespaces/inkscape"
   width="2000"
   height="2000"
   viewBox="0 0 2000 2000"
   id="svg2"
   version="1.1"
   inkscape:version="0.91 r13725"
   sodipodi:docname="03-timer-intermediate.svg">
  <defs
     id="defs4" />
  <sodipodi:namedview
     id="base"
     pagecolor="#ffffff"
     bordercolor="#666666"
     borderopacity="1.0"
     inkscape:pageopacity="0.0"
     inkscape:pageshadow="2"
     inkscape:zoom="0.5"
     inkscape:cx="717.42553"
     inkscape:cy="1000"
     inkscape:document-units="px"
     inkscape:current-layer="layer1"
     showgrid="true"
     units="px"
     showguides="false"
     inkscape:window-width="1878"
     inkscape:window-height="1035"
     inkscape:window-x="42"
     inkscape:window-y="0"
     inkscape:window-maximized="0">
    <inkscape:grid
       type="xygrid"
       id="grid4008"
       empspacing="20"
       dotted="false" />
  </sodipodi:namedview>
  <metadata
     id="metadata7">
    <rdf:RDF>
      <cc:Work
         rdf:about="">
        <dc:format>image/svg+xml</dc:format>
        <dc:type
           rdf:resource="http://purl.org/dc/dcmitype/StillImage" />
        <dc:title />
        <cc:license
           rdf:resource="https://github.com/bpmn-io/bpmn-font/blob/master/LICENSE" />
        <dc:creator>
          <cc:Agent>
            <dc:title>Jörg Dotzki</dc:title>
          </cc:Agent>
        </dc:creator>
        <dc:subject>
          <rdf:Bag>
            <rdf:li>BPMN</rdf:li>
            <rdf:li>bpmn-io</rdf:li>
            <rdf:li>bpmn.io</rdf:li>
            <rdf:li>Font</rdf:li>
          </rdf:Bag>
        </dc:subject>
      </cc:Work>
    </rdf:RDF>
  </metadata>
  <g
     inkscape:label="Ebene 1"
     inkscape:groupmode="layer"
     id="layer1"
     transform="translate(0,947.63784)">
    <path
       style="color:#000000;font-style:normal;font-variant:normal;font-weight:normal;font-stretch:normal;font-size:medium;line-height:normal;font-family:sans-serif;text-indent:0;text-align:start;text-decoration:none;text-decoration-line:none;text-decoration-style:solid;text-decoration-color:#000000;letter-spacing:normal;word-spacing:normal;text-transform:none;direction:ltr;block-progression:tb;writing-mode:lr-tb;baseline-shift:baseline;text-anchor:start;white-space:normal;clip-rule:nonzero;display:inline;overflow:visible;visibility:visible;opacity:1;isolation:auto;mix-blend-mode:normal;color-interpolation:sRGB;color-interpolation-filters:linearRGB;solid-color:#000000;solid-opacity:1;fill:#000000;fill-opacity:1;fill-rule:nonzero;stroke:none;stroke-width:20;stroke-linecap:round;stroke-linejoin:miter;stroke-miterlimit:4;stroke-dasharray:300, 170;stroke-dashoffset:200;stroke-opacity:1;color-rendering:auto;image-rendering:auto;shape-rendering:auto;text-rendering:auto;enable-background:accumulate"
       d="M 1000 9.9980469 L 999.9375 10.001953 L 987.76172 10.076172 L 987.70117 10.076172 L 987.63867 10.078125 L 975.48047 10.304688 L 975.41797 10.304688 L 975.35547 10.306641 L 963.21484 10.683594 L 963.1543 10.685547 L 963.0918 10.689453 L 950.9707 11.214844 L 950.9082 11.216797 L 950.84766 11.220703 L 938.74609 11.896484 L 938.68555 11.900391 L 938.62305 11.904297 L 926.54492 12.728516 L 926.48242 12.732422 L 926.42188 12.736328 L 914.36719 13.708984 L 914.30469 13.714844 L 914.24414 13.71875 L 902.21289 14.839844 L 902.15039 14.845703 L 902.08984 14.851562 L 890.08398 16.119141 L 890.02344 16.125 L 889.96094 16.132812 L 880.99219 17.189453 L 876.21289 19.085938 L 873.00586 23.105469 L 872.2207 28.185547 L 874.06445 32.986328 L 878.04883 36.234375 L 883.12109 37.076172 L 883.33594 37.052734 L 892.18359 36.007812 L 892.23438 36.001953 L 892.30469 35.994141 L 904.06641 34.753906 L 915.97461 33.644531 L 927.90625 32.681641 L 927.91992 32.681641 L 939.86133 31.865234 L 939.9082 31.863281 L 939.98438 31.857422 L 951.83789 31.195312 L 951.91797 31.191406 L 951.96094 31.189453 L 963.95117 30.669922 L 963.95898 30.669922 L 975.97656 30.298828 L 987.88672 30.076172 L 987.91406 30.076172 L 999.9375 30 L 1000 30 L 1000.0625 30 L 1012.0859 30.076172 L 1012.1133 30.076172 L 1024.0234 30.298828 L 1036.041 30.669922 L 1036.0508 30.669922 L 1048.041 31.189453 L 1048.084 31.191406 L 1048.1641 31.195312 L 1060.0176 31.857422 L 1060.0938 31.863281 L 1060.1406 31.865234 L 1072.082 32.681641 L 1072.0957 32.681641 L 1084.0273 33.644531 L 1095.9355 34.753906 L 1107.6973 35.994141 L 1107.7676 36.001953 L 1107.8184 36.007812 L 1119.6426 37.404297 L 1119.6758 37.408203 L 1131.3809 38.935547 L 1143.3027 40.640625 L 1154.9492 42.453125 L 1154.9785 42.460938 L 1166.6875 44.427734 L 1166.7754 44.443359 L 1166.8086 44.449219 L 1178.5137 46.566406 L 1178.9375 46.648438 L 1184.0684 46.294922 L 1188.3438 43.439453 L 1190.6348 38.837891 L 1190.3379 33.703125 L 1187.5273 29.398438 L 1182.9492 27.056641 L 1182.7383 27.013672 L 1182.1934 26.908203 L 1182.1328 26.896484 L 1182.0723 26.884766 L 1170.2461 24.746094 L 1170.1855 24.734375 L 1170.125 24.722656 L 1158.2676 22.728516 L 1158.2051 22.71875 L 1158.1445 22.708984 L 1146.2539 20.859375 L 1146.1953 20.849609 L 1146.1328 20.841797 L 1134.2109 19.136719 L 1134.1504 19.126953 L 1134.0898 19.119141 L 1122.1387 17.560547 L 1122.0781 17.552734 L 1122.0156 17.544922 L 1110.0371 16.132812 L 1109.9766 16.125 L 1109.9141 16.117188 L 1097.9082 14.849609 L 1097.8477 14.84375 L 1097.7852 14.837891 L 1085.7559 13.716797 L 1085.6934 13.712891 L 1085.6328 13.707031 L 1073.5781 12.734375 L 1073.5156 12.730469 L 1073.4551 12.726562 L 1061.377 11.902344 L 1061.3145 11.898438 L 1061.2539 11.894531 L 1049.1523 11.21875 L 1049.0898 11.214844 L 1049.0293 11.212891 L 1036.9082 10.6875 L 1036.8457 10.683594 L 1036.7852 10.681641 L 1024.6445 10.304688 L 1024.582 10.302734 L 1024.5195 10.302734 L 1012.3613 10.076172 L 1012.2988 10.074219 L 1012.2383 10.074219 L 1000.0625 10 L 1000 9.9980469 z M 718.50977 52.371094 L 713.36914 52.410156 L 713.16016 52.470703 L 712.13086 52.775391 L 712.07227 52.792969 L 712.01367 52.8125 L 700.58984 56.361328 L 700.53125 56.378906 L 700.47461 56.398438 L 689.0957 60.085938 L 689.03711 60.105469 L 688.98047 60.125 L 677.65039 63.949219 L 677.59375 63.96875 L 677.53516 63.990234 L 666.25586 67.951172 L 666.19727 67.972656 L 666.14062 67.992188 L 654.91211 72.091797 L 654.85352 72.113281 L 654.79688 72.134766 L 643.62109 76.371094 L 643.5625 76.392578 L 643.50586 76.414062 L 632.38281 80.785156 L 632.32617 80.808594 L 632.26953 80.830078 L 621.19922 85.337891 L 621.14258 85.359375 L 621.08789 85.382812 L 610.07422 90.025391 L 610.01758 90.048828 L 609.96094 90.072266 L 599.00391 94.847656 L 598.94922 94.869141 L 598.89258 94.894531 L 587.99414 99.802734 L 587.93945 99.830078 L 587.88477 99.855469 L 577.04492 104.89844 L 576.99023 104.92383 L 576.93555 104.94922 L 566.15625 110.12305 L 566.10156 110.14844 L 566.04688 110.17578 L 555.33008 115.48242 L 555.27734 115.50781 L 555.22266 115.53711 L 544.56836 120.97461 L 544.51562 121.00195 L 544.46094 121.0293 L 533.87305 126.59961 L 533.81836 126.62695 L 533.76562 126.65625 L 523.24219 132.35547 L 523.18945 132.38477 L 523.13477 132.41406 L 512.67969 138.24219 L 512.62695 138.27344 L 512.57422 138.30273 L 502.1875 144.26172 L 502.13281 144.29102 L 502.08008 144.32227 L 491.76367 150.41016 L 491.71094 150.44141 L 491.6582 150.47266 L 481.41211 156.68945 L 481.35938 156.7207 L 481.30859 156.75195 L 471.13281 163.0957 L 471.08008 163.12891 L 471.0293 163.16211 L 460.92773 169.63281 L 460.87695 169.66602 L 460.82617 169.69922 L 450.79883 176.29688 L 450.74805 176.33008 L 450.69727 176.36523 L 440.94727 182.95312 L 437.57031 186.83008 L 436.56641 191.87305 L 438.20117 196.74805 L 442.04102 200.16602 L 447.07227 201.22461 L 451.96484 199.64258 L 452.14453 199.52344 L 461.79297 193.00391 L 461.80859 192.99414 L 461.89453 192.93555 L 471.7168 186.47266 L 471.74219 186.45703 L 471.81836 186.40625 L 481.71484 180.06836 L 491.78516 173.78906 L 491.79102 173.78516 L 501.92578 167.63477 L 502.01367 167.58203 L 502.03125 167.57227 L 512.24023 161.55078 L 512.24414 161.54883 L 522.52539 155.65234 L 532.76758 149.94141 L 532.84961 149.89648 L 532.875 149.88281 L 543.18164 144.30078 L 553.66211 138.78711 L 564.20508 133.4043 L 564.2793 133.36719 L 564.31445 133.34961 L 574.8125 128.15234 L 585.58984 122.97852 L 596.20898 118.03906 L 596.21484 118.03711 L 607.10742 113.13086 L 617.83984 108.45312 L 628.74023 103.85938 L 628.80078 103.83594 L 628.85352 103.8125 L 639.69727 99.398438 L 639.78125 99.365234 L 639.81055 99.353516 L 650.81641 95.029297 L 650.82031 95.027344 L 661.88477 90.835938 L 672.88477 86.820312 L 672.96094 86.792969 L 673.00195 86.779297 L 684.1543 82.861328 L 684.16602 82.857422 L 695.26367 79.109375 L 695.29883 79.097656 L 695.38086 79.070312 L 706.52539 75.458984 L 706.58789 75.439453 L 706.64062 75.421875 L 717.83203 71.945312 L 717.92969 71.916016 L 717.94922 71.910156 L 718.86133 71.638672 L 723.24805 68.955078 L 725.7207 64.447266 L 725.62695 59.306641 L 722.99023 54.892578 L 718.50977 52.371094 z M 1342.7754 72.634766 L 1338.0918 74.720703 L 1335.0508 78.865234 L 1334.4707 83.974609 L 1336.5059 88.697266 L 1340.6172 91.783203 L 1340.8184 91.861328 L 1349.1797 95.029297 L 1349.1797 95.03125 L 1360.1855 99.355469 L 1360.2148 99.367188 L 1360.2988 99.400391 L 1371.1426 103.81445 L 1371.1953 103.83789 L 1371.2559 103.86133 L 1382.1562 108.45508 L 1392.8887 113.13281 L 1403.7812 118.03906 L 1403.791 118.04102 L 1414.4102 122.98047 L 1425.1875 128.1543 L 1435.6855 133.35156 L 1435.7207 133.36914 L 1435.7949 133.40625 L 1446.3379 138.78906 L 1456.8184 144.30273 L 1467.125 149.88477 L 1467.1504 149.89844 L 1467.2324 149.94336 L 1477.4746 155.6543 L 1487.7559 161.55078 L 1487.7559 161.55273 L 1497.9648 167.57422 L 1497.9824 167.58398 L 1498.0703 167.63672 L 1508.2051 173.78711 L 1508.2148 173.79102 L 1518.2852 180.07031 L 1528.1816 186.4082 L 1528.2578 186.45898 L 1528.2832 186.47461 L 1538.1055 192.9375 L 1538.1914 192.99609 L 1538.207 193.00586 L 1548.0488 199.65625 L 1548.0586 199.66211 L 1557.8281 206.44141 L 1557.8281 206.44336 L 1567.4219 213.27539 L 1567.4941 213.32812 L 1567.5215 213.34766 L 1577.0391 220.30078 L 1577.1133 220.35742 L 1577.1367 220.375 L 1586.5742 227.45117 L 1586.627 227.49023 L 1586.6738 227.52539 L 1596.1289 234.79883 L 1598.6582 236.79297 L 1603.377 238.83398 L 1608.4863 238.25781 L 1612.6348 235.2207 L 1614.7246 230.52344 L 1614.2051 225.4082 L 1611.2129 221.22656 L 1611.0449 221.0918 L 1608.4199 219.02148 L 1608.3691 218.98242 L 1608.3203 218.94531 L 1598.7676 211.59766 L 1598.7188 211.56055 L 1598.6699 211.52344 L 1589.0352 204.29883 L 1588.9863 204.26367 L 1588.9355 204.22656 L 1579.2207 197.12695 L 1579.1719 197.08984 L 1579.1211 197.05469 L 1569.3262 190.08008 L 1569.2754 190.04492 L 1569.2246 190.00977 L 1559.3516 183.16016 L 1559.3008 183.125 L 1559.248 183.08984 L 1549.2969 176.36719 L 1549.2461 176.33203 L 1549.1953 176.29883 L 1539.168 169.70117 L 1539.1172 169.66797 L 1539.0664 169.63477 L 1528.9648 163.16406 L 1528.9141 163.13086 L 1528.8613 163.09766 L 1518.6855 156.75391 L 1518.6348 156.72266 L 1518.5801 156.69141 L 1508.334 150.47461 L 1508.2812 150.44336 L 1508.2285 150.41211 L 1497.9121 144.32422 L 1497.8594 144.29297 L 1497.8047 144.26367 L 1487.418 138.30469 L 1487.3652 138.27539 L 1487.3125 138.24414 L 1476.8574 132.41602 L 1476.8008 132.38672 L 1476.748 132.35742 L 1466.2246 126.6582 L 1466.1719 126.62891 L 1466.1172 126.60156 L 1455.5293 121.03125 L 1455.4746 121.00391 L 1455.4219 120.97656 L 1444.7676 115.53906 L 1444.7129 115.50977 L 1444.6582 115.48438 L 1433.9414 110.17773 L 1433.8867 110.15039 L 1433.832 110.12305 L 1423.0527 104.94922 L 1422.998 104.92383 L 1422.9434 104.89844 L 1412.1035 99.855469 L 1412.0488 99.830078 L 1411.9922 99.804688 L 1401.0938 94.896484 L 1401.0371 94.871094 L 1400.9824 94.847656 L 1390.0254 90.072266 L 1389.9688 90.048828 L 1389.9121 90.025391 L 1378.8984 85.382812 L 1378.8438 85.359375 L 1378.7852 85.337891 L 1367.7148 80.830078 L 1367.6582 80.808594 L 1367.6016 80.785156 L 1356.4785 76.414062 L 1356.4219 76.392578 L 1356.3633 76.371094 L 1347.8906 73.160156 L 1342.7754 72.634766 z M 312.91016 289.1875 L 308.39258 291.64453 L 308.23633 291.79492 L 300.00781 299.92188 L 299.96484 299.96484 L 299.91992 300.00977 L 291.36523 308.67188 L 291.32031 308.7168 L 291.27734 308.75977 L 282.83984 317.51758 L 282.79688 317.5625 L 282.75586 317.60742 L 274.4375 326.45898 L 274.39453 326.50391 L 274.35352 326.54883 L 266.1543 335.49219 L 266.11133 335.53711 L 266.07031 335.58398 L 257.99219 344.61719 L 257.95117 344.66406 L 257.91016 344.71094 L 249.95117 353.83398 L 249.91211 353.88086 L 249.87109 353.92773 L 242.03516 363.13867 L 241.99414 363.18555 L 241.95508 363.23438 L 234.24023 372.5332 L 234.19922 372.58008 L 234.16211 372.62891 L 226.56836 382.01367 L 226.5293 382.06055 L 226.49023 382.10938 L 219.01953 391.57812 L 218.98242 391.62695 L 218.94531 391.67578 L 211.59766 401.22852 L 211.55859 401.27734 L 211.52344 401.32617 L 204.29883 410.96094 L 204.26172 411.01172 L 204.22656 411.06055 L 197.12695 420.77539 L 197.08984 420.82617 L 197.05469 420.875 L 190.08008 430.67188 L 190.04297 430.7207 L 190.00781 430.77148 L 183.1582 440.64648 L 183.125 440.69531 L 183.08984 440.74609 L 176.36523 450.69727 L 176.33203 450.74805 L 176.29688 450.79883 L 169.69922 460.82617 L 169.66602 460.87695 L 169.63281 460.92969 L 163.16211 471.03125 L 163.12891 471.08203 L 163.09766 471.13477 L 156.75391 481.30859 L 156.7207 481.35938 L 156.68945 481.41211 L 150.47461 491.66016 L 150.44336 491.71094 L 150.41211 491.76172 L 144.32422 502.08008 L 144.29297 502.13281 L 144.26172 502.18555 L 138.30469 512.57227 L 138.27344 512.625 L 138.24414 512.67969 L 132.41602 523.13477 L 132.38477 523.1875 L 132.35547 523.24219 L 127.01953 533.09375 L 125.81641 538.09375 L 127.25391 543.0293 L 130.95508 546.59766 L 135.94141 547.85547 L 140.89258 546.4707 L 144.50195 542.80859 L 144.60547 542.61914 L 149.88477 532.87305 L 149.89844 532.84766 L 149.94336 532.76562 L 155.71289 522.41797 L 161.61133 512.13672 L 167.57422 502.0293 L 167.62695 501.94336 L 167.63672 501.92578 L 173.78516 491.78906 L 173.78906 491.7832 L 180.00391 481.81641 L 186.4082 471.81836 L 186.41211 471.8125 L 192.9375 461.89258 L 192.99609 461.80664 L 193.00586 461.79102 L 199.65625 451.94922 L 199.66211 451.94141 L 206.37109 442.26953 L 206.41797 442.20312 L 206.44141 442.16992 L 213.27344 432.57422 L 213.32617 432.50195 L 213.3457 432.47461 L 220.30078 422.95703 L 220.33594 422.91016 L 220.37305 422.85938 L 227.52539 413.32227 L 234.72266 403.96484 L 242.11523 394.5918 L 242.1582 394.53906 L 242.19336 394.49414 L 249.70898 385.20703 L 257.26758 376.09766 L 265.02344 366.97852 L 265.03711 366.96289 L 265.10352 366.88477 L 272.98047 357.85742 L 272.98242 357.85547 L 280.89648 349.00586 L 289.00977 340.1543 L 289.08203 340.07617 L 289.09766 340.0625 L 297.24609 331.39258 L 305.5957 322.72461 L 305.65039 322.66992 L 305.68359 322.63477 L 314.06445 314.14844 L 314.10742 314.10547 L 314.15234 314.06055 L 322.29297 306.02148 L 324.89844 301.58984 L 324.95703 296.44922 L 322.45312 291.95703 L 318.05078 289.30273 L 312.91016 289.1875 z M 1726.8906 335.11328 L 1722.2734 337.39062 L 1719.4043 341.65625 L 1719.0352 346.78516 L 1721.2617 351.41992 L 1721.4043 351.58203 L 1727.0176 357.85742 L 1727.0176 357.86133 L 1734.8926 366.88672 L 1734.959 366.96484 L 1734.9727 366.98047 L 1742.7285 376.09961 L 1750.2871 385.20898 L 1757.8027 394.49609 L 1757.8379 394.54102 L 1757.8809 394.59375 L 1765.2734 403.9668 L 1772.4707 413.32422 L 1779.623 422.86133 L 1779.6602 422.91211 L 1779.6953 422.95898 L 1786.6504 432.47656 L 1786.6699 432.50391 L 1786.7227 432.57617 L 1793.5547 442.17188 L 1793.5781 442.20508 L 1793.625 442.27148 L 1800.334 451.94336 L 1800.3438 451.95117 L 1806.9941 461.79297 L 1807.0039 461.80859 L 1807.0625 461.89453 L 1813.5879 471.81445 L 1813.5879 471.82031 L 1819.9922 481.81836 L 1826.207 491.78516 L 1826.207 491.79102 L 1832.3555 501.92773 L 1832.3652 501.94531 L 1832.4199 502.03125 L 1838.3828 512.13867 L 1844.2812 522.41992 L 1850.0508 532.76758 L 1850.0957 532.84961 L 1850.1094 532.875 L 1855.7441 543.28125 L 1855.7539 543.29102 L 1861.209 553.66211 L 1861.2383 553.71875 L 1861.2656 553.77148 L 1866.5918 564.20703 L 1866.6289 564.28125 L 1866.6445 564.31641 L 1871.8438 574.8125 L 1871.8887 574.90625 L 1871.8984 574.92188 L 1876.9668 585.48047 L 1876.9883 585.52734 L 1877.0195 585.5918 L 1881.957 596.20898 L 1881.9883 596.27734 L 1882.0078 596.32031 L 1883.2734 599.13086 L 1886.5195 603.11719 L 1891.3164 604.96484 L 1896.3984 604.18555 L 1900.4219 600.98242 L 1902.3203 596.20508 L 1901.5957 591.11523 L 1901.5098 590.91602 L 1900.1934 587.99609 L 1900.168 587.93945 L 1900.1445 587.88477 L 1895.1035 577.04688 L 1895.0781 576.99023 L 1895.0508 576.93555 L 1889.877 566.1582 L 1889.8496 566.10352 L 1889.8242 566.04883 L 1884.5176 555.33203 L 1884.4922 555.27734 L 1884.4648 555.22266 L 1879.0273 544.57031 L 1879 544.51562 L 1878.9707 544.46094 L 1873.4023 533.87305 L 1873.373 533.82031 L 1873.3438 533.76562 L 1867.6465 523.24414 L 1867.6172 523.18945 L 1867.5879 523.13672 L 1861.7598 512.68164 L 1861.7305 512.62695 L 1861.6992 512.57422 L 1855.7422 502.1875 L 1855.7109 502.13477 L 1855.6797 502.08203 L 1849.5918 491.76367 L 1849.5605 491.71094 L 1849.5293 491.66016 L 1843.3145 481.41211 L 1843.2852 481.36133 L 1843.252 481.30859 L 1836.9082 471.13477 L 1836.877 471.08203 L 1836.8438 471.03125 L 1830.373 460.92969 L 1830.3398 460.87695 L 1830.3066 460.82617 L 1823.709 450.79883 L 1823.6738 450.74805 L 1823.6406 450.69727 L 1816.916 440.74609 L 1816.8809 440.69531 L 1816.8477 440.64648 L 1809.998 430.77148 L 1809.9629 430.7207 L 1809.9277 430.67188 L 1802.9531 420.875 L 1802.918 420.82617 L 1802.8809 420.77539 L 1795.7812 411.06055 L 1795.7461 411.01172 L 1795.709 410.96094 L 1788.4844 401.32617 L 1788.4492 401.27734 L 1788.4102 401.22852 L 1781.0625 391.67578 L 1781.0254 391.62695 L 1780.9883 391.57812 L 1773.5176 382.10938 L 1773.4785 382.06055 L 1773.4395 382.01367 L 1765.8457 372.62891 L 1765.8086 372.58008 L 1765.7676 372.5332 L 1758.0527 363.23438 L 1758.0137 363.18555 L 1757.9727 363.13867 L 1750.1367 353.92773 L 1750.0957 353.88086 L 1750.0566 353.83398 L 1742.0977 344.71094 L 1742.0566 344.66406 L 1742.0156 344.61719 L 1736.3203 338.25 L 1732.0234 335.42773 L 1726.8906 335.11328 z M 1000 370 C 832.91745 370 672.66864 436.37823 554.52344 554.52344 C 436.37824 672.66864 370 832.91745 370 1000 C 370 1167.0825 436.37824 1327.3333 554.52344 1445.4785 C 672.66864 1563.6237 832.91745 1630 1000 1630 C 1167.0825 1630 1327.3314 1563.6237 1445.4766 1445.4785 C 1563.6218 1327.3333 1630 1167.0825 1630 1000 C 1630 832.91745 1563.6218 672.66864 1445.4766 554.52344 C 1327.3314 436.37823 1167.0825 370 1000 370 z M 1000 390 C 1161.7859 390 1316.936 454.26612 1431.3359 568.66602 C 1545.7358 683.06593 1610 838.2141 1610 1000 C 1610 1161.7859 1545.7358 1316.936 1431.3359 1431.3359 C 1316.936 1545.7358 1161.7859 1610 1000 1610 C 838.2141 1610 683.06397 1545.7358 568.66406 1431.3359 C 454.26415 1316.936 390 1161.7859 390 1000 C 390 838.2141 454.26415 683.06593 568.66406 568.66602 C 683.06397 454.26612 838.2141 390 1000 390 z M 1141.5508 573.44336 L 979.01758 1020 L 938 1020 L 938 1060 L 964.45703 1060 L 956.85938 1080.877 L 994.44727 1094.5586 L 1007.0254 1060 L 1338 1060 L 1338 1020 L 1021.584 1020 L 1179.1387 587.125 L 1141.5508 573.44336 z M 67.076172 684.14844 L 62.460938 686.41016 L 59.578125 690.66992 L 59.509766 690.87305 L 56.396484 700.47461 L 56.378906 700.5332 L 56.361328 700.5918 L 52.810547 712.01562 L 52.792969 712.07422 L 52.775391 712.13281 L 49.365234 723.60352 L 49.347656 723.66016 L 49.330078 723.7207 L 46.058594 735.23438 L 46.042969 735.29297 L 46.027344 735.35156 L 42.894531 746.91016 L 42.878906 746.96875 L 42.863281 747.0293 L 39.873047 758.62891 L 39.857422 758.6875 L 39.84375 758.74609 L 36.992188 770.38672 L 36.978516 770.44727 L 36.964844 770.50586 L 34.255859 782.1875 L 34.240234 782.24609 L 34.228516 782.30664 L 31.660156 794.02344 L 31.648438 794.08398 L 31.634766 794.14453 L 29.210938 805.89844 L 29.199219 805.95898 L 29.1875 806.01953 L 26.904297 817.81055 L 26.892578 817.87109 L 26.882812 817.93164 L 24.744141 829.75586 L 24.732422 829.81641 L 24.722656 829.87695 L 22.728516 841.73633 L 22.71875 841.79688 L 22.708984 841.85742 L 20.859375 853.74805 L 20.849609 853.80859 L 20.839844 853.86914 L 19.136719 865.78906 L 19.126953 865.84961 L 19.119141 865.91211 L 17.560547 877.86133 L 17.550781 877.92383 L 17.544922 877.98438 L 16.130859 889.96289 L 16.123047 890.02344 L 16.117188 890.08594 L 14.851562 902.08984 L 14.84375 902.15234 L 14.837891 902.21289 L 13.71875 914.24414 L 13.712891 914.30664 L 13.708984 914.36719 L 12.736328 926.42188 L 12.730469 926.48438 L 12.726562 926.54492 L 11.902344 938.625 L 11.898438 938.68555 L 11.894531 938.74805 L 11.220703 950.84766 L 11.216797 950.91016 L 11.214844 950.97266 L 10.6875 963.09375 L 10.685547 963.1543 L 10.683594 963.2168 L 10.306641 975.35742 L 10.304688 975.41797 L 10.302734 975.48047 L 10.078125 987.63867 L 10.076172 987.70117 L 10.076172 987.76367 L 10.070312 988.6875 L 11.361328 993.66406 L 14.955078 997.3418 L 19.900391 998.74805 L 24.890625 997.50977 L 28.607422 993.95703 L 30.066406 989.02734 L 30.070312 988.81055 L 30.076172 987.91797 L 30.076172 987.88672 L 30.300781 975.85352 L 30.673828 963.83594 L 31.189453 951.96289 L 31.191406 951.92188 L 31.195312 951.83984 L 31.855469 939.98633 L 31.857422 939.98633 L 32.671875 928.0293 L 33.632812 916.09766 L 34.740234 904.18945 L 34.742188 904.16797 L 35.994141 892.30664 L 36 892.25195 L 36.007812 892.18359 L 37.404297 880.34375 L 37.40625 880.32812 L 38.951172 868.5 L 40.621094 856.82227 L 40.625 856.80273 L 42.451172 845.05273 L 42.460938 844.99805 L 42.470703 844.93164 L 44.423828 833.31445 L 44.439453 833.22656 L 44.445312 833.19336 L 46.541016 821.61133 L 48.798828 809.93945 L 48.804688 809.9082 L 48.822266 809.82031 L 51.197266 798.30469 L 51.205078 798.27148 L 51.222656 798.18359 L 53.759766 786.60938 L 53.765625 786.58594 L 56.447266 775.02539 L 59.269531 763.50391 L 62.199219 752.14062 L 62.220703 752.0625 L 62.230469 752.02344 L 65.298828 740.70117 L 68.570312 729.18555 L 71.910156 717.94922 L 71.917969 717.92578 L 71.945312 717.83203 L 75.423828 706.64062 L 78.535156 697.04102 L 78.808594 691.90625 L 76.496094 687.31445 L 72.207031 684.47852 L 67.076172 684.14844 z M 1946.5039 745.41797 L 1941.998 747.89258 L 1939.3145 752.27734 L 1939.1641 757.41797 L 1939.2148 757.62695 L 1940.7305 763.50391 L 1943.5527 775.02539 L 1946.2344 786.58594 L 1946.2441 786.60938 L 1948.7812 798.18359 L 1948.7988 798.27148 L 1948.8105 798.30469 L 1951.1855 809.82031 L 1951.2031 809.9082 L 1951.2129 809.93945 L 1953.4707 821.61133 L 1955.5664 833.19336 L 1955.5762 833.22656 L 1955.5918 833.31445 L 1957.5449 844.93164 L 1957.5547 844.99805 L 1957.5645 845.05273 L 1959.3906 856.80273 L 1959.3906 856.82227 L 1961.0605 868.5 L 1962.6074 880.32812 L 1962.6074 880.34375 L 1964.0039 892.18359 L 1964.0137 892.25195 L 1964.0234 892.30664 L 1965.2754 904.16797 L 1965.2754 904.18945 L 1966.3828 916.09766 L 1967.3438 928.0293 L 1968.1582 939.98633 L 1968.8184 951.83984 L 1968.8184 951.92188 L 1968.8184 951.96289 L 1969.334 963.83594 L 1969.707 975.85352 L 1969.9316 987.88672 L 1969.9316 987.91797 L 1970.0078 999.93945 L 1970.0078 1000 L 1970.0078 1000.0625 L 1969.9316 1012.0859 L 1969.9316 1012.1133 L 1969.707 1024.1484 L 1969.334 1036.166 L 1968.8184 1048.0391 L 1968.8184 1048.0801 L 1968.8184 1048.1621 L 1968.1582 1060.0156 L 1967.3438 1071.9707 L 1966.3828 1083.9043 L 1965.2754 1095.8125 L 1965.2754 1095.834 L 1964.9648 1098.7773 L 1965.7578 1103.8574 L 1968.9707 1107.8711 L 1973.752 1109.7598 L 1978.8418 1109.0215 L 1982.8906 1105.8516 L 1984.8281 1101.0898 L 1984.8535 1100.877 L 1985.166 1097.9102 L 1985.1758 1097.8496 L 1985.1855 1097.7891 L 1986.3047 1085.7578 L 1986.3145 1085.6953 L 1986.3145 1085.6348 L 1987.2871 1073.5781 L 1987.2969 1073.5176 L 1987.2969 1073.4551 L 1988.1211 1061.377 L 1988.1211 1061.3164 L 1988.1211 1061.2539 L 1988.7949 1049.1543 L 1988.7949 1049.0918 L 1988.7949 1049.0293 L 1989.3223 1036.9082 L 1989.3223 1036.8477 L 1989.3223 1036.7852 L 1989.6992 1024.6445 L 1989.6992 1024.582 L 1989.6992 1024.5215 L 1989.9238 1012.3613 L 1989.9238 1012.3008 L 1989.9238 1012.2383 L 1990 1000.0625 L 1990 1000.0586 L 1990 999.93945 L 1989.9238 987.76367 L 1989.9238 987.70117 L 1989.9238 987.63867 L 1989.6992 975.48047 L 1989.6992 975.41797 L 1989.6992 975.35742 L 1989.3223 963.2168 L 1989.3223 963.1543 L 1989.3223 963.09375 L 1988.7949 950.97266 L 1988.7949 950.91016 L 1988.7949 950.84766 L 1988.1211 938.74805 L 1988.1211 938.68555 L 1988.1211 938.625 L 1987.2969 926.54492 L 1987.2969 926.48438 L 1987.2871 926.42188 L 1986.3145 914.36719 L 1986.3145 914.30664 L 1986.3047 914.24414 L 1985.1855 902.21289 L 1985.1758 902.15234 L 1985.166 902.08984 L 1983.9004 890.08594 L 1983.8887 890.02344 L 1983.8789 889.96289 L 1982.4648 877.98438 L 1982.4551 877.92383 L 1982.4453 877.86133 L 1980.8867 865.91211 L 1980.877 865.84961 L 1980.8672 865.78906 L 1979.1641 853.86914 L 1979.1543 853.80859 L 1979.1445 853.74805 L 1977.2949 841.85742 L 1977.2852 841.79688 L 1977.2734 841.73633 L 1975.2793 829.87695 L 1975.2695 829.81445 L 1975.2578 829.75586 L 1973.1191 817.93164 L 1973.1094 817.86914 L 1973.0977 817.81055 L 1970.8145 806.01953 L 1970.8027 805.95703 L 1970.791 805.89844 L 1968.3652 794.14453 L 1968.3516 794.08203 L 1968.3398 794.02344 L 1965.7715 782.30664 L 1965.7598 782.24414 L 1965.7441 782.18555 L 1963.0352 770.50391 L 1963.0215 770.44531 L 1963.0078 770.38477 L 1960.1562 758.74414 L 1960.1406 758.68555 L 1960.125 758.62695 L 1958.5801 752.63086 L 1956.0586 748.15039 L 1951.6445 745.51367 L 1946.5039 745.41797 z M 31.28125 1148.1738 L 26.578125 1150.2539 L 23.527344 1154.3926 L 22.9375 1159.5 L 22.972656 1159.7148 L 24.722656 1170.125 L 24.732422 1170.1855 L 24.744141 1170.2461 L 26.882812 1182.0703 L 26.892578 1182.1309 L 26.904297 1182.1914 L 29.1875 1193.9824 L 29.199219 1194.043 L 29.210938 1194.1016 L 31.634766 1205.8574 L 31.648438 1205.918 L 31.660156 1205.9766 L 34.228516 1217.6953 L 34.240234 1217.7559 L 34.255859 1217.8145 L 36.964844 1229.4941 L 36.978516 1229.5527 L 36.992188 1229.6133 L 39.84375 1241.2539 L 39.857422 1241.3125 L 39.873047 1241.3711 L 42.863281 1252.9707 L 42.878906 1253.0312 L 42.894531 1253.0898 L 46.027344 1264.6465 L 46.042969 1264.707 L 46.058594 1264.7656 L 49.330078 1276.2793 L 49.347656 1276.3379 L 49.365234 1276.3965 L 52.775391 1287.8672 L 52.792969 1287.9258 L 52.810547 1287.9844 L 56.361328 1299.4082 L 56.378906 1299.4668 L 56.396484 1299.5254 L 60.085938 1310.9023 L 60.103516 1310.9609 L 60.123047 1311.0195 L 63.949219 1322.3477 L 63.96875 1322.4062 L 63.988281 1322.4629 L 67.951172 1333.7441 L 67.970703 1333.8008 L 67.992188 1333.8574 L 72.091797 1345.0879 L 72.113281 1345.1445 L 72.134766 1345.2012 L 76.369141 1356.3789 L 76.390625 1356.4355 L 76.414062 1356.4922 L 80.785156 1367.6172 L 80.806641 1367.6738 L 80.830078 1367.7305 L 85.335938 1378.7988 L 85.359375 1378.8555 L 85.382812 1378.9121 L 90.023438 1389.9258 L 90.046875 1389.9824 L 90.072266 1390.0371 L 94.845703 1400.9941 L 94.871094 1401.0508 L 94.896484 1401.1055 L 99.804688 1412.0039 L 99.830078 1412.0605 L 99.855469 1412.1152 L 104.89648 1422.9531 L 104.92188 1423.0098 L 104.94922 1423.0645 L 110.12305 1433.8418 L 110.15039 1433.8965 L 110.17578 1433.9512 L 115.48242 1444.668 L 115.50977 1444.7227 L 115.53711 1444.7773 L 116.5293 1446.7188 L 119.96484 1450.543 L 124.84766 1452.1562 L 129.88477 1451.1289 L 133.74805 1447.7324 L 135.41211 1442.8691 L 134.43945 1437.8203 L 134.3418 1437.627 L 133.40625 1435.793 L 133.37109 1435.7207 L 133.35156 1435.6836 L 128.09961 1425.0762 L 123.03125 1414.5195 L 123.00977 1414.4727 L 122.97852 1414.4082 L 118.04102 1403.791 L 118.00977 1403.7227 L 117.99023 1403.6797 L 113.18164 1393.0039 L 108.45508 1382.1602 L 108.43945 1382.123 L 108.40625 1382.0469 L 103.85938 1371.2578 L 103.85742 1371.2539 L 99.398438 1360.3027 L 99.365234 1360.2188 L 99.353516 1360.1895 L 95.072266 1349.291 L 90.878906 1338.2285 L 86.820312 1327.1152 L 86.792969 1327.0391 L 86.779297 1327 L 82.898438 1315.9492 L 79.111328 1304.7363 L 75.423828 1293.3594 L 71.945312 1282.168 L 71.917969 1282.0742 L 71.910156 1282.0508 L 68.570312 1270.8145 L 65.298828 1259.2988 L 62.230469 1247.9766 L 62.220703 1247.9375 L 62.199219 1247.8594 L 59.269531 1236.4961 L 56.447266 1224.9746 L 53.765625 1213.4141 L 53.759766 1213.3906 L 51.222656 1201.8145 L 51.210938 1201.7578 L 51.197266 1201.6953 L 48.822266 1190.1797 L 48.804688 1190.0918 L 48.798828 1190.0605 L 46.541016 1178.3887 L 44.445312 1166.8047 L 44.445312 1166.7988 L 42.695312 1156.3945 L 40.566406 1151.7148 L 36.394531 1148.709 L 31.28125 1148.1738 z M 1940.7168 1256.8633 L 1936.1914 1259.2949 L 1933.4668 1263.6543 L 1933.4062 1263.8613 L 1931.4297 1270.8164 L 1928.0898 1282.0527 L 1928.0801 1282.0762 L 1928.0527 1282.1699 L 1924.5742 1293.3613 L 1920.8867 1304.7383 L 1917.0996 1315.9512 L 1913.2188 1327.002 L 1913.2051 1327.041 L 1913.1777 1327.1172 L 1909.1191 1338.2305 L 1904.9258 1349.293 L 1900.6445 1360.1914 L 1900.6328 1360.2207 L 1900.5996 1360.3047 L 1896.1406 1371.2559 L 1896.1406 1371.2598 L 1891.5938 1382.0488 L 1891.5605 1382.125 L 1891.5449 1382.1621 L 1886.8184 1393.0059 L 1882.0098 1403.6816 L 1881.9902 1403.7246 L 1881.959 1403.793 L 1877.0215 1414.4102 L 1876.9902 1414.4746 L 1876.9688 1414.5215 L 1871.9004 1425.0781 L 1866.6484 1435.6855 L 1866.6309 1435.7207 L 1866.5938 1435.7949 L 1861.2109 1446.3379 L 1855.7559 1456.7109 L 1855.7461 1456.7207 L 1850.1113 1467.127 L 1850.0977 1467.1523 L 1850.0527 1467.2344 L 1844.3438 1477.4746 L 1844.3203 1477.5156 L 1844.2832 1477.582 L 1838.3848 1487.8633 L 1832.4219 1497.9688 L 1832.4121 1497.9844 L 1832.3594 1498.0742 L 1826.2715 1508.1113 L 1826.252 1508.1406 L 1826.2051 1508.2168 L 1819.9902 1518.1836 L 1813.5859 1528.1816 L 1813.5859 1528.1875 L 1810.4863 1532.8984 L 1808.8594 1537.7773 L 1809.8711 1542.8184 L 1813.2539 1546.6895 L 1818.1133 1548.3691 L 1823.1641 1547.4121 L 1827.0723 1544.0723 L 1827.1934 1543.8926 L 1830.2988 1539.1758 L 1830.332 1539.125 L 1830.3652 1539.0723 L 1836.8359 1528.9707 L 1836.8691 1528.9199 L 1836.9004 1528.8672 L 1843.2441 1518.6934 L 1843.2773 1518.6406 L 1843.3086 1518.5898 L 1849.5234 1508.3418 L 1849.5547 1508.2891 L 1849.584 1508.2383 L 1855.6719 1497.9199 L 1855.7031 1497.8672 L 1855.7344 1497.8145 L 1861.6914 1487.4277 L 1861.7227 1487.375 L 1861.752 1487.3203 L 1867.5801 1476.8652 L 1867.6113 1476.8125 L 1867.6406 1476.7578 L 1873.3379 1466.2363 L 1873.3652 1466.1816 L 1873.3945 1466.1289 L 1878.9629 1455.5391 L 1878.9922 1455.4863 L 1879.0195 1455.4316 L 1884.457 1444.7793 L 1884.4844 1444.7246 L 1884.5117 1444.6699 L 1889.8184 1433.9531 L 1889.8418 1433.8984 L 1889.8691 1433.8438 L 1895.043 1423.0664 L 1895.0703 1423.0117 L 1895.0957 1422.9551 L 1900.1367 1412.1172 L 1900.1621 1412.0625 L 1900.1855 1412.0059 L 1905.0938 1401.1074 L 1905.1191 1401.0527 L 1905.1445 1400.9961 L 1909.918 1390.0391 L 1909.9434 1389.9844 L 1909.9668 1389.9277 L 1914.6074 1378.9141 L 1914.6309 1378.8574 L 1914.6543 1378.8008 L 1919.1602 1367.7324 L 1919.1836 1367.6758 L 1919.2051 1367.6191 L 1923.5762 1356.4941 L 1923.5996 1356.4375 L 1923.623 1356.3809 L 1927.8574 1345.2031 L 1927.8789 1345.1465 L 1927.9004 1345.0898 L 1932 1333.8594 L 1932.0215 1333.8027 L 1932.041 1333.7461 L 1936.0039 1322.4648 L 1936.0234 1322.4082 L 1936.043 1322.3496 L 1939.8691 1311.0215 L 1939.8887 1310.9629 L 1939.9082 1310.9043 L 1943.5977 1299.5273 L 1943.6152 1299.4688 L 1943.6328 1299.4102 L 1947.1836 1287.9863 L 1947.2012 1287.9277 L 1947.2188 1287.8691 L 1950.6309 1276.3984 L 1950.6465 1276.3398 L 1950.6641 1276.2812 L 1952.6387 1269.3281 L 1952.7246 1264.1875 L 1950.2461 1259.6816 L 1945.8555 1257.0059 L 1940.7168 1256.8633 z M 213.75977 1576.5508 L 208.9707 1578.4219 L 205.74609 1582.4258 L 204.93555 1587.5039 L 206.75586 1592.3125 L 206.88281 1592.4863 L 211.52344 1598.6758 L 211.55859 1598.7246 L 211.59766 1598.7734 L 218.94531 1608.3262 L 218.98242 1608.375 L 219.01953 1608.4238 L 226.49023 1617.8926 L 226.5293 1617.9414 L 226.56836 1617.9883 L 234.16211 1627.373 L 234.19922 1627.4219 L 234.24023 1627.4688 L 241.95508 1636.7676 L 241.99414 1636.8145 L 242.03516 1636.8633 L 249.87109 1646.0742 L 249.91211 1646.1211 L 249.95117 1646.168 L 257.91016 1655.291 L 257.95117 1655.3379 L 257.99219 1655.3848 L 266.07031 1664.418 L 266.11133 1664.4629 L 266.1543 1664.5098 L 274.35352 1673.4531 L 274.39453 1673.498 L 274.4375 1673.543 L 282.75586 1682.3945 L 282.79688 1682.4395 L 282.83984 1682.4844 L 291.27734 1691.2402 L 291.32031 1691.2852 L 291.36523 1691.3281 L 299.91992 1699.9902 L 299.96484 1700.0352 L 300.00781 1700.0801 L 308.67188 1708.6367 L 308.71484 1708.6797 L 308.75977 1708.7227 L 317.51758 1717.1602 L 317.5625 1717.2031 L 317.60742 1717.2461 L 326.45703 1725.5645 L 326.50195 1725.6055 L 326.54883 1725.6484 L 335.49219 1733.8477 L 335.53711 1733.8887 L 335.58398 1733.9297 L 344.61719 1742.0098 L 344.66211 1742.0508 L 344.70898 1742.0898 L 353.83398 1750.0488 L 353.87891 1750.0898 L 353.92578 1750.1289 L 363.13867 1757.9668 L 363.18555 1758.0059 L 363.23242 1758.0469 L 372.53125 1765.7617 L 372.58008 1765.8008 L 372.62695 1765.8398 L 382.01172 1773.4336 L 382.06055 1773.4727 L 382.10938 1773.5098 L 391.57812 1780.9805 L 391.62695 1781.0195 L 391.67578 1781.0566 L 401.22852 1788.4043 L 401.27734 1788.4414 L 401.32617 1788.4785 L 410.96094 1795.7012 L 411.00977 1795.7383 L 411.06055 1795.7754 L 420.77539 1802.875 L 420.82422 1802.9102 L 420.875 1802.9473 L 422.32617 1803.9805 L 427.14062 1805.7852 L 432.21484 1804.959 L 436.20898 1801.7227 L 438.06641 1796.9277 L 437.29688 1791.8438 L 434.10156 1787.8145 L 433.92773 1787.6875 L 432.57617 1786.7266 L 432.50391 1786.6738 L 432.47656 1786.6543 L 422.95898 1779.6992 L 413.42188 1772.5508 L 413.36914 1772.5117 L 413.32422 1772.4766 L 403.86914 1765.2031 L 394.5918 1757.8848 L 394.55859 1757.8574 L 394.49609 1757.8086 L 385.30273 1750.3691 L 385.26953 1750.3418 L 385.20703 1750.291 L 376.00391 1742.6543 L 366.98047 1734.9766 L 366.9668 1734.9648 L 366.88672 1734.8965 L 357.94922 1727.1016 L 357.9375 1727.0898 L 357.85547 1727.0195 L 348.92383 1719.0293 L 348.91602 1719.0215 L 340.1543 1710.9902 L 340.08398 1710.9238 L 340.06445 1710.9062 L 331.39453 1702.7578 L 331.33203 1702.6973 L 331.30469 1702.6719 L 322.72461 1694.4062 L 322.67188 1694.3555 L 322.63672 1694.3203 L 314.15039 1685.9375 L 305.68164 1677.3652 L 305.64844 1677.3301 L 305.59375 1677.2754 L 297.24414 1668.6074 L 289.0957 1659.9375 L 289.08203 1659.9238 L 289.00977 1659.8457 L 280.89648 1650.9941 L 272.98242 1642.1445 L 272.98047 1642.1426 L 265.10352 1633.1152 L 265.03711 1633.0371 L 265.02344 1633.0215 L 257.26758 1623.9023 L 249.70898 1614.793 L 249.6582 1614.7305 L 249.63086 1614.6973 L 242.19336 1605.5039 L 234.72266 1596.0352 L 227.52539 1586.6777 L 222.88477 1580.4883 L 218.8457 1577.3066 L 213.75977 1576.5508 z M 1716.0566 1661.9453 L 1710.9082 1662.0215 L 1706.4844 1664.6426 L 1706.3359 1664.7969 L 1702.7559 1668.6074 L 1694.4062 1677.2754 L 1694.3516 1677.3301 L 1694.3184 1677.3652 L 1685.8496 1685.9375 L 1677.3633 1694.3203 L 1677.3281 1694.3555 L 1677.2754 1694.4062 L 1668.6953 1702.6719 L 1668.668 1702.6973 L 1668.6055 1702.7578 L 1659.9355 1710.9062 L 1659.916 1710.9238 L 1659.8457 1710.9902 L 1651.084 1719.0215 L 1651.0742 1719.0293 L 1642.1426 1727.0195 L 1642.0605 1727.0898 L 1642.0488 1727.1016 L 1633.1113 1734.8965 L 1633.0312 1734.9648 L 1633.0176 1734.9766 L 1623.9941 1742.6543 L 1614.791 1750.291 L 1614.7285 1750.3418 L 1614.6953 1750.3691 L 1605.502 1757.8086 L 1605.4395 1757.8574 L 1605.4062 1757.8848 L 1596.1309 1765.2031 L 1586.6738 1772.4766 L 1586.6289 1772.5117 L 1586.5762 1772.5508 L 1577.0391 1779.6992 L 1567.5215 1786.6543 L 1567.4941 1786.6738 L 1567.4238 1786.7266 L 1557.7285 1793.6289 L 1547.9551 1800.4082 L 1538.207 1806.9961 L 1538.1895 1807.0059 L 1538.1035 1807.0645 L 1528.2812 1813.5273 L 1528.2578 1813.543 L 1528.1816 1813.5938 L 1518.2852 1819.9316 L 1508.2148 1826.2109 L 1508.2051 1826.2148 L 1498.0703 1832.3633 L 1487.7559 1838.4492 L 1487.7559 1838.4512 L 1477.5801 1844.2871 L 1473.166 1846.75 L 1469.4707 1850.3223 L 1468.0391 1855.2617 L 1469.25 1860.2578 L 1472.7832 1863.9922 L 1477.707 1865.4785 L 1482.7168 1864.3203 L 1482.9062 1864.2168 L 1487.3203 1861.7559 L 1487.373 1861.7266 L 1487.4258 1861.6973 L 1497.8125 1855.7383 L 1497.8672 1855.707 L 1497.9199 1855.6777 L 1508.2363 1849.5898 L 1508.2891 1849.5586 L 1508.3418 1849.5273 L 1518.5879 1843.3105 L 1518.6406 1843.2793 L 1518.6934 1843.2461 L 1528.8691 1836.9043 L 1528.9219 1836.8711 L 1528.9727 1836.8379 L 1539.0742 1830.3672 L 1539.125 1830.334 L 1539.1758 1830.3008 L 1549.2031 1823.7031 L 1549.2539 1823.6699 L 1549.3047 1823.6348 L 1559.2559 1816.9102 L 1559.3066 1816.877 L 1559.3594 1816.8418 L 1569.2324 1809.9922 L 1569.2832 1809.957 L 1569.334 1809.9219 L 1579.1289 1802.9473 L 1579.1797 1802.9102 L 1579.2285 1802.875 L 1588.9434 1795.7754 L 1588.9941 1795.7383 L 1589.043 1795.7012 L 1598.6777 1788.4785 L 1598.7266 1788.4414 L 1598.7754 1788.4043 L 1608.3281 1781.0566 L 1608.377 1781.0195 L 1608.4277 1780.9805 L 1617.8945 1773.5098 L 1617.9453 1773.4727 L 1617.9941 1773.4336 L 1627.3789 1765.8398 L 1627.4258 1765.8008 L 1627.4746 1765.7617 L 1636.7734 1758.0469 L 1636.8203 1758.0059 L 1636.8672 1757.9668 L 1646.0801 1750.1289 L 1646.127 1750.0898 L 1646.1719 1750.0488 L 1655.2969 1742.0898 L 1655.3438 1742.0508 L 1655.3887 1742.0098 L 1664.4219 1733.9297 L 1664.4688 1733.8887 L 1664.5137 1733.8477 L 1673.457 1725.6484 L 1673.5039 1725.6055 L 1673.5488 1725.5645 L 1682.3984 1717.2461 L 1682.4434 1717.2031 L 1682.4883 1717.1602 L 1691.2461 1708.7227 L 1691.291 1708.6797 L 1691.334 1708.6367 L 1699.998 1700.0801 L 1700.043 1700.0371 L 1700.0879 1699.9922 L 1708.6426 1691.3301 L 1708.6875 1691.2852 L 1708.7305 1691.2402 L 1717.168 1682.4844 L 1717.2109 1682.4395 L 1717.252 1682.3945 L 1720.916 1678.4941 L 1723.3574 1673.9688 L 1723.2246 1668.8281 L 1720.5566 1664.4336 L 1716.0566 1661.9453 z M 573.35156 1872.6133 L 568.49219 1874.291 L 565.10742 1878.1621 L 564.09375 1883.2031 L 565.7207 1888.0801 L 569.55469 1891.5059 L 569.74805 1891.6016 L 576.93555 1895.0527 L 576.99023 1895.0781 L 577.04492 1895.1035 L 587.88477 1900.1445 L 587.93945 1900.1719 L 587.99414 1900.1953 L 598.89258 1905.1055 L 598.94922 1905.1289 L 599.00391 1905.1543 L 609.96094 1909.9297 L 610.01758 1909.9531 L 610.07422 1909.9746 L 621.08789 1914.6152 L 621.14258 1914.6426 L 621.19922 1914.6641 L 632.26953 1919.1719 L 632.32617 1919.1934 L 632.38281 1919.2148 L 643.50586 1923.5879 L 643.5625 1923.6094 L 643.62109 1923.6309 L 654.79688 1927.8672 L 654.85352 1927.8887 L 654.91211 1927.9102 L 666.14062 1932.0078 L 666.19727 1932.0293 L 666.25586 1932.0488 L 677.53516 1936.0117 L 677.59375 1936.0332 L 677.65039 1936.0527 L 688.98047 1939.877 L 689.03711 1939.8965 L 689.0957 1939.9141 L 700.47461 1943.6016 L 700.53125 1943.6211 L 700.58984 1943.6387 L 712.01367 1947.1875 L 712.07227 1947.2051 L 712.13086 1947.2246 L 723.60156 1950.6348 L 723.66016 1950.6543 L 723.71875 1950.6699 L 735.23438 1953.9414 L 735.29297 1953.959 L 735.35156 1953.9746 L 746.91016 1957.1055 L 746.96875 1957.123 L 747.02734 1957.1387 L 758.62695 1960.1309 L 758.6875 1960.1445 L 758.74609 1960.1602 L 770.38672 1963.0098 L 770.44531 1963.0254 L 770.50586 1963.0391 L 782.18555 1965.748 L 782.24609 1965.7637 L 782.30469 1965.7773 L 794.02344 1968.3438 L 794.08398 1968.3574 L 794.14258 1968.3691 L 805.89844 1970.7949 L 805.95898 1970.8066 L 806.01953 1970.8184 L 817.80859 1973.0996 L 817.86914 1973.1113 L 817.92969 1973.125 L 829.75586 1975.2637 L 829.81641 1975.2734 L 829.87695 1975.2832 L 841.73438 1977.2773 L 841.79492 1977.2891 L 841.85547 1977.2988 L 853.74609 1979.1484 L 853.80664 1979.1582 L 853.86719 1979.168 L 858.44141 1979.8223 L 863.54688 1979.2168 L 867.67773 1976.1543 L 869.74023 1971.4453 L 869.19141 1966.334 L 866.17383 1962.1699 L 861.48633 1960.0566 L 861.27344 1960.0234 L 856.82031 1959.3867 L 856.79883 1959.3867 L 845.05273 1957.5605 L 845.02148 1957.5508 L 833.31445 1955.584 L 833.22656 1955.5684 L 833.19336 1955.5586 L 821.48828 1953.4414 L 809.81836 1951.1816 L 798.30273 1948.8066 L 798.23828 1948.793 L 798.18359 1948.7812 L 786.60742 1946.2461 L 786.58594 1946.2402 L 775.14453 1943.5859 L 763.62109 1940.7656 L 763.57422 1940.7539 L 763.50391 1940.7363 L 752.14062 1937.8066 L 752.09961 1937.7949 L 752.02148 1937.7754 L 740.58984 1934.6758 L 740.58203 1934.6738 L 729.30273 1931.4688 L 717.94922 1928.0938 L 717.92578 1928.084 L 717.83203 1928.0586 L 706.64062 1924.582 L 706.58789 1924.5625 L 706.52344 1924.5449 L 695.37891 1920.9316 L 684.16406 1917.1465 L 684.15234 1917.1406 L 673 1913.2207 L 672.96094 1913.207 L 672.88477 1913.1797 L 661.88477 1909.1641 L 661.81836 1909.1387 L 661.76953 1909.1211 L 650.82031 1904.9727 L 650.81641 1904.9707 L 639.81055 1900.6465 L 639.78125 1900.6348 L 639.69727 1900.6016 L 628.85352 1896.1875 L 628.80078 1896.1641 L 628.74023 1896.1406 L 617.95117 1891.5938 L 607.10742 1886.8691 L 596.2168 1881.9648 L 596.20898 1881.9609 L 585.48047 1876.9688 L 578.4043 1873.5723 L 573.35156 1872.6133 z M 1325.2344 1915.3457 L 1320.0938 1915.6484 L 1319.8887 1915.7188 L 1315.8477 1917.1387 L 1315.8359 1917.1426 L 1304.6211 1920.9277 L 1293.4766 1924.541 L 1293.4121 1924.5605 L 1293.3594 1924.5781 L 1282.168 1928.0547 L 1282.0742 1928.082 L 1282.0508 1928.0898 L 1270.6973 1931.4648 L 1259.418 1934.6699 L 1259.4082 1934.6719 L 1247.9766 1937.7715 L 1247.8984 1937.791 L 1247.8574 1937.8027 L 1236.4941 1940.7324 L 1236.4238 1940.75 L 1236.377 1940.7617 L 1224.8535 1943.582 L 1213.4121 1946.2363 L 1213.3906 1946.2422 L 1201.8145 1948.7773 L 1201.7598 1948.7891 L 1201.6953 1948.8027 L 1190.1797 1951.1777 L 1178.5098 1953.4375 L 1166.8047 1955.5547 L 1166.7715 1955.5645 L 1166.6836 1955.5801 L 1154.9766 1957.5469 L 1154.9453 1957.5566 L 1143.1992 1959.3828 L 1143.1777 1959.3828 L 1131.377 1961.0703 L 1119.6719 1962.5977 L 1119.6387 1962.5977 L 1107.8145 1963.9941 L 1107.7656 1964.0059 L 1107.6934 1964.0156 L 1095.9316 1965.2559 L 1095.8477 1965.2656 L 1095.8105 1965.2656 L 1083.9004 1966.373 L 1072.0918 1967.3262 L 1072.0781 1967.3262 L 1060.1367 1968.1426 L 1060.0898 1968.1426 L 1060.0137 1968.1523 L 1048.1602 1968.8145 L 1048.0801 1968.8145 L 1048.0371 1968.8145 L 1036.0488 1969.334 L 1036.0391 1969.334 L 1029.0566 1969.5488 L 1024.1328 1971.0254 L 1020.5898 1974.752 L 1019.3691 1979.7461 L 1020.791 1984.6875 L 1024.4805 1988.2695 L 1029.4609 1989.5449 L 1029.6777 1989.5352 L 1036.7832 1989.3164 L 1036.8438 1989.3164 L 1036.9062 1989.3164 L 1049.0273 1988.791 L 1049.0898 1988.791 L 1049.1504 1988.791 L 1061.252 1988.1152 L 1061.3125 1988.1152 L 1061.375 1988.1152 L 1073.4531 1987.291 L 1073.5156 1987.291 L 1073.5762 1987.291 L 1085.6309 1986.3184 L 1085.6934 1986.3086 L 1085.7539 1986.2988 L 1097.7852 1985.1797 L 1097.8457 1985.168 L 1097.9082 1985.1582 L 1109.9141 1983.8906 L 1109.9746 1983.8809 L 1110.0371 1983.8711 L 1122.0156 1982.459 L 1122.0762 1982.4492 L 1122.1367 1982.4395 L 1134.0879 1980.8789 L 1134.1484 1980.8691 L 1134.2109 1980.8594 L 1146.1328 1979.1543 L 1146.1934 1979.1445 L 1146.252 1979.1328 L 1158.1426 1977.2832 L 1158.2051 1977.2734 L 1158.2656 1977.2617 L 1170.123 1975.2676 L 1170.1836 1975.2578 L 1170.2441 1975.248 L 1182.0703 1973.1094 L 1182.1309 1973.0977 L 1182.1914 1973.0859 L 1193.9805 1970.8047 L 1194.041 1970.793 L 1194.1016 1970.7793 L 1205.8574 1968.3535 L 1205.918 1968.3418 L 1205.9785 1968.3281 L 1217.6973 1965.7617 L 1217.7559 1965.748 L 1217.8164 1965.7344 L 1229.4961 1963.0254 L 1229.5566 1963.0117 L 1229.6172 1962.9941 L 1241.2578 1960.1445 L 1241.3164 1960.1289 L 1241.377 1960.1152 L 1252.9766 1957.123 L 1253.0352 1957.1074 L 1253.0938 1957.0918 L 1264.6523 1953.9609 L 1264.7109 1953.9434 L 1264.7695 1953.9258 L 1276.2852 1950.6543 L 1276.3457 1950.6387 L 1276.4043 1950.6211 L 1287.875 1947.209 L 1287.9336 1947.1914 L 1287.9922 1947.1738 L 1299.416 1943.625 L 1299.4746 1943.6074 L 1299.5332 1943.5879 L 1310.9121 1939.9004 L 1310.9707 1939.8809 L 1311.0273 1939.8613 L 1322.3574 1936.0371 L 1322.4141 1936.0176 L 1322.4727 1935.9961 L 1326.5254 1934.5723 L 1330.7754 1931.6777 L 1333.0254 1927.0547 L 1332.6816 1921.9258 L 1329.834 1917.6445 L 1325.2344 1915.3457 z "
       transform="translate(0,-947.63784)"
       id="path4136" />
  </g>
</svg>
