<?xml version="1.0" encoding="UTF-8" standalone="no"?>
<!-- Created with Inkscape (http://www.inkscape.org/) -->

<svg
   xmlns:dc="http://purl.org/dc/elements/1.1/"
   xmlns:cc="http://creativecommons.org/ns#"
   xmlns:rdf="http://www.w3.org/1999/02/22-rdf-syntax-ns#"
   xmlns:svg="http://www.w3.org/2000/svg"
   xmlns="http://www.w3.org/2000/svg"
   xmlns:sodipodi="http://sodipodi.sourceforge.net/DTD/sodipodi-0.dtd"
   xmlns:inkscape="http://www.inkscape.org/namespaces/inkscape"
   width="2000"
   height="2000"
   viewBox="0 0 2000 2000"
   id="svg2"
   version="1.1"
   inkscape:version="0.91 r13725"
   sodipodi:docname="03-timer-start-event.svg">
  <defs
     id="defs4" />
  <sodipodi:namedview
     id="base"
     pagecolor="#ffffff"
     bordercolor="#666666"
     borderopacity="1.0"
     inkscape:pageopacity="0.0"
     inkscape:pageshadow="2"
     inkscape:zoom="0.4345"
     inkscape:cx="-253.16456"
     inkscape:cy="1185.3399"
     inkscape:document-units="px"
     inkscape:current-layer="layer1"
     showgrid="true"
     units="px"
     showguides="false"
     inkscape:window-width="1878"
     inkscape:window-height="1035"
     inkscape:window-x="125"
     inkscape:window-y="0"
     inkscape:window-maximized="0">
    <inkscape:grid
       type="xygrid"
       id="grid4008"
       empspacing="20"
       dotted="false" />
  </sodipodi:namedview>
  <metadata
     id="metadata7">
    <rdf:RDF>
      <cc:Work
         rdf:about="">
        <dc:format>image/svg+xml</dc:format>
        <dc:type
           rdf:resource="http://purl.org/dc/dcmitype/StillImage" />
        <dc:title />
        <cc:license
           rdf:resource="https://github.com/bpmn-io/bpmn-font/blob/master/LICENSE" />
        <dc:creator>
          <cc:Agent>
            <dc:title>Jörg Dotzki</dc:title>
          </cc:Agent>
        </dc:creator>
        <dc:subject>
          <rdf:Bag>
            <rdf:li>BPMN</rdf:li>
            <rdf:li>bpmn-io</rdf:li>
            <rdf:li>bpmn.io</rdf:li>
            <rdf:li>Font</rdf:li>
          </rdf:Bag>
        </dc:subject>
      </cc:Work>
    </rdf:RDF>
  </metadata>
  <g
     inkscape:label="Ebene 1"
     inkscape:groupmode="layer"
     id="layer1"
     transform="translate(0,947.63784)">
    <path
       style="color:#000000;font-style:normal;font-variant:normal;font-weight:normal;font-stretch:normal;font-size:medium;line-height:normal;font-family:sans-serif;text-indent:0;text-align:start;text-decoration:none;text-decoration-line:none;text-decoration-style:solid;text-decoration-color:#000000;letter-spacing:normal;word-spacing:normal;text-transform:none;direction:ltr;block-progression:tb;writing-mode:lr-tb;baseline-shift:baseline;text-anchor:start;white-space:normal;clip-rule:nonzero;display:inline;overflow:visible;visibility:visible;opacity:1;isolation:auto;mix-blend-mode:normal;color-interpolation:sRGB;color-interpolation-filters:linearRGB;solid-color:#000000;solid-opacity:1;fill:#000000;fill-opacity:1;fill-rule:nonzero;stroke:none;stroke-width:70;stroke-linecap:round;stroke-linejoin:miter;stroke-miterlimit:4;stroke-dasharray:420, 420;stroke-dashoffset:0;stroke-opacity:1;color-rendering:auto;image-rendering:auto;shape-rendering:auto;text-rendering:auto;enable-background:accumulate"
       d="M 1000 10 L 999.7832 10.001953 L 987.91797 10.074219 L 987.70117 10.076172 L 987.48438 10.080078 L 975.63477 10.300781 L 975.41797 10.304688 L 975.20117 10.3125 L 963.37109 10.677734 L 963.1543 10.685547 L 962.9375 10.695312 L 951.12695 11.207031 L 950.91016 11.216797 L 950.69336 11.228516 L 938.90234 11.886719 L 938.68555 11.898438 L 938.4707 11.914062 L 926.69922 12.716797 L 926.48438 12.730469 L 926.26953 12.748047 L 914.52148 13.695312 L 914.30664 13.712891 L 914.0918 13.734375 L 902.36719 14.824219 L 902.15234 14.84375 L 901.9375 14.867188 L 890.23828 16.101562 L 890.02344 16.125 L 889.81055 16.150391 L 878.13672 17.527344 L 877.92188 17.552734 L 877.70898 17.580078 L 866.06445 19.099609 L 865.84961 19.126953 L 865.63672 19.158203 L 854.01953 20.818359 L 853.80664 20.849609 L 853.5957 20.882812 L 842.00781 22.685547 L 841.79492 22.71875 L 841.58398 22.753906 L 830.02734 24.697266 L 829.81641 24.732422 L 829.60352 24.771484 L 818.08008 26.855469 L 817.86914 26.894531 L 817.6582 26.933594 L 806.16797 29.158203 L 805.95898 29.199219 L 805.74805 29.242188 L 794.29297 31.605469 L 794.08203 31.648438 L 793.87305 31.693359 L 782.45508 34.195312 L 782.24414 34.242188 L 782.03711 34.291016 L 770.6543 36.929688 L 770.44531 36.978516 L 770.23828 37.029297 L 758.89453 39.806641 L 758.68555 39.857422 L 758.47852 39.912109 L 747.17383 42.826172 L 746.9668 42.878906 L 746.76172 42.935547 L 735.49805 45.986328 L 735.29102 46.042969 L 735.08594 46.101562 L 723.86523 49.289062 L 723.66016 49.347656 L 723.45508 49.408203 L 712.27734 52.732422 L 712.07227 52.792969 L 711.86719 52.857422 L 700.73438 56.316406 L 700.53125 56.378906 L 700.32812 56.445312 L 693.82422 58.552734 L 686.1543 62.113281 L 679.56055 67.410156 L 674.42969 74.132812 L 671.0625 81.890625 L 669.6543 90.228516 L 670.28516 98.662109 L 672.92188 106.69727 L 677.41016 113.86719 L 683.48633 119.75 L 690.79492 124.00391 L 698.91211 126.37891 L 707.36133 126.74023 L 715.4082 125.14258 L 721.71094 123.09961 L 732.36523 119.78906 L 743.20898 116.56445 L 754.0918 113.47266 L 764.83008 110.56445 L 775.64648 107.77344 L 786.79492 105.04492 L 786.88672 105.02148 L 797.68164 102.51953 L 808.60156 100.12695 L 819.67383 97.84375 L 830.81445 95.6875 L 841.82812 93.697266 L 853.00195 91.818359 L 864.22461 90.070312 L 875.30273 88.488281 L 886.56641 87.017578 L 897.87109 85.683594 L 909.04492 84.505859 L 920.39258 83.449219 L 931.58008 82.546875 L 943.125 81.759766 L 954.52539 81.125 L 954.59375 81.121094 L 965.79883 80.636719 L 977.07812 80.287109 L 988.5332 80.072266 L 1000 80.001953 L 1011.4668 80.072266 L 1022.9219 80.287109 L 1034.2012 80.636719 L 1045.4062 81.121094 L 1045.4746 81.125 L 1056.875 81.759766 L 1068.4199 82.546875 L 1079.6074 83.449219 L 1090.9551 84.505859 L 1102.1289 85.683594 L 1113.4473 87.019531 L 1114.8457 87.201172 L 1123.3027 87.275391 L 1131.5293 85.318359 L 1139.0469 81.443359 L 1145.416 75.878906 L 1150.2637 68.951172 L 1153.3105 61.060547 L 1154.373 52.669922 L 1153.3926 44.271484 L 1150.4277 36.351562 L 1145.6484 29.373047 L 1139.3359 23.746094 L 1131.8574 19.796875 L 1123.9023 17.791016 L 1122.291 17.580078 L 1122.0781 17.552734 L 1121.8633 17.527344 L 1110.1895 16.150391 L 1109.9766 16.125 L 1109.7617 16.101562 L 1098.0625 14.867188 L 1097.8477 14.84375 L 1097.6328 14.824219 L 1085.9082 13.734375 L 1085.6934 13.712891 L 1085.4785 13.695312 L 1073.7305 12.748047 L 1073.5156 12.730469 L 1073.3008 12.716797 L 1061.5293 11.914062 L 1061.3145 11.898438 L 1061.0977 11.886719 L 1049.3066 11.228516 L 1049.0898 11.216797 L 1048.873 11.207031 L 1037.0625 10.695312 L 1036.8457 10.685547 L 1036.6289 10.677734 L 1024.7988 10.3125 L 1024.582 10.304688 L 1024.3652 10.300781 L 1012.5156 10.080078 L 1012.2988 10.076172 L 1012.082 10.074219 L 1000.2168 10.001953 L 1000 10 z M 1514.3984 158.61133 L 1505.9453 158.91406 L 1497.8145 161.23438 L 1490.4766 165.43945 L 1484.3594 171.28125 L 1479.8242 178.41797 L 1477.1328 186.43555 L 1476.4434 194.86523 L 1477.7949 203.21289 L 1481.1113 210.99219 L 1486.1953 217.75 L 1492.5371 222.95508 L 1500.9531 228.3457 L 1510.2383 234.45312 L 1510.3066 234.5 L 1519.7656 240.88867 L 1529.0781 247.35156 L 1538.0488 253.73633 L 1538.1074 253.7793 L 1547.3438 260.52734 L 1556.3223 267.25977 L 1565.4004 274.24023 L 1574.3008 281.26367 L 1583.0469 288.33984 L 1591.7871 295.5918 L 1600.3691 302.89258 L 1608.8359 310.27539 L 1608.8691 310.30469 L 1617.4453 317.97461 L 1625.8438 325.67188 L 1634.166 333.49414 L 1642.4746 341.5 L 1650.5371 349.46289 L 1658.5801 357.60547 L 1666.4336 365.75586 L 1674.3242 374.15234 L 1681.959 382.48047 L 1689.5527 390.9707 L 1697.0332 399.54492 L 1704.2715 408.04883 L 1704.334 408.12305 L 1711.6621 416.95508 L 1718.8125 425.79297 L 1725.8359 434.69922 L 1732.666 443.57812 L 1739.4766 452.66016 L 1746.0938 461.7168 L 1752.7227 471.02539 L 1759.1602 480.30859 L 1765.4316 489.58789 L 1771.584 498.9375 L 1776.6523 506.84766 L 1782.041 513.36719 L 1788.8359 518.40234 L 1796.6387 521.66016 L 1804.998 522.95117 L 1813.4219 522.19922 L 1821.418 519.45117 L 1828.5234 514.86328 L 1834.3203 508.70508 L 1838.4707 501.33594 L 1840.7324 493.1875 L 1840.9727 484.73438 L 1839.1797 476.46875 L 1835.5957 469.08984 L 1830.4492 461.05859 L 1830.334 460.87695 L 1830.2168 460.69922 L 1823.7871 450.92773 L 1823.6699 450.74805 L 1823.5488 450.57031 L 1816.9961 440.87305 L 1816.877 440.69531 L 1816.7539 440.51953 L 1810.0801 430.89844 L 1809.957 430.7207 L 1809.832 430.54688 L 1803.0352 421 L 1802.9102 420.82617 L 1802.7832 420.65234 L 1795.8652 411.18359 L 1795.7383 411.00977 L 1795.6094 410.83789 L 1788.5703 401.44922 L 1788.4414 401.27734 L 1788.3086 401.10547 L 1781.1484 391.79688 L 1781.0176 391.62695 L 1780.8848 391.45703 L 1773.6035 382.22852 L 1773.4707 382.06055 L 1773.3359 381.89258 L 1765.9355 372.74609 L 1765.7988 372.58008 L 1765.6621 372.41406 L 1758.1426 363.35156 L 1758.0059 363.18555 L 1757.8652 363.02148 L 1750.2285 354.04297 L 1750.0879 353.87891 L 1749.9453 353.7168 L 1742.1914 344.82617 L 1742.0488 344.66211 L 1741.9043 344.50195 L 1734.0312 335.69727 L 1733.8867 335.53711 L 1733.7422 335.37695 L 1725.752 326.66211 L 1725.6055 326.50195 L 1725.457 326.3457 L 1717.3516 317.7207 L 1717.2012 317.5625 L 1717.0508 317.40625 L 1708.8301 308.87109 L 1708.6797 308.71484 L 1708.5273 308.56055 L 1700.1895 300.11914 L 1700.0371 299.96484 L 1699.8809 299.8125 L 1691.4395 291.47461 L 1691.2852 291.32227 L 1691.1289 291.17188 L 1682.5957 282.94922 L 1682.4395 282.79883 L 1682.2812 282.65039 L 1673.6562 274.54492 L 1673.498 274.39648 L 1673.3379 274.25 L 1664.623 266.25977 L 1664.4648 266.11328 L 1664.3027 265.96875 L 1655.5 258.0957 L 1655.3379 257.95117 L 1655.1758 257.81055 L 1646.2852 250.05469 L 1646.1211 249.91211 L 1645.957 249.77344 L 1636.9805 242.13477 L 1636.8164 241.99609 L 1636.6484 241.85742 L 1627.5879 234.33789 L 1627.4219 234.20117 L 1627.2539 234.06445 L 1618.1074 226.66602 L 1617.9414 226.5293 L 1617.7715 226.39648 L 1608.543 219.11719 L 1608.375 218.98242 L 1608.2031 218.85156 L 1598.8945 211.69141 L 1598.7246 211.56055 L 1598.5527 211.43164 L 1589.1621 204.39062 L 1588.9902 204.26172 L 1588.8164 204.13477 L 1579.3496 197.2168 L 1579.1758 197.08984 L 1579 196.96484 L 1569.4551 190.16797 L 1569.2793 190.04492 L 1569.1035 189.92188 L 1559.4805 183.24609 L 1559.3047 183.125 L 1559.127 183.00391 L 1549.4297 176.45117 L 1549.252 176.33203 L 1549.0742 176.21484 L 1539.3027 169.78516 L 1539.123 169.66602 L 1538.9434 169.55078 L 1530.2949 164.01172 L 1522.6758 160.34375 L 1514.3984 158.61133 z M 344.85156 269.05078 L 336.49805 270.36523 L 328.70312 273.64648 L 322.10742 278.52539 L 317.71875 282.65039 L 317.56055 282.79883 L 317.4043 282.94922 L 308.87109 291.17188 L 308.71484 291.32227 L 308.56055 291.47461 L 300.11914 299.8125 L 299.96289 299.96484 L 299.81055 300.11914 L 291.47266 308.56055 L 291.32031 308.71484 L 291.16992 308.87109 L 282.94922 317.40625 L 282.79883 317.5625 L 282.64844 317.7207 L 274.54297 326.3457 L 274.39453 326.50195 L 274.24805 326.66211 L 266.25781 335.37695 L 266.11328 335.53711 L 265.96875 335.69727 L 258.0957 344.50195 L 257.95117 344.66211 L 257.80859 344.82617 L 250.05469 353.7168 L 249.91211 353.87891 L 249.77148 354.04297 L 242.13477 363.02148 L 241.99414 363.18555 L 241.85742 363.35156 L 234.33789 372.41406 L 234.20117 372.58008 L 234.06445 372.74609 L 226.66406 381.89258 L 226.5293 382.06055 L 226.39648 382.22852 L 219.11523 391.45703 L 218.98242 391.62695 L 218.85156 391.79688 L 211.69141 401.10547 L 211.55859 401.27734 L 211.42969 401.44922 L 204.39062 410.83789 L 204.26172 411.00977 L 204.13477 411.18359 L 197.2168 420.65234 L 197.08984 420.82617 L 196.96484 421 L 190.16797 430.54688 L 190.04297 430.7207 L 189.91992 430.89844 L 183.24609 440.51953 L 183.12305 440.69531 L 183.00391 440.87305 L 176.45117 450.57031 L 176.33008 450.74805 L 176.21289 450.92773 L 169.7832 460.69922 L 169.66602 460.87695 L 169.55078 461.05859 L 163.24414 470.90234 L 163.12891 471.08203 L 163.01562 471.26367 L 156.83398 481.17969 L 156.7207 481.36133 L 156.60938 481.54297 L 150.55273 491.5293 L 150.44141 491.71289 L 150.33203 491.89648 L 144.40039 501.95117 L 144.29297 502.13477 L 144.18555 502.32031 L 138.37891 512.44336 L 138.27344 512.62891 L 138.16992 512.81445 L 132.48828 523.00391 L 132.38477 523.18945 L 132.2832 523.37891 L 126.72852 533.63281 L 126.62695 533.82031 L 126.52734 534.00977 L 121.10156 544.32617 L 121.00195 544.51562 L 120.9043 544.70703 L 115.60547 555.08789 L 115.50977 555.27734 L 115.41406 555.46875 L 110.24414 565.91211 L 110.14844 566.10352 L 110.05664 566.29492 L 105.01367 576.79883 L 104.92188 576.99023 L 104.83203 577.18359 L 99.919922 587.74609 L 99.828125 587.93945 L 99.742188 588.13477 L 94.958984 598.75586 L 94.871094 598.94922 L 94.785156 599.14453 L 90.132812 609.82227 L 90.046875 610.01758 L 89.964844 610.21484 L 85.441406 620.94727 L 85.359375 621.14453 L 85.277344 621.3418 L 80.886719 632.12891 L 80.806641 632.32617 L 80.728516 632.52539 L 79.416016 635.86523 L 77.296875 644.05078 L 77.203125 652.50781 L 79.140625 660.74023 L 82.996094 668.26758 L 88.544922 674.65039 L 95.460938 679.51562 L 103.34375 682.58008 L 111.73047 683.66406 L 120.13477 682.70508 L 128.06055 679.75781 L 135.05078 674.99609 L 140.69336 668.69531 L 144.56641 661.46484 L 145.78906 658.35156 L 149.99414 648.02148 L 154.37891 637.61328 L 158.89453 627.25586 L 163.47266 617.08789 L 168.26562 606.78516 L 168.30273 606.70703 L 173.0957 596.72656 L 178.04688 586.72656 L 183.12109 576.78711 L 188.38281 566.78125 L 193.69922 556.96289 L 199.09961 547.27344 L 199.13672 547.20898 L 204.76367 537.39648 L 210.48047 527.70508 L 216.34766 518.03125 L 222.30859 508.47266 L 228.41602 498.9375 L 234.56836 489.58789 L 240.83984 480.30859 L 247.27734 471.02539 L 253.90625 461.7168 L 260.52344 452.66016 L 267.33398 443.57812 L 274.16406 434.69922 L 281.1875 425.79297 L 288.33789 416.95508 L 295.66602 408.12305 L 295.72852 408.04883 L 302.9668 399.54492 L 310.44727 390.9707 L 318.04102 382.48047 L 325.67578 374.15234 L 333.56641 365.75586 L 341.41992 357.60547 L 349.46289 349.46289 L 357.52539 341.5 L 365.83398 333.49219 L 370.04688 329.5332 L 375.46484 323.03906 L 379.16797 315.43555 L 380.9375 307.16602 L 380.67188 298.71289 L 378.38672 290.57031 L 374.21484 283.21289 L 368.40039 277.07227 L 361.2832 272.50391 L 353.27734 269.77734 L 344.85156 269.05078 z M 1000 355 C 828.94497 355 664.87019 422.96185 543.91602 543.91602 C 422.96184 664.8702 355 828.94497 355 1000 C 355 1171.055 422.96184 1335.1298 543.91602 1456.084 C 664.87019 1577.0382 828.94497 1645 1000 1645 C 1171.055 1645 1335.1298 1577.0382 1456.084 1456.084 C 1577.0382 1335.1298 1645 1171.055 1645 1000 C 1645 828.94497 1577.0382 664.8702 1456.084 543.91602 C 1335.1298 422.96185 1171.055 355 1000 355 z M 1000 405 C 1157.8134 405 1309.1376 467.68055 1420.7285 579.27148 C 1532.3195 690.86242 1595 842.18658 1595 1000 C 1595 1157.8134 1532.3195 1309.1376 1420.7285 1420.7285 C 1309.1376 1532.3195 1157.8134 1595 1000 1595 C 842.18658 1595 690.86242 1532.3195 579.27148 1420.7285 C 467.68055 1309.1376 405 1157.8134 405 1000 C 405 842.18658 467.68055 690.86242 579.27148 579.27148 C 690.86242 467.68055 842.18658 405 1000 405 z M 1141.5508 573.44336 L 979.01758 1020 L 938 1020 L 938 1060 L 964.45703 1060 L 956.85938 1080.877 L 994.44727 1094.5586 L 1007.0254 1060 L 1338 1060 L 1338 1020 L 1021.584 1020 L 1179.1387 587.125 L 1141.5508 573.44336 z M 1946.9805 844.90625 L 1938.5977 846.0293 L 1930.7305 849.13281 L 1923.8379 854.03125 L 1918.3203 860.44141 L 1914.502 867.98633 L 1912.6035 876.22852 L 1912.7051 884.43164 L 1912.9863 886.58398 L 1914.3008 897.73242 L 1915.4941 909.04492 L 1916.5508 920.38086 L 1917.4668 931.75 L 1918.2324 942.98242 L 1918.8691 954.37891 L 1919.3633 965.79883 L 1919.7188 977.23242 L 1919.9297 988.68555 L 1919.998 1000.002 L 1919.9297 1011.3164 L 1919.7188 1022.7695 L 1919.3633 1034.209 L 1918.8691 1045.6289 L 1918.2324 1057.0273 L 1917.4668 1068.252 L 1916.5508 1079.6211 L 1915.4941 1090.957 L 1914.3008 1102.2695 L 1912.9863 1113.416 L 1911.5137 1124.6934 L 1909.9297 1135.7715 L 1908.1621 1147.1309 L 1906.3457 1157.9395 L 1906.332 1158.0176 L 1904.2852 1169.3398 L 1902.1562 1180.3242 L 1899.8984 1191.2812 L 1897.4473 1202.4688 L 1894.9219 1213.3574 L 1892.2734 1224.1719 L 1889.4473 1235.1328 L 1886.4883 1246.0566 L 1883.4375 1256.793 L 1880.2266 1267.5918 L 1876.916 1278.2461 L 1873.5059 1288.7715 L 1873.4766 1288.8574 L 1869.8613 1299.5684 L 1866.0996 1310.2793 L 1862.293 1320.7031 L 1858.2871 1331.2734 L 1854.209 1341.6523 L 1850.0059 1351.9805 L 1845.6211 1362.3887 L 1841.1055 1372.7461 L 1836.5254 1382.916 L 1832.3809 1391.8301 L 1829.7656 1399.8711 L 1829.1562 1408.3066 L 1830.5898 1416.6426 L 1833.9785 1424.3906 L 1839.1289 1431.0996 L 1845.7363 1436.377 L 1853.418 1439.916 L 1861.7227 1441.5078 L 1870.168 1441.0625 L 1878.2598 1438.6035 L 1885.5254 1434.2773 L 1891.543 1428.332 L 1895.8496 1421.3516 L 1900.0801 1412.2559 L 1900.1719 1412.0605 L 1900.2578 1411.8672 L 1905.041 1401.2461 L 1905.1289 1401.0527 L 1905.2148 1400.8555 L 1909.8672 1390.1797 L 1909.9531 1389.9844 L 1910.0352 1389.7871 L 1914.5586 1379.0547 L 1914.6406 1378.8574 L 1914.7227 1378.6602 L 1919.1133 1367.873 L 1919.1934 1367.6758 L 1919.2715 1367.4766 L 1923.5312 1356.6367 L 1923.6094 1356.4375 L 1923.6855 1356.2383 L 1927.8125 1345.3457 L 1927.8887 1345.1465 L 1927.9609 1344.9473 L 1931.9551 1334.0039 L 1932.0293 1333.8027 L 1932.0977 1333.6016 L 1935.959 1322.6094 L 1936.0293 1322.4082 L 1936.0977 1322.207 L 1939.8262 1311.166 L 1939.8945 1310.9629 L 1939.9609 1310.7598 L 1943.5547 1299.6738 L 1943.6191 1299.4707 L 1943.6836 1299.2656 L 1947.1426 1288.1328 L 1947.2031 1287.9277 L 1947.2656 1287.7246 L 1950.5898 1276.5469 L 1950.6504 1276.3418 L 1950.709 1276.1367 L 1953.8965 1264.9141 L 1953.9551 1264.709 L 1954.0137 1264.502 L 1957.0645 1253.2402 L 1957.1211 1253.0332 L 1957.1738 1252.8262 L 1960.0898 1241.5215 L 1960.1426 1241.3145 L 1960.1934 1241.1074 L 1962.9707 1229.7637 L 1963.0234 1229.5547 L 1963.0703 1229.3477 L 1965.7109 1217.9648 L 1965.7598 1217.7559 L 1965.8047 1217.5469 L 1968.3066 1206.127 L 1968.3535 1205.918 L 1968.3965 1205.709 L 1970.7578 1194.252 L 1970.8027 1194.043 L 1970.8438 1193.832 L 1973.0664 1182.3418 L 1973.1074 1182.1309 L 1973.1445 1181.9199 L 1975.2285 1170.3965 L 1975.2676 1170.1855 L 1975.3027 1169.9727 L 1977.2461 1158.418 L 1977.2832 1158.2051 L 1977.3145 1157.9922 L 1979.1172 1146.4062 L 1979.1504 1146.1934 L 1979.1816 1145.9805 L 1980.8438 1134.3633 L 1980.873 1134.1504 L 1980.9004 1133.9375 L 1982.4199 1122.291 L 1982.4473 1122.0781 L 1982.4727 1121.8633 L 1983.8496 1110.1914 L 1983.875 1109.9766 L 1983.8965 1109.7637 L 1985.1309 1098.0645 L 1985.1543 1097.8496 L 1985.1738 1097.6348 L 1986.2656 1085.9102 L 1986.2852 1085.6953 L 1986.3027 1085.4805 L 1987.25 1073.7324 L 1987.2695 1073.5156 L 1987.2832 1073.3008 L 1988.0879 1061.5312 L 1988.1016 1061.3145 L 1988.1133 1061.0977 L 1988.7715 1049.3066 L 1988.7832 1049.0898 L 1988.793 1048.875 L 1989.3066 1037.0625 L 1989.3164 1036.8457 L 1989.3262 1036.6289 L 1989.6934 1024.7988 L 1989.7051 1024.582 L 1989.7051 1024.3652 L 1989.9258 1012.5176 L 1989.9258 1012.2988 L 1989.9258 1012.082 L 1989.998 1000.2188 L 1989.9746 1000.0039 L 1989.998 999.7832 L 1989.9258 987.91797 L 1989.9258 987.70117 L 1989.9258 987.48438 L 1989.7051 975.63672 L 1989.7051 975.41992 L 1989.6934 975.20312 L 1989.3262 963.37305 L 1989.3164 963.15625 L 1989.3066 962.93945 L 1988.793 951.12695 L 1988.7832 950.91016 L 1988.7715 950.69531 L 1988.1133 938.90234 L 1988.1016 938.6875 L 1988.0879 938.4707 L 1987.2832 926.70117 L 1987.2695 926.48438 L 1987.25 926.26953 L 1986.3027 914.52148 L 1986.2852 914.30664 L 1986.2656 914.0918 L 1985.1738 902.36719 L 1985.1543 902.15234 L 1985.1309 901.9375 L 1983.8965 890.23828 L 1983.875 890.02539 L 1983.8496 889.81055 L 1982.4727 878.13672 L 1982.4473 877.92383 L 1982.4199 877.70898 L 1982.1152 875.375 L 1980.0176 867.18164 L 1976.0137 859.73242 L 1970.3398 853.46094 L 1963.3281 848.73242 L 1955.3867 845.82422 L 1946.9805 844.90625 z M 48.628906 1025.2129 L 40.193359 1025.8184 L 32.148438 1028.4297 L 24.966797 1032.8965 L 19.064453 1038.9531 L 14.789062 1046.25 L 12.386719 1054.3574 L 11.982422 1062.5527 L 12.716797 1073.3008 L 12.730469 1073.5156 L 12.748047 1073.7324 L 13.695312 1085.4805 L 13.712891 1085.6953 L 13.732422 1085.9102 L 14.824219 1097.6348 L 14.84375 1097.8496 L 14.867188 1098.0645 L 16.101562 1109.7637 L 16.123047 1109.9766 L 16.148438 1110.1914 L 17.525391 1121.8633 L 17.550781 1122.0781 L 17.580078 1122.291 L 19.099609 1133.9375 L 19.126953 1134.1504 L 19.15625 1134.3633 L 20.818359 1145.9805 L 20.849609 1146.1934 L 20.882812 1146.4062 L 22.685547 1157.9922 L 22.716797 1158.2051 L 22.753906 1158.418 L 24.697266 1169.9727 L 24.732422 1170.1855 L 24.771484 1170.3965 L 26.855469 1181.9199 L 26.892578 1182.1309 L 26.933594 1182.3418 L 29.15625 1193.832 L 29.197266 1194.043 L 29.242188 1194.252 L 31.603516 1205.709 L 31.646484 1205.918 L 31.693359 1206.127 L 34.195312 1217.5469 L 34.240234 1217.7559 L 34.289062 1217.9648 L 36.929688 1229.3477 L 36.976562 1229.5547 L 37.029297 1229.7637 L 39.806641 1241.1074 L 39.857422 1241.3145 L 39.910156 1241.5215 L 42.826172 1252.8262 L 42.878906 1253.0332 L 42.935547 1253.2402 L 45.986328 1264.502 L 46.042969 1264.709 L 46.101562 1264.9141 L 49.289062 1276.1367 L 49.347656 1276.3418 L 49.408203 1276.5469 L 52.732422 1287.7246 L 52.792969 1287.9277 L 52.855469 1288.1328 L 56.314453 1299.2656 L 56.378906 1299.4707 L 56.443359 1299.6738 L 60.037109 1310.7598 L 60.103516 1310.9629 L 60.171875 1311.166 L 63.900391 1322.207 L 63.96875 1322.4082 L 64.039062 1322.6094 L 67.900391 1333.6016 L 67.970703 1333.8027 L 68.044922 1334.0039 L 72.039062 1344.9473 L 72.111328 1345.1465 L 72.1875 1345.3457 L 76.314453 1356.2383 L 76.390625 1356.4375 L 76.46875 1356.6367 L 80.728516 1367.4766 L 80.806641 1367.6758 L 80.886719 1367.873 L 85.277344 1378.6602 L 85.359375 1378.8574 L 85.441406 1379.0547 L 89.964844 1389.7871 L 90.046875 1389.9844 L 90.132812 1390.1797 L 94.785156 1400.8555 L 94.871094 1401.0527 L 94.958984 1401.2461 L 99.742188 1411.8672 L 99.828125 1412.0605 L 99.919922 1412.2559 L 104.83203 1422.8164 L 104.92188 1423.0117 L 105.01367 1423.2031 L 110.05664 1433.707 L 110.14844 1433.8984 L 110.24414 1434.0898 L 115.41406 1444.5332 L 115.50977 1444.7246 L 115.60547 1444.9141 L 120.9043 1455.2949 L 121.00195 1455.4863 L 121.10156 1455.6738 L 126.52734 1465.9922 L 126.62695 1466.1816 L 126.72852 1466.3691 L 132.2832 1476.623 L 132.38477 1476.8125 L 132.48828 1476.998 L 132.64062 1477.2715 L 137.62109 1484.1074 L 144.0957 1489.5488 L 151.6875 1493.2773 L 159.95117 1495.0762 L 168.4043 1494.8418 L 176.55469 1492.5859 L 183.92578 1488.4414 L 190.08789 1482.6484 L 194.68164 1475.5469 L 197.4375 1467.5527 L 198.19531 1459.1289 L 196.91016 1450.7695 L 193.82422 1443.291 L 193.83398 1443.2871 L 193.78906 1443.2031 L 193.78125 1443.1855 L 193.70117 1443.041 L 188.38281 1433.2207 L 183.12109 1423.2148 L 178.04688 1413.2754 L 173.09766 1403.2754 L 168.23828 1393.1562 L 163.47266 1382.9141 L 158.89453 1372.7461 L 154.37891 1362.3887 L 149.99414 1351.9805 L 145.79102 1341.6523 L 141.71289 1331.2734 L 137.70703 1320.7031 L 133.90039 1310.2773 L 130.13867 1299.5684 L 126.52344 1288.8574 L 126.49414 1288.7715 L 123.08398 1278.2461 L 119.77344 1267.5918 L 116.5625 1256.793 L 113.51172 1246.0566 L 110.55273 1235.1328 L 107.72656 1224.1719 L 105.07812 1213.3574 L 102.55273 1202.4688 L 100.10156 1191.2812 L 97.84375 1180.3242 L 95.714844 1169.3398 L 93.667969 1158.0176 L 93.654297 1157.9395 L 91.837891 1147.1309 L 90.070312 1135.7715 L 88.486328 1124.6934 L 87.013672 1113.416 L 85.699219 1102.2695 L 84.505859 1090.957 L 83.449219 1079.6211 L 82.533203 1068.252 L 81.820312 1057.7871 L 80.230469 1049.4824 L 76.693359 1041.7988 L 71.416016 1035.1895 L 64.708984 1030.0391 L 56.962891 1026.6465 L 48.628906 1025.2129 z M 1609.7129 1700.8027 L 1601.293 1701.6016 L 1593.3105 1704.3945 L 1586.4258 1708.8574 L 1583.0449 1711.6621 L 1574.3008 1718.7383 L 1565.4004 1725.7617 L 1556.3223 1732.7422 L 1547.3438 1739.4746 L 1538.2109 1746.1484 L 1529.0762 1752.6523 L 1519.7656 1759.1133 L 1510.4141 1765.4297 L 1500.9531 1771.6562 L 1491.459 1777.7363 L 1481.9688 1783.6523 L 1472.2949 1789.5195 L 1462.6699 1795.1992 L 1452.9785 1800.7598 L 1443.1035 1806.2637 L 1433.2168 1811.6172 L 1423.2734 1816.8496 L 1413.2754 1821.9512 L 1403.0859 1826.9961 L 1403.0273 1827.0254 L 1393.0293 1831.8223 L 1382.9746 1836.498 L 1372.6699 1841.1406 L 1362.3887 1845.6211 L 1352.1133 1849.9512 L 1341.6484 1854.209 L 1331.1328 1858.3418 L 1320.707 1862.293 L 1310.2305 1866.1152 L 1299.5664 1869.8633 L 1289.0449 1873.416 L 1278.2891 1876.9023 L 1267.6348 1880.2129 L 1256.791 1883.4375 L 1245.9082 1886.5293 L 1235.1719 1889.4375 L 1228.8398 1891.0703 L 1220.9668 1894.1562 L 1214.0625 1899.041 L 1208.5312 1905.4375 L 1204.6973 1912.9746 L 1202.7812 1921.2129 L 1202.8984 1929.6699 L 1205.0391 1937.8516 L 1209.0801 1945.2793 L 1214.7871 1951.5215 L 1221.8223 1956.2148 L 1229.7793 1959.082 L 1238.1914 1959.957 L 1246.3203 1958.8535 L 1252.8262 1957.1758 L 1253.0332 1957.1191 L 1253.2383 1957.0645 L 1264.502 1954.0117 L 1264.709 1953.957 L 1264.9141 1953.8984 L 1276.1348 1950.7109 L 1276.3398 1950.6523 L 1276.5449 1950.5898 L 1287.7227 1947.2676 L 1287.9277 1947.207 L 1288.1328 1947.1426 L 1299.2656 1943.6836 L 1299.4688 1943.6211 L 1299.6719 1943.5547 L 1310.7598 1939.9609 L 1310.9629 1939.8945 L 1311.1641 1939.8262 L 1322.2051 1936.0996 L 1322.4082 1936.0312 L 1322.6094 1935.9609 L 1333.6016 1932.0977 L 1333.8027 1932.0273 L 1334.0039 1931.9551 L 1344.9453 1927.959 L 1345.1465 1927.8867 L 1345.3457 1927.8105 L 1356.2383 1923.6836 L 1356.4375 1923.6074 L 1356.6367 1923.5293 L 1367.4766 1919.2695 L 1367.6738 1919.1934 L 1367.873 1919.1113 L 1378.6602 1914.7207 L 1378.8574 1914.6406 L 1379.0527 1914.5566 L 1389.7871 1910.0352 L 1389.9824 1909.9512 L 1390.1777 1909.8672 L 1400.8555 1905.2129 L 1401.0508 1905.1289 L 1401.2461 1905.041 L 1411.8652 1900.2578 L 1412.0605 1900.1699 L 1412.2539 1900.0801 L 1422.8164 1895.166 L 1423.0098 1895.0762 L 1423.2031 1894.9844 L 1433.7051 1889.9434 L 1433.8984 1889.8496 L 1434.0898 1889.7559 L 1444.5312 1884.584 L 1444.7227 1884.4902 L 1444.9141 1884.3926 L 1455.2949 1879.0938 L 1455.4844 1878.9961 L 1455.6738 1878.8965 L 1465.9922 1873.4707 L 1466.1816 1873.3711 L 1466.3691 1873.2695 L 1476.623 1867.7168 L 1476.8105 1867.6133 L 1476.998 1867.5098 L 1487.1855 1861.8301 L 1487.373 1861.7266 L 1487.5586 1861.6191 L 1497.6797 1855.8125 L 1497.8652 1855.707 L 1498.0508 1855.5977 L 1508.1055 1849.666 L 1508.2891 1849.5566 L 1508.4727 1849.4453 L 1518.457 1843.3887 L 1518.6406 1843.2773 L 1518.8223 1843.1641 L 1528.7363 1836.9824 L 1528.918 1836.8691 L 1529.0996 1836.7539 L 1538.9434 1830.4492 L 1539.123 1830.332 L 1539.3027 1830.2148 L 1549.0742 1823.7852 L 1549.252 1823.668 L 1549.4297 1823.5469 L 1559.127 1816.9961 L 1559.3047 1816.875 L 1559.4805 1816.7539 L 1569.1035 1810.0781 L 1569.2793 1809.9551 L 1569.4551 1809.8301 L 1579 1803.0332 L 1579.1758 1802.9102 L 1579.3496 1802.7832 L 1588.8164 1795.8633 L 1588.9902 1795.7363 L 1589.1621 1795.6074 L 1598.5527 1788.5684 L 1598.7246 1788.4395 L 1598.8945 1788.3086 L 1608.2031 1781.1484 L 1608.375 1781.0176 L 1608.543 1780.8828 L 1617.7715 1773.6035 L 1617.9414 1773.4688 L 1618.1074 1773.334 L 1627.2539 1765.9336 L 1627.4219 1765.7988 L 1627.5879 1765.6602 L 1631.125 1762.7266 L 1636.9336 1756.5801 L 1641.0977 1749.2188 L 1643.375 1741.0742 L 1643.6309 1732.6211 L 1641.8535 1724.3535 L 1638.1445 1716.752 L 1632.7207 1710.2637 L 1625.8984 1705.2656 L 1618.0781 1702.0488 L 1609.7129 1700.8027 z M 435.44727 1737.8516 L 427.18945 1739.668 L 419.60742 1743.4141 L 413.14453 1748.8711 L 408.17969 1755.7168 L 405.00195 1763.5547 L 403.79688 1771.9258 L 404.63477 1780.3398 L 407.4668 1788.3086 L 412.12891 1795.3652 L 418.13867 1800.9492 L 420.65039 1802.7852 L 420.82422 1802.9121 L 421 1803.0352 L 430.54492 1809.832 L 430.7207 1809.957 L 430.89648 1810.0801 L 440.51953 1816.7559 L 440.69531 1816.877 L 440.87305 1816.998 L 450.57031 1823.5488 L 450.74805 1823.6699 L 450.92578 1823.7871 L 460.69727 1830.2168 L 460.87695 1830.334 L 461.05664 1830.4512 L 470.90039 1836.7559 L 471.08203 1836.8711 L 471.26367 1836.9844 L 481.17773 1843.166 L 481.35938 1843.2793 L 481.54297 1843.3906 L 491.52734 1849.4473 L 491.71094 1849.5586 L 491.89453 1849.668 L 501.94922 1855.5996 L 502.13477 1855.709 L 502.32031 1855.8145 L 512.44141 1861.6211 L 512.62695 1861.7285 L 512.81445 1861.832 L 523.00195 1867.5117 L 523.18945 1867.6152 L 523.37695 1867.7188 L 533.63086 1873.2715 L 533.81836 1873.373 L 534.00781 1873.4727 L 544.32617 1878.8984 L 544.51562 1878.998 L 544.70508 1879.0957 L 555.08594 1884.3945 L 555.27734 1884.4922 L 555.46875 1884.5859 L 565.91016 1889.7578 L 566.10156 1889.8516 L 566.29492 1889.9453 L 576.79688 1894.9863 L 576.99023 1895.0781 L 577.18359 1895.168 L 587.74609 1900.082 L 587.93945 1900.1719 L 588.13477 1900.2598 L 598.75391 1905.043 L 598.94922 1905.1309 L 599.14453 1905.2148 L 609.82227 1909.8691 L 610.01758 1909.9531 L 610.21289 1910.0371 L 620.94727 1914.5586 L 621.14258 1914.6426 L 621.33984 1914.7227 L 632.12695 1919.1133 L 632.32617 1919.1953 L 632.52344 1919.2715 L 643.36328 1923.5312 L 643.5625 1923.6094 L 643.76172 1923.6855 L 654.6543 1927.8125 L 654.85352 1927.8887 L 655.05469 1927.9609 L 665.99609 1931.957 L 666.19727 1932.0293 L 666.39844 1932.0996 L 677.39062 1935.9629 L 677.5918 1936.0332 L 677.79492 1936.1016 L 688.83594 1939.8281 L 689.03711 1939.8965 L 689.24023 1939.9629 L 700.32812 1943.5566 L 700.53125 1943.623 L 700.73438 1943.6855 L 711.86719 1947.1445 L 712.07227 1947.209 L 712.27734 1947.2695 L 723.45508 1950.5918 L 723.66016 1950.6523 L 723.86523 1950.7129 L 735.08594 1953.9004 L 735.29102 1953.959 L 735.49805 1954.0137 L 746.76172 1957.0664 L 746.9668 1957.1211 L 747.17383 1957.1758 L 758.47852 1960.0898 L 758.68555 1960.1445 L 758.89453 1960.1973 L 770.23828 1962.9746 L 770.44531 1963.0254 L 770.6543 1963.0742 L 782.03711 1965.7129 L 782.24414 1965.7617 L 782.45508 1965.8086 L 793.87305 1968.3086 L 794.08203 1968.3555 L 794.29297 1968.3984 L 805.74805 1970.7617 L 805.95898 1970.8047 L 806.16797 1970.8457 L 814.51758 1972.4609 L 822.95312 1973.0527 L 831.28516 1971.6035 L 839.02734 1968.1992 L 845.72656 1963.0371 L 850.99023 1956.418 L 854.51367 1948.7305 L 856.08984 1940.4219 L 855.62891 1931.9766 L 853.1543 1923.8906 L 848.8125 1916.6328 L 842.85547 1910.6289 L 835.63281 1906.2285 L 827.81836 1903.7363 L 819.67383 1902.1602 L 808.60156 1899.877 L 797.68359 1897.4844 L 786.64648 1894.9238 L 775.64648 1892.2305 L 764.83008 1889.4395 L 754.0918 1886.5312 L 743.20898 1883.4395 L 732.36523 1880.2148 L 721.71094 1876.9043 L 710.95508 1873.418 L 700.43359 1869.8652 L 689.76953 1866.1172 L 679.29297 1862.2949 L 668.86719 1858.3438 L 658.35156 1854.2109 L 647.88672 1849.9531 L 637.61133 1845.623 L 627.33008 1841.1426 L 617.02539 1836.5 L 606.9707 1831.8242 L 596.97266 1827.0273 L 596.91406 1826.998 L 586.72461 1821.9531 L 576.72656 1816.8516 L 566.7832 1811.6191 L 556.89648 1806.2656 L 547.02148 1800.7617 L 537.33008 1795.2012 L 527.70508 1789.5215 L 518.03125 1783.6543 L 508.54102 1777.7383 L 499.04688 1771.6582 L 489.58594 1765.4316 L 480.23438 1759.1152 L 470.92383 1752.6543 L 461.79297 1746.1523 L 459.43945 1744.4316 L 452.05859 1740.3047 L 443.90234 1738.0664 L 435.44727 1737.8516 z "
       transform="translate(0,-947.63784)"
       id="path4136" />
  </g>
</svg>
