<?xml version="1.0" encoding="UTF-8" standalone="no"?>
<!-- Created with Inkscape (http://www.inkscape.org/) -->

<svg
   xmlns:dc="http://purl.org/dc/elements/1.1/"
   xmlns:cc="http://creativecommons.org/ns#"
   xmlns:rdf="http://www.w3.org/1999/02/22-rdf-syntax-ns#"
   xmlns:svg="http://www.w3.org/2000/svg"
   xmlns="http://www.w3.org/2000/svg"
   xmlns:sodipodi="http://sodipodi.sourceforge.net/DTD/sodipodi-0.dtd"
   xmlns:inkscape="http://www.inkscape.org/namespaces/inkscape"
   width="2000"
   height="2000"
   viewBox="0 0 2000 2000"
   id="svg2"
   version="1.1"
   inkscape:version="0.91 r13725"
   sodipodi:docname="02-message-start-event.svg">
  <defs
     id="defs4" />
  <sodipodi:namedview
     id="base"
     pagecolor="#ffffff"
     bordercolor="#666666"
     borderopacity="1.0"
     inkscape:pageopacity="0.0"
     inkscape:pageshadow="2"
     inkscape:zoom="0.4345"
     inkscape:cx="1212.2512"
     inkscape:cy="1000"
     inkscape:document-units="px"
     inkscape:current-layer="layer1"
     showgrid="true"
     units="px"
     showguides="false"
     inkscape:window-width="1878"
     inkscape:window-height="1035"
     inkscape:window-x="42"
     inkscape:window-y="0"
     inkscape:window-maximized="0">
    <inkscape:grid
       type="xygrid"
       id="grid4008"
       empspacing="20"
       dotted="false" />
  </sodipodi:namedview>
  <metadata
     id="metadata7">
    <rdf:RDF>
      <cc:Work
         rdf:about="">
        <dc:format>image/svg+xml</dc:format>
        <dc:type
           rdf:resource="http://purl.org/dc/dcmitype/StillImage" />
        <dc:title />
        <cc:license
           rdf:resource="https://github.com/bpmn-io/bpmn-font/blob/master/LICENSE" />
        <dc:creator>
          <cc:Agent>
            <dc:title>Jörg Dotzki</dc:title>
          </cc:Agent>
        </dc:creator>
        <dc:subject>
          <rdf:Bag>
            <rdf:li>BPMN</rdf:li>
            <rdf:li>bpmn-io</rdf:li>
            <rdf:li>bpmn.io</rdf:li>
            <rdf:li>Font</rdf:li>
          </rdf:Bag>
        </dc:subject>
      </cc:Work>
    </rdf:RDF>
  </metadata>
  <g
     inkscape:label="Ebene 1"
     inkscape:groupmode="layer"
     id="layer1"
     transform="translate(0,947.63784)">
    <path
       style="color:#000000;font-style:normal;font-variant:normal;font-weight:normal;font-stretch:normal;font-size:medium;line-height:normal;font-family:sans-serif;text-indent:0;text-align:start;text-decoration:none;text-decoration-line:none;text-decoration-style:solid;text-decoration-color:#000000;letter-spacing:normal;word-spacing:normal;text-transform:none;direction:ltr;block-progression:tb;writing-mode:lr-tb;baseline-shift:baseline;text-anchor:start;white-space:normal;clip-rule:nonzero;display:inline;overflow:visible;visibility:visible;opacity:1;isolation:auto;mix-blend-mode:normal;color-interpolation:sRGB;color-interpolation-filters:linearRGB;solid-color:#000000;solid-opacity:1;fill:#000000;fill-opacity:1;fill-rule:nonzero;stroke:none;stroke-width:70;stroke-linecap:round;stroke-linejoin:miter;stroke-miterlimit:4;stroke-dasharray:none;stroke-dashoffset:0;stroke-opacity:1;color-rendering:auto;image-rendering:auto;shape-rendering:auto;text-rendering:auto;enable-background:accumulate"
       d="m 1000,-937.63867 c -262.55088,0 -514.38365,104.31334 -700.03516,289.96484 C 114.31334,-462.02232 10,-210.18955 10,52.361328 10,314.91221 114.31334,566.74693 299.96484,752.39844 485.61635,938.04994 737.44912,1042.3613 1000,1042.3613 c 262.5509,0 514.3836,-104.31136 700.0352,-289.96286 C 1885.6867,566.74693 1990,314.91221 1990,52.361328 1990,-210.18955 1885.6867,-462.02232 1700.0352,-647.67383 1514.3836,-833.32533 1262.5509,-937.63867 1000,-937.63867 Z m 0,70 c 244.0126,0 477.9961,96.91991 650.5391,269.46289 C 1823.082,-425.6328 1920,-191.65129 1920,52.361328 1920,296.37395 1823.082,530.35741 1650.5391,702.90039 1477.9961,875.44337 1244.0126,972.36133 1000,972.36133 755.98738,972.36133 522.00391,875.44337 349.46094,702.90039 176.91796,530.35741 80,296.37395 80,52.361328 80,-191.65129 176.91796,-425.6328 349.46094,-598.17578 522.00391,-770.71876 755.98738,-867.63867 1000,-867.63867 Z"
       id="path4136"
       inkscape:connector-curvature="0" />
    <path
       style="color:#000000;font-style:normal;font-variant:normal;font-weight:normal;font-stretch:normal;font-size:medium;line-height:normal;font-family:sans-serif;text-indent:0;text-align:start;text-decoration:none;text-decoration-line:none;text-decoration-style:solid;text-decoration-color:#000000;letter-spacing:normal;word-spacing:normal;text-transform:none;direction:ltr;block-progression:tb;writing-mode:lr-tb;baseline-shift:baseline;text-anchor:start;white-space:normal;clip-rule:nonzero;display:inline;overflow:visible;visibility:visible;opacity:1;isolation:auto;mix-blend-mode:normal;color-interpolation:sRGB;color-interpolation-filters:linearRGB;solid-color:#000000;solid-opacity:1;fill:#000000;fill-opacity:1;fill-rule:nonzero;stroke:none;stroke-width:60;stroke-linecap:square;stroke-linejoin:round;stroke-miterlimit:4;stroke-dasharray:none;stroke-dashoffset:0;stroke-opacity:1;color-rendering:auto;image-rendering:auto;shape-rendering:auto;text-rendering:auto;enable-background:accumulate"
       d="m 480,-298.73438 c -0.17392,0.01 -0.34775,0.0206 -0.52148,0.0332 -16.35094,0.28586 -29.46129,13.61337 -29.47852,29.9668 l 0,642.19336 c 0.002,16.56786 13.43214,29.99834 30,30 l 1040,0 c 16.5679,-0.002 29.9983,-13.43214 30,-30 l 0,-642.19336 c -0.021,-16.17051 -12.8538,-29.4151 -29.0156,-29.94726 -0.1952,-0.0169 -0.3905,-0.0318 -0.586,-0.0449 -0.1328,-0.004 -0.2656,-0.006 -0.3984,-0.008 l -887.08861,0 -152.91139,0 z m 128.46289,60 783.07421,0 L 1000,-45.318359 Z M 510,-220.45508 986.71289,15.039062 c 8.3751,4.136767 18.19911,4.136767 26.57421,0 L 1490,-220.45508 l 0,563.91406 -980,0 z"
       id="rect4136"
       inkscape:connector-curvature="0"
       sodipodi:nodetypes="ccccccccccccccccccccccccc" />
    <g
       id="layer1-4"
       inkscape:label="Ebene 1"
       transform="matrix(0.74578466,0,0,0.64639115,254.21534,18.51572)" />
  </g>
</svg>
