<?xml version="1.0" encoding="UTF-8" standalone="no"?>
<!-- Created with Inkscape (http://www.inkscape.org/) -->

<svg
   xmlns:dc="http://purl.org/dc/elements/1.1/"
   xmlns:cc="http://creativecommons.org/ns#"
   xmlns:rdf="http://www.w3.org/1999/02/22-rdf-syntax-ns#"
   xmlns:svg="http://www.w3.org/2000/svg"
   xmlns="http://www.w3.org/2000/svg"
   xmlns:sodipodi="http://sodipodi.sourceforge.net/DTD/sodipodi-0.dtd"
   xmlns:inkscape="http://www.inkscape.org/namespaces/inkscape"
   width="2000"
   height="2000"
   viewBox="0 0 2000 2000"
   id="svg2"
   version="1.1"
   inkscape:version="0.91 r13725"
   sodipodi:docname="11-multiple-start.svg">
  <defs
     id="defs4" />
  <sodipodi:namedview
     id="base"
     pagecolor="#ffffff"
     bordercolor="#666666"
     borderopacity="1.0"
     inkscape:pageopacity="0.0"
     inkscape:pageshadow="2"
     inkscape:zoom="0.4345"
     inkscape:cx="164.55696"
     inkscape:cy="1000"
     inkscape:document-units="px"
     inkscape:current-layer="layer1"
     showgrid="true"
     units="px"
     showguides="false"
     inkscape:window-width="1878"
     inkscape:window-height="1035"
     inkscape:window-x="42"
     inkscape:window-y="0"
     inkscape:window-maximized="0">
    <inkscape:grid
       type="xygrid"
       id="grid4008"
       empspacing="20"
       dotted="false" />
  </sodipodi:namedview>
  <metadata
     id="metadata7">
    <rdf:RDF>
      <cc:Work
         rdf:about="">
        <dc:format>image/svg+xml</dc:format>
        <dc:type
           rdf:resource="http://purl.org/dc/dcmitype/StillImage" />
        <dc:title />
        <cc:license
           rdf:resource="https://github.com/bpmn-io/bpmn-font/blob/master/LICENSE" />
        <dc:creator>
          <cc:Agent>
            <dc:title>Jörg Dotzki</dc:title>
          </cc:Agent>
        </dc:creator>
        <dc:subject>
          <rdf:Bag>
            <rdf:li>BPMN</rdf:li>
            <rdf:li>bpmn-io</rdf:li>
            <rdf:li>bpmn.io</rdf:li>
            <rdf:li>Font</rdf:li>
          </rdf:Bag>
        </dc:subject>
      </cc:Work>
    </rdf:RDF>
  </metadata>
  <g
     inkscape:label="Ebene 1"
     inkscape:groupmode="layer"
     id="layer1"
     transform="translate(0,947.63784)">
    <path
       style="color:#000000;font-style:normal;font-variant:normal;font-weight:normal;font-stretch:normal;font-size:medium;line-height:normal;font-family:sans-serif;text-indent:0;text-align:start;text-decoration:none;text-decoration-line:none;text-decoration-style:solid;text-decoration-color:#000000;letter-spacing:normal;word-spacing:normal;text-transform:none;direction:ltr;block-progression:tb;writing-mode:lr-tb;baseline-shift:baseline;text-anchor:start;white-space:normal;clip-rule:nonzero;display:inline;overflow:visible;visibility:visible;opacity:1;isolation:auto;mix-blend-mode:normal;color-interpolation:sRGB;color-interpolation-filters:linearRGB;solid-color:#000000;solid-opacity:1;fill:#000000;fill-opacity:1;fill-rule:nonzero;stroke:none;stroke-width:11.30854797;stroke-linecap:round;stroke-linejoin:miter;stroke-miterlimit:4;stroke-dasharray:none;stroke-dashoffset:0;stroke-opacity:1;color-rendering:auto;image-rendering:auto;shape-rendering:auto;text-rendering:auto;enable-background:accumulate"
       d="M 1000 10 C 737.43953 10 485.62313 114.30656 299.96484 299.96484 C 114.30656 485.62313 10 737.43953 10 1000 C 10 1262.5605 114.30656 1514.3788 299.96484 1700.0371 C 485.62313 1885.6954 737.43953 1990 1000 1990 C 1262.5605 1990 1514.3769 1885.6954 1700.0352 1700.0371 C 1885.6934 1514.3788 1990 1262.5605 1990 1000 C 1990 737.43953 1885.6934 485.62313 1700.0352 299.96484 C 1514.3769 114.30656 1262.5605 10 1000 10 z M 1000 30 C 1257.2638 30 1503.9796 132.19443 1685.8926 314.10742 C 1867.8056 496.02041 1970 742.73618 1970 1000 C 1970 1257.2638 1867.8056 1503.9815 1685.8926 1685.8945 C 1503.9796 1867.8075 1257.2638 1970 1000 1970 C 742.73618 1970 496.02041 1867.8075 314.10742 1685.8945 C 132.19443 1503.9815 30 1257.2638 30 1000 C 30 742.73618 132.19443 496.02041 314.10742 314.10742 C 496.02041 132.19443 742.73618 30 1000 30 z M 1000.002 476.91992 L 994.12305 481.18945 L 450 876.51758 L 660.08203 1523.0801 L 1339.9199 1523.0801 L 1550 876.51758 L 1000.002 476.91992 z M 999.99805 501.63867 L 1526.4863 884.1543 L 1325.3887 1503.0801 L 674.61133 1503.0801 L 473.51172 884.1543 L 999.99805 501.63867 z "
       transform="translate(0,-947.63784)"
       id="path4140" />
  </g>
</svg>
