<?xml version="1.0" encoding="UTF-8" standalone="no"?>
<svg
   xmlns:dc="http://purl.org/dc/elements/1.1/"
   xmlns:cc="http://creativecommons.org/ns#"
   xmlns:rdf="http://www.w3.org/1999/02/22-rdf-syntax-ns#"
   xmlns:svg="http://www.w3.org/2000/svg"
   xmlns="http://www.w3.org/2000/svg"
   width="2048"
   height="2048"
   id="svg3891"
   version="1.1">
  <defs
     id="defs3893" />
  <metadata
     id="metadata3896">
    <rdf:RDF>
      <cc:Work
         rdf:about="">
        <dc:format>image/svg+xml</dc:format>
        <dc:type
           rdf:resource="http://purl.org/dc/dcmitype/StillImage" />
        <dc:title></dc:title>
      </cc:Work>
    </rdf:RDF>
  </metadata>
  <g
     id="layer1"
     transform="translate(0,995.63783)" />
  <path
     id="rect4228"
     d="m 534.60547,370.92383 100,0 0,-100 -100,0 z m 200,0 100,0 0,-100 -100,0 z m 200,0 100.00003,0 0,-100 -100.00003,0 z m 200.00003,0 100,0 0,-100 -100,0 z m 200,0 100,0 0,-100 -100,0 z m 200,0 c 30.9735,0.73423 62.1811,-1.93701 92.9648,2.50392 4.5938,-33.01562 9.1875,-66.03125 13.7813,-99.04687 -35.3263,-5.41763 -71.1731,-2.86375 -106.7461,-3.45728 z M 446.72852,271.01953 c -17.24598,0.40579 -34.46298,2.12988 -51.43946,5.1974 6.27169,32.7374 12.70103,65.44679 17.75586,98.40039 20.07986,-5.7101 53.18251,5.51685 41.89436,-27.15633 -5.38756,-21.4813 9.22404,-67.92281 -8.21076,-76.44146 z M 1704.3965,399.22656 c 24.0173,13.14915 45.6039,30.72449 63.4748,51.43932 23.5957,-22.4544 56.3567,-43.67316 74.8164,-66.35352 -25.3149,-29.13419 -55.766,-53.80996 -89.582,-72.42383 z M 283.79688,318.2832 c -32.93135,19.8889 -62.36335,45.57565 -86.44727,75.58008 26.38187,18.71693 53.94179,48.31451 79.62305,60.56055 16.81392,-20.37527 37.14259,-37.85838 59.87109,-51.33008 -18.43496,-27.72397 -30.88513,-59.32653 -53.04687,-84.81055 z M 1839.959,510.24805 c -31.619,2.58968 -31.3004,19.24621 -21.2402,44.04687 8.6856,14.02587 -5.4623,48.4738 14.0601,47.75781 29.5179,-1.27323 64.0626,2.48034 90.6156,-1.75781 -0.058,-38.78123 -6.8926,-77.56207 -20.3279,-113.95117 -21.0359,7.9681 -42.0717,15.9362 -63.1076,23.9043 z M 139.57812,502.09961 c -11.07216,35.1545 -15.73617,72.14887 -14.97282,108.95508 l 100,0 c -0.70755,-28.09702 2.69513,-56.42183 11.71291,-83.11133 l -95.14844,-30.76563 -1.44375,4.46454 z m 1683.81638,299.95312 100,0 0,-100 -100,0 z m -1698.78903,9.00196 100,0 0,-100 -100,0 z m 1698.78903,190.99801 100,0 0,-99.99997 -100,0 z m -1698.78903,9.002 100,0 0,-100.00001 -100,0 z m 1698.78903,190.998 100,0 0,-100 -100,0 z m -1698.78903,9.002 100,0 0,-100 -100,0 z m 1698.78903,190.998 100,0 0,-100 -100,0 z m -1698.78903,9.002 100,0 0,-100 -100,0 z m 1694.11333,82.6484 c -5.3357,26.1874 -15.2863,51.4355 -29.3321,74.1758 28.4113,15.8819 58.7748,40.1796 86.0215,51.041 20.1598,-33.1028 34.4193,-69.7977 41.8027,-107.8496 -32.3903,-5.2434 -67.9565,-14.8144 -98.4921,-17.3672 z m -1685.54107,28.6133 c 8.81234,38.0444 24.46981,74.5007 46.0625,107.043 l 83.57227,-54.9141 c -15.31071,-22.9882 -26.3245,-48.8039 -32.46094,-75.7285 -32.39128,7.8665 -64.78255,15.7331 -97.17383,23.5996 z m 1598.01757,109.2207 c -20.8815,15.6033 -44.4457,27.5962 -69.3515,35.291 l 30.7656,95.1504 c 37.2365,-11.6459 72.3615,-30.0069 103.1699,-53.9453 -20.2669,-26.4642 -40.5339,-52.9284 -60.8008,-79.3926 l -3.7256,2.8524 -0.058,0.044 z m -1470.81249,82.6191 c 31.87265,23.2283 67.98936,40.6242 106.02539,51.0508 7.85362,-32.004 19.31386,-66.0856 24.98438,-96.832 -25.85581,-7.3206 -50.41734,-19.2193 -72.13477,-35.0508 z m 218.11914,62.92 100,0 0,-100 -100,0 z m 199.52051,0 100.47949,0 0,-100 -100.47949,0 z m 200.47949,0 100,0 0,-100 -100,0 z m 200.00005,0 100,0 0,-100 -100,0 z m 194,0 97.9775,0 0,-100 -97.9775,0 z m 206,0 100,0 0,-100 -100,0 z m -108.0225,-30.6407 0,-701.2109 -692.45704,0 0,701.2109 z m -629.46778,-637.7226 565.97658,0 0,565.7226 -565.97658,0 z m 75.11328,224.7285 0,96.207 415.748,0 0,-96.207 z"
     style="color:#000000;font-style:normal;font-variant:normal;font-weight:normal;font-stretch:normal;font-size:medium;line-height:normal;font-family:sans-serif;text-indent:0;text-align:start;text-decoration:none;text-decoration-line:none;text-decoration-style:solid;text-decoration-color:#000000;letter-spacing:normal;word-spacing:normal;text-transform:none;direction:ltr;block-progression:tb;writing-mode:lr-tb;baseline-shift:baseline;text-anchor:start;white-space:normal;clip-rule:nonzero;display:inline;overflow:visible;visibility:visible;opacity:0.97000002;isolation:auto;mix-blend-mode:normal;color-interpolation:sRGB;color-interpolation-filters:linearRGB;solid-color:#000000;solid-opacity:1;fill:#000000;fill-opacity:1;fill-rule:nonzero;stroke:none;stroke-width:100;stroke-linecap:butt;stroke-linejoin:miter;stroke-miterlimit:4;stroke-dasharray:100, 100;stroke-dashoffset:320;stroke-opacity:1;color-rendering:auto;image-rendering:auto;shape-rendering:auto;text-rendering:auto;enable-background:accumulate" />
</svg>
