<?xml version="1.0" encoding="UTF-8" standalone="no"?>
<!-- Created with Inkscape (http://www.inkscape.org/) -->

<svg
   xmlns:dc="http://purl.org/dc/elements/1.1/"
   xmlns:cc="http://creativecommons.org/ns#"
   xmlns:rdf="http://www.w3.org/1999/02/22-rdf-syntax-ns#"
   xmlns:svg="http://www.w3.org/2000/svg"
   xmlns="http://www.w3.org/2000/svg"
   xmlns:sodipodi="http://sodipodi.sourceforge.net/DTD/sodipodi-0.dtd"
   xmlns:inkscape="http://www.inkscape.org/namespaces/inkscape"
   width="2048"
   height="2048"
   id="svg3891"
   version="1.1"
   inkscape:version="0.48.5 r10040"
   sodipodi:docname="subprocess-collapsed.svg"
   inkscape:export-filename="/home/nikku/camunda/projects/bpmn.io/bpmn-font/raw/subprocess-collapsed.png"
   inkscape:export-xdpi="0.88"
   inkscape:export-ydpi="0.88">
  <defs
     id="defs3893">
    <inkscape:path-effect
       effect="spiro"
       id="path-effect3840"
       is_visible="true" />
    <inkscape:path-effect
       effect="spiro"
       id="path-effect3836"
       is_visible="true" />
    <inkscape:path-effect
       effect="spiro"
       id="path-effect3836-9"
       is_visible="true" />
  </defs>
  <sodipodi:namedview
     id="base"
     pagecolor="#ffffff"
     bordercolor="#666666"
     borderopacity="1.0"
     inkscape:pageopacity="0.0"
     inkscape:pageshadow="2"
     inkscape:zoom="0.24748737"
     inkscape:cx="74.244605"
     inkscape:cy="1102.5018"
     inkscape:document-units="px"
     inkscape:current-layer="layer1"
     showgrid="false"
     inkscape:window-width="956"
     inkscape:window-height="1041"
     inkscape:window-x="2560"
     inkscape:window-y="37"
     inkscape:window-maximized="0" />
  <metadata
     id="metadata3896">
    <rdf:RDF>
      <cc:Work
         rdf:about="">
        <dc:format>image/svg+xml</dc:format>
        <dc:type
           rdf:resource="http://purl.org/dc/dcmitype/StillImage" />
        <dc:title />
      </cc:Work>
    </rdf:RDF>
  </metadata>
  <g
     inkscape:label="Layer 1"
     inkscape:groupmode="layer"
     id="layer1"
     transform="translate(0,995.63783)">
    <path
       inkscape:connector-curvature="0"
       d="m 1607.039,-746.63783 c -8.5667,0.01 -17.1585,0 -25.7754,1.15838 l -1138.27088,0 0,0 C 251.2322,-750.5956 82.195088,-571.59787 98.799734,-380.50478 c 0.299502,286.388643 -0.586449,572.7966 0.468094,859.17559 5.445752,187.91721 187.109012,340.66812 372.652102,323.35043 383.65828,0 767.32237,0.96531 1150.97137,0 185.2041,-4.73002 339.493,-180.83182 323.6599,-364.50166 -0.2898,-286.38865 0.599,-572.80625 -0.4348,-859.18526 -4.4761,-176.36242 -164.8807,-324.68255 -339.0753,-324.49914 z m -425.1392,151.4574 c 147.7787,-0.01 295.5466,0 443.3006,1.06184 108.3578,6.27453 183.1513,114.55353 170.3802,217.99632 -0.628,285.539174 1.2889,571.13627 -0.9371,856.62718 -6.2761,108.26934 -114.6581,183.03273 -218.1866,170.27131 -384.4263,-0.96531 -768.93355,1.25491 -1153.31172,-0.96531 -108.40493,-6.37106 -186.38221,-113.49169 -173.37592,-217.99632 0.65505,-285.53918 -1.33722,-571.16523 0.9674,-856.65614 7.60082,-96.43463 96.50289,-172.36603 192.25503,-170.2327 246.28697,0.96531 492.60936,-0.0386 738.90711,-0.0676 z"
       style="font-size:medium;font-style:normal;font-variant:normal;font-weight:normal;font-stretch:normal;text-indent:0;text-align:start;text-decoration:none;line-height:normal;letter-spacing:normal;word-spacing:normal;text-transform:none;direction:ltr;block-progression:tb;writing-mode:lr-tb;text-anchor:start;baseline-shift:baseline;color:#000000;fill:#000000;fill-opacity:1;stroke:none;stroke-width:1.55755734;marker:none;visibility:visible;display:inline;overflow:visible;enable-background:accumulate;font-family:Sans;-inkscape-font-specification:Sans"
       id="rect3804" />
    <g
       id="g4058"
       transform="matrix(0.67273205,0,0,0.67273205,335.73722,208.44263)">
      <rect
         style="fill:none;stroke:#000000;stroke-width:94.35056305;stroke-opacity:1"
         id="rect3830"
         width="935.64941"
         height="935.64948"
         x="555.26135"
         y="-235.90582" />
      <path
         style="font-size:medium;font-style:normal;font-variant:normal;font-weight:normal;font-stretch:normal;text-indent:0;text-align:start;text-decoration:none;line-height:normal;letter-spacing:normal;word-spacing:normal;text-transform:none;direction:ltr;block-progression:tb;writing-mode:lr-tb;text-anchor:start;baseline-shift:baseline;color:#000000;fill:#000000;fill-opacity:1;stroke:none;stroke-width:1.76939881;marker:none;visibility:visible;display:inline;overflow:visible;enable-background:accumulate;font-family:Sans;-inkscape-font-specification:Sans"
         d="m 952.50903,-69.06418 0,70.5794487 0,163.8411113 -163.84597,0 -70.57699,0 0,141.15889 70.57699,0 163.84597,0 0,163.84917 0,70.57138 141.15397,0 0,-70.57138 0,-163.84917 163.8462,0 70.5768,0 0,-141.15889 -70.5768,0 -163.8462,0 0,-163.8411113 0,-70.5794487 -141.15397,0 z"
         id="path3834"
         inkscape:connector-curvature="0" />
    </g>
  </g>
</svg>
