<?xml version="1.0" encoding="UTF-8" standalone="no"?>
<!-- Created with Inkscape (http://www.inkscape.org/) -->

<svg
   xmlns:dc="http://purl.org/dc/elements/1.1/"
   xmlns:cc="http://creativecommons.org/ns#"
   xmlns:rdf="http://www.w3.org/1999/02/22-rdf-syntax-ns#"
   xmlns:svg="http://www.w3.org/2000/svg"
   xmlns="http://www.w3.org/2000/svg"
   xmlns:sodipodi="http://sodipodi.sourceforge.net/DTD/sodipodi-0.dtd"
   xmlns:inkscape="http://www.inkscape.org/namespaces/inkscape"
   width="2048"
   height="2048"
   id="svg3891"
   version="1.1"
   inkscape:version="0.48.5 r10040"
   sodipodi:docname="subprocess-expanded.svg"
   inkscape:export-filename="/home/nikku/camunda/projects/bpmn.io/bpmn-font/raw/subprocess-collapsed.png"
   inkscape:export-xdpi="0.88"
   inkscape:export-ydpi="0.88">
  <defs
     id="defs3893">
    <inkscape:path-effect
       effect="spiro"
       id="path-effect3840"
       is_visible="true" />
    <inkscape:path-effect
       effect="spiro"
       id="path-effect3836"
       is_visible="true" />
    <inkscape:path-effect
       effect="spiro"
       id="path-effect3836-9"
       is_visible="true" />
  </defs>
  <sodipodi:namedview
     id="base"
     pagecolor="#ffffff"
     bordercolor="#666666"
     borderopacity="1.0"
     inkscape:pageopacity="0.0"
     inkscape:pageshadow="2"
     inkscape:zoom="0.175"
     inkscape:cx="534.43976"
     inkscape:cy="829.17435"
     inkscape:document-units="px"
     inkscape:current-layer="layer1"
     showgrid="false"
     inkscape:window-width="956"
     inkscape:window-height="1041"
     inkscape:window-x="1600"
     inkscape:window-y="37"
     inkscape:window-maximized="0" />
  <metadata
     id="metadata3896">
    <rdf:RDF>
      <cc:Work
         rdf:about="">
        <dc:format>image/svg+xml</dc:format>
        <dc:type
           rdf:resource="http://purl.org/dc/dcmitype/StillImage" />
        <dc:title></dc:title>
      </cc:Work>
    </rdf:RDF>
  </metadata>
  <g
     inkscape:label="Layer 1"
     inkscape:groupmode="layer"
     id="layer1"
     transform="translate(0,995.63783)">
    <path
       inkscape:connector-curvature="0"
       d="m 1608.3682,-746.63783 c -8.5667,0.01 -17.1585,0 -25.7754,1.15838 l -1138.27091,0 0,0 c -191.76052,-5.11615 -360.797632,173.88158 -344.19299,364.97467 0.29951,286.388643 -0.586445,572.7966 0.4681,859.17559 5.44575,187.91721 187.10901,340.66812 372.6521,323.35043 383.65828,0 767.3224,0.96531 1150.9714,0 185.2041,-4.73002 339.493,-180.83182 323.6599,-364.50166 -0.2898,-286.38865 0.599,-572.80625 -0.4348,-859.18526 -4.4761,-176.36242 -164.8807,-324.68255 -339.0753,-324.49914 z m -425.1392,151.4574 c 147.7787,-0.01 295.5466,0 443.3006,1.06184 108.3578,6.27453 183.1513,114.55353 170.3802,217.99632 -0.628,285.539174 1.2889,571.13627 -0.9371,856.62718 -6.2761,108.26934 -114.6581,183.03273 -218.1866,170.27131 -384.4263,-0.96531 -768.93358,1.25491 -1153.31175,-0.96531 -108.40493,-6.37106 -186.38221,-113.49169 -173.37592,-217.99632 0.65505,-285.53918 -1.33722,-571.16523 0.9674,-856.65614 7.60082,-96.43463 96.50289,-172.36603 192.25503,-170.2327 246.28697,0.96531 492.60936,-0.0386 738.90714,-0.0676 z"
       style="font-size:medium;font-style:normal;font-variant:normal;font-weight:normal;font-stretch:normal;text-indent:0;text-align:start;text-decoration:none;line-height:normal;letter-spacing:normal;word-spacing:normal;text-transform:none;direction:ltr;block-progression:tb;writing-mode:lr-tb;text-anchor:start;baseline-shift:baseline;color:#000000;fill:#000000;fill-opacity:1;stroke:none;stroke-width:1.55755734;marker:none;visibility:visible;display:inline;overflow:visible;enable-background:accumulate;font-family:Sans;-inkscape-font-specification:Sans"
       id="rect3804" />
    <path
       style="font-size:medium;font-style:normal;font-variant:normal;font-weight:normal;font-stretch:normal;text-indent:0;text-align:start;text-decoration:none;line-height:normal;letter-spacing:normal;word-spacing:normal;text-transform:none;direction:ltr;block-progression:tb;writing-mode:lr-tb;text-anchor:start;baseline-shift:baseline;color:#000000;fill:#000000;fill-opacity:1;stroke:none;stroke-width:94.35056305;marker:none;visibility:visible;display:inline;overflow:visible;enable-background:accumulate;font-family:Sans;-inkscape-font-specification:Sans"
       d="m 677.5432,15.586522 0,31.744528 0,629.44559 0,31.7235 31.74452,0 629.42458,0 31.7445,0 0,-31.7235 0,-629.44559 0,-31.744528 -31.7445,0 -629.42458,0 -31.74452,0 z m 63.46802,63.489049 565.97758,0 0,565.956549 -565.97758,0 0,-565.956549 z"
       id="rect3830"
       inkscape:connector-curvature="0" />
    <path
       inkscape:connector-curvature="0"
       id="path3834"
       d="m 816.12596,309.80261 0,96.20746 415.74804,0 0,-96.20746 z"
       style="font-size:medium;font-style:normal;font-variant:normal;font-weight:normal;font-stretch:normal;text-indent:0;text-align:start;text-decoration:none;line-height:normal;letter-spacing:normal;word-spacing:normal;text-transform:none;direction:ltr;block-progression:tb;writing-mode:lr-tb;text-anchor:start;baseline-shift:baseline;color:#000000;fill:#000000;fill-opacity:1;stroke:none;stroke-width:1.76939881;marker:none;visibility:visible;display:inline;overflow:visible;enable-background:accumulate;font-family:Sans;-inkscape-font-specification:Sans"
       sodipodi:nodetypes="ccccc" />
  </g>
</svg>
