<svg xmlns="http://www.w3.org/2000/svg" width="2048" height="2048"><path style="line-height:normal;text-indent:0;text-align:start;text-decoration-line:none;text-decoration-style:solid;text-decoration-color:#000;text-transform:none;block-progression:tb;white-space:normal;isolation:auto;mix-blend-mode:normal;solid-color:#000;solid-opacity:1" d="M1014.917 99.38C602.359 95.992 214.146 405.7 123.514 807.93c-87.435 354.3 56.648 752.505 355.006 964.288 296.555 219.193 725.95 237.528 1036.419 36.05 305.059-189.587 481.982-565.095 423.873-920.972-52.303-361.1-335.007-676.97-691.487-760.448-75.897-18.993-154.19-28.02-232.408-27.469zm16.935 99.926c383.36-3.87 741.982 297.902 803.761 676.428 65.397 341.935-110.432 714.482-420.203 875.895-316.714 174.3-744.482 109.02-990.397-157.746-252.123-260.217-301.105-691.754-106.818-999.09 147.692-243.691 427.858-402.047 713.657-395.487zm-23.998 90.01c-353 0-676.469 292.144-714.39 643.106-45.155 328.882 161.729 671.9 475.565 782.315 297.323 112.359 660.552 5.805 846.145-253.464 200.28-265.219 188.76-667.643-34.507-916.046-140.914-164.064-356.106-262.094-572.813-255.912zm29.352 97.942c312.462 0 597.21 263.661 621.056 575.302 32.576 296.858-171.147 599.685-461.219 675.703-279.557 81.544-605.018-54.085-737.466-315.095-142.555-263.797-69.45-624.646 174.35-803.34 114.238-88.325 258.887-135.966 403.279-132.57z" color="#000" font-weight="400" font-family="sans-serif" overflow="visible"/></svg>