<?xml version="1.0" encoding="UTF-8" standalone="no"?>
<svg
   xmlns:dc="http://purl.org/dc/elements/1.1/"
   xmlns:cc="http://creativecommons.org/ns#"
   xmlns:rdf="http://www.w3.org/1999/02/22-rdf-syntax-ns#"
   xmlns:svg="http://www.w3.org/2000/svg"
   xmlns="http://www.w3.org/2000/svg"
   version="1.1"
   id="svg2"
   viewBox="0 0 2000 2000"
   height="2000"
   width="2000">
  <defs
     id="defs4" />
  <metadata
     id="metadata7">
    <rdf:RDF>
      <cc:Work
         rdf:about="">
        <dc:format>image/svg+xml</dc:format>
        <dc:type
           rdf:resource="http://purl.org/dc/dcmitype/StillImage" />
        <dc:title></dc:title>
        <cc:license
           rdf:resource="https://github.com/bpmn-io/bpmn-font/blob/master/LICENSE" />
        <dc:creator>
          <cc:Agent>
            <dc:title>Jörg Dotzki</dc:title>
          </cc:Agent>
        </dc:creator>
        <dc:subject>
          <rdf:Bag>
            <rdf:li>BPMN</rdf:li>
            <rdf:li>bpmn-io</rdf:li>
            <rdf:li>bpmn.io</rdf:li>
            <rdf:li>Font</rdf:li>
          </rdf:Bag>
        </dc:subject>
      </cc:Work>
    </rdf:RDF>
  </metadata>
  <g
     transform="translate(0,947.63784)"
     id="layer1">
    <path
       id="rect4187"
       transform="translate(0,-947.63784)"
       d="M 429.65039 210 C 214.93394 210 40 384.19599 40 598.5 L 40 1401.5 C 40 1615.804 214.93394 1790 429.65039 1790 L 1570.3496 1790 C 1785.0661 1790 1960 1615.804 1960 1401.5 L 1960 598.5 C 1960 384.19599 1785.0661 210 1570.3496 210 L 429.65039 210 z M 429.65039 330 L 1570.3496 330 C 1720.8866 330 1840 448.82601 1840 598.5 L 1840 1401.5 C 1840 1551.174 1720.8866 1670 1570.3496 1670 L 429.65039 1670 C 279.11336 1670 160 1551.174 160 1401.5 L 160 598.5 C 160 448.82601 279.11336 330 429.65039 330 z M 695.49414 409.66797 C 682.0984 409.99005 669.69092 415.03092 659.05859 421.88672 L 659.04102 421.89844 L 659.02344 421.91016 C 599.9566 460.15923 397.74821 600.48895 353.29883 630.99805 L 353.29688 631 L 353.29492 631 C 313.14226 658.56805 286.09496 700.17719 270.54492 749.47461 L 270.54297 749.48438 L 270.54102 749.49219 C 254.35278 800.96269 256.42941 857.03168 256.58594 903.99023 L 256.58789 904.00391 L 256.58789 904.01562 C 256.74683 939.37421 257.58889 970.23055 266.75977 1007.6523 C 266.76039 1007.6555 266.76305 1007.6589 266.76367 1007.6621 C 280.02024 1062.1224 304.86833 1105.4153 340.64648 1134.7461 C 376.42314 1164.0757 422.38942 1178.6177 474.35547 1178.7793 C 656.67219 1179.4637 839.09693 1179.7085 1021.5117 1178.7793 L 1021.5273 1178.7793 L 1021.543 1178.7793 C 1041.1805 1178.6505 1060.2259 1171.1353 1072.4492 1156.6035 C 1084.6716 1142.0728 1089.629 1122.915 1089.8867 1101.7363 C 1090.0589 1088.2552 1088.2658 1075.5429 1084.0488 1064.1973 L 1103.6523 1064.1973 C 1123.7945 1064.1973 1142.1494 1057.5947 1154.7949 1045.252 C 1167.4362 1032.9134 1173.82 1016.7707 1177.2324 999.99414 C 1177.2327 999.99289 1177.2322 999.99148 1177.2324 999.99023 C 1182.1797 975.75104 1179.5603 951.6625 1169.6543 931.4668 C 1192.4227 929.18955 1211.5808 916.83253 1222.2793 900.16797 C 1234.0565 881.82327 1237.7214 860.19248 1237.7891 838.66992 C 1237.8605 816.19159 1232.4751 794.37253 1220.1738 776.68164 C 1207.8726 758.99075 1186.912 746.01097 1162.6992 745.97656 L 1162.6934 745.97656 L 1162.6875 745.97656 C 1153.8525 745.96919 1144.362 745.94165 1134.0469 745.92969 C 1140.5462 731.7393 1143.3838 715.69232 1143.332 699.08398 L 1143.332 699.04883 L 1143.332 699.01172 C 1143.1899 676.69314 1137.4329 655.79703 1124.3574 639.70898 C 1111.2822 623.62122 1090.5011 613.87145 1067.7812 613.87109 C 931.43415 613.62673 813.62888 614.92809 683.07812 614.57422 C 678.31977 614.56025 675.84426 614.51227 671.64062 614.49023 C 677.80256 608.29366 683.79709 602.241 690.38086 595.69336 C 710.64161 575.5438 730.11436 556.55621 740.17383 543.53906 C 764.22319 512.58623 767.81276 470.64989 747.56641 439.80273 C 736.89199 423.49538 721.23793 412.46256 704.43164 410.16602 C 702.33019 409.87886 700.24829 409.71673 698.1875 409.66797 C 697.2859 409.64663 696.38719 409.6465 695.49414 409.66797 z M 697.17969 453.33203 C 697.65878 453.33736 698.10587 453.3712 698.51953 453.42773 C 701.82878 453.87993 705.37233 455.06124 711.03906 463.72266 L 711.04883 463.74023 L 711.05859 463.75586 C 718.97527 475.811 718.62552 500.12312 705.67969 516.76953 L 705.6582 516.79883 L 705.63672 516.82617 C 700.92946 522.92022 679.77968 544.65727 659.5918 564.73438 C 639.4039 584.81148 620.21075 603.34186 610.71484 614.91016 C 601.51988 626.11188 604.96776 635.22701 607.37891 641.02344 C 609.79005 646.81986 612.43682 653.74876 625.26758 656.79688 C 629.02042 657.68839 629.22713 657.43259 630.42969 657.51562 C 631.63224 657.59867 632.87589 657.6556 634.33789 657.70898 C 780.08288 659.36086 933.50541 657.45743 1067.7422 657.53516 L 1067.7617 657.53516 L 1067.7812 657.53516 C 1079.3622 657.53516 1085.3219 660.9106 1090.4727 667.24805 C 1095.6197 673.58102 1099.5679 684.39766 1099.668 699.25977 C 1099.7091 714.68792 1095.7708 727.24576 1090.377 734.6543 C 1084.9787 742.06886 1079.3782 745.58134 1068.1172 745.61328 C 965.79732 745.55855 863.47782 745.33495 761.1582 745.0957 L 761.1582 788.96094 C 894.9851 789.17427 1028.8118 789.51654 1162.6387 789.64062 C 1172.8061 789.65508 1178.549 793.30101 1184.3262 801.60938 C 1190.1033 809.91774 1194.1728 823.47047 1194.125 838.53125 L 1194.125 838.5332 C 1194.0745 854.64748 1190.6321 868.64078 1185.5352 876.58008 C 1180.4382 884.51937 1175.7775 888.19928 1162.4023 888.29102 C 1023.2674 888.23276 889.175 887.93322 761.15625 888.09766 L 761.15625 931.9375 C 875.4157 931.94124 989.67439 932.10212 1103.9336 931.98242 C 1115.5464 932.28537 1122.8644 937.38128 1128.8516 947.53125 C 1135.0083 957.96876 1137.9563 974.09068 1134.4512 991.26172 L 1134.4512 991.27148 L 1134.4512 991.2793 C 1132.0998 1002.8465 1128.3337 1010.0676 1124.2988 1014.0059 C 1120.2639 1017.9442 1115.4074 1020.5332 1103.6562 1020.5332 L 761.0957 1020.5332 C 761.13812 1035.2133 761.18404 1049.8942 761.22852 1064.5742 C 847.89027 1064.6057 934.55563 1063.9781 1021.2129 1064.5117 L 1021.2188 1064.5117 L 1021.2246 1064.5117 C 1030.9784 1064.5753 1035.1595 1067.0017 1039.0371 1071.8906 C 1042.9147 1076.7796 1046.425 1086.2029 1046.2324 1101.1855 L 1046.2324 1101.1934 L 1046.2324 1101.2012 C 1046.0553 1115.8 1042.5848 1124.2827 1039.0391 1128.498 C 1035.4954 1132.7109 1031.4296 1135.0459 1021.2793 1135.1152 C 839.05713 1136.0434 656.76655 1135.7994 474.52539 1135.1152 L 474.51758 1135.1152 L 474.50977 1135.1152 C 430.40159 1134.9806 395.55459 1123.2987 368.32812 1100.9785 C 341.10166 1078.6584 320.75745 1044.8737 309.18555 997.32812 L 309.17969 997.31055 L 309.17578 997.29102 C 301.14777 964.54784 300.40678 938.65008 300.25 903.84375 L 300.25 903.81836 C 300.09053 856.05617 299.17473 803.98612 312.19336 762.59375 C 325.5369 720.30158 347.11637 688.20834 378.00781 666.99805 L 378.00977 666.99609 C 422.99868 636.11665 626.41263 495.04961 682.7207 458.58398 L 682.72266 458.58203 C 688.00975 455.17331 692.39074 453.72298 695.64648 453.40234 C 696.1892 453.3489 696.70059 453.32671 697.17969 453.33203 z "
       style="color:#000000;font-style:normal;font-variant:normal;font-weight:normal;font-stretch:normal;font-size:medium;line-height:normal;font-family:sans-serif;text-indent:0;text-align:start;text-decoration:none;text-decoration-line:none;text-decoration-style:solid;text-decoration-color:#000000;letter-spacing:normal;word-spacing:normal;text-transform:none;direction:ltr;block-progression:tb;writing-mode:lr-tb;baseline-shift:baseline;text-anchor:start;white-space:normal;clip-rule:nonzero;display:inline;overflow:visible;visibility:visible;opacity:1;isolation:auto;mix-blend-mode:normal;color-interpolation:sRGB;color-interpolation-filters:linearRGB;solid-color:#000000;solid-opacity:1;fill:#000000;fill-opacity:1;fill-rule:nonzero;stroke:none;stroke-width:119.99999237;stroke-linecap:round;stroke-linejoin:miter;stroke-miterlimit:4;stroke-dasharray:none;stroke-dashoffset:0;stroke-opacity:1;color-rendering:auto;image-rendering:auto;shape-rendering:auto;text-rendering:auto;enable-background:accumulate" />
    <g
       transform="matrix(0.62376697,0,0,0.62376697,123.3598,-185.77569)"
       id="layer1-9" />
  </g>
</svg>
