<?xml version="1.0" encoding="UTF-8" standalone="no"?>
<!-- Created with Inkscape (http://www.inkscape.org/) -->

<svg
   xmlns:dc="http://purl.org/dc/elements/1.1/"
   xmlns:cc="http://creativecommons.org/ns#"
   xmlns:rdf="http://www.w3.org/1999/02/22-rdf-syntax-ns#"
   xmlns:svg="http://www.w3.org/2000/svg"
   xmlns="http://www.w3.org/2000/svg"
   xmlns:sodipodi="http://sodipodi.sourceforge.net/DTD/sodipodi-0.dtd"
   xmlns:inkscape="http://www.inkscape.org/namespaces/inkscape"
   width="2000"
   height="2000"
   viewBox="0 0 2000 2000"
   id="svg2"
   version="1.1"
   inkscape:version="0.91 r13725"
   sodipodi:docname="manual-task.svg">
  <defs
     id="defs4" />
  <sodipodi:namedview
     id="base"
     pagecolor="#ffffff"
     bordercolor="#666666"
     borderopacity="1.0"
     inkscape:pageopacity="0.0"
     inkscape:pageshadow="2"
     inkscape:zoom="0.4243164"
     inkscape:cx="167.83815"
     inkscape:cy="1228.4044"
     inkscape:document-units="px"
     inkscape:current-layer="layer1"
     showgrid="true"
     units="px"
     showguides="false"
     inkscape:window-width="1878"
     inkscape:window-height="1035"
     inkscape:window-x="42"
     inkscape:window-y="0"
     inkscape:window-maximized="0">
    <inkscape:grid
       type="xygrid"
       id="grid4008"
       empspacing="20"
       dotted="false" />
  </sodipodi:namedview>
  <metadata
     id="metadata7">
    <rdf:RDF>
      <cc:Work
         rdf:about="">
        <dc:format>image/svg+xml</dc:format>
        <dc:type
           rdf:resource="http://purl.org/dc/dcmitype/StillImage" />
        <dc:title />
        <cc:license
           rdf:resource="https://github.com/bpmn-io/bpmn-font/blob/master/LICENSE" />
        <dc:creator>
          <cc:Agent>
            <dc:title>Jörg Dotzki</dc:title>
          </cc:Agent>
        </dc:creator>
        <dc:subject>
          <rdf:Bag>
            <rdf:li>BPMN</rdf:li>
            <rdf:li>bpmn-io</rdf:li>
            <rdf:li>bpmn.io</rdf:li>
            <rdf:li>Font</rdf:li>
          </rdf:Bag>
        </dc:subject>
      </cc:Work>
    </rdf:RDF>
  </metadata>
  <g
     inkscape:label="Ebene 1"
     inkscape:groupmode="layer"
     id="layer1"
     transform="translate(0,947.63784)">
    <path
       style="color:#000000;font-style:normal;font-variant:normal;font-weight:normal;font-stretch:normal;font-size:medium;line-height:normal;font-family:sans-serif;text-indent:0;text-align:start;text-decoration:none;text-decoration-line:none;text-decoration-style:solid;text-decoration-color:#000000;letter-spacing:normal;word-spacing:normal;text-transform:none;direction:ltr;block-progression:tb;writing-mode:lr-tb;baseline-shift:baseline;text-anchor:start;white-space:normal;clip-rule:nonzero;display:inline;overflow:visible;visibility:visible;opacity:1;isolation:auto;mix-blend-mode:normal;color-interpolation:sRGB;color-interpolation-filters:linearRGB;solid-color:#000000;solid-opacity:1;fill:#000000;fill-opacity:1;fill-rule:nonzero;stroke:none;stroke-width:80;stroke-linecap:round;stroke-linejoin:miter;stroke-miterlimit:4;stroke-dasharray:none;stroke-dashoffset:0;stroke-opacity:1;color-rendering:auto;image-rendering:auto;shape-rendering:auto;text-rendering:auto;enable-background:accumulate"
       d="M 455 260 C 259.02189 260 100 419.02189 100 615 L 100 1385 C 100 1580.9781 259.02189 1740 455 1740 L 1545 1740 C 1740.9781 1740 1900 1580.9781 1900 1385 L 1900 615 C 1900 419.02189 1740.9781 260 1545 260 L 455 260 z M 455 340 L 1545 340 C 1698.0419 340 1820 461.95811 1820 615 L 1820 1385 C 1820 1538.0419 1698.0419 1660 1545 1660 L 455 1660 C 301.95811 1660 180 1538.0419 180 1385 L 180 615 C 180 461.95811 301.95811 340 455 340 z M 653.66992 471.19531 C 652.49487 471.17012 651.32236 471.20713 650.15234 471.30273 L 650.15039 471.30469 C 643.13031 471.87829 636.22985 474.55145 629.80469 478.49414 L 629.80078 478.49805 L 629.79688 478.5 C 583.97713 506.73631 424.07196 612.31593 388.84766 635.32422 L 388.8457 635.32422 C 359.75967 654.32863 339.8946 683.09464 328.2207 718.31445 L 328.2207 718.31641 L 328.2207 718.31836 C 316.30237 754.38027 317.62772 795.47465 317.75195 830.94141 L 317.75195 830.94531 L 317.75195 830.94727 C 317.87672 857.36289 318.51382 879.27235 325.44531 906.17969 C 325.44567 906.18109 325.44727 906.18219 325.44727 906.18359 C 325.4476 906.18489 325.44693 906.1862 325.44727 906.1875 C 335.45369 945.30757 353.85236 975.35006 379.69531 995.51172 C 405.53913 1015.6741 438.63793 1025.8047 477.39648 1025.918 C 621.22841 1026.4318 765.13002 1026.6154 909.00586 1025.918 L 909.00977 1025.918 L 909.01172 1025.918 C 921.53552 1025.8398 932.152 1022.8344 939.57812 1015.5508 C 947.00356 1008.2679 950.61089 997.29814 950.79297 983.07227 L 950.79297 983.07031 C 950.99061 968.41228 947.34125 957.69308 939.66016 951.04688 C 931.97912 944.40071 921.36607 942.37194 908.98242 942.29492 L 908.98047 942.29492 C 855.42726 941.94 734.40189 942.26213 725.87109 942.28516 L 725.87109 927.70312 L 970.92773 927.70312 C 983.92811 927.70312 994.68577 926.16188 1003.2305 921.21289 C 1011.7742 916.26445 1017.4688 907.75113 1019.9473 896.15234 L 1019.9473 896.14844 C 1023.6912 878.69032 1020.9718 864.58063 1012.2598 855.2168 C 1003.5496 845.85497 989.85182 841.84557 973.41211 841.80469 L 973.39844 841.80469 C 898.03707 841.44481 732.58904 841.65192 725.86914 841.66016 L 725.86914 829.3418 C 734.548 829.3488 989.76792 829.54162 1020.3848 829.3418 C 1036.6994 829.23533 1048.9281 824.83068 1056.7305 816.00977 C 1064.5328 807.18887 1067.4414 794.80632 1067.4902 780.02344 C 1067.5402 765.03989 1063.4233 753.34914 1055.0391 745.72852 C 1046.6548 738.10791 1034.7413 734.98417 1020.4531 734.96484 C 929.5652 734.89264 732.57143 734.50716 725.87305 734.49414 L 725.87109 722.7832 C 732.56465 722.7583 879.73849 722.20898 945.88867 722.20898 L 945.89648 722.20898 L 945.90234 722.20898 C 960.64376 722.16988 972.74642 717.98656 980.94141 709.44531 C 989.1364 700.90407 993.01433 688.51609 992.96484 673.40625 L 992.96484 673.39648 L 992.96484 673.38867 C 992.86534 658.52679 988.72305 646.13912 980.45508 637.53516 C 972.18866 628.9328 960.0977 624.52703 945.58594 624.52539 L 945.57812 624.52539 C 891.46506 624.43359 806.87531 624.78964 734.95898 624.97656 C 698.99948 625.07006 666.20952 625.12247 642.00195 625.05469 C 629.89816 625.02079 619.93637 624.95609 612.81836 624.85352 C 609.48272 624.80542 606.90765 624.74648 604.91406 624.68164 C 611.28027 617.8913 624.71174 605.10005 639.08984 591.49219 C 655.05958 576.37796 670.88618 561.40187 677.34961 553.43945 C 693.27454 533.94305 695.23618 506.85297 682.63477 488.58398 C 675.58324 478.32705 666.61236 472.68504 657.19922 471.46094 C 656.02257 471.30792 654.84498 471.22051 653.66992 471.19531 z M 653.45117 481.19727 C 654.28044 481.21328 655.10037 481.27388 655.9082 481.37891 C 662.37085 482.21933 668.55038 485.75213 674.39258 494.25 L 674.39648 494.25391 L 674.39844 494.25781 C 684.02617 508.20968 682.8737 530.87695 669.5957 547.125 L 669.5918 547.13086 L 669.58594 547.13672 C 664.40053 553.52523 648.16641 569.13343 632.21484 584.23047 C 616.26328 599.3275 600.60033 613.94218 594.46875 621.05078 C 591.86997 624.06366 592.7206 627.14353 593.63281 629.23047 C 594.54502 631.3174 595.83547 633.5115 599.30078 634.29492 C 600.27779 634.51579 600.63177 634.49347 601.35547 634.54102 C 602.07917 634.58862 602.96199 634.62872 604.03516 634.66602 C 606.1815 634.74062 609.07562 634.80171 612.67188 634.85352 C 619.86438 634.95715 629.84723 635.02076 641.9707 635.05469 C 666.21765 635.12259 699.01664 635.07202 734.98242 634.97852 C 806.91399 634.79156 891.51512 634.43562 945.56641 634.52734 L 945.57227 634.52734 L 945.57617 634.52734 C 958.12519 634.52734 967.1293 638.10551 973.24219 644.4668 C 979.35377 650.82675 982.87398 660.38513 982.96289 673.44922 C 983.00499 686.85131 979.67341 696.3193 973.72266 702.52148 C 967.77035 708.72528 958.78775 712.17471 945.87305 712.20898 C 878.16083 712.20905 720.85156 712.79687 720.85156 712.79688 L 715.86914 712.81445 L 715.87109 744.47656 L 720.86133 744.48633 C 720.86133 744.48633 927.99282 744.89143 1020.4395 744.96484 C 1033.278 744.98224 1042.4345 747.78453 1048.3145 753.12891 C 1054.1944 758.4733 1057.5362 766.7866 1057.4922 779.99023 C 1057.4472 793.46791 1054.7521 803.15144 1049.2402 809.38281 C 1043.7284 815.61418 1034.932 819.24644 1020.3203 819.3418 C 989.60463 819.54227 720.87305 819.34181 720.87305 819.3418 L 715.86914 819.33789 L 715.86914 851.66406 L 720.875 851.65625 C 720.875 851.65625 896.57631 851.43789 973.36328 851.80469 L 973.36914 851.80469 L 973.375 851.80469 C 988.19782 851.83948 998.86633 855.49989 1004.9395 862.02734 C 1011.0125 868.5548 1013.4944 878.55615 1010.1699 894.05469 L 1010.1699 894.05664 L 1010.1699 894.05859 C 1008.1008 903.74502 1004.3139 909.03146 998.2207 912.56055 C 992.12757 916.08963 983.0939 917.70312 970.92969 917.70312 L 715.87305 917.70312 L 715.87305 922.70312 L 715.87305 952.30859 L 720.88672 952.29492 C 720.88672 952.29492 853.61848 951.9284 908.91797 952.29492 L 908.91992 952.29492 C 920.20506 952.36492 928.20274 954.35341 933.11914 958.60742 C 938.03554 962.86143 940.97264 969.92296 940.79688 982.9375 L 940.79688 982.93945 L 940.79688 982.94141 C 940.63572 995.57942 937.59413 1003.4924 932.57812 1008.4121 C 927.56213 1013.3318 919.94129 1015.8494 908.95117 1015.918 C 765.11877 1016.6152 621.24956 1016.4317 477.43555 1015.918 L 477.43359 1015.918 L 477.43164 1015.918 C 440.38441 1015.8096 409.71672 1006.2506 385.84766 987.62891 C 361.97859 969.0072 344.71855 941.17437 335.13477 903.70117 L 335.13281 903.69727 L 335.13086 903.69336 C 328.48595 877.90232 327.87618 857.18918 327.75195 830.90625 L 327.75195 830.90039 C 327.62696 795.24143 326.58644 755.13027 337.71289 721.46094 L 337.71484 721.45508 C 348.83867 687.89724 367.34384 661.31881 394.31641 643.69531 C 429.66377 620.60664 589.84479 514.86458 635.03516 487.01562 L 635.04297 487.01172 C 640.45782 483.69026 645.85156 481.70804 650.93555 481.2793 L 650.93555 481.28125 C 651.78328 481.20975 652.6219 481.18125 653.45117 481.19727 z "
       transform="translate(0,-947.63784)"
       id="rect4187" />
  </g>
</svg>
