<?xml version="1.0" encoding="UTF-8" standalone="no"?>
<!-- Created with Inkscape (http://www.inkscape.org/) -->

<svg
   xmlns:dc="http://purl.org/dc/elements/1.1/"
   xmlns:cc="http://creativecommons.org/ns#"
   xmlns:rdf="http://www.w3.org/1999/02/22-rdf-syntax-ns#"
   xmlns:svg="http://www.w3.org/2000/svg"
   xmlns="http://www.w3.org/2000/svg"
   xmlns:sodipodi="http://sodipodi.sourceforge.net/DTD/sodipodi-0.dtd"
   xmlns:inkscape="http://www.inkscape.org/namespaces/inkscape"
   width="2000"
   height="2000"
   viewBox="0 0 2000 2000"
   id="svg2"
   version="1.1"
   inkscape:version="0.91 r13725"
   sodipodi:docname="manual-task.svg">
  <defs
     id="defs4" />
  <sodipodi:namedview
     id="base"
     pagecolor="#ffffff"
     bordercolor="#666666"
     borderopacity="1.0"
     inkscape:pageopacity="0.0"
     inkscape:pageshadow="2"
     inkscape:zoom="0.4243164"
     inkscape:cx="664.68484"
     inkscape:cy="957.22176"
     inkscape:document-units="px"
     inkscape:current-layer="layer1"
     showgrid="true"
     units="px"
     showguides="false"
     inkscape:window-width="1878"
     inkscape:window-height="1035"
     inkscape:window-x="42"
     inkscape:window-y="0"
     inkscape:window-maximized="0">
    <inkscape:grid
       type="xygrid"
       id="grid4008"
       empspacing="20"
       dotted="false" />
  </sodipodi:namedview>
  <metadata
     id="metadata7">
    <rdf:RDF>
      <cc:Work
         rdf:about="">
        <dc:format>image/svg+xml</dc:format>
        <dc:type
           rdf:resource="http://purl.org/dc/dcmitype/StillImage" />
        <dc:title />
        <cc:license
           rdf:resource="https://github.com/bpmn-io/bpmn-font/blob/master/LICENSE" />
        <dc:creator>
          <cc:Agent>
            <dc:title>Jörg Dotzki</dc:title>
          </cc:Agent>
        </dc:creator>
        <dc:subject>
          <rdf:Bag>
            <rdf:li>BPMN</rdf:li>
            <rdf:li>bpmn-io</rdf:li>
            <rdf:li>bpmn.io</rdf:li>
            <rdf:li>Font</rdf:li>
          </rdf:Bag>
        </dc:subject>
      </cc:Work>
    </rdf:RDF>
  </metadata>
  <g
     inkscape:label="Ebene 1"
     inkscape:groupmode="layer"
     id="layer1"
     transform="translate(0,947.63784)">
    <path
       style="color:#000000;font-style:normal;font-variant:normal;font-weight:normal;font-stretch:normal;font-size:medium;line-height:normal;font-family:sans-serif;text-indent:0;text-align:start;text-decoration:none;text-decoration-line:none;text-decoration-style:solid;text-decoration-color:#000000;letter-spacing:normal;word-spacing:normal;text-transform:none;direction:ltr;block-progression:tb;writing-mode:lr-tb;baseline-shift:baseline;text-anchor:start;white-space:normal;clip-rule:nonzero;display:inline;overflow:visible;visibility:visible;opacity:1;isolation:auto;mix-blend-mode:normal;color-interpolation:sRGB;color-interpolation-filters:linearRGB;solid-color:#000000;solid-opacity:1;fill:#000000;fill-opacity:1;fill-rule:nonzero;stroke:none;stroke-width:119.99999237;stroke-linecap:round;stroke-linejoin:miter;stroke-miterlimit:4;stroke-dasharray:none;stroke-dashoffset:0;stroke-opacity:1;color-rendering:auto;image-rendering:auto;shape-rendering:auto;text-rendering:auto;enable-background:accumulate"
       d="M 429.65039 210 C 214.93394 210 40 384.19599 40 598.5 L 40 1401.5 C 40 1615.804 214.93394 1790 429.65039 1790 L 1570.3496 1790 C 1785.0661 1790 1960 1615.804 1960 1401.5 L 1960 598.5 C 1960 384.19599 1785.0661 210 1570.3496 210 L 429.65039 210 z M 429.65039 330 L 1570.3496 330 C 1720.8866 330 1840 448.82601 1840 598.5 L 1840 1401.5 C 1840 1551.174 1720.8866 1670 1570.3496 1670 L 429.65039 1670 C 279.11336 1670 160 1551.174 160 1401.5 L 160 598.5 C 160 448.82601 279.11336 330 429.65039 330 z M 765.3125 467.88672 L 765.32031 467.88867 C 751.08683 467.57079 737.72282 472.51258 726.12695 479.63672 L 726.11133 479.64648 L 726.09375 479.65625 C 663.9345 518.00771 450.34604 659.23055 403.37695 689.94727 L 403.37695 689.94922 L 403.375 689.94922 C 361.64229 717.24952 333.25551 758.69364 316.9043 808.08398 L 316.90234 808.09375 L 316.89844 808.10156 C 299.90235 859.58885 302.05538 915.94224 302.2207 963.19922 L 302.2207 963.21094 L 302.2207 963.22266 C 302.38849 998.78946 303.27944 1029.7326 312.9375 1067.2676 C 312.93819 1067.2706 312.93845 1067.2724 312.93945 1067.2754 C 326.89105 1121.8665 353.0205 1165.0533 390.22461 1194.1133 C 427.43371 1223.1772 474.95989 1237.51 529.10742 1237.6699 C 721.59315 1238.3584 914.18906 1238.6046 1106.7676 1237.6699 L 1106.7812 1237.6699 L 1106.7949 1237.6699 C 1125.5983 1237.5525 1143.7973 1232.8721 1156.9395 1219.9668 C 1170.0783 1207.0647 1175.6555 1188.3125 1175.9277 1167.1465 L 1175.9277 1167.1367 C 1176.2202 1145.3188 1170.3943 1126.099 1156.4395 1114.0098 C 1152.617 1110.6984 1148.4948 1108.1382 1144.1816 1106.0879 L 1189.5625 1106.0879 C 1208.0735 1106.0879 1224.7687 1104.1209 1239.4668 1095.5977 C 1254.1601 1087.0772 1264.3107 1071.3795 1268.1719 1053.3027 L 1268.1719 1053.293 C 1273.7391 1027.2995 1269.7875 1002.9398 1254.6211 986.61914 C 1249.8605 981.49618 1244.3249 977.51153 1238.3105 974.30859 C 1241.3077 974.29857 1253.9829 974.32065 1255.8281 974.30859 C 1279.9298 974.15111 1300.8663 967.21131 1314.3516 951.94727 C 1327.8369 936.68322 1332.0129 916.51464 1332.084 894.97656 C 1332.159 872.53938 1325.6243 852.39313 1311.0742 839.15234 C 1296.524 825.91157 1276.9019 821.29413 1255.8496 821.26562 L 1255.8398 821.26562 L 1255.8301 821.26562 C 1237.7124 821.25123 1220.4544 821.20217 1197.0996 821.17188 C 1202.8021 818.08094 1208.0448 814.2883 1212.5605 809.57617 C 1226.5083 795.02163 1232.4213 774.55596 1232.3477 752.05273 L 1232.3477 752.01758 L 1232.3477 751.98438 C 1232.1987 729.69209 1225.8332 709.34444 1211.9043 694.83203 C 1197.9757 680.32006 1177.6754 673.31097 1155.6309 673.31055 C 1122.6728 673.25465 1081.3081 673.32326 1036.9512 673.4375 C 983.74321 673.57454 926.23004 673.77752 873.76172 673.91406 C 825.65175 674.03926 781.7856 674.1082 749.44531 674.01758 C 742.09141 673.99698 737.82799 673.93467 731.75586 673.89648 C 739.07565 666.86798 746.61789 659.63764 754.66992 652.00781 C 776.0548 631.74425 796.68054 612.52823 807.03125 599.76758 C 831.85757 569.32825 835.55865 527.17458 814.75391 496.95898 L 814.74609 496.94922 C 803.70407 480.87403 787.98894 470.50516 771.46289 468.35352 C 769.39669 468.0845 767.34586 467.93213 765.3125 467.88672 z M 764.44922 507.89062 C 765.0974 507.89955 765.71737 507.94478 766.30664 508.02148 C 771.02084 508.63526 775.57605 510.55828 781.78711 519.60352 L 781.79883 519.61719 L 781.80859 519.63086 C 790.73086 532.57592 790.26527 557.06463 776.0293 574.50586 L 776.00977 574.53125 L 775.98828 574.55664 C 770.74687 581.0219 748.48359 602.77296 727.16406 622.97461 C 705.84453 643.17625 685.49187 661.94047 675.72656 673.27539 C 666.91003 683.50913 670.07444 692.69001 672.49414 698.23242 C 674.91384 703.77483 677.85661 710.0707 689.33984 712.66992 C 692.68722 713.42757 692.95655 713.22198 694.1543 713.30078 C 695.35204 713.37958 696.63253 713.43742 698.15039 713.49023 C 701.18612 713.59585 705.11855 713.67791 709.98047 713.74805 C 719.7043 713.88831 733.09085 713.974 749.33984 714.01953 C 781.83783 714.11063 825.7379 714.04124 873.87305 713.91602 C 970.14333 713.66549 1083.3581 713.18975 1155.6035 713.3125 L 1155.6211 713.3125 L 1155.6406 713.3125 C 1169.811 713.3125 1177.7422 716.99617 1183.0566 722.5332 C 1188.367 728.06601 1192.2505 737.11668 1192.3574 752.22266 C 1192.4024 767.8993 1188.6721 776.70705 1183.6934 781.90234 C 1178.7103 787.10221 1170.8497 790.74181 1156.0039 790.78125 C 1065.3021 790.78152 854.88086 791.56836 854.88086 791.56836 L 834.95508 791.64258 L 834.95703 860.58789 L 854.91797 860.62695 C 854.91797 860.62695 1132.0676 861.16923 1255.7988 861.26758 C 1271.0454 861.28823 1279.6191 864.60943 1284.1562 868.73828 C 1288.6934 872.86713 1292.139 879.51962 1292.0879 894.8457 C 1292.0339 911.16923 1288.7096 920.56482 1284.3789 925.4668 C 1280.0481 930.36878 1272.852 934.19762 1255.5703 934.31055 C 1215.0306 934.57544 854.9707 934.31055 854.9707 934.31055 L 834.95508 934.29492 L 834.95508 1004.2324 L 854.98047 1004.207 C 854.98047 1004.207 1090.1317 1003.9115 1192.7598 1004.4023 L 1192.7832 1004.4043 L 1192.8066 1004.4043 C 1210.4771 1004.4458 1220.705 1008.8829 1225.3223 1013.8516 C 1229.9395 1018.8202 1232.9491 1026.7628 1229.0586 1044.9219 L 1229.0586 1044.9316 L 1229.0586 1044.9395 C 1226.8323 1055.3744 1224.2934 1058.159 1219.4043 1060.9941 C 1214.5152 1063.8293 1204.7288 1066.0879 1189.5664 1066.0879 L 834.95898 1066.0879 L 834.95898 1086.0879 L 834.95898 1139.0879 L 855.01367 1139.0332 C 855.01367 1139.0332 1032.7024 1138.5435 1106.5 1139.0332 C 1120.1351 1139.1179 1127.3436 1141.7294 1130.2441 1144.2422 C 1133.1447 1146.755 1136.1334 1151.3546 1135.9277 1166.6074 L 1135.9277 1166.6152 L 1135.9277 1166.6211 C 1135.7389 1181.4417 1132.4172 1187.9839 1128.9102 1191.4277 C 1125.4031 1194.8716 1119.2023 1197.5908 1106.541 1197.6699 C 914.13519 1198.6036 721.66331 1198.3582 529.24805 1197.6699 L 529.24023 1197.6699 L 529.23438 1197.6699 C 481.95076 1197.5324 444.15283 1185.4846 414.8418 1162.5898 C 385.53077 1139.6951 363.9459 1105.3514 351.68164 1057.3398 L 351.67773 1057.3223 L 351.67383 1057.3066 C 343.16985 1024.2439 342.38628 998.08525 342.2207 963.05859 L 342.2207 963.0332 C 342.05241 915.00949 341.04326 862.58298 354.87891 820.65625 C 369.03373 777.90031 391.99115 745.19611 425.27344 723.42383 L 425.26953 723.42383 C 472.73041 692.38548 687.42227 550.5206 747.06641 513.71875 C 752.974 510.08931 758.19148 508.35426 762.41992 507.97266 C 763.12466 507.90906 763.80104 507.8817 764.44922 507.89062 z "
       transform="translate(0,-947.63784)"
       id="rect4187" />
  </g>
</svg>
