<?xml version="1.0" encoding="UTF-8" standalone="no"?>
<!-- Created with Inkscape (http://www.inkscape.org/) -->

<svg
   xmlns:dc="http://purl.org/dc/elements/1.1/"
   xmlns:cc="http://creativecommons.org/ns#"
   xmlns:rdf="http://www.w3.org/1999/02/22-rdf-syntax-ns#"
   xmlns:svg="http://www.w3.org/2000/svg"
   xmlns="http://www.w3.org/2000/svg"
   xmlns:sodipodi="http://sodipodi.sourceforge.net/DTD/sodipodi-0.dtd"
   xmlns:inkscape="http://www.inkscape.org/namespaces/inkscape"
   width="2000"
   height="2000"
   viewBox="0 0 2000 2000"
   id="svg2"
   version="1.1"
   inkscape:version="0.91 r13725"
   sodipodi:docname="receive-task.svg">
  <defs
     id="defs4" />
  <sodipodi:namedview
     id="base"
     pagecolor="#ffffff"
     bordercolor="#666666"
     borderopacity="1.0"
     inkscape:pageopacity="0.0"
     inkscape:pageshadow="2"
     inkscape:zoom="0.4345"
     inkscape:cx="164.55696"
     inkscape:cy="1000"
     inkscape:document-units="px"
     inkscape:current-layer="layer1"
     showgrid="true"
     units="px"
     showguides="false"
     inkscape:window-width="1878"
     inkscape:window-height="1035"
     inkscape:window-x="42"
     inkscape:window-y="0"
     inkscape:window-maximized="0">
    <inkscape:grid
       type="xygrid"
       id="grid4008"
       empspacing="20"
       dotted="false" />
  </sodipodi:namedview>
  <metadata
     id="metadata7">
    <rdf:RDF>
      <cc:Work
         rdf:about="">
        <dc:format>image/svg+xml</dc:format>
        <dc:type
           rdf:resource="http://purl.org/dc/dcmitype/StillImage" />
        <dc:title />
        <cc:license
           rdf:resource="https://github.com/bpmn-io/bpmn-font/blob/master/LICENSE" />
        <dc:creator>
          <cc:Agent>
            <dc:title>Jörg Dotzki</dc:title>
          </cc:Agent>
        </dc:creator>
        <dc:subject>
          <rdf:Bag>
            <rdf:li>BPMN</rdf:li>
            <rdf:li>bpmn-io</rdf:li>
            <rdf:li>bpmn.io</rdf:li>
            <rdf:li>Font</rdf:li>
          </rdf:Bag>
        </dc:subject>
      </cc:Work>
    </rdf:RDF>
  </metadata>
  <g
     inkscape:label="Ebene 1"
     inkscape:groupmode="layer"
     id="layer1"
     transform="translate(0,947.63784)">
    <path
       style="color:#000000;font-style:normal;font-variant:normal;font-weight:normal;font-stretch:normal;font-size:medium;line-height:normal;font-family:sans-serif;text-indent:0;text-align:start;text-decoration:none;text-decoration-line:none;text-decoration-style:solid;text-decoration-color:#000000;letter-spacing:normal;word-spacing:normal;text-transform:none;direction:ltr;block-progression:tb;writing-mode:lr-tb;baseline-shift:baseline;text-anchor:start;white-space:normal;clip-rule:nonzero;display:inline;overflow:visible;visibility:visible;opacity:1;isolation:auto;mix-blend-mode:normal;color-interpolation:sRGB;color-interpolation-filters:linearRGB;solid-color:#000000;solid-opacity:1;fill:#000000;fill-opacity:1;fill-rule:nonzero;stroke:none;stroke-width:120;stroke-linecap:round;stroke-linejoin:miter;stroke-miterlimit:4;stroke-dasharray:none;stroke-dashoffset:0;stroke-opacity:1;color-rendering:auto;image-rendering:auto;shape-rendering:auto;text-rendering:auto;enable-background:accumulate"
       d="M 429.65039 210 C 214.93394 210 40 384.19599 40 598.5 L 40 1401.5 C 40 1615.804 214.93394 1790 429.65039 1790 L 1570.3496 1790 C 1785.0661 1790 1960 1615.804 1960 1401.5 L 1960 598.5 C 1960 384.19599 1785.0661 210 1570.3496 210 L 429.65039 210 z M 429.65039 330 L 1570.3496 330 C 1720.8866 330 1840 448.82601 1840 598.5 L 1840 1401.5 C 1840 1551.174 1720.8866 1670 1570.3496 1670 L 429.65039 1670 C 279.11337 1670 160 1551.174 160 1401.5 L 160 598.5 C 160 448.82601 279.11337 330 429.65039 330 z M 385 463.80859 C 384.77977 463.81999 384.55969 463.83436 384.33984 463.85156 C 370.80845 464.2103 360.01988 475.27246 360 488.80859 L 360 1203 C 360.001 1216.8066 371.19345 1227.9986 385 1228 L 1385 1228 C 1398.8065 1227.999 1409.9986 1216.8066 1410 1203 L 1410 488.80859 C 1409.982 475.33135 1399.2846 464.2939 1385.8145 463.85352 C 1385.5433 463.83412 1385.2717 463.81909 1385 463.80859 L 889.9082 463.80859 L 538.55078 463.80859 L 385 463.80859 z M 479.14648 513.80859 L 889.9082 513.80859 L 1290.8535 513.80859 L 885 745.69336 L 479.14648 513.80859 z M 410 531.88477 L 872.59766 796.19336 C 880.28303 800.58389 889.71697 800.58389 897.40234 796.19336 L 1360 531.88477 L 1360 1178 L 410 1178 L 410 531.88477 z "
       transform="translate(0,-947.63784)"
       id="rect4187" />
  </g>
</svg>
