<svg xmlns="http://www.w3.org/2000/svg" width="2000" height="2000"><g transform="translate(0 947.638)"><rect width="1800" height="1460" x="100" y="-677.638" rx="329.651" ry="328.5" fill="#fff" stroke="#000" stroke-width="120" stroke-linecap="round"/><g color="#000" font-weight="400" font-family="sans-serif" stroke="#000" stroke-linecap="round"><path d="M617.972-400.601h385.587c-53.584 33.412-91.006 64.126-115.713 92.986-27.626 32.271-39.502 62.537-39.847 90.995-.69 56.917 43.32 103.72 87.089 148.545 43.769 44.826 87.403 88.112 92.236 134.132 2.417 23.01-4.204 47.213-25.991 74.693-21.596 27.238-58.302 57.333-115.081 90.584h-385.35c47.42-29.443 79.701-56.674 100.263-82.608 23.32-29.414 31.479-57.55 28.7-84.01-5.559-52.922-52.218-97.105-95.82-141.76-43.602-44.654-84.043-89.346-83.435-139.42.303-25.037 10.513-52.142 36.76-82.801 26.037-30.414 67.925-64.053 130.602-101.336zm-3.565-12.838l-1.512.898c-64.281 38.092-107.649 72.655-135.276 104.926-27.627 32.271-39.502 62.537-39.847 90.995-.69 56.917 43.317 103.72 87.086 148.545 43.77 44.826 87.405 88.112 92.24 134.132 2.416 23.01-4.205 47.213-25.992 74.693-21.787 27.48-58.89 57.857-116.533 91.459l-20.523 11.963h435.717l1.5-.873c58.473-34.086 96.805-65.16 120.126-94.573 23.32-29.414 31.478-57.55 28.699-84.01-5.559-52.922-52.218-97.105-95.82-141.76-43.601-44.654-84.042-89.346-83.435-139.42.304-25.037 10.513-52.142 36.76-82.801 26.248-30.66 68.544-64.587 132.07-102.231l20.151-11.943z" style="line-height:normal;text-indent:0;text-align:start;text-decoration-line:none;text-decoration-style:solid;text-decoration-color:#000;text-transform:none;block-progression:tb;white-space:normal;isolation:auto;mix-blend-mode:normal;solid-color:#000;solid-opacity:1" overflow="visible" stroke-width="39.2105"/><path d="M697.142 101.845v12.838H942.48v-12.838zm-35.399-129.49v12.837h236.374v-12.838zm-115.835-129.49v12.838h244.439v-12.837zm9.187-129.49v12.837H791.14v-12.838z" style="line-height:normal;text-indent:0;text-align:start;text-decoration-line:none;text-decoration-style:solid;text-decoration-color:#000;text-transform:none;block-progression:tb;white-space:normal;isolation:auto;mix-blend-mode:normal;solid-color:#000;solid-opacity:1" overflow="visible" stroke-width="11.203000000000001"/></g></g></svg>