<?xml version="1.0" encoding="UTF-8" standalone="no"?>
<!-- Created with Inkscape (http://www.inkscape.org/) -->

<svg
   xmlns:dc="http://purl.org/dc/elements/1.1/"
   xmlns:cc="http://creativecommons.org/ns#"
   xmlns:rdf="http://www.w3.org/1999/02/22-rdf-syntax-ns#"
   xmlns:svg="http://www.w3.org/2000/svg"
   xmlns="http://www.w3.org/2000/svg"
   xmlns:sodipodi="http://sodipodi.sourceforge.net/DTD/sodipodi-0.dtd"
   xmlns:inkscape="http://www.inkscape.org/namespaces/inkscape"
   width="2000"
   height="2000"
   viewBox="0 0 2000 2000"
   id="svg2"
   version="1.1"
   inkscape:version="0.91 r13725"
   sodipodi:docname="script-task.svg">
  <defs
     id="defs4" />
  <sodipodi:namedview
     id="base"
     pagecolor="#ffffff"
     bordercolor="#666666"
     borderopacity="1.0"
     inkscape:pageopacity="0.0"
     inkscape:pageshadow="2"
     inkscape:zoom="0.61447579"
     inkscape:cx="613.96083"
     inkscape:cy="1111.5623"
     inkscape:document-units="px"
     inkscape:current-layer="layer1"
     showgrid="true"
     units="px"
     showguides="false"
     inkscape:window-width="1878"
     inkscape:window-height="1035"
     inkscape:window-x="42"
     inkscape:window-y="0"
     inkscape:window-maximized="0">
    <inkscape:grid
       type="xygrid"
       id="grid4008"
       empspacing="20"
       dotted="false" />
  </sodipodi:namedview>
  <metadata
     id="metadata7">
    <rdf:RDF>
      <cc:Work
         rdf:about="">
        <dc:format>image/svg+xml</dc:format>
        <dc:type
           rdf:resource="http://purl.org/dc/dcmitype/StillImage" />
        <dc:title />
        <cc:license
           rdf:resource="https://github.com/bpmn-io/bpmn-font/blob/master/LICENSE" />
        <dc:creator>
          <cc:Agent>
            <dc:title>Jörg Dotzki</dc:title>
          </cc:Agent>
        </dc:creator>
        <dc:subject>
          <rdf:Bag>
            <rdf:li>BPMN</rdf:li>
            <rdf:li>bpmn-io</rdf:li>
            <rdf:li>bpmn.io</rdf:li>
            <rdf:li>Font</rdf:li>
          </rdf:Bag>
        </dc:subject>
      </cc:Work>
    </rdf:RDF>
  </metadata>
  <g
     inkscape:label="Ebene 1"
     inkscape:groupmode="layer"
     id="layer1"
     transform="translate(0,947.63784)">
    <path
       style="color:#000000;font-style:normal;font-variant:normal;font-weight:normal;font-stretch:normal;font-size:medium;line-height:normal;font-family:sans-serif;text-indent:0;text-align:start;text-decoration:none;text-decoration-line:none;text-decoration-style:solid;text-decoration-color:#000000;letter-spacing:normal;word-spacing:normal;text-transform:none;direction:ltr;block-progression:tb;writing-mode:lr-tb;baseline-shift:baseline;text-anchor:start;white-space:normal;clip-rule:nonzero;display:inline;overflow:visible;visibility:visible;opacity:1;isolation:auto;mix-blend-mode:normal;color-interpolation:sRGB;color-interpolation-filters:linearRGB;solid-color:#000000;solid-opacity:1;fill:#000000;fill-opacity:1;fill-rule:nonzero;stroke:none;stroke-width:119.99999237;stroke-linecap:round;stroke-linejoin:miter;stroke-miterlimit:4;stroke-dasharray:none;stroke-dashoffset:0;stroke-opacity:1;color-rendering:auto;image-rendering:auto;shape-rendering:auto;text-rendering:auto;enable-background:accumulate"
       d="M 429.65039 210 C 214.93394 210 40 384.19599 40 598.5 L 40 1401.5 C 40 1615.804 214.93394 1790 429.65039 1790 L 1570.3496 1790 C 1785.0661 1790 1960 1615.804 1960 1401.5 L 1960 598.5 C 1960 384.19599 1785.0661 210 1570.3496 210 L 429.65039 210 z M 429.65039 330 L 1570.3496 330 C 1720.8866 330 1840 448.82601 1840 598.5 L 1840 1401.5 C 1840 1551.174 1720.8866 1670 1570.3496 1670 L 429.65039 1670 C 279.11336 1670 160 1551.174 160 1401.5 L 160 598.5 C 160 448.82601 279.11336 330 429.65039 330 z M 604.64453 512.05859 L 603.03516 513.01367 C 534.61082 553.56167 488.44679 590.3519 459.03906 624.70312 C 429.63132 659.05435 416.99033 691.2716 416.62305 721.56445 C 415.8885 782.15013 462.73389 831.96831 509.32422 879.68359 C 555.91455 927.39886 602.36248 973.47595 607.50781 1022.4629 C 610.08046 1046.9564 603.03317 1072.7174 579.8418 1101.9688 C 556.65043 1131.2201 517.15541 1163.5562 455.79688 1199.3242 L 433.95117 1212.0586 L 897.75391 1212.0586 L 899.34961 1211.1289 C 961.59219 1174.8456 1002.3954 1141.7688 1027.2188 1110.459 C 1052.0421 1079.1492 1060.7279 1049.2016 1057.7695 1021.0352 C 1051.8525 964.7022 1002.1858 917.66976 955.77344 870.13672 C 909.36106 822.6037 866.31273 775.03066 866.95898 721.72852 C 867.2821 695.07745 878.15056 666.22771 906.08984 633.5918 C 934.02913 600.95588 979.0521 564.84077 1046.6719 524.76953 L 1068.123 512.05859 L 604.64453 512.05859 z M 608.43945 525.72266 L 1018.8809 525.72266 C 961.84195 561.28799 922.00851 593.98263 895.70898 624.70312 C 866.30124 659.05435 853.6622 691.2716 853.29492 721.56445 C 852.56036 782.15013 899.40576 831.96831 945.99609 879.68359 C 992.58642 927.39886 1039.0324 973.47595 1044.1777 1022.4629 C 1046.7503 1046.9564 1039.703 1072.7174 1016.5117 1101.9688 C 993.524 1130.9632 954.45108 1162.9985 894.01172 1198.3926 L 483.82422 1198.3926 C 534.30024 1167.0522 568.6616 1138.0654 590.54883 1110.459 C 615.37222 1079.1492 624.05611 1049.2016 621.09766 1021.0352 C 615.18074 964.7022 565.51394 917.66976 519.10156 870.13672 C 472.68917 822.6037 429.64282 775.03066 430.28906 721.72852 C 430.61219 695.07745 441.48064 666.22771 469.41992 633.5918 C 497.13492 601.21787 541.72202 565.40924 608.43945 525.72266 z M 548.66406 647.04492 C 539.42412 646.91428 539.42412 660.84162 548.66406 660.71094 L 793.96289 660.71094 C 803.20284 660.84158 803.20284 646.91424 793.96289 647.04492 L 739.16211 647.04492 L 548.66406 647.04492 z M 573.4668 784.88281 C 564.22685 784.75217 564.22685 798.67951 573.4668 798.54883 L 796.69531 798.54883 C 805.93525 798.67947 805.93525 784.75213 796.69531 784.88281 L 573.4668 784.88281 z M 647.87695 922.71875 C 638.637 922.58811 638.637 936.51545 647.87695 936.38477 L 895.91016 936.38477 C 905.15011 936.51541 905.15011 922.58807 895.91016 922.71875 L 647.87695 922.71875 z M 697.48242 1060.5566 C 688.24247 1060.426 688.24247 1074.3533 697.48242 1074.2227 L 945.51562 1074.2227 C 954.75558 1074.3533 954.75558 1060.426 945.51562 1060.5566 L 697.48242 1060.5566 z "
       transform="translate(0,-947.63784)"
       id="rect4187" />
  </g>
</svg>
