<?xml version="1.0" encoding="UTF-8" standalone="no"?>
<!-- Created with Inkscape (http://www.inkscape.org/) -->

<svg
   xmlns:dc="http://purl.org/dc/elements/1.1/"
   xmlns:cc="http://creativecommons.org/ns#"
   xmlns:rdf="http://www.w3.org/1999/02/22-rdf-syntax-ns#"
   xmlns:svg="http://www.w3.org/2000/svg"
   xmlns="http://www.w3.org/2000/svg"
   xmlns:sodipodi="http://sodipodi.sourceforge.net/DTD/sodipodi-0.dtd"
   xmlns:inkscape="http://www.inkscape.org/namespaces/inkscape"
   width="2000"
   height="2000"
   viewBox="0 0 2000 2000"
   id="svg2"
   version="1.1"
   inkscape:version="0.91 r"
   sodipodi:docname="script-task.svg">
  <defs
     id="defs4" />
  <sodipodi:namedview
     id="base"
     pagecolor="#ffffff"
     bordercolor="#666666"
     borderopacity="1.0"
     inkscape:pageopacity="0.0"
     inkscape:pageshadow="2"
     inkscape:zoom="0.15361895"
     inkscape:cx="1827.719"
     inkscape:cy="142.32453"
     inkscape:document-units="px"
     inkscape:current-layer="layer1"
     showgrid="true"
     units="px"
     showguides="false"
     inkscape:window-width="1878"
     inkscape:window-height="1028"
     inkscape:window-x="40"
     inkscape:window-y="0"
     inkscape:window-maximized="0">
    <inkscape:grid
       type="xygrid"
       id="grid4008"
       empspacing="20"
       dotted="false" />
  </sodipodi:namedview>
  <metadata
     id="metadata7">
    <rdf:RDF>
      <cc:Work
         rdf:about="">
        <dc:format>image/svg+xml</dc:format>
        <dc:type
           rdf:resource="http://purl.org/dc/dcmitype/StillImage" />
        <dc:title></dc:title>
        <cc:license
           rdf:resource="https://github.com/bpmn-io/bpmn-font/blob/master/LICENSE" />
        <dc:creator>
          <cc:Agent>
            <dc:title>Jörg Dotzki</dc:title>
          </cc:Agent>
        </dc:creator>
        <dc:subject>
          <rdf:Bag>
            <rdf:li>BPMN</rdf:li>
            <rdf:li>bpmn-io</rdf:li>
            <rdf:li>bpmn.io</rdf:li>
            <rdf:li>Font</rdf:li>
          </rdf:Bag>
        </dc:subject>
      </cc:Work>
    </rdf:RDF>
  </metadata>
  <g
     inkscape:label="Ebene 1"
     inkscape:groupmode="layer"
     id="layer1"
     transform="translate(0,947.63784)">
    <path
       style="color:#000000;font-style:normal;font-variant:normal;font-weight:normal;font-stretch:normal;font-size:medium;line-height:normal;font-family:sans-serif;text-indent:0;text-align:start;text-decoration:none;text-decoration-line:none;text-decoration-style:solid;text-decoration-color:#000000;letter-spacing:normal;word-spacing:normal;text-transform:none;direction:ltr;block-progression:tb;writing-mode:lr-tb;baseline-shift:baseline;text-anchor:start;white-space:normal;clip-rule:nonzero;display:inline;overflow:visible;visibility:visible;opacity:1;isolation:auto;mix-blend-mode:normal;color-interpolation:sRGB;color-interpolation-filters:linearRGB;solid-color:#000000;solid-opacity:1;fill:#000000;fill-opacity:1;fill-rule:nonzero;stroke:none;stroke-width:119.99999237;stroke-linecap:round;stroke-linejoin:miter;stroke-miterlimit:4;stroke-dasharray:none;stroke-dashoffset:0;stroke-opacity:1;color-rendering:auto;image-rendering:auto;shape-rendering:auto;text-rendering:auto;enable-background:accumulate"
       d="M 429.65039 210 C 214.93394 210 40 384.19599 40 598.5 L 40 1401.5 C 40 1615.804 214.93394 1790 429.65039 1790 L 1570.3496 1790 C 1785.0661 1790 1960 1615.804 1960 1401.5 L 1960 598.5 C 1960 384.19599 1785.0661 210 1570.3496 210 L 429.65039 210 z M 429.65039 330 L 1570.3496 330 C 1720.8866 330 1840 448.82601 1840 598.5 L 1840 1401.5 C 1840 1551.174 1720.8866 1670 1570.3496 1670 L 429.65039 1670 C 279.11336 1670 160 1551.174 160 1401.5 L 160 598.5 C 160 448.82601 279.11336 330 429.65039 330 z M 609.02539 514.59375 L 604.39844 517.3418 L 602.88672 518.23828 C 537.46655 557.00737 492.44556 592.55862 462.72656 627.27344 C 432.96641 662.0363 418.57708 697.03856 418.16797 730.78125 C 417.35381 797.93172 466.88473 848.25333 510.83008 893.25977 C 554.742 938.23192 593.9129 980.64425 597.59961 1015.7441 C 599.4787 1033.6344 595.24908 1051.6029 575.74219 1076.207 C 556.31737 1100.7077 521.06303 1130.0538 464.69922 1162.9102 L 381.48633 1211.4141 L 895.05664 1211.4141 L 901.13477 1207.8789 L 901.14062 1207.873 C 960.87194 1173.0535 1001.114 1140.8852 1026.7559 1108.543 C 1052.4742 1076.1043 1062.9364 1042.1655 1059.5898 1010.3047 C 1052.9591 947.1752 1001.5344 901.17402 958.30078 856.89648 C 915.0336 812.58459 879.96199 770.78983 880.43945 731.41016 C 880.68054 711.53002 888.32165 689.35239 912.49023 661.12109 C 936.61742 632.93802 977.29802 599.96454 1039.6621 563.00781 L 1039.6621 563.00586 L 1121.3535 514.59375 L 609.02539 514.59375 z M 623.5 566.64062 L 939.7832 566.64062 C 911.92763 587.40988 889.90212 607.47532 872.95312 627.27344 C 843.193 662.0363 828.80561 697.03855 828.39648 730.78125 C 827.58237 797.93229 877.11542 848.25359 921.06055 893.25977 C 964.97223 938.23164 1004.1394 980.64358 1007.8262 1015.7441 C 1009.7053 1033.6345 1005.4775 1051.6029 985.9707 1076.207 C 967.26393 1099.8019 933.62176 1127.9569 880.78125 1159.3672 L 563.68945 1159.3672 C 585.68642 1142.2118 603.16127 1125.4017 616.52734 1108.543 C 642.2457 1076.1043 652.70977 1042.1674 649.36328 1010.3066 C 642.7325 947.1772 591.30589 901.17402 548.07227 856.89648 C 504.8051 812.5846 469.73545 770.7918 470.21289 731.41211 C 470.45393 711.53201 478.09513 689.35435 502.26367 661.12305 C 525.58066 633.88645 564.59221 602.11212 623.5 566.64062 z M 549.49414 655.41016 L 549.49414 679.45117 L 796.74023 679.45117 L 796.74023 655.41016 L 549.49414 655.41016 z M 540.30664 784.90234 L 540.30664 808.94336 L 795.94727 808.94336 L 795.94727 784.90234 L 540.30664 784.90234 z M 656.14062 914.39062 L 656.14062 938.43164 L 903.71875 938.43164 L 903.71875 914.39062 L 656.14062 914.39062 z M 691.54102 1043.8828 L 691.54102 1067.9219 L 948.08008 1067.9219 L 948.08008 1043.8828 L 691.54102 1043.8828 z "
       transform="translate(0,-947.63784)"
       id="rect4187" />
    <g
       id="g4145"
       transform="matrix(0.56014517,0,0,0.56014517,183.64582,-644.77878)">
      <g
         style="display:inline"
         transform="translate(0,947.63784)"
         id="layer1-9"
         inkscape:label="Ebene 1" />
      <g
         style="display:inline"
         inkscape:label="Ebene 2"
         id="layer3" />
    </g>
  </g>
</svg>
