<?xml version="1.0" encoding="UTF-8" standalone="no"?>
<!-- Created with Inkscape (http://www.inkscape.org/) -->

<svg
   xmlns:dc="http://purl.org/dc/elements/1.1/"
   xmlns:cc="http://creativecommons.org/ns#"
   xmlns:rdf="http://www.w3.org/1999/02/22-rdf-syntax-ns#"
   xmlns:svg="http://www.w3.org/2000/svg"
   xmlns="http://www.w3.org/2000/svg"
   xmlns:sodipodi="http://sodipodi.sourceforge.net/DTD/sodipodi-0.dtd"
   xmlns:inkscape="http://www.inkscape.org/namespaces/inkscape"
   width="2000"
   height="2000"
   viewBox="0 0 2000 2000"
   id="svg2"
   version="1.1"
   inkscape:version="0.91 r13725"
   sodipodi:docname="service-task-2.svg">
  <defs
     id="defs4" />
  <sodipodi:namedview
     id="base"
     pagecolor="#ffffff"
     bordercolor="#666666"
     borderopacity="1.0"
     inkscape:pageopacity="0.0"
     inkscape:pageshadow="2"
     inkscape:zoom="0.4345"
     inkscape:cx="164.55696"
     inkscape:cy="1000"
     inkscape:document-units="px"
     inkscape:current-layer="layer1"
     showgrid="true"
     units="px"
     showguides="false"
     inkscape:window-width="1878"
     inkscape:window-height="1035"
     inkscape:window-x="42"
     inkscape:window-y="0"
     inkscape:window-maximized="0">
    <inkscape:grid
       type="xygrid"
       id="grid4008"
       empspacing="20"
       dotted="false" />
  </sodipodi:namedview>
  <metadata
     id="metadata7">
    <rdf:RDF>
      <cc:Work
         rdf:about="">
        <dc:format>image/svg+xml</dc:format>
        <dc:type
           rdf:resource="http://purl.org/dc/dcmitype/StillImage" />
        <dc:title></dc:title>
        <cc:license
           rdf:resource="https://github.com/bpmn-io/bpmn-font/blob/master/LICENSE" />
        <dc:creator>
          <cc:Agent>
            <dc:title>Jörg Dotzki</dc:title>
          </cc:Agent>
        </dc:creator>
        <dc:subject>
          <rdf:Bag>
            <rdf:li>BPMN</rdf:li>
            <rdf:li>bpmn-io</rdf:li>
            <rdf:li>bpmn.io</rdf:li>
            <rdf:li>Font</rdf:li>
          </rdf:Bag>
        </dc:subject>
      </cc:Work>
    </rdf:RDF>
  </metadata>
  <g
     inkscape:label="Ebene 1"
     inkscape:groupmode="layer"
     id="layer1"
     transform="translate(0,947.63784)">
    <path
       style="color:#000000;font-style:normal;font-variant:normal;font-weight:normal;font-stretch:normal;font-size:medium;line-height:normal;font-family:sans-serif;text-indent:0;text-align:start;text-decoration:none;text-decoration-line:none;text-decoration-style:solid;text-decoration-color:#000000;letter-spacing:normal;word-spacing:normal;text-transform:none;direction:ltr;block-progression:tb;writing-mode:lr-tb;baseline-shift:baseline;text-anchor:start;white-space:normal;clip-rule:nonzero;display:inline;overflow:visible;visibility:visible;opacity:1;isolation:auto;mix-blend-mode:normal;color-interpolation:sRGB;color-interpolation-filters:linearRGB;solid-color:#000000;solid-opacity:1;fill:#000000;fill-opacity:1;fill-rule:nonzero;stroke:none;stroke-width:80;stroke-linecap:round;stroke-linejoin:miter;stroke-miterlimit:4;stroke-dasharray:none;stroke-dashoffset:0;stroke-opacity:1;color-rendering:auto;image-rendering:auto;shape-rendering:auto;text-rendering:auto;enable-background:accumulate"
       d="M 455 260 C 259.02189 260 100 419.02189 100 615 L 100 1385 C 100 1580.9781 259.02189 1740 455 1740 L 1545 1740 C 1740.9781 1740 1900 1580.9781 1900 1385 L 1900 615 C 1900 419.02189 1740.9781 260 1545 260 L 455 260 z M 455 340 L 1545 340 C 1698.0419 340 1820 461.95811 1820 615 L 1820 1385 C 1820 1538.0419 1698.0419 1660 1545 1660 L 455 1660 C 301.95811 1660 180 1538.0419 180 1385 L 180 615 C 180 461.95811 301.95811 340 455 340 z M 522.05078 441.21484 L 522.06445 446.22852 L 522.2207 506.70898 C 509.26498 509.62622 496.3799 513.58616 483.73047 518.86133 L 483.72656 518.86328 L 483.72461 518.86328 C 471.07314 524.15507 459.26387 530.55391 448.17578 537.68945 L 401.13086 491.21094 L 332.02734 560.71289 L 379.02539 607.14062 C 364.65447 629.84326 354.38654 654.87676 348.71094 681.11914 L 282.02344 681.24023 L 282.02344 779.05273 L 349.29883 778.81055 C 352.21616 791.64346 356.19042 804.48713 361.5 817.03516 L 361.5 817.03125 C 366.82215 829.62698 373.21606 841.36965 380.41211 852.36328 L 332.19922 900.38867 L 402.06641 969.05469 L 446.33398 924.99219 L 446.33398 941.0625 L 489.27734 940.9082 C 497.90839 944.25768 506.74069 947.09235 515.72852 949.38672 C 518.10111 958.33146 521.0217 967.24619 524.57812 976.03125 L 524.59766 1019.498 L 529.55859 1019.5352 C 532.35611 1019.5563 536.15031 1019.5603 539.50391 1019.5723 L 496.50977 1062.4004 L 566.37695 1131.0645 L 614.4668 1083.1992 C 637.29064 1097.5809 662.51641 1107.7819 688.87891 1113.4199 L 688.91016 1181.5059 L 693.86914 1181.5449 C 723.32633 1181.7682 782.12109 1181.5742 782.12109 1181.5742 L 777.10547 1176.5742 L 787.10547 1176.5742 L 787.10547 1171.5586 L 787.10547 1112.8555 C 800.04047 1110.0147 812.91509 1106.01 825.51367 1100.7812 L 825.52148 1100.7773 L 825.5293 1100.7734 C 838.18751 1095.4686 850.02796 1089.0615 861.1875 1081.9043 L 909.20312 1129.2441 L 978.34375 1059.8398 L 930.28516 1012.4824 C 944.68216 989.73604 954.92954 964.69066 960.625 938.44531 L 1025.8613 938.04492 L 1025.8613 840.32617 L 960.00977 840.72852 C 957.10232 827.89966 953.16989 815.14188 947.83594 802.55469 L 947.83398 802.55273 C 942.50831 789.96448 936.11162 778.20339 928.91211 767.16016 L 974.41602 721.53906 L 904.58203 652.75391 L 861.55078 695.93359 L 861.55078 678.31445 L 856.51953 678.3457 L 819.56836 678.57031 C 811.11048 675.30576 802.46145 672.53557 793.66602 670.2793 C 791.32548 661.46634 788.43763 652.70295 784.93164 644.01367 L 785.16797 603.22461 L 766.51953 603.22461 L 810.10547 559.5293 L 740.27148 490.74219 L 694.82227 536.34766 C 672.01586 522.05462 646.80963 511.8317 620.48242 506.17188 L 620.85742 441.21484 L 522.05078 441.21484 z M 532.07812 451.21484 L 610.79883 451.21484 L 610.43555 514.28906 L 614.49609 515.08594 C 642.37164 520.55593 669.05786 531.37532 692.83594 546.87305 L 696.24023 549.0918 L 740.33789 504.84375 L 795.91992 559.5918 L 752.39453 603.22461 L 686.36133 603.22461 L 686.45898 640.71289 C 647.34718 590.70146 577.9264 570.65536 516.53516 596.32617 C 443.15978 627.00135 408.54337 711.54339 439.39062 784.52344 C 449.58085 808.61009 465.74314 828.43401 485.36328 843.17773 L 446.33398 843.25 L 446.33398 910.88281 L 402.02344 954.98828 L 346.41797 900.3418 L 393.27734 853.66602 L 390.94141 850.23633 C 383.14648 838.79052 376.33112 826.44169 370.71094 813.14062 L 370.71094 813.13867 L 370.71094 813.13672 C 365.12261 799.92992 360.99898 786.34017 358.15625 772.77148 L 357.32031 768.7832 L 292.02344 769.01758 L 292.02344 691.2207 L 356.83203 691.10352 L 357.62695 687.08008 C 363.11109 659.29679 373.96806 632.82476 389.56055 609.14453 L 391.81641 605.71875 L 346.19141 560.65039 L 401.19336 505.33203 L 446.87891 550.4668 L 450.26953 548.20312 C 461.84286 540.48063 474.25891 533.66335 487.57812 528.0918 L 487.58398 528.08984 C 500.91367 522.53143 514.52901 518.42584 528.24609 515.57812 L 532.24023 514.74805 L 532.07812 451.21484 z M 570.83398 595.12305 C 617.00388 594.63311 661.40205 617.99191 686.50391 657.98438 L 686.53125 668.7207 C 673.57575 671.63758 660.69078 675.59578 648.04102 680.87109 L 648.03711 680.87109 L 648.03516 680.87305 C 635.38286 686.16518 623.5729 692.56315 612.48438 699.69922 L 565.43945 653.2207 L 496.33594 722.72266 L 543.33594 769.15039 C 528.96537 791.85256 518.6991 816.88724 513.02344 843.12891 L 503.02539 843.14648 C 479.46248 829.02822 460.04948 807.68839 448.60156 780.62891 C 419.87385 712.66338 452.00808 634.14045 520.39258 605.55273 L 520.39453 605.55273 C 536.87317 598.66218 553.97161 595.30198 570.83398 595.12305 z M 696.38867 613.22461 L 775.10938 613.22461 L 774.92773 644.92773 L 774.92578 644.92773 L 774.74609 676.29883 L 778.80664 677.0957 C 780.407 677.40974 782.00403 677.74342 783.59961 678.0957 C 783.60347 678.09655 783.60746 678.09681 783.61133 678.09766 C 785.20304 678.44918 786.79316 678.81981 788.38086 679.20508 L 789.64648 679.51172 C 798.93916 681.82467 808.06603 684.74673 816.9707 688.23242 C 821.78866 690.11831 826.54072 692.17191 831.21484 694.38867 C 831.24036 694.40078 831.2655 694.41366 831.29102 694.42578 C 834.38101 695.8927 837.43746 697.43018 840.45703 699.03906 C 840.474 699.0481 840.49085 699.05736 840.50781 699.06641 C 842.01211 699.86843 843.50844 700.68852 844.99414 701.52539 C 844.99618 701.52654 844.99796 701.52815 845 701.5293 C 848.00434 703.22177 850.97081 704.98502 853.89453 706.81836 C 854.98213 707.50035 856.07063 708.18161 857.14648 708.88281 L 860.55078 711.10156 L 860.61719 711.03516 L 861.55078 711.61914 L 861.55078 710.09766 L 904.64844 666.85352 L 960.23047 721.60156 L 916.07422 765.86719 L 918.38867 769.2832 C 926.18802 780.79386 933.00589 793.16427 938.62695 806.45117 L 938.62695 806.45312 L 938.62695 806.45508 C 944.24284 819.70715 948.30823 833.17027 951.15234 846.77539 L 951.98828 850.77734 L 1015.8613 850.38672 L 1015.8613 928.10547 L 952.50586 928.49609 L 951.71094 932.49805 C 946.19763 960.28792 935.36815 986.75967 919.74805 1010.4824 L 917.49023 1013.9121 L 964.16406 1059.9043 L 909.14062 1115.1387 L 862.48828 1069.1426 L 859.10352 1071.3906 C 847.43858 1079.1408 834.98897 1085.9666 821.66406 1091.5508 C 808.3493 1097.0756 794.74171 1101.2405 781.12695 1103.959 L 777.10547 1104.7617 L 777.10547 1171.5723 C 771.455 1171.5899 727.60934 1171.7043 698.9043 1171.5469 L 698.875 1105.2832 L 694.83594 1104.4941 C 666.93022 1099.0449 640.25181 1088.2676 616.48242 1072.6836 L 613.08984 1070.459 L 566.33203 1117 L 510.72656 1062.3516 L 553.62695 1019.6211 L 560.26367 1019.6348 L 557.58398 1015.6797 L 557.58789 1015.6758 L 556.09766 1013.4863 L 555.05664 1011.9531 C 554.88386 1011.6985 554.71868 1011.4371 554.54688 1011.1816 C 552.79511 1008.5769 551.08769 1005.9304 549.43945 1003.2324 C 549.18597 1002.8174 548.94237 1002.3938 548.69141 1001.9766 C 548.05137 1000.9127 547.4125 999.84981 546.78906 998.77148 C 546.56594 998.38545 546.35183 997.99142 546.13086 997.60352 C 544.63434 994.97723 543.17848 992.31387 541.7832 989.60156 C 541.35279 988.76461 540.93809 987.91356 540.51758 987.06836 C 540.1555 986.3408 539.78433 985.62041 539.42969 984.88672 C 537.88882 981.69816 536.41806 978.45366 535.02148 975.14844 L 535.02148 975.14648 C 535.02148 975.14648 535.02148 975.14453 535.02148 975.14453 C 534.76889 974.54757 534.50601 973.87784 534.20312 973.14062 C 530.44968 964.0041 527.37777 954.69856 524.94922 945.34961 L 524.61133 944.01758 C 524.22785 942.50339 523.85984 940.98958 523.50781 939.47852 C 523.14534 937.91267 522.79487 936.34716 522.4668 934.78125 L 521.63086 930.79297 L 517.55469 930.80664 L 490.17578 930.9043 L 490.17578 930.90625 L 456.33398 931.02734 L 456.33398 925.21484 L 456.33398 853.23242 L 521.14258 853.11523 L 521.9375 849.08984 C 527.42165 821.3065 538.27865 794.83447 553.87109 771.1543 L 556.12695 767.72852 L 510.50195 722.66016 L 565.50391 667.33984 L 611.18945 712.47656 L 614.58008 710.21289 C 626.1535 702.49032 638.56956 695.67112 651.88867 690.09961 L 651.89453 690.09766 C 665.22379 684.53943 678.84106 680.43569 692.55859 677.58789 L 696.55273 676.75977 L 696.38867 613.22461 z M 851.55078 688.37695 L 851.55078 693.79297 C 848.30484 691.92879 845.01978 690.1405 841.68945 688.4375 L 851.55078 688.37695 z M 736.98242 747.13867 C 735.81689 747.13489 734.65004 747.14537 733.48242 747.16992 L 733.48242 747.16211 C 733.68304 747.15811 733.66837 747.15711 733.43555 747.16211 C 732.94074 747.17291 732.53963 747.19382 732.23047 747.20312 L 732.23047 747.21094 C 730.26953 747.26921 728.30625 747.35899 726.3418 747.49805 L 726.3418 747.49023 C 726.3418 747.49023 726.33984 747.49023 726.33984 747.49023 C 726.31064 747.49223 726.30319 747.49409 726.27539 747.49609 C 725.96669 747.51919 725.71497 747.54319 725.56445 747.55469 L 725.56445 747.55664 C 725.56445 747.55664 725.5625 747.55664 725.5625 747.55664 L 725.5625 747.5625 C 710.5429 748.70774 695.46446 752.22309 680.8457 758.33594 C 631.31642 779.04206 599.45448 824.29235 593.45898 873.96289 L 593.4375 873.96094 C 593.4215 874.09366 593.41637 874.15357 593.41797 874.14062 L 593.4375 874.14258 C 593.2473 875.73522 593.08595 877.33257 592.94922 878.93359 L 592.92969 878.93164 C 592.92469 878.98494 592.91459 879.09745 592.90039 879.26953 L 592.91992 879.27148 C 592.64394 882.59608 592.48713 885.93758 592.44531 889.28906 L 592.42773 889.28906 C 592.42726 889.32824 592.42388 889.43954 592.42188 889.62305 L 592.43945 889.62305 C 592.40589 892.93685 592.48932 896.25972 592.68945 899.58789 L 592.67773 899.58789 C 592.67773 899.58789 592.67773 899.58984 592.67773 899.58984 C 592.68773 899.74923 592.69638 899.92778 592.70898 900.125 L 592.7207 900.125 C 592.92839 903.37319 593.25068 906.62449 593.68555 909.875 L 593.67773 909.875 C 593.71533 910.15558 593.75363 910.43571 593.79297 910.7168 C 593.79297 910.7168 593.79297 910.71875 593.79297 910.71875 L 593.79883 910.71875 C 594.02145 912.30997 594.26504 913.90058 594.54297 915.49023 L 594.53711 915.49219 C 594.57161 915.68905 594.5933 915.79303 594.5957 915.80664 L 594.60156 915.80469 C 594.86413 917.28675 595.15764 918.76651 595.46875 920.24609 L 595.46289 920.24805 C 595.52719 920.55339 595.59445 920.87035 595.66602 921.19922 C 595.66602 921.19922 595.66602 921.20117 595.66602 921.20117 L 595.66992 921.20117 C 596.0095 922.7627 596.36744 924.3235 596.76172 925.88086 L 596.75977 925.88086 C 596.81707 926.10686 596.85697 926.24577 596.87109 926.30078 L 596.87305 926.30078 C 597.2431 927.74398 597.64305 929.18452 598.06055 930.62305 L 598.05859 930.62305 L 598.05664 930.62305 C 598.15424 930.95937 598.2538 931.2913 598.35156 931.61914 C 599.84518 936.62916 601.61954 941.60838 603.70117 946.5332 L 603.70117 946.53516 C 604.33566 948.03489 605.00199 949.5115 605.68164 950.97852 C 605.68164 950.97852 605.68164 950.98047 605.68164 950.98047 C 605.85206 951.34832 606.02232 951.70745 606.18945 952.06055 C 607.59228 955.02391 609.08513 957.91919 610.66602 960.74414 C 610.66602 960.74414 610.66602 960.74609 610.66602 960.74609 C 610.79664 960.97957 610.92537 961.20399 611.04883 961.42188 C 646.51906 1024.0034 724.64879 1051.7961 792.80664 1023.2754 C 866.15672 992.59296 900.77153 908.00024 869.92188 835.07812 L 869.92188 835.07617 C 856.78823 804.03417 833.85 779.96813 806.18555 764.91797 L 806.19727 764.89453 C 805.88191 764.72292 805.59897 764.57487 805.35352 764.44336 L 805.33984 764.4707 C 804.28147 763.90388 803.22404 763.33533 802.15234 762.79492 L 802.16016 762.78125 C 801.92826 762.66429 801.66467 762.52864 801.36719 762.38086 L 801.35352 762.4082 C 800.05228 761.76193 798.74739 761.12468 797.42773 760.51758 L 797.43555 760.49805 C 797.23686 760.40665 797.0815 760.33957 796.9707 760.28906 L 796.96094 760.31055 C 795.78522 759.77462 794.60352 759.25264 793.41406 758.74805 L 793.42188 758.72852 C 793.11032 758.59634 792.80488 758.47018 792.50586 758.3457 L 792.49805 758.36328 C 791.30414 757.86633 790.10132 757.38903 788.89453 756.92383 L 788.9043 756.89844 C 788.7903 756.85444 788.63193 756.79199 788.42969 756.71484 L 788.42188 756.73438 C 787.08761 756.22535 785.74153 755.74725 784.39258 755.27734 L 784.4043 755.24609 C 783.98735 755.10086 783.62557 754.98515 783.32422 754.88281 L 783.32031 754.89258 C 782.28401 754.5406 781.23764 754.21939 780.19336 753.89062 L 780.20312 753.85938 C 779.84883 753.74785 779.46877 753.62677 779.06055 753.50195 L 779.05273 753.52734 C 776.28507 752.68083 773.48881 751.92581 770.67188 751.24414 L 770.67969 751.21094 C 770.36252 751.13424 770.0624 751.06416 769.78125 750.99805 L 769.77539 751.02539 C 768.6248 750.75464 767.47022 750.50072 766.3125 750.25781 L 766.31836 750.22852 C 766.03697 750.16952 765.70716 750.09703 765.32422 750.01953 L 765.31641 750.05469 C 763.91121 749.77006 762.50247 749.50503 761.08789 749.26172 L 761.09375 749.22656 C 760.80321 749.17666 760.59833 749.14705 760.47852 749.12695 L 760.47266 749.1582 C 759.24852 748.95304 758.02336 748.756 756.79297 748.58203 L 756.79688 748.55859 C 756.38301 748.50019 755.98097 748.4464 755.58984 748.39453 L 755.58594 748.42383 C 754.39441 748.26552 753.20249 748.10931 752.00586 747.98047 L 752.00781 747.96484 C 751.82642 747.94534 751.58585 747.91391 751.28125 747.88281 L 751.27734 747.91211 C 749.84966 747.76566 748.42023 747.62954 746.98633 747.52539 L 746.98828 747.50977 C 746.56911 747.47947 746.20314 747.45945 745.89453 747.43945 L 745.89258 747.46094 C 744.79191 747.38936 743.69159 747.31598 742.58789 747.26953 L 742.58789 747.26367 C 742.19854 747.24737 741.78107 747.22769 741.33398 747.21289 L 741.33398 747.23047 C 739.88521 747.18208 738.43529 747.14339 736.98242 747.13867 z M 736.99219 757.11914 C 738.33098 757.12307 739.66697 757.15936 741.00195 757.20312 L 741.00195 757.20898 C 741.36275 757.22088 741.75213 757.23836 742.16992 757.25586 L 742.16992 757.23828 C 743.19852 757.28094 744.22427 757.3499 745.25 757.41602 L 745.25 757.41992 C 745.64448 757.44542 745.98257 757.46192 746.26562 757.48242 L 746.26562 757.47461 C 747.60113 757.57081 748.93206 757.6964 750.26172 757.83203 C 750.42673 757.84893 750.65384 757.87535 750.94141 757.90625 L 750.94336 757.89648 C 752.05658 758.01574 753.16499 758.15997 754.27344 758.30664 L 754.27344 758.30859 C 754.66021 758.35989 755.03561 758.40972 755.39844 758.46094 L 755.40039 758.45312 C 756.54575 758.61448 757.68667 758.79592 758.82617 758.98633 L 758.82617 758.99023 C 759.10286 759.03653 759.29677 759.06393 759.40234 759.08203 C 760.7194 759.30795 762.03157 759.55394 763.33984 759.81836 L 763.33984 759.82031 C 763.59898 759.87271 763.90797 759.94219 764.26758 760.01758 L 764.26953 760.00781 C 765.34769 760.23358 766.42265 760.47093 767.49414 760.72266 L 767.49219 760.73242 C 767.78941 760.80232 768.0679 760.86676 768.32812 760.92969 L 768.33008 760.92578 C 770.95489 761.56 773.55997 762.26269 776.13867 763.05078 L 776.13477 763.06445 C 776.46398 763.16512 776.81821 763.27851 777.19922 763.39844 L 777.20117 763.38867 C 778.17565 763.69524 779.15215 763.99396 780.11914 764.32227 L 780.10938 764.35156 C 780.50255 764.48508 780.83905 764.59522 781.11523 764.69141 L 781.11914 764.68164 C 782.37613 765.11938 783.6298 765.56675 784.87305 766.04102 L 784.86719 766.05859 C 784.97073 766.09809 785.11582 766.15689 785.30664 766.23047 L 785.3125 766.21484 C 786.43718 766.64836 787.55728 767.09347 788.66992 767.55664 L 788.66211 767.57617 C 788.9534 767.69742 789.2382 767.81784 789.51562 767.93555 L 789.52344 767.91602 C 790.63166 768.38622 791.73274 768.87359 792.82812 769.37305 L 792.82227 769.38672 C 793.0107 769.47262 793.1559 769.53799 793.25586 769.58398 L 793.26367 769.56641 C 794.49376 770.1325 795.71097 770.72542 796.92383 771.32812 L 796.91797 771.33789 C 797.13237 771.44439 797.37781 771.5705 797.65625 771.71094 L 797.66797 771.6875 C 798.66632 772.1912 799.65082 772.72164 800.63672 773.25 L 800.63086 773.25977 C 800.92819 773.41906 801.1905 773.55696 801.41602 773.67969 L 801.42383 773.66602 C 827.15498 787.67396 848.48486 810.0757 860.71094 838.97266 C 889.43628 906.87333 857.30119 985.45825 788.94727 1014.0508 L 788.94531 1014.0508 C 725.42423 1040.6312 652.76187 1014.77 619.74805 956.49219 C 619.74805 956.49219 619.74805 956.49023 619.74805 956.49023 C 619.62662 956.2761 619.50769 956.06691 619.39258 955.86133 L 619.39062 955.86133 C 617.92065 953.23321 616.53138 950.54005 615.22656 947.7832 L 615.22852 947.7832 C 615.22852 947.7832 615.22852 947.78125 615.22852 947.78125 C 615.06835 947.44316 614.9101 947.10808 614.75586 946.77539 L 614.75391 946.77539 C 614.12162 945.41039 613.5025 944.03607 612.91211 942.64062 L 612.91211 942.63867 C 612.39064 941.4049 611.89557 940.16615 611.41406 938.92578 C 611.21587 938.41511 611.01524 937.87881 610.80664 937.32031 C 609.74568 934.48053 608.78719 931.62615 607.93164 928.75977 L 607.93359 928.75977 C 607.84029 928.44699 607.7506 928.1388 607.66211 927.83398 L 607.66016 927.83398 C 607.27151 926.49661 606.90128 925.15799 606.55664 923.81641 L 606.55859 923.81641 C 606.50299 923.5996 606.46629 923.46804 606.45508 923.42383 L 606.45312 923.42383 C 606.08597 921.97626 605.75002 920.52552 605.43359 919.07422 L 605.43555 919.07422 C 605.43555 919.07422 605.43555 919.07227 605.43555 919.07227 C 605.37415 918.7903 605.31289 918.49741 605.24805 918.18945 L 605.24609 918.18945 C 604.95602 916.81389 604.68447 915.4383 604.43945 914.06055 L 604.44336 914.06055 C 604.40976 913.87106 604.38977 913.77189 604.38867 913.76562 L 604.38477 913.76562 C 604.12547 912.28812 603.89547 910.80892 603.6875 909.33008 L 603.69531 909.33008 C 603.69531 909.33008 603.69531 909.32812 603.69531 909.32812 C 603.65891 909.06881 603.62311 908.8096 603.58789 908.54688 L 603.58203 908.54688 C 603.17558 905.52544 602.87327 902.50322 602.67773 899.48438 L 602.68945 899.48438 C 602.68045 899.33935 602.6694 899.17215 602.6582 898.98633 C 602.6582 898.98633 602.6582 898.98438 602.6582 898.98438 L 602.64844 898.98438 C 602.45982 895.89044 602.3797 892.80091 602.4082 889.7207 L 602.42188 889.7207 C 602.42218 889.68923 602.42573 889.5859 602.42773 889.41016 L 602.41211 889.41016 C 602.44829 886.29179 602.59343 883.18482 602.84766 880.0918 L 602.86523 880.09375 C 602.86923 880.04704 602.88063 879.9426 602.89453 879.7793 L 602.875 879.77734 C 603.00091 878.28888 603.14858 876.80288 603.32422 875.32227 L 603.34766 875.32422 C 603.36296 875.19549 603.36929 875.1393 603.36719 875.15625 L 603.34375 875.1543 C 608.88553 828.93845 638.5271 786.8661 684.70312 767.5625 L 684.70508 767.5625 C 698.3176 761.87041 712.35125 758.59302 726.32617 757.51953 L 726.32617 757.52734 C 726.63457 757.50374 726.84165 757.48426 726.99023 757.47266 C 727.00333 757.47166 727.03693 757.4678 727.04883 757.4668 C 727.04883 757.4668 727.05078 757.4668 727.05078 757.4668 L 727.05078 757.45898 C 728.8791 757.32852 730.70633 757.24476 732.53125 757.18945 L 732.53125 757.19922 C 733.00224 757.18512 733.39187 757.1647 733.69727 757.1582 L 733.69727 757.14844 C 734.79634 757.12469 735.89514 757.11592 736.99219 757.11914 z M 534.58789 997.35156 C 534.82383 997.79019 535.07007 998.21984 535.30859 998.65625 C 535.82289 999.60268 536.34316 1000.5442 536.86914 1001.4805 C 536.93572 1001.5982 537.0016 1001.7164 537.06836 1001.834 C 538.54728 1004.4556 540.06679 1007.0414 541.63867 1009.5801 C 539.20884 1009.5725 536.79844 1009.566 534.59375 1009.5547 L 534.58789 997.35156 z "
       transform="translate(0,-947.63784)"
       id="rect4187" />
  </g>
</svg>
