<?xml version="1.0" encoding="UTF-8" standalone="no"?>
<!-- Created with Inkscape (http://www.inkscape.org/) -->

<svg
   xmlns:dc="http://purl.org/dc/elements/1.1/"
   xmlns:cc="http://creativecommons.org/ns#"
   xmlns:rdf="http://www.w3.org/1999/02/22-rdf-syntax-ns#"
   xmlns:svg="http://www.w3.org/2000/svg"
   xmlns="http://www.w3.org/2000/svg"
   xmlns:sodipodi="http://sodipodi.sourceforge.net/DTD/sodipodi-0.dtd"
   xmlns:inkscape="http://www.inkscape.org/namespaces/inkscape"
   width="2000"
   height="2000"
   viewBox="0 0 2000 2000"
   id="svg2"
   version="1.1"
   inkscape:version="0.91 r13725"
   sodipodi:docname="service-task.svg">
  <defs
     id="defs4" />
  <sodipodi:namedview
     id="base"
     pagecolor="#ffffff"
     bordercolor="#666666"
     borderopacity="1.0"
     inkscape:pageopacity="0.0"
     inkscape:pageshadow="2"
     inkscape:zoom="0.4345"
     inkscape:cx="-253.16456"
     inkscape:cy="1000"
     inkscape:document-units="px"
     inkscape:current-layer="layer1"
     showgrid="true"
     units="px"
     showguides="false"
     inkscape:window-width="1878"
     inkscape:window-height="1035"
     inkscape:window-x="42"
     inkscape:window-y="0"
     inkscape:window-maximized="0">
    <inkscape:grid
       type="xygrid"
       id="grid4008"
       empspacing="20"
       dotted="false" />
  </sodipodi:namedview>
  <metadata
     id="metadata7">
    <rdf:RDF>
      <cc:Work
         rdf:about="">
        <dc:format>image/svg+xml</dc:format>
        <dc:type
           rdf:resource="http://purl.org/dc/dcmitype/StillImage" />
        <dc:title />
        <cc:license
           rdf:resource="https://github.com/bpmn-io/bpmn-font/blob/master/LICENSE" />
        <dc:creator>
          <cc:Agent>
            <dc:title>Jörg Dotzki</dc:title>
          </cc:Agent>
        </dc:creator>
        <dc:subject>
          <rdf:Bag>
            <rdf:li>BPMN</rdf:li>
            <rdf:li>bpmn-io</rdf:li>
            <rdf:li>bpmn.io</rdf:li>
            <rdf:li>Font</rdf:li>
          </rdf:Bag>
        </dc:subject>
      </cc:Work>
    </rdf:RDF>
  </metadata>
  <g
     inkscape:label="Ebene 1"
     inkscape:groupmode="layer"
     id="layer1"
     transform="translate(0,947.63784)">
    <path
       style="color:#000000;font-style:normal;font-variant:normal;font-weight:normal;font-stretch:normal;font-size:medium;line-height:normal;font-family:sans-serif;text-indent:0;text-align:start;text-decoration:none;text-decoration-line:none;text-decoration-style:solid;text-decoration-color:#000000;letter-spacing:normal;word-spacing:normal;text-transform:none;direction:ltr;block-progression:tb;writing-mode:lr-tb;baseline-shift:baseline;text-anchor:start;white-space:normal;clip-rule:nonzero;display:inline;overflow:visible;visibility:visible;opacity:1;isolation:auto;mix-blend-mode:normal;color-interpolation:sRGB;color-interpolation-filters:linearRGB;solid-color:#000000;solid-opacity:1;fill:#000000;fill-opacity:1;fill-rule:nonzero;stroke:none;stroke-width:119.99999237;stroke-linecap:round;stroke-linejoin:miter;stroke-miterlimit:4;stroke-dasharray:none;stroke-dashoffset:0;stroke-opacity:1;color-rendering:auto;image-rendering:auto;shape-rendering:auto;text-rendering:auto;enable-background:accumulate"
       d="M 429.65039 210 C 214.93394 210 40 384.19599 40 598.5 L 40 1401.5 C 40 1615.804 214.93394 1790 429.65039 1790 L 1570.3496 1790 C 1785.0661 1790 1960 1615.804 1960 1401.5 L 1960 598.5 C 1960 384.19599 1785.0661 210 1570.3496 210 L 429.65039 210 z M 429.65039 330 L 1570.3496 330 C 1720.8866 330 1840 448.82601 1840 598.5 L 1840 1401.5 C 1840 1551.174 1720.8866 1670 1570.3496 1670 L 429.65039 1670 C 279.11336 1670 160 1551.174 160 1401.5 L 160 598.5 C 160 448.82601 279.11336 330 429.65039 330 z M 517.03906 436.21484 L 517.06445 446.24023 L 517.20898 502.73828 C 505.30335 505.62379 493.45886 509.38597 481.80469 514.24609 L 481.80078 514.24805 L 481.79492 514.25195 C 470.13794 519.12777 459.19052 524.91766 448.85547 531.33398 L 401.09961 484.15234 L 324.94531 560.74609 L 372.66797 607.88672 C 359.79388 629.01981 350.35133 652.04552 344.70508 676.125 L 277.02344 676.24805 L 277.02344 784.07031 L 345.33594 783.82617 C 348.22448 795.62696 352.00391 807.4199 356.89648 818.98242 C 361.78788 830.55805 367.56533 841.43005 374.01758 851.67773 L 325.08984 900.41211 L 402.08984 976.08594 L 441.33398 937.02539 L 441.33398 946.08008 L 488.36719 945.91211 C 495.98681 948.83388 503.75895 951.36481 511.6543 953.48633 C 513.85363 961.37978 516.46989 969.24699 519.57812 977.02344 L 519.59961 1024.459 L 527.45312 1024.5195 L 489.40039 1062.4238 L 566.40039 1138.0957 L 615.19141 1089.5332 C 636.46196 1102.4297 659.67313 1111.8241 683.88086 1117.4355 L 683.91211 1186.4688 L 693.83203 1186.5449 C 723.36165 1186.7687 782.13867 1186.5742 782.13867 1186.5742 L 772.10547 1176.5742 L 792.10547 1176.5742 L 792.10547 1166.541 L 792.10547 1116.8496 C 804.01252 1114.0079 815.83964 1110.2086 827.42969 1105.3984 L 827.44531 1105.3926 L 827.46289 1105.3828 C 839.13286 1100.4921 850.10974 1094.6877 860.50586 1088.25 L 909.23438 1136.2949 L 985.43359 1059.8047 L 936.64648 1011.7285 C 949.54534 990.55115 958.97511 967.50888 964.63477 943.42188 L 1030.8613 943.01367 L 1030.8613 835.29492 L 963.97266 835.70312 C 961.09878 823.92538 957.35099 812.19617 952.4375 800.60156 C 947.53935 789.02445 941.75436 778.13041 935.29492 767.83984 L 981.50977 721.50781 L 904.55078 645.70312 L 866.55078 683.83203 L 866.55078 673.28516 L 856.49023 673.3457 L 820.52344 673.56445 C 813.06058 670.71691 805.45102 668.2524 797.72852 666.16992 C 795.56877 658.42953 792.98562 650.72295 789.9375 643.07031 L 790.19531 598.22461 L 778.56836 598.22461 L 817.19922 559.49805 L 740.24023 483.69141 L 694.07617 530.01172 C 672.83998 517.20004 649.66842 507.79489 625.50586 502.16406 L 625.88672 436.21484 L 517.03906 436.21484 z M 537.08984 456.21484 L 605.76953 456.21484 L 605.41211 518.39844 L 613.5332 519.99219 C 640.77829 525.33847 666.86911 535.9159 690.10547 551.06055 L 696.91406 555.49805 L 740.36914 511.89453 L 788.82422 559.62305 L 750.32031 598.22461 L 681.34961 598.22461 L 681.42383 627.2168 C 639.86702 583.22703 573.63441 567.03069 514.60742 591.71289 C 438.73491 623.43093 402.87778 710.98062 434.78516 786.46875 L 434.78516 786.4707 L 434.78711 786.47266 C 443.38417 806.79358 456.12022 824.17612 471.51562 838.20312 L 441.33398 838.25781 L 441.33398 908.80664 L 402 947.95703 L 353.52539 900.31641 L 399.74414 854.2793 L 395.07422 847.42188 C 387.45806 836.23856 380.80438 824.18151 375.31641 811.19336 L 375.31641 811.19141 L 375.31445 811.18945 C 369.86179 798.30328 365.82999 785.0209 363.04883 771.74609 L 361.37695 763.76758 L 297.02344 764 L 297.02344 696.21289 L 360.94336 696.0957 L 362.53125 688.04883 C 367.88943 660.90366 378.49875 635.03576 393.73633 611.89453 L 398.24805 605.04492 L 353.27344 560.61914 L 401.22461 512.39062 L 446.26367 556.88672 L 453.04492 552.36328 C 464.37669 544.80196 476.51163 538.1396 489.51367 532.70117 L 489.50391 532.70703 C 502.52623 527.27635 515.83647 523.26018 529.26367 520.47266 L 537.25195 518.81445 L 537.08984 456.21484 z M 570.90625 600.12109 C 614.90597 599.65711 657.22068 621.68461 681.50781 659.4375 L 681.52148 664.75 C 669.61616 667.63492 657.77 671.39549 646.11523 676.25586 L 646.11133 676.25781 L 646.10547 676.25977 C 634.44832 681.13566 623.50091 686.92738 613.16602 693.34375 L 565.4082 646.16211 L 489.25391 722.75586 L 536.97852 769.89648 C 524.10451 791.02962 514.66184 814.05544 509.01562 838.13477 L 504.45117 838.14258 C 482.27971 824.5463 464.04478 804.29843 453.20703 778.68359 L 453.20508 778.67969 C 425.54023 713.22263 456.43513 637.70973 522.32227 610.16602 C 538.1988 603.52722 554.66665 600.29234 570.90625 600.12109 z M 701.40039 618.22461 L 770.08008 618.22461 L 769.72266 680.4082 L 777.84375 682.00195 C 780.96362 682.61416 784.08344 683.30743 787.20312 684.06445 L 788.52148 684.38477 C 797.57588 686.64234 806.47048 689.48978 815.14844 692.88672 L 815.14844 692.88867 C 822.9983 695.96134 830.66641 699.48747 838.10547 703.45117 C 838.14996 703.47488 838.19381 703.4997 838.23828 703.52344 C 839.68109 704.2935 841.1158 705.07999 842.54102 705.88281 C 842.54636 705.88582 842.5513 705.88957 842.55664 705.89258 C 844.02035 706.71725 845.47551 707.55704 846.91992 708.41602 C 846.94075 708.4284 846.9616 708.44073 846.98242 708.45312 C 848.41101 709.30334 849.82931 710.17118 851.23828 711.05469 L 851.34766 711.12305 C 852.37402 711.76748 853.40237 712.41034 854.41797 713.07227 L 861.22461 717.50781 L 861.3418 717.39062 L 866.55078 720.65625 L 866.55078 712.16406 L 904.68164 673.9043 L 953.13477 721.63281 L 909.62109 765.25781 L 914.25 772.08789 C 921.875 783.34124 928.53176 795.42395 934.02148 808.40039 L 934.02148 808.40234 L 934.02344 808.40625 C 939.50271 821.33595 943.47378 834.48113 946.25781 847.79883 L 947.92969 855.80078 L 1010.8613 855.41602 L 1010.8613 923.13672 L 948.39453 923.52148 L 946.80664 931.52539 C 941.41863 958.68372 930.83462 984.55002 915.57031 1007.7324 L 911.05469 1014.5918 L 957.07227 1059.9375 L 909.10938 1108.0859 L 863.10547 1062.7285 L 856.33594 1067.2266 C 844.91726 1074.8132 832.75707 1081.4779 819.75781 1086.9277 C 806.73244 1092.3332 793.4305 1096.4023 780.14648 1099.0547 L 772.10547 1100.6621 L 772.10547 1166.5703 C 762.67171 1166.5979 730.8359 1166.6542 703.90234 1166.5488 L 703.87305 1101.166 L 695.79297 1099.5879 C 668.51603 1094.2615 642.44359 1083.7251 619.22461 1068.502 L 612.4375 1064.0527 L 566.31055 1109.9668 L 517.83594 1062.3281 L 555.68555 1024.625 L 569.70312 1024.6543 L 564.04297 1016.3008 L 564.05469 1016.2891 L 560.40234 1010.9258 L 559.10156 1009.0059 C 552.53941 999.32044 546.69576 988.98328 541.70703 977.95703 C 540.99631 976.38589 540.3027 974.8024 539.62695 973.20312 L 539.62695 973.20117 L 539.62695 973.19922 L 539.625 973.19727 C 539.35012 972.54765 539.09581 971.89181 538.82812 971.24023 L 538.82617 971.24023 C 535.16873 962.33741 532.16978 953.25983 529.79688 944.13281 L 529.45703 942.78906 C 528.69047 939.7622 527.98655 936.74946 527.35938 933.75586 L 525.68945 925.77734 L 525.6875 925.77734 L 517.53711 925.80664 L 490.1582 925.9043 L 490.1582 925.90625 L 461.33398 926.00977 L 461.33398 858.22266 L 525.25391 858.10742 L 525.25391 858.10547 L 538.38281 858.08203 L 526.61914 851.18945 L 526.8418 850.05859 C 532.2 822.91333 542.80938 797.0454 558.04688 773.9043 L 562.55859 767.05273 L 517.58398 722.62695 L 565.53516 674.40039 L 610.57422 718.89648 L 617.35547 714.37305 C 628.68459 706.81349 640.81629 700.15244 653.81445 694.71484 L 653.82422 694.71094 C 666.84258 689.28268 680.14947 685.27139 693.57422 682.48438 L 695.44336 682.0957 L 701.5918 692.12305 L 701.5625 680.82617 L 701.40039 618.22461 z M 736.97852 742.15039 C 735.77908 742.14632 734.5785 742.15671 733.37695 742.18164 L 733.37695 742.16211 C 733.76234 742.15411 733.68588 742.15411 733.32812 742.16211 L 733.32422 742.16211 C 732.72644 742.17521 732.3118 742.19808 732.08203 742.20508 C 732.08203 742.20508 732.08008 742.20508 732.08008 742.20508 L 732.08008 742.22266 C 730.05128 742.28242 728.02064 742.37422 725.98828 742.51758 L 725.98633 742.50391 C 725.98633 742.50391 725.98438 742.50391 725.98438 742.50391 C 725.53227 742.53611 725.26573 742.56381 725.18164 742.57031 C 725.18164 742.57031 725.17969 742.57031 725.17969 742.57031 L 725.18164 742.58594 C 709.64034 743.76713 694.03943 747.40155 678.91797 753.72461 L 678.91797 753.72266 C 627.71051 775.12965 594.7374 821.97032 588.51562 873.36914 L 588.47461 873.36328 C 588.44961 873.57085 588.44312 873.6326 588.45312 873.54883 C 588.45312 873.54883 588.45312 873.55078 588.45312 873.55078 L 588.49414 873.55469 C 588.29673 875.20291 588.12843 876.85486 587.98633 878.51172 L 587.94727 878.50781 C 587.94728 878.50766 587.93522 878.62426 587.91602 878.85742 L 587.95703 878.86133 C 587.67016 882.30213 587.50358 885.76004 587.45898 889.22852 L 587.42773 889.22852 L 587.42773 889.23047 C 587.42811 889.19951 587.42488 889.31286 587.42188 889.57422 L 587.45312 889.57422 C 587.41708 893.00413 587.50316 896.44408 587.70898 899.88867 L 587.68555 899.89062 C 587.69455 900.03773 587.7064 900.22202 587.7207 900.44531 C 587.7207 900.44531 587.7207 900.44727 587.7207 900.44727 L 587.74219 900.44531 C 587.9559 903.80721 588.28745 907.17303 588.73633 910.53711 L 588.7207 910.53906 C 588.7207 910.53906 588.7207 910.54102 588.7207 910.54102 C 588.7595 910.83057 588.8011 911.11958 588.8418 911.41016 C 588.8418 911.41016 588.8418 911.41211 588.8418 911.41211 L 588.85352 911.41016 C 589.08354 913.05842 589.33565 914.70498 589.62305 916.35156 L 589.61328 916.35352 C 589.66468 916.64707 589.68733 916.75543 589.67383 916.67969 C 589.67383 916.67969 589.67383 916.68164 589.67383 916.68164 L 589.68555 916.67969 C 589.95674 918.21287 590.25671 919.74483 590.57812 921.27539 L 590.57031 921.27734 C 590.57031 921.27734 590.57031 921.2793 590.57031 921.2793 C 590.63431 921.58344 590.70288 921.91252 590.7793 922.26367 L 590.78711 922.26172 C 591.13829 923.87865 591.50814 925.49488 591.91602 927.10742 L 591.91406 927.10742 C 591.91406 927.10742 591.91406 927.10938 591.91406 927.10938 C 591.99396 927.42476 592.03623 927.56999 592.0293 927.54297 C 592.0293 927.54297 592.0293 927.54492 592.0293 927.54492 L 592.0332 927.54297 C 592.41566 929.03579 592.82823 930.52574 593.25977 932.01367 L 593.25586 932.01562 C 593.25586 932.01562 593.25586 932.01758 593.25586 932.01758 C 593.35789 932.36902 593.46071 932.71208 593.56055 933.04688 C 593.56055 933.04688 593.56055 933.04883 593.56055 933.04883 L 593.5625 933.04883 C 594.51241 936.23682 595.57693 939.411 596.75586 942.56836 C 596.75586 942.56836 596.75586 942.57031 596.75586 942.57031 C 596.96031 943.1177 597.18156 943.71224 597.42969 944.35156 C 597.55403 944.672 597.67794 944.99245 597.80469 945.3125 C 598.21388 946.34558 598.64054 947.40166 599.0957 948.47852 C 599.0957 948.47852 599.0957 948.48047 599.0957 948.48047 L 599.09766 948.48242 C 599.75413 950.03413 600.44322 951.56222 601.14648 953.08008 C 601.14648 953.08008 601.14648 953.08203 601.14648 953.08203 C 601.3229 953.46257 601.4975 953.83524 601.66992 954.19922 C 601.67053 954.20051 601.67088 954.20185 601.67188 954.20312 L 601.67383 954.20312 C 603.12504 957.26819 604.66916 960.26359 606.30469 963.18555 C 606.30469 963.18555 606.30469 963.1875 606.30469 963.1875 C 606.44369 963.43593 606.57364 963.66855 606.69727 963.88672 C 606.69795 963.88792 606.69822 963.88943 606.69922 963.89062 L 606.70312 963.88867 C 643.40163 1028.6193 724.25965 1057.3775 794.73438 1027.8887 C 870.58253 996.16129 906.43721 908.56174 874.52539 833.12891 C 860.93769 801.01368 837.19554 776.11392 808.56445 760.54297 L 808.58594 760.50391 C 808.22556 760.30779 807.93441 760.15475 807.71484 760.03711 L 807.69141 760.08203 C 806.59703 759.49609 805.50462 758.90826 804.39648 758.34961 L 804.41211 758.31836 C 804.20289 758.21283 803.93051 758.07256 803.5918 757.9043 L 803.56836 757.94922 C 802.22276 757.28108 800.87243 756.62182 799.50781 755.99414 L 799.52539 755.95703 C 799.27732 755.84287 799.11698 755.77113 799.04492 755.73828 L 799.02539 755.78125 C 797.80981 755.22724 796.58914 754.68572 795.35938 754.16406 L 795.375 754.12695 C 795.04635 753.98751 794.7305 753.85455 794.42773 753.72852 L 794.41211 753.76562 C 793.17757 753.25179 791.93339 752.76034 790.68555 752.2793 L 790.70312 752.23438 C 790.70312 752.23438 790.70117 752.23438 790.70117 752.23438 C 790.62577 752.20528 790.4646 752.13898 790.21289 752.04297 L 790.19727 752.08398 C 788.81775 751.55767 787.42592 751.06209 786.03125 750.57617 L 786.04883 750.52539 C 785.56139 750.3556 785.18694 750.23514 784.93164 750.14844 L 784.92188 750.17773 C 783.85012 749.81364 782.7675 749.48268 781.6875 749.14258 L 781.70312 749.08984 C 781.36208 748.9825 780.96909 748.85757 780.52148 748.7207 L 780.50781 748.76562 C 777.64519 747.88981 774.75334 747.10973 771.83984 746.4043 L 771.85352 746.34961 C 771.50761 746.26601 771.19836 746.19497 770.92578 746.13086 L 770.91406 746.17969 C 769.7249 745.89968 768.53245 745.63409 767.33594 745.38281 L 767.3457 745.33594 C 767.3457 745.33594 767.34375 745.33594 767.34375 745.33594 C 767.10223 745.28534 766.76044 745.20902 766.31641 745.11914 C 766.31641 745.11914 766.31445 745.11914 766.31445 745.11914 L 766.30469 745.17188 C 764.85184 744.87733 763.39416 744.60343 761.93164 744.35156 L 761.94141 744.29883 C 761.55772 744.23293 761.34349 744.20213 761.30273 744.19531 L 761.29492 744.24414 C 760.02939 744.03177 758.76221 743.82859 757.49023 743.64844 L 757.49609 743.60742 C 757.05683 743.54542 756.63966 743.48969 756.24609 743.4375 L 756.24023 743.48438 C 755.00806 743.32038 753.77649 743.15893 752.53906 743.02539 L 752.54297 742.99219 C 752.41469 742.97839 752.16355 742.94846 751.78906 742.91016 L 751.78516 742.95312 C 750.30797 742.80124 748.8293 742.66086 747.3457 742.55273 L 747.34766 742.52148 C 746.8602 742.48618 746.48442 742.46837 746.21875 742.45117 L 746.2168 742.48633 C 745.0779 742.41195 743.93889 742.33743 742.79688 742.28906 L 742.79688 742.26758 C 742.42174 742.25188 741.98828 742.233 741.49805 742.2168 L 741.49609 742.24805 C 739.99205 742.19744 738.4868 742.1555 736.97852 742.15039 z M 736.99609 762.10938 C 738.27883 762.11291 739.55881 762.14793 740.83789 762.18945 L 740.83789 762.20508 C 741.15567 762.21558 741.52902 762.23385 741.96094 762.25195 L 741.96289 762.2207 C 742.95316 762.26146 743.94024 762.32924 744.92773 762.39258 L 744.92578 762.4082 C 745.36309 762.4365 745.69112 762.4551 745.90625 762.4707 L 745.9082 762.44922 C 747.19402 762.54146 748.47571 762.66276 749.75586 762.79297 L 749.75391 762.80469 C 749.84881 762.81469 750.06553 762.84231 750.40625 762.87891 L 750.4082 762.85352 C 751.48159 762.96816 752.55038 763.10498 753.61914 763.24609 L 753.61719 763.26562 C 754.00179 763.31663 754.3619 763.36452 754.69922 763.41211 L 754.70312 763.38867 C 755.80723 763.5439 756.90743 763.71711 758.00586 763.90039 L 758.00195 763.92188 C 758.35784 763.98147 758.5421 764.00757 758.55469 764.00977 L 758.55664 763.99414 C 759.82598 764.21153 761.09072 764.44663 762.35156 764.70117 L 762.34766 764.7207 C 762.34766 764.7207 762.34961 764.7207 762.34961 764.7207 C 762.54612 764.7605 762.8424 764.82675 763.24023 764.91016 C 763.24023 764.91016 763.24219 764.91016 763.24219 764.91016 L 763.24805 764.88477 C 764.28653 765.102 765.32148 765.33001 766.35352 765.57227 L 766.34766 765.59961 C 766.65344 765.67151 766.9228 765.73504 767.1543 765.79102 L 767.16016 765.76758 C 769.68873 766.37809 772.19955 767.05557 774.68359 767.81445 L 774.67383 767.8457 C 774.96345 767.9343 775.30473 768.04381 775.69922 768.16797 L 775.70898 768.14062 C 776.64696 768.43563 777.58682 768.72313 778.51758 769.03906 L 778.50195 769.08594 C 778.94096 769.23501 779.26473 769.34037 779.4707 769.41211 L 779.48047 769.38477 C 780.69157 769.80643 781.89982 770.23646 783.09766 770.69336 L 783.08398 770.73047 C 783.13758 770.75097 783.27973 770.80657 783.50781 770.89453 C 783.50781 770.89453 783.50977 770.89453 783.50977 770.89453 L 783.52148 770.86328 C 784.60484 771.28084 785.68413 771.70814 786.75586 772.1543 L 786.74023 772.19336 C 787.02756 772.31296 787.30206 772.42661 787.5625 772.53711 L 787.57812 772.50195 C 788.64604 772.95509 789.70815 773.42293 790.76367 773.9043 L 790.74805 773.9375 C 790.97505 774.04099 791.11551 774.10176 791.16602 774.125 L 791.18164 774.08984 C 792.36635 774.63514 793.53894 775.20652 794.70703 775.78711 L 794.69336 775.81445 C 794.86622 775.90035 795.10258 776.02165 795.4043 776.17383 L 795.42383 776.13477 C 796.38556 776.62011 797.33349 777.13149 798.2832 777.64062 L 798.26953 777.66602 C 798.59273 777.83917 798.84673 777.97203 799.02734 778.07031 L 799.04297 778.04102 C 823.80863 791.52809 844.33501 813.09717 856.10742 840.92188 C 883.7706 906.31182 852.87342 981.88992 787.01758 1009.4375 L 787.01562 1009.4375 C 725.81436 1035.0472 655.88432 1010.1531 624.09766 954.0293 L 624.09961 954.02734 C 624.09884 954.02599 624.09866 954.02479 624.09766 954.02344 C 623.9782 953.81277 623.86378 953.61266 623.75586 953.41992 C 623.75586 953.41992 623.75391 953.41797 623.75391 953.41797 L 623.75195 953.41992 C 622.33762 950.89063 621.00373 948.29767 619.74805 945.64453 C 619.7474 945.64316 619.74709 945.642 619.74609 945.64062 C 619.59025 945.31166 619.43959 944.99008 619.29297 944.67383 C 619.29297 944.67383 619.29102 944.67188 619.29102 944.67188 C 618.68255 943.3582 618.08579 942.03632 617.51758 940.69336 L 617.51562 940.68945 C 617.27488 940.11983 617.0483 939.54767 616.81641 938.97656 C 616.67712 938.63184 616.53794 938.30142 616.39844 937.94922 C 616.28869 937.67221 616.1819 937.39452 616.07422 937.11719 C 616.07422 937.11719 616.07422 937.11523 616.07422 937.11523 C 615.893 936.64834 615.70004 936.13397 615.49023 935.57227 C 615.49023 935.57227 615.49023 935.57031 615.49023 935.57031 C 614.46876 932.8368 613.54469 930.0908 612.7207 927.33203 L 612.72461 927.33203 C 612.72461 927.33203 612.72461 927.33008 612.72461 927.33008 C 612.63421 927.02708 612.54719 926.73167 612.46289 926.44141 C 612.46289 926.44141 612.46289 926.43945 612.46289 926.43945 L 612.45898 926.44141 C 612.08497 925.15536 611.72826 923.86619 611.39648 922.57617 L 611.40039 922.57422 C 611.40039 922.57422 611.40039 922.57227 611.40039 922.57227 C 611.32469 922.27728 611.28976 922.1537 611.30078 922.19727 C 611.30078 922.19727 611.30078 922.19531 611.30078 922.19531 L 611.29688 922.19727 C 610.94297 920.80353 610.61954 919.40898 610.31445 918.01172 L 610.32227 918.00977 C 610.26567 917.74974 610.20534 917.46762 610.14062 917.16016 C 610.14062 917.16016 610.14062 917.1582 610.14062 917.1582 L 610.13281 917.16016 C 609.85352 915.8377 609.59152 914.51395 609.35547 913.18945 L 609.36523 913.1875 C 609.36523 913.1875 609.36523 913.18555 609.36523 913.18555 C 609.31603 912.90813 609.2969 912.81526 609.3125 912.9043 L 609.30273 912.90625 C 609.05269 911.48462 608.83155 910.06152 608.63086 908.63867 L 608.64648 908.63672 C 608.64648 908.63672 608.64648 908.63477 608.64648 908.63477 C 608.61188 908.38761 608.57898 908.13676 608.54492 907.88281 C 608.54492 907.88281 608.54492 907.88086 608.54492 907.88086 L 608.5293 907.88281 C 608.13709 904.97611 607.84569 902.06999 607.65625 899.16602 L 607.67773 899.16406 C 607.67773 899.16406 607.67773 899.16211 607.67773 899.16211 C 607.66973 899.04342 607.66249 898.88454 607.65039 898.68359 L 607.62695 898.68555 C 607.44402 895.70771 607.36457 892.73395 607.39062 889.76953 L 607.42188 889.76953 C 607.42142 889.81565 607.42473 889.71306 607.42773 889.4707 C 607.42773 889.4707 607.42773 889.46875 607.42773 889.46875 L 607.39453 889.46875 C 607.42799 886.46852 607.56731 883.47764 607.81055 880.50195 L 607.84961 880.50586 C 607.84861 880.5213 607.85865 880.42092 607.87695 880.20312 L 607.83594 880.19922 C 607.95656 878.76559 608.10096 877.33619 608.26953 875.91016 L 608.3125 875.91602 C 608.3125 875.91602 608.3125 875.91406 608.3125 875.91406 C 608.3361 875.71621 608.34088 875.66373 608.33008 875.75391 L 608.28711 875.74805 C 613.60355 831.26065 642.13453 790.77801 686.63281 772.17578 C 699.74216 766.69409 713.25426 763.53372 726.70703 762.49609 L 726.70898 762.51172 C 726.70898 762.51172 726.71094 762.51172 726.71094 762.51172 C 727.1299 762.47962 727.36176 762.45612 727.4043 762.45312 L 727.40625 762.45312 L 727.4043 762.43945 C 729.16471 762.31326 730.92263 762.23157 732.67969 762.17773 L 732.67969 762.19727 C 732.67969 762.19727 732.68164 762.19727 732.68164 762.19727 C 732.70504 762.19656 732.70767 762.19631 732.73047 762.19531 C 733.23106 762.17971 733.60397 762.1624 733.80273 762.1582 L 733.80273 762.14062 C 734.86788 762.11725 735.93295 762.10644 736.99609 762.10938 z "
       transform="translate(0,-947.63784)"
       id="rect4187" />
  </g>
</svg>
