<?xml version="1.0" encoding="UTF-8" standalone="no"?>
<!-- Created with Inkscape (http://www.inkscape.org/) -->

<svg
   xmlns:dc="http://purl.org/dc/elements/1.1/"
   xmlns:cc="http://creativecommons.org/ns#"
   xmlns:rdf="http://www.w3.org/1999/02/22-rdf-syntax-ns#"
   xmlns:svg="http://www.w3.org/2000/svg"
   xmlns="http://www.w3.org/2000/svg"
   xmlns:sodipodi="http://sodipodi.sourceforge.net/DTD/sodipodi-0.dtd"
   xmlns:inkscape="http://www.inkscape.org/namespaces/inkscape"
   width="2000"
   height="2000"
   viewBox="0 0 2000 2000"
   id="svg2"
   version="1.1"
   inkscape:version="0.91 r13725"
   sodipodi:docname="user-task.svg">
  <defs
     id="defs4" />
  <sodipodi:namedview
     id="base"
     pagecolor="#ffffff"
     bordercolor="#666666"
     borderopacity="1.0"
     inkscape:pageopacity="0.0"
     inkscape:pageshadow="2"
     inkscape:zoom="0.4345"
     inkscape:cx="582.27848"
     inkscape:cy="1000"
     inkscape:document-units="px"
     inkscape:current-layer="layer1"
     showgrid="true"
     units="px"
     showguides="false"
     inkscape:window-width="1878"
     inkscape:window-height="1035"
     inkscape:window-x="42"
     inkscape:window-y="0"
     inkscape:window-maximized="0">
    <inkscape:grid
       type="xygrid"
       id="grid4008"
       empspacing="20"
       dotted="false" />
  </sodipodi:namedview>
  <metadata
     id="metadata7">
    <rdf:RDF>
      <cc:Work
         rdf:about="">
        <dc:format>image/svg+xml</dc:format>
        <dc:type
           rdf:resource="http://purl.org/dc/dcmitype/StillImage" />
        <dc:title />
        <cc:license
           rdf:resource="https://github.com/bpmn-io/bpmn-font/blob/master/LICENSE" />
        <dc:creator>
          <cc:Agent>
            <dc:title>Jörg Dotzki</dc:title>
          </cc:Agent>
        </dc:creator>
        <dc:subject>
          <rdf:Bag>
            <rdf:li>BPMN</rdf:li>
            <rdf:li>bpmn-io</rdf:li>
            <rdf:li>bpmn.io</rdf:li>
            <rdf:li>Font</rdf:li>
          </rdf:Bag>
        </dc:subject>
      </cc:Work>
    </rdf:RDF>
  </metadata>
  <g
     inkscape:label="Ebene 1"
     inkscape:groupmode="layer"
     id="layer1"
     transform="translate(0,947.63784)">
    <path
       style="color:#000000;font-style:normal;font-variant:normal;font-weight:normal;font-stretch:normal;font-size:medium;line-height:normal;font-family:sans-serif;text-indent:0;text-align:start;text-decoration:none;text-decoration-line:none;text-decoration-style:solid;text-decoration-color:#000000;letter-spacing:normal;word-spacing:normal;text-transform:none;direction:ltr;block-progression:tb;writing-mode:lr-tb;baseline-shift:baseline;text-anchor:start;white-space:normal;clip-rule:nonzero;display:inline;overflow:visible;visibility:visible;opacity:1;isolation:auto;mix-blend-mode:normal;color-interpolation:sRGB;color-interpolation-filters:linearRGB;solid-color:#000000;solid-opacity:1;fill:#000000;fill-opacity:1;fill-rule:nonzero;stroke:none;stroke-width:119.99999237;stroke-linecap:round;stroke-linejoin:miter;stroke-miterlimit:4;stroke-dasharray:none;stroke-dashoffset:0;stroke-opacity:1;color-rendering:auto;image-rendering:auto;shape-rendering:auto;text-rendering:auto;enable-background:accumulate"
       d="M 429.65039 210 C 214.93394 210 40 384.19599 40 598.5 L 40 1401.5 C 40 1615.804 214.93394 1790 429.65039 1790 L 1570.3496 1790 C 1785.0661 1790 1960 1615.804 1960 1401.5 L 1960 598.5 C 1960 384.19599 1785.0661 210 1570.3496 210 L 429.65039 210 z M 429.65039 330 L 1570.3496 330 C 1720.8866 330 1840 448.82601 1840 598.5 L 1840 1401.5 C 1840 1551.174 1720.8866 1670 1570.3496 1670 L 429.65039 1670 C 279.11336 1670 160 1551.174 160 1401.5 L 160 598.5 C 160 448.82601 279.11336 330 429.65039 330 z M 707.88281 531.92969 L 701.92188 532.35547 C 596.74162 532.35547 527.19141 607.79616 527.19141 704.94531 C 527.19141 754.51927 563.199 797.90721 598.83789 829.25781 C 579.73759 835.82018 531.83291 853.39663 483.32617 880.61719 C 455.5485 896.2052 428.19005 914.70056 407.23242 935.82227 C 386.27479 956.94398 371.54342 980.896 370.19727 1007.2539 L 370.18945 1007.3809 L 370.18945 1261.5723 L 492.29883 1261.5723 C 493.38098 1261.9564 494.56238 1261.9564 495.64453 1261.5723 L 1064.9102 1261.5723 L 1064.9102 1007.5078 C 1064.9102 984.0308 1049.9209 961.74341 1028.2285 941.21094 C 1006.5362 920.67846 977.7626 901.69294 948.40039 885.18359 C 896.45461 855.97628 845.1426 835.58994 825.56445 828.54102 C 859.89664 796.85594 885.39258 753.43859 885.39258 704.94531 C 885.39258 607.69832 813.06305 531.92969 707.88281 531.92969 z M 660.15625 633.64844 C 676.81996 633.54745 693.86897 637.02811 710.41992 645.92188 C 782.8798 684.83943 860.83883 699.59047 874.5332 687.49805 C 875.09879 693.21944 875.39258 699.03954 875.39258 704.94531 C 875.39258 752.61978 848.71195 796.03345 812.93945 826.64258 L 806.11719 832.48047 L 814.67188 835.20508 C 821.72195 837.45092 856.99444 850.63586 898.23047 870.44531 C 896.58314 956.78914 813.02422 1027.125 709.0918 1027.125 C 605.11709 1027.125 521.72776 959.10179 519.91602 872.81445 C 563.11897 851.80881 601.709 838.66956 610.10547 835.9375 L 618.66406 833.15234 L 611.77734 827.35742 C 575.12347 796.50955 537.19141 752.3048 537.19141 704.94531 C 537.19141 698.92886 537.48539 693.00336 538.04883 687.17969 C 549.86749 676.89978 602.58362 633.99734 660.15625 633.64844 z M 908.07031 875.25195 C 919.7182 881.02309 931.67242 887.25125 943.49805 893.90039 C 972.43267 910.16932 1000.6398 928.8684 1021.3535 948.47461 C 1042.0672 968.08081 1054.9102 988.3865 1054.9102 1007.5078 L 1054.9102 1251.5723 L 942.02344 1251.5723 L 942.02344 1072 L 932.02344 1072 L 932.02344 1251.5723 L 498.96875 1251.5723 L 498.96875 1072 C 499.06435 1065.2384 488.87317 1065.2384 488.96875 1072 L 488.96875 1251.5723 L 380.18945 1251.5723 L 380.18945 1007.7129 C 381.37738 984.79917 394.40311 962.94823 414.33008 942.86523 C 434.27186 922.76732 460.94698 904.642 488.21875 889.33789 C 495.50543 885.24882 502.83287 881.36704 510.08789 877.68945 C 514.85413 967.95184 602.56354 1037.125 709.0918 1037.125 C 815.74187 1037.125 903.50518 965.69091 908.07031 875.25195 z "
       transform="translate(0,-947.63784)"
       id="rect4187" />
  </g>
</svg>
