<?xml version="1.0" encoding="UTF-8" standalone="no"?>
<!-- Created with Inkscape (http://www.inkscape.org/) -->

<svg
   xmlns:dc="http://purl.org/dc/elements/1.1/"
   xmlns:cc="http://creativecommons.org/ns#"
   xmlns:rdf="http://www.w3.org/1999/02/22-rdf-syntax-ns#"
   xmlns:svg="http://www.w3.org/2000/svg"
   xmlns="http://www.w3.org/2000/svg"
   xmlns:sodipodi="http://sodipodi.sourceforge.net/DTD/sodipodi-0.dtd"
   xmlns:inkscape="http://www.inkscape.org/namespaces/inkscape"
   width="2000"
   height="2000"
   viewBox="0 0 2000 2000"
   id="svg2"
   version="1.1"
   inkscape:version="0.91 r13725"
   sodipodi:docname="user-task.svg">
  <defs
     id="defs4" />
  <sodipodi:namedview
     id="base"
     pagecolor="#ffffff"
     bordercolor="#666666"
     borderopacity="1.0"
     inkscape:pageopacity="0.0"
     inkscape:pageshadow="2"
     inkscape:zoom="0.58716216"
     inkscape:cx="690.88607"
     inkscape:cy="999.99998"
     inkscape:document-units="px"
     inkscape:current-layer="layer1"
     showgrid="true"
     units="px"
     showguides="false"
     inkscape:window-width="1878"
     inkscape:window-height="1035"
     inkscape:window-x="42"
     inkscape:window-y="0"
     inkscape:window-maximized="0">
    <inkscape:grid
       type="xygrid"
       id="grid4008"
       empspacing="20"
       dotted="false" />
  </sodipodi:namedview>
  <metadata
     id="metadata7">
    <rdf:RDF>
      <cc:Work
         rdf:about="">
        <dc:format>image/svg+xml</dc:format>
        <dc:type
           rdf:resource="http://purl.org/dc/dcmitype/StillImage" />
        <dc:title />
        <cc:license
           rdf:resource="https://github.com/bpmn-io/bpmn-font/blob/master/LICENSE" />
        <dc:creator>
          <cc:Agent>
            <dc:title>Jörg Dotzki</dc:title>
          </cc:Agent>
        </dc:creator>
        <dc:subject>
          <rdf:Bag>
            <rdf:li>BPMN</rdf:li>
            <rdf:li>bpmn-io</rdf:li>
            <rdf:li>bpmn.io</rdf:li>
            <rdf:li>Font</rdf:li>
          </rdf:Bag>
        </dc:subject>
      </cc:Work>
    </rdf:RDF>
  </metadata>
  <g
     inkscape:label="Ebene 1"
     inkscape:groupmode="layer"
     id="layer1"
     transform="translate(0,947.63784)">
    <path
       style="color:#000000;font-style:normal;font-variant:normal;font-weight:normal;font-stretch:normal;font-size:medium;line-height:normal;font-family:sans-serif;text-indent:0;text-align:start;text-decoration:none;text-decoration-line:none;text-decoration-style:solid;text-decoration-color:#000000;letter-spacing:normal;word-spacing:normal;text-transform:none;direction:ltr;block-progression:tb;writing-mode:lr-tb;baseline-shift:baseline;text-anchor:start;white-space:normal;clip-rule:nonzero;display:inline;overflow:visible;visibility:visible;opacity:1;isolation:auto;mix-blend-mode:normal;color-interpolation:sRGB;color-interpolation-filters:linearRGB;solid-color:#000000;solid-opacity:1;fill:#000000;fill-opacity:1;fill-rule:nonzero;stroke:none;stroke-width:80;stroke-linecap:round;stroke-linejoin:miter;stroke-miterlimit:4;stroke-dasharray:none;stroke-dashoffset:0;stroke-opacity:1;color-rendering:auto;image-rendering:auto;shape-rendering:auto;text-rendering:auto;enable-background:accumulate"
       d="M 455 260 C 259.02189 260 100 419.02189 100 615 L 100 1385 C 100 1580.9781 259.02189 1740 455 1740 L 1545 1740 C 1740.9781 1740 1900 1580.9781 1900 1385 L 1900 615 C 1900 419.02189 1740.9781 260 1545 260 L 455 260 z M 455 340 L 1545 340 C 1698.0419 340 1820 461.95811 1820 615 L 1820 1385 C 1820 1538.0419 1698.0419 1660 1545 1660 L 455 1660 C 301.95811 1660 180 1538.0419 180 1385 L 180 615 C 180 461.95811 301.95811 340 455 340 z M 623.88281 433.92969 L 617.92188 434.35547 C 512.74162 434.35547 443.19141 509.79616 443.19141 606.94531 C 443.19141 656.51927 479.199 699.90721 514.83789 731.25781 C 495.73759 737.82018 447.83291 755.39663 399.32617 782.61719 C 371.5485 798.2052 344.19005 816.70056 323.23242 837.82227 C 302.27479 858.94398 287.54342 882.896 286.19727 909.25391 L 286.18945 909.38086 L 286.18945 1163.5723 L 408.29883 1163.5723 C 409.38098 1163.9564 410.56238 1163.9564 411.64453 1163.5723 L 980.91016 1163.5723 L 980.91016 909.50781 C 980.91016 886.0308 965.92084 863.74341 944.22852 843.21094 C 922.5362 822.67846 893.7626 803.69294 864.40039 787.18359 C 812.45461 757.97628 761.1426 737.58994 741.56445 730.54102 C 775.89664 698.85594 801.39258 655.43859 801.39258 606.94531 C 801.39258 509.69832 729.06305 433.92969 623.88281 433.92969 z M 576.15625 535.64844 C 592.81996 535.54745 609.86897 539.02811 626.41992 547.92188 C 698.8798 586.83943 776.83883 601.59047 790.5332 589.49805 C 791.09879 595.21944 791.39258 601.03954 791.39258 606.94531 C 791.39258 654.61978 764.71195 698.03345 728.93945 728.64258 L 722.11719 734.48047 L 730.67188 737.20508 C 737.72195 739.45092 772.99444 752.63586 814.23047 772.44531 C 812.58314 858.78914 729.02422 929.125 625.0918 929.125 C 521.11709 929.125 437.72776 861.10179 435.91602 774.81445 C 479.11897 753.80881 517.709 740.66956 526.10547 737.9375 L 534.66406 735.15234 L 527.77734 729.35742 C 491.12347 698.50955 453.19141 654.3048 453.19141 606.94531 C 453.19141 600.92886 453.48539 595.00336 454.04883 589.17969 C 465.86749 578.89978 518.58362 535.99734 576.15625 535.64844 z M 824.07031 777.25195 C 835.7182 783.02309 847.67242 789.25125 859.49805 795.90039 C 888.43267 812.16932 916.63979 830.8684 937.35352 850.47461 C 958.06724 870.08081 970.91016 890.3865 970.91016 909.50781 L 970.91016 1153.5723 L 858.02344 1153.5723 L 858.02344 974 L 848.02344 974 L 848.02344 1153.5723 L 414.96875 1153.5723 L 414.96875 974 C 415.06435 967.23843 404.87317 967.23843 404.96875 974 L 404.96875 1153.5723 L 296.18945 1153.5723 L 296.18945 909.71289 C 297.37738 886.79917 310.40311 864.94823 330.33008 844.86523 C 350.27186 824.76732 376.94698 806.642 404.21875 791.33789 C 411.50543 787.24882 418.83287 783.36704 426.08789 779.68945 C 430.85413 869.95184 518.56354 939.125 625.0918 939.125 C 731.74187 939.125 819.50518 867.69091 824.07031 777.25195 z "
       transform="translate(0,-947.63784)"
       id="rect4187" />
  </g>
</svg>
