<?xml version="1.0" encoding="UTF-8" standalone="no"?>
<!-- Created with Inkscape (http://www.inkscape.org/) -->

<svg
   xmlns:dc="http://purl.org/dc/elements/1.1/"
   xmlns:cc="http://creativecommons.org/ns#"
   xmlns:rdf="http://www.w3.org/1999/02/22-rdf-syntax-ns#"
   xmlns:svg="http://www.w3.org/2000/svg"
   xmlns="http://www.w3.org/2000/svg"
   xmlns:sodipodi="http://sodipodi.sourceforge.net/DTD/sodipodi-0.dtd"
   xmlns:inkscape="http://www.inkscape.org/namespaces/inkscape"
   width="2000"
   height="2000"
   viewBox="0 0 2000 2000"
   id="svg2"
   version="1.1"
   inkscape:version="0.91 r13725"
   sodipodi:docname="manual-task.svg">
  <defs
     id="defs4" />
  <sodipodi:namedview
     id="base"
     pagecolor="#ffffff"
     bordercolor="#666666"
     borderopacity="1.0"
     inkscape:pageopacity="0.0"
     inkscape:pageshadow="2"
     inkscape:zoom="0.4243164"
     inkscape:cx="595.58499"
     inkscape:cy="1228.4044"
     inkscape:document-units="px"
     inkscape:current-layer="layer1"
     showgrid="true"
     units="px"
     showguides="false"
     inkscape:window-width="1878"
     inkscape:window-height="1035"
     inkscape:window-x="42"
     inkscape:window-y="0"
     inkscape:window-maximized="0">
    <inkscape:grid
       type="xygrid"
       id="grid4008"
       empspacing="20"
       dotted="false" />
  </sodipodi:namedview>
  <metadata
     id="metadata7">
    <rdf:RDF>
      <cc:Work
         rdf:about="">
        <dc:format>image/svg+xml</dc:format>
        <dc:type
           rdf:resource="http://purl.org/dc/dcmitype/StillImage" />
        <dc:title />
        <cc:license
           rdf:resource="https://github.com/bpmn-io/bpmn-font/blob/master/LICENSE" />
        <dc:creator>
          <cc:Agent>
            <dc:title>Jörg Dotzki</dc:title>
          </cc:Agent>
        </dc:creator>
        <dc:subject>
          <rdf:Bag>
            <rdf:li>BPMN</rdf:li>
            <rdf:li>bpmn-io</rdf:li>
            <rdf:li>bpmn.io</rdf:li>
            <rdf:li>Font</rdf:li>
          </rdf:Bag>
        </dc:subject>
      </cc:Work>
    </rdf:RDF>
  </metadata>
  <g
     inkscape:label="Ebene 1"
     inkscape:groupmode="layer"
     id="layer1"
     transform="translate(0,947.63784)">
    <rect
       style="opacity:1;fill:#ffffff;stroke:#000000;stroke-width:80;stroke-linecap:round;stroke-miterlimit:4;stroke-dasharray:none;stroke-opacity:1"
       id="rect4187"
       width="1720"
       height="1400"
       x="140"
       y="-647.63782"
       rx="315"
       ry="315" />
    <path
       style="opacity:1;fill:none;fill-opacity:1;stroke:#000000;stroke-width:10;stroke-linecap:round;stroke-miterlimit:4;stroke-dasharray:none;stroke-opacity:1"
       id="path4135"
       d="m 720.87031,-24.934978 250.05674,0 c 25.16459,0 39.58435,-6.312563 44.13145,-27.599737 7.0697,-32.958449 -10.4022,-48.226495 -41.67106,-48.299885 -76.83293,-0.36702 -252.51781,-0.14691 -252.51781,-0.14691 l 0,-22.3151 c 0,0 268.55702,0.20184 299.48337,0 30.9264,-0.20184 42.0448,-16.07519 42.1382,-44.33576 0.094,-28.18718 -14.9181,-40.00524 -42.0448,-40.04193 -92.43617,-0.0734 -299.57609,-0.47712 -299.57609,-0.47712 l -6.8e-4,-21.69091 c 0,0 157.34089,-0.58725 225.01741,-0.58725 27.65612,-0.0734 42.16935,-15.26804 42.07594,-43.78553 -0.18695,-27.93023 -15.32299,-43.89563 -42.38737,-43.89563 -108.16409,-0.18355 -338.39433,1.42215 -345.17202,-0.11009 -1.79462,-0.40572 -3.32978,-3.73261 -2.14896,-5.10159 11.08916,-12.85613 63.56549,-59.67751 75.21345,-74.02801 14.60666,-17.87392 16.16387,-42.7579 5.04536,-58.8701 -12.89373,-18.75479 -30.30339,-18.35108 -46.09353,-8.66174 -45.50178,28.04037 -205.55226,133.70555 -240.83872,156.75444 -28.02986,18.31432 -47.21474,45.98766 -58.61353,80.37747 -11.5234,34.86694 -10.3406,75.4713 -10.21603,111.03559 0.12447,26.352076 0.74873,47.664038 7.53818,74.016103 19.58975,76.597155 71.31983,115.757919 147.125,115.978155 143.82427,0.513811 287.71085,0.697355 431.56627,0 23.51392,-0.146709 36.46994,-11.047029 36.81254,-37.91292 0.37372,-27.6733359 -13.17403,-35.56432791 -36.84369,-35.7111374 -55.37452,-0.36701651 -188.07962,0 -188.07962,0 z"
       inkscape:connector-curvature="0"
       sodipodi:nodetypes="cccccczcccccccssccccccccccccc" />
  </g>
</svg>
