<?xml version="1.0" encoding="UTF-8" standalone="no"?>
<!-- Created with Inkscape (http://www.inkscape.org/) -->

<svg
   xmlns:dc="http://purl.org/dc/elements/1.1/"
   xmlns:cc="http://creativecommons.org/ns#"
   xmlns:rdf="http://www.w3.org/1999/02/22-rdf-syntax-ns#"
   xmlns:svg="http://www.w3.org/2000/svg"
   xmlns="http://www.w3.org/2000/svg"
   xmlns:sodipodi="http://sodipodi.sourceforge.net/DTD/sodipodi-0.dtd"
   xmlns:inkscape="http://www.inkscape.org/namespaces/inkscape"
   width="2000"
   height="2000"
   viewBox="0 0 2000 2000"
   id="svg2"
   version="1.1"
   inkscape:version="0.91 r13725"
   sodipodi:docname="manual-task.svg">
  <defs
     id="defs4" />
  <sodipodi:namedview
     id="base"
     pagecolor="#ffffff"
     bordercolor="#666666"
     borderopacity="1.0"
     inkscape:pageopacity="0.0"
     inkscape:pageshadow="2"
     inkscape:zoom="0.4243164"
     inkscape:cx="417.40032"
     inkscape:cy="957.22176"
     inkscape:document-units="px"
     inkscape:current-layer="layer1"
     showgrid="true"
     units="px"
     showguides="false"
     inkscape:window-width="1878"
     inkscape:window-height="1035"
     inkscape:window-x="42"
     inkscape:window-y="0"
     inkscape:window-maximized="0">
    <inkscape:grid
       type="xygrid"
       id="grid4008"
       empspacing="20"
       dotted="false" />
  </sodipodi:namedview>
  <metadata
     id="metadata7">
    <rdf:RDF>
      <cc:Work
         rdf:about="">
        <dc:format>image/svg+xml</dc:format>
        <dc:type
           rdf:resource="http://purl.org/dc/dcmitype/StillImage" />
        <dc:title />
        <cc:license
           rdf:resource="https://github.com/bpmn-io/bpmn-font/blob/master/LICENSE" />
        <dc:creator>
          <cc:Agent>
            <dc:title>Jörg Dotzki</dc:title>
          </cc:Agent>
        </dc:creator>
        <dc:subject>
          <rdf:Bag>
            <rdf:li>BPMN</rdf:li>
            <rdf:li>bpmn-io</rdf:li>
            <rdf:li>bpmn.io</rdf:li>
            <rdf:li>Font</rdf:li>
          </rdf:Bag>
        </dc:subject>
      </cc:Work>
    </rdf:RDF>
  </metadata>
  <g
     inkscape:label="Ebene 1"
     inkscape:groupmode="layer"
     id="layer1"
     transform="translate(0,947.63784)">
    <rect
       style="opacity:1;fill:#ffffff;stroke:#000000;stroke-width:119.99999237;stroke-linecap:round;stroke-miterlimit:4;stroke-dasharray:none;stroke-opacity:1"
       id="rect4187"
       width="1800"
       height="1460"
       x="100"
       y="-677.63782"
       rx="329.65115"
       ry="328.5" />
    <path
       style="opacity:1;fill:none;fill-opacity:1;stroke:#000000;stroke-width:40;stroke-linecap:round;stroke-miterlimit:4;stroke-dasharray:none;stroke-opacity:1"
       id="path4135"
       d="m 854.95416,138.45002 334.60754,0 c 33.6734,0 52.9688,-8.45715 59.0534,-36.97626 9.4602,-44.155499 -13.9194,-64.610589 -55.7611,-64.708909 -102.8122,-0.49171 -337.90075,-0.19682 -337.90075,-0.19682 l 0,-29.89626 c 0,0 359.36325,0.27041 400.74655,0 41.3835,-0.27041 56.2613,-21.53645 56.3863,-59.398051 0.1257,-37.76327 -19.9623,-53.5963 -56.2613,-53.64546 -123.6913,-0.0983 -400.87064,-0.63921 -400.87064,-0.63921 l -9.1e-4,-29.06001 c 0,0 210.54195,-0.78676 301.10175,-0.78676 37.0073,-0.0983 56.4279,-20.45508 56.3029,-58.66088 -0.2502,-37.41903 -20.5041,-58.80839 -56.7197,-58.80839 -144.7372,-0.24591 -452.81433,1.9053 -461.88374,-0.14749 -2.40142,-0.54356 -4.45566,-5.0007 -2.87558,-6.83477 14.8387,-17.22377 85.05866,-79.95188 100.64511,-99.17771 19.54555,-23.94626 21.6293,-57.28413 6.75133,-78.87017 -17.25344,-25.12639 -40.54977,-24.58553 -61.67897,-11.60441 -60.88714,37.56659 -275.05491,179.12963 -322.27265,210.00897 -37.5075,24.53629 -63.17929,61.61115 -78.43231,107.68429 -15.41977,46.71236 -13.83703,101.11133 -13.67034,148.757951 0.16655,35.30473 1.00189,63.85705 10.08703,99.161759 26.21357,102.61968 95.43495,155.08461 196.87185,155.37967 192.45505,0.68837 384.99348,0.93427 577.49017,0 31.4646,-0.19655 48.8014,-14.80006 49.2599,-50.79316 0.5,-37.07486 -17.6286,-47.64668 -49.3016,-47.84336 -74.0981,-0.49171 -251.67424,0 -251.67424,0 z"
       inkscape:connector-curvature="0"
       sodipodi:nodetypes="cccccczcccccccssccccccccccccc" />
  </g>
</svg>
