<?xml version="1.0" encoding="UTF-8" standalone="no"?>
<!-- Created with Inkscape (http://www.inkscape.org/) -->

<svg
   xmlns:dc="http://purl.org/dc/elements/1.1/"
   xmlns:cc="http://creativecommons.org/ns#"
   xmlns:rdf="http://www.w3.org/1999/02/22-rdf-syntax-ns#"
   xmlns:svg="http://www.w3.org/2000/svg"
   xmlns="http://www.w3.org/2000/svg"
   xmlns:sodipodi="http://sodipodi.sourceforge.net/DTD/sodipodi-0.dtd"
   xmlns:inkscape="http://www.inkscape.org/namespaces/inkscape"
   width="2000"
   height="2000"
   viewBox="0 0 2000 2000"
   id="svg2"
   version="1.1"
   inkscape:version="0.91 r13725"
   sodipodi:docname="script-task.svg">
  <defs
     id="defs4" />
  <sodipodi:namedview
     id="base"
     pagecolor="#ffffff"
     bordercolor="#666666"
     borderopacity="1.0"
     inkscape:pageopacity="0.0"
     inkscape:pageshadow="2"
     inkscape:zoom="0.61447579"
     inkscape:cx="909.33455"
     inkscape:cy="1111.5623"
     inkscape:document-units="px"
     inkscape:current-layer="layer1"
     showgrid="true"
     units="px"
     showguides="false"
     inkscape:window-width="1878"
     inkscape:window-height="1035"
     inkscape:window-x="42"
     inkscape:window-y="0"
     inkscape:window-maximized="0">
    <inkscape:grid
       type="xygrid"
       id="grid4008"
       empspacing="20"
       dotted="false" />
  </sodipodi:namedview>
  <metadata
     id="metadata7">
    <rdf:RDF>
      <cc:Work
         rdf:about="">
        <dc:format>image/svg+xml</dc:format>
        <dc:type
           rdf:resource="http://purl.org/dc/dcmitype/StillImage" />
        <dc:title />
        <cc:license
           rdf:resource="https://github.com/bpmn-io/bpmn-font/blob/master/LICENSE" />
        <dc:creator>
          <cc:Agent>
            <dc:title>Jörg Dotzki</dc:title>
          </cc:Agent>
        </dc:creator>
        <dc:subject>
          <rdf:Bag>
            <rdf:li>BPMN</rdf:li>
            <rdf:li>bpmn-io</rdf:li>
            <rdf:li>bpmn.io</rdf:li>
            <rdf:li>Font</rdf:li>
          </rdf:Bag>
        </dc:subject>
      </cc:Work>
    </rdf:RDF>
  </metadata>
  <g
     inkscape:label="Ebene 1"
     inkscape:groupmode="layer"
     id="layer1"
     transform="translate(0,947.63784)">
    <rect
       style="opacity:1;fill:#ffffff;stroke:#000000;stroke-width:119.99999237;stroke-linecap:round;stroke-miterlimit:4;stroke-dasharray:none;stroke-opacity:1"
       id="rect4187"
       width="1800"
       height="1460"
       x="100"
       y="-677.63782"
       rx="329.65115"
       ry="328.5" />
    <path
       style="color:#000000;font-style:normal;font-variant:normal;font-weight:normal;font-stretch:normal;font-size:medium;line-height:normal;font-family:sans-serif;text-indent:0;text-align:start;text-decoration:none;text-decoration-line:none;text-decoration-style:solid;text-decoration-color:#000000;letter-spacing:normal;word-spacing:normal;text-transform:none;direction:ltr;block-progression:tb;writing-mode:lr-tb;baseline-shift:baseline;text-anchor:start;white-space:normal;clip-rule:nonzero;display:inline;overflow:visible;visibility:visible;opacity:1;isolation:auto;mix-blend-mode:normal;color-interpolation:sRGB;color-interpolation-filters:linearRGB;solid-color:#000000;solid-opacity:1;fill:#000000;fill-opacity:1;fill-rule:nonzero;stroke:none;stroke-width:956;stroke-linecap:round;stroke-linejoin:miter;stroke-miterlimit:4;stroke-dasharray:none;stroke-dashoffset:0;stroke-opacity:1;color-rendering:auto;image-rendering:auto;shape-rendering:auto;text-rendering:auto;enable-background:accumulate"
       d="m 604.64413,-435.58008 -1.60942,0.95551 c -68.42434,40.548 -114.58776,77.33864 -143.99549,111.68986 -29.40774,34.35122 -42.04856,66.56802 -42.41584,96.86087 -0.73455,60.58568 46.10956,110.40459 92.69989,158.11987 46.59033,47.71527 93.03937,93.7915 98.1847,142.77844 2.57265,24.49346 -4.47554,50.25563 -27.66691,79.50699 -23.19137,29.25137 -62.68615,61.58665 -124.04469,97.35464 l -21.84581,12.73382 463.80371,0 1.59607,-0.92881 c 62.24258,-36.28333 103.04596,-69.35972 127.86936,-100.66954 24.8234,-31.30983 33.5079,-61.25854 30.5495,-89.42502 -5.917,-56.33296 -55.5837,-103.36452 -101.99608,-150.89756 -46.41238,-47.53302 -89.46007,-95.10522 -88.81382,-148.40736 0.32312,-26.65107 11.191,-55.50264 39.13028,-88.13855 27.93929,-32.63592 72.96205,-68.74945 140.58182,-108.82069 l 21.4508,-12.71247 z m 3.79532,13.66531 410.44225,0 c -57.03891,35.56533 -96.87235,68.25956 -123.17188,98.98006 -29.40774,34.35122 -42.04855,66.56802 -42.41583,96.86087 -0.73456,60.58568 46.11223,110.40459 92.70256,158.11987 46.59033,47.71527 93.03675,93.7915 98.18205,142.77844 2.5726,24.49346 -4.4756,50.25563 -27.6669,79.50699 -22.98772,28.99445 -62.06001,61.02909 -122.49937,96.42315 l -410.18873,0 c 50.47602,-31.3404 84.83827,-60.32659 106.7255,-87.93304 24.82339,-31.30983 33.50789,-61.25854 30.54944,-89.42502 -5.91692,-56.33296 -55.58365,-103.36452 -101.99603,-150.89756 -46.41239,-47.53302 -89.46007,-95.10522 -88.81383,-148.40736 0.32313,-26.65107 11.19102,-55.50264 39.1303,-88.13855 27.715,-32.37393 72.30304,-68.18127 139.02047,-107.86785 z m -59.77505,121.3223 c -9.23994,-0.13064 -9.23994,13.79599 0,13.66531 l 245.2976,0 c 9.23995,0.13064 9.23995,-13.79599 0,-13.66531 l -54.79941,0 z m 24.80307,137.83811 c -9.23995,-0.13064 -9.23995,13.79599 0,13.66531 l 223.2276,0 c 9.23994,0.13064 9.23994,-13.79599 0,-13.66531 z m 74.40921,137.83543 c -9.23995,-0.13064 -9.23995,13.79599 0,13.66531 l 248.03332,0 c 9.23995,0.13064 9.23995,-13.79599 0,-13.66531 z m 49.60613,137.83811 c -9.23995,-0.13068 -9.23995,13.79598 0,13.6653 l 248.03332,0 c 9.23995,0.13069 9.23995,-13.79598 0,-13.6653 z"
       id="path4135"
       inkscape:connector-curvature="0"
       sodipodi:nodetypes="ccsssssccccssssscccccsssssccssssscccccccccccccccccccccc" />
  </g>
</svg>
