<?xml version="1.0" encoding="UTF-8" standalone="no"?>
<!-- Created with Inkscape (http://www.inkscape.org/) -->

<svg
   xmlns:dc="http://purl.org/dc/elements/1.1/"
   xmlns:cc="http://creativecommons.org/ns#"
   xmlns:rdf="http://www.w3.org/1999/02/22-rdf-syntax-ns#"
   xmlns:svg="http://www.w3.org/2000/svg"
   xmlns="http://www.w3.org/2000/svg"
   xmlns:sodipodi="http://sodipodi.sourceforge.net/DTD/sodipodi-0.dtd"
   xmlns:inkscape="http://www.inkscape.org/namespaces/inkscape"
   width="2000"
   height="2000"
   viewBox="0 0 2000 2000"
   id="svg2"
   version="1.1"
   inkscape:version="0.91 r"
   sodipodi:docname="script-task.svg">
  <defs
     id="defs4" />
  <sodipodi:namedview
     id="base"
     pagecolor="#ffffff"
     bordercolor="#666666"
     borderopacity="1.0"
     inkscape:pageopacity="0.0"
     inkscape:pageshadow="2"
     inkscape:zoom="0.076809474"
     inkscape:cx="-2320.2252"
     inkscape:cy="-264.22049"
     inkscape:document-units="px"
     inkscape:current-layer="layer1"
     showgrid="true"
     units="px"
     showguides="false"
     inkscape:window-width="1878"
     inkscape:window-height="1028"
     inkscape:window-x="40"
     inkscape:window-y="0"
     inkscape:window-maximized="0">
    <inkscape:grid
       type="xygrid"
       id="grid4008"
       empspacing="20"
       dotted="false" />
  </sodipodi:namedview>
  <metadata
     id="metadata7">
    <rdf:RDF>
      <cc:Work
         rdf:about="">
        <dc:format>image/svg+xml</dc:format>
        <dc:type
           rdf:resource="http://purl.org/dc/dcmitype/StillImage" />
        <dc:title />
        <cc:license
           rdf:resource="https://github.com/bpmn-io/bpmn-font/blob/master/LICENSE" />
        <dc:creator>
          <cc:Agent>
            <dc:title>Jörg Dotzki</dc:title>
          </cc:Agent>
        </dc:creator>
        <dc:subject>
          <rdf:Bag>
            <rdf:li>BPMN</rdf:li>
            <rdf:li>bpmn-io</rdf:li>
            <rdf:li>bpmn.io</rdf:li>
            <rdf:li>Font</rdf:li>
          </rdf:Bag>
        </dc:subject>
      </cc:Work>
    </rdf:RDF>
  </metadata>
  <g
     inkscape:label="Ebene 1"
     inkscape:groupmode="layer"
     id="layer1"
     transform="translate(0,947.63784)">
    <rect
       style="opacity:1;fill:#ffffff;stroke:#000000;stroke-width:119.99999237;stroke-linecap:round;stroke-miterlimit:4;stroke-dasharray:none;stroke-opacity:1"
       id="rect4187"
       width="1800"
       height="1460"
       x="100"
       y="-677.63782"
       rx="329.65115"
       ry="328.5" />
    <g
       id="g4145"
       transform="matrix(0.56014517,0,0,0.56014517,183.64582,-644.77878)">
      <g
         style="display:inline"
         transform="translate(0,947.63784)"
         id="layer1-9"
         inkscape:label="Ebene 1" />
      <g
         style="display:inline"
         inkscape:label="Ebene 2"
         id="layer3">
        <path
           d="m 775.38179,435.91868 688.37031,0 c -95.6624,59.64813 -162.4688,114.48102 -206.5769,166.00368 -49.3209,57.61191 -70.5214,111.6441 -71.1374,162.44953 -1.2319,101.61084 77.3368,185.16428 155.4755,265.18961 78.1387,80.0253 156.0358,157.3018 164.6652,239.4598 4.3147,41.0791 -7.506,84.2859 -46.4012,133.3446 -38.5537,48.6279 -104.0835,102.3545 -205.449,161.7154 l -687.94509,0 c 84.6555,-52.5623 142.28589,-101.1763 178.9939,-147.4763 41.63237,-52.511 56.19753,-102.7393 51.23577,-149.9785 -9.9235,-94.4784 -93.22171,-173.357 -171.06191,-253.0767 -77.8402,-79.71971 -150.03732,-159.50508 -148.95347,-248.90039 0.54194,-44.69764 18.76893,-93.08586 65.62709,-147.82094 46.48202,-54.29571 121.26253,-114.34974 233.1572,-180.90979 z M 769.01649,413 l -2.69922,1.60252 c -114.75739,68.00479 -192.18006,129.70795 -241.50101,187.31984 -49.32099,57.61191 -70.52144,111.6441 -71.13742,162.44953 -1.23196,101.61084 77.33231,185.16428 155.47096,265.18961 78.13864,80.0253 156.04031,157.3018 164.66976,239.4598 4.31471,41.0791 -7.50612,84.2859 -46.40135,133.3446 -38.89526,49.0588 -105.13364,103.2896 -208.04067,163.2777 L 482.73899,1587 l 777.86511,0 2.6769,-1.5577 c 104.3896,-60.8524 172.8228,-116.3262 214.4552,-168.8373 41.6323,-52.511 56.1975,-102.7393 51.2357,-149.9785 -9.9235,-94.4784 -93.2217,-173.357 -171.0619,-253.0767 -77.8402,-79.71971 -150.0374,-159.50508 -148.9535,-248.90039 0.542,-44.69764 18.7689,-93.08586 65.6271,-147.82094 46.8581,-54.73511 122.3678,-115.30264 235.7759,-182.50785 L 1546.3355,413 Z"
           style="color:#000000;font-style:normal;font-variant:normal;font-weight:normal;font-stretch:normal;font-size:medium;line-height:normal;font-family:sans-serif;text-indent:0;text-align:start;text-decoration:none;text-decoration-line:none;text-decoration-style:solid;text-decoration-color:#000000;letter-spacing:normal;word-spacing:normal;text-transform:none;direction:ltr;block-progression:tb;writing-mode:lr-tb;baseline-shift:baseline;text-anchor:start;white-space:normal;clip-rule:nonzero;display:inline;overflow:visible;visibility:visible;opacity:1;isolation:auto;mix-blend-mode:normal;color-interpolation:sRGB;color-interpolation-filters:linearRGB;solid-color:#000000;solid-opacity:1;fill:#000000;fill-opacity:1;fill-rule:nonzero;stroke:#000000;stroke-width:70;stroke-linecap:round;stroke-linejoin:miter;stroke-miterlimit:4;stroke-dasharray:none;stroke-dashoffset:0;stroke-opacity:1;color-rendering:auto;image-rendering:auto;shape-rendering:auto;text-rendering:auto;enable-background:accumulate"
           id="path7110"
           inkscape:connector-curvature="0" />
        <path
           d="m 916.72026,1332.9116 0,22.9187 437.98724,0 0,-22.9187 z m -63.19661,-231.1742 0,22.9187 421.98735,0 0,-22.9187 z m -206.79488,-231.16969 0,22.91867 436.38463,0 0,-22.91867 z m 16.40173,-231.17421 0,22.91868 421.3992,0 0,-22.91868 z"
           style="color:#000000;font-style:normal;font-variant:normal;font-weight:normal;font-stretch:normal;font-size:medium;line-height:normal;font-family:sans-serif;text-indent:0;text-align:start;text-decoration:none;text-decoration-line:none;text-decoration-style:solid;text-decoration-color:#000000;letter-spacing:normal;word-spacing:normal;text-transform:none;direction:ltr;block-progression:tb;writing-mode:lr-tb;baseline-shift:baseline;text-anchor:start;white-space:normal;clip-rule:nonzero;display:inline;overflow:visible;visibility:visible;opacity:1;isolation:auto;mix-blend-mode:normal;color-interpolation:sRGB;color-interpolation-filters:linearRGB;solid-color:#000000;solid-opacity:1;fill:#000000;fill-opacity:1;fill-rule:nonzero;stroke:#000000;stroke-width:20;stroke-linecap:round;stroke-linejoin:miter;stroke-miterlimit:4;stroke-dasharray:none;stroke-dashoffset:0;stroke-opacity:1;color-rendering:auto;image-rendering:auto;shape-rendering:auto;text-rendering:auto;enable-background:accumulate"
           id="path4135-7"
           inkscape:connector-curvature="0" />
      </g>
    </g>
  </g>
</svg>
