<?xml version="1.0" encoding="UTF-8" standalone="no"?>
<!-- Created with Inkscape (http://www.inkscape.org/) -->

<svg
   xmlns:dc="http://purl.org/dc/elements/1.1/"
   xmlns:cc="http://creativecommons.org/ns#"
   xmlns:rdf="http://www.w3.org/1999/02/22-rdf-syntax-ns#"
   xmlns:svg="http://www.w3.org/2000/svg"
   xmlns="http://www.w3.org/2000/svg"
   xmlns:sodipodi="http://sodipodi.sourceforge.net/DTD/sodipodi-0.dtd"
   xmlns:inkscape="http://www.inkscape.org/namespaces/inkscape"
   width="2000"
   height="2000"
   viewBox="0 0 2000 2000"
   id="svg2"
   version="1.1"
   inkscape:version="0.91 r13725"
   sodipodi:docname="service-task-2.svg">
  <defs
     id="defs4" />
  <sodipodi:namedview
     id="base"
     pagecolor="#ffffff"
     bordercolor="#666666"
     borderopacity="1.0"
     inkscape:pageopacity="0.0"
     inkscape:pageshadow="2"
     inkscape:zoom="0.4345"
     inkscape:cx="582.27848"
     inkscape:cy="1000"
     inkscape:document-units="px"
     inkscape:current-layer="layer1"
     showgrid="true"
     units="px"
     showguides="false"
     inkscape:window-width="1878"
     inkscape:window-height="1035"
     inkscape:window-x="42"
     inkscape:window-y="0"
     inkscape:window-maximized="0">
    <inkscape:grid
       type="xygrid"
       id="grid4008"
       empspacing="20"
       dotted="false" />
  </sodipodi:namedview>
  <metadata
     id="metadata7">
    <rdf:RDF>
      <cc:Work
         rdf:about="">
        <dc:format>image/svg+xml</dc:format>
        <dc:type
           rdf:resource="http://purl.org/dc/dcmitype/StillImage" />
        <dc:title />
        <cc:license
           rdf:resource="https://github.com/bpmn-io/bpmn-font/blob/master/LICENSE" />
        <dc:creator>
          <cc:Agent>
            <dc:title>Jörg Dotzki</dc:title>
          </cc:Agent>
        </dc:creator>
        <dc:subject>
          <rdf:Bag>
            <rdf:li>BPMN</rdf:li>
            <rdf:li>bpmn-io</rdf:li>
            <rdf:li>bpmn.io</rdf:li>
            <rdf:li>Font</rdf:li>
          </rdf:Bag>
        </dc:subject>
      </cc:Work>
    </rdf:RDF>
  </metadata>
  <g
     inkscape:label="Ebene 1"
     inkscape:groupmode="layer"
     id="layer1"
     transform="translate(0,947.63784)">
    <rect
       style="opacity:1;fill:#ffffff;stroke:#000000;stroke-width:80;stroke-linecap:round;stroke-miterlimit:4;stroke-dasharray:none;stroke-opacity:1"
       id="rect4187"
       width="1720"
       height="1400"
       x="140"
       y="-647.63782"
       rx="315"
       ry="315" />
    <path
       style="opacity:1;fill:none;fill-opacity:1;stroke:#000000;stroke-width:10;stroke-linecap:round;stroke-miterlimit:4;stroke-dasharray:none;stroke-opacity:1"
       d="M 527.06445 446.21484 L 527.23047 510.68164 C 513.21957 513.59034 499.295 517.788 485.6543 523.47656 C 472.0136 529.18212 459.31234 536.15902 447.49414 544.04492 L 401.16211 498.27148 L 339.10938 560.68164 L 385.38477 606.39453 C 369.43737 630.61376 358.3308 657.68991 352.7207 686.11133 L 287.02344 686.23047 L 287.02344 774.03516 L 353.26172 773.79688 C 356.16602 787.65944 360.38147 801.55852 366.10547 815.08594 C 371.85787 828.69991 378.83489 841.34247 386.80859 853.05078 L 339.30859 900.36523 L 402.04492 962.02148 L 449.43164 914.85547 C 450.06121 915.26824 450.70047 915.66415 451.33398 916.07031 L 451.33398 848.24023 L 501.64648 848.14844 C 476.67735 833.51989 456.05985 811.09134 443.99609 782.57617 C 414.20849 712.10311 447.58434 630.57061 518.46484 600.93945 C 582.76877 574.05069 656.22501 599.01893 691.5 656.53906 L 691.375 608.22461 L 760.69727 608.22461 C 759.87948 606.96477 759.05698 605.70873 758.2168 604.46875 L 803.01172 559.56055 L 740.30469 497.79297 L 695.56641 542.68359 C 671.24661 526.83279 643.96498 515.7734 615.45898 510.17969 L 615.82812 446.21484 L 527.06445 446.21484 z M 779.92578 644.95703 L 779.76953 672.18945 C 783.05109 672.83339 786.31409 673.55792 789.56055 674.3457 C 787.07093 664.46933 783.89512 654.66332 779.92578 644.95703 z M 856.55078 683.3457 L 818.79297 683.57617 C 831.92893 688.71797 844.5812 695.0764 856.55078 702.58203 L 856.55078 683.3457 z M 733.54492 752.16016 C 733.15707 752.16859 732.76892 752.18948 732.38086 752.20117 C 732.78369 752.18909 733.18723 752.16874 733.58984 752.16016 C 733.57486 752.16048 733.5599 752.15983 733.54492 752.16016 z M 741.16797 752.21094 C 741.57191 752.22431 741.97534 752.2429 742.37891 752.25977 C 741.97526 752.24289 741.57199 752.22431 741.16797 752.21094 z M 745.57227 752.42969 C 745.92378 752.45245 746.27579 752.47069 746.62695 752.49609 C 746.27576 752.47068 745.92381 752.45245 745.57227 752.42969 z M 726.69531 752.47852 C 726.44538 752.49633 726.19529 752.52183 725.94531 752.54102 C 726.19543 752.52188 726.44523 752.49629 726.69531 752.47852 z M 750.77148 752.85742 C 751.00618 752.88143 751.24011 752.91036 751.47461 752.93555 C 751.24004 752.91035 751.00625 752.88144 750.77148 752.85742 z M 754.93164 753.35156 C 755.32069 753.40315 755.70921 753.45494 756.09766 753.50977 C 755.70931 753.45495 755.32059 753.40314 754.93164 753.35156 z M 759.65234 754.05859 C 759.85059 754.09177 760.04999 754.12028 760.24805 754.1543 C 760.04991 754.12026 759.85066 754.09179 759.65234 754.05859 z M 764.33203 754.91992 C 764.6531 754.98489 764.97244 755.05586 765.29297 755.12305 C 764.97247 755.05586 764.65307 754.98489 764.33203 754.91992 z M 768.63672 755.86523 C 768.92591 755.93323 769.21521 756.0005 769.50391 756.07031 C 769.21521 756.0005 768.9259 755.93324 768.63672 755.86523 z M 777.59766 758.2832 C 777.96635 758.39593 778.33347 758.51318 778.70117 758.62891 C 778.33348 758.51318 777.96634 758.39593 777.59766 758.2832 z M 781.7168 759.61719 C 782.06414 759.73514 782.41338 759.84811 782.75977 759.96875 C 782.41331 759.84807 782.06421 759.73517 781.7168 759.61719 z M 786.64844 761.38672 C 786.80122 761.445 786.9529 761.50564 787.10547 761.56445 C 786.95294 761.50565 786.80118 761.44499 786.64844 761.38672 z M 790.58398 762.96094 C 790.87924 763.08384 791.17434 763.20712 791.46875 763.33203 C 791.17432 763.20711 790.87926 763.08386 790.58398 762.96094 z M 794.89648 764.83789 C 795.04601 764.90606 795.19641 764.97232 795.3457 765.04102 C 795.19638 764.97231 795.04604 764.90608 794.89648 764.83789 z M 799.14258 766.85938 C 799.39852 766.98652 799.65303 767.11739 799.9082 767.24609 C 799.65289 767.11731 799.39865 766.98659 799.14258 766.85938 z M 802.99219 768.85156 C 803.26356 768.99695 803.5362 769.13994 803.80664 769.28711 C 803.53617 769.13992 803.2636 768.99697 802.99219 768.85156 z M 598.40234 874.55859 C 598.39537 874.61648 598.38971 874.67452 598.38281 874.73242 C 598.3897 874.67456 598.39538 874.61644 598.40234 874.55859 z M 597.91211 879.35547 C 597.90285 879.46429 597.89182 879.57278 597.88281 879.68164 C 597.89181 879.57276 597.90286 879.46431 597.91211 879.35547 z M 597.42773 889.34961 C 597.42643 889.45707 597.42293 889.56439 597.42188 889.67188 C 597.42292 889.56441 597.42644 889.45705 597.42773 889.34961 z M 597.66797 899.28711 C 597.67839 899.45967 597.68814 899.63211 597.69922 899.80469 C 597.68812 899.63221 597.67841 899.45957 597.66797 899.28711 z M 598.63281 909.21094 C 598.66912 909.48191 598.70618 909.75249 598.74414 910.02344 C 598.70616 909.7526 598.66915 909.4818 598.63281 909.21094 z M 599.46289 914.62891 C 599.48068 914.73051 599.50151 914.83199 599.51953 914.93359 C 599.50151 914.83204 599.48068 914.73047 599.46289 914.62891 z M 600.35547 919.21875 C 600.41988 919.5248 600.48421 919.8308 600.55078 920.13672 C 600.48414 919.83067 600.41994 919.52494 600.35547 919.21875 z M 601.60742 924.65234 C 601.64175 924.78787 601.68008 924.9231 601.71484 925.05859 C 601.68007 924.92311 601.64176 924.78786 601.60742 924.65234 z M 602.85938 929.22852 C 602.95244 929.54909 603.04706 929.86914 603.14258 930.18945 C 603.04704 929.86916 602.95247 929.54907 602.85938 929.22852 z M 517.57227 935.80664 L 490.19336 935.9043 C 499.81522 939.68488 509.69523 942.81123 519.76367 945.24414 C 518.96726 942.0994 518.23134 938.9525 517.57227 935.80664 z M 606.12305 939.07031 C 606.33032 939.62525 606.53703 940.18062 606.75195 940.73438 C 606.53699 940.18054 606.33036 939.62533 606.12305 939.07031 z M 607.10156 941.63086 C 607.49246 942.61781 607.89122 943.60311 608.30664 944.58594 C 607.89117 943.60299 607.49253 942.61794 607.10156 941.63086 z M 610.21875 948.87695 C 610.38075 949.22639 610.54436 949.57439 610.70898 949.92188 C 610.54445 949.57428 610.38068 949.22649 610.21875 948.87695 z M 615.0293 958.30273 C 615.15174 958.52142 615.27493 958.73922 615.39844 958.95703 C 615.27501 958.73921 615.15165 958.52142 615.0293 958.30273 z M 529.57812 975.04102 L 529.5957 1014.5352 C 535.55246 1014.5803 543.18195 1014.5992 550.82227 1014.6152 C 542.97355 1003.0309 536.09612 990.53663 530.41602 977.09375 C 530.12743 976.41173 529.85907 975.72486 529.57812 975.04102 z "
       transform="translate(0,-947.63784)"
       id="path4170" />
    <path
       sodipodi:nodetypes="cccccczcccccccsscccccccccccccccccccccccccc"
       inkscape:connector-curvature="0"
       d="m 782.10507,228.93538 0,-67.71215 c 13.9541,-2.78621 27.8796,-7.04965 41.4918,-12.69909 13.6408,-5.71661 26.3702,-12.69908 38.2738,-20.60786 l 47.3012,46.63595 62.081,-62.31883 -47.3296,-46.639515 c 15.9759,-24.263109 27.0536,-51.340069 32.6922,-79.761489 l 64.24533,-0.39532 0,-87.719316 -64.81493,0.39527 c -2.9042,-13.89254 -7.0624,-27.67368 -12.8149,-41.24813 -5.7524,-13.59735 -12.7294,-26.2573 -20.7031,-38.02527 l 44.7951,-44.90734 -62.7075,-61.76752 -44.7382,44.89076 c -24.3198,-15.8508 -51.6013,-26.91058 -80.1073,-32.50429 l 0.3682,-63.96445 -88.7627,0 0.1664,64.46715 c -14.0109,2.9087 -27.9365,7.10456 -41.5772,12.79312 -13.6407,5.70556 -26.3417,12.68287 -38.1599,20.56877 l -46.3329,-45.77364 -62.0526,62.41051 46.2761,45.71276 c -15.9474,24.21923 -27.0537,51.29621 -32.6638,79.717626 l -65.6976,0.11878 0,87.8039 66.2387,-0.23712 c 2.9043,13.86256 7.1195,27.76027 12.8435,41.28769 5.7524,13.61397 12.7294,26.2573 20.7031,37.965609 l -47.5006,47.314905 62.7361,61.65607 47.3866,-47.16673 c 24.3198,15.94486 51.6013,26.96551 80.1358,32.53749 l 0.03,67.14189 c 29.38476,0.22268 88.1979,0.0298 88.1979,0.0298 z m 8.7711,-157.911385 c -70.8521,29.648135 -152.782,-3.66751 -182.5694,-74.076119 -29.7876,-70.47306 3.5882,-152.005836 74.4687,-181.636996 70.8236,-29.61497 152.7535,3.67143 182.541,74.0757 29.7875,70.411386 -3.5883,151.999936 -74.4403,181.637415 z"
       id="path4136"
       style="opacity:1;fill:none;fill-opacity:1;stroke:#000000;stroke-width:10;stroke-linecap:round;stroke-miterlimit:4;stroke-dasharray:none;stroke-opacity:1" />
  </g>
</svg>
