<?xml version="1.0" encoding="UTF-8" standalone="no"?>
<svg
   xmlns:dc="http://purl.org/dc/elements/1.1/"
   xmlns:cc="http://creativecommons.org/ns#"
   xmlns:rdf="http://www.w3.org/1999/02/22-rdf-syntax-ns#"
   xmlns:svg="http://www.w3.org/2000/svg"
   xmlns="http://www.w3.org/2000/svg"
   version="1.1"
   id="svg3891"
   height="2048"
   width="2048">
  <defs
     id="defs3893" />
  <metadata
     id="metadata3896">
    <rdf:RDF>
      <cc:Work
         rdf:about="">
        <dc:format>image/svg+xml</dc:format>
        <dc:type
           rdf:resource="http://purl.org/dc/dcmitype/StillImage" />
        <dc:title></dc:title>
      </cc:Work>
    </rdf:RDF>
  </metadata>
  <g
     transform="translate(0,995.63783)"
     id="layer1">
    <g
       transform="translate(-6e-6,1.2249145e-5)"
       id="g4514">
      <path
         id="rect4541"
         transform="translate(6e-6,-995.63784)"
         d="M 96 294 L 96 737 L 96 837 L 96 1211 L 96 1311 L 96 1754 L 1952 1754 L 1952 1311 L 1952 1261 L 1952 1211 L 1952 837 L 1952 787 L 1952 737 L 1952 294 L 96 294 z M 192 384.75781 L 1852 384.75781 L 1852 737 L 1826 737 L 1826 837 L 1852 837 L 1852 1211 L 1826 1211 L 1826 1311 L 1852 1311 L 1852 1656.2988 L 192 1656.2988 L 192 1311 L 228 1311 L 228 1211 L 192 1211 L 192 837 L 228 837 L 228 737 L 192 737 L 192 384.75781 z M 328 737 L 328 837 L 528 837 L 528 737 L 328 737 z M 628 737 L 628 837 L 828 837 L 828 737 L 628 737 z M 928 737 L 928 837 L 1128 837 L 1128 737 L 928 737 z M 1228 737 L 1228 837 L 1428 837 L 1428 737 L 1228 737 z M 1528 737 L 1528 837 L 1728 837 L 1728 737 L 1528 737 z M 328 1211 L 328 1311 L 528 1311 L 528 1211 L 328 1211 z M 628 1211 L 628 1311 L 828 1311 L 828 1211 L 628 1211 z M 928 1211 L 928 1311 L 1128 1311 L 1128 1211 L 928 1211 z M 1228 1211 L 1228 1311 L 1428 1311 L 1428 1211 L 1228 1211 z M 1528 1211 L 1528 1311 L 1728 1311 L 1728 1211 L 1528 1211 z "
         style="color:#000000;font-style:normal;font-variant:normal;font-weight:normal;font-stretch:normal;font-size:medium;line-height:normal;font-family:sans-serif;text-indent:0;text-align:start;text-decoration:none;text-decoration-line:none;text-decoration-style:solid;text-decoration-color:#000000;letter-spacing:normal;word-spacing:normal;text-transform:none;direction:ltr;block-progression:tb;writing-mode:lr-tb;baseline-shift:baseline;text-anchor:start;white-space:normal;clip-rule:nonzero;display:inline;overflow:visible;visibility:visible;opacity:1;isolation:auto;mix-blend-mode:normal;color-interpolation:sRGB;color-interpolation-filters:linearRGB;solid-color:#000000;solid-opacity:1;fill:#000000;fill-opacity:1;fill-rule:nonzero;stroke:none;stroke-width:1.03356099;stroke-linecap:square;stroke-linejoin:miter;stroke-miterlimit:4;stroke-dasharray:none;stroke-dashoffset:0;stroke-opacity:1;color-rendering:auto;image-rendering:auto;shape-rendering:auto;text-rendering:auto;enable-background:accumulate" />
    </g>
  </g>
</svg>
