<?xml version="1.0" encoding="UTF-8" standalone="no"?>
<svg
   xmlns:dc="http://purl.org/dc/elements/1.1/"
   xmlns:cc="http://creativecommons.org/ns#"
   xmlns:rdf="http://www.w3.org/1999/02/22-rdf-syntax-ns#"
   xmlns:svg="http://www.w3.org/2000/svg"
   xmlns="http://www.w3.org/2000/svg"
   version="1.1"
   id="svg3891"
   height="2048"
   width="2048">
  <defs
     id="defs3893" />
  <metadata
     id="metadata3896">
    <rdf:RDF>
      <cc:Work
         rdf:about="">
        <dc:format>image/svg+xml</dc:format>
        <dc:type
           rdf:resource="http://purl.org/dc/dcmitype/StillImage" />
        <dc:title></dc:title>
      </cc:Work>
    </rdf:RDF>
  </metadata>
  <g
     transform="translate(0,995.63783)"
     id="layer1">
    <g
       transform="translate(-6e-6,1.2249145e-5)"
       id="g4514">
      <path
         id="rect4541"
         d="m 95.000006,847.00476 0,-182 100.000004,0 0,82 32,0 0,100 -132.000004,0 z m 232.000004,0 0,-100 200,0 0,100 -200,0 z m 300,0 0,-100 200,0 0,100 -200,0 z m 300,0 0,-100 199.99999,0 0,100 -199.99999,0 z m 299.99999,0 0,-100 200,0 0,100 -200,0 z m 300,0 0,-100 200,0 0,100 -200,0 z m 298,0 0,-100 26,0 0,-82 100,0 0,132 0,50 -50,0 -76,0 z m -1729.999994,-282 0,-188 100.000004,0 0,188 -100.000004,0 z m 1755.999994,0 0,-188 100,0 0,188 -100,0 z M 96.000006,280.36218 l 0,-1080.00002 1855.999994,0 0,1080.00002 -1855.999994,0 z M 1852,182.66296 l 0,-891.543 -1659.99999,0 0,891.54105 1659.99999,0.002 z"
         style="color:#000000;font-style:normal;font-variant:normal;font-weight:normal;font-stretch:normal;font-size:medium;line-height:normal;font-family:sans-serif;text-indent:0;text-align:start;text-decoration:none;text-decoration-line:none;text-decoration-style:solid;text-decoration-color:#000000;letter-spacing:normal;word-spacing:normal;text-transform:none;direction:ltr;block-progression:tb;writing-mode:lr-tb;baseline-shift:baseline;text-anchor:start;white-space:normal;clip-rule:nonzero;display:inline;overflow:visible;visibility:visible;opacity:1;isolation:auto;mix-blend-mode:normal;color-interpolation:sRGB;color-interpolation-filters:linearRGB;solid-color:#000000;solid-opacity:1;fill:#000000;fill-opacity:1;fill-rule:nonzero;stroke:none;stroke-width:1.03356099;stroke-linecap:square;stroke-linejoin:miter;stroke-miterlimit:4;stroke-dasharray:none;stroke-dashoffset:0;stroke-opacity:1;color-rendering:auto;image-rendering:auto;shape-rendering:auto;text-rendering:auto;enable-background:accumulate" />
    </g>
  </g>
</svg>
