<?xml version="1.0" encoding="UTF-8" standalone="no"?>
<!-- Created with Inkscape (http://www.inkscape.org/) -->

<svg
   xmlns:dc="http://purl.org/dc/elements/1.1/"
   xmlns:cc="http://creativecommons.org/ns#"
   xmlns:rdf="http://www.w3.org/1999/02/22-rdf-syntax-ns#"
   xmlns:svg="http://www.w3.org/2000/svg"
   xmlns="http://www.w3.org/2000/svg"
   xmlns:sodipodi="http://sodipodi.sourceforge.net/DTD/sodipodi-0.dtd"
   xmlns:inkscape="http://www.inkscape.org/namespaces/inkscape"
   width="2048"
   height="2048"
   id="svg3891"
   version="1.1"
   inkscape:version="0.91 r13725"
   sodipodi:docname="intermediate-event.svg"
   inkscape:export-filename="/home/nikku/camunda/projects/bpmn.io/bpmn-font/raw/intermediate-event.png"
   inkscape:export-xdpi="0.87890625"
   inkscape:export-ydpi="0.87890625">
  <defs
     id="defs3893" />
  <sodipodi:namedview
     id="base"
     pagecolor="#ffffff"
     bordercolor="#666666"
     borderopacity="1.0"
     inkscape:pageopacity="0.0"
     inkscape:pageshadow="2"
     inkscape:zoom="0.3"
     inkscape:cx="1149.2528"
     inkscape:cy="1121.3112"
     inkscape:document-units="px"
     inkscape:current-layer="layer1-6"
     showgrid="false"
     inkscape:window-width="1596"
     inkscape:window-height="753"
     inkscape:window-x="0"
     inkscape:window-y="145"
     inkscape:window-maximized="0" />
  <metadata
     id="metadata3896">
    <rdf:RDF>
      <cc:Work
         rdf:about="">
        <dc:format>image/svg+xml</dc:format>
        <dc:type
           rdf:resource="http://purl.org/dc/dcmitype/StillImage" />
        <dc:title />
      </cc:Work>
    </rdf:RDF>
  </metadata>
  <g
     inkscape:label="Layer 1"
     inkscape:groupmode="layer"
     id="layer1"
     transform="translate(0,995.63783)">
    <g
       transform="matrix(96.752895,0,0,96.752895,55.328158,-100816.34)"
       id="layer1-6"
       inkscape:label="Layer 1">
      <path
         style="color:#000000;font-style:normal;font-variant:normal;font-weight:normal;font-stretch:normal;font-size:medium;line-height:normal;font-family:sans-serif;text-indent:0;text-align:start;text-decoration:none;text-decoration-line:none;text-decoration-style:solid;text-decoration-color:#000000;letter-spacing:normal;word-spacing:normal;text-transform:none;direction:ltr;block-progression:tb;writing-mode:lr-tb;baseline-shift:baseline;text-anchor:start;white-space:normal;clip-rule:nonzero;display:inline;overflow:visible;visibility:visible;opacity:1;isolation:auto;mix-blend-mode:normal;color-interpolation:sRGB;color-interpolation-filters:linearRGB;solid-color:#000000;solid-opacity:1;fill:#000000;fill-opacity:1;fill-rule:nonzero;stroke:none;stroke-width:1.03356075;stroke-linecap:round;stroke-linejoin:round;stroke-miterlimit:4;stroke-dasharray:none;stroke-dashoffset:0;stroke-opacity:1;color-rendering:auto;image-rendering:auto;shape-rendering:auto;text-rendering:auto;enable-background:accumulate"
         d="m 9.9179325,1032.7348 c -4.2640412,-0.035 -8.276455,3.166 -9.21319128,7.3233 -0.90369549,3.6619 0.58548738,7.7776 3.66919888,9.9665 3.0650838,2.2655 7.5031399,2.455 10.7120219,0.3726 3.152972,-1.9595 4.981584,-5.8406 4.380987,-9.5188 -0.540582,-3.7322 -3.462496,-6.9969 -7.146939,-7.8597 -0.784439,-0.1963 -1.593637,-0.2896 -2.4020775,-0.2839 z m 0.1750395,1.0328 c 3.962262,-0.04 7.66883,3.079 8.307357,6.9913 0.67591,3.5341 -1.141383,7.3846 -4.343053,9.0529 -3.273439,1.8015 -7.6946814,1.1268 -10.2363597,-1.6304 -2.6058418,-2.6895 -3.11210657,-7.1497 -1.1040274,-10.3262 1.5264895,-2.5187 4.4221694,-4.1554 7.3760831,-4.0876 z m -0.2480347,0.9303 c -3.6484753,0 -6.9917202,3.0195 -7.3836633,6.6469 -0.4667025,3.3992 1.6715697,6.9445 4.9152614,8.0857 3.0730056,1.1613 6.8272006,0.06 8.7454246,-2.6197 2.070009,-2.7412 1.950937,-6.9005 -0.356655,-9.4679 -1.456433,-1.6957 -3.680576,-2.7089 -5.9203677,-2.645 z m 0.3033667,1.0123 c 3.229483,0 6.172538,2.7251 6.418995,5.9461 0.336689,3.0682 -1.768911,6.1981 -4.766977,6.9838 -2.8893925,0.8428 -6.2532324,-0.559 -7.6221629,-3.2567 -1.4733961,-2.7265 -0.717816,-6.4561 1.8020167,-8.303 1.1807162,-0.9129 2.6757541,-1.4053 4.1681282,-1.3702 z"
         id="path4481-5-4"
         inkscape:connector-curvature="0" />
    </g>
  </g>
</svg>
