<?xml version="1.0" encoding="UTF-8" standalone="no"?>
<!-- Created with Inkscape (http://www.inkscape.org/) -->

<svg
   xmlns:dc="http://purl.org/dc/elements/1.1/"
   xmlns:cc="http://creativecommons.org/ns#"
   xmlns:rdf="http://www.w3.org/1999/02/22-rdf-syntax-ns#"
   xmlns:svg="http://www.w3.org/2000/svg"
   xmlns="http://www.w3.org/2000/svg"
   xmlns:sodipodi="http://sodipodi.sourceforge.net/DTD/sodipodi-0.dtd"
   xmlns:inkscape="http://www.inkscape.org/namespaces/inkscape"
   width="2000"
   height="2000"
   viewBox="0 0 2000 2000"
   id="svg2"
   version="1.1"
   inkscape:version="0.91 r13725"
   sodipodi:docname="02-message-intermediate-non-interrupting-event.svg">
  <defs
     id="defs4" />
  <sodipodi:namedview
     id="base"
     pagecolor="#ffffff"
     bordercolor="#666666"
     borderopacity="1.0"
     inkscape:pageopacity="0.0"
     inkscape:pageshadow="2"
     inkscape:zoom="0.4345"
     inkscape:cx="965.46386"
     inkscape:cy="1000"
     inkscape:document-units="px"
     inkscape:current-layer="layer1"
     showgrid="true"
     units="px"
     showguides="false"
     inkscape:window-width="1878"
     inkscape:window-height="1035"
     inkscape:window-x="42"
     inkscape:window-y="0"
     inkscape:window-maximized="0">
    <inkscape:grid
       type="xygrid"
       id="grid4008"
       empspacing="20"
       dotted="false" />
  </sodipodi:namedview>
  <metadata
     id="metadata7">
    <rdf:RDF>
      <cc:Work
         rdf:about="">
        <dc:format>image/svg+xml</dc:format>
        <dc:type
           rdf:resource="http://purl.org/dc/dcmitype/StillImage" />
        <dc:title />
        <cc:license
           rdf:resource="https://github.com/bpmn-io/bpmn-font/blob/master/LICENSE" />
        <dc:creator>
          <cc:Agent>
            <dc:title>Jörg Dotzki</dc:title>
          </cc:Agent>
        </dc:creator>
        <dc:subject>
          <rdf:Bag>
            <rdf:li>BPMN</rdf:li>
            <rdf:li>bpmn-io</rdf:li>
            <rdf:li>bpmn.io</rdf:li>
            <rdf:li>Font</rdf:li>
          </rdf:Bag>
        </dc:subject>
      </cc:Work>
    </rdf:RDF>
  </metadata>
  <g
     inkscape:label="Ebene 1"
     inkscape:groupmode="layer"
     id="layer1"
     transform="translate(0,947.63784)">
    <path
       style="color:#000000;font-style:normal;font-variant:normal;font-weight:normal;font-stretch:normal;font-size:medium;line-height:normal;font-family:sans-serif;text-indent:0;text-align:start;text-decoration:none;text-decoration-line:none;text-decoration-style:solid;text-decoration-color:#000000;letter-spacing:normal;word-spacing:normal;text-transform:none;direction:ltr;block-progression:tb;writing-mode:lr-tb;baseline-shift:baseline;text-anchor:start;white-space:normal;clip-rule:nonzero;display:inline;overflow:visible;visibility:visible;opacity:1;isolation:auto;mix-blend-mode:normal;color-interpolation:sRGB;color-interpolation-filters:linearRGB;solid-color:#000000;solid-opacity:1;fill:#000000;fill-opacity:1;fill-rule:nonzero;stroke:none;stroke-width:70;stroke-linecap:round;stroke-linejoin:miter;stroke-miterlimit:4;stroke-dasharray:420, 420;stroke-dashoffset:0;stroke-opacity:1;color-rendering:auto;image-rendering:auto;shape-rendering:auto;text-rendering:auto;enable-background:accumulate"
       d="m 999.7832,-937.63672 -11.86523,0.0723 -0.2168,0.002 -0.21679,0.004 -11.84961,0.2207 -0.2168,0.004 -0.2168,0.008 -11.83008,0.36523 -0.21679,0.008 -0.2168,0.01 -11.81055,0.51172 -0.21679,0.01 -0.2168,0.0117 -11.79102,0.65821 -0.21679,0.0117 -0.21485,0.0156 -11.77148,0.80273 -0.21484,0.0137 -0.21485,0.0176 -11.74805,0.94726 -0.21484,0.0176 -0.21484,0.0215 -11.72461,1.08985 -0.21485,0.0195 -0.21484,0.0234 -11.69922,1.23437 -0.21484,0.0234 -0.21289,0.0254 -11.67383,1.37695 -0.21484,0.0254 -0.2129,0.0274 -11.64453,1.51953 -0.21484,0.0273 -0.21289,0.0312 -11.61719,1.66016 -0.21289,0.0312 -0.21094,0.0332 -11.58789,1.80274 -0.21289,0.0332 -0.21094,0.0352 -11.55664,1.94336 -0.21093,0.0352 -0.21289,0.0391 -11.52344,2.08399 -0.21094,0.0391 -0.21094,0.0391 -11.49023,2.22461 -0.20899,0.041 -0.21093,0.043 -11.45508,2.36328 -0.21094,0.043 -0.20898,0.0449 -11.41797,2.50195 -0.21094,0.0469 -0.20703,0.0488 -11.38281,2.63868 -0.20899,0.0488 -0.20703,0.0508 -11.34375,2.77735 -0.20898,0.0508 -0.20703,0.0547 -11.30469,2.91406 -0.20703,0.0527 -0.20508,0.0566 -11.26367,3.05078 -0.20703,0.0566 -0.20508,0.0586 -11.22071,3.1875 -0.20507,0.0586 -0.20508,0.0606 -11.17774,3.32422 -0.20507,0.0606 -0.20508,0.0644 -11.13281,3.45898 -0.20313,0.0625 -0.20313,0.0664 -6.5039,2.10742 -7.66992,3.56055 -6.59375,5.29687 -5.13086,6.72266 -3.36719,7.75781 -1.4082,8.33789 0.63086,8.4336 2.63672,8.03515 4.48828,7.16993 6.07617,5.88281 7.30859,4.2539 8.11719,2.375 8.44922,0.36133 8.04687,-1.59765 6.30274,-2.04297 10.65429,-3.31055 10.84375,-3.22461 10.88282,-3.0918 10.73828,-2.9082 10.8164,-2.79101 11.14844,-2.72852 0.0918,-0.0234 10.79492,-2.50195 10.91992,-2.39258 11.07227,-2.2832 11.14062,-2.15625 11.01367,-1.99024 11.17383,-1.8789 11.22266,-1.74805 11.07812,-1.58203 11.26368,-1.4707 11.30468,-1.33399 11.17383,-1.17773 11.34766,-1.05664 11.1875,-0.90235 11.54492,-0.78711 11.40039,-0.63476 0.0684,-0.004 11.20508,-0.48437 11.27929,-0.34961 11.45508,-0.21485 11.4668,-0.0703 11.4668,0.0703 11.4551,0.21485 11.2793,0.34961 11.205,0.48437 0.068,0.004 11.4004,0.63476 11.5449,0.78711 11.1875,0.90235 11.3477,1.05664 11.1738,1.17773 11.3184,1.33594 1.3984,0.18164 8.457,0.0742 8.2266,-1.95703 7.5176,-3.875 6.3691,-5.56446 4.8477,-6.92773 3.0468,-7.89062 1.0625,-8.39063 -0.9804,-8.39844 -2.9649,-7.91992 -4.7793,-6.97851 -6.3125,-5.62696 -7.4785,-3.94922 -7.9551,-2.00586 -1.6113,-0.21093 -0.2129,-0.0274 -0.2148,-0.0254 -11.6738,-1.37695 -0.2129,-0.0254 -0.2149,-0.0234 -11.6992,-1.23437 -0.2148,-0.0234 -0.2149,-0.0195 -11.7246,-1.08985 -0.2148,-0.0215 -0.2149,-0.0176 -11.748,-0.94726 -0.2149,-0.0176 -0.2148,-0.0137 -11.7715,-0.80273 -0.2148,-0.0156 -0.2168,-0.0117 -11.7911,-0.65821 -0.2168,-0.0117 -0.2168,-0.01 -11.8105,-0.51172 -0.2168,-0.01 -0.2168,-0.008 -11.8301,-0.36523 -0.2168,-0.008 -0.2168,-0.004 -11.8496,-0.2207 -0.2168,-0.004 -0.2168,-0.002 -11.8652,-0.0723 -0.2168,-0.002 z m 506.1621,148.91211 -8.1308,2.32031 -7.3379,4.20508 -6.1172,5.8418 -4.5352,7.13672 -2.6914,8.01758 -0.6894,8.42968 1.3515,8.34766 3.3164,7.7793 5.084,6.75781 6.3418,5.20508 8.416,5.39062 9.2852,6.10742 0.068,0.0469 9.459,6.38867 9.3125,6.46289 8.9707,6.38477 0.059,0.043 9.2364,6.74805 8.9785,6.73242 9.0781,6.98047 8.9004,7.02344 8.7461,7.07617 8.7402,7.25195 8.582,7.30079 8.4668,7.38281 0.033,0.0293 8.5762,7.66992 8.3985,7.69726 8.3222,7.82227 8.3086,8.00586 8.0625,7.96289 8.043,8.14258 7.8535,8.15039 7.8906,8.39648 7.6348,8.32813 7.5937,8.49023 7.4805,8.57422 7.2383,8.50391 0.062,0.0742 7.3281,8.83203 7.1504,8.83789 7.0234,8.90625 6.8301,8.8789 6.8106,9.08203 6.6172,9.05664 6.6289,9.3086 6.4375,9.2832 6.2714,9.2793 6.1524,9.34961 5.0683,7.91015 5.3887,6.51954 6.7949,5.03515 7.8028,3.25781 8.3593,1.29102 8.4239,-0.75195 7.9961,-2.74805 7.1054,-4.58789 5.7969,-6.1582 4.1504,-7.36914 2.2617,-8.14844 0.2403,-8.45313 -1.793,-8.26562 -3.584,-7.37891 -5.1465,-8.03125 -0.1152,-0.18164 -0.1172,-0.17773 -6.4297,-9.77149 -0.1172,-0.17968 -0.1211,-0.17774 -6.5527,-9.69726 -0.1191,-0.17774 -0.1231,-0.17578 -6.6738,-9.62109 -0.1231,-0.17774 -0.125,-0.17383 -6.7968,-9.54687 -0.125,-0.17383 -0.127,-0.17383 -6.918,-9.46875 -0.1269,-0.17383 -0.1289,-0.17187 -7.0391,-9.38867 -0.1289,-0.17188 -0.1328,-0.17187 -7.1602,-9.3086 -0.1308,-0.16992 -0.1328,-0.16992 -7.2813,-9.22852 -0.1328,-0.16796 -0.1348,-0.16797 -7.4004,-9.14649 -0.1367,-0.16601 -0.1367,-0.16602 -7.5195,-9.0625 -0.1367,-0.16601 -0.1407,-0.16407 -7.6367,-8.97851 -0.1406,-0.16407 -0.1426,-0.16211 -7.7539,-8.89062 -0.1426,-0.16406 -0.1445,-0.16016 -7.8731,-8.80469 -0.1445,-0.16015 -0.1445,-0.16016 -7.9902,-8.71484 -0.1465,-0.16016 -0.1485,-0.15625 -8.1054,-8.625 -0.1504,-0.1582 -0.1504,-0.15625 -8.2207,-8.53516 -0.1504,-0.15625 -0.1524,-0.15429 -8.3378,-8.44141 -0.1524,-0.1543 -0.1562,-0.15234 -8.4414,-8.33789 -0.1543,-0.15235 -0.1563,-0.15039 -8.5332,-8.22265 -0.1562,-0.15039 -0.1583,-0.14844 -8.625,-8.10547 -0.1582,-0.14844 -0.1601,-0.14648 -8.7149,-7.99024 -0.1582,-0.14648 -0.1621,-0.14453 -8.8027,-7.87305 -0.1621,-0.14453 -0.1621,-0.14062 -8.8906,-7.75586 -0.1641,-0.14258 -0.1641,-0.13867 -8.9765,-7.63868 -0.1641,-0.13867 -0.168,-0.13867 -9.0605,-7.51953 -0.166,-0.13672 -0.168,-0.13672 -9.1465,-7.39844 -0.166,-0.13672 -0.1699,-0.13281 -9.2285,-7.27929 -0.168,-0.13477 -0.1719,-0.13086 -9.3086,-7.16016 -0.1699,-0.13085 -0.1719,-0.12891 -9.3906,-7.04102 -0.1719,-0.1289 -0.1738,-0.12696 -9.4668,-6.91797 -0.1738,-0.12695 -0.1758,-0.125 -9.5449,-6.79687 -0.1758,-0.12305 -0.1758,-0.12305 -9.623,-6.67578 -0.1758,-0.12109 -0.1777,-0.1211 -9.6973,-6.55273 -0.1777,-0.11914 -0.1778,-0.11719 -9.7715,-6.42969 -0.1797,-0.11914 -0.1796,-0.11523 -8.6485,-5.53906 -7.6191,-3.66797 -8.2774,-1.73242 z m -1169.44725,111.45117 -7.79493,3.28125 -6.5957,4.87891 -4.38867,4.125 -0.1582,0.14844 -0.15625,0.15039 -8.53321,8.22265 -0.15625,0.15039 -0.15429,0.15235 -8.44141,8.33789 -0.15625,0.15234 -0.15234,0.1543 -8.33789,8.44141 -0.15235,0.15429 -0.15039,0.15625 -8.2207,8.53516 -0.15039,0.15625 -0.15039,0.1582 -8.10547,8.625 -0.14844,0.15625 -0.14648,0.16016 -7.99024,8.71484 -0.14453,0.16016 -0.14453,0.16015 -7.87305,8.80469 -0.14453,0.16016 -0.14258,0.16406 -7.7539,8.89062 -0.14258,0.16211 -0.14063,0.16407 -7.63671,8.97851 -0.14063,0.16407 -0.13672,0.16601 -7.51953,9.0625 -0.13672,0.16602 -0.13672,0.16601 -7.40039,9.14649 -0.13476,0.16797 -0.13282,0.16796 -7.28125,9.22852 -0.13281,0.16992 -0.13086,0.16992 -7.16015,9.3086 -0.13282,0.17187 -0.1289,0.17188 -7.03907,9.38867 -0.1289,0.17187 -0.12695,0.17383 -6.91797,9.46875 -0.12696,0.17383 -0.125,0.17383 -6.79687,9.54687 -0.125,0.17383 -0.12305,0.17774 -6.67383,9.62109 -0.12304,0.17578 -0.11914,0.17774 -6.55274,9.69726 -0.12109,0.17774 -0.11719,0.17968 -6.42969,9.77149 -0.11718,0.17773 -0.11524,0.18164 -6.30664,9.84375 -0.11523,0.17969 -0.11329,0.18164 -6.18164,9.91602 -0.11328,0.18164 -0.11132,0.18164 -6.05665,9.98632 -0.11132,0.1836 -0.10938,0.18359 -5.93164,10.05469 -0.10742,0.18359 -0.10742,0.18555 -5.80664,10.12305 -0.10547,0.18554 -0.10352,0.18555 -5.68164,10.18945 -0.10351,0.18555 -0.10157,0.18945 -5.55468,10.25391 -0.10157,0.1875 -0.0996,0.18945 -5.42578,10.31641 -0.0996,0.18945 -0.0976,0.19141 -5.29883,10.38086 -0.0957,0.18945 -0.0957,0.19141 -5.16992,10.44336 -0.0957,0.1914 -0.0918,0.19141 -5.04297,10.50391 -0.0918,0.1914 -0.0898,0.19336 -4.912108,10.5625 -0.0918,0.19336 -0.08594,0.19531 -4.783204,10.6211 -0.08789,0.19336 -0.08594,0.19531 -4.652344,10.67773 -0.08594,0.19532 -0.08203,0.19726 -4.523438,10.73242 -0.08203,0.19727 -0.08203,0.19726 -4.390625,10.78711 -0.08008,0.19727 -0.07813,0.19922 -1.3125,3.33984 -2.119141,8.18555 -0.09375,8.45703 1.9375,8.23242 3.855469,7.52735 5.548828,6.38281 6.916016,4.86523 7.882812,3.06446 8.38672,1.08398 8.4043,-0.95898 7.92578,-2.94727 6.99023,-4.76172 5.64258,-6.30078 3.87305,-7.23047 1.22265,-3.11328 4.20508,-10.33008 4.38477,-10.4082 4.51562,-10.35742 4.57813,-10.16797 4.79296,-10.30274 0.0371,-0.0781 4.79297,-9.98047 4.95118,-10 5.07421,-9.93945 5.26172,-10.00586 5.31641,-9.81836 5.40039,-9.68945 0.0371,-0.0645 5.62695,-9.8125 5.7168,-9.6914 5.86719,-9.67383 5.96093,-9.5586 6.10743,-9.53515 6.15234,-9.34961 6.27148,-9.2793 6.4375,-9.2832 6.62891,-9.3086 6.61719,-9.05664 6.81054,-9.08203 6.83008,-8.8789 7.02344,-8.90625 7.15039,-8.83789 7.32813,-8.83203 0.0625,-0.0742 7.23828,-8.50391 7.48047,-8.57422 7.59375,-8.49023 7.63476,-8.32813 7.89063,-8.39648 7.85351,-8.15039 8.04297,-8.14258 8.0625,-7.96289 8.30859,-8.00781 4.2129,-3.95899 5.41796,-6.49414 3.70313,-7.60351 1.76953,-8.26954 -0.26562,-8.45312 -2.28516,-8.14258 -4.17188,-7.35742 -5.81445,-6.14063 -7.11719,-4.56836 -8.00586,-2.72656 -8.42578,-0.72656 z m 1602.09965,575.66406 -7.8672,3.103521 -6.8926,4.898437 -5.5176,6.410156 -3.8183,7.544922 -1.8985,8.242188 0.1016,8.203125 0.2812,2.152343 1.3145,11.148438 1.1933,11.3125 1.0567,11.335938 0.916,11.36914 0.7656,11.232422 0.6367,11.3964844 0.4942,11.4199216 0.3555,11.433594 0.2109,11.453125 0.068,11.316406 -0.068,11.314453 -0.2109,11.453125 -0.3555,11.439453 -0.4942,11.419922 -0.6367,11.398436 -0.7656,11.22461 -0.916,11.36914 -1.0567,11.33594 -1.1933,11.3125 -1.3145,11.14648 -1.4726,11.27735 -1.584,11.07812 -1.7676,11.35938 -1.8164,10.80859 -0.014,0.0781 -2.0468,11.32226 -2.129,10.98438 -2.2578,10.95703 -2.4511,11.1875 -2.5254,10.88867 -2.6485,10.81445 -2.8261,10.96094 -2.959,10.92383 -3.0508,10.73633 -3.2109,10.79882 -3.3106,10.6543 -3.4101,10.52539 -0.029,0.0859 -3.6153,10.71094 -3.7617,10.71093 -3.8066,10.42383 -4.0059,10.57032 -4.0781,10.3789 -4.2031,10.32813 -4.3848,10.4082 -4.5156,10.35742 -4.5801,10.16992 -4.1445,8.91407 -2.6153,8.04101 -0.6094,8.43555 1.4336,8.33594 3.3887,7.74804 5.1504,6.70899 6.6074,5.27734 7.6817,3.53906 8.3047,1.5918 8.4453,-0.44531 8.0918,-2.45899 7.2656,-4.32617 6.0176,-5.94531 4.3066,-6.98047 4.2305,-9.0957 0.092,-0.19531 0.086,-0.19336 4.7832,-10.6211 0.088,-0.19336 0.086,-0.19726 4.6524,-10.67578 0.086,-0.19532 0.082,-0.19726 4.5234,-10.73242 0.082,-0.19727 0.082,-0.19727 4.3906,-10.7871 0.08,-0.19727 0.078,-0.19922 4.2597,-10.83984 0.078,-0.19922 0.076,-0.19922 4.127,-10.89258 0.076,-0.19922 0.072,-0.19922 3.9942,-10.94336 0.074,-0.20117 0.07,-0.20117 3.8613,-10.99219 0.07,-0.20117 0.068,-0.20117 3.7285,-11.04102 0.068,-0.20312 0.066,-0.20313 3.5937,-11.08593 0.065,-0.20313 0.064,-0.20508 3.459,-11.13281 0.062,-0.20508 0.061,-0.20312 3.3242,-11.17774 0.061,-0.20508 0.059,-0.20507 3.1875,-11.22266 0.059,-0.20508 0.057,-0.20703 3.0508,-11.26172 0.057,-0.20703 0.053,-0.20703 2.916,-11.30469 0.053,-0.20703 0.051,-0.20703 2.7773,-11.34375 0.053,-0.20898 0.047,-0.20704 2.6406,-11.38281 0.049,-0.20898 0.045,-0.20899 2.5019,-11.41992 0.047,-0.20898 0.043,-0.20899 2.3613,-11.45703 0.045,-0.20898 0.041,-0.21094 2.2226,-11.49024 0.041,-0.21093 0.037,-0.21094 2.084,-11.52344 0.039,-0.21093 0.035,-0.2129 1.9434,-11.55468 0.037,-0.21289 0.031,-0.21289 1.8027,-11.58594 0.033,-0.21289 0.031,-0.21289 1.6622,-11.61719 0.029,-0.21289 0.027,-0.21289 1.5195,-11.64649 0.029,-0.21289 0.025,-0.21484 1.377,-11.67188 0.025,-0.21484 0.021,-0.21289 1.2344,-11.69922 0.023,-0.21484 0.02,-0.21485 1.0918,-11.72461 0.02,-0.21484 0.018,-0.21484 0.9473,-11.74805 0.018,-0.2168 0.014,-0.21484 0.8047,-11.76953 0.014,-0.2168 0.012,-0.2168 0.6582,-11.79101 0.012,-0.2168 0.01,-0.21484 0.5136,-11.812502 0.01,-0.216797 0.01,-0.216797 0.3672,-11.830078 0.01,-0.216797 0,-0.216797 0.2207,-11.847656 0,-0.21875 0,-0.216797 0.074,-11.863281 -0.025,-0.214844 0.025,-0.220703 -0.074,-11.865234 -0,-0.216797 -0,-0.216797 -0.2207,-11.847656 -0,-0.216797 -0.01,-0.216797 -0.3672,-11.830078 -0.01,-0.216797 -0.01,-0.216797 -0.5136,-11.8124998 -0.01,-0.2167968 -0.012,-0.2148438 -0.6582,-11.7929687 -0.012,-0.2148438 -0.014,-0.2167969 -0.8047,-11.7695312 -0.014,-0.216797 -0.018,-0.214844 -0.9473,-11.748047 -0.018,-0.214843 -0.02,-0.214844 -1.0918,-11.724609 -0.02,-0.214844 -0.023,-0.214844 -1.2344,-11.699219 -0.021,-0.21289 -0.025,-0.214844 -1.377,-11.673828 -0.025,-0.212891 -0.029,-0.214844 -0.3047,-2.333984 -2.0976,-8.193359 -4.0039,-7.449219 -5.6739,-6.271484 -7.0117,-4.728516 -7.9414,-2.9082 -8.4062,-0.91797 z M 40.193359,78.179688 l -8.044921,2.611328 -7.181641,4.466796 -5.902344,6.056641 -4.275391,7.296875 -2.402343,8.107422 -0.404297,8.19531 0.734375,10.74805 0.01367,0.21484 0.01758,0.2168 0.947265,11.74805 0.01758,0.21484 0.01953,0.21484 1.091797,11.72461 0.01953,0.21485 0.02344,0.21484 1.234374,11.69922 0.02148,0.21289 0.02539,0.21484 1.376953,11.67188 0.02539,0.21484 0.0293,0.21289 1.519531,11.64649 0.02734,0.21289 0.0293,0.21289 1.662109,11.61719 0.03125,0.21289 0.0332,0.21289 1.802735,11.58594 0.03125,0.21289 0.03711,0.21289 1.94336,11.55468 0.03516,0.2129 0.03906,0.21093 2.083985,11.52344 0.03711,0.21094 0.04102,0.21093 2.222656,11.49024 0.04102,0.21094 0.04492,0.20898 2.361328,11.45703 0.04297,0.20899 0.04687,0.20898 2.501953,11.41992 0.04492,0.20899 0.04883,0.20898 2.640626,11.38281 0.04687,0.20704 0.05273,0.20898 2.777344,11.34375 0.05078,0.20703 0.05273,0.20703 2.916016,11.30469 0.05273,0.20703 0.05664,0.20703 3.050781,11.26172 0.05664,0.20703 0.05859,0.20508 3.1875,11.22266 0.05859,0.20507 0.06055,0.20508 3.324219,11.17774 0.06055,0.20312 0.0625,0.20508 3.458984,11.13281 0.06445,0.20508 0.06445,0.20313 3.59375,11.08593 0.06641,0.20313 0.06836,0.20312 3.728516,11.04102 0.06836,0.20117 0.07031,0.20117 3.861329,10.99219 0.07031,0.20117 0.07422,0.20117 3.99414,10.94336 0.07227,0.19922 0.07617,0.19922 4.126953,10.89258 0.07617,0.19922 0.07813,0.19922 4.259766,10.83984 0.07813,0.19922 0.08008,0.19727 4.390625,10.7871 0.08203,0.19727 0.08203,0.19727 4.523438,10.73242 0.08203,0.19726 0.08594,0.19532 4.652344,10.67578 0.08594,0.19726 0.08789,0.19336 4.783204,10.6211 0.08594,0.19336 0.0918,0.19531 4.912108,10.56054 0.0898,0.19532 0.0918,0.1914 5.04297,10.50391 0.0918,0.19141 0.0957,0.1914 5.16992,10.44336 0.0957,0.19141 0.0957,0.18945 5.29883,10.38086 0.0976,0.19141 0.0996,0.1875 5.42578,10.31836 0.0996,0.18945 0.10157,0.1875 5.55468,10.25391 0.10157,0.18945 0.10351,0.18555 0.15234,0.27343 4.98047,6.83594 6.47461,5.44141 7.5918,3.72851 8.26367,1.79883 8.45313,-0.23438 8.15039,-2.25585 7.37109,-4.14454 6.16211,-5.79296 4.59375,-7.10157 2.75586,-7.99414 0.75781,-8.42383 -1.28515,-8.35937 -3.08594,-7.47852 0.01,-0.004 -0.0449,-0.084 -0.008,-0.0176 -0.0801,-0.14454 -5.31836,-9.82031 -5.26172,-10.00586 -5.07421,-9.93945 -4.94922,-10 -4.85938,-10.11914 -4.76562,-10.24219 -4.57813,-10.16797 -4.51562,-10.35742 -4.38477,-10.4082 -4.20312,-10.32813 -4.07813,-10.3789 -4.00586,-10.57032 -3.80664,-10.42383 -3.76172,-10.71093 -3.61523,-10.71094 -0.0293,-0.0859 -3.41016,-10.52539 -3.31054,-10.6543 -3.21094,-10.79882 -3.05078,-10.73633 -2.95899,-10.92383 -2.82617,-10.96094 -2.64844,-10.81445 -2.52539,-10.88867 -2.45117,-11.1875 -2.25781,-10.95703 -2.128906,-10.98438 -2.046875,-11.32226 -0.01367,-0.0781 -1.816406,-10.80859 -1.767579,-11.35938 -1.583984,-11.07812 -1.472656,-11.27735 -1.314453,-11.14648 -1.19336,-11.3125 -1.05664,-11.33594 -0.916016,-11.36914 -0.712891,-10.46484 -1.589843,-8.30469 -3.53711,-7.683594 -5.277343,-6.609375 -6.707032,-5.15039 -7.746093,-3.392579 -8.333985,-1.433593 z M 1601.293,753.96289 l -7.9825,2.79297 -6.8847,4.46289 -3.3809,2.80469 -8.7441,7.07617 -8.9004,7.02344 -9.0781,6.98047 -8.9785,6.73242 -9.1329,6.67383 -9.1347,6.5039 -9.3106,6.46094 -9.3515,6.31641 -9.461,6.22656 -9.4941,6.08008 -9.4902,5.91601 -9.6739,5.86719 -9.625,5.67969 -9.6914,5.56054 -9.875,5.50391 -9.8867,5.35352 -9.9434,5.23242 -9.998,5.10156 -10.1895,5.04492 -0.059,0.0293 -9.998,4.79687 -10.0547,4.67579 -10.3047,4.64257 -10.2812,4.48047 -10.2754,4.33008 -10.4649,4.25781 -10.5156,4.13281 -10.4258,3.95118 -10.4765,3.82226 -10.6641,3.74805 -10.5215,3.55273 -10.7558,3.48633 -10.6543,3.31055 -10.8438,3.22461 -10.8828,3.09179 -10.7363,2.90821 -6.3321,1.63281 -7.873,3.08594 -6.9043,4.88476 -5.5313,6.39649 -3.8339,7.53711 -1.9161,8.23828 0.1172,8.45703 2.1407,8.18164 4.041,7.42773 5.707,6.24218 7.0352,4.6934 7.957,2.8672 8.4121,0.875 8.1289,-1.1036 6.5059,-1.6777 0.207,-0.055 0.2051,-0.055 11.2637,-3.0527 0.207,-0.055 0.2051,-0.059 11.2207,-3.1875 0.205,-0.059 0.2051,-0.062 11.1778,-3.32224 0.205,-0.0606 0.2051,-0.0644 11.1328,-3.45898 0.2032,-0.0625 0.2031,-0.0664 11.0879,-3.59375 0.2031,-0.0664 0.2012,-0.0684 11.041,-3.72656 0.2031,-0.0684 0.2012,-0.0703 10.9922,-3.86328 0.2011,-0.0703 0.2012,-0.0723 10.9414,-3.99609 0.2012,-0.0723 0.1992,-0.0762 10.8926,-4.12695 0.1992,-0.0762 0.1992,-0.0781 10.8399,-4.25977 0.1972,-0.0762 0.1992,-0.082 10.7872,-4.39063 0.1972,-0.0801 0.1953,-0.084 10.7344,-4.52148 0.1953,-0.084 0.1953,-0.084 10.6778,-4.6543 0.1953,-0.084 0.1953,-0.0879 10.6191,-4.78321 0.1953,-0.0879 0.1934,-0.0898 10.5625,-4.91406 0.1934,-0.0899 0.1933,-0.0918 10.502,-5.04102 0.1933,-0.0937 0.1914,-0.0937 10.4414,-5.17187 0.1915,-0.0937 0.1914,-0.0977 10.3808,-5.29883 0.1895,-0.0977 0.1894,-0.0996 10.3184,-5.42579 0.1894,-0.0996 0.1875,-0.10157 10.2539,-5.55273 0.1875,-0.10352 0.1875,-0.10351 10.1875,-5.67969 0.1875,-0.10352 0.1856,-0.10742 10.1211,-5.80664 0.1855,-0.10547 0.1856,-0.10937 10.0547,-5.93164 0.1836,-0.10938 0.1836,-0.11133 9.9843,-6.05664 0.1836,-0.11133 0.1817,-0.11328 9.914,-6.18164 0.1817,-0.11328 0.1816,-0.11523 9.8438,-6.30469 0.1796,-0.11719 0.1797,-0.11719 9.7715,-6.42968 0.1778,-0.11719 0.1777,-0.12109 9.6973,-6.55078 0.1777,-0.1211 0.1758,-0.12109 9.623,-6.67578 0.1758,-0.12305 0.1758,-0.125 9.5449,-6.79688 0.1758,-0.12304 0.1738,-0.12696 9.4668,-6.91992 0.1738,-0.12695 0.1719,-0.12891 9.3906,-7.03906 0.1719,-0.12891 0.1699,-0.13085 9.3086,-7.16016 0.1719,-0.13086 0.168,-0.13477 9.2285,-7.27929 0.1699,-0.13477 0.166,-0.13476 9.1465,-7.40039 0.168,-0.13477 0.166,-0.13867 3.5371,-2.9336 5.8086,-6.14648 4.1641,-7.36133 2.2773,-8.14453 0.2559,-8.45312 -1.7774,-8.26758 -3.709,-7.60157 -5.4238,-6.48828 -6.8223,-4.99804 -7.8203,-3.2168 -8.3652,-1.24609 z m -1174.10355,38.06641 -7.58203,3.74609 -6.46289,5.45703 -4.96484,6.8457 -3.17774,7.8379 -1.20507,8.37109 0.83789,8.41406 2.83203,7.96875 4.66211,7.05664 6.00976,5.58399 2.51172,1.83593 0.17383,0.12696 0.17578,0.12304 9.54492,6.79688 0.17578,0.125 0.17578,0.12305 9.62305,6.67578 0.17578,0.12109 0.17774,0.1211 9.69726,6.55078 0.17774,0.12109 0.17773,0.11719 9.77149,6.42968 0.17968,0.11719 0.17969,0.11719 9.84375,6.30469 0.18164,0.11523 0.18164,0.11328 9.91406,6.18164 0.18165,0.11328 0.18359,0.11133 9.98437,6.05664 0.1836,0.11133 0.18359,0.10938 10.05469,5.93164 0.18555,0.10937 0.18554,0.10547 10.1211,5.80664 0.18554,0.10742 0.1875,0.10352 10.1875,5.67969 0.1875,0.10351 0.1875,0.10352 10.25391,5.55273 0.1875,0.10157 0.18945,0.0996 10.31836,5.42579 0.18945,0.0996 0.18946,0.0977 10.38086,5.29883 0.1914,0.0977 0.19141,0.0937 10.44141,5.17187 0.1914,0.0937 0.19336,0.0937 10.50196,5.04102 0.19335,0.0918 0.19336,0.0899 10.5625,4.91406 0.19336,0.0898 0.19532,0.0879 10.61914,4.78321 0.19531,0.0879 0.19531,0.084 10.67774,4.6543 0.19531,0.084 0.19531,0.084 10.73438,4.52148 0.19531,0.084 0.19726,0.0801 10.78711,4.39063 0.19922,0.082 0.19727,0.0762 10.83984,4.25977 0.19922,0.0781 0.19922,0.0762 10.89258,4.12695 0.19922,0.0762 0.20117,0.0723 10.9414,3.99609 0.20118,0.0723 0.20117,0.0703 10.99218,3.86328 0.20118,0.0703 0.20312,0.0684 11.04102,3.72656 0.20117,0.0684 0.20312,0.0664 11.08789,3.59375 0.20313,0.0664 0.20313,0.0625 11.13281,3.45898 0.20508,0.0644 0.20507,0.0606 11.17774,3.32224 0.20508,0.062 0.20507,0.059 11.22071,3.1875 0.20508,0.059 0.20703,0.055 11.26367,3.0527 0.20508,0.055 0.20703,0.055 11.30469,2.9141 0.20703,0.055 0.20898,0.051 11.34375,2.7774 0.20703,0.051 0.20899,0.049 11.38281,2.6387 0.20703,0.049 0.21094,0.047 11.41797,2.5 0.20898,0.047 0.21094,0.043 11.45508,2.3633 0.21093,0.043 0.20899,0.041 8.34961,1.6152 8.43554,0.5918 8.33204,-1.4492 7.74218,-3.4043 6.69922,-5.1621 5.26367,-6.6192 3.52344,-7.6875 1.57617,-8.30855 -0.46093,-8.44531 -2.47461,-8.08594 -4.3418,-7.25781 -5.95703,-6.00391 -7.22266,-4.40039 -7.81445,-2.49219 -8.14453,-1.57617 -11.07227,-2.2832 -10.91797,-2.39258 -11.03711,-2.56055 -11,-2.69336 -10.8164,-2.79101 -10.73828,-2.90821 -10.88282,-3.09179 -10.84375,-3.22461 -10.65429,-3.31055 -10.75586,-3.48633 -10.52149,-3.55273 -10.66406,-3.74805 -10.47656,-3.82226 -10.42578,-3.95118 -10.51563,-4.13281 -10.46484,-4.25781 -10.27539,-4.33008 -10.28125,-4.48047 -10.30469,-4.64257 -10.05469,-4.67579 -9.99804,-4.79687 -0.0586,-0.0293 -10.18945,-5.04492 -9.99805,-5.10156 -9.94336,-5.23242 -9.88672,-5.35352 -9.875,-5.50391 -9.6914,-5.56054 -9.625,-5.67969 -9.67383,-5.86719 -9.49023,-5.91601 -9.49414,-6.08008 -9.46094,-6.22656 -9.35156,-6.31641 -9.31055,-6.46094 -9.13086,-6.50195 -2.35352,-1.7207 -7.38086,-4.12696 -8.15625,-2.23828 -8.45507,-0.21484 z"
       id="path4136"
       inkscape:connector-curvature="0" />
    <path
       style="color:#000000;font-style:normal;font-variant:normal;font-weight:normal;font-stretch:normal;font-size:medium;line-height:normal;font-family:sans-serif;text-indent:0;text-align:start;text-decoration:none;text-decoration-line:none;text-decoration-style:solid;text-decoration-color:#000000;letter-spacing:normal;word-spacing:normal;text-transform:none;direction:ltr;block-progression:tb;writing-mode:lr-tb;baseline-shift:baseline;text-anchor:start;white-space:normal;clip-rule:nonzero;display:inline;overflow:visible;visibility:visible;opacity:1;isolation:auto;mix-blend-mode:normal;color-interpolation:sRGB;color-interpolation-filters:linearRGB;solid-color:#000000;solid-opacity:1;fill:#000000;fill-opacity:1;fill-rule:nonzero;stroke:none;stroke-width:70;stroke-linecap:round;stroke-linejoin:miter;stroke-miterlimit:4;stroke-dasharray:420, 420;stroke-dashoffset:0;stroke-opacity:1;color-rendering:auto;image-rendering:auto;shape-rendering:auto;text-rendering:auto;enable-background:accumulate"
       d="m 999.7832,-757.63672 -9.6289,0.0586 -0.2168,0.002 -0.2168,0.004 -9.61523,0.17969 -0.2168,0.004 -0.21679,0.006 -9.60157,0.29883 -0.21679,0.006 -0.2168,0.01 -9.58399,0.41602 -0.21679,0.01 -0.2168,0.0117 -9.56836,0.5332 -0.2168,0.0137 -0.21484,0.0137 -9.55273,0.65234 -0.21485,0.0137 -0.21679,0.0176 -9.53321,0.76953 -0.21484,0.0176 -0.21484,0.0195 -9.51368,0.88477 -0.21484,0.0195 -0.21484,0.0234 -9.49414,1.00195 -0.21485,0.0234 -0.21484,0.0234 -9.47266,1.11914 -0.21289,0.0254 -0.21484,0.0273 -9.44922,1.23242 -0.21485,0.0293 -0.21289,0.0293 -9.42578,1.34765 -0.21289,0.0312 -0.21289,0.0332 -9.4043,1.4629 -0.21093,0.0332 -0.21289,0.0352 -9.37696,1.57813 -0.21289,0.0352 -0.21093,0.0391 -9.35157,1.68945 -0.21093,0.0391 -0.21094,0.041 -9.32422,1.80469 -0.21094,0.041 -0.20898,0.043 -9.29688,1.91797 -0.21094,0.043 -0.20898,0.0449 -9.26758,2.03125 -0.20898,0.0449 -0.20899,0.0488 -9.23633,2.14258 -0.20898,0.0488 -0.20703,0.0508 -9.20508,2.2539 -0.20898,0.0508 -0.20703,0.0527 -9.17383,2.36523 -0.20703,0.0547 -0.20508,0.0547 -9.14063,2.47656 -0.20703,0.0566 -0.20508,0.0586 -9.10546,2.58593 -0.20704,0.0586 -0.20507,0.0605 -9.07032,2.69727 -0.20507,0.0625 -0.20313,0.0625 -9.03516,2.80664 -0.20312,0.0644 -0.20313,0.0645 -8.99804,2.91797 -0.20313,0.0644 -0.20312,0.0684 -8.95899,3.02539 -0.20312,0.0684 -0.20117,0.0703 -8.91993,3.13477 -0.20117,0.0703 -0.20117,0.0723 -8.87891,3.24219 -0.20117,0.0742 -0.19922,0.0742 -8.83984,3.34961 -0.19922,0.0762 -0.19922,0.0781 -6.1875,2.43164 -7.43945,4.02148 -6.25781,5.6875 -4.71094,7.02344 -2.89063,7.94922 -0.89648,8.41015 1.14453,8.37891 3.12109,7.85937 4.91602,6.88086 6.42383,5.50196 7.55469,3.80078 8.24609,1.87695 8.45508,-0.1543 7.93554,-2.08593 5.95118,-2.33985 8.51367,-3.22461 8.41406,-3.07226 8.3457,-2.9336 0.0566,-0.0195 8.81641,-2.97656 0.0859,-0.0293 8.39062,-2.71875 8.55664,-2.6582 8.73828,-2.59766 8.62305,-2.45117 8.75977,-2.37304 8.83203,-2.27735 8.71484,-2.13476 8.88867,-2.0625 8.76758,-1.91993 8.94727,-1.8457 8.93945,-1.72851 8.9961,-1.625 0.082,-0.0156 8.75976,-1.4707 9.04492,-1.40821 8.88477,-1.26953 9.08594,-1.18554 9.08789,-1.07227 8.96679,-0.94531 9.12696,-0.84961 9.00195,-0.72656 9.16016,-0.625 9.17773,-0.51368 9.19531,-0.39843 9.05079,-0.2793 9.2246,-0.17383 9.22852,-0.0566 9.2285,0.0566 9.2246,0.17383 9.0508,0.2793 9.1953,0.39843 9.1778,0.51368 9.1601,0.625 9.002,0.72656 9.1269,0.84961 8.9668,0.94531 9.0879,1.07227 9.0859,1.18554 8.8848,1.26953 9.0449,1.40821 3.291,0.55273 8.4493,0.38477 8.2929,-1.65235 7.6563,-3.59375 6.5683,-5.32617 5.1016,-6.74609 3.334,-7.77149 1.3711,-8.3457 -0.668,-8.42969 -2.6719,-8.02343 -4.5195,-7.1504 -6.1016,-5.85546 -7.3281,-4.22071 -7.875,-2.30078 -3.4844,-0.58594 -0.2128,-0.0352 -0.211,-0.0332 -9.4043,-1.4629 -0.2129,-0.0332 -0.2129,-0.0312 -9.4257,-1.34765 -0.2129,-0.0293 -0.2149,-0.0293 -9.4492,-1.23242 -0.2148,-0.0273 -0.2129,-0.0254 -9.4727,-1.11914 -0.2148,-0.0234 -0.2149,-0.0234 -9.4941,-1.00195 -0.2149,-0.0234 -0.2148,-0.0195 -9.5137,-0.88477 -0.2148,-0.0195 -0.2149,-0.0176 -9.5332,-0.76953 -0.2168,-0.0176 -0.2148,-0.0137 -9.5527,-0.65234 -0.2149,-0.0137 -0.2168,-0.0137 -9.5683,-0.5332 -0.2168,-0.0117 -0.2168,-0.01 -9.584,-0.41602 -0.2168,-0.01 -0.2168,-0.006 -9.6016,-0.29883 -0.2168,-0.006 -0.2168,-0.004 -9.6152,-0.17969 -0.2168,-0.004 -0.2168,-0.002 -9.6289,-0.0586 -0.2168,-0.002 z m 494.4766,186.9707 -7.8379,3.17579 -6.8477,4.96484 -5.4551,6.46094 -3.748,7.58203 -1.8203,8.25781 0.2148,8.45508 2.2364,8.15625 4.1269,7.38086 5.582,6.01172 2.3496,2 0.061,0.0508 6.6699,5.82031 6.918,6.18555 6.6855,6.13086 6.6934,6.29101 6.6211,6.37696 6.5508,6.4707 6.3925,6.4707 6.4551,6.69922 6.2871,6.68945 6.2071,6.77149 6.0312,6.74414 6.0957,6.99023 5.8613,6.88868 5.834,7.0332 5.7559,7.11523 5.6523,7.16407 5.5586,7.22656 5.4043,7.20898 5.3145,7.27344 5.2793,7.41211 5.1777,7.46094 5.1055,7.55859 5.0136,7.62109 4.8907,7.63477 4.7519,7.62305 4.6582,7.67773 4.6309,7.8457 4.5019,7.84961 4.4336,7.95313 4.2696,7.88476 4.207,8 4.1387,8.10743 3.9433,7.96679 3.9688,8.26953 3.7793,8.12305 3.6797,8.16992 3.6132,8.28516 3.5,8.30859 3.3418,8.20313 0.035,0.0898 3.3848,8.61328 0.037,0.0957 3.0468,8.04101 0.016,0.0449 3.1933,8.74219 0.033,0.0918 2.9336,8.35742 2.3574,6.98437 3.6543,7.62696 5.377,6.52929 6.7852,5.04688 7.7968,3.27344 8.3555,1.30664 8.4258,-0.73438 8.0019,-2.73633 7.1133,-4.57421 5.8086,-6.14649 4.1641,-7.36133 2.2773,-8.14453 0.2578,-8.45312 -1.6953,-8.02539 -2.4414,-7.22852 -0.068,-0.20117 -0.07,-0.20117 -3.1328,-8.91993 -0.072,-0.20312 -0.072,-0.19922 -3.2422,-8.88086 -0.072,-0.19922 -0.076,-0.20117 -3.3496,-8.83789 -0.076,-0.19922 -0.078,-0.19922 -3.4551,-8.79687 -0.078,-0.19922 -0.082,-0.19727 -3.5625,-8.7539 -0.08,-0.19727 -0.084,-0.19726 -3.67,-8.70899 -0.082,-0.19726 -0.086,-0.19532 -3.7754,-8.66406 -0.086,-0.19726 -0.088,-0.19336 -3.8809,-8.61914 -0.088,-0.19532 -0.09,-0.19336 -3.9883,-8.57031 -0.09,-0.19336 -0.092,-0.19336 -4.0918,-8.52343 -0.092,-0.19141 -0.096,-0.19141 -4.1953,-8.47461 -0.096,-0.1914 -0.096,-0.19141 -4.3008,-8.42383 -0.098,-0.18945 -0.1,-0.18945 -4.4024,-8.37305 -0.1,-0.18945 -0.1015,-0.1875 -4.5078,-8.32227 -0.1016,-0.1875 -0.1035,-0.18555 -4.6094,-8.26953 -0.1055,-0.18554 -0.1054,-0.18555 -4.7129,-8.21485 -0.1055,-0.18554 -0.1094,-0.1836 -4.8144,-8.16015 -0.1074,-0.1836 -0.1114,-0.18359 -4.916,-8.10352 -0.1113,-0.18359 -0.1133,-0.18164 -5.0156,-8.04492 -0.1133,-0.18164 -0.1152,-0.18164 -5.1172,-7.98828 -0.1153,-0.17969 -0.1191,-0.17969 -5.2168,-7.92969 -0.1172,-0.17773 -0.1211,-0.17773 -5.3164,-7.86915 -0.1211,-0.17968 -0.123,-0.17578 -5.416,-7.8086 -0.1231,-0.17578 -0.125,-0.17578 -5.5156,-7.74609 -0.1231,-0.17383 -0.1269,-0.17383 -5.6153,-7.68359 -0.1269,-0.17383 -0.1289,-0.17188 -5.7129,-7.61914 -0.1289,-0.17383 -0.1309,-0.16992 -5.8105,-7.55469 -0.1328,-0.16992 -0.1328,-0.16992 -5.9082,-7.48828 -0.1329,-0.16992 -0.1367,-0.16797 -6.0039,-7.41992 -0.1367,-0.16797 -0.1367,-0.16602 -6.1016,-7.35351 -0.1387,-0.16797 -0.1386,-0.16406 -6.1992,-7.28516 -0.1387,-0.16406 -0.1426,-0.16211 -6.293,-7.21485 -0.1425,-0.16406 -0.1446,-0.16016 -6.3886,-7.14453 -0.1446,-0.16211 -0.1465,-0.1582 -6.4824,-7.07226 -0.1465,-0.16016 -0.1484,-0.1582 -6.5781,-7 -0.1504,-0.15821 -0.1504,-0.15625 -6.6719,-6.92382 -0.1504,-0.15626 -0.1523,-0.15624 -6.7656,-6.84961 -0.1524,-0.1543 -0.1562,-0.15235 -6.8496,-6.76757 -0.1543,-0.15235 -0.1563,-0.15039 -6.9258,-6.67187 -0.1562,-0.15039 -0.1582,-0.14844 -7,-6.57813 -0.1563,-0.14843 -0.1601,-0.14649 -7.0723,-6.48437 -0.1602,-0.14649 -0.1601,-0.14453 -7.1445,-6.38867 -0.1622,-0.14453 -0.1621,-0.14063 -7.2148,-6.29492 -0.1641,-0.14062 -0.164,-0.14063 -2.4102,-2.05078 -7.0566,-4.66016 -7.9668,-2.83398 -8.416,-0.83984 z m -1117.10355,118.4668 -8.03516,2.63477 -7.16992,4.48633 -5.72851,5.87109 -1.17969,1.5332 -0.13086,0.16992 -0.12891,0.17383 -5.71289,7.61914 -0.1289,0.17188 -0.12696,0.17383 -5.61523,7.68359 -0.12695,0.17383 -0.12305,0.17383 -5.51563,7.74609 -0.125,0.17578 -0.12304,0.17578 -5.41602,7.8086 -0.12305,0.17578 -0.12109,0.17968 -5.31641,7.86915 -0.12109,0.17773 -0.11719,0.17773 -5.21679,7.92969 -0.11914,0.17969 -0.11524,0.17969 -5.11719,7.98828 -0.11523,0.18164 -0.11328,0.18164 -5.01563,8.04492 -0.11328,0.18164 -0.11133,0.18359 -4.91601,8.10352 -0.11133,0.18359 -0.10742,0.1836 -4.81445,8.16015 -0.10938,0.1836 -0.10547,0.18554 -4.71289,8.21485 -0.10547,0.18555 -0.10547,0.18554 -4.60937,8.26953 -0.10352,0.18555 -0.10156,0.1875 -4.50781,8.32227 -0.10156,0.1875 -0.0996,0.18945 -4.40235,8.37305 -0.0996,0.18945 -0.0976,0.18945 -4.30078,8.42383 -0.0957,0.19141 -0.0957,0.1914 -4.19531,8.47461 -0.0957,0.19141 -0.0918,0.19141 -4.0918,8.52343 -0.0918,0.19336 -0.0898,0.19336 -3.98828,8.57031 -0.0899,0.19336 -0.0879,0.19532 -3.88086,8.61914 -0.0879,0.19336 -0.0859,0.19726 -3.7754,8.66406 -0.0859,0.19532 -0.082,0.19726 -3.66993,8.70899 -0.084,0.19726 -0.0801,0.19727 -3.5625,8.7539 -0.082,0.19727 -0.0781,0.19922 -3.45508,8.79687 -0.0781,0.19922 -0.0762,0.19922 -3.34961,8.83789 -0.0762,0.20117 -0.0723,0.19922 -3.24218,8.88086 -0.0723,0.19922 -0.0723,0.20312 -3.13282,8.91993 -0.0703,0.20117 -0.0684,0.20117 -3.02539,8.96094 -0.0684,0.20117 -0.0664,0.20312 -2.91601,8.99805 -0.0664,0.20313 -0.0625,0.20312 -2.80664,9.03516 -0.0644,0.20508 -0.0606,0.20507 -2.69726,9.07032 -0.0605,0.20507 -0.0586,0.20508 -2.58789,9.10547 -0.0586,0.20703 -0.0547,0.20508 -2.47656,9.14063 -0.0566,0.20703 -0.0527,0.20703 -2.36524,9.17383 -0.0547,0.20703 -0.0508,0.20703 -2.2539,9.20508 -0.0508,0.20898 -0.0488,0.20899 -2.14258,9.23632 -0.0469,0.20899 -0.0469,0.20898 -2.0293,9.26758 -0.0469,0.20899 -0.043,0.20898 -1.91797,9.29687 -0.043,0.20899 -0.041,0.21094 -1.80469,9.324216 -0.041,0.210937 -0.0371,0.210938 -1.6914,9.351562 -0.0371,0.212891 -0.0371,0.210937 -1.57617,9.378907 -0.0352,0.210937 -0.0332,0.212891 -1.46289,9.402343 -0.0332,0.212891 -0.0312,0.212891 -1.34765,9.427734 -0.0312,0.212891 -0.0274,0.21289 -1.23437,9.451172 -0.0274,0.212891 -0.0254,0.214843 -1.11718,9.472657 -0.0254,0.21289 -0.0215,0.214844 -0.10547,0.990235 0.13477,8.455078 2.16015,8.177734 4.05665,7.419922 5.7207,6.2304686 7.04492,4.6757813 7.96289,2.8496093 8.41406,0.8574219 8.37305,-1.1875 7.84375,-3.1601562 6.85742,-4.9492188 5.47071,-6.4492191 3.76367,-7.574218 1.81054,-8 0.0899,-0.84961 1.05468,-8.9375 1.1875,-9.085937 1.26954,-8.888672 1.43164,-9.195313 0.0117,-0.07813 1.4746,-8.761718 1.59961,-8.845704 1.73633,-8.972656 1.84375,-8.941406 1.91602,-8.73633 2.05469,-8.85937 2.16796,-8.85742 2.24024,-8.68165 2.38476,-8.80273 2.45118,-8.625 2.55468,-8.5918 2.70118,-8.70117 2.80859,-8.66406 2.85156,-8.44141 2.9336,-8.35937 0.0332,-0.0918 3.19336,-8.74219 0.0156,-0.0449 3.04688,-8.04101 0.0371,-0.0957 3.38476,-8.61328 0.0352,-0.0898 3.3418,-8.20313 3.5,-8.30859 3.61328,-8.28516 3.67968,-8.16992 3.7793,-8.12305 3.96875,-8.26953 3.94336,-7.96679 4.13867,-8.10743 4.20703,-8 4.26954,-7.88476 4.43359,-7.95313 4.50195,-7.84961 4.63086,-7.8457 4.65821,-7.67773 4.75195,-7.62305 4.89062,-7.63477 5.01367,-7.62109 5.10547,-7.55859 5.17774,-7.46094 5.27929,-7.41211 5.31446,-7.27344 5.4043,-7.20703 1.0996,-1.42969 4.3086,-7.27734 2.4375,-8.09961 0.42187,-8.44531 -1.61328,-8.30274 -3.56055,-7.67187 -5.29492,-6.59375 -6.72265,-5.13086 -7.75586,-3.36914 -8.33985,-1.41016 z m 1385.48825,471.814454 -7.4941,3.919922 -6.334,5.601563 -4.8066,6.958984 -2.9981,7.908203 -1.0117,8.140625 -0.057,9.451172 -0.17,9.0625 -0.2851,9.212891 -0.3985,9.193359 -0.5019,9.013672 -0.625,9.171875 -0.7363,9.13867 -0.8516,9.13672 -0.9609,9.10938 -1.0567,8.96484 -1.1855,9.06641 -1.2696,8.88867 -1.4316,9.19531 -0.012,0.0781 -1.4746,8.76172 -1.5996,8.84571 -1.7364,8.97265 -1.8437,8.94141 -1.916,8.73633 -2.0547,8.85937 -2.168,8.85742 -2.2402,8.68165 -2.3848,8.80273 -2.4512,8.625 -2.5546,8.5918 -2.6875,8.65429 -2.8243,8.71289 -2.8496,8.4375 -2.9843,8.50196 -3.1758,8.69336 -0.016,0.0449 -3.0468,8.04101 -0.037,0.0957 -3.4063,8.66601 -0.014,0.0352 -3.3418,8.20508 -3.4765,8.25195 -3.6367,8.34375 -3.6797,8.16797 -3.7793,8.12305 -3.9688,8.26953 -3.9433,7.96679 -4.1368,8.10547 -4.2441,8.06641 -4.2344,7.82031 -4.4336,7.95313 -4.4629,7.77929 -4.6738,7.92188 -0.9629,1.58789 -3.4804,7.70703 -1.5293,8.31836 0.5078,8.44141 2.5215,8.07226 4.3808,7.23242 5.9903,5.97071 7.246,4.36132 8.0821,2.49415 8.4433,0.48242 8.3125,-1.55664 7.6954,-3.50391 6.6328,-5.24805 5.0468,-6.46679 1.1133,-1.83594 0.1114,-0.18359 0.1074,-0.1836 4.8144,-8.16016 0.1094,-0.18359 0.1055,-0.18555 4.7129,-8.21484 0.1054,-0.18555 0.1055,-0.18554 4.6094,-8.26953 0.1035,-0.18555 0.1016,-0.1875 4.5078,-8.32227 0.1015,-0.1875 0.1,-0.18945 4.4024,-8.37305 0.1,-0.18945 0.098,-0.18945 4.3008,-8.42578 0.096,-0.18946 0.096,-0.1914 4.1953,-8.47461 0.096,-0.19141 0.092,-0.19141 4.0918,-8.52343 0.092,-0.19336 0.09,-0.19336 3.9883,-8.57227 0.09,-0.19336 0.088,-0.19336 3.8809,-8.61914 0.088,-0.19531 0.086,-0.19531 3.7754,-8.66406 0.086,-0.19532 0.082,-0.19726 3.67,-8.70899 0.084,-0.19726 0.08,-0.19727 3.5625,-8.7539 0.082,-0.19727 0.078,-0.19922 3.4551,-8.79687 0.078,-0.19922 0.076,-0.19922 3.3496,-8.83789 0.076,-0.20117 0.072,-0.19922 3.2422,-8.88086 0.072,-0.20117 0.072,-0.20118 3.1328,-8.91992 0.07,-0.20117 0.068,-0.20312 3.0254,-8.95899 0.068,-0.20117 0.066,-0.20313 2.916,-8.99804 0.066,-0.20313 0.062,-0.20508 2.8066,-9.0332 0.064,-0.20508 0.061,-0.20507 2.6973,-9.07032 0.06,-0.20508 0.059,-0.20507 2.5879,-9.10547 0.059,-0.20703 0.055,-0.20508 2.4766,-9.14063 0.057,-0.20703 0.053,-0.20703 2.3653,-9.17383 0.055,-0.20703 0.051,-0.20703 2.254,-9.20703 0.051,-0.20703 0.049,-0.20899 2.1425,-9.23632 0.047,-0.20899 0.047,-0.20898 2.0293,-9.26758 0.047,-0.20899 0.043,-0.20898 1.918,-9.29688 0.043,-0.21093 0.041,-0.20899 1.8047,-9.32617 0.041,-0.20898 0.037,-0.21289 1.6914,-9.35157 0.037,-0.21093 0.037,-0.21094 1.5762,-9.37891 0.035,-0.21094 0.033,-0.21289 1.4628,-9.40234 0.033,-0.21289 0.031,-0.21289 1.3477,-9.42774 0.031,-0.21289 0.027,-0.21289 1.2344,-9.45117 0.027,-0.21289 0.025,-0.21484 1.1171,-9.47266 0.025,-0.21484 0.022,-0.21289 1.002,-9.49414 0.023,-0.21485 0.019,-0.21484 0.8868,-9.51563 0.019,-0.21484 0.018,-0.21484 0.7675,-9.53321 0.018,-0.21484 0.016,-0.2168 0.6504,-9.55078 0.016,-0.2168 0.012,-0.21484 0.5332,-9.570312 0.014,-0.216797 0.01,-0.214844 0.4179,-9.585938 0.01,-0.216797 0.01,-0.216796 0.2968,-9.59961 0.01,-0.216797 0,-0.216797 0.1777,-9.615234 0,-0.216797 0,-0.21875 0.061,-9.626953 -0.9707,-8.402344 -2.957,-7.923828 -4.7696,-6.982422 -6.3066,-5.634765 -7.4746,-3.957031 -8.2051,-2.050782 -8.457,-0.02148 z M 285.23633,343.52734 l -7.6543,3.59571 -6.57031,5.32617 -5.09961,6.74609 -3.33399,7.77149 -1.37109,8.3457 0.66992,8.42969 2.56446,7.79297 3.13281,6.73242 0.0898,0.19336 0.0918,0.19336 4.0918,8.52343 0.0918,0.19141 0.0957,0.19141 4.19531,8.47461 0.0957,0.1914 0.0957,0.18946 4.30078,8.42578 0.0976,0.18945 0.0996,0.18945 4.40235,8.37305 0.0996,0.18945 0.10156,0.1875 4.50781,8.32227 0.10156,0.1875 0.10352,0.18555 4.60937,8.26953 0.10547,0.18554 0.10547,0.18555 4.71289,8.21484 0.10547,0.18555 0.10938,0.18359 4.81445,8.16016 0.10742,0.1836 0.11133,0.18359 4.91601,8.10351 0.11133,0.18164 0.11328,0.1836 5.01563,8.04492 0.11328,0.18164 0.11523,0.18164 5.11719,7.98828 0.11524,0.17969 0.11914,0.17969 5.21679,7.92969 0.11719,0.17773 0.12109,0.17773 5.31641,7.86915 0.12109,0.17773 0.12305,0.17773 5.41602,7.8086 0.12304,0.17578 0.125,0.17383 5.51563,7.74804 0.12305,0.17383 0.12695,0.17383 5.61523,7.68359 0.12696,0.17383 0.1289,0.17188 5.71289,7.61914 0.12891,0.17187 0.13086,0.17188 5.81055,7.55468 0.13281,0.16993 0.13281,0.16992 5.9082,7.48828 0.13282,0.16992 0.13672,0.16602 6.0039,7.42187 0.13672,0.16797 0.13672,0.16602 6.10156,7.35351 0.13867,0.16602 0.13867,0.16601 6.19922,7.28321 0.13868,0.16601 0.14257,0.16211 6.29297,7.21485 0.14258,0.16406 0.14453,0.16015 6.38867,7.14454 0.14454,0.1621 0.14648,0.15821 6.48242,7.07226 0.14649,0.16016 0.14843,0.1582 6.57813,7 0.15039,0.15625 0.15039,0.15625 6.67187,6.92578 0.1504,0.15625 0.15234,0.1543 6.76562,6.85156 0.15235,0.1543 0.15625,0.15234 6.84961,6.76563 0.15429,0.15234 0.15625,0.15235 6.92579,6.67187 0.15624,0.15039 0.15821,0.14844 7,6.57812 0.15625,0.14844 0.16015,0.14649 7.07227,6.48437 0.16016,0.14649 0.16015,0.14257 7.14453,6.39063 0.16211,0.14258 0.16211,0.14258 7.21485,6.29296 0.16406,0.14258 0.16406,0.14063 7.28516,6.19726 0.16406,0.14063 0.16602,0.13672 7.35351,6.10156 0.16602,0.13867 0.16797,0.13477 7.42187,6.00586 0.16797,0.13476 0.16992,0.13477 7.48828,5.9082 0.16797,0.13281 0.17188,0.13086 7.55468,5.81055 0.16993,0.13086 0.17187,0.1289 7.61914,5.7129 0.17188,0.1289 0.17382,0.12696 7.6836,5.61523 0.17383,0.12695 0.17578,0.125 7.74609,5.51563 0.17578,0.125 0.17578,0.12109 7.8086,5.41797 0.17578,0.12109 0.17773,0.1211 2.19727,1.48437 7.52734,3.85352 8.23242,1.93555 8.45704,-0.0957 8.1875,-2.12109 7.4375,-4.02344 6.25781,-5.68945 4.70898,-7.02539 2.88672,-7.94922 0.89649,-8.4082 -1.14844,-8.37891 -3.12305,-7.85938 -4.91797,-6.88086 -6.21094,-5.35742 -2.02929,-1.37109 -7.46485,-5.17969 -7.36328,-5.24219 -7.34765,-5.36914 -7.28711,-5.46484 -7.24805,-5.57422 -7.08203,-5.58789 -7.09961,-5.74414 -7.04687,-5.84766 -7.04102,-5.99023 -0.0644,-0.0547 -6.75782,-5.89648 -6.83007,-6.10938 -6.68555,-6.13086 -6.69336,-6.29101 -6.62109,-6.37696 -6.54883,-6.46875 -6.39258,-6.47265 -6.45899,-6.70117 -6.21289,-6.60938 -6.34961,-6.92969 -0.0371,-0.0391 -5.92383,-6.625 -6.09571,-6.99023 -5.86132,-6.88868 -5.83399,-7.0332 -5.75586,-7.11523 -5.65234,-7.16407 -5.55859,-7.22656 -5.4043,-7.20898 -5.31446,-7.27344 -5.27929,-7.41211 -5.08399,-7.32617 -0.043,-0.0645 -5.15821,-7.63086 -5.01172,-7.61914 -4.89062,-7.63477 -4.75195,-7.62305 -4.65626,-7.67578 -4.67187,-7.91797 -4.46289,-7.77929 -4.43359,-7.95313 -4.23438,-7.82031 -4.24414,-8.06641 -4.13672,-8.10547 -3.94336,-7.96679 -3.9707,-8.26953 -3.00586,-6.46485 -4.4668,-7.18164 -6.06054,-5.90039 -7.29688,-4.27344 -8.10937,-2.40039 -8.44922,-0.38281 z m 1068.75387,359.83399 -7.6582,2.9414 -5.9316,3.11915 -7.9824,4.07421 -8.2246,4.07227 -0.057,0.0273 -7.7539,3.72266 -0.076,0.0352 -8.2558,3.84179 -8.2969,3.73633 -8.2695,3.60352 -8.2539,3.47851 -8.4336,3.4336 -8.3321,3.27343 -8.5136,3.22657 -8.4121,3.07226 -8.543,3 -8.5391,2.88281 -8.4101,2.72852 -0.066,0.0215 -8.6993,2.70508 -8.7304,2.5957 -8.7735,2.49024 -8.6132,2.33398 -8.8321,2.27735 -8.7148,2.13476 -8.7402,2.02735 -8.92,1.95508 -8.9433,1.8457 -8.7891,1.69922 -8.998,1.6289 -8.9922,1.51368 -8.8906,1.38281 -9.0411,1.29297 -9.082,1.18554 -9.0879,1.07227 -8.9668,0.94531 -9.1269,0.84961 -9.002,0.72656 -9.1601,0.625 -9.1778,0.51367 -9.041,0.39258 -9.209,0.28516 -9.2207,0.17383 -9.2285,0.0566 -9.22852,-0.0566 -9.2207,-0.17383 -9.20898,-0.28516 -9.04102,-0.39258 -3.9668,-0.22265 -8.43945,0.55273 -8.05859,2.56055 -7.21094,4.41797 -5.94141,6.01953 -4.32226,7.26953 -2.45313,8.09375 -0.4414,8.44531 1.59961,8.30469 3.54297,7.67774 5.28124,6.60546 6.7129,5.14454 7.75,3.38476 8.08007,1.41406 4.18555,0.23438 0.2168,0.0117 0.21679,0.01 9.58399,0.41602 0.2168,0.01 0.21679,0.006 9.60157,0.29883 0.21679,0.006 0.2168,0.004 9.61523,0.17969 0.2168,0.004 0.2168,0 9.6289,0.0605 0.2168,0.002 0.2168,-0.002 9.6289,-0.0605 0.2168,0 0.2168,-0.004 9.6152,-0.17969 0.2168,-0.004 0.2168,-0.006 9.6016,-0.29883 0.2168,-0.006 0.2168,-0.01 9.584,-0.41602 0.2168,-0.01 0.2168,-0.0117 9.5683,-0.53516 0.2168,-0.0117 0.2149,-0.0137 9.5527,-0.65234 0.2148,-0.0137 0.2168,-0.0176 9.5332,-0.76953 0.2149,-0.0176 0.2148,-0.0195 9.5137,-0.88477 0.2148,-0.0215 0.2149,-0.0215 9.4941,-1.00195 0.2149,-0.0234 0.2148,-0.0254 9.4727,-1.11719 0.2129,-0.0254 0.2148,-0.0273 9.4492,-1.23242 0.2149,-0.0293 0.2129,-0.0293 9.4257,-1.34961 0.2129,-0.0293 0.2129,-0.0332 9.4043,-1.46289 0.211,-0.0332 0.2128,-0.0352 9.377,-1.57813 0.2129,-0.0352 0.2109,-0.0391 9.3516,-1.69141 0.2109,-0.0371 0.211,-0.041 9.3242,-1.80469 0.2109,-0.041 0.209,-0.043 9.2969,-1.91797 0.2109,-0.043 0.209,-0.0449 9.2676,-2.03125 0.209,-0.0449 0.2089,-0.0488 9.2364,-2.14258 0.209,-0.0488 0.207,-0.0508 9.2051,-2.2539 0.209,-0.0508 0.207,-0.0527 9.1738,-2.36524 0.207,-0.0547 0.2051,-0.0547 9.1406,-2.47656 0.2071,-0.0566 0.2051,-0.0586 9.1054,-2.58789 0.2071,-0.0566 0.205,-0.0625 9.0703,-2.69726 0.2051,-0.0606 0.2031,-0.0625 9.0352,-2.80664 0.2031,-0.0644 0.2032,-0.0664 8.998,-2.91602 0.2031,-0.0644 0.2032,-0.0684 8.9589,-3.02539 0.2032,-0.0684 0.2011,-0.0703 8.92,-3.13477 0.2011,-0.0703 0.2012,-0.0742 8.8789,-3.24023 0.2012,-0.0742 0.1992,-0.0762 8.8398,-3.34961 0.1993,-0.0742 0.1992,-0.0781 8.7969,-3.45703 0.1972,-0.0781 0.1973,-0.0801 8.7539,-3.56445 0.1992,-0.0801 0.1953,-0.082 8.711,-3.66993 0.1953,-0.084 0.1953,-0.084 8.666,-3.77735 0.1953,-0.0859 0.1953,-0.0859 8.6172,-3.88282 0.1953,-0.0879 0.1934,-0.0898 8.5722,-3.98633 0.1934,-0.0898 0.1914,-0.0918 8.5235,-4.0918 0.1933,-0.0937 0.1914,-0.0938 8.4746,-4.19726 0.1914,-0.0937 0.1895,-0.0977 8.4238,-4.30078 0.1914,-0.0957 0.1875,-0.0996 6.0567,-3.18555 6.955,-4.8125 5.5977,-6.33984 3.9141,-7.49609 2,-8.2168 -0.029,-8.45703 -2.0547,-8.20313 -3.9649,-7.4707 -5.6406,-6.30274 -6.9863,-4.76562 -7.9258,-2.94922 -8.4023,-0.96289 z"
       id="circle4136"
       inkscape:connector-curvature="0" />
    <path
       style="color:#000000;font-style:normal;font-variant:normal;font-weight:normal;font-stretch:normal;font-size:medium;line-height:normal;font-family:sans-serif;text-indent:0;text-align:start;text-decoration:none;text-decoration-line:none;text-decoration-style:solid;text-decoration-color:#000000;letter-spacing:normal;word-spacing:normal;text-transform:none;direction:ltr;block-progression:tb;writing-mode:lr-tb;baseline-shift:baseline;text-anchor:start;white-space:normal;clip-rule:nonzero;display:inline;overflow:visible;visibility:visible;opacity:1;isolation:auto;mix-blend-mode:normal;color-interpolation:sRGB;color-interpolation-filters:linearRGB;solid-color:#000000;solid-opacity:1;fill:#000000;fill-opacity:1;fill-rule:nonzero;stroke:none;stroke-width:60;stroke-linecap:square;stroke-linejoin:round;stroke-miterlimit:4;stroke-dasharray:none;stroke-dashoffset:0;stroke-opacity:1;color-rendering:auto;image-rendering:auto;shape-rendering:auto;text-rendering:auto;enable-background:accumulate"
       d="m 480,-298.73438 c -0.17392,0.01 -0.34775,0.0206 -0.52148,0.0332 -16.35094,0.28586 -29.46129,13.61337 -29.47852,29.9668 l 0,642.19336 c 0.002,16.56786 13.43214,29.99834 30,30 l 1040,0 c 16.5679,-0.002 29.9983,-13.43214 30,-30 l 0,-642.19336 c -0.021,-16.17051 -12.8538,-29.4151 -29.0156,-29.94726 -0.1952,-0.0169 -0.3905,-0.0318 -0.586,-0.0449 -0.1328,-0.004 -0.2656,-0.006 -0.3984,-0.008 l -951.53049,0 -88.46951,0 z m 128.46289,60 783.07421,0 L 1000,-45.318359 Z M 510,-220.45508 986.71289,15.039062 c 8.3751,4.136767 18.19911,4.136767 26.57421,0 L 1490,-220.45508 l 0,563.91406 -980,0 z"
       id="rect4136"
       inkscape:connector-curvature="0"
       sodipodi:nodetypes="ccccccccccccccccccccccccc" />
    <g
       id="layer1-4"
       inkscape:label="Ebene 1"
       transform="matrix(0.74578466,0,0,0.64639115,254.21534,18.51572)" />
  </g>
</svg>
