<?xml version="1.0" encoding="UTF-8" standalone="no"?>
<!-- Created with Inkscape (http://www.inkscape.org/) -->

<svg
   xmlns:dc="http://purl.org/dc/elements/1.1/"
   xmlns:cc="http://creativecommons.org/ns#"
   xmlns:rdf="http://www.w3.org/1999/02/22-rdf-syntax-ns#"
   xmlns:svg="http://www.w3.org/2000/svg"
   xmlns="http://www.w3.org/2000/svg"
   xmlns:sodipodi="http://sodipodi.sourceforge.net/DTD/sodipodi-0.dtd"
   xmlns:inkscape="http://www.inkscape.org/namespaces/inkscape"
   width="2000"
   height="2000"
   viewBox="0 0 2000 2000"
   id="svg2"
   version="1.1"
   inkscape:version="0.91 r13725"
   sodipodi:docname="03-timer-intermediate-event.svg">
  <defs
     id="defs4" />
  <sodipodi:namedview
     id="base"
     pagecolor="#ffffff"
     bordercolor="#666666"
     borderopacity="1.0"
     inkscape:pageopacity="0.0"
     inkscape:pageshadow="2"
     inkscape:zoom="0.4345"
     inkscape:cx="164.55696"
     inkscape:cy="1185.3399"
     inkscape:document-units="px"
     inkscape:current-layer="layer1"
     showgrid="true"
     units="px"
     showguides="false"
     inkscape:window-width="1878"
     inkscape:window-height="1035"
     inkscape:window-x="42"
     inkscape:window-y="0"
     inkscape:window-maximized="0">
    <inkscape:grid
       type="xygrid"
       id="grid4008"
       empspacing="20"
       dotted="false" />
  </sodipodi:namedview>
  <metadata
     id="metadata7">
    <rdf:RDF>
      <cc:Work
         rdf:about="">
        <dc:format>image/svg+xml</dc:format>
        <dc:type
           rdf:resource="http://purl.org/dc/dcmitype/StillImage" />
        <dc:title />
        <cc:license
           rdf:resource="https://github.com/bpmn-io/bpmn-font/blob/master/LICENSE" />
        <dc:creator>
          <cc:Agent>
            <dc:title>Jörg Dotzki</dc:title>
          </cc:Agent>
        </dc:creator>
        <dc:subject>
          <rdf:Bag>
            <rdf:li>BPMN</rdf:li>
            <rdf:li>bpmn-io</rdf:li>
            <rdf:li>bpmn.io</rdf:li>
            <rdf:li>Font</rdf:li>
          </rdf:Bag>
        </dc:subject>
      </cc:Work>
    </rdf:RDF>
  </metadata>
  <g
     inkscape:label="Ebene 1"
     inkscape:groupmode="layer"
     id="layer1"
     transform="translate(0,947.63784)">
    <path
       style="color:#000000;font-style:normal;font-variant:normal;font-weight:normal;font-stretch:normal;font-size:medium;line-height:normal;font-family:sans-serif;text-indent:0;text-align:start;text-decoration:none;text-decoration-line:none;text-decoration-style:solid;text-decoration-color:#000000;letter-spacing:normal;word-spacing:normal;text-transform:none;direction:ltr;block-progression:tb;writing-mode:lr-tb;baseline-shift:baseline;text-anchor:start;white-space:normal;clip-rule:nonzero;display:inline;overflow:visible;visibility:visible;opacity:1;isolation:auto;mix-blend-mode:normal;color-interpolation:sRGB;color-interpolation-filters:linearRGB;solid-color:#000000;solid-opacity:1;fill:#000000;fill-opacity:1;fill-rule:nonzero;stroke:none;stroke-width:70;stroke-linecap:round;stroke-linejoin:miter;stroke-miterlimit:4;stroke-dasharray:420, 420;stroke-dashoffset:0;stroke-opacity:1;color-rendering:auto;image-rendering:auto;shape-rendering:auto;text-rendering:auto;enable-background:accumulate"
       d="M 1000 10 L 999.7832 10.001953 L 987.91797 10.074219 L 987.70117 10.076172 L 987.48438 10.080078 L 975.63477 10.300781 L 975.41797 10.304688 L 975.20117 10.3125 L 963.37109 10.677734 L 963.1543 10.685547 L 962.9375 10.695312 L 951.12695 11.207031 L 950.91016 11.216797 L 950.69336 11.228516 L 938.90234 11.886719 L 938.68555 11.898438 L 938.4707 11.914062 L 926.69922 12.716797 L 926.48438 12.730469 L 926.26953 12.748047 L 914.52148 13.695312 L 914.30664 13.712891 L 914.0918 13.734375 L 902.36719 14.824219 L 902.15234 14.84375 L 901.9375 14.867188 L 890.23828 16.101562 L 890.02344 16.125 L 889.81055 16.150391 L 878.13672 17.527344 L 877.92188 17.552734 L 877.70898 17.580078 L 866.06445 19.099609 L 865.84961 19.126953 L 865.63672 19.158203 L 854.01953 20.818359 L 853.80664 20.849609 L 853.5957 20.882812 L 842.00781 22.685547 L 841.79492 22.71875 L 841.58398 22.753906 L 830.02734 24.697266 L 829.81641 24.732422 L 829.60352 24.771484 L 818.08008 26.855469 L 817.86914 26.894531 L 817.6582 26.933594 L 806.16797 29.158203 L 805.95898 29.199219 L 805.74805 29.242188 L 794.29297 31.605469 L 794.08203 31.648438 L 793.87305 31.693359 L 782.45508 34.195312 L 782.24414 34.242188 L 782.03711 34.291016 L 770.6543 36.929688 L 770.44531 36.978516 L 770.23828 37.029297 L 758.89453 39.806641 L 758.68555 39.857422 L 758.47852 39.912109 L 747.17383 42.826172 L 746.9668 42.878906 L 746.76172 42.935547 L 735.49805 45.986328 L 735.29102 46.042969 L 735.08594 46.101562 L 723.86523 49.289062 L 723.66016 49.347656 L 723.45508 49.408203 L 712.27734 52.732422 L 712.07227 52.792969 L 711.86719 52.857422 L 700.73438 56.316406 L 700.53125 56.378906 L 700.32812 56.445312 L 693.82422 58.552734 L 686.1543 62.113281 L 679.56055 67.410156 L 674.42969 74.132812 L 671.0625 81.890625 L 669.6543 90.228516 L 670.28516 98.662109 L 672.92188 106.69727 L 677.41016 113.86719 L 683.48633 119.75 L 690.79492 124.00391 L 698.91211 126.37891 L 707.36133 126.74023 L 715.4082 125.14258 L 721.71094 123.09961 L 732.36523 119.78906 L 743.20898 116.56445 L 754.0918 113.47266 L 764.83008 110.56445 L 775.64648 107.77344 L 786.79492 105.04492 L 786.88672 105.02148 L 797.68164 102.51953 L 808.60156 100.12695 L 819.67383 97.84375 L 830.81445 95.6875 L 841.82812 93.697266 L 853.00195 91.818359 L 864.22461 90.070312 L 875.30273 88.488281 L 886.56641 87.017578 L 897.87109 85.683594 L 909.04492 84.505859 L 920.39258 83.449219 L 931.58008 82.546875 L 943.125 81.759766 L 954.52539 81.125 L 954.59375 81.121094 L 965.79883 80.636719 L 977.07812 80.287109 L 988.5332 80.072266 L 1000 80.001953 L 1011.4668 80.072266 L 1022.9219 80.287109 L 1034.2012 80.636719 L 1045.4062 81.121094 L 1045.4746 81.125 L 1056.875 81.759766 L 1068.4199 82.546875 L 1079.6074 83.449219 L 1090.9551 84.505859 L 1102.1289 85.683594 L 1113.4473 87.019531 L 1114.8457 87.201172 L 1123.3027 87.275391 L 1131.5293 85.318359 L 1139.0469 81.443359 L 1145.416 75.878906 L 1150.2637 68.951172 L 1153.3105 61.060547 L 1154.373 52.669922 L 1153.3926 44.271484 L 1150.4277 36.351562 L 1145.6484 29.373047 L 1139.3359 23.746094 L 1131.8574 19.796875 L 1123.9023 17.791016 L 1122.291 17.580078 L 1122.0781 17.552734 L 1121.8633 17.527344 L 1110.1895 16.150391 L 1109.9766 16.125 L 1109.7617 16.101562 L 1098.0625 14.867188 L 1097.8477 14.84375 L 1097.6328 14.824219 L 1085.9082 13.734375 L 1085.6934 13.712891 L 1085.4785 13.695312 L 1073.7305 12.748047 L 1073.5156 12.730469 L 1073.3008 12.716797 L 1061.5293 11.914062 L 1061.3145 11.898438 L 1061.0977 11.886719 L 1049.3066 11.228516 L 1049.0898 11.216797 L 1048.873 11.207031 L 1037.0625 10.695312 L 1036.8457 10.685547 L 1036.6289 10.677734 L 1024.7988 10.3125 L 1024.582 10.304688 L 1024.3652 10.300781 L 1012.5156 10.080078 L 1012.2988 10.076172 L 1012.082 10.074219 L 1000.2168 10.001953 L 1000 10 z M 1514.3984 158.61133 L 1505.9453 158.91406 L 1497.8145 161.23438 L 1490.4766 165.43945 L 1484.3594 171.28125 L 1479.8242 178.41797 L 1477.1328 186.43555 L 1476.4434 194.86523 L 1477.7949 203.21289 L 1481.1113 210.99219 L 1486.1953 217.75 L 1492.5371 222.95508 L 1500.9531 228.3457 L 1510.2383 234.45312 L 1510.3066 234.5 L 1519.7656 240.88867 L 1529.0781 247.35156 L 1538.0488 253.73633 L 1538.1074 253.7793 L 1547.3438 260.52734 L 1556.3223 267.25977 L 1565.4004 274.24023 L 1574.3008 281.26367 L 1583.0469 288.33984 L 1591.7871 295.5918 L 1600.3691 302.89258 L 1608.8359 310.27539 L 1608.8691 310.30469 L 1617.4453 317.97461 L 1625.8438 325.67188 L 1634.166 333.49414 L 1642.4746 341.5 L 1650.5371 349.46289 L 1658.5801 357.60547 L 1666.4336 365.75586 L 1674.3242 374.15234 L 1681.959 382.48047 L 1689.5527 390.9707 L 1697.0332 399.54492 L 1704.2715 408.04883 L 1704.334 408.12305 L 1711.6621 416.95508 L 1718.8125 425.79297 L 1725.8359 434.69922 L 1732.666 443.57812 L 1739.4766 452.66016 L 1746.0938 461.7168 L 1752.7227 471.02539 L 1759.1602 480.30859 L 1765.4316 489.58789 L 1771.584 498.9375 L 1776.6523 506.84766 L 1782.041 513.36719 L 1788.8359 518.40234 L 1796.6387 521.66016 L 1804.998 522.95117 L 1813.4219 522.19922 L 1821.418 519.45117 L 1828.5234 514.86328 L 1834.3203 508.70508 L 1838.4707 501.33594 L 1840.7324 493.1875 L 1840.9727 484.73438 L 1839.1797 476.46875 L 1835.5957 469.08984 L 1830.4492 461.05859 L 1830.334 460.87695 L 1830.2168 460.69922 L 1823.7871 450.92773 L 1823.6699 450.74805 L 1823.5488 450.57031 L 1816.9961 440.87305 L 1816.877 440.69531 L 1816.7539 440.51953 L 1810.0801 430.89844 L 1809.957 430.7207 L 1809.832 430.54688 L 1803.0352 421 L 1802.9102 420.82617 L 1802.7832 420.65234 L 1795.8652 411.18359 L 1795.7383 411.00977 L 1795.6094 410.83789 L 1788.5703 401.44922 L 1788.4414 401.27734 L 1788.3086 401.10547 L 1781.1484 391.79688 L 1781.0176 391.62695 L 1780.8848 391.45703 L 1773.6035 382.22852 L 1773.4707 382.06055 L 1773.3359 381.89258 L 1765.9355 372.74609 L 1765.7988 372.58008 L 1765.6621 372.41406 L 1758.1426 363.35156 L 1758.0059 363.18555 L 1757.8652 363.02148 L 1750.2285 354.04297 L 1750.0879 353.87891 L 1749.9453 353.7168 L 1742.1914 344.82617 L 1742.0488 344.66211 L 1741.9043 344.50195 L 1734.0312 335.69727 L 1733.8867 335.53711 L 1733.7422 335.37695 L 1725.752 326.66211 L 1725.6055 326.50195 L 1725.457 326.3457 L 1717.3516 317.7207 L 1717.2012 317.5625 L 1717.0508 317.40625 L 1708.8301 308.87109 L 1708.6797 308.71484 L 1708.5273 308.56055 L 1700.1895 300.11914 L 1700.0371 299.96484 L 1699.8809 299.8125 L 1691.4395 291.47461 L 1691.2852 291.32227 L 1691.1289 291.17188 L 1682.5957 282.94922 L 1682.4395 282.79883 L 1682.2812 282.65039 L 1673.6562 274.54492 L 1673.498 274.39648 L 1673.3379 274.25 L 1664.623 266.25977 L 1664.4648 266.11328 L 1664.3027 265.96875 L 1655.5 258.0957 L 1655.3379 257.95117 L 1655.1758 257.81055 L 1646.2852 250.05469 L 1646.1211 249.91211 L 1645.957 249.77344 L 1636.9805 242.13477 L 1636.8164 241.99609 L 1636.6484 241.85742 L 1627.5879 234.33789 L 1627.4219 234.20117 L 1627.2539 234.06445 L 1618.1074 226.66602 L 1617.9414 226.5293 L 1617.7715 226.39648 L 1608.543 219.11719 L 1608.375 218.98242 L 1608.2031 218.85156 L 1598.8945 211.69141 L 1598.7246 211.56055 L 1598.5527 211.43164 L 1589.1621 204.39062 L 1588.9902 204.26172 L 1588.8164 204.13477 L 1579.3496 197.2168 L 1579.1758 197.08984 L 1579 196.96484 L 1569.4551 190.16797 L 1569.2793 190.04492 L 1569.1035 189.92188 L 1559.4805 183.24609 L 1559.3047 183.125 L 1559.127 183.00391 L 1549.4297 176.45117 L 1549.252 176.33203 L 1549.0742 176.21484 L 1539.3027 169.78516 L 1539.123 169.66602 L 1538.9434 169.55078 L 1530.2949 164.01172 L 1522.6758 160.34375 L 1514.3984 158.61133 z M 1000 190 L 999.7832 190.00195 L 990.1543 190.06055 L 989.9375 190.0625 L 989.7207 190.06641 L 980.10547 190.24609 L 979.88867 190.25 L 979.67188 190.25586 L 970.07031 190.55469 L 969.85352 190.56055 L 969.63672 190.57031 L 960.05273 190.98633 L 959.83594 190.99609 L 959.61914 191.00781 L 950.05078 191.54102 L 949.83398 191.55469 L 949.61914 191.56836 L 940.06641 192.2207 L 939.85156 192.23438 L 939.63477 192.25195 L 930.10156 193.02148 L 929.88672 193.03906 L 929.67188 193.05859 L 920.1582 193.94336 L 919.94336 193.96289 L 919.72852 193.98633 L 910.23438 194.98828 L 910.01953 195.01172 L 909.80469 195.03516 L 900.33203 196.1543 L 900.11914 196.17969 L 899.9043 196.20703 L 890.45508 197.43945 L 890.24023 197.46875 L 890.02734 197.49805 L 880.60156 198.8457 L 880.38867 198.87695 L 880.17578 198.91016 L 870.77148 200.37305 L 870.56055 200.40625 L 870.34766 200.44141 L 860.9707 202.01953 L 860.75781 202.05469 L 860.54688 202.09375 L 851.19531 203.7832 L 850.98438 203.82227 L 850.77344 203.86328 L 841.44922 205.66797 L 841.23828 205.70898 L 841.0293 205.75195 L 831.73242 207.66992 L 831.52148 207.71289 L 831.3125 207.75781 L 822.04492 209.78906 L 821.83594 209.83398 L 821.62695 209.88281 L 812.39062 212.02539 L 812.18164 212.07422 L 811.97461 212.125 L 802.76953 214.37891 L 802.56055 214.42969 L 802.35352 214.48242 L 793.17969 216.84766 L 792.97266 216.90234 L 792.76758 216.95703 L 783.62695 219.43359 L 783.41992 219.49023 L 783.21484 219.54883 L 774.10938 222.13477 L 773.90234 222.19336 L 773.69727 222.25391 L 764.62695 224.95117 L 764.42188 225.01367 L 764.21875 225.07617 L 755.18359 227.88281 L 754.98047 227.94727 L 754.77734 228.01172 L 745.7793 230.92969 L 745.57617 230.99414 L 745.37305 231.0625 L 736.41406 234.08789 L 736.21094 234.15625 L 736.00977 234.22656 L 727.08984 237.36133 L 726.88867 237.43164 L 726.6875 237.50391 L 717.80859 240.74609 L 717.60742 240.82031 L 717.4082 240.89453 L 708.56836 244.24414 L 708.36914 244.32031 L 708.16992 244.39844 L 701.98242 246.83008 L 694.54297 250.85156 L 688.28516 256.53906 L 683.57422 263.5625 L 680.68359 271.51172 L 679.78711 279.92188 L 680.93164 288.30078 L 684.05273 296.16016 L 688.96875 303.04102 L 695.39258 308.54297 L 702.94727 312.34375 L 711.19336 314.2207 L 719.64844 314.06641 L 727.58398 311.98047 L 733.53516 309.64062 L 742.04883 306.41602 L 750.46289 303.34375 L 758.80859 300.41016 L 758.86523 300.39062 L 767.68164 297.41406 L 767.76758 297.38477 L 776.1582 294.66602 L 784.71484 292.00781 L 793.45312 289.41016 L 802.07617 286.95898 L 810.83594 284.58594 L 819.66797 282.30859 L 828.38281 280.17383 L 837.27148 278.11133 L 846.03906 276.19141 L 854.98633 274.3457 L 863.92578 272.61719 L 872.92188 270.99219 L 873.00391 270.97656 L 881.76367 269.50586 L 890.80859 268.09766 L 899.69336 266.82812 L 908.7793 265.64258 L 917.86719 264.57031 L 926.83398 263.625 L 935.96094 262.77539 L 944.96289 262.04883 L 954.12305 261.42383 L 963.30078 260.91016 L 972.49609 260.51172 L 981.54688 260.23242 L 990.77148 260.05859 L 1000 260.00195 L 1009.2285 260.05859 L 1018.4531 260.23242 L 1027.5039 260.51172 L 1036.6992 260.91016 L 1045.877 261.42383 L 1055.0371 262.04883 L 1064.0391 262.77539 L 1073.166 263.625 L 1082.1328 264.57031 L 1091.2207 265.64258 L 1100.3066 266.82812 L 1109.1914 268.09766 L 1118.2363 269.50586 L 1121.5273 270.05859 L 1129.9766 270.44336 L 1138.2695 268.79102 L 1145.9258 265.19727 L 1152.4941 259.87109 L 1157.5957 253.125 L 1160.9297 245.35352 L 1162.3008 237.00781 L 1161.6328 228.57812 L 1158.9609 220.55469 L 1154.4414 213.4043 L 1148.3398 207.54883 L 1141.0117 203.32812 L 1133.1367 201.02734 L 1129.6523 200.44141 L 1129.4395 200.40625 L 1129.2285 200.37305 L 1119.8242 198.91016 L 1119.6113 198.87695 L 1119.3984 198.8457 L 1109.9727 197.49805 L 1109.7598 197.46875 L 1109.5449 197.43945 L 1100.0957 196.20703 L 1099.8809 196.17969 L 1099.668 196.1543 L 1090.1953 195.03516 L 1089.9805 195.01172 L 1089.7656 194.98828 L 1080.2715 193.98633 L 1080.0566 193.96289 L 1079.8418 193.94336 L 1070.3281 193.05859 L 1070.1133 193.03906 L 1069.8984 193.02148 L 1060.3652 192.25195 L 1060.1484 192.23438 L 1059.9336 192.2207 L 1050.3809 191.56836 L 1050.166 191.55469 L 1049.9492 191.54102 L 1040.3809 191.00781 L 1040.1641 190.99609 L 1039.9473 190.98633 L 1030.3633 190.57031 L 1030.1465 190.56055 L 1029.9297 190.55469 L 1020.3281 190.25586 L 1020.1113 190.25 L 1019.8945 190.24609 L 1010.2793 190.06641 L 1010.0625 190.0625 L 1009.8457 190.06055 L 1000.2168 190.00195 L 1000 190 z M 344.85156 269.05078 L 336.49805 270.36523 L 328.70312 273.64648 L 322.10742 278.52539 L 317.71875 282.65039 L 317.56055 282.79883 L 317.4043 282.94922 L 308.87109 291.17188 L 308.71484 291.32227 L 308.56055 291.47461 L 300.11914 299.8125 L 299.96289 299.96484 L 299.81055 300.11914 L 291.47266 308.56055 L 291.32031 308.71484 L 291.16992 308.87109 L 282.94922 317.40625 L 282.79883 317.5625 L 282.64844 317.7207 L 274.54297 326.3457 L 274.39453 326.50195 L 274.24805 326.66211 L 266.25781 335.37695 L 266.11328 335.53711 L 265.96875 335.69727 L 258.0957 344.50195 L 257.95117 344.66211 L 257.80859 344.82617 L 250.05469 353.7168 L 249.91211 353.87891 L 249.77148 354.04297 L 242.13477 363.02148 L 241.99414 363.18555 L 241.85742 363.35156 L 234.33789 372.41406 L 234.20117 372.58008 L 234.06445 372.74609 L 226.66406 381.89258 L 226.5293 382.06055 L 226.39648 382.22852 L 219.11523 391.45703 L 218.98242 391.62695 L 218.85156 391.79688 L 211.69141 401.10547 L 211.55859 401.27734 L 211.42969 401.44922 L 204.39062 410.83789 L 204.26172 411.00977 L 204.13477 411.18359 L 197.2168 420.65234 L 197.08984 420.82617 L 196.96484 421 L 190.16797 430.54688 L 190.04297 430.7207 L 189.91992 430.89844 L 183.24609 440.51953 L 183.12305 440.69531 L 183.00391 440.87305 L 176.45117 450.57031 L 176.33008 450.74805 L 176.21289 450.92773 L 169.7832 460.69922 L 169.66602 460.87695 L 169.55078 461.05859 L 163.24414 470.90234 L 163.12891 471.08203 L 163.01562 471.26367 L 156.83398 481.17969 L 156.7207 481.36133 L 156.60938 481.54297 L 150.55273 491.5293 L 150.44141 491.71289 L 150.33203 491.89648 L 144.40039 501.95117 L 144.29297 502.13477 L 144.18555 502.32031 L 138.37891 512.44336 L 138.27344 512.62891 L 138.16992 512.81445 L 132.48828 523.00391 L 132.38477 523.18945 L 132.2832 523.37891 L 126.72852 533.63281 L 126.62695 533.82031 L 126.52734 534.00977 L 121.10156 544.32617 L 121.00195 544.51562 L 120.9043 544.70703 L 115.60547 555.08789 L 115.50977 555.27734 L 115.41406 555.46875 L 110.24414 565.91211 L 110.14844 566.10352 L 110.05664 566.29492 L 105.01367 576.79883 L 104.92188 576.99023 L 104.83203 577.18359 L 99.919922 587.74609 L 99.828125 587.93945 L 99.742188 588.13477 L 94.958984 598.75586 L 94.871094 598.94922 L 94.785156 599.14453 L 90.132812 609.82227 L 90.046875 610.01758 L 89.964844 610.21484 L 85.441406 620.94727 L 85.359375 621.14453 L 85.277344 621.3418 L 80.886719 632.12891 L 80.806641 632.32617 L 80.728516 632.52539 L 79.416016 635.86523 L 77.296875 644.05078 L 77.203125 652.50781 L 79.140625 660.74023 L 82.996094 668.26758 L 88.544922 674.65039 L 95.460938 679.51562 L 103.34375 682.58008 L 111.73047 683.66406 L 120.13477 682.70508 L 128.06055 679.75781 L 135.05078 674.99609 L 140.69336 668.69531 L 144.56641 661.46484 L 145.78906 658.35156 L 149.99414 648.02148 L 154.37891 637.61328 L 158.89453 627.25586 L 163.47266 617.08789 L 168.26562 606.78516 L 168.30273 606.70703 L 173.0957 596.72656 L 178.04688 586.72656 L 183.12109 576.78711 L 188.38281 566.78125 L 193.69922 556.96289 L 199.09961 547.27344 L 199.13672 547.20898 L 204.76367 537.39648 L 210.48047 527.70508 L 216.34766 518.03125 L 222.30859 508.47266 L 228.41602 498.9375 L 234.56836 489.58789 L 240.83984 480.30859 L 247.27734 471.02539 L 253.90625 461.7168 L 260.52344 452.66016 L 267.33398 443.57812 L 274.16406 434.69922 L 281.1875 425.79297 L 288.33789 416.95508 L 295.66602 408.12305 L 295.72852 408.04883 L 302.9668 399.54492 L 310.44727 390.9707 L 318.04102 382.48047 L 325.67578 374.15234 L 333.56641 365.75586 L 341.41992 357.60547 L 349.46289 349.46289 L 357.52539 341.5 L 365.83398 333.49219 L 370.04688 329.5332 L 375.46484 323.03906 L 379.16797 315.43555 L 380.9375 307.16602 L 380.67188 298.71289 L 378.38672 290.57031 L 374.21484 283.21289 L 368.40039 277.07227 L 361.2832 272.50391 L 353.27734 269.77734 L 344.85156 269.05078 z M 1000 355 C 828.94497 355 664.87019 422.96185 543.91602 543.91602 C 422.96184 664.8702 355 828.94497 355 1000 C 355 1171.055 422.96184 1335.1298 543.91602 1456.084 C 664.87019 1577.0382 828.94497 1645 1000 1645 C 1171.055 1645 1335.1298 1577.0382 1456.084 1456.084 C 1577.0382 1335.1298 1645 1171.055 1645 1000 C 1645 828.94497 1577.0382 664.8702 1456.084 543.91602 C 1335.1298 422.96185 1171.055 355 1000 355 z M 1502.6309 375.76758 L 1494.2598 376.97266 L 1486.4219 380.14844 L 1479.5742 385.11328 L 1474.1191 391.57422 L 1470.3711 399.15625 L 1468.5508 407.41406 L 1468.7656 415.86914 L 1471.002 424.02539 L 1475.1289 431.40625 L 1480.7109 437.41797 L 1483.0605 439.41797 L 1483.1211 439.46875 L 1489.791 445.28906 L 1496.709 451.47461 L 1503.3945 457.60547 L 1510.0879 463.89648 L 1516.709 470.27344 L 1523.2598 476.74414 L 1529.6523 483.21484 L 1536.1074 489.91406 L 1542.3945 496.60352 L 1548.6016 503.375 L 1554.6328 510.11914 L 1560.7285 517.10938 L 1566.5898 523.99805 L 1572.4238 531.03125 L 1578.1797 538.14648 L 1583.832 545.31055 L 1589.3906 552.53711 L 1594.7949 559.74609 L 1600.1094 567.01953 L 1605.3887 574.43164 L 1610.5664 581.89258 L 1615.6719 589.45117 L 1620.6855 597.07227 L 1625.5762 604.70703 L 1630.3281 612.33008 L 1634.9863 620.00781 L 1639.6172 627.85352 L 1644.1191 635.70312 L 1648.5527 643.65625 L 1652.8223 651.54102 L 1657.0293 659.54102 L 1661.168 667.64844 L 1665.1113 675.61523 L 1669.0801 683.88477 L 1672.8594 692.00781 L 1676.5391 700.17773 L 1680.1523 708.46289 L 1683.6523 716.77148 L 1686.9941 724.97461 L 1687.0293 725.06445 L 1690.4141 733.67773 L 1690.4512 733.77344 L 1693.498 741.81445 L 1693.5137 741.85938 L 1696.707 750.60156 L 1696.7402 750.69336 L 1699.6738 759.05078 L 1702.0312 766.03516 L 1705.6855 773.66211 L 1711.0625 780.19141 L 1717.8477 785.23828 L 1725.6445 788.51172 L 1734 789.81836 L 1742.4258 789.08398 L 1750.4277 786.34766 L 1757.541 781.77344 L 1763.3496 775.62695 L 1767.5137 768.26562 L 1769.791 760.12109 L 1770.0488 751.66797 L 1768.3535 743.64258 L 1765.9121 736.41406 L 1765.8438 736.21289 L 1765.7734 736.01172 L 1762.6406 727.0918 L 1762.5703 726.88867 L 1762.498 726.68945 L 1759.2559 717.80859 L 1759.1836 717.60938 L 1759.1074 717.4082 L 1755.7578 708.57031 L 1755.6816 708.37109 L 1755.6035 708.17188 L 1752.1484 699.375 L 1752.0703 699.17578 L 1751.9883 698.97852 L 1748.4258 690.22461 L 1748.3457 690.02734 L 1748.2617 689.83008 L 1744.5918 681.12109 L 1744.5098 680.92383 L 1744.4238 680.72852 L 1740.6484 672.06445 L 1740.5625 671.86719 L 1740.4746 671.67383 L 1736.5938 663.05469 L 1736.5059 662.85938 L 1736.416 662.66602 L 1732.4277 654.0957 L 1732.3379 653.90234 L 1732.2461 653.70898 L 1728.1543 645.18555 L 1728.0625 644.99414 L 1727.9648 644.80273 L 1723.7695 636.32812 L 1723.6738 636.13672 L 1723.5781 635.94531 L 1719.2773 627.52148 L 1719.1797 627.33203 L 1719.0801 627.14258 L 1714.6777 618.76953 L 1714.5781 618.58008 L 1714.4766 618.39258 L 1709.9688 610.07031 L 1709.8672 609.88281 L 1709.7637 609.69727 L 1705.1543 601.42773 L 1705.0488 601.24219 L 1704.9434 601.05664 L 1700.2305 592.8418 L 1700.125 592.65625 L 1700.0156 592.47266 L 1695.2012 584.3125 L 1695.0938 584.12891 L 1694.9824 583.94531 L 1690.0664 575.8418 L 1689.9551 575.6582 L 1689.8418 575.47656 L 1684.8262 567.43164 L 1684.7129 567.25 L 1684.5977 567.06836 L 1679.4805 559.08008 L 1679.3652 558.90039 L 1679.2461 558.7207 L 1674.0293 550.79102 L 1673.9121 550.61328 L 1673.791 550.43555 L 1668.4746 542.56641 L 1668.3535 542.38672 L 1668.2305 542.21094 L 1662.8145 534.40234 L 1662.6914 534.22656 L 1662.5664 534.05078 L 1657.0508 526.30469 L 1656.9277 526.13086 L 1656.8008 525.95703 L 1651.1855 518.27344 L 1651.0586 518.09961 L 1650.9297 517.92773 L 1645.2168 510.30859 L 1645.0879 510.13477 L 1644.957 509.96484 L 1639.1465 502.41016 L 1639.0137 502.24023 L 1638.8809 502.07031 L 1632.9727 494.58203 L 1632.8398 494.41211 L 1632.7031 494.24414 L 1626.6992 486.82422 L 1626.5625 486.65625 L 1626.4258 486.49023 L 1620.3242 479.13672 L 1620.1855 478.96875 L 1620.0469 478.80469 L 1613.8477 471.51953 L 1613.709 471.35547 L 1613.5664 471.19336 L 1607.2734 463.97852 L 1607.1309 463.81445 L 1606.9863 463.6543 L 1600.5977 456.50977 L 1600.4531 456.34766 L 1600.3066 456.18945 L 1593.8242 449.11719 L 1593.6777 448.95703 L 1593.5293 448.79883 L 1586.9512 441.79883 L 1586.8008 441.64062 L 1586.6504 441.48438 L 1579.9785 434.56055 L 1579.8281 434.4043 L 1579.6758 434.24805 L 1572.9102 427.39844 L 1572.7578 427.24414 L 1572.6016 427.0918 L 1565.752 420.32422 L 1565.5977 420.17188 L 1565.4414 420.02148 L 1558.5156 413.34961 L 1558.3594 413.19922 L 1558.2012 413.05078 L 1551.2012 406.47266 L 1551.0449 406.32422 L 1550.8848 406.17773 L 1543.8125 399.69336 L 1543.6523 399.54688 L 1543.4922 399.40234 L 1536.3477 393.01367 L 1536.1855 392.86914 L 1536.0234 392.72852 L 1528.8086 386.43359 L 1528.6445 386.29297 L 1528.4805 386.15234 L 1526.0703 384.10156 L 1519.0137 379.44141 L 1511.0469 376.60742 L 1502.6309 375.76758 z M 1000 405 C 1157.8134 405 1309.1376 467.68055 1420.7285 579.27148 C 1532.3195 690.86242 1595 842.18658 1595 1000 C 1595 1157.8134 1532.3195 1309.1376 1420.7285 1420.7285 C 1309.1376 1532.3195 1157.8134 1595 1000 1595 C 842.18658 1595 690.86242 1532.3195 579.27148 1420.7285 C 467.68055 1309.1376 405 1157.8134 405 1000 C 405 842.18658 467.68055 690.86242 579.27148 579.27148 C 690.86242 467.68055 842.18658 405 1000 405 z M 385.58984 494.80859 L 377.15625 495.43945 L 369.12109 498.07422 L 361.95117 502.56055 L 356.22266 508.43164 L 355.04297 509.96484 L 354.91211 510.13477 L 354.7832 510.30859 L 349.07031 517.92773 L 348.94141 518.09961 L 348.81445 518.27344 L 343.19922 525.95703 L 343.07227 526.13086 L 342.94922 526.30469 L 337.43359 534.05078 L 337.30859 534.22656 L 337.18555 534.40234 L 331.76953 542.21094 L 331.64648 542.38672 L 331.52539 542.56641 L 326.20898 550.43555 L 326.08789 550.61328 L 325.9707 550.79102 L 320.75391 558.7207 L 320.63477 558.90039 L 320.51953 559.08008 L 315.40234 567.06836 L 315.28711 567.25 L 315.17383 567.43164 L 310.1582 575.47656 L 310.04492 575.6582 L 309.93359 575.8418 L 305.01758 583.94531 L 304.90625 584.12891 L 304.79883 584.3125 L 299.98438 592.47266 L 299.875 592.65625 L 299.76953 592.8418 L 295.05664 601.05664 L 294.95117 601.24219 L 294.8457 601.42773 L 290.23633 609.69727 L 290.13281 609.88281 L 290.03125 610.07031 L 285.52344 618.39258 L 285.42188 618.58008 L 285.32227 618.76953 L 280.91992 627.14258 L 280.82031 627.33203 L 280.72266 627.52148 L 276.42188 635.94531 L 276.32617 636.13672 L 276.23047 636.32812 L 272.03516 644.80273 L 271.93945 644.99414 L 271.84766 645.18555 L 267.75586 653.70898 L 267.66406 653.90234 L 267.57422 654.0957 L 263.58594 662.66602 L 263.49609 662.85938 L 263.4082 663.05469 L 259.52734 671.67383 L 259.43945 671.86719 L 259.35352 672.06445 L 255.57812 680.72852 L 255.49219 680.92383 L 255.41016 681.12109 L 251.74023 689.83008 L 251.65625 690.02734 L 251.57617 690.22461 L 248.01367 698.97852 L 247.93164 699.17578 L 247.85352 699.375 L 244.39844 708.17188 L 244.32031 708.37109 L 244.24414 708.57031 L 240.89453 717.4082 L 240.81836 717.60938 L 240.74609 717.80859 L 237.50391 726.68945 L 237.43164 726.88867 L 237.35938 727.0918 L 234.22656 736.01172 L 234.15625 736.21289 L 234.08789 736.41406 L 231.0625 745.375 L 230.99414 745.57617 L 230.92773 745.7793 L 228.01172 754.77734 L 227.94531 754.98047 L 227.88281 755.18359 L 225.07617 764.21875 L 225.01172 764.42383 L 224.95117 764.62891 L 222.25391 773.69922 L 222.19336 773.9043 L 222.13477 774.10938 L 219.54688 783.21484 L 219.48828 783.42188 L 219.43359 783.62695 L 216.95703 792.76758 L 216.90039 792.97461 L 216.84766 793.18164 L 214.48242 802.35547 L 214.42773 802.5625 L 214.37695 802.76953 L 212.12305 811.97461 L 212.07227 812.18359 L 212.02344 812.39258 L 209.88086 821.62891 L 209.83398 821.83789 L 209.78711 822.04688 L 207.75781 831.31445 L 207.71094 831.52344 L 207.66797 831.73242 L 205.75 841.0293 L 205.70703 841.23828 L 205.66602 841.44922 L 203.86133 850.77344 L 203.82031 850.98438 L 203.7832 851.19531 L 202.0918 860.54688 L 202.05469 860.75977 L 202.01758 860.9707 L 200.44141 870.34961 L 200.40625 870.56055 L 200.37305 870.77344 L 198.91016 880.17578 L 198.87695 880.38867 L 198.8457 880.60156 L 197.49805 890.0293 L 197.4668 890.24219 L 197.43945 890.45508 L 196.20508 899.90625 L 196.17773 900.11914 L 196.15234 900.33398 L 195.03516 909.80664 L 195.00977 910.01953 L 194.98828 910.23438 L 194.88281 911.22461 L 195.01758 919.67969 L 197.17773 927.85742 L 201.23438 935.27734 L 206.95508 941.50781 L 214 946.18359 L 221.96289 949.0332 L 230.37695 949.89062 L 238.75 948.70312 L 246.59375 945.54297 L 253.45117 940.59375 L 258.92188 934.14453 L 262.68555 926.57031 L 264.49609 918.57031 L 264.58594 917.7207 L 265.64062 908.7832 L 266.82812 899.69727 L 268.09766 890.80859 L 269.5293 881.61328 L 269.54102 881.53516 L 271.01562 872.77344 L 272.61523 863.92773 L 274.35156 854.95508 L 276.19531 846.01367 L 278.11133 837.27734 L 280.16602 828.41797 L 282.33398 819.56055 L 284.57422 810.87891 L 286.95898 802.07617 L 289.41016 793.45117 L 291.96484 784.85938 L 294.66602 776.1582 L 297.47461 767.49414 L 300.32617 759.05273 L 303.25977 750.69336 L 303.29297 750.60156 L 306.48633 741.85938 L 306.50195 741.81445 L 309.54883 733.77344 L 309.58594 733.67773 L 312.9707 725.06445 L 313.00586 724.97461 L 316.34766 716.77148 L 319.84766 708.46289 L 323.46094 700.17773 L 327.14062 692.00781 L 330.91992 683.88477 L 334.88867 675.61523 L 338.83203 667.64844 L 342.9707 659.54102 L 347.17773 651.54102 L 351.44727 643.65625 L 355.88086 635.70312 L 360.38281 627.85352 L 365.01367 620.00781 L 369.67188 612.33008 L 374.42383 604.70703 L 379.31445 597.07227 L 384.32812 589.45117 L 389.43359 581.89258 L 394.61133 574.43164 L 399.89062 567.01953 L 405.20508 559.74609 L 410.60938 552.53906 L 411.70898 551.10938 L 416.01758 543.83203 L 418.45508 535.73242 L 418.87695 527.28711 L 417.26367 518.98438 L 413.70312 511.3125 L 408.4082 504.71875 L 401.68555 499.58789 L 393.92969 496.21875 L 385.58984 494.80859 z M 1141.5508 573.44336 L 979.01758 1020 L 938 1020 L 938 1060 L 964.45703 1060 L 956.85938 1080.877 L 994.44727 1094.5586 L 1007.0254 1060 L 1338 1060 L 1338 1020 L 1021.584 1020 L 1179.1387 587.125 L 1141.5508 573.44336 z M 1946.9805 844.90625 L 1938.5977 846.0293 L 1930.7305 849.13281 L 1923.8379 854.03125 L 1918.3203 860.44141 L 1914.502 867.98633 L 1912.6035 876.22852 L 1912.7051 884.43164 L 1912.9863 886.58398 L 1914.3008 897.73242 L 1915.4941 909.04492 L 1916.5508 920.38086 L 1917.4668 931.75 L 1918.2324 942.98242 L 1918.8691 954.37891 L 1919.3633 965.79883 L 1919.7188 977.23242 L 1919.9297 988.68555 L 1919.998 1000.002 L 1919.9297 1011.3164 L 1919.7188 1022.7695 L 1919.3633 1034.209 L 1918.8691 1045.6289 L 1918.2324 1057.0273 L 1917.4668 1068.252 L 1916.5508 1079.6211 L 1915.4941 1090.957 L 1914.3008 1102.2695 L 1912.9863 1113.416 L 1911.5137 1124.6934 L 1909.9297 1135.7715 L 1908.1621 1147.1309 L 1906.3457 1157.9395 L 1906.332 1158.0176 L 1904.2852 1169.3398 L 1902.1562 1180.3242 L 1899.8984 1191.2812 L 1897.4473 1202.4688 L 1894.9219 1213.3574 L 1892.2734 1224.1719 L 1889.4473 1235.1328 L 1886.4883 1246.0566 L 1883.4375 1256.793 L 1880.2266 1267.5918 L 1876.916 1278.2461 L 1873.5059 1288.7715 L 1873.4766 1288.8574 L 1869.8613 1299.5684 L 1866.0996 1310.2793 L 1862.293 1320.7031 L 1858.2871 1331.2734 L 1854.209 1341.6523 L 1850.0059 1351.9805 L 1845.6211 1362.3887 L 1841.1055 1372.7461 L 1836.5254 1382.916 L 1832.3809 1391.8301 L 1829.7656 1399.8711 L 1829.1562 1408.3066 L 1830.5898 1416.6426 L 1833.9785 1424.3906 L 1839.1289 1431.0996 L 1845.7363 1436.377 L 1853.418 1439.916 L 1861.7227 1441.5078 L 1870.168 1441.0625 L 1878.2598 1438.6035 L 1885.5254 1434.2773 L 1891.543 1428.332 L 1895.8496 1421.3516 L 1900.0801 1412.2559 L 1900.1719 1412.0605 L 1900.2578 1411.8672 L 1905.041 1401.2461 L 1905.1289 1401.0527 L 1905.2148 1400.8555 L 1909.8672 1390.1797 L 1909.9531 1389.9844 L 1910.0352 1389.7871 L 1914.5586 1379.0547 L 1914.6406 1378.8574 L 1914.7227 1378.6602 L 1919.1133 1367.873 L 1919.1934 1367.6758 L 1919.2715 1367.4766 L 1923.5312 1356.6367 L 1923.6094 1356.4375 L 1923.6855 1356.2383 L 1927.8125 1345.3457 L 1927.8887 1345.1465 L 1927.9609 1344.9473 L 1931.9551 1334.0039 L 1932.0293 1333.8027 L 1932.0977 1333.6016 L 1935.959 1322.6094 L 1936.0293 1322.4082 L 1936.0977 1322.207 L 1939.8262 1311.166 L 1939.8945 1310.9629 L 1939.9609 1310.7598 L 1943.5547 1299.6738 L 1943.6191 1299.4707 L 1943.6836 1299.2656 L 1947.1426 1288.1328 L 1947.2031 1287.9277 L 1947.2656 1287.7246 L 1950.5898 1276.5469 L 1950.6504 1276.3418 L 1950.709 1276.1367 L 1953.8965 1264.9141 L 1953.9551 1264.709 L 1954.0137 1264.502 L 1957.0645 1253.2402 L 1957.1211 1253.0332 L 1957.1738 1252.8262 L 1960.0898 1241.5215 L 1960.1426 1241.3145 L 1960.1934 1241.1074 L 1962.9707 1229.7637 L 1963.0234 1229.5547 L 1963.0703 1229.3477 L 1965.7109 1217.9648 L 1965.7598 1217.7559 L 1965.8047 1217.5469 L 1968.3066 1206.127 L 1968.3535 1205.918 L 1968.3965 1205.709 L 1970.7578 1194.252 L 1970.8027 1194.043 L 1970.8438 1193.832 L 1973.0664 1182.3418 L 1973.1074 1182.1309 L 1973.1445 1181.9199 L 1975.2285 1170.3965 L 1975.2676 1170.1855 L 1975.3027 1169.9727 L 1977.2461 1158.418 L 1977.2832 1158.2051 L 1977.3145 1157.9922 L 1979.1172 1146.4062 L 1979.1504 1146.1934 L 1979.1816 1145.9805 L 1980.8438 1134.3633 L 1980.873 1134.1504 L 1980.9004 1133.9375 L 1982.4199 1122.291 L 1982.4473 1122.0781 L 1982.4727 1121.8633 L 1983.8496 1110.1914 L 1983.875 1109.9766 L 1983.8965 1109.7637 L 1985.1309 1098.0645 L 1985.1543 1097.8496 L 1985.1738 1097.6348 L 1986.2656 1085.9102 L 1986.2852 1085.6953 L 1986.3027 1085.4805 L 1987.25 1073.7324 L 1987.2695 1073.5156 L 1987.2832 1073.3008 L 1988.0879 1061.5312 L 1988.1016 1061.3145 L 1988.1133 1061.0977 L 1988.7715 1049.3066 L 1988.7832 1049.0898 L 1988.793 1048.875 L 1989.3066 1037.0625 L 1989.3164 1036.8457 L 1989.3262 1036.6289 L 1989.6934 1024.7988 L 1989.7051 1024.582 L 1989.7051 1024.3652 L 1989.9258 1012.5176 L 1989.9258 1012.2988 L 1989.9258 1012.082 L 1989.998 1000.2188 L 1989.9746 1000.0039 L 1989.998 999.7832 L 1989.9258 987.91797 L 1989.9258 987.70117 L 1989.9258 987.48438 L 1989.7051 975.63672 L 1989.7051 975.41992 L 1989.6934 975.20312 L 1989.3262 963.37305 L 1989.3164 963.15625 L 1989.3066 962.93945 L 1988.793 951.12695 L 1988.7832 950.91016 L 1988.7715 950.69531 L 1988.1133 938.90234 L 1988.1016 938.6875 L 1988.0879 938.4707 L 1987.2832 926.70117 L 1987.2695 926.48438 L 1987.25 926.26953 L 1986.3027 914.52148 L 1986.2852 914.30664 L 1986.2656 914.0918 L 1985.1738 902.36719 L 1985.1543 902.15234 L 1985.1309 901.9375 L 1983.8965 890.23828 L 1983.875 890.02539 L 1983.8496 889.81055 L 1982.4727 878.13672 L 1982.4473 877.92383 L 1982.4199 877.70898 L 1982.1152 875.375 L 1980.0176 867.18164 L 1976.0137 859.73242 L 1970.3398 853.46094 L 1963.3281 848.73242 L 1955.3867 845.82422 L 1946.9805 844.90625 z M 1770.8574 965.24609 L 1762.6445 967.25391 L 1755.1504 971.17383 L 1748.8164 976.77539 L 1744.0098 983.73438 L 1741.0117 991.64258 L 1740 999.7832 L 1739.9434 1009.2344 L 1739.7734 1018.2969 L 1739.4883 1027.5098 L 1739.0898 1036.7031 L 1738.5879 1045.7168 L 1737.9629 1054.8887 L 1737.2266 1064.0273 L 1736.375 1073.1641 L 1735.4141 1082.2734 L 1734.3574 1091.2383 L 1733.1719 1100.3047 L 1731.9023 1109.1934 L 1730.4707 1118.3887 L 1730.459 1118.4668 L 1728.9844 1127.2285 L 1727.3848 1136.0742 L 1725.6484 1145.0469 L 1723.8047 1153.9883 L 1721.8887 1162.7246 L 1719.834 1171.584 L 1717.666 1180.4414 L 1715.4258 1189.123 L 1713.041 1197.9258 L 1710.5898 1206.5508 L 1708.0352 1215.1426 L 1705.3477 1223.7969 L 1702.5234 1232.5098 L 1699.6738 1240.9473 L 1696.6895 1249.4492 L 1693.5137 1258.1426 L 1693.4961 1258.1875 L 1690.4512 1266.2285 L 1690.4141 1266.3242 L 1687.0078 1274.9902 L 1686.9922 1275.0254 L 1683.6504 1283.2305 L 1680.1738 1291.4824 L 1676.5371 1299.8262 L 1672.8574 1307.9941 L 1669.0781 1316.1172 L 1665.1094 1324.3867 L 1661.166 1332.3535 L 1657.0293 1340.459 L 1652.7852 1348.5254 L 1648.5508 1356.3457 L 1644.1172 1364.2988 L 1639.6543 1372.0781 L 1634.9805 1380 L 1634.0176 1381.5879 L 1630.5371 1389.2949 L 1629.0078 1397.6133 L 1629.5156 1406.0547 L 1632.0371 1414.127 L 1636.418 1421.3594 L 1642.4082 1427.3301 L 1649.6543 1431.6914 L 1657.7363 1434.1855 L 1666.1797 1434.668 L 1674.4922 1433.1113 L 1682.1875 1429.6074 L 1688.8203 1424.3594 L 1693.8672 1417.8926 L 1694.9805 1416.0566 L 1695.0918 1415.873 L 1695.1992 1415.6895 L 1700.0137 1407.5293 L 1700.123 1407.3457 L 1700.2285 1407.1602 L 1704.9414 1398.9453 L 1705.0469 1398.7598 L 1705.1523 1398.5742 L 1709.7617 1390.3047 L 1709.8652 1390.1191 L 1709.9668 1389.9316 L 1714.4746 1381.6094 L 1714.5762 1381.4219 L 1714.6777 1381.2324 L 1719.0801 1372.8594 L 1719.1797 1372.6699 L 1719.2773 1372.4805 L 1723.5781 1364.0547 L 1723.6738 1363.8652 L 1723.7695 1363.6738 L 1727.9648 1355.1992 L 1728.0605 1355.0078 L 1728.1543 1354.8164 L 1732.2461 1346.293 L 1732.3379 1346.0996 L 1732.4277 1345.9062 L 1736.416 1337.334 L 1736.5059 1337.1406 L 1736.5938 1336.9473 L 1740.4746 1328.3281 L 1740.5625 1328.1328 L 1740.6484 1327.9375 L 1744.4238 1319.2734 L 1744.5098 1319.0781 L 1744.5918 1318.8809 L 1748.2617 1310.1719 L 1748.3457 1309.9746 L 1748.4258 1309.7773 L 1751.9883 1301.0234 L 1752.0703 1300.8262 L 1752.1484 1300.627 L 1755.6035 1291.8301 L 1755.6816 1291.6309 L 1755.7578 1291.4316 L 1759.1074 1282.5938 L 1759.1836 1282.3926 L 1759.2559 1282.1934 L 1762.498 1273.3125 L 1762.5684 1273.1113 L 1762.6406 1272.9102 L 1765.7734 1263.9902 L 1765.8438 1263.7891 L 1765.9121 1263.5859 L 1768.9375 1254.627 L 1769.0059 1254.4258 L 1769.0723 1254.2227 L 1771.9883 1245.2246 L 1772.0527 1245.0215 L 1772.1152 1244.8164 L 1774.9219 1235.7832 L 1774.9863 1235.5781 L 1775.0469 1235.373 L 1777.7441 1226.3027 L 1777.8047 1226.0977 L 1777.8633 1225.8926 L 1780.4512 1216.7871 L 1780.5098 1216.5801 L 1780.5645 1216.375 L 1783.041 1207.2344 L 1783.0996 1207.0273 L 1783.1523 1206.8203 L 1785.5176 1197.6465 L 1785.5723 1197.4395 L 1785.623 1197.2324 L 1787.877 1188.0254 L 1787.9277 1187.8184 L 1787.9766 1187.6094 L 1790.1191 1178.373 L 1790.166 1178.1641 L 1790.2129 1177.9551 L 1792.2422 1168.6875 L 1792.2891 1168.4785 L 1792.332 1168.2695 L 1794.25 1158.9727 L 1794.293 1158.7617 L 1794.334 1158.5527 L 1796.1387 1149.2266 L 1796.1797 1149.0176 L 1796.2168 1148.8047 L 1797.9082 1139.4531 L 1797.9453 1139.2422 L 1797.9824 1139.0312 L 1799.5586 1129.6523 L 1799.5938 1129.4414 L 1799.627 1129.2285 L 1801.0898 1119.8262 L 1801.123 1119.6133 L 1801.1543 1119.4004 L 1802.502 1109.9727 L 1802.5332 1109.7598 L 1802.5605 1109.5469 L 1803.7949 1100.0957 L 1803.8203 1099.8828 L 1803.8457 1099.668 L 1804.9629 1090.1953 L 1804.9883 1089.9805 L 1805.0098 1089.7676 L 1806.0117 1080.2734 L 1806.0352 1080.0586 L 1806.0547 1079.8438 L 1806.9414 1070.3281 L 1806.9609 1070.1133 L 1806.9785 1069.8984 L 1807.7461 1060.3652 L 1807.7637 1060.1504 L 1807.7793 1059.9336 L 1808.4297 1050.3828 L 1808.4453 1050.166 L 1808.457 1049.9512 L 1808.9902 1040.3809 L 1809.0059 1040.1641 L 1809.0156 1039.9492 L 1809.4336 1030.3633 L 1809.4434 1030.1465 L 1809.4531 1029.9297 L 1809.75 1020.3301 L 1809.7598 1020.1133 L 1809.7598 1019.8965 L 1809.9375 1010.2812 L 1809.9375 1010.0645 L 1809.9375 1009.8457 L 1809.998 1000.2188 L 1809.0273 991.81641 L 1806.0703 983.89258 L 1801.3008 976.91016 L 1794.9941 971.27539 L 1787.5195 967.31836 L 1779.3145 965.26758 L 1770.8574 965.24609 z M 48.628906 1025.2129 L 40.193359 1025.8184 L 32.148438 1028.4297 L 24.966797 1032.8965 L 19.064453 1038.9531 L 14.789062 1046.25 L 12.386719 1054.3574 L 11.982422 1062.5527 L 12.716797 1073.3008 L 12.730469 1073.5156 L 12.748047 1073.7324 L 13.695312 1085.4805 L 13.712891 1085.6953 L 13.732422 1085.9102 L 14.824219 1097.6348 L 14.84375 1097.8496 L 14.867188 1098.0645 L 16.101562 1109.7637 L 16.123047 1109.9766 L 16.148438 1110.1914 L 17.525391 1121.8633 L 17.550781 1122.0781 L 17.580078 1122.291 L 19.099609 1133.9375 L 19.126953 1134.1504 L 19.15625 1134.3633 L 20.818359 1145.9805 L 20.849609 1146.1934 L 20.882812 1146.4062 L 22.685547 1157.9922 L 22.716797 1158.2051 L 22.753906 1158.418 L 24.697266 1169.9727 L 24.732422 1170.1855 L 24.771484 1170.3965 L 26.855469 1181.9199 L 26.892578 1182.1309 L 26.933594 1182.3418 L 29.15625 1193.832 L 29.197266 1194.043 L 29.242188 1194.252 L 31.603516 1205.709 L 31.646484 1205.918 L 31.693359 1206.127 L 34.195312 1217.5469 L 34.240234 1217.7559 L 34.289062 1217.9648 L 36.929688 1229.3477 L 36.976562 1229.5547 L 37.029297 1229.7637 L 39.806641 1241.1074 L 39.857422 1241.3145 L 39.910156 1241.5215 L 42.826172 1252.8262 L 42.878906 1253.0332 L 42.935547 1253.2402 L 45.986328 1264.502 L 46.042969 1264.709 L 46.101562 1264.9141 L 49.289062 1276.1367 L 49.347656 1276.3418 L 49.408203 1276.5469 L 52.732422 1287.7246 L 52.792969 1287.9277 L 52.855469 1288.1328 L 56.314453 1299.2656 L 56.378906 1299.4707 L 56.443359 1299.6738 L 60.037109 1310.7598 L 60.103516 1310.9629 L 60.171875 1311.166 L 63.900391 1322.207 L 63.96875 1322.4082 L 64.039062 1322.6094 L 67.900391 1333.6016 L 67.970703 1333.8027 L 68.044922 1334.0039 L 72.039062 1344.9473 L 72.111328 1345.1465 L 72.1875 1345.3457 L 76.314453 1356.2383 L 76.390625 1356.4375 L 76.46875 1356.6367 L 80.728516 1367.4766 L 80.806641 1367.6758 L 80.886719 1367.873 L 85.277344 1378.6602 L 85.359375 1378.8574 L 85.441406 1379.0547 L 89.964844 1389.7871 L 90.046875 1389.9844 L 90.132812 1390.1797 L 94.785156 1400.8555 L 94.871094 1401.0527 L 94.958984 1401.2461 L 99.742188 1411.8672 L 99.828125 1412.0605 L 99.919922 1412.2559 L 104.83203 1422.8164 L 104.92188 1423.0117 L 105.01367 1423.2031 L 110.05664 1433.707 L 110.14844 1433.8984 L 110.24414 1434.0898 L 115.41406 1444.5332 L 115.50977 1444.7246 L 115.60547 1444.9141 L 120.9043 1455.2949 L 121.00195 1455.4863 L 121.10156 1455.6738 L 126.52734 1465.9922 L 126.62695 1466.1816 L 126.72852 1466.3691 L 132.2832 1476.623 L 132.38477 1476.8125 L 132.48828 1476.998 L 132.64062 1477.2715 L 137.62109 1484.1074 L 144.0957 1489.5488 L 151.6875 1493.2773 L 159.95117 1495.0762 L 168.4043 1494.8418 L 176.55469 1492.5859 L 183.92578 1488.4414 L 190.08789 1482.6484 L 194.68164 1475.5469 L 197.4375 1467.5527 L 198.19531 1459.1289 L 196.91016 1450.7695 L 193.82422 1443.291 L 193.83398 1443.2871 L 193.78906 1443.2031 L 193.78125 1443.1855 L 193.70117 1443.041 L 188.38281 1433.2207 L 183.12109 1423.2148 L 178.04688 1413.2754 L 173.09766 1403.2754 L 168.23828 1393.1562 L 163.47266 1382.9141 L 158.89453 1372.7461 L 154.37891 1362.3887 L 149.99414 1351.9805 L 145.79102 1341.6523 L 141.71289 1331.2734 L 137.70703 1320.7031 L 133.90039 1310.2773 L 130.13867 1299.5684 L 126.52344 1288.8574 L 126.49414 1288.7715 L 123.08398 1278.2461 L 119.77344 1267.5918 L 116.5625 1256.793 L 113.51172 1246.0566 L 110.55273 1235.1328 L 107.72656 1224.1719 L 105.07812 1213.3574 L 102.55273 1202.4688 L 100.10156 1191.2812 L 97.84375 1180.3242 L 95.714844 1169.3398 L 93.667969 1158.0176 L 93.654297 1157.9395 L 91.837891 1147.1309 L 90.070312 1135.7715 L 88.486328 1124.6934 L 87.013672 1113.416 L 85.699219 1102.2695 L 84.505859 1090.957 L 83.449219 1079.6211 L 82.533203 1068.252 L 81.820312 1057.7871 L 80.230469 1049.4824 L 76.693359 1041.7988 L 71.416016 1035.1895 L 64.708984 1030.0391 L 56.962891 1026.6465 L 48.628906 1025.2129 z M 293.5293 1289.5137 L 285.23633 1291.166 L 277.58203 1294.7617 L 271.01172 1300.0879 L 265.91211 1306.834 L 262.57812 1314.6055 L 261.20703 1322.9512 L 261.87695 1331.3809 L 264.44141 1339.1738 L 267.57422 1345.9062 L 267.66406 1346.0996 L 267.75586 1346.293 L 271.84766 1354.8164 L 271.93945 1355.0078 L 272.03516 1355.1992 L 276.23047 1363.6738 L 276.32617 1363.8652 L 276.42188 1364.0547 L 280.72266 1372.4805 L 280.82031 1372.6699 L 280.91992 1372.8594 L 285.32227 1381.2324 L 285.42188 1381.4219 L 285.52344 1381.6094 L 290.03125 1389.9316 L 290.13281 1390.1191 L 290.23633 1390.3047 L 294.8457 1398.5742 L 294.95117 1398.7598 L 295.05664 1398.9453 L 299.76953 1407.1602 L 299.875 1407.3457 L 299.98438 1407.5293 L 304.79883 1415.6895 L 304.90625 1415.873 L 305.01758 1416.0566 L 309.93359 1424.1602 L 310.04492 1424.3418 L 310.1582 1424.5254 L 315.17383 1432.5703 L 315.28711 1432.752 L 315.40234 1432.9336 L 320.51953 1440.9219 L 320.63477 1441.1016 L 320.75391 1441.2812 L 325.9707 1449.2109 L 326.08789 1449.3887 L 326.20898 1449.5664 L 331.52539 1457.4355 L 331.64648 1457.6133 L 331.76953 1457.791 L 337.18555 1465.5996 L 337.30859 1465.7754 L 337.43359 1465.9492 L 342.94922 1473.6973 L 343.07227 1473.8711 L 343.19922 1474.0449 L 348.81445 1481.7285 L 348.94141 1481.9023 L 349.07031 1482.0742 L 354.7832 1489.6934 L 354.91211 1489.8652 L 355.04297 1490.0371 L 360.85352 1497.5918 L 360.98633 1497.7617 L 361.11914 1497.9316 L 367.02734 1505.4199 L 367.16016 1505.5898 L 367.29688 1505.7559 L 373.30078 1513.1777 L 373.4375 1513.3457 L 373.57422 1513.5117 L 379.67578 1520.8652 L 379.81445 1521.0312 L 379.95312 1521.1973 L 386.15234 1528.4805 L 386.29102 1528.6465 L 386.43359 1528.8086 L 392.72656 1536.0234 L 392.86914 1536.1875 L 393.01367 1536.3477 L 399.40234 1543.4922 L 399.54688 1543.6543 L 399.69336 1543.8125 L 406.17578 1550.8848 L 406.32227 1551.0449 L 406.4707 1551.2031 L 413.04883 1558.2031 L 413.19922 1558.3594 L 413.34961 1558.5156 L 420.02148 1565.4414 L 420.17188 1565.5977 L 420.32422 1565.752 L 427.08984 1572.6035 L 427.24219 1572.7578 L 427.39844 1572.9102 L 434.24805 1579.6758 L 434.40234 1579.8281 L 434.55859 1579.9805 L 441.48438 1586.6523 L 441.64062 1586.8027 L 441.79883 1586.9512 L 448.79883 1593.5293 L 448.95508 1593.6777 L 449.11523 1593.8242 L 456.1875 1600.3086 L 456.34766 1600.4551 L 456.50781 1600.5977 L 463.65234 1606.9883 L 463.81445 1607.1309 L 463.97656 1607.2734 L 471.19141 1613.5664 L 471.35547 1613.709 L 471.51953 1613.8496 L 478.80469 1620.0469 L 478.96875 1620.1875 L 479.13477 1620.3242 L 486.48828 1626.4258 L 486.6543 1626.5645 L 486.82227 1626.6992 L 494.24414 1632.7051 L 494.41211 1632.8398 L 494.58203 1632.9746 L 502.07031 1638.8828 L 502.23828 1639.0156 L 502.41016 1639.1465 L 509.96484 1644.957 L 510.13477 1645.0879 L 510.30664 1645.2168 L 517.92578 1650.9297 L 518.09766 1651.0586 L 518.27148 1651.1855 L 525.95508 1656.8008 L 526.12891 1656.9277 L 526.30469 1657.0527 L 534.05078 1662.5684 L 534.22656 1662.6934 L 534.40234 1662.8145 L 542.21094 1668.2324 L 542.38672 1668.3535 L 542.56445 1668.4746 L 544.76172 1669.959 L 552.28906 1673.8125 L 560.52148 1675.748 L 568.97852 1675.6523 L 577.16602 1673.5312 L 584.60352 1669.5078 L 590.86133 1663.8184 L 595.57031 1656.793 L 598.45703 1648.8438 L 599.35352 1640.4355 L 598.20508 1632.0566 L 595.08203 1624.1973 L 590.16406 1617.3164 L 583.95312 1611.959 L 581.92383 1610.5879 L 574.45898 1605.4082 L 567.0957 1600.166 L 559.74805 1594.7969 L 552.46094 1589.332 L 545.21289 1583.7578 L 538.13086 1578.1699 L 531.03125 1572.4258 L 523.98438 1566.5781 L 516.94336 1560.5879 L 516.87891 1560.5332 L 510.12109 1554.6367 L 503.29102 1548.5273 L 496.60547 1542.3965 L 489.91211 1536.1055 L 483.29102 1529.7285 L 476.74219 1523.2598 L 470.34961 1516.7871 L 463.89062 1510.0859 L 457.67773 1503.4766 L 451.32812 1496.5469 L 451.29102 1496.5078 L 445.36719 1489.8828 L 439.27148 1482.8926 L 433.41016 1476.0039 L 427.57617 1468.9707 L 421.82031 1461.8555 L 416.16797 1454.6914 L 410.60938 1447.4648 L 405.20508 1440.2559 L 399.89062 1432.9824 L 394.61133 1425.5703 L 389.52734 1418.2441 L 389.48438 1418.1797 L 384.32617 1410.5488 L 379.31445 1402.9297 L 374.42383 1395.2949 L 369.67188 1387.6719 L 365.01562 1379.9961 L 360.34375 1372.0781 L 355.88086 1364.2988 L 351.44727 1356.3457 L 347.21289 1348.5254 L 342.96875 1340.459 L 338.83203 1332.3535 L 334.88867 1324.3867 L 330.91797 1316.1172 L 327.91211 1309.6523 L 323.44531 1302.4707 L 317.38477 1296.5703 L 310.08789 1292.2969 L 301.97852 1289.8965 L 293.5293 1289.5137 z M 1362.377 1649.9199 L 1353.9902 1651 L 1346.332 1653.9414 L 1340.4004 1657.0605 L 1332.418 1661.1348 L 1324.1934 1665.207 L 1324.1367 1665.2344 L 1316.3828 1668.957 L 1316.3066 1668.9922 L 1308.0508 1672.834 L 1299.7539 1676.5703 L 1291.4844 1680.1738 L 1283.2305 1683.6523 L 1274.7969 1687.0859 L 1266.4648 1690.3594 L 1257.9512 1693.5859 L 1249.5391 1696.6582 L 1240.9961 1699.6582 L 1232.457 1702.541 L 1224.0469 1705.2695 L 1223.9805 1705.291 L 1215.2812 1707.9961 L 1206.5508 1710.5918 L 1197.7773 1713.082 L 1189.1641 1715.416 L 1180.332 1717.6934 L 1171.6172 1719.8281 L 1162.877 1721.8555 L 1153.957 1723.8105 L 1145.0137 1725.6562 L 1136.2246 1727.3555 L 1127.2266 1728.9844 L 1118.2344 1730.498 L 1109.3438 1731.8809 L 1100.3027 1733.1738 L 1091.2207 1734.3594 L 1082.1328 1735.4316 L 1073.166 1736.377 L 1064.0391 1737.2266 L 1055.0371 1737.9531 L 1045.877 1738.5781 L 1036.6992 1739.0918 L 1027.6582 1739.4844 L 1018.4492 1739.7695 L 1009.2285 1739.9434 L 1000 1740 L 990.77148 1739.9434 L 981.55078 1739.7695 L 972.3418 1739.4844 L 963.30078 1739.0918 L 959.33398 1738.8691 L 950.89453 1739.4219 L 942.83594 1741.9824 L 935.625 1746.4004 L 929.68359 1752.4199 L 925.36133 1759.6895 L 922.9082 1767.7832 L 922.4668 1776.2285 L 924.06641 1784.5332 L 927.60938 1792.2109 L 932.89062 1798.8164 L 939.60352 1803.9609 L 947.35352 1807.3457 L 955.43359 1808.7598 L 959.61914 1808.9941 L 959.83594 1809.0059 L 960.05273 1809.0156 L 969.63672 1809.4316 L 969.85352 1809.4414 L 970.07031 1809.4473 L 979.67188 1809.7461 L 979.88867 1809.752 L 980.10547 1809.7559 L 989.7207 1809.9355 L 989.9375 1809.9395 L 990.1543 1809.9395 L 999.7832 1810 L 1000 1810.002 L 1000.2168 1810 L 1009.8457 1809.9395 L 1010.0625 1809.9395 L 1010.2793 1809.9355 L 1019.8945 1809.7559 L 1020.1113 1809.752 L 1020.3281 1809.7461 L 1029.9297 1809.4473 L 1030.1465 1809.4414 L 1030.3633 1809.4316 L 1039.9473 1809.0156 L 1040.1641 1809.0059 L 1040.3809 1808.9941 L 1049.9492 1808.459 L 1050.166 1808.4473 L 1050.3809 1808.4336 L 1059.9336 1807.7812 L 1060.1484 1807.7676 L 1060.3652 1807.75 L 1069.8984 1806.9805 L 1070.1133 1806.9629 L 1070.3281 1806.9434 L 1079.8418 1806.0586 L 1080.0566 1806.0371 L 1080.2715 1806.0156 L 1089.7656 1805.0137 L 1089.9805 1804.9902 L 1090.1953 1804.9648 L 1099.668 1803.8477 L 1099.8809 1803.8223 L 1100.0957 1803.7949 L 1109.5449 1802.5625 L 1109.7598 1802.5332 L 1109.9727 1802.5039 L 1119.3984 1801.1543 L 1119.6113 1801.125 L 1119.8242 1801.0918 L 1129.2285 1799.6289 L 1129.4395 1799.5957 L 1129.6523 1799.5605 L 1139.0293 1797.9824 L 1139.2422 1797.9473 L 1139.4531 1797.9082 L 1148.8047 1796.2168 L 1149.0156 1796.1797 L 1149.2266 1796.1387 L 1158.5508 1794.334 L 1158.7617 1794.293 L 1158.9707 1794.25 L 1168.2676 1792.332 L 1168.4785 1792.2871 L 1168.6875 1792.2441 L 1177.9551 1790.2129 L 1178.1641 1790.168 L 1178.373 1790.1191 L 1187.6094 1787.9766 L 1187.8184 1787.9277 L 1188.0254 1787.877 L 1197.2305 1785.623 L 1197.4395 1785.5723 L 1197.6465 1785.5195 L 1206.8203 1783.1543 L 1207.0273 1783.0996 L 1207.2324 1783.0449 L 1216.373 1780.5684 L 1216.5801 1780.5117 L 1216.7852 1780.4531 L 1225.8906 1777.8652 L 1226.0977 1777.8086 L 1226.3027 1777.7461 L 1235.373 1775.0488 L 1235.5781 1774.9883 L 1235.7812 1774.9258 L 1244.8164 1772.1191 L 1245.0195 1772.0547 L 1245.2227 1771.9883 L 1254.2207 1769.0723 L 1254.4238 1769.0078 L 1254.627 1768.9395 L 1263.5859 1765.9141 L 1263.7891 1765.8457 L 1263.9902 1765.7754 L 1272.9102 1762.6406 L 1273.1113 1762.5703 L 1273.3125 1762.4961 L 1282.1914 1759.2559 L 1282.3926 1759.1816 L 1282.5918 1759.1055 L 1291.4316 1755.7559 L 1291.6309 1755.6816 L 1291.8301 1755.6035 L 1300.627 1752.1465 L 1300.8242 1752.0684 L 1301.0215 1751.9883 L 1309.7754 1748.4238 L 1309.9746 1748.3438 L 1310.1699 1748.2617 L 1318.8809 1744.5918 L 1319.0762 1744.5078 L 1319.2715 1744.4238 L 1327.9375 1740.6465 L 1328.1328 1740.5605 L 1328.3281 1740.4746 L 1336.9453 1736.5918 L 1337.1406 1736.5039 L 1337.334 1736.4141 L 1345.9062 1732.4277 L 1346.0996 1732.3379 L 1346.291 1732.2461 L 1354.8145 1728.1543 L 1355.0078 1728.0605 L 1355.1992 1727.9668 L 1363.6738 1723.7695 L 1363.8652 1723.6758 L 1364.0547 1723.5781 L 1372.4785 1719.2773 L 1372.6699 1719.1816 L 1372.8574 1719.082 L 1378.9141 1715.8965 L 1385.8691 1711.084 L 1391.4668 1704.7441 L 1395.3809 1697.248 L 1397.3809 1689.0312 L 1397.3516 1680.5742 L 1395.2969 1672.3711 L 1391.332 1664.9004 L 1385.6914 1658.5977 L 1378.7051 1653.832 L 1370.7793 1650.8828 L 1362.377 1649.9199 z M 1609.7129 1700.8027 L 1601.293 1701.6016 L 1593.3105 1704.3945 L 1586.4258 1708.8574 L 1583.0449 1711.6621 L 1574.3008 1718.7383 L 1565.4004 1725.7617 L 1556.3223 1732.7422 L 1547.3438 1739.4746 L 1538.2109 1746.1484 L 1529.0762 1752.6523 L 1519.7656 1759.1133 L 1510.4141 1765.4297 L 1500.9531 1771.6562 L 1491.459 1777.7363 L 1481.9688 1783.6523 L 1472.2949 1789.5195 L 1462.6699 1795.1992 L 1452.9785 1800.7598 L 1443.1035 1806.2637 L 1433.2168 1811.6172 L 1423.2734 1816.8496 L 1413.2754 1821.9512 L 1403.0859 1826.9961 L 1403.0273 1827.0254 L 1393.0293 1831.8223 L 1382.9746 1836.498 L 1372.6699 1841.1406 L 1362.3887 1845.6211 L 1352.1133 1849.9512 L 1341.6484 1854.209 L 1331.1328 1858.3418 L 1320.707 1862.293 L 1310.2305 1866.1152 L 1299.5664 1869.8633 L 1289.0449 1873.416 L 1278.2891 1876.9023 L 1267.6348 1880.2129 L 1256.791 1883.4375 L 1245.9082 1886.5293 L 1235.1719 1889.4375 L 1228.8398 1891.0703 L 1220.9668 1894.1562 L 1214.0625 1899.041 L 1208.5312 1905.4375 L 1204.6973 1912.9746 L 1202.7812 1921.2129 L 1202.8984 1929.6699 L 1205.0391 1937.8516 L 1209.0801 1945.2793 L 1214.7871 1951.5215 L 1221.8223 1956.2148 L 1229.7793 1959.082 L 1238.1914 1959.957 L 1246.3203 1958.8535 L 1252.8262 1957.1758 L 1253.0332 1957.1191 L 1253.2383 1957.0645 L 1264.502 1954.0117 L 1264.709 1953.957 L 1264.9141 1953.8984 L 1276.1348 1950.7109 L 1276.3398 1950.6523 L 1276.5449 1950.5898 L 1287.7227 1947.2676 L 1287.9277 1947.207 L 1288.1328 1947.1426 L 1299.2656 1943.6836 L 1299.4688 1943.6211 L 1299.6719 1943.5547 L 1310.7598 1939.9609 L 1310.9629 1939.8945 L 1311.1641 1939.8262 L 1322.2051 1936.0996 L 1322.4082 1936.0312 L 1322.6094 1935.9609 L 1333.6016 1932.0977 L 1333.8027 1932.0273 L 1334.0039 1931.9551 L 1344.9453 1927.959 L 1345.1465 1927.8867 L 1345.3457 1927.8105 L 1356.2383 1923.6836 L 1356.4375 1923.6074 L 1356.6367 1923.5293 L 1367.4766 1919.2695 L 1367.6738 1919.1934 L 1367.873 1919.1113 L 1378.6602 1914.7207 L 1378.8574 1914.6406 L 1379.0527 1914.5566 L 1389.7871 1910.0352 L 1389.9824 1909.9512 L 1390.1777 1909.8672 L 1400.8555 1905.2129 L 1401.0508 1905.1289 L 1401.2461 1905.041 L 1411.8652 1900.2578 L 1412.0605 1900.1699 L 1412.2539 1900.0801 L 1422.8164 1895.166 L 1423.0098 1895.0762 L 1423.2031 1894.9844 L 1433.7051 1889.9434 L 1433.8984 1889.8496 L 1434.0898 1889.7559 L 1444.5312 1884.584 L 1444.7227 1884.4902 L 1444.9141 1884.3926 L 1455.2949 1879.0938 L 1455.4844 1878.9961 L 1455.6738 1878.8965 L 1465.9922 1873.4707 L 1466.1816 1873.3711 L 1466.3691 1873.2695 L 1476.623 1867.7168 L 1476.8105 1867.6133 L 1476.998 1867.5098 L 1487.1855 1861.8301 L 1487.373 1861.7266 L 1487.5586 1861.6191 L 1497.6797 1855.8125 L 1497.8652 1855.707 L 1498.0508 1855.5977 L 1508.1055 1849.666 L 1508.2891 1849.5566 L 1508.4727 1849.4453 L 1518.457 1843.3887 L 1518.6406 1843.2773 L 1518.8223 1843.1641 L 1528.7363 1836.9824 L 1528.918 1836.8691 L 1529.0996 1836.7539 L 1538.9434 1830.4492 L 1539.123 1830.332 L 1539.3027 1830.2148 L 1549.0742 1823.7852 L 1549.252 1823.668 L 1549.4297 1823.5469 L 1559.127 1816.9961 L 1559.3047 1816.875 L 1559.4805 1816.7539 L 1569.1035 1810.0781 L 1569.2793 1809.9551 L 1569.4551 1809.8301 L 1579 1803.0332 L 1579.1758 1802.9102 L 1579.3496 1802.7832 L 1588.8164 1795.8633 L 1588.9902 1795.7363 L 1589.1621 1795.6074 L 1598.5527 1788.5684 L 1598.7246 1788.4395 L 1598.8945 1788.3086 L 1608.2031 1781.1484 L 1608.375 1781.0176 L 1608.543 1780.8828 L 1617.7715 1773.6035 L 1617.9414 1773.4688 L 1618.1074 1773.334 L 1627.2539 1765.9336 L 1627.4219 1765.7988 L 1627.5879 1765.6602 L 1631.125 1762.7266 L 1636.9336 1756.5801 L 1641.0977 1749.2188 L 1643.375 1741.0742 L 1643.6309 1732.6211 L 1641.8535 1724.3535 L 1638.1445 1716.752 L 1632.7207 1710.2637 L 1625.8984 1705.2656 L 1618.0781 1702.0488 L 1609.7129 1700.8027 z M 435.44727 1737.8516 L 427.18945 1739.668 L 419.60742 1743.4141 L 413.14453 1748.8711 L 408.17969 1755.7168 L 405.00195 1763.5547 L 403.79688 1771.9258 L 404.63477 1780.3398 L 407.4668 1788.3086 L 412.12891 1795.3652 L 418.13867 1800.9492 L 420.65039 1802.7852 L 420.82422 1802.9121 L 421 1803.0352 L 430.54492 1809.832 L 430.7207 1809.957 L 430.89648 1810.0801 L 440.51953 1816.7559 L 440.69531 1816.877 L 440.87305 1816.998 L 450.57031 1823.5488 L 450.74805 1823.6699 L 450.92578 1823.7871 L 460.69727 1830.2168 L 460.87695 1830.334 L 461.05664 1830.4512 L 470.90039 1836.7559 L 471.08203 1836.8711 L 471.26367 1836.9844 L 481.17773 1843.166 L 481.35938 1843.2793 L 481.54297 1843.3906 L 491.52734 1849.4473 L 491.71094 1849.5586 L 491.89453 1849.668 L 501.94922 1855.5996 L 502.13477 1855.709 L 502.32031 1855.8145 L 512.44141 1861.6211 L 512.62695 1861.7285 L 512.81445 1861.832 L 523.00195 1867.5117 L 523.18945 1867.6152 L 523.37695 1867.7188 L 533.63086 1873.2715 L 533.81836 1873.373 L 534.00781 1873.4727 L 544.32617 1878.8984 L 544.51562 1878.998 L 544.70508 1879.0957 L 555.08594 1884.3945 L 555.27734 1884.4922 L 555.46875 1884.5859 L 565.91016 1889.7578 L 566.10156 1889.8516 L 566.29492 1889.9453 L 576.79688 1894.9863 L 576.99023 1895.0781 L 577.18359 1895.168 L 587.74609 1900.082 L 587.93945 1900.1719 L 588.13477 1900.2598 L 598.75391 1905.043 L 598.94922 1905.1309 L 599.14453 1905.2148 L 609.82227 1909.8691 L 610.01758 1909.9531 L 610.21289 1910.0371 L 620.94727 1914.5586 L 621.14258 1914.6426 L 621.33984 1914.7227 L 632.12695 1919.1133 L 632.32617 1919.1953 L 632.52344 1919.2715 L 643.36328 1923.5312 L 643.5625 1923.6094 L 643.76172 1923.6855 L 654.6543 1927.8125 L 654.85352 1927.8887 L 655.05469 1927.9609 L 665.99609 1931.957 L 666.19727 1932.0293 L 666.39844 1932.0996 L 677.39062 1935.9629 L 677.5918 1936.0332 L 677.79492 1936.1016 L 688.83594 1939.8281 L 689.03711 1939.8965 L 689.24023 1939.9629 L 700.32812 1943.5566 L 700.53125 1943.623 L 700.73438 1943.6855 L 711.86719 1947.1445 L 712.07227 1947.209 L 712.27734 1947.2695 L 723.45508 1950.5918 L 723.66016 1950.6523 L 723.86523 1950.7129 L 735.08594 1953.9004 L 735.29102 1953.959 L 735.49805 1954.0137 L 746.76172 1957.0664 L 746.9668 1957.1211 L 747.17383 1957.1758 L 758.47852 1960.0898 L 758.68555 1960.1445 L 758.89453 1960.1973 L 770.23828 1962.9746 L 770.44531 1963.0254 L 770.6543 1963.0742 L 782.03711 1965.7129 L 782.24414 1965.7617 L 782.45508 1965.8086 L 793.87305 1968.3086 L 794.08203 1968.3555 L 794.29297 1968.3984 L 805.74805 1970.7617 L 805.95898 1970.8047 L 806.16797 1970.8457 L 814.51758 1972.4609 L 822.95312 1973.0527 L 831.28516 1971.6035 L 839.02734 1968.1992 L 845.72656 1963.0371 L 850.99023 1956.418 L 854.51367 1948.7305 L 856.08984 1940.4219 L 855.62891 1931.9766 L 853.1543 1923.8906 L 848.8125 1916.6328 L 842.85547 1910.6289 L 835.63281 1906.2285 L 827.81836 1903.7363 L 819.67383 1902.1602 L 808.60156 1899.877 L 797.68359 1897.4844 L 786.64648 1894.9238 L 775.64648 1892.2305 L 764.83008 1889.4395 L 754.0918 1886.5312 L 743.20898 1883.4395 L 732.36523 1880.2148 L 721.71094 1876.9043 L 710.95508 1873.418 L 700.43359 1869.8652 L 689.76953 1866.1172 L 679.29297 1862.2949 L 668.86719 1858.3438 L 658.35156 1854.2109 L 647.88672 1849.9531 L 637.61133 1845.623 L 627.33008 1841.1426 L 617.02539 1836.5 L 606.9707 1831.8242 L 596.97266 1827.0273 L 596.91406 1826.998 L 586.72461 1821.9531 L 576.72656 1816.8516 L 566.7832 1811.6191 L 556.89648 1806.2656 L 547.02148 1800.7617 L 537.33008 1795.2012 L 527.70508 1789.5215 L 518.03125 1783.6543 L 508.54102 1777.7383 L 499.04688 1771.6582 L 489.58594 1765.4316 L 480.23438 1759.1152 L 470.92383 1752.6543 L 461.79297 1746.1523 L 459.43945 1744.4316 L 452.05859 1740.3047 L 443.90234 1738.0664 L 435.44727 1737.8516 z "
       transform="translate(0,-947.63784)"
       id="path4136" />
  </g>
</svg>
