<?xml version="1.0" encoding="UTF-8" standalone="no"?>
<!-- Created with Inkscape (http://www.inkscape.org/) -->

<svg
   xmlns:dc="http://purl.org/dc/elements/1.1/"
   xmlns:cc="http://creativecommons.org/ns#"
   xmlns:rdf="http://www.w3.org/1999/02/22-rdf-syntax-ns#"
   xmlns:svg="http://www.w3.org/2000/svg"
   xmlns="http://www.w3.org/2000/svg"
   xmlns:sodipodi="http://sodipodi.sourceforge.net/DTD/sodipodi-0.dtd"
   xmlns:inkscape="http://www.inkscape.org/namespaces/inkscape"
   width="2000"
   height="2000"
   viewBox="0 0 2000 2000"
   id="svg2"
   version="1.1"
   inkscape:version="0.91 r13725"
   sodipodi:docname="11-multiple-intermediate-non-interrupting.svg">
  <defs
     id="defs4" />
  <sodipodi:namedview
     id="base"
     pagecolor="#ffffff"
     bordercolor="#666666"
     borderopacity="1.0"
     inkscape:pageopacity="0.0"
     inkscape:pageshadow="2"
     inkscape:zoom="0.4345"
     inkscape:cx="11.507481"
     inkscape:cy="1000"
     inkscape:document-units="px"
     inkscape:current-layer="layer1"
     showgrid="true"
     units="px"
     showguides="false"
     inkscape:window-width="1878"
     inkscape:window-height="1035"
     inkscape:window-x="42"
     inkscape:window-y="0"
     inkscape:window-maximized="0">
    <inkscape:grid
       type="xygrid"
       id="grid4008"
       empspacing="20"
       dotted="false" />
  </sodipodi:namedview>
  <metadata
     id="metadata7">
    <rdf:RDF>
      <cc:Work
         rdf:about="">
        <dc:format>image/svg+xml</dc:format>
        <dc:type
           rdf:resource="http://purl.org/dc/dcmitype/StillImage" />
        <dc:title />
        <cc:license
           rdf:resource="https://github.com/bpmn-io/bpmn-font/blob/master/LICENSE" />
        <dc:creator>
          <cc:Agent>
            <dc:title>Jörg Dotzki</dc:title>
          </cc:Agent>
        </dc:creator>
        <dc:subject>
          <rdf:Bag>
            <rdf:li>BPMN</rdf:li>
            <rdf:li>bpmn-io</rdf:li>
            <rdf:li>bpmn.io</rdf:li>
            <rdf:li>Font</rdf:li>
          </rdf:Bag>
        </dc:subject>
      </cc:Work>
    </rdf:RDF>
  </metadata>
  <g
     inkscape:label="Ebene 1"
     inkscape:groupmode="layer"
     id="layer1"
     transform="translate(0,947.63784)">
    <path
       style="color:#000000;font-style:normal;font-variant:normal;font-weight:normal;font-stretch:normal;font-size:medium;line-height:normal;font-family:sans-serif;text-indent:0;text-align:start;text-decoration:none;text-decoration-line:none;text-decoration-style:solid;text-decoration-color:#000000;letter-spacing:normal;word-spacing:normal;text-transform:none;direction:ltr;block-progression:tb;writing-mode:lr-tb;baseline-shift:baseline;text-anchor:start;white-space:normal;clip-rule:nonzero;display:inline;overflow:visible;visibility:visible;opacity:1;isolation:auto;mix-blend-mode:normal;color-interpolation:sRGB;color-interpolation-filters:linearRGB;solid-color:#000000;solid-opacity:1;fill:#000000;fill-opacity:1;fill-rule:nonzero;stroke:none;stroke-width:11.30854797;stroke-linecap:round;stroke-linejoin:miter;stroke-miterlimit:4;stroke-dasharray:none;stroke-dashoffset:0;stroke-opacity:1;color-rendering:auto;image-rendering:auto;shape-rendering:auto;text-rendering:auto;enable-background:accumulate"
       d="M 999.93945 10.001953 L 987.76172 10.076172 L 987.63867 10.078125 L 975.48047 10.304688 L 975.35547 10.306641 L 963.21484 10.683594 L 963.0918 10.689453 L 950.9707 11.214844 L 950.84766 11.220703 L 938.74609 11.896484 L 938.62305 11.904297 L 926.54492 12.728516 L 926.42188 12.736328 L 914.36719 13.708984 L 914.24414 13.71875 L 902.21289 14.839844 L 902.08984 14.851562 L 890.08398 16.119141 L 889.96094 16.132812 L 880.99219 17.189453 L 876.21289 19.085938 L 873.00586 23.105469 L 872.2207 28.185547 L 874.06445 32.986328 L 878.04883 36.234375 L 883.12109 37.076172 L 883.33594 37.052734 L 892.18359 36.007812 L 892.23438 36.001953 L 892.30469 35.994141 L 904.06641 34.753906 L 915.97461 33.644531 L 927.90625 32.681641 L 927.91992 32.681641 L 939.86133 31.865234 L 939.9082 31.863281 L 939.98438 31.857422 L 951.83789 31.195312 L 951.91797 31.191406 L 951.96094 31.189453 L 963.95117 30.669922 L 963.95898 30.669922 L 975.97656 30.298828 L 987.88672 30.076172 L 987.91406 30.076172 L 999.9375 30 L 1000 30 L 1000.0625 30 L 1012.0859 30.076172 L 1012.1133 30.076172 L 1024.0234 30.298828 L 1036.041 30.669922 L 1036.0508 30.669922 L 1048.041 31.189453 L 1048.084 31.191406 L 1048.1641 31.195312 L 1060.0176 31.857422 L 1060.0938 31.863281 L 1060.1406 31.865234 L 1072.082 32.681641 L 1072.0957 32.681641 L 1084.0273 33.644531 L 1095.9355 34.753906 L 1107.6973 35.994141 L 1107.7676 36.001953 L 1107.8184 36.007812 L 1119.6426 37.404297 L 1119.6758 37.408203 L 1131.3809 38.935547 L 1143.3027 40.640625 L 1154.9492 42.453125 L 1154.9785 42.458984 L 1166.6875 44.425781 L 1166.7754 44.441406 L 1166.8086 44.447266 L 1178.5137 46.564453 L 1178.9375 46.646484 L 1184.0684 46.292969 L 1188.3438 43.4375 L 1190.6348 38.835938 L 1190.3379 33.701172 L 1187.5273 29.396484 L 1182.9492 27.054688 L 1182.7383 27.011719 L 1182.1934 26.90625 L 1182.0723 26.882812 L 1170.2461 24.744141 L 1170.125 24.722656 L 1158.2676 22.728516 L 1158.1465 22.708984 L 1146.2559 20.859375 L 1146.1348 20.841797 L 1134.2129 19.136719 L 1134.0918 19.119141 L 1122.1406 17.560547 L 1122.0195 17.544922 L 1110.041 16.132812 L 1109.918 16.119141 L 1097.9121 14.851562 L 1097.7891 14.839844 L 1085.7578 13.71875 L 1085.6348 13.708984 L 1073.5801 12.736328 L 1073.457 12.728516 L 1061.3789 11.904297 L 1061.2559 11.896484 L 1049.1543 11.220703 L 1049.0312 11.214844 L 1036.9102 10.689453 L 1036.7871 10.683594 L 1024.6465 10.306641 L 1024.5215 10.304688 L 1012.3633 10.078125 L 1012.2402 10.076172 L 1000.0645 10.001953 L 999.93945 10.001953 z M 718.50977 52.371094 L 713.36914 52.410156 L 713.16016 52.470703 L 712.13086 52.775391 L 712.01367 52.8125 L 700.58984 56.361328 L 700.47461 56.398438 L 689.0957 60.085938 L 688.98047 60.125 L 677.65039 63.949219 L 677.53516 63.990234 L 666.25586 67.951172 L 666.14062 67.992188 L 654.91211 72.091797 L 654.79688 72.134766 L 643.62109 76.371094 L 643.50586 76.414062 L 632.38281 80.785156 L 632.26953 80.830078 L 621.19922 85.337891 L 621.08789 85.382812 L 610.07422 90.025391 L 609.96094 90.072266 L 599.00391 94.847656 L 598.89258 94.896484 L 587.99414 99.804688 L 587.88477 99.855469 L 577.04492 104.89844 L 576.93555 104.94922 L 566.15625 110.12305 L 566.04688 110.17773 L 555.33008 115.48438 L 555.22266 115.53906 L 544.56836 120.97656 L 544.46094 121.03125 L 533.87305 126.60156 L 533.76562 126.6582 L 523.24219 132.35742 L 523.13477 132.41602 L 512.67969 138.24414 L 512.57422 138.30469 L 502.1875 144.26367 L 502.08008 144.32422 L 491.76367 150.41211 L 491.6582 150.47461 L 481.41211 156.69141 L 481.30859 156.75391 L 471.13281 163.09766 L 471.0293 163.16406 L 460.92773 169.63477 L 460.82617 169.70117 L 450.79883 176.29883 L 450.69727 176.36719 L 440.94727 182.95508 L 437.57031 186.83203 L 436.56641 191.875 L 438.20117 196.75 L 442.04102 200.16797 L 447.07227 201.22656 L 451.96484 199.64453 L 452.14453 199.52539 L 461.79297 193.00586 L 461.80859 192.99609 L 461.89453 192.9375 L 471.7168 186.47461 L 471.74219 186.45898 L 471.81836 186.4082 L 481.71484 180.07031 L 491.78516 173.79102 L 491.79102 173.78711 L 501.92578 167.63672 L 502.01367 167.58398 L 502.03125 167.57227 L 512.24023 161.55078 L 512.24414 161.54883 L 522.52539 155.65234 L 532.76758 149.94141 L 532.84961 149.89648 L 532.875 149.88281 L 543.18164 144.30078 L 553.66211 138.78711 L 564.20508 133.4043 L 564.2793 133.36719 L 564.31445 133.34961 L 574.8125 128.15234 L 585.58984 122.97852 L 596.20898 118.03906 L 596.21484 118.03711 L 607.10742 113.13086 L 617.83984 108.45312 L 628.74023 103.85938 L 628.80078 103.83594 L 628.85352 103.8125 L 639.69727 99.398438 L 639.78125 99.365234 L 639.81055 99.353516 L 650.81641 95.029297 L 650.82031 95.027344 L 661.88477 90.835938 L 672.88477 86.820312 L 672.96094 86.792969 L 673 86.779297 L 684.15234 82.861328 L 684.16406 82.857422 L 695.26172 79.109375 L 695.29883 79.097656 L 695.37891 79.070312 L 706.52344 75.458984 L 706.58789 75.439453 L 706.64062 75.421875 L 717.83203 71.945312 L 717.92969 71.916016 L 717.94922 71.910156 L 718.86133 71.638672 L 723.24805 68.955078 L 725.7207 64.447266 L 725.62695 59.306641 L 722.99023 54.892578 L 718.50977 52.371094 z M 1342.7871 72.634766 L 1338.0918 74.720703 L 1335.0508 78.865234 L 1334.4707 83.974609 L 1336.5059 88.697266 L 1340.6172 91.783203 L 1340.8184 91.861328 L 1349.1797 95.029297 L 1349.1797 95.03125 L 1360.1855 99.355469 L 1360.2148 99.367188 L 1360.2988 99.400391 L 1371.1426 103.81445 L 1371.1953 103.83789 L 1371.2559 103.86133 L 1382.1562 108.45508 L 1392.8887 113.13281 L 1403.7812 118.03906 L 1403.791 118.04102 L 1414.4102 122.98047 L 1425.1875 128.1543 L 1435.6855 133.35156 L 1435.7207 133.36914 L 1435.7949 133.40625 L 1446.3379 138.78906 L 1456.8184 144.30273 L 1467.125 149.88477 L 1467.1504 149.89844 L 1467.2324 149.94336 L 1477.4746 155.6543 L 1487.7559 161.55078 L 1487.7559 161.55273 L 1497.9648 167.57422 L 1497.9824 167.58398 L 1498.0703 167.63672 L 1508.2051 173.78711 L 1508.2148 173.79102 L 1518.2852 180.07031 L 1528.1816 186.4082 L 1528.2578 186.45898 L 1528.2832 186.47461 L 1538.1055 192.9375 L 1538.1914 192.99609 L 1538.207 193.00586 L 1548.0488 199.65625 L 1548.0586 199.66211 L 1557.8281 206.44141 L 1557.8281 206.44336 L 1567.4219 213.27539 L 1567.4941 213.32812 L 1567.5215 213.34766 L 1577.0391 220.30078 L 1577.1133 220.35742 L 1577.1367 220.375 L 1586.5742 227.45117 L 1586.627 227.49023 L 1586.6738 227.52539 L 1596.1289 234.79883 L 1598.6582 236.79297 L 1603.377 238.83398 L 1608.4863 238.25781 L 1612.6348 235.2207 L 1614.7246 230.52344 L 1614.2051 225.4082 L 1611.2129 221.22656 L 1611.0449 221.0918 L 1608.4199 219.02148 L 1608.3203 218.94531 L 1598.7676 211.59766 L 1598.6699 211.52344 L 1589.0352 204.29883 L 1588.9355 204.22656 L 1579.2207 197.12695 L 1579.1211 197.05469 L 1569.3262 190.08008 L 1569.2246 190.00977 L 1559.3516 183.16016 L 1559.25 183.08984 L 1549.2988 176.36719 L 1549.1973 176.29883 L 1539.1699 169.70117 L 1539.0684 169.63477 L 1528.9668 163.16406 L 1528.8633 163.09766 L 1518.6875 156.75391 L 1518.584 156.69141 L 1508.3379 150.47461 L 1508.2324 150.41211 L 1497.916 144.32422 L 1497.8086 144.26367 L 1487.4219 138.30469 L 1487.3164 138.24414 L 1476.8613 132.41602 L 1476.7539 132.35742 L 1466.2305 126.6582 L 1466.123 126.60156 L 1455.5352 121.03125 L 1455.4277 120.97656 L 1444.7734 115.53906 L 1444.666 115.48438 L 1433.9492 110.17773 L 1433.8398 110.12305 L 1423.0605 104.94922 L 1422.9512 104.89844 L 1412.1113 99.855469 L 1412.002 99.804688 L 1401.1035 94.896484 L 1400.9922 94.847656 L 1390.0352 90.072266 L 1389.9219 90.025391 L 1378.9082 85.382812 L 1378.7969 85.337891 L 1367.7266 80.830078 L 1367.6133 80.785156 L 1356.4902 76.414062 L 1356.375 76.371094 L 1347.9023 73.160156 L 1342.7871 72.634766 z M 1072.3262 153.08984 L 1067.2676 154.00586 L 1063.334 157.31641 L 1061.5645 162.14453 L 1062.4277 167.21289 L 1065.6953 171.18164 L 1070.5039 173.00391 L 1070.7188 173.02344 L 1071.7852 173.10938 L 1081.9746 174.05664 L 1081.9961 174.05859 L 1092.1426 175.12891 L 1092.1973 175.13477 L 1092.2656 175.14258 L 1102.377 176.33594 L 1102.4102 176.33984 L 1112.4082 177.64453 L 1122.5059 179.08789 L 1122.5273 179.0918 L 1132.5762 180.6543 L 1132.6309 180.66406 L 1132.6973 180.67383 L 1142.6191 182.3418 L 1142.707 182.35742 L 1142.7402 182.36328 L 1152.7559 184.17578 L 1162.6211 186.08398 L 1162.6523 186.08984 L 1162.7402 186.10742 L 1172.5762 188.13672 L 1172.6094 188.14453 L 1172.6973 188.16211 L 1182.5977 190.33203 L 1182.6211 190.33789 L 1192.5137 192.63281 L 1202.2539 195.01758 L 1202.2988 195.0293 L 1202.3691 195.04688 L 1212.0762 197.55078 L 1212.1543 197.57227 L 1212.1934 197.58398 L 1221.9746 200.23438 L 1221.9844 200.23633 L 1231.6191 202.97461 L 1241.334 205.86133 L 1241.3574 205.86914 L 1241.4512 205.89648 L 1251.1094 208.89844 L 1251.1289 208.9043 L 1260.6484 211.99023 L 1270.3594 215.26953 L 1279.7988 218.58398 L 1279.8379 218.59766 L 1279.9121 218.625 L 1289.3066 222.05469 L 1289.373 222.08008 L 1289.4238 222.09766 L 1298.7754 225.64258 L 1298.7754 225.64453 L 1308.1953 229.34375 L 1308.2246 229.35547 L 1308.3086 229.38867 L 1317.5703 233.1582 L 1317.5703 233.16016 L 1326.8984 237.08984 L 1336.1797 241.13281 L 1336.2012 241.14258 L 1336.291 241.18164 L 1345.4102 245.28906 L 1345.4531 245.30859 L 1345.5215 245.33984 L 1354.5898 249.55859 L 1354.6523 249.58984 L 1354.7012 249.61133 L 1355.2773 249.88867 L 1360.3301 250.84766 L 1365.1895 249.16992 L 1368.5742 245.29883 L 1369.5879 240.25781 L 1367.9609 235.37891 L 1364.127 231.95508 L 1363.9336 231.85938 L 1363.2461 231.5293 L 1363.1348 231.47656 L 1353.8457 227.1543 L 1353.7344 227.10352 L 1344.3926 222.89648 L 1344.2812 222.84766 L 1334.8887 218.75391 L 1334.7773 218.70703 L 1325.3379 214.72852 L 1325.2246 214.68164 L 1315.7363 210.82031 L 1315.623 210.77344 L 1306.0879 207.02734 L 1305.9746 206.98438 L 1296.3945 203.35352 L 1296.2793 203.31055 L 1286.6543 199.79688 L 1286.541 199.75586 L 1276.8711 196.35938 L 1276.7559 196.32031 L 1267.0449 193.04102 L 1266.9297 193.00195 L 1257.1777 189.8418 L 1257.0605 189.80469 L 1247.2676 186.76172 L 1247.1523 186.72656 L 1237.3203 183.80273 L 1237.2031 183.76953 L 1227.332 180.96484 L 1227.2148 180.93164 L 1217.3086 178.24805 L 1217.1895 178.2168 L 1207.248 175.65234 L 1207.1289 175.62305 L 1197.1504 173.17969 L 1197.0312 173.15234 L 1187.0215 170.83008 L 1186.9004 170.80273 L 1176.8574 168.60156 L 1176.7363 168.57617 L 1166.6621 166.49805 L 1166.541 166.47461 L 1156.4355 164.51953 L 1156.3145 164.49609 L 1146.1777 162.66406 L 1146.0566 162.64258 L 1135.8926 160.93164 L 1135.7715 160.91211 L 1125.5801 159.32812 L 1125.459 159.30859 L 1115.2402 157.84766 L 1115.1191 157.83203 L 1104.875 156.49414 L 1104.7539 156.47852 L 1094.4863 155.26758 L 1094.3633 155.25391 L 1084.0723 154.16797 L 1083.9512 154.15625 L 1073.6387 153.19727 L 1073.5156 153.18555 L 1072.3262 153.08984 z M 900.87891 155.81055 L 900.66406 155.83789 L 895.24609 156.47656 L 895.125 156.49219 L 884.88086 157.83008 L 884.75977 157.8457 L 874.54102 159.30664 L 874.41992 159.32617 L 864.22852 160.91016 L 864.10742 160.92969 L 853.94336 162.64062 L 853.82227 162.66211 L 843.68555 164.49414 L 843.56445 164.51562 L 833.45898 166.4707 L 833.33789 166.49414 L 823.26367 168.57227 L 823.14258 168.59766 L 813.09961 170.79883 L 812.97852 170.82617 L 802.96875 173.14844 L 802.84961 173.17578 L 792.87109 175.61914 L 792.75195 175.64844 L 782.81055 178.21289 L 782.69141 178.24414 L 772.78516 180.92773 L 772.66797 180.96094 L 762.79688 183.76562 L 762.67969 183.79883 L 752.84766 186.72266 L 752.73242 186.75781 L 742.93945 189.80078 L 742.82227 189.83789 L 733.07031 192.99805 L 732.95508 193.03711 L 723.24414 196.31641 L 723.12891 196.35547 L 713.45898 199.75195 L 713.3457 199.79297 L 703.7207 203.30664 L 703.60547 203.34961 L 694.02539 206.98047 L 693.91211 207.02344 L 684.37695 210.76953 L 684.26367 210.81641 L 674.77539 214.67773 L 674.66211 214.72461 L 665.22266 218.70312 L 665.11133 218.75 L 655.71875 222.84375 L 655.60742 222.89258 L 646.26562 227.09961 L 646.1543 227.15039 L 636.86523 231.47266 L 636.75391 231.52539 L 627.51562 235.95898 L 627.40625 236.01367 L 618.2207 240.56055 L 618.11133 240.61523 L 611.83594 243.82031 L 608.01172 247.25586 L 606.39844 252.13867 L 607.42578 257.17578 L 610.82227 261.03711 L 615.68555 262.70117 L 620.73438 261.72852 L 620.92773 261.63281 L 627.0957 258.48438 L 627.16992 258.44727 L 627.20508 258.42969 L 636.17188 253.99023 L 645.29883 249.60742 L 645.34766 249.58594 L 645.41016 249.55469 L 654.47852 245.33594 L 654.54688 245.30664 L 654.58984 245.28711 L 663.70898 241.17969 L 663.79883 241.14062 L 663.82031 241.12891 L 673.10156 237.08594 L 682.42969 233.15625 L 682.42969 233.1543 L 691.69141 229.38477 L 691.77539 229.35156 L 691.80469 229.33984 L 701.22461 225.64062 L 701.22656 225.63867 L 710.57812 222.09375 L 710.62891 222.07617 L 710.69336 222.05078 L 720.08789 218.62109 L 720.16406 218.59375 L 720.20312 218.58008 L 729.64258 215.26562 L 739.35352 211.98633 L 748.87305 208.90039 L 748.89062 208.89453 L 758.54883 205.89258 L 758.64258 205.86523 L 758.66602 205.85742 L 768.38086 202.9707 L 778.01562 200.23242 L 778.02344 200.23047 L 787.80469 197.58008 L 787.84375 197.57031 L 787.92188 197.54883 L 797.62891 195.04492 L 797.70117 195.02734 L 797.74609 195.01562 L 807.48633 192.63086 L 817.37891 190.33594 L 817.40234 190.33008 L 827.30273 188.16016 L 827.39062 188.14258 L 827.42383 188.13477 L 837.25977 186.10547 L 837.34766 186.08789 L 837.37891 186.08203 L 847.24414 184.17383 L 857.25977 182.36133 L 857.29297 182.35547 L 857.38086 182.33984 L 867.30273 180.67188 L 867.36914 180.66211 L 867.42383 180.65234 L 877.47266 179.08984 L 877.49414 179.08398 L 887.5918 177.64062 L 897.58984 176.33594 L 897.62305 176.33203 L 903.00781 175.69727 L 907.78711 173.80078 L 910.99219 169.7832 L 911.7793 164.70117 L 909.93555 159.90039 L 905.95117 156.65234 L 900.87891 155.81055 z M 312.91016 289.1875 L 308.39258 291.64453 L 308.23633 291.79492 L 300.00781 299.92188 L 299.91992 300.00977 L 291.36523 308.67188 L 291.27734 308.75977 L 282.83984 317.51758 L 282.75586 317.60742 L 274.4375 326.45898 L 274.35352 326.54883 L 266.1543 335.49219 L 266.07031 335.58398 L 257.99219 344.61719 L 257.91016 344.71094 L 249.95117 353.83398 L 249.87109 353.92773 L 242.03516 363.13867 L 241.95508 363.23438 L 234.24023 372.5332 L 234.16211 372.62891 L 226.56836 382.01367 L 226.49023 382.10938 L 219.01953 391.57812 L 218.94531 391.67578 L 211.59766 401.22852 L 211.52344 401.32617 L 204.29883 410.96094 L 204.22656 411.06055 L 197.12695 420.77539 L 197.05469 420.875 L 190.08008 430.67188 L 190.00781 430.77148 L 183.1582 440.64648 L 183.08984 440.74609 L 176.36523 450.69727 L 176.29688 450.79883 L 169.69922 460.82617 L 169.63281 460.92969 L 163.16211 471.03125 L 163.09766 471.13477 L 156.75391 481.30859 L 156.68945 481.41211 L 150.47461 491.66016 L 150.41211 491.76367 L 144.32422 502.08203 L 144.26172 502.1875 L 138.30469 512.57422 L 138.24414 512.68164 L 132.41602 523.13672 L 132.35547 523.24414 L 127.01953 533.0957 L 125.81641 538.0957 L 127.25391 543.03125 L 130.95508 546.59961 L 135.94141 547.85742 L 140.89258 546.47266 L 144.50195 542.81055 L 144.60547 542.62109 L 149.88477 532.875 L 149.89844 532.84961 L 149.94336 532.76758 L 155.71289 522.41992 L 161.61133 512.13867 L 167.57422 502.03125 L 167.62695 501.94531 L 167.63672 501.92773 L 173.78516 491.79102 L 173.78906 491.78516 L 180.00391 481.81836 L 186.4082 471.82031 L 186.41211 471.8125 L 192.9375 461.89258 L 192.99609 461.80664 L 193.00586 461.79102 L 199.65625 451.94922 L 199.66211 451.94141 L 206.37109 442.26953 L 206.41797 442.20312 L 206.44141 442.16992 L 213.27344 432.57422 L 213.32617 432.50195 L 213.3457 432.47461 L 220.30078 422.95703 L 220.33594 422.91016 L 220.37305 422.85938 L 227.52539 413.32227 L 234.72266 403.96484 L 242.11523 394.5918 L 242.1582 394.53906 L 242.19336 394.49414 L 249.70898 385.20703 L 257.26758 376.09766 L 265.02344 366.97852 L 265.03711 366.96289 L 265.10352 366.88477 L 272.98047 357.85742 L 272.98242 357.85547 L 280.89648 349.00586 L 289.00977 340.1543 L 289.08203 340.07617 L 289.0957 340.0625 L 297.24414 331.39258 L 305.59375 322.72461 L 305.64844 322.66992 L 305.68164 322.63477 L 314.0625 314.14844 L 314.10742 314.10547 L 314.15039 314.06055 L 322.29102 306.02148 L 324.89648 301.58984 L 324.95703 296.44922 L 322.45312 291.95703 L 318.05078 289.30273 L 312.91016 289.1875 z M 1506.0859 318.72852 L 1500.9863 319.42969 L 1496.9141 322.56836 L 1494.9395 327.31641 L 1495.584 332.41602 L 1498.6797 336.52344 L 1498.8496 336.6543 L 1501.9102 338.94727 L 1501.9629 338.98828 L 1502.0078 339.02148 L 1510.002 345.16992 L 1510.0547 345.21289 L 1510.0996 345.24609 L 1518.0215 351.49609 L 1518.0762 351.53906 L 1518.1211 351.57422 L 1525.9727 357.92773 L 1526.0059 357.95508 L 1526.0664 358.00586 L 1533.9414 364.54102 L 1541.6504 371.09766 L 1541.666 371.11133 L 1541.7441 371.17773 L 1549.377 377.83789 L 1549.3906 377.84766 L 1549.4727 377.91992 L 1557.0312 384.67969 L 1564.6055 391.62305 L 1564.6738 391.68945 L 1564.6953 391.70703 L 1572.1016 398.66602 L 1572.1621 398.72656 L 1572.1895 398.75195 L 1579.5176 405.8125 L 1579.5703 405.86328 L 1579.6055 405.89844 L 1586.8555 413.05859 L 1586.9004 413.10352 L 1586.9434 413.14648 L 1594.1016 420.39453 L 1601.248 427.81055 L 1601.2734 427.83789 L 1601.334 427.90039 L 1608.3789 435.39844 L 1615.2383 442.88086 L 1615.248 442.88867 L 1622.0859 450.53125 L 1622.0859 450.53516 L 1628.8223 458.25781 L 1628.8887 458.33594 L 1628.9023 458.35156 L 1635.5391 466.1543 L 1641.9961 473.93359 L 1642.0488 473.99609 L 1642.0742 474.0293 L 1648.4277 481.88281 L 1648.4766 481.94531 L 1648.5039 481.97852 L 1654.7559 489.90234 L 1654.8047 489.9668 L 1654.8301 489.99805 L 1660.9785 497.99219 L 1661.0137 498.03906 L 1661.0527 498.08984 L 1667.0977 506.15234 L 1667.1348 506.20312 L 1667.1699 506.25 L 1673.1113 514.38086 L 1673.1309 514.4082 L 1673.1836 514.48047 L 1679.0195 522.67578 L 1679.043 522.70898 L 1679.0898 522.77539 L 1684.8203 531.03711 L 1684.8301 531.04492 L 1690.5195 539.46484 L 1690.5293 539.48047 L 1690.5898 539.56641 L 1696.1113 547.95703 L 1696.127 547.98242 L 1696.1777 548.05859 L 1699.2812 552.90625 L 1703.0742 556.37695 L 1708.0898 557.50391 L 1713.0039 555.99023 L 1716.5156 552.23438 L 1717.6973 547.23047 L 1716.2363 542.30078 L 1716.1211 542.11719 L 1712.9512 537.16797 L 1712.8848 537.06641 L 1707.2305 528.4707 L 1707.1621 528.36914 L 1701.3984 519.83984 L 1701.3301 519.73828 L 1695.457 511.27539 L 1695.3887 511.17578 L 1689.4102 502.7793 L 1689.3398 502.67969 L 1683.2539 494.35156 L 1683.1797 494.25391 L 1676.9883 485.99414 L 1676.9141 485.89648 L 1670.6172 477.70898 L 1670.541 477.61133 L 1664.1367 469.49414 L 1664.0605 469.39844 L 1657.5508 461.35352 L 1657.4727 461.25977 L 1650.8594 453.28906 L 1650.7812 453.19336 L 1644.0625 445.29883 L 1643.9844 445.20508 L 1637.1641 437.38477 L 1637.082 437.29102 L 1630.1562 429.54883 L 1630.0742 429.45703 L 1623.0469 421.79102 L 1622.9609 421.70117 L 1615.832 414.11328 L 1615.7441 414.02344 L 1608.5137 406.51758 L 1608.4258 406.42969 L 1601.0918 399.00391 L 1601.0039 398.91602 L 1593.5801 391.58203 L 1593.4902 391.49609 L 1585.9844 384.26367 L 1585.8945 384.17773 L 1578.3086 377.04883 L 1578.2168 376.96484 L 1570.5527 369.9375 L 1570.4609 369.85352 L 1562.7168 362.92969 L 1562.625 362.84766 L 1554.8047 356.02539 L 1554.7109 355.94531 L 1546.8145 349.22852 L 1546.7207 349.14844 L 1538.75 342.53516 L 1538.6543 342.45703 L 1530.6094 335.94922 L 1530.5117 335.87109 L 1522.3945 329.46875 L 1522.2988 329.39258 L 1514.1094 323.09375 L 1514.0117 323.01953 L 1510.8535 320.65234 L 1506.0859 318.72852 z M 1726.8828 335.11328 L 1722.2734 337.39062 L 1719.4043 341.65625 L 1719.0352 346.78516 L 1721.2617 351.41992 L 1721.4043 351.58203 L 1727.0176 357.85742 L 1727.0176 357.86133 L 1734.8926 366.88672 L 1734.959 366.96484 L 1734.9727 366.98047 L 1742.7285 376.09961 L 1750.2871 385.20898 L 1757.8027 394.49609 L 1757.8379 394.54102 L 1757.8809 394.59375 L 1765.2734 403.9668 L 1772.4707 413.32422 L 1779.623 422.86133 L 1779.6602 422.91211 L 1779.6953 422.95898 L 1786.6504 432.47656 L 1786.6699 432.50391 L 1786.7227 432.57617 L 1793.5547 442.17188 L 1793.5781 442.20508 L 1793.625 442.27148 L 1800.334 451.94336 L 1800.3438 451.95117 L 1806.9941 461.79297 L 1807.0039 461.80859 L 1807.0625 461.89453 L 1813.5879 471.81445 L 1813.5879 471.82031 L 1819.9922 481.81836 L 1826.207 491.78516 L 1826.207 491.79102 L 1832.3555 501.92773 L 1832.3652 501.94531 L 1832.4199 502.03125 L 1838.3828 512.13867 L 1844.2812 522.41992 L 1850.0508 532.76758 L 1850.0957 532.84961 L 1850.1094 532.875 L 1855.7441 543.28125 L 1855.7539 543.29102 L 1861.209 553.66211 L 1861.2383 553.71875 L 1861.2656 553.77148 L 1866.5918 564.20703 L 1866.6289 564.28125 L 1866.6445 564.31641 L 1871.8438 574.8125 L 1871.8887 574.90625 L 1871.8984 574.92188 L 1876.9668 585.48047 L 1876.9883 585.52734 L 1877.0195 585.5918 L 1881.957 596.20898 L 1881.9883 596.27734 L 1882.0078 596.32031 L 1883.2734 599.13086 L 1886.5195 603.11719 L 1891.3164 604.96484 L 1896.3984 604.18555 L 1900.4219 600.98242 L 1902.3203 596.20508 L 1901.5957 591.11523 L 1901.5098 590.91602 L 1900.1934 587.99609 L 1900.1426 587.88477 L 1895.1016 577.04688 L 1895.0488 576.93555 L 1889.875 566.1582 L 1889.8223 566.04883 L 1884.5156 555.33203 L 1884.4609 555.22266 L 1879.0234 544.57031 L 1878.9648 544.46094 L 1873.3965 533.87305 L 1873.3379 533.76562 L 1867.6406 523.24414 L 1867.5801 523.13672 L 1861.752 512.68164 L 1861.6914 512.57422 L 1855.7344 502.1875 L 1855.6719 502.08203 L 1849.584 491.76367 L 1849.5215 491.66016 L 1843.3066 481.41211 L 1843.2441 481.30859 L 1836.8984 471.13477 L 1836.8359 471.03125 L 1830.3652 460.92969 L 1830.2988 460.82617 L 1823.7012 450.79883 L 1823.6328 450.69727 L 1816.9082 440.74609 L 1816.8398 440.64648 L 1809.9902 430.77148 L 1809.918 430.67188 L 1802.9434 420.875 L 1802.873 420.77539 L 1795.7734 411.06055 L 1795.7012 410.96094 L 1788.4766 401.32617 L 1788.4023 401.22852 L 1781.0547 391.67578 L 1780.9805 391.57812 L 1773.5098 382.10938 L 1773.4316 382.01367 L 1765.8379 372.62891 L 1765.7598 372.5332 L 1758.0449 363.23438 L 1757.9648 363.13867 L 1750.1289 353.92773 L 1750.0488 353.83398 L 1742.0898 344.71094 L 1742.0078 344.61719 L 1736.3125 338.25 L 1732.0156 335.42773 L 1726.8828 335.11328 z M 472.62305 335.17773 L 467.88281 337.17578 L 467.71484 337.31055 L 461.35352 342.45703 L 461.25781 342.53516 L 453.28711 349.14844 L 453.19336 349.22852 L 445.29688 355.94531 L 445.20312 356.02539 L 437.38281 362.84766 L 437.29102 362.92969 L 429.54688 369.85352 L 429.45508 369.9375 L 421.79102 376.96484 L 421.69922 377.04883 L 414.11328 384.17773 L 414.02344 384.26367 L 406.51758 391.49609 L 406.42773 391.58203 L 399.00391 398.91602 L 398.91602 399.00391 L 391.58203 406.42969 L 391.49609 406.51758 L 384.26367 414.02344 L 384.17773 414.11328 L 377.04688 421.70117 L 376.96289 421.79102 L 369.93555 429.45703 L 369.85352 429.54883 L 362.92773 437.29102 L 362.8457 437.38281 L 356.02539 445.20312 L 355.94531 445.29688 L 349.22656 453.19141 L 349.14844 453.28711 L 342.53516 461.25781 L 342.45703 461.35156 L 335.94727 469.39648 L 335.87109 469.49219 L 329.4668 477.60938 L 329.39062 477.70703 L 323.09375 485.89453 L 323.01953 485.99219 L 316.82812 494.25195 L 316.75391 494.34961 L 310.66797 502.67773 L 310.59766 502.77734 L 304.61914 511.17383 L 304.54883 511.27344 L 298.67578 519.73633 L 298.60742 519.83789 L 292.84375 528.36719 L 292.77539 528.46875 L 287.12109 537.06445 L 287.05469 537.16602 L 281.50781 545.82422 L 281.44336 545.92773 L 276.00586 554.65039 L 275.94141 554.75391 L 270.61328 563.53711 L 270.55078 563.64258 L 269.62305 565.21484 L 268.23633 570.16602 L 269.49414 575.15039 L 273.06055 578.85352 L 277.99805 580.29297 L 282.99609 579.08984 L 286.73633 575.5625 L 286.84766 575.37695 L 287.71289 573.91016 L 287.72266 573.89453 L 287.77539 573.80469 L 293.03711 565.13281 L 293.04102 565.12695 L 298.34961 556.61328 L 303.82812 548.05664 L 303.87891 547.98047 L 303.89453 547.95508 L 309.41602 539.56445 L 309.47461 539.47852 L 309.48438 539.46289 L 315.17383 531.04297 L 315.17969 531.03516 L 320.91016 522.77344 L 320.95703 522.70703 L 320.98047 522.67383 L 326.81641 514.47852 L 326.86914 514.40625 L 326.88867 514.37891 L 332.83008 506.24805 L 332.86523 506.20117 L 332.90234 506.15039 L 338.94727 498.08789 L 338.98633 498.03711 L 339.02148 497.99023 L 345.16992 489.99609 L 345.19531 489.96484 L 345.24414 489.90039 L 351.49609 481.97656 L 351.52344 481.94336 L 351.57227 481.88086 L 357.92578 474.02734 L 357.95312 473.99414 L 358.00391 473.93164 L 364.46094 466.15234 L 371.09766 458.34961 L 371.11133 458.33398 L 371.17773 458.25586 L 377.91406 450.5332 L 377.91797 450.5293 L 384.75586 442.88672 L 384.76172 442.87891 L 391.62109 435.39648 L 398.66602 427.89844 L 398.72656 427.83594 L 398.75195 427.80859 L 405.89844 420.39258 L 413.05664 413.14453 L 413.09961 413.10156 L 413.14453 413.05664 L 420.39453 405.89648 L 420.42969 405.86133 L 420.48242 405.81055 L 427.81055 398.75 L 427.83789 398.72461 L 427.90039 398.66406 L 435.30664 391.70508 L 435.32617 391.6875 L 435.39648 391.62109 L 442.9707 384.67773 L 450.5293 377.91797 L 450.61133 377.8457 L 450.62305 377.83594 L 458.25586 371.17578 L 458.33398 371.10938 L 458.34961 371.0957 L 466.05859 364.53906 L 473.93359 358.00391 L 473.99609 357.95312 L 474.0293 357.92578 L 480.29492 352.85547 L 483.32617 348.70312 L 483.89258 343.59375 L 481.8457 338.87695 L 477.72656 335.80078 L 472.62305 335.17773 z M 1000.002 476.91992 L 994.12305 481.18945 L 450 876.51758 L 660.08203 1523.0801 L 1339.9199 1523.0801 L 1550 876.51758 L 1000.002 476.91992 z M 999.99805 501.63867 L 1526.4863 884.1543 L 1325.3887 1503.0801 L 674.61133 1503.0801 L 473.51172 884.1543 L 999.99805 501.63867 z M 67.076172 684.14844 L 62.460938 686.41016 L 59.578125 690.66992 L 59.509766 690.87305 L 56.396484 700.47461 L 56.361328 700.5918 L 52.810547 712.01562 L 52.775391 712.13281 L 49.365234 723.60352 L 49.330078 723.7207 L 46.058594 735.23438 L 46.027344 735.35156 L 42.894531 746.91016 L 42.863281 747.0293 L 39.873047 758.62891 L 39.84375 758.74609 L 36.992188 770.38672 L 36.964844 770.50586 L 34.255859 782.1875 L 34.228516 782.30664 L 31.660156 794.02344 L 31.634766 794.14453 L 29.210938 805.89844 L 29.1875 806.01953 L 26.904297 817.81055 L 26.882812 817.93164 L 24.744141 829.75586 L 24.722656 829.87695 L 22.728516 841.73633 L 22.708984 841.85742 L 20.859375 853.74805 L 20.839844 853.86914 L 19.136719 865.78906 L 19.119141 865.91211 L 17.560547 877.86133 L 17.544922 877.98438 L 16.130859 889.96289 L 16.117188 890.08594 L 14.851562 902.08984 L 14.837891 902.21289 L 13.71875 914.24414 L 13.708984 914.36719 L 12.736328 926.42188 L 12.726562 926.54492 L 11.902344 938.625 L 11.894531 938.74805 L 11.220703 950.84766 L 11.214844 950.97266 L 10.6875 963.09375 L 10.683594 963.2168 L 10.306641 975.35742 L 10.302734 975.48047 L 10.078125 987.63867 L 10.076172 987.76367 L 10.070312 988.6875 L 11.361328 993.66406 L 14.955078 997.3418 L 19.900391 998.74805 L 24.890625 997.50977 L 28.607422 993.95703 L 30.066406 989.02734 L 30.070312 988.81055 L 30.076172 987.91797 L 30.076172 987.88672 L 30.300781 975.85352 L 30.673828 963.83594 L 31.189453 951.96289 L 31.191406 951.92188 L 31.195312 951.83984 L 31.855469 939.98633 L 31.857422 939.98633 L 32.671875 928.0293 L 33.632812 916.09766 L 34.740234 904.18945 L 34.742188 904.16797 L 35.994141 892.30664 L 36 892.25195 L 36.007812 892.18359 L 37.404297 880.34375 L 37.40625 880.32812 L 38.951172 868.5 L 40.621094 856.82227 L 40.625 856.80273 L 42.451172 845.05273 L 42.460938 844.99805 L 42.470703 844.93164 L 44.423828 833.31445 L 44.439453 833.22656 L 44.445312 833.19336 L 46.541016 821.61133 L 48.798828 809.93945 L 48.804688 809.9082 L 48.822266 809.82031 L 51.197266 798.30469 L 51.205078 798.27148 L 51.222656 798.18359 L 53.759766 786.60938 L 53.765625 786.58594 L 56.447266 775.02539 L 59.269531 763.50391 L 62.199219 752.14062 L 62.220703 752.0625 L 62.230469 752.02344 L 65.298828 740.70117 L 68.570312 729.18555 L 71.910156 717.94922 L 71.917969 717.92578 L 71.945312 717.83203 L 75.423828 706.64062 L 78.535156 697.04102 L 78.808594 691.90625 L 76.496094 687.31445 L 72.207031 684.47852 L 67.076172 684.14844 z M 1785.8828 689.13477 L 1780.7656 689.60547 L 1776.5547 692.55664 L 1774.3691 697.20898 L 1774.7832 702.33398 L 1774.8574 702.53711 L 1777.9043 710.58008 L 1781.377 720.08984 L 1781.4043 720.16602 L 1781.418 720.20508 L 1784.7695 729.74609 L 1784.7695 729.75781 L 1787.9707 739.23828 L 1791.1309 748.99023 L 1794.0996 758.54883 L 1794.127 758.64258 L 1794.1367 758.66602 L 1796.9902 768.26367 L 1799.7617 778.01562 L 1799.7617 778.02344 L 1802.4141 787.80469 L 1802.4238 787.84375 L 1802.4453 787.92188 L 1804.9746 797.73828 L 1804.9746 797.74805 L 1807.3887 807.60742 L 1809.6816 817.49805 L 1811.8301 827.30469 L 1811.8418 827.35938 L 1811.8574 827.42383 L 1813.9102 837.38086 L 1815.8418 847.36523 L 1817.6523 857.38086 L 1819.3223 867.30469 L 1819.332 867.37109 L 1819.3418 867.42578 L 1820.8887 877.37305 L 1822.334 887.4707 L 1823.6699 897.71289 L 1824.8535 907.73633 L 1824.8633 907.80469 L 1824.873 907.85938 L 1825.9434 918.00586 L 1825.9434 918.02734 L 1826.8789 928.09375 L 1827.7031 938.30273 L 1827.7031 938.31641 L 1828.4023 948.5332 L 1828.4023 948.58008 L 1828.4121 948.65625 L 1828.9766 958.78125 L 1828.9766 958.86328 L 1828.9766 958.9043 L 1829.4219 969.16211 L 1829.4219 969.16992 L 1829.7363 979.33008 L 1829.9297 989.62695 L 1829.9297 989.6543 L 1829.9453 992.20898 L 1831.0371 996.21094 L 1829.998 999.72266 L 1829.998 999.93945 L 1829.9355 1010.3438 L 1829.9355 1010.375 L 1829.7422 1020.6719 L 1829.4277 1030.8301 L 1829.4277 1030.832 L 1828.9824 1041.0977 L 1828.9824 1041.1387 L 1828.9824 1041.2207 L 1828.418 1051.3457 L 1828.4062 1051.4219 L 1828.4062 1051.4688 L 1827.709 1061.6738 L 1827.709 1061.6992 L 1826.8848 1071.9082 L 1825.9492 1081.9746 L 1825.9492 1081.9961 L 1824.8789 1092.1426 L 1824.8691 1092.1973 L 1824.8594 1092.2656 L 1824.1113 1098.5918 L 1824.8418 1103.6816 L 1828.0059 1107.7344 L 1832.7637 1109.6816 L 1837.8613 1109.0059 L 1841.9492 1105.8867 L 1843.9473 1101.1504 L 1843.9746 1100.9355 L 1844.7344 1094.4863 L 1844.748 1094.3633 L 1845.834 1084.0742 L 1845.8457 1083.9512 L 1846.8066 1073.6387 L 1846.8164 1073.5156 L 1847.6504 1063.1836 L 1847.6621 1063.0586 L 1848.3672 1052.707 L 1848.377 1052.584 L 1848.9551 1042.2109 L 1848.9648 1042.0879 L 1849.416 1031.6973 L 1849.416 1031.5742 L 1849.7383 1021.168 L 1849.7383 1021.0449 L 1849.9316 1010.623 L 1849.9316 1010.498 L 1849.9961 1000.0625 L 1848.9219 995.92383 L 1849.9453 992.30078 L 1849.9453 992.08398 L 1849.9277 989.50195 L 1849.9277 989.37891 L 1849.7344 978.95703 L 1849.7344 978.83398 L 1849.4121 968.42773 L 1849.4121 968.30273 L 1848.9609 957.91406 L 1848.9512 957.79102 L 1848.373 947.41797 L 1848.3633 947.29492 L 1847.6582 936.94141 L 1847.6484 936.81836 L 1846.8145 926.48633 L 1846.8047 926.36328 L 1845.8438 916.05078 L 1845.832 915.92773 L 1844.7461 905.63672 L 1844.7324 905.51562 L 1843.5215 895.24805 L 1843.5039 895.125 L 1842.168 884.88281 L 1842.1504 884.75977 L 1840.6895 874.54297 L 1840.6719 874.42188 L 1839.0859 864.22852 L 1839.0664 864.10742 L 1837.3574 853.94336 L 1837.3359 853.82227 L 1835.502 843.6875 L 1835.4805 843.56641 L 1833.5254 833.45898 L 1833.5 833.33984 L 1831.4219 823.26367 L 1831.3965 823.14453 L 1829.1953 813.09961 L 1829.1699 812.98047 L 1826.8477 802.96875 L 1826.8184 802.84961 L 1824.375 792.87109 L 1824.3477 792.75391 L 1821.7832 782.81055 L 1821.752 782.69336 L 1819.0684 772.78516 L 1819.0352 772.66797 L 1816.2324 762.79883 L 1816.1973 762.68164 L 1813.2734 752.84961 L 1813.2383 752.73242 L 1810.1953 742.93945 L 1810.1602 742.82422 L 1806.998 733.07031 L 1806.9609 732.95508 L 1803.6816 723.24414 L 1803.6406 723.12891 L 1800.2441 713.46094 L 1800.2031 713.3457 L 1796.6895 703.7207 L 1796.6484 703.60742 L 1793.5566 695.45117 L 1790.5605 691.27148 L 1785.8828 689.13477 z M 204.89453 714.29102 L 200.22266 716.44336 L 197.23828 720.62891 L 197.16406 720.83203 L 196.35742 723.12891 L 196.31641 723.24414 L 193.03711 732.95508 L 193 733.07031 L 189.83789 742.82422 L 189.80273 742.93945 L 186.75977 752.73242 L 186.72461 752.84961 L 183.80078 762.68164 L 183.76562 762.79883 L 180.96289 772.66797 L 180.92969 772.78516 L 178.24609 782.69336 L 178.21484 782.81055 L 175.65039 792.75391 L 175.62109 792.87109 L 173.17773 802.84961 L 173.14844 802.96875 L 170.82617 812.98047 L 170.80078 813.09961 L 168.59961 823.14453 L 168.57422 823.26367 L 166.49609 833.33984 L 166.4707 833.45898 L 164.51562 843.56641 L 164.49414 843.6875 L 162.66016 853.82227 L 162.63867 853.94336 L 160.92969 864.10742 L 160.91016 864.22852 L 159.32422 874.42188 L 159.30664 874.54297 L 157.8457 884.75977 L 157.82812 884.88281 L 156.49219 895.125 L 156.47656 895.24805 L 155.26562 905.51562 L 155.25195 905.63672 L 154.16602 915.92773 L 154.1543 916.05078 L 153.19336 926.36328 L 153.18359 926.48633 L 152.34961 936.81836 L 152.33984 936.94141 L 151.63477 947.29492 L 151.62695 947.41797 L 151.04883 957.79102 L 151.04102 957.91406 L 150.58984 968.30273 L 150.58398 968.42773 L 150.26172 978.83398 L 150.25781 978.95703 L 150.06445 989.37891 L 150.0625 989.50195 L 149.99805 999.93945 L 149.99805 1000.0625 L 150.0625 1010.498 L 150.06445 1010.623 L 150.22266 1019.1113 L 151.63672 1024.0547 L 155.32031 1027.6426 L 160.29883 1028.9258 L 165.25781 1027.5645 L 168.88477 1023.9199 L 170.2207 1018.9551 L 170.21875 1018.7402 L 170.0625 1010.375 L 170.0625 1010.3457 L 170 1000.0625 L 170 1000.002 L 170 999.93945 L 170.06445 989.6543 L 170.06445 989.62695 L 170.25781 979.33008 L 170.57227 969.16992 L 170.57227 969.16211 L 171.01758 958.9043 L 171.01953 958.86328 L 171.02344 958.78125 L 171.58789 948.65625 L 171.59375 948.58008 L 171.5957 948.5332 L 172.29492 938.31641 L 172.29492 938.30273 L 173.11914 928.09375 L 174.05469 918.02734 L 174.05664 918.00586 L 175.12695 907.85938 L 175.13281 907.80469 L 175.14062 907.73633 L 176.32422 897.71289 L 177.66016 887.4707 L 179.10547 877.37305 L 180.65234 867.42578 L 180.66211 867.37109 L 180.67383 867.30469 L 182.34375 857.38086 L 184.1543 847.36523 L 186.08594 837.38086 L 188.13867 827.42383 L 188.15234 827.35938 L 188.16406 827.30469 L 190.3125 817.49805 L 192.60547 807.60742 L 195.01953 797.74805 L 195.02148 797.73633 L 197.55078 787.91992 L 197.57227 787.8418 L 197.58203 787.80273 L 200.23438 778.02148 L 200.23633 778.01367 L 203.00781 768.26172 L 205.86133 758.66406 L 205.86914 758.64062 L 205.89648 758.54688 L 208.86523 748.98828 L 208.86719 748.98828 L 212.02734 739.23633 L 215.22852 729.75586 L 215.23242 729.74414 L 216.03516 727.45898 L 216.43555 722.33203 L 214.23438 717.68555 L 210.01562 714.74609 L 204.89453 714.29102 z M 1946.5234 745.41992 L 1941.998 747.89258 L 1939.3145 752.27734 L 1939.1641 757.41797 L 1939.2148 757.62695 L 1940.7305 763.50391 L 1943.5527 775.02539 L 1946.2344 786.58594 L 1946.2441 786.60938 L 1948.7812 798.18359 L 1948.7988 798.27148 L 1948.8105 798.30469 L 1951.1855 809.82031 L 1951.2031 809.9082 L 1951.2129 809.93945 L 1953.4707 821.61133 L 1955.5664 833.19336 L 1955.5762 833.22656 L 1955.5918 833.31445 L 1957.5449 844.93164 L 1957.5547 844.99805 L 1957.5645 845.05273 L 1959.3906 856.80273 L 1959.3906 856.82227 L 1961.0605 868.5 L 1962.6074 880.32812 L 1962.6074 880.34375 L 1964.0039 892.18359 L 1964.0137 892.25195 L 1964.0234 892.30664 L 1965.2754 904.16797 L 1965.2754 904.18945 L 1966.3828 916.09766 L 1967.3438 928.0293 L 1968.1582 939.98633 L 1968.8184 951.83984 L 1968.8184 951.92188 L 1968.8184 951.96289 L 1969.334 963.83594 L 1969.707 975.85352 L 1969.9316 987.88672 L 1969.9316 987.91797 L 1970.0078 999.93945 L 1970.0078 1000 L 1970.0078 1000.0625 L 1969.9316 1012.0859 L 1969.9316 1012.1133 L 1969.707 1024.1484 L 1969.334 1036.166 L 1968.8184 1048.0391 L 1968.8184 1048.0801 L 1968.8184 1048.1621 L 1968.1582 1060.0156 L 1967.3438 1071.9707 L 1966.3828 1083.9043 L 1965.2754 1095.8125 L 1965.2754 1095.834 L 1964.9648 1098.7773 L 1965.7578 1103.8574 L 1968.9707 1107.8711 L 1973.752 1109.7598 L 1978.8418 1109.0215 L 1982.8906 1105.8516 L 1984.8281 1101.0898 L 1984.8535 1100.877 L 1985.166 1097.9102 L 1985.1797 1097.7891 L 1986.2988 1085.7578 L 1986.3086 1085.6348 L 1987.2812 1073.5781 L 1987.291 1073.4551 L 1988.1152 1061.377 L 1988.125 1061.2539 L 1988.7988 1049.1543 L 1988.8086 1049.0293 L 1989.3359 1036.9082 L 1989.3359 1036.7852 L 1989.7129 1024.6445 L 1989.7129 1024.5215 L 1989.9375 1012.3613 L 1989.9375 1012.2383 L 1990.0137 1000.0625 L 1990.0137 1000.0586 L 1990.0137 999.93945 L 1989.9375 987.76367 L 1989.9375 987.63867 L 1989.7129 975.48047 L 1989.7129 975.35742 L 1989.3359 963.2168 L 1989.3359 963.09375 L 1988.8086 950.97266 L 1988.7988 950.84766 L 1988.125 938.74805 L 1988.1152 938.625 L 1987.291 926.54492 L 1987.2812 926.42188 L 1986.3086 914.36719 L 1986.2988 914.24414 L 1985.1797 902.21289 L 1985.166 902.08984 L 1983.9004 890.08594 L 1983.8848 889.96289 L 1982.4707 877.98438 L 1982.4551 877.86133 L 1980.8965 865.91211 L 1980.8789 865.78906 L 1979.1758 853.86914 L 1979.1562 853.74805 L 1977.3066 841.85742 L 1977.2871 841.73633 L 1975.293 829.87695 L 1975.2715 829.75586 L 1973.1328 817.93164 L 1973.1113 817.81055 L 1970.8281 806.01953 L 1970.8066 805.89844 L 1968.3828 794.14453 L 1968.3574 794.02344 L 1965.7891 782.30664 L 1965.7617 782.1875 L 1963.0527 770.50586 L 1963.0254 770.38672 L 1960.1738 758.74609 L 1960.1445 758.62891 L 1958.5996 752.63281 L 1956.0781 748.15234 L 1951.6641 745.51562 L 1946.5234 745.41992 z M 31.28125 1148.1738 L 26.578125 1150.2539 L 23.527344 1154.3926 L 22.9375 1159.5 L 22.972656 1159.7148 L 24.722656 1170.125 L 24.744141 1170.2461 L 26.882812 1182.0703 L 26.904297 1182.1914 L 29.1875 1193.9824 L 29.210938 1194.1016 L 31.634766 1205.8574 L 31.660156 1205.9766 L 34.228516 1217.6953 L 34.255859 1217.8145 L 36.964844 1229.4941 L 36.992188 1229.6133 L 39.84375 1241.2539 L 39.873047 1241.373 L 42.863281 1252.9727 L 42.894531 1253.0918 L 46.027344 1264.6484 L 46.058594 1264.7676 L 49.330078 1276.2812 L 49.365234 1276.3984 L 52.775391 1287.8691 L 52.810547 1287.9863 L 56.361328 1299.4102 L 56.396484 1299.5273 L 60.085938 1310.9043 L 60.123047 1311.0215 L 63.949219 1322.3496 L 63.988281 1322.4648 L 67.951172 1333.7461 L 67.992188 1333.8594 L 72.091797 1345.0898 L 72.134766 1345.2031 L 76.369141 1356.3809 L 76.414062 1356.4941 L 80.785156 1367.6191 L 80.830078 1367.7324 L 85.335938 1378.8008 L 85.382812 1378.9141 L 90.023438 1389.9277 L 90.072266 1390.0391 L 94.845703 1400.9961 L 94.896484 1401.1074 L 99.804688 1412.0059 L 99.855469 1412.1172 L 104.89648 1422.9551 L 104.94922 1423.0664 L 110.12305 1433.8438 L 110.17578 1433.9531 L 115.48242 1444.6699 L 115.53711 1444.7793 L 116.5293 1446.7207 L 119.96484 1450.5449 L 124.84766 1452.1582 L 129.88477 1451.1309 L 133.74805 1447.7344 L 135.41211 1442.8711 L 134.43945 1437.8223 L 134.3418 1437.6289 L 133.40625 1435.7949 L 133.37109 1435.7227 L 133.35156 1435.6855 L 128.09961 1425.0781 L 123.03125 1414.5215 L 123.00977 1414.4746 L 122.97852 1414.4102 L 118.04102 1403.793 L 118.00977 1403.7246 L 117.99023 1403.6797 L 113.18164 1393.0039 L 108.45508 1382.1602 L 108.43945 1382.123 L 108.40625 1382.0469 L 103.85938 1371.2578 L 103.85742 1371.2539 L 99.398438 1360.3027 L 99.365234 1360.2188 L 99.353516 1360.1895 L 95.072266 1349.291 L 90.878906 1338.2285 L 86.820312 1327.1152 L 86.792969 1327.0391 L 86.779297 1327 L 82.898438 1315.9492 L 79.111328 1304.7363 L 75.423828 1293.3594 L 71.945312 1282.168 L 71.917969 1282.0742 L 71.910156 1282.0508 L 68.570312 1270.8145 L 65.298828 1259.2988 L 62.230469 1247.9766 L 62.220703 1247.9375 L 62.199219 1247.8594 L 59.269531 1236.4961 L 56.447266 1224.9746 L 53.765625 1213.4141 L 53.759766 1213.3906 L 51.222656 1201.8145 L 51.210938 1201.7578 L 51.197266 1201.6953 L 48.822266 1190.1797 L 48.804688 1190.0918 L 48.798828 1190.0605 L 46.541016 1178.3887 L 44.445312 1166.8047 L 44.445312 1166.7988 L 42.695312 1156.3945 L 40.566406 1151.7148 L 36.394531 1148.709 L 31.28125 1148.1738 z M 179.01172 1177.5703 L 174.44336 1179.9336 L 171.6543 1184.252 L 171.37695 1189.3867 L 171.42383 1189.5977 L 173.14844 1197.0332 L 173.17773 1197.1523 L 175.62109 1207.1289 L 175.65039 1207.248 L 178.21484 1217.1914 L 178.24609 1217.3086 L 180.92969 1227.2168 L 180.96289 1227.334 L 183.76562 1237.2031 L 183.80078 1237.3203 L 186.72461 1247.1523 L 186.75977 1247.2695 L 189.80273 1257.0625 L 189.83789 1257.1777 L 193 1266.9297 L 193.03711 1267.0469 L 196.31641 1276.7578 L 196.35742 1276.873 L 199.75391 1286.541 L 199.79492 1286.6562 L 203.30859 1296.2812 L 203.34961 1296.3945 L 206.98047 1305.9746 L 207.02539 1306.0898 L 210.77148 1315.625 L 210.81641 1315.7363 L 214.67969 1325.2246 L 214.72656 1325.3379 L 218.70312 1334.7773 L 218.75195 1334.8906 L 222.84375 1344.2812 L 222.89453 1344.3926 L 227.10156 1353.7344 L 227.15234 1353.8457 L 231.47266 1363.1367 L 231.52539 1363.2461 L 235.96094 1372.4844 L 236.01367 1372.5938 L 240.5625 1381.7793 L 240.61719 1381.8887 L 245.27734 1391.0195 L 245.33398 1391.127 L 250.10742 1400.2031 L 250.16406 1400.3105 L 255.04883 1409.3301 L 255.10742 1409.4375 L 260.10352 1418.3984 L 260.16406 1418.5059 L 265.27148 1427.4082 L 265.33398 1427.5137 L 270.55078 1436.3574 L 270.61328 1436.4629 L 275.94141 1445.2461 L 276.00586 1445.3496 L 281.44336 1454.0703 L 281.50781 1454.1738 L 287.05469 1462.832 L 287.12109 1462.9355 L 289.97656 1467.2754 L 293.8125 1470.7012 L 298.8418 1471.7656 L 303.73633 1470.1914 L 307.20312 1466.3945 L 308.32227 1461.375 L 306.80078 1456.4648 L 306.68555 1456.2832 L 303.83203 1451.9473 L 303.82812 1451.9414 L 298.34961 1443.3867 L 293.04102 1434.873 L 293.03711 1434.8652 L 287.77539 1426.1934 L 287.72266 1426.1055 L 287.71289 1426.0879 L 282.56055 1417.3535 L 282.55859 1417.3496 L 277.51367 1408.5527 L 272.63477 1399.8027 L 272.62695 1399.7891 L 272.57617 1399.6973 L 267.80859 1390.8926 L 263.0918 1381.9258 L 263.0625 1381.8691 L 263.03516 1381.8164 L 258.48438 1372.9023 L 258.44727 1372.8281 L 258.42969 1372.793 L 253.9375 1363.7168 L 249.60742 1354.6992 L 245.33789 1345.5195 L 245.30664 1345.4512 L 245.28711 1345.4082 L 241.17969 1336.2891 L 237.13477 1327.0098 L 233.20312 1317.6816 L 233.20117 1317.6777 L 229.38477 1308.3066 L 229.38672 1308.3066 L 225.68359 1298.8867 L 222.0957 1289.4199 L 218.62305 1279.9102 L 218.5957 1279.834 L 218.58203 1279.7949 L 215.23047 1270.2539 L 215.22656 1270.2422 L 212.02539 1260.7617 L 208.86523 1251.0098 L 205.89453 1241.4512 L 205.86719 1241.3574 L 205.85938 1241.334 L 203.00586 1231.7363 L 200.23438 1221.9844 L 200.2207 1221.9355 L 200.20117 1221.8652 L 197.58008 1212.1953 L 197.56055 1212.1172 L 197.54883 1212.0762 L 195.01953 1202.2617 L 195.01758 1202.252 L 192.60352 1192.3926 L 190.90625 1185.0762 L 188.49609 1180.5352 L 184.14844 1177.791 L 179.01172 1177.5703 z M 1795.1582 1255.543 L 1790.502 1257.748 L 1787.5684 1261.9707 L 1787.498 1262.1758 L 1784.7734 1270.2441 L 1784.7734 1270.2559 L 1781.4219 1279.7969 L 1781.4082 1279.8359 L 1781.3809 1279.9121 L 1777.9082 1289.4219 L 1774.3203 1298.8887 L 1770.6172 1308.3086 L 1766.8008 1317.6797 L 1766.8008 1317.6836 L 1762.8691 1327.0117 L 1758.8242 1336.291 L 1754.7168 1345.4102 L 1754.6973 1345.4531 L 1754.668 1345.5215 L 1750.3984 1354.7012 L 1746.0684 1363.7188 L 1741.5762 1372.7949 L 1741.5566 1372.8301 L 1741.5195 1372.9043 L 1736.9688 1381.8184 L 1736.9434 1381.8711 L 1736.9141 1381.9277 L 1732.1973 1390.8945 L 1727.4297 1399.6992 L 1727.3789 1399.791 L 1727.3691 1399.8047 L 1722.4902 1408.5547 L 1717.4453 1417.3516 L 1717.4453 1417.3555 L 1712.293 1426.0898 L 1712.2812 1426.1074 L 1712.2285 1426.1953 L 1706.9668 1434.8672 L 1706.9668 1434.873 L 1701.6582 1443.3867 L 1696.1797 1451.9414 L 1696.1797 1451.9473 L 1690.5957 1460.4336 L 1690.5859 1460.4473 L 1690.5273 1460.5371 L 1684.832 1468.9629 L 1679.1016 1477.2246 L 1673.1953 1485.5215 L 1673.1426 1485.5938 L 1673.123 1485.6211 L 1667.1816 1493.752 L 1667.1465 1493.7988 L 1667.1094 1493.8496 L 1661.0645 1501.9121 L 1661.0254 1501.9629 L 1660.9902 1502.0098 L 1654.8418 1510.002 L 1648.5156 1518.0234 L 1648.4883 1518.0566 L 1648.4395 1518.1191 L 1646.1426 1520.957 L 1644.0449 1525.6523 L 1644.5566 1530.7676 L 1647.543 1534.9531 L 1652.2129 1537.1016 L 1657.334 1536.6445 L 1661.5527 1533.7031 L 1661.6895 1533.5371 L 1664.0645 1530.6035 L 1664.1406 1530.5078 L 1670.5449 1522.3906 L 1670.6211 1522.293 L 1676.918 1514.1055 L 1676.9922 1514.0078 L 1683.1836 1505.748 L 1683.2559 1505.6504 L 1689.3418 1497.3223 L 1689.4121 1497.2227 L 1695.3906 1488.8262 L 1695.4609 1488.7266 L 1701.334 1480.2617 L 1701.4023 1480.1621 L 1707.166 1471.6328 L 1707.2344 1471.5293 L 1712.8887 1462.9355 L 1712.9531 1462.832 L 1718.502 1454.1738 L 1718.5645 1454.0703 L 1724.002 1445.3496 L 1724.0684 1445.2461 L 1729.3965 1436.4629 L 1729.457 1436.3574 L 1734.6738 1427.5137 L 1734.7363 1427.4082 L 1739.8438 1418.5059 L 1739.9043 1418.3984 L 1744.9004 1409.4375 L 1744.959 1409.3301 L 1749.8438 1400.3105 L 1749.9023 1400.2031 L 1754.6758 1391.127 L 1754.7324 1391.0195 L 1759.3926 1381.8887 L 1759.4473 1381.7793 L 1763.9961 1372.5938 L 1764.0488 1372.4844 L 1768.4844 1363.2461 L 1768.5371 1363.1367 L 1772.8574 1353.8457 L 1772.9082 1353.7344 L 1777.1152 1344.3926 L 1777.166 1344.2812 L 1781.2578 1334.8906 L 1781.3086 1334.7773 L 1785.2852 1325.3379 L 1785.332 1325.2246 L 1789.1953 1315.7363 L 1789.2402 1315.625 L 1792.9863 1306.0898 L 1793.0312 1305.9746 L 1796.6621 1296.3945 L 1796.7031 1296.2812 L 1800.2168 1286.6562 L 1800.2578 1286.541 L 1803.6543 1276.873 L 1803.6953 1276.7578 L 1806.459 1268.5723 L 1806.7949 1263.4434 L 1804.5391 1258.8223 L 1800.2852 1255.9355 L 1795.1582 1255.543 z M 1940.7227 1256.8633 L 1936.1914 1259.2949 L 1933.4668 1263.6543 L 1933.4062 1263.8613 L 1931.4297 1270.8164 L 1928.0898 1282.0527 L 1928.0801 1282.0762 L 1928.0527 1282.1699 L 1924.5742 1293.3613 L 1920.8867 1304.7383 L 1917.0996 1315.9512 L 1913.2188 1327.002 L 1913.2051 1327.041 L 1913.1777 1327.1172 L 1909.1191 1338.2305 L 1904.9258 1349.293 L 1900.6445 1360.1914 L 1900.6328 1360.2207 L 1900.5996 1360.3047 L 1896.1406 1371.2559 L 1896.1406 1371.2598 L 1891.5938 1382.0488 L 1891.5605 1382.125 L 1891.5449 1382.1621 L 1886.8184 1393.0059 L 1882.0098 1403.6816 L 1881.9902 1403.7246 L 1881.959 1403.793 L 1877.0215 1414.4102 L 1876.9902 1414.4746 L 1876.9688 1414.5215 L 1871.9004 1425.0781 L 1866.6484 1435.6855 L 1866.6309 1435.7207 L 1866.5938 1435.7949 L 1861.2109 1446.3379 L 1855.7559 1456.7109 L 1855.7461 1456.7207 L 1850.1113 1467.127 L 1850.0977 1467.1523 L 1850.0527 1467.2344 L 1844.3438 1477.4746 L 1844.3203 1477.5156 L 1844.2832 1477.582 L 1838.3848 1487.8633 L 1832.4219 1497.9688 L 1832.4121 1497.9844 L 1832.3594 1498.0742 L 1826.2715 1508.1113 L 1826.252 1508.1406 L 1826.2051 1508.2168 L 1819.9902 1518.1836 L 1813.5859 1528.1816 L 1813.5859 1528.1875 L 1810.4863 1532.8984 L 1808.8594 1537.7773 L 1809.8711 1542.8184 L 1813.2539 1546.6895 L 1818.1133 1548.3691 L 1823.1641 1547.4121 L 1827.0723 1544.0723 L 1827.1934 1543.8926 L 1830.2988 1539.1758 L 1830.3652 1539.0723 L 1836.8359 1528.9707 L 1836.9004 1528.8672 L 1843.2441 1518.6934 L 1843.3086 1518.5898 L 1849.5234 1508.3418 L 1849.584 1508.2383 L 1855.6719 1497.9199 L 1855.7344 1497.8145 L 1861.6914 1487.4277 L 1861.752 1487.3203 L 1867.5801 1476.8652 L 1867.6426 1476.7578 L 1873.3398 1466.2363 L 1873.3984 1466.1289 L 1878.9668 1455.5391 L 1879.0234 1455.4316 L 1884.4609 1444.7793 L 1884.5156 1444.6699 L 1889.8223 1433.9531 L 1889.875 1433.8438 L 1895.0488 1423.0664 L 1895.1016 1422.9551 L 1900.1426 1412.1172 L 1900.1953 1412.0059 L 1905.1035 1401.1074 L 1905.1543 1400.9961 L 1909.9277 1390.0391 L 1909.9766 1389.9277 L 1914.6172 1378.9141 L 1914.6641 1378.8008 L 1919.1699 1367.7324 L 1919.2148 1367.6191 L 1923.5859 1356.4941 L 1923.6309 1356.3809 L 1927.8652 1345.2031 L 1927.9082 1345.0898 L 1932.0078 1333.8594 L 1932.0488 1333.7461 L 1936.0117 1322.4648 L 1936.0508 1322.3496 L 1939.877 1311.0215 L 1939.9141 1310.9043 L 1943.6035 1299.5273 L 1943.6387 1299.4102 L 1947.1895 1287.9863 L 1947.2246 1287.8691 L 1950.6348 1276.3984 L 1950.668 1276.2812 L 1952.6426 1269.3281 L 1952.7305 1264.1875 L 1950.252 1259.6816 L 1945.8594 1257.0059 L 1940.7227 1256.8633 z M 213.75977 1576.5508 L 208.9707 1578.4219 L 205.74609 1582.4258 L 204.93555 1587.5039 L 206.75586 1592.3125 L 206.88281 1592.4863 L 211.52344 1598.6758 L 211.59766 1598.7734 L 218.94531 1608.3262 L 219.01953 1608.4238 L 226.49023 1617.8926 L 226.56836 1617.9883 L 234.16211 1627.373 L 234.24023 1627.4688 L 241.95508 1636.7676 L 242.03516 1636.8633 L 249.87109 1646.0742 L 249.95117 1646.168 L 257.91016 1655.291 L 257.99219 1655.3848 L 266.07031 1664.418 L 266.1543 1664.5098 L 274.35352 1673.4531 L 274.4375 1673.543 L 282.75586 1682.3945 L 282.83984 1682.4844 L 291.27734 1691.2402 L 291.36523 1691.3301 L 299.91992 1699.9922 L 300.00781 1700.0801 L 308.67188 1708.6367 L 308.75977 1708.7227 L 317.51758 1717.1602 L 317.60742 1717.2461 L 326.45703 1725.5645 L 326.54883 1725.6484 L 335.49219 1733.8477 L 335.58398 1733.9297 L 344.61719 1742.0098 L 344.70898 1742.0898 L 353.83398 1750.0488 L 353.92578 1750.1289 L 363.13867 1757.9668 L 363.23242 1758.0469 L 372.53125 1765.7617 L 372.62695 1765.8398 L 382.01172 1773.4336 L 382.10938 1773.5098 L 391.57812 1780.9805 L 391.67578 1781.0566 L 401.22852 1788.4043 L 401.32617 1788.4785 L 410.96094 1795.7012 L 411.06055 1795.7754 L 420.77539 1802.875 L 420.875 1802.9473 L 422.32617 1803.9805 L 427.14062 1805.7852 L 432.21484 1804.959 L 436.20898 1801.7227 L 438.06641 1796.9277 L 437.29688 1791.8438 L 434.10156 1787.8145 L 433.92773 1787.6875 L 432.57617 1786.7266 L 432.50391 1786.6738 L 432.47656 1786.6543 L 422.95898 1779.6992 L 413.42188 1772.5508 L 413.36914 1772.5117 L 413.32422 1772.4766 L 403.86914 1765.2031 L 394.5918 1757.8848 L 394.55859 1757.8574 L 394.49609 1757.8086 L 385.30273 1750.3691 L 385.26953 1750.3418 L 385.20703 1750.291 L 376.00391 1742.6543 L 366.98047 1734.9766 L 366.9668 1734.9648 L 366.88672 1734.8965 L 357.94922 1727.1016 L 357.9375 1727.0898 L 357.85547 1727.0195 L 348.92383 1719.0293 L 348.91602 1719.0215 L 340.1543 1710.9902 L 340.08398 1710.9238 L 340.06445 1710.9062 L 331.39453 1702.7578 L 331.33203 1702.6973 L 331.30469 1702.6719 L 322.72461 1694.4062 L 322.67188 1694.3555 L 322.63672 1694.3184 L 314.15039 1685.9355 L 305.68164 1677.3633 L 305.64844 1677.3301 L 305.59375 1677.2754 L 297.24414 1668.6074 L 289.0957 1659.9375 L 289.08203 1659.9219 L 289.00977 1659.8457 L 280.89648 1650.9941 L 272.98242 1642.1445 L 272.98047 1642.1406 L 265.10352 1633.1133 L 265.03711 1633.0352 L 265.02344 1633.0215 L 257.26758 1623.9023 L 249.70898 1614.793 L 249.6582 1614.7305 L 249.63086 1614.6973 L 242.19336 1605.5039 L 234.72266 1596.0352 L 227.52539 1586.6777 L 222.88477 1580.4883 L 218.8457 1577.3066 L 213.75977 1576.5508 z M 403.00586 1583.7031 L 398.51562 1586.207 L 395.86133 1590.6113 L 395.74609 1595.752 L 398.19922 1600.2695 L 398.34961 1600.4258 L 398.91602 1600.998 L 399.00391 1601.0859 L 406.42773 1608.418 L 406.51758 1608.5059 L 414.02344 1615.7383 L 414.11328 1615.8223 L 421.69922 1622.9531 L 421.79102 1623.0371 L 429.45508 1630.0645 L 429.54688 1630.1484 L 437.29102 1637.0723 L 437.38281 1637.1543 L 445.20312 1643.9766 L 445.29688 1644.0566 L 453.19336 1650.7734 L 453.28711 1650.8535 L 461.25781 1657.4668 L 461.35352 1657.5449 L 469.39844 1664.0527 L 469.49414 1664.1309 L 477.61133 1670.5332 L 477.70703 1670.6094 L 485.89648 1676.9062 L 485.99414 1676.9824 L 494.25195 1683.1738 L 494.35156 1683.2461 L 502.67969 1689.332 L 502.7793 1689.4043 L 511.17383 1695.3828 L 511.27539 1695.4531 L 519.73828 1701.3242 L 519.83984 1701.3926 L 528.36914 1707.1562 L 528.4707 1707.2246 L 537.06445 1712.8789 L 537.16797 1712.9473 L 545.82617 1718.4922 L 545.92969 1718.5586 L 554.65039 1723.9961 L 554.75586 1724.0605 L 563.53711 1729.3867 L 563.64258 1729.4492 L 572.48633 1734.668 L 572.5918 1734.7285 L 581.49609 1739.8359 L 581.60156 1739.8965 L 590.5625 1744.8926 L 590.66992 1744.9512 L 599.68945 1749.8359 L 599.79688 1749.8945 L 608.87305 1754.668 L 608.98047 1754.7227 L 618.11133 1759.3848 L 618.2207 1759.4395 L 627.40625 1763.9863 L 627.51562 1764.041 L 636.75391 1768.4746 L 636.86523 1768.5273 L 646.1543 1772.8496 L 646.26562 1772.9004 L 646.32422 1772.9258 L 651.39648 1773.7617 L 656.21484 1771.9648 L 659.50391 1768.0117 L 660.39258 1762.9492 L 658.65039 1758.1113 L 654.73242 1754.7812 L 654.58984 1754.7148 L 654.53711 1754.6895 L 654.50977 1754.6777 L 654.47852 1754.6641 L 645.41016 1750.4453 L 645.34766 1750.4141 L 645.29883 1750.3926 L 636.17188 1746.0098 L 627.20508 1741.5703 L 627.16992 1741.5527 L 627.0957 1741.5156 L 618.18164 1736.9648 L 609.21484 1732.25 L 609.20508 1732.2441 L 600.30273 1727.4238 L 600.27734 1727.4082 L 600.19531 1727.3652 L 591.44727 1722.4883 L 591.40625 1722.4648 L 591.33984 1722.4277 L 582.64844 1717.4414 L 582.64453 1717.4395 L 573.91016 1712.2871 L 573.89258 1712.2773 L 573.80469 1712.2246 L 565.23242 1707.0234 L 565.20508 1707.0059 L 565.12695 1706.959 L 556.51172 1701.5859 L 548.05859 1696.1719 L 548.05273 1696.166 L 539.56641 1690.584 L 539.48047 1690.5254 L 539.46484 1690.5156 L 531.13867 1684.8887 L 522.77539 1679.0879 L 522.70898 1679.041 L 522.67578 1679.0176 L 514.47852 1673.1816 L 514.40625 1673.1289 L 514.37891 1673.1094 L 506.25 1667.1699 L 506.17578 1667.1133 L 506.15039 1667.0957 L 498.08984 1661.0527 L 498.03906 1661.0137 L 497.99219 1660.9785 L 489.99805 1654.8301 L 489.94531 1654.7871 L 489.90039 1654.7539 L 481.97852 1648.5039 L 481.92578 1648.4609 L 481.88086 1648.4258 L 474.0293 1642.0723 L 473.99609 1642.0449 L 473.93359 1641.9941 L 466.05859 1635.459 L 458.34961 1628.9023 L 458.33398 1628.8887 L 458.25586 1628.8223 L 450.62305 1622.1621 L 450.61133 1622.1523 L 450.5293 1622.0801 L 442.9707 1615.3203 L 435.39648 1608.377 L 435.32617 1608.3105 L 435.30664 1608.293 L 427.90039 1601.332 L 420.48242 1594.1875 L 420.42969 1594.1367 L 420.39453 1594.1016 L 413.14453 1586.9414 L 413.10352 1586.8984 L 413.05664 1586.8535 L 412.58008 1586.3691 L 408.14844 1583.7617 L 403.00586 1583.7031 z M 1533.084 1638.0391 L 1528.3633 1640.0938 L 1528.1953 1640.2285 L 1526.0664 1641.9961 L 1526.0039 1642.0469 L 1525.9707 1642.0742 L 1518.1191 1648.4277 L 1518.0742 1648.4629 L 1518.0215 1648.5059 L 1510.0996 1654.7559 L 1510.0547 1654.7891 L 1510.002 1654.832 L 1502.0078 1660.9805 L 1501.9609 1661.0156 L 1501.9102 1661.0547 L 1493.8496 1667.0977 L 1493.8242 1667.1152 L 1493.75 1667.1719 L 1485.6211 1673.1113 L 1485.5938 1673.1309 L 1485.5215 1673.1836 L 1477.3242 1679.0195 L 1477.291 1679.043 L 1477.2266 1679.0898 L 1468.8633 1684.8906 L 1460.5371 1690.5176 L 1460.5195 1690.5273 L 1460.4336 1690.5859 L 1451.9473 1696.168 L 1451.9375 1696.1719 L 1443.4844 1701.5859 L 1434.8691 1706.959 L 1434.791 1707.0059 L 1434.7656 1707.0234 L 1426.1934 1712.2246 L 1426.1055 1712.2773 L 1426.0859 1712.2871 L 1417.3516 1717.4395 L 1417.3516 1717.4414 L 1408.6602 1722.4277 L 1408.5957 1722.4648 L 1408.5547 1722.4883 L 1399.8066 1727.3652 L 1399.7246 1727.4082 L 1399.6992 1727.4238 L 1390.7969 1732.2441 L 1390.7871 1732.25 L 1381.8203 1736.9648 L 1372.9062 1741.5156 L 1372.832 1741.5527 L 1372.7969 1741.5703 L 1363.8301 1746.0098 L 1354.7031 1750.3926 L 1354.6543 1750.4141 L 1354.5918 1750.4453 L 1345.5234 1754.6641 L 1345.4551 1754.6953 L 1345.4121 1754.7148 L 1336.293 1758.8223 L 1336.2031 1758.8613 L 1336.1816 1758.8711 L 1326.9004 1762.9141 L 1317.6855 1766.7969 L 1317.625 1766.8203 L 1317.5703 1766.8438 L 1308.3086 1770.6152 L 1308.2246 1770.6484 L 1308.1973 1770.6602 L 1298.7793 1774.3594 L 1298.7793 1774.3613 L 1289.3125 1777.9473 L 1279.918 1781.3789 L 1279.8418 1781.4062 L 1279.8027 1781.4199 L 1271.0273 1784.502 L 1266.7773 1787.3945 L 1264.5273 1792.0176 L 1264.8711 1797.1484 L 1267.7207 1801.4297 L 1272.3184 1803.7285 L 1277.4512 1803.4395 L 1277.6562 1803.3711 L 1286.5469 1800.248 L 1286.6602 1800.207 L 1296.2852 1796.6934 L 1296.4004 1796.6504 L 1305.9805 1793.0195 L 1306.0938 1792.9766 L 1315.6289 1789.2285 L 1315.7422 1789.1836 L 1325.2305 1785.3223 L 1325.3438 1785.2754 L 1334.7832 1781.2969 L 1334.8945 1781.25 L 1344.2871 1777.1562 L 1344.3984 1777.1074 L 1353.7402 1772.9004 L 1353.8516 1772.8496 L 1363.1406 1768.5273 L 1363.252 1768.4746 L 1372.4902 1764.041 L 1372.5996 1763.9863 L 1381.7852 1759.4395 L 1381.8945 1759.3848 L 1391.0254 1754.7227 L 1391.1328 1754.668 L 1400.209 1749.8945 L 1400.3164 1749.8359 L 1409.3359 1744.9512 L 1409.4434 1744.8926 L 1418.4043 1739.8965 L 1418.5098 1739.8359 L 1427.4141 1734.7285 L 1427.5195 1734.668 L 1436.3633 1729.4492 L 1436.4688 1729.3867 L 1445.25 1724.0605 L 1445.3555 1723.9961 L 1454.0762 1718.5586 L 1454.1797 1718.4922 L 1462.8379 1712.9473 L 1462.9414 1712.8789 L 1471.5352 1707.2246 L 1471.6367 1707.1562 L 1480.166 1701.3926 L 1480.2676 1701.3242 L 1488.7305 1695.4531 L 1488.832 1695.3828 L 1497.2266 1689.4043 L 1497.3262 1689.332 L 1505.6543 1683.2461 L 1505.7539 1683.1738 L 1514.0117 1676.9824 L 1514.1094 1676.9062 L 1522.2988 1670.6094 L 1522.3945 1670.5332 L 1530.5137 1664.1309 L 1530.6094 1664.0527 L 1538.6543 1657.5449 L 1538.75 1657.4668 L 1540.9746 1655.6211 L 1543.9551 1651.4316 L 1544.459 1646.3145 L 1542.3535 1641.623 L 1538.1953 1638.5977 L 1533.084 1638.0391 z M 1716.0508 1661.9453 L 1710.9082 1662.0215 L 1706.4844 1664.6426 L 1706.3359 1664.7969 L 1702.7559 1668.6074 L 1694.4062 1677.2754 L 1694.3516 1677.3301 L 1694.3184 1677.3652 L 1685.8496 1685.9375 L 1677.3633 1694.3203 L 1677.3281 1694.3555 L 1677.2754 1694.4062 L 1668.6953 1702.6719 L 1668.668 1702.6973 L 1668.6055 1702.7578 L 1659.9355 1710.9062 L 1659.916 1710.9238 L 1659.8457 1710.9902 L 1651.084 1719.0215 L 1651.0742 1719.0293 L 1642.1426 1727.0195 L 1642.0605 1727.0898 L 1642.0488 1727.1016 L 1633.1113 1734.8965 L 1633.0312 1734.9648 L 1633.0176 1734.9766 L 1623.9941 1742.6543 L 1614.791 1750.291 L 1614.7285 1750.3418 L 1614.6953 1750.3691 L 1605.502 1757.8086 L 1605.4395 1757.8574 L 1605.4062 1757.8848 L 1596.1309 1765.2031 L 1586.6738 1772.4766 L 1586.6289 1772.5117 L 1586.5762 1772.5508 L 1577.0391 1779.6992 L 1567.5215 1786.6543 L 1567.4941 1786.6738 L 1567.4238 1786.7266 L 1557.7285 1793.6289 L 1547.9551 1800.4082 L 1538.207 1806.9961 L 1538.1895 1807.0059 L 1538.1035 1807.0645 L 1528.2812 1813.5273 L 1528.2578 1813.543 L 1528.1816 1813.5938 L 1518.2852 1819.9316 L 1508.2148 1826.2109 L 1508.2051 1826.2148 L 1498.0703 1832.3633 L 1487.7559 1838.4492 L 1487.7559 1838.4512 L 1477.5801 1844.2871 L 1473.166 1846.75 L 1469.4707 1850.3223 L 1468.0391 1855.2617 L 1469.25 1860.2578 L 1472.7832 1863.9922 L 1477.707 1865.4785 L 1482.7168 1864.3203 L 1482.9062 1864.2168 L 1487.3203 1861.7559 L 1487.4258 1861.6973 L 1497.8125 1855.7383 L 1497.9199 1855.6777 L 1508.2363 1849.5898 L 1508.3418 1849.5273 L 1518.5879 1843.3105 L 1518.6914 1843.2461 L 1528.8672 1836.9043 L 1528.9707 1836.8379 L 1539.0723 1830.3672 L 1539.1738 1830.3008 L 1549.2012 1823.7031 L 1549.3027 1823.6348 L 1559.2539 1816.9102 L 1559.3555 1816.8418 L 1569.2285 1809.9922 L 1569.3301 1809.9219 L 1579.125 1802.9473 L 1579.2246 1802.875 L 1588.9395 1795.7754 L 1589.0391 1795.7012 L 1598.6738 1788.4785 L 1598.7715 1788.4043 L 1608.3242 1781.0566 L 1608.4219 1780.9805 L 1617.8906 1773.5098 L 1617.9883 1773.4336 L 1627.373 1765.8398 L 1627.4707 1765.7617 L 1636.7695 1758.0469 L 1636.8633 1757.9668 L 1646.0762 1750.1289 L 1646.168 1750.0488 L 1655.293 1742.0898 L 1655.3848 1742.0098 L 1664.418 1733.9297 L 1664.5098 1733.8477 L 1673.4531 1725.6484 L 1673.5449 1725.5645 L 1682.3945 1717.2461 L 1682.4844 1717.1602 L 1691.2422 1708.7227 L 1691.3301 1708.6367 L 1699.9941 1700.0801 L 1700.082 1699.9922 L 1708.6367 1691.3301 L 1708.7246 1691.2402 L 1717.1621 1682.4844 L 1717.2461 1682.3945 L 1720.9102 1678.4941 L 1723.3516 1673.9688 L 1723.2188 1668.8281 L 1720.5508 1664.4336 L 1716.0508 1661.9453 z M 813.35547 1808.7285 L 808.21484 1808.8945 L 803.83789 1811.5918 L 801.37891 1816.1074 L 801.48828 1821.248 L 804.13672 1825.6543 L 808.62695 1828.1621 L 808.83594 1828.2129 L 812.97852 1829.1738 L 813.09961 1829.2012 L 823.14258 1831.4004 L 823.26367 1831.4277 L 833.33789 1833.5059 L 833.45898 1833.5293 L 843.56445 1835.4844 L 843.68555 1835.5078 L 853.82227 1837.3398 L 853.94336 1837.3613 L 864.10742 1839.0703 L 864.22852 1839.0879 L 874.41992 1840.6738 L 874.54102 1840.6934 L 884.75977 1842.1543 L 884.88086 1842.1699 L 895.125 1843.5078 L 895.24609 1843.5215 L 905.51367 1844.7344 L 905.63672 1844.748 L 915.92773 1845.834 L 916.04883 1845.8457 L 926.36133 1846.8047 L 926.48438 1846.8164 L 936.81836 1847.6484 L 936.94141 1847.6602 L 947.29492 1848.3672 L 947.41797 1848.375 L 957.78906 1848.9531 L 957.91406 1848.959 L 968.30273 1849.4102 L 968.42578 1849.4141 L 978.83203 1849.7383 L 978.95703 1849.7402 L 989.37695 1849.9336 L 989.50195 1849.9355 L 999.9375 1850 L 1000.0625 1850 L 1010.498 1849.9355 L 1010.623 1849.9336 L 1021.043 1849.7402 L 1021.168 1849.7383 L 1031.5742 1849.4141 L 1031.6973 1849.4102 L 1042.0859 1848.959 L 1042.2109 1848.9531 L 1052.582 1848.375 L 1052.7051 1848.3672 L 1063.0586 1847.6602 L 1063.1816 1847.6484 L 1073.5156 1846.8164 L 1073.6387 1846.8047 L 1083.9512 1845.8457 L 1084.0723 1845.834 L 1094.3633 1844.748 L 1094.4863 1844.7344 L 1104.7539 1843.5215 L 1104.875 1843.5078 L 1110.4473 1842.7793 L 1115.2031 1840.8262 L 1118.3594 1836.7676 L 1119.082 1831.6777 L 1117.1797 1826.9004 L 1113.1562 1823.7012 L 1108.0742 1822.9219 L 1107.8594 1822.9492 L 1102.4102 1823.6602 L 1102.377 1823.666 L 1092.2656 1824.8594 L 1092.1973 1824.8672 L 1092.1426 1824.873 L 1081.9961 1825.9434 L 1081.9746 1825.9453 L 1071.7852 1826.8926 L 1061.5742 1827.7148 L 1051.4688 1828.4043 L 1051.4121 1828.4082 L 1051.3438 1828.4121 L 1041.2188 1828.9785 L 1041.1367 1828.9824 L 1041.0957 1828.9844 L 1030.9531 1829.4238 L 1020.5469 1829.7461 L 1010.373 1829.9355 L 1010.3457 1829.9355 L 1000.0625 1830.002 L 1000 1830.002 L 999.9375 1830.002 L 989.6543 1829.9355 L 989.62695 1829.9355 L 979.45312 1829.7461 L 969.04688 1829.4238 L 958.9043 1828.9844 L 958.86328 1828.9824 L 958.78125 1828.9785 L 948.65625 1828.4121 L 948.58789 1828.4082 L 948.53125 1828.4043 L 938.42578 1827.7148 L 928.21484 1826.8926 L 918.02539 1825.9453 L 918.00391 1825.9434 L 907.85742 1824.873 L 907.80273 1824.8672 L 907.73438 1824.8594 L 897.625 1823.666 L 897.58984 1823.6602 L 887.4707 1822.3379 L 887.46875 1822.3379 L 877.49414 1820.9121 L 877.47266 1820.9082 L 867.42383 1819.3457 L 867.36914 1819.3359 L 867.30273 1819.3262 L 857.38086 1817.6582 L 857.29297 1817.6426 L 857.25977 1817.6367 L 847.24609 1815.8242 L 847.24414 1815.8242 L 837.25977 1813.8906 L 827.42383 1811.8633 L 827.39062 1811.8555 L 827.30273 1811.8379 L 817.40234 1809.668 L 817.37891 1809.6621 L 813.35547 1808.7285 z M 573.35156 1872.6133 L 568.49219 1874.291 L 565.10742 1878.1621 L 564.09375 1883.2031 L 565.7207 1888.0801 L 569.55469 1891.5059 L 569.74805 1891.6016 L 576.93555 1895.0527 L 577.04492 1895.1035 L 587.88477 1900.1445 L 587.99414 1900.1953 L 598.89258 1905.1055 L 599.00391 1905.1543 L 609.96094 1909.9297 L 610.07422 1909.9766 L 621.08789 1914.6172 L 621.19922 1914.6641 L 632.26953 1919.1719 L 632.38281 1919.2168 L 643.50586 1923.5879 L 643.62109 1923.6309 L 654.79688 1927.8672 L 654.91211 1927.9102 L 666.14062 1932.0078 L 666.25586 1932.0488 L 677.53516 1936.0117 L 677.65039 1936.0527 L 688.98047 1939.877 L 689.0957 1939.916 L 700.47461 1943.6035 L 700.58984 1943.6406 L 712.01367 1947.1895 L 712.13086 1947.2246 L 723.60156 1950.6367 L 723.71875 1950.6699 L 735.23438 1953.9414 L 735.35156 1953.9727 L 746.91016 1957.1035 L 747.02734 1957.1348 L 758.62695 1960.127 L 758.74609 1960.1562 L 770.38672 1963.0059 L 770.50586 1963.0352 L 782.18555 1965.7441 L 782.30469 1965.7715 L 794.02344 1968.3379 L 794.14258 1968.3633 L 805.89844 1970.7891 L 806.01953 1970.8125 L 817.80859 1973.0938 L 817.92969 1973.1172 L 829.75586 1975.2559 L 829.87695 1975.2754 L 841.73438 1977.2695 L 841.85547 1977.291 L 853.74609 1979.1406 L 853.86719 1979.1582 L 858.44141 1979.8125 L 863.54688 1979.207 L 867.67773 1976.1445 L 869.74023 1971.4355 L 869.19141 1966.3242 L 866.17383 1962.1602 L 861.48633 1960.0469 L 861.27344 1960.0137 L 856.82031 1959.377 L 856.79883 1959.377 L 845.05273 1957.5508 L 845.02148 1957.541 L 833.31445 1955.5742 L 833.22656 1955.5586 L 833.19336 1955.5469 L 821.48828 1953.4297 L 809.81836 1951.1719 L 798.30273 1948.7969 L 798.23828 1948.7812 L 798.18359 1948.7695 L 786.60742 1946.2344 L 786.58594 1946.2285 L 775.14453 1943.5742 L 763.62109 1940.7539 L 763.57422 1940.7422 L 763.50391 1940.7246 L 752.14062 1937.7949 L 752.09961 1937.7832 L 752.02148 1937.7637 L 740.58984 1934.6641 L 740.58203 1934.6621 L 729.30273 1931.457 L 717.94922 1928.082 L 717.92578 1928.0742 L 717.83203 1928.0469 L 706.64062 1924.5703 L 706.58789 1924.5527 L 706.52344 1924.5332 L 695.37891 1920.9199 L 684.16406 1917.1348 L 684.15234 1917.1309 L 673 1913.2207 L 672.96094 1913.207 L 672.88477 1913.1797 L 661.88477 1909.1641 L 661.81836 1909.1387 L 661.76953 1909.1211 L 650.82031 1904.9727 L 650.81641 1904.9707 L 639.81055 1900.6465 L 639.78125 1900.6348 L 639.69727 1900.6016 L 628.85352 1896.1875 L 628.80078 1896.1641 L 628.74023 1896.1406 L 617.95117 1891.5938 L 607.10742 1886.8691 L 596.2168 1881.9648 L 596.20898 1881.9609 L 585.48047 1876.9688 L 578.4043 1873.5723 L 573.35156 1872.6133 z M 1325.2246 1915.3457 L 1320.0938 1915.6484 L 1319.8887 1915.7188 L 1315.8477 1917.1387 L 1315.8359 1917.1426 L 1304.6211 1920.9277 L 1293.4766 1924.541 L 1293.4121 1924.5605 L 1293.3594 1924.5781 L 1282.168 1928.0547 L 1282.0742 1928.082 L 1282.0508 1928.0898 L 1270.6973 1931.4648 L 1259.418 1934.6699 L 1259.4082 1934.6719 L 1247.9766 1937.7715 L 1247.8984 1937.791 L 1247.8574 1937.8027 L 1236.4941 1940.7324 L 1236.4238 1940.75 L 1236.377 1940.7617 L 1224.8535 1943.582 L 1213.4121 1946.2363 L 1213.3906 1946.2422 L 1201.8145 1948.7773 L 1201.7598 1948.7891 L 1201.6953 1948.8027 L 1190.1797 1951.1777 L 1178.5098 1953.4375 L 1166.8047 1955.5547 L 1166.7715 1955.5645 L 1166.6836 1955.5801 L 1154.9766 1957.5469 L 1154.9453 1957.5566 L 1143.1992 1959.3828 L 1143.1777 1959.3828 L 1131.377 1961.0703 L 1119.6719 1962.5977 L 1119.6387 1962.5977 L 1107.8145 1963.9941 L 1107.7656 1964.0059 L 1107.6934 1964.0156 L 1095.9316 1965.2559 L 1095.8477 1965.2656 L 1095.8105 1965.2656 L 1083.9004 1966.373 L 1072.0918 1967.3262 L 1072.0781 1967.3262 L 1060.1367 1968.1426 L 1060.0898 1968.1426 L 1060.0137 1968.1523 L 1048.1602 1968.8145 L 1048.0801 1968.8145 L 1048.0371 1968.8145 L 1036.0488 1969.334 L 1036.0391 1969.334 L 1029.0566 1969.5488 L 1024.1328 1971.0254 L 1020.5898 1974.752 L 1019.3691 1979.7461 L 1020.791 1984.6875 L 1024.4805 1988.2695 L 1029.4609 1989.5449 L 1029.6777 1989.5352 L 1036.7832 1989.3164 L 1036.9062 1989.3066 L 1049.0273 1988.7812 L 1049.1504 1988.7715 L 1061.252 1988.0957 L 1061.375 1988.0859 L 1073.4531 1987.2617 L 1073.5762 1987.25 L 1085.6309 1986.2773 L 1085.7539 1986.2656 L 1097.7852 1985.1465 L 1097.9082 1985.1348 L 1109.9141 1983.8672 L 1110.0371 1983.8535 L 1122.0156 1982.4414 L 1122.1367 1982.4258 L 1134.0879 1980.8652 L 1134.209 1980.8496 L 1146.1309 1979.1445 L 1146.252 1979.125 L 1158.1426 1977.2754 L 1158.2637 1977.2559 L 1170.1211 1975.2617 L 1170.2422 1975.2402 L 1182.0684 1973.1016 L 1182.1895 1973.0801 L 1193.9785 1970.7988 L 1194.0996 1970.7734 L 1205.8555 1968.3477 L 1205.9746 1968.3242 L 1217.6934 1965.7578 L 1217.8125 1965.7305 L 1229.4922 1963.0215 L 1229.6113 1962.9922 L 1241.252 1960.1426 L 1241.3711 1960.1133 L 1252.9707 1957.1211 L 1253.0879 1957.0898 L 1264.6465 1953.959 L 1264.7637 1953.9258 L 1276.2793 1950.6543 L 1276.3965 1950.6211 L 1287.8672 1947.209 L 1287.9844 1947.1738 L 1299.4082 1943.625 L 1299.5234 1943.5879 L 1310.9023 1939.9004 L 1311.0176 1939.8613 L 1322.3477 1936.0371 L 1322.4629 1935.9961 L 1326.5156 1934.5723 L 1330.7656 1931.6777 L 1333.0156 1927.0547 L 1332.6719 1921.9258 L 1329.8242 1917.6445 L 1325.2246 1915.3457 z "
       transform="translate(0,-947.63784)"
       id="path4140" />
  </g>
</svg>
