<?xml version="1.0" encoding="UTF-8" standalone="no"?>
<!-- Created with Inkscape (http://www.inkscape.org/) -->

<svg
   xmlns:dc="http://purl.org/dc/elements/1.1/"
   xmlns:cc="http://creativecommons.org/ns#"
   xmlns:rdf="http://www.w3.org/1999/02/22-rdf-syntax-ns#"
   xmlns:svg="http://www.w3.org/2000/svg"
   xmlns="http://www.w3.org/2000/svg"
   xmlns:sodipodi="http://sodipodi.sourceforge.net/DTD/sodipodi-0.dtd"
   xmlns:inkscape="http://www.inkscape.org/namespaces/inkscape"
   width="210mm"
   height="297mm"
   viewBox="0 0 744.09448819 1052.3622047"
   id="svg3577"
   version="1.1"
   inkscape:version="0.91 r13725"
   sodipodi:docname="markers.svg">
  <defs
     id="defs3579">
    <inkscape:path-effect
       effect="spiro"
       id="path-effect4540"
       is_visible="true" />
    <inkscape:path-effect
       effect="spiro"
       id="path-effect4536"
       is_visible="true" />
  </defs>
  <sodipodi:namedview
     id="base"
     pagecolor="#ffffff"
     bordercolor="#666666"
     borderopacity="1.0"
     inkscape:pageopacity="0.0"
     inkscape:pageshadow="2"
     inkscape:zoom="1.979899"
     inkscape:cx="322.53939"
     inkscape:cy="705.07192"
     inkscape:document-units="px"
     inkscape:current-layer="layer1"
     showgrid="true"
     inkscape:snap-tangential="true"
     inkscape:snap-perpendicular="true"
     inkscape:window-width="1916"
     inkscape:window-height="1041"
     inkscape:window-x="3520"
     inkscape:window-y="37"
     inkscape:window-maximized="0">
    <inkscape:grid
       type="xygrid"
       id="grid4497"
       spacingx="100"
       spacingy="100"
       dotted="false"
       empspacing="1" />
  </sodipodi:namedview>
  <metadata
     id="metadata3582">
    <rdf:RDF>
      <cc:Work
         rdf:about="">
        <dc:format>image/svg+xml</dc:format>
        <dc:type
           rdf:resource="http://purl.org/dc/dcmitype/StillImage" />
        <dc:title />
      </cc:Work>
    </rdf:RDF>
  </metadata>
  <g
     inkscape:label="Layer 1"
     inkscape:groupmode="layer"
     id="layer1">
    <path
       style="opacity:1;fill:#000000;fill-opacity:1;stroke:none;stroke-width:20;stroke-linecap:round;stroke-miterlimit:4;stroke-dasharray:none;stroke-dashoffset:200;stroke-opacity:1"
       d="m 215.35714,206.72557 c 4.92404,-11.89893 12.34957,-19.98348 20.06298,-19.03333 9.57265,0.77383 17.99063,11.13202 26.87925,17.21736 4.9638,3.28184 10.47275,1.38233 14.8729,-4.20728 2.88083,-3.23397 5.96065,-6.15975 8.18487,-11.2962 l 0,16.15638 c -4.6055,9.25127 -10.72181,15.61076 -17.22547,15.9749 -5.8071,0.89111 -11.50935,-2.39457 -16.77404,-7.19159 -6.33574,-5.37986 -12.83736,-12.82716 -19.92454,-11.35495 -6.42682,1.40358 -11.29596,10.92852 -16.07595,18.91654 z"
       id="rect4136"
       inkscape:connector-curvature="0"
       sodipodi:nodetypes="ccccccccccc" />
    <path
       style="opacity:1;fill:none;fill-opacity:1;stroke:#000000;stroke-width:6;stroke-linecap:round;stroke-linejoin:round;stroke-miterlimit:4;stroke-dasharray:none;stroke-dashoffset:200;stroke-opacity:1"
       d="m 316.46439,203.86971 31.24729,-21.00037 0,42.00073 z"
       id="path4417-6"
       inkscape:connector-curvature="0" />
    <path
       inkscape:connector-curvature="0"
       style="opacity:1;fill:none;fill-opacity:1;stroke:#000000;stroke-width:6;stroke-linecap:round;stroke-linejoin:round;stroke-miterlimit:4;stroke-dasharray:none;stroke-dashoffset:200;stroke-opacity:1"
       d="m 380.46463,182.86938 -30.55431,20.53458 0,0.93149 30.55431,20.53458 0,-42.00065 z"
       id="path4417-5-9" />
    <path
       style="color:#000000;font-style:normal;font-variant:normal;font-weight:normal;font-stretch:normal;font-size:medium;line-height:normal;font-family:sans-serif;text-indent:0;text-align:start;text-decoration:none;text-decoration-line:none;text-decoration-style:solid;text-decoration-color:#000000;letter-spacing:normal;word-spacing:normal;text-transform:none;direction:ltr;block-progression:tb;writing-mode:lr-tb;baseline-shift:baseline;text-anchor:start;white-space:normal;clip-rule:nonzero;display:inline;overflow:visible;visibility:visible;opacity:1;isolation:auto;mix-blend-mode:normal;color-interpolation:sRGB;color-interpolation-filters:linearRGB;solid-color:#000000;solid-opacity:1;fill:#000000;fill-opacity:1;fill-rule:nonzero;stroke:none;stroke-width:120;stroke-linecap:round;stroke-linejoin:round;stroke-miterlimit:4;stroke-dasharray:none;stroke-dashoffset:200;stroke-opacity:1;color-rendering:auto;image-rendering:auto;shape-rendering:auto;text-rendering:auto;enable-background:accumulate"
       d="m 451.81183,174.25386 c -16.2603,0 -29.52522,13.16559 -29.52522,29.35096 0,8.09268 3.31337,15.45489 8.65483,20.76121 a 2.9893868,2.9893868 0 1 0 4.21323,-4.24115 c -4.26285,-4.23481 -6.88989,-10.05348 -6.88989,-16.52006 0,-12.93316 10.49638,-23.37278 23.54705,-23.37278 13.05077,0 23.54704,10.4396 23.54704,23.37278 0,12.93316 -10.49627,23.37278 -23.54704,23.37278 a 2.9893868,2.9893868 0 1 0 0,5.97817 c 16.26038,0 29.52522,-13.16561 29.52522,-29.35095 0,-16.18536 -13.26484,-29.35096 -29.52522,-29.35096 z"
       id="path4451"
       inkscape:connector-curvature="0" />
    <path
       style="color:#000000;font-style:normal;font-variant:normal;font-weight:normal;font-stretch:normal;font-size:medium;line-height:normal;font-family:sans-serif;text-indent:0;text-align:start;text-decoration:none;text-decoration-line:none;text-decoration-style:solid;text-decoration-color:#000000;letter-spacing:normal;word-spacing:normal;text-transform:none;direction:ltr;block-progression:tb;writing-mode:lr-tb;baseline-shift:baseline;text-anchor:start;white-space:normal;clip-rule:nonzero;display:inline;overflow:visible;visibility:visible;opacity:1;isolation:auto;mix-blend-mode:normal;color-interpolation:sRGB;color-interpolation-filters:linearRGB;solid-color:#000000;solid-opacity:1;fill:#000000;fill-opacity:1;fill-rule:nonzero;stroke:none;stroke-width:120;stroke-linecap:butt;stroke-linejoin:miter;stroke-miterlimit:4;stroke-dasharray:none;stroke-dashoffset:0;stroke-opacity:1;color-rendering:auto;image-rendering:auto;shape-rendering:auto;text-rendering:auto;enable-background:accumulate"
       d="m 436.2421,203.67585 -3.52385,18.05372 -18.24511,-3.53193 -1.13609,5.86929 24.10526,4.66617 4.66734,-23.91202 -5.86755,-1.14523 z"
       id="rect4546"
       inkscape:connector-curvature="0" />
    <g
       id="g7687">
      <rect
         y="169.94688"
         x="519.71161"
         height="65.467628"
         width="65.467628"
         id="rect4136-1"
         style="opacity:1;fill:none;fill-opacity:1;stroke:#000000;stroke-width:4.53237391;stroke-linecap:round;stroke-miterlimit:4;stroke-dasharray:none;stroke-dashoffset:200;stroke-opacity:1" />
      <g
         transform="translate(0.94179313,-0.75094161)"
         id="g7683">
        <path
           style="color:#000000;font-style:normal;font-variant:normal;font-weight:normal;font-stretch:normal;font-size:medium;line-height:normal;font-family:sans-serif;text-indent:0;text-align:start;text-decoration:none;text-decoration-line:none;text-decoration-style:solid;text-decoration-color:#000000;letter-spacing:normal;word-spacing:normal;text-transform:none;direction:ltr;block-progression:tb;writing-mode:lr-tb;baseline-shift:baseline;text-anchor:start;white-space:normal;clip-rule:nonzero;display:inline;overflow:visible;visibility:visible;opacity:1;isolation:auto;mix-blend-mode:normal;color-interpolation:sRGB;color-interpolation-filters:linearRGB;solid-color:#000000;solid-opacity:1;fill:#000000;fill-opacity:1;fill-rule:evenodd;stroke:none;stroke-width:10;stroke-linecap:butt;stroke-linejoin:miter;stroke-miterlimit:4;stroke-dasharray:none;stroke-dashoffset:0;stroke-opacity:1;color-rendering:auto;image-rendering:auto;shape-rendering:auto;text-rendering:auto;enable-background:accumulate"
           d="m 531.50363,198.93164 0,9 40,0 0,-9 -40,0 z"
           id="path7121"
           inkscape:connector-curvature="0" />
        <path
           style="fill:none;fill-rule:evenodd;stroke:#000000;stroke-width:9.46378708;stroke-linecap:butt;stroke-linejoin:miter;stroke-miterlimit:4;stroke-dasharray:none;stroke-opacity:1"
           d="m 551.50363,183.43164 0,40"
           id="path7121-9"
           inkscape:connector-curvature="0"
           sodipodi:nodetypes="cc" />
      </g>
    </g>
    <path
       inkscape:connector-curvature="0"
       style="opacity:1;fill:#000000;fill-opacity:1;stroke:none;stroke-width:9.99999905;stroke-linecap:square;stroke-miterlimit:4;stroke-dasharray:none;stroke-dashoffset:200;stroke-opacity:1"
       d="m 76.377817,168.84153 -10,0 0,60 10,0 0,-60 z m -20,0 -10,0 0,60 10,0 0,-60 z m -20,0 -10,0 0,60 10,0 0,-60 z"
       id="path5674" />
    <path
       inkscape:connector-curvature="0"
       style="opacity:1;fill:#000000;fill-opacity:1;stroke:none;stroke-width:9.99999905;stroke-linecap:square;stroke-miterlimit:4;stroke-dasharray:none;stroke-dashoffset:200;stroke-opacity:1"
       d="m 116.33576,179.86145 0,10 60,0 0,-10 -60,0 z m 0,20 0,10 60,0 0,-10 -60,0 z m 0,20 0,10 60,0 0,-10 -60,0 z"
       id="path5674-8" />
  </g>
</svg>
