<?xml version="1.0" encoding="UTF-8" standalone="no"?>
<!-- Created with Inkscape (http://www.inkscape.org/) -->

<svg
   xmlns:dc="http://purl.org/dc/elements/1.1/"
   xmlns:cc="http://creativecommons.org/ns#"
   xmlns:rdf="http://www.w3.org/1999/02/22-rdf-syntax-ns#"
   xmlns:svg="http://www.w3.org/2000/svg"
   xmlns="http://www.w3.org/2000/svg"
   xmlns:sodipodi="http://sodipodi.sourceforge.net/DTD/sodipodi-0.dtd"
   xmlns:inkscape="http://www.inkscape.org/namespaces/inkscape"
   width="10000"
   height="10000"
   viewBox="0 0 10000 9999.9997"
   id="svg5418"
   version="1.1"
   inkscape:version="0.91 r13725"
   sodipodi:docname="decorators.svg">
  <defs
     id="defs5420">
    <inkscape:path-effect
       effect="spiro"
       id="path-effect6981"
       is_visible="true" />
    <inkscape:path-effect
       effect="spiro"
       id="path-effect6177"
       is_visible="true" />
    <inkscape:path-effect
       effect="spiro"
       id="path-effect6981-6"
       is_visible="true" />
    <inkscape:path-effect
       effect="spiro"
       id="path-effect6177-1"
       is_visible="true" />
    <inkscape:path-effect
       effect="spiro"
       id="path-effect6177-7"
       is_visible="true" />
    <inkscape:path-effect
       effect="spiro"
       id="path-effect6981-5"
       is_visible="true" />
    <inkscape:path-effect
       effect="spiro"
       id="path-effect6981-5-3"
       is_visible="true" />
    <inkscape:path-effect
       effect="spiro"
       id="path-effect6177-7-2"
       is_visible="true" />
    <inkscape:path-effect
       effect="spiro"
       id="path-effect6981-5-3-4"
       is_visible="true" />
    <inkscape:path-effect
       effect="spiro"
       id="path-effect6177-7-2-0"
       is_visible="true" />
    <inkscape:path-effect
       effect="spiro"
       id="path-effect6981-5-3-4-4"
       is_visible="true" />
    <inkscape:path-effect
       effect="spiro"
       id="path-effect6177-7-2-0-0"
       is_visible="true" />
    <inkscape:path-effect
       effect="spiro"
       id="path-effect6981-5-3-4-4-7"
       is_visible="true" />
    <inkscape:path-effect
       effect="spiro"
       id="path-effect6177-7-2-0-0-2"
       is_visible="true" />
    <inkscape:path-effect
       effect="spiro"
       id="path-effect6981-5-3-4-4-72"
       is_visible="true" />
    <inkscape:path-effect
       effect="spiro"
       id="path-effect6177-7-2-0-0-6"
       is_visible="true" />
  </defs>
  <sodipodi:namedview
     id="base"
     pagecolor="#ffffff"
     bordercolor="#666666"
     borderopacity="1.0"
     inkscape:pageopacity="0.0"
     inkscape:pageshadow="2"
     inkscape:zoom="0.0875"
     inkscape:cx="5473.9229"
     inkscape:cy="1034.3297"
     inkscape:document-units="px"
     inkscape:current-layer="layer1"
     showgrid="true"
     inkscape:window-width="1596"
     inkscape:window-height="771"
     inkscape:window-x="0"
     inkscape:window-y="127"
     inkscape:window-maximized="0"
     units="px"
     inkscape:snap-tangential="false">
    <inkscape:grid
       type="xygrid"
       id="grid7835"
       spacingx="1024"
       spacingy="1024" />
  </sodipodi:namedview>
  <metadata
     id="metadata5423">
    <rdf:RDF>
      <cc:Work
         rdf:about="">
        <dc:format>image/svg+xml</dc:format>
        <dc:type
           rdf:resource="http://purl.org/dc/dcmitype/StillImage" />
        <dc:title />
      </cc:Work>
    </rdf:RDF>
  </metadata>
  <g
     inkscape:label="Layer 1"
     inkscape:groupmode="layer"
     id="layer1"
     transform="translate(0,8947.6376)">
    <g
       id="layer1-4"
       inkscape:label="Ebene 1"
       transform="matrix(0.74578466,0,0,0.64639115,1993.0811,134.13698)" />
    <path
       style="opacity:1;fill:#000000;fill-opacity:1;stroke:none;stroke-width:0.99999994;stroke-linecap:round;stroke-miterlimit:4;stroke-dasharray:none;stroke-dashoffset:200;stroke-opacity:1"
       d="m 3667.683,-872.97295 0,205.7451 -462.6499,0 0,388.5306 462.6499,0 0,205.725703 337.3498,-399.995803 z"
       id="rect4138"
       inkscape:connector-curvature="0"
       sodipodi:nodetypes="cccccccc" />
    <path
       style="color:#000000;font-style:normal;font-variant:normal;font-weight:normal;font-stretch:normal;font-size:medium;line-height:normal;font-family:sans-serif;text-indent:0;text-align:start;text-decoration:none;text-decoration-line:none;text-decoration-style:solid;text-decoration-color:#000000;letter-spacing:normal;word-spacing:normal;text-transform:none;direction:ltr;block-progression:tb;writing-mode:lr-tb;baseline-shift:baseline;text-anchor:start;white-space:normal;clip-rule:nonzero;display:inline;overflow:visible;visibility:visible;opacity:1;isolation:auto;mix-blend-mode:normal;color-interpolation:sRGB;color-interpolation-filters:linearRGB;solid-color:#000000;solid-opacity:1;fill:#000000;fill-opacity:1;fill-rule:nonzero;stroke:none;stroke-width:1.03356075;stroke-linecap:round;stroke-linejoin:round;stroke-miterlimit:4;stroke-dasharray:none;stroke-dashoffset:0;stroke-opacity:1;color-rendering:auto;image-rendering:auto;shape-rendering:auto;text-rendering:auto;enable-background:accumulate"
       d="m 2292.881,190.8995 0,25.127 0,754.9433 103.5547,0 412.7129,0 103.7441,0 0,-780.0703 -620.0117,0 z m 49.8867,50.0703 520.0469,0 0,679.9199 -53.666,0 -412.7129,0 -53.668,0 0,-679.9199 z m 53.668,76.541 0,49.8848 412.7129,0 0,-49.8848 -412.7129,0 z m 0,150.6055 0,50.0781 412.7129,0 0,-50.0781 -412.7129,0 z m 0,174.0391 0,49.8945 412.7129,0 0,-49.8945 -412.7129,0 z m 0,157.2226 0,49.8965 412.7129,0 0,-49.8965 -412.7129,0 z"
       id="path3453"
       inkscape:connector-curvature="0" />
    <path
       inkscape:connector-curvature="0"
       style="color:#000000;font-style:normal;font-variant:normal;font-weight:normal;font-stretch:normal;font-size:medium;line-height:normal;font-family:sans-serif;text-indent:0;text-align:start;text-decoration:none;text-decoration-line:none;text-decoration-style:solid;text-decoration-color:#000000;letter-spacing:normal;word-spacing:normal;text-transform:none;direction:ltr;block-progression:tb;writing-mode:lr-tb;baseline-shift:baseline;text-anchor:start;white-space:normal;clip-rule:nonzero;display:inline;overflow:visible;visibility:visible;opacity:1;isolation:auto;mix-blend-mode:normal;color-interpolation:sRGB;color-interpolation-filters:linearRGB;solid-color:#000000;solid-opacity:1;fill:#000000;fill-opacity:1;fill-rule:nonzero;stroke:none;stroke-width:1.03356075;stroke-linecap:round;stroke-linejoin:round;stroke-miterlimit:4;stroke-dasharray:none;stroke-dashoffset:0;stroke-opacity:1;color-rendering:auto;image-rendering:auto;shape-rendering:auto;text-rendering:auto;enable-background:accumulate"
       d="m 1571.9188,-882.48661 c -90.9216,250.5029 -164.0778,568.6942 -255,819.197063 90.9222,-90.570363 164.0784,-184.856063 255,-275.436163 l 255,275.436163 c -79.751,-250.502863 -175.2491,-568.694163 -255,-819.197063 z"
       id="path4363" />
    <path
       style="color:#000000;font-style:normal;font-variant:normal;font-weight:normal;font-stretch:normal;font-size:medium;line-height:normal;font-family:sans-serif;text-indent:0;text-align:start;text-decoration:none;text-decoration-line:none;text-decoration-style:solid;text-decoration-color:#000000;letter-spacing:normal;word-spacing:normal;text-transform:none;direction:ltr;block-progression:tb;writing-mode:lr-tb;baseline-shift:baseline;text-anchor:start;white-space:normal;clip-rule:nonzero;display:inline;overflow:visible;visibility:visible;opacity:1;isolation:auto;mix-blend-mode:normal;color-interpolation:sRGB;color-interpolation-filters:linearRGB;solid-color:#000000;solid-opacity:1;fill:#000000;fill-opacity:1;fill-rule:nonzero;stroke:none;stroke-width:1.03356075;stroke-linecap:round;stroke-linejoin:round;stroke-miterlimit:4;stroke-dasharray:none;stroke-dashoffset:0;stroke-opacity:1;color-rendering:auto;image-rendering:auto;shape-rendering:auto;text-rendering:auto;enable-background:accumulate"
       d="m 1555.6356,161.93142 c -90.9216,250.50289 -164.0778,568.69439 -255,819.19729 90.9222,-90.5704 164.0784,-184.8574 255,-275.4375 l 255,275.4375 c -79.751,-250.5029 -175.2491,-568.6944 -255,-819.19729 z m 1.8535,169.49609 c 43.7848,137.531 96.2151,312.2249 140,449.7559 l -140,-151.2208 c -49.9178,49.7303 -90.0819,101.4959 -140,151.2208 49.9181,-137.531 90.0822,-312.2249 140,-449.7559 z"
       id="path4363-3-5"
       inkscape:connector-curvature="0" />
    <path
       style="opacity:1;fill:#000000;fill-opacity:1;stroke:none;stroke-width:0.99999994;stroke-linecap:round;stroke-miterlimit:4;stroke-dasharray:none;stroke-dashoffset:200;stroke-opacity:1"
       d="m 3658.7932,155.36715 0,205.74417 -462.6504,0 0,388.5312 462.6504,0 0,205.7246 337.3496,-399.9941 -337.3496,-400.00587 z m 56.3555,149.56837 208.9668,248.5195 -208.9668,248.5156 0,-111.873 -456.0684,0 0,-271.2774 456.0684,0 0,-113.8847 z"
       id="rect4138-1"
       inkscape:connector-curvature="0" />
    <path
       style="color:#000000;font-style:normal;font-variant:normal;font-weight:normal;font-stretch:normal;font-size:medium;line-height:normal;font-family:sans-serif;text-indent:0;text-align:start;text-decoration:none;text-decoration-line:none;text-decoration-style:solid;text-decoration-color:#000000;letter-spacing:normal;word-spacing:normal;text-transform:none;direction:ltr;block-progression:tb;writing-mode:lr-tb;baseline-shift:baseline;text-anchor:start;white-space:normal;clip-rule:nonzero;display:inline;overflow:visible;visibility:visible;opacity:1;isolation:auto;mix-blend-mode:normal;color-interpolation:sRGB;color-interpolation-filters:linearRGB;solid-color:#000000;solid-opacity:1;fill:#000000;fill-opacity:1;fill-rule:nonzero;stroke:none;stroke-width:1.03356075;stroke-linecap:round;stroke-linejoin:round;stroke-miterlimit:4;stroke-dasharray:none;stroke-dashoffset:0;stroke-opacity:1;color-rendering:auto;image-rendering:auto;shape-rendering:auto;text-rendering:auto;enable-background:accumulate"
       d="m 113.73708,198.95324 0,640.0976 839.2481,0 0,-640.0976 -839.2481,0 z m 186.4336,100.0039 466.3125,0 c -77.7388,62.067 -155.4779,124.1343 -233.2168,186.2109 -77.6986,-62.0766 -155.3971,-124.1439 -233.0957,-186.2109 z m 552.9356,58.873 0,381.2168 -639.4922,0 0,-381.1875 c 106.5507,85.1523 213.1016,170.3145 319.6523,255.457 106.613,-85.1522 213.2268,-170.3244 319.8399,-255.4863 z"
       id="path7153"
       inkscape:connector-curvature="0" />
    <path
       inkscape:connector-curvature="0"
       style="color:#000000;font-style:normal;font-variant:normal;font-weight:normal;font-stretch:normal;font-size:medium;line-height:normal;font-family:sans-serif;text-indent:0;text-align:start;text-decoration:none;text-decoration-line:none;text-decoration-style:solid;text-decoration-color:#000000;letter-spacing:normal;word-spacing:normal;text-transform:none;direction:ltr;block-progression:tb;writing-mode:lr-tb;baseline-shift:baseline;text-anchor:start;white-space:normal;clip-rule:nonzero;display:inline;overflow:visible;visibility:visible;opacity:1;isolation:auto;mix-blend-mode:normal;color-interpolation:sRGB;color-interpolation-filters:linearRGB;solid-color:#000000;solid-opacity:1;fill:#000000;fill-opacity:1;fill-rule:nonzero;stroke:none;stroke-width:1.03356075;stroke-linecap:round;stroke-linejoin:round;stroke-miterlimit:4;stroke-dasharray:none;stroke-dashoffset:0;stroke-opacity:1;color-rendering:auto;image-rendering:auto;shape-rendering:auto;text-rendering:auto;enable-background:accumulate"
       d="m 182.85745,-819.23283 349.6407,283.64058 349.6406,-283.64058 -699.2813,0 z m -77.5801,65.8301 0,574.17177 840.00405,0 0,-562.46477 -412.78325,334.87298 -427.2208,-346.57998 z"
       id="path7809" />
    <path
       style="color:#000000;font-style:normal;font-variant:normal;font-weight:normal;font-stretch:normal;font-size:medium;line-height:normal;font-family:sans-serif;text-indent:0;text-align:start;text-decoration:none;text-decoration-line:none;text-decoration-style:solid;text-decoration-color:#000000;letter-spacing:normal;word-spacing:normal;text-transform:none;direction:ltr;block-progression:tb;writing-mode:lr-tb;baseline-shift:baseline;text-anchor:start;white-space:normal;clip-rule:nonzero;display:inline;overflow:visible;visibility:visible;opacity:1;isolation:auto;mix-blend-mode:normal;color-interpolation:sRGB;color-interpolation-filters:linearRGB;solid-color:#000000;solid-opacity:1;fill:#000000;fill-opacity:1;fill-rule:nonzero;stroke:none;stroke-width:49.99999619;stroke-linecap:round;stroke-linejoin:miter;stroke-miterlimit:4;stroke-dasharray:none;stroke-dashoffset:200;stroke-opacity:1;color-rendering:auto;image-rendering:auto;shape-rendering:auto;text-rendering:auto;enable-background:accumulate"
       d="m 4589.8105,159.0625 -21.8398,39.20117 -371.6269,667.04688 786.9316,0 -393.4649,-706.24805 z m 0,102.73438 308.3731,553.51367 -616.7461,0 308.373,-553.51367 z"
       id="rect4138-2"
       inkscape:connector-curvature="0" />
    <path
       inkscape:connector-curvature="0"
       style="color:#000000;font-style:normal;font-variant:normal;font-weight:normal;font-stretch:normal;font-size:medium;line-height:normal;font-family:sans-serif;text-indent:0;text-align:start;text-decoration:none;text-decoration-line:none;text-decoration-style:solid;text-decoration-color:#000000;letter-spacing:normal;word-spacing:normal;text-transform:none;direction:ltr;block-progression:tb;writing-mode:lr-tb;baseline-shift:baseline;text-anchor:start;white-space:normal;clip-rule:nonzero;display:inline;overflow:visible;visibility:visible;opacity:1;isolation:auto;mix-blend-mode:normal;color-interpolation:sRGB;color-interpolation-filters:linearRGB;solid-color:#000000;solid-opacity:1;fill:#000000;fill-opacity:1;fill-rule:nonzero;stroke:none;stroke-width:1.03356075;stroke-linecap:round;stroke-linejoin:round;stroke-miterlimit:4;stroke-dasharray:none;stroke-dashoffset:0;stroke-opacity:1;color-rendering:auto;image-rendering:auto;shape-rendering:auto;text-rendering:auto;enable-background:accumulate"
       d="m 4606.9382,-863.85099 -21.7324,39.3107 -371.7051,667.0628 786.8732,0 -393.4357,-706.3735 z"
       id="path10889" />
    <path
       inkscape:connector-curvature="0"
       style="color:#000000;font-style:normal;font-variant:normal;font-weight:normal;font-stretch:normal;font-size:medium;line-height:normal;font-family:sans-serif;text-indent:0;text-align:start;text-decoration:none;text-decoration-line:none;text-decoration-style:solid;text-decoration-color:#000000;letter-spacing:normal;word-spacing:normal;text-transform:none;direction:ltr;block-progression:tb;writing-mode:lr-tb;baseline-shift:baseline;text-anchor:start;white-space:normal;clip-rule:nonzero;display:inline;overflow:visible;visibility:visible;opacity:1;isolation:auto;mix-blend-mode:normal;color-interpolation:sRGB;color-interpolation-filters:linearRGB;solid-color:#000000;solid-opacity:1;fill:#000000;fill-opacity:1;fill-rule:nonzero;stroke:none;stroke-width:1.03356075;stroke-linecap:round;stroke-linejoin:round;stroke-miterlimit:4;stroke-dasharray:none;stroke-dashoffset:0;stroke-opacity:1;color-rendering:auto;image-rendering:auto;shape-rendering:auto;text-rendering:auto;enable-background:accumulate"
       d="m 5640.4744,-921.26323 c -146.9945,106.6991 -293.9883,213.4175 -440.9825,320.1263 56.1465,172.65547 112.293,345.30137 168.4395,517.956974 181.6947,0 363.3893,0 545.084,0 56.1466,-172.655604 112.293,-345.301504 168.4395,-517.956974 -146.9935,-106.7088 -293.987,-213.4175 -440.9805,-320.1263 z"
       id="path11562" />
    <path
       style="color:#000000;font-style:normal;font-variant:normal;font-weight:normal;font-stretch:normal;font-size:medium;line-height:normal;font-family:sans-serif;text-indent:0;text-align:start;text-decoration:none;text-decoration-line:none;text-decoration-style:solid;text-decoration-color:#000000;letter-spacing:normal;word-spacing:normal;text-transform:none;direction:ltr;block-progression:tb;writing-mode:lr-tb;baseline-shift:baseline;text-anchor:start;white-space:normal;clip-rule:nonzero;display:inline;overflow:visible;visibility:visible;opacity:1;isolation:auto;mix-blend-mode:normal;color-interpolation:sRGB;color-interpolation-filters:linearRGB;solid-color:#000000;solid-opacity:1;fill:#000000;fill-opacity:1;fill-rule:nonzero;stroke:none;stroke-width:36.98733139;stroke-linecap:round;stroke-linejoin:miter;stroke-miterlimit:4;stroke-dasharray:none;stroke-dashoffset:0;stroke-opacity:1;color-rendering:auto;image-rendering:auto;shape-rendering:auto;text-rendering:auto;enable-background:accumulate"
       d="m 6087.1709,426.28191 -440.9794,-320.1263 -14.7018,10.6718 -426.2802,309.4545 168.4392,517.9666 545.083,0 168.4392,-517.9666 z m -58.8045,19.0893 -145.9771,448.9045 -472.3982,0 -145.9771,-448.9045 382.1749,-277.4389 382.1775,277.4389 z"
       id="path4140"
       inkscape:connector-curvature="0" />
    <path
       style="color:#000000;font-style:normal;font-variant:normal;font-weight:normal;font-stretch:normal;font-size:medium;line-height:normal;font-family:sans-serif;text-indent:0;text-align:start;text-decoration:none;text-decoration-line:none;text-decoration-style:solid;text-decoration-color:#000000;letter-spacing:normal;word-spacing:normal;text-transform:none;direction:ltr;block-progression:tb;writing-mode:lr-tb;baseline-shift:baseline;text-anchor:start;white-space:normal;clip-rule:nonzero;display:inline;overflow:visible;visibility:visible;opacity:1;isolation:auto;mix-blend-mode:normal;color-interpolation:sRGB;color-interpolation-filters:linearRGB;solid-color:#000000;solid-opacity:1;fill:#000000;fill-opacity:1;fill-rule:nonzero;stroke:none;stroke-width:0.51678038;stroke-linecap:round;stroke-linejoin:miter;stroke-miterlimit:4;stroke-dasharray:none;stroke-dashoffset:200;stroke-opacity:1;color-rendering:auto;image-rendering:auto;shape-rendering:auto;text-rendering:auto;enable-background:accumulate"
       d="m 7691.6092,245.08637 -428.774,302.73007 28.9125,20.4149 399.8615,282.5088 0,-292.7162 14.3618,10.2074 399.8616,282.5088 0,-605.65377 -414.2234,292.53237 0,-292.53237 z m 364.3352,96.3756 0,412.71877 -292.1484,-206.3643 292.1484,-206.35447 z m -414.4123,0 0,412.33177 -292.1484,-206.1708 292.1484,-206.16097 z"
       id="rect4138-22"
       inkscape:connector-curvature="0" />
    <path
       style="color:#000000;font-style:normal;font-variant:normal;font-weight:normal;font-stretch:normal;font-size:medium;line-height:normal;font-family:sans-serif;text-indent:0;text-align:start;text-decoration:none;text-decoration-line:none;text-decoration-style:solid;text-decoration-color:#000000;letter-spacing:normal;word-spacing:normal;text-transform:none;direction:ltr;block-progression:tb;writing-mode:lr-tb;baseline-shift:baseline;text-anchor:start;white-space:normal;clip-rule:nonzero;display:inline;overflow:visible;visibility:visible;opacity:1;isolation:auto;mix-blend-mode:normal;color-interpolation:sRGB;color-interpolation-filters:linearRGB;solid-color:#000000;solid-opacity:1;fill:#000000;fill-opacity:1;fill-rule:nonzero;stroke:none;stroke-width:0.51678038;stroke-linecap:round;stroke-linejoin:miter;stroke-miterlimit:4;stroke-dasharray:none;stroke-dashoffset:200;stroke-opacity:1;color-rendering:auto;image-rendering:auto;shape-rendering:auto;text-rendering:auto;enable-background:accumulate"
       d="m 7691.6092,-778.91366 -428.774,302.7301 28.9125,20.4149 399.8615,282.5088 0,-292.7162 14.3618,10.2074 399.8616,282.5088 0,-605.6538 -414.2234,292.5324 0,-292.5324 z"
       id="path14333" />
    <path
       inkscape:connector-curvature="0"
       style="opacity:1;fill:#000000;fill-opacity:1;stroke:none;stroke-width:160;stroke-linecap:round;stroke-miterlimit:4;stroke-dasharray:none;stroke-opacity:1"
       d="m 9171.5448,-491.6376 a 469.83051,469.83051 0 0 1 -469.8305,469.8305 469.83051,469.83051 0 0 1 -469.8305,-469.8305 469.83051,469.83051 0 0 1 469.8305,-469.8305 469.83051,469.83051 0 0 1 469.8305,469.8305 z"
       id="circle4135" />
    <path
       sodipodi:nodetypes="ccccccc"
       inkscape:connector-curvature="0"
       id="path4137"
       d="m 190.61436,-2156.9035 266.1721,-342.1272 274.5627,314.1711 168.3222,-760.3694 -210.2353,426.1792 -261.4058,-340.0156 z"
       style="opacity:1;fill:#000000;fill-opacity:1;stroke:none;stroke-width:1;stroke-linecap:round;stroke-miterlimit:4;stroke-dasharray:none;stroke-dashoffset:200;stroke-opacity:1" />
    <path
       style="opacity:1;fill:#000000;fill-opacity:1;stroke:none;stroke-width:1;stroke-linecap:round;stroke-miterlimit:4;stroke-dasharray:none;stroke-dashoffset:200;stroke-opacity:1"
       d="m 873.11326,-1910.8332 -210.2364,426.1797 -261.4043,-340.0156 -237.416,702.1621 266.1719,-342.127 274.5625,314.1699 z m -448.3946,224.8594 248.5567,315.125 62.0781,-138.1953 -59.4316,239.1132 -253.6953,-298.4414 -102.9239,159.1172 z"
       id="path4137-6"
       inkscape:connector-curvature="0"
       sodipodi:nodetypes="cccccccccccccc" />
    <path
       inkscape:connector-curvature="0"
       style="color:#000000;font-style:normal;font-variant:normal;font-weight:normal;font-stretch:normal;font-size:medium;line-height:normal;font-family:sans-serif;text-indent:0;text-align:start;text-decoration:none;text-decoration-line:none;text-decoration-style:solid;text-decoration-color:#000000;letter-spacing:normal;word-spacing:normal;text-transform:none;direction:ltr;block-progression:tb;writing-mode:lr-tb;baseline-shift:baseline;text-anchor:start;white-space:normal;clip-rule:nonzero;display:inline;overflow:visible;visibility:visible;opacity:1;isolation:auto;mix-blend-mode:normal;color-interpolation:sRGB;color-interpolation-filters:linearRGB;solid-color:#000000;solid-opacity:1;fill:#000000;fill-opacity:1;fill-rule:nonzero;stroke:none;stroke-width:0.51678038;stroke-linecap:round;stroke-linejoin:round;stroke-miterlimit:4;stroke-dasharray:none;stroke-dashoffset:0;stroke-opacity:1;color-rendering:auto;image-rendering:auto;shape-rendering:auto;text-rendering:auto;enable-background:accumulate"
       d="m 1513.0407,-7893.1812 c -0.01,0 -9.6137,1.8379 -9.6211,1.8379 -0.01,0 -8.1449,5.5156 -8.1504,5.5156 l -30.7324,30.7383 c -0.01,0 -5.6106,8.2236 -5.6133,8.3203 0,0.01 -1.737,9.4824 -1.7363,9.4824 -7e-4,0.01 1.8677,9.3848 1.8711,9.3848 0,0.01 5.3375,8.3203 5.3437,8.3203 l 280.707,280.7031 -280.5722,280.5704 0,-0.086 c 0,0.01 -5.6106,8.3203 -5.6133,8.3203 0,0.01 -1.7363,9.4805 -1.7363,9.4805 0,0.01 1.8683,9.3867 1.8711,9.3867 0,0 5.3383,8.2236 5.3437,8.3203 l 30.7344,30.7285 c 0.01,0.01 8.4105,5.5157 8.4179,5.5157 0.01,0 9.3453,1.8379 9.3536,1.8379 0.01,0 9.4788,-1.7422 9.4863,-1.7422 0.01,0 8.2796,-5.6114 8.2851,-5.6114 l 280.5762,-280.5761 280.6367,280.6347 c 0.01,0.01 8.4112,5.5137 8.418,5.5137 0.01,0 9.3477,1.8379 9.3554,1.8379 0.01,0 9.4786,-1.7402 9.4864,-1.7402 0.01,0 8.2774,-5.6114 8.2832,-5.6114 l 30.7343,-30.7285 c 0.01,-0.01 5.4747,-8.1289 5.4786,-8.1289 0,-0.01 1.8711,-9.5771 1.8711,-9.6738 0,-0.01 -1.8692,-9.3867 -1.8731,-9.3867 0,0 -5.4717,-8.416 -5.4785,-8.416 l -280.6055,-280.6075 280.6074,-280.6074 c 0.01,0 5.4747,-8.1289 5.4786,-8.1289 0,-0.01 1.8711,-9.5781 1.8711,-9.5781 0,-0.01 -1.8682,-9.3848 -1.8711,-9.3848 0,-0.01 -5.6056,-8.3203 -5.6114,-8.3203 l -30.7343,-30.7383 c -0.01,0 -8.1437,-5.5156 -8.1504,-5.5156 -0.01,0 -9.3448,-1.8379 -9.3535,-1.8379 -0.01,0 -9.6124,1.8379 -9.6192,1.8379 -0.01,0 -8.1455,5.5156 -8.1504,5.5156 l -280.6133,280.6133 -280.7382,-280.7402 0,-0.096 c -0.01,0 -8.2783,-5.3223 -8.2852,-5.3223 -0.01,0 -9.3459,-1.8379 -9.3535,-1.8379 z"
       id="rect20398" />
    <path
       style="color:#000000;font-style:normal;font-variant:normal;font-weight:normal;font-stretch:normal;font-size:medium;line-height:normal;font-family:sans-serif;text-indent:0;text-align:start;text-decoration:none;text-decoration-line:none;text-decoration-style:solid;text-decoration-color:#000000;letter-spacing:normal;word-spacing:normal;text-transform:none;direction:ltr;block-progression:tb;writing-mode:lr-tb;baseline-shift:baseline;text-anchor:start;white-space:normal;clip-rule:nonzero;display:inline;overflow:visible;visibility:visible;opacity:1;isolation:auto;mix-blend-mode:normal;color-interpolation:sRGB;color-interpolation-filters:linearRGB;solid-color:#000000;solid-opacity:1;fill:#000000;fill-opacity:1;fill-rule:nonzero;stroke:none;stroke-width:0.51678038;stroke-linecap:round;stroke-linejoin:round;stroke-miterlimit:4;stroke-dasharray:none;stroke-dashoffset:0;stroke-opacity:1;color-rendering:auto;image-rendering:auto;shape-rendering:auto;text-rendering:auto;enable-background:accumulate"
       d="m 183.97706,-7772.4458 c -0.01,0.01 -5.4983,8.1273 -5.5036,8.1273 -0.01,0 -1.8591,9.6752 -1.8631,9.6752 l 0,43.4711 c 0,0 1.8477,9.7817 1.9142,9.8495 0,0.01 5.4768,7.9337 5.4773,7.9337 0.01,0.01 7.9566,5.3214 7.9591,5.3214 0.01,0.01 9.6575,2.1286 9.6619,2.1286 l 396.977,0 0,396.7836 -0.061,-0.058 c 0,0.01 1.9161,9.8494 1.9141,9.8494 0,0.01 5.4759,7.9338 5.4759,7.9338 0.01,0.01 7.9586,5.3214 7.9605,5.3214 0,0 9.5898,2.0318 9.6619,2.1285 l 43.4609,-0.01 c 0.011,0 9.8473,-2.0319 9.8525,-2.0319 0,0 7.9076,-5.3214 7.9134,-5.3214 0.01,-0.01 5.4704,-7.9337 5.4762,-7.9337 0,0 1.8867,-9.8204 1.8906,-9.8204 l 10e-5,-396.803 396.87884,0 c 0.011,0.01 9.8465,-2.0318 9.8513,-2.0318 0.01,0 7.9096,-5.3214 7.9144,-5.3214 0.01,-0.01 5.4714,-7.9338 5.4772,-7.9338 0,0 1.8847,-9.8204 1.8896,-9.8204 l 0,-43.4614 c 0,-0.01 -1.8771,-9.5785 -1.8742,-9.6753 -0.01,-0.01 -5.4491,-8.1272 -5.5168,-8.1272 -0.01,-0.01 -7.9589,-5.3214 -7.9618,-5.3214 0,0.01 -9.82,-2.1286 -9.8249,-2.0318 l -396.83764,0 0,-396.8417 c 0,-0.01 -1.877,-9.5785 -1.8741,-9.6753 -0.01,-0.01 -5.4501,-8.1272 -5.4501,-8.1272 -0.01,-0.01 -7.9569,-5.3214 -7.9589,-5.3214 -0.01,0 -9.8471,-1.9351 -9.8512,-1.9351 l -43.4679,-0.01 c 0,0.01 -9.6585,1.8383 -9.6633,1.8383 -0.01,0 -7.9074,5.3214 -7.9136,5.3214 -0.01,0.01 -5.4974,8.1273 -5.5022,8.1273 0,0.01 -1.8596,9.6752 -1.8631,9.6752 l 0,396.8514 -397.0253,0 -0.066,-0.077 c 0,0.01 -9.617,2.1286 -9.6219,2.1286 -0.01,0.01 -7.9082,5.3214 -7.9135,5.3214 z"
       id="rect20398-4"
       inkscape:connector-curvature="0" />
    <path
       style="color:#000000;font-style:normal;font-variant:normal;font-weight:normal;font-stretch:normal;font-size:medium;line-height:normal;font-family:sans-serif;text-indent:0;text-align:start;text-decoration:none;text-decoration-line:none;text-decoration-style:solid;text-decoration-color:#000000;letter-spacing:normal;word-spacing:normal;text-transform:none;direction:ltr;block-progression:tb;writing-mode:lr-tb;baseline-shift:baseline;text-anchor:start;white-space:normal;clip-rule:nonzero;display:inline;overflow:visible;visibility:visible;opacity:1;isolation:auto;mix-blend-mode:normal;color-interpolation:sRGB;color-interpolation-filters:linearRGB;solid-color:#000000;solid-opacity:1;fill:#000000;fill-opacity:1;fill-rule:nonzero;stroke:none;stroke-width:0.51678038;stroke-linecap:round;stroke-linejoin:round;stroke-miterlimit:4;stroke-dasharray:none;stroke-dashoffset:0;stroke-opacity:1;color-rendering:auto;image-rendering:auto;shape-rendering:auto;text-rendering:auto;enable-background:accumulate"
       d="m 2921.9081,-8064.9076 c -237.2318,0 -430,192.7801 -430,430.0086 0,237.2284 192.7682,429.9989 430,429.9989 237.2319,0 430,-192.7705 430,-429.9989 0,-237.2285 -192.7681,-430.0086 -430,-430.0086 z m 0,47.6895 c 211.4073,0 382.3226,170.914 382.3226,382.3191 0,211.405 -170.9153,382.3287 -382.3226,382.3287 -211.4072,0 -382.3226,-170.9237 -382.3226,-382.3287 0,-211.4051 170.9154,-382.3191 382.3226,-382.3191 z"
       id="path20910-5"
       inkscape:connector-curvature="0" />
    <path
       inkscape:connector-curvature="0"
       style="color:#000000;font-style:normal;font-variant:normal;font-weight:normal;font-stretch:normal;font-size:medium;line-height:normal;font-family:sans-serif;text-indent:0;text-align:start;text-decoration:none;text-decoration-line:none;text-decoration-style:solid;text-decoration-color:#000000;letter-spacing:normal;word-spacing:normal;text-transform:none;direction:ltr;block-progression:tb;writing-mode:lr-tb;baseline-shift:baseline;text-anchor:start;white-space:normal;clip-rule:nonzero;display:inline;overflow:visible;visibility:visible;opacity:1;isolation:auto;mix-blend-mode:normal;color-interpolation:sRGB;color-interpolation-filters:linearRGB;solid-color:#000000;solid-opacity:1;fill:#000000;fill-opacity:1;fill-rule:nonzero;stroke:none;stroke-width:0.51678038;stroke-linecap:round;stroke-linejoin:round;stroke-miterlimit:4;stroke-dasharray:none;stroke-dashoffset:0;stroke-opacity:1;color-rendering:auto;image-rendering:auto;shape-rendering:auto;text-rendering:auto;enable-background:accumulate"
       d="m 3983.8458,-8089.3562 c 0,0.01 -8.3669,1.5469 -8.3711,1.5469 -0.01,0 -6.8521,4.6445 -6.8574,4.6445 -0.01,0 -4.7634,7.0645 -4.7676,7.0645 0,0.01 -1.6103,8.416 -1.6133,8.416 l 0,286.2402 -202.6406,-202.6445 0.01,0 c -0.01,0 -7.1958,-4.6446 -7.1992,-4.6446 -0.012,0 -8.1041,-1.6445 -8.1074,-1.6445 l 0.062,0.3965 c -0.012,0 -8.3484,1.5469 -8.3516,1.5469 -0.01,-0.01 -7.0659,4.7422 -7.0684,4.7422 l -26.6328,26.625 c 0,0 -4.8605,7.1601 -4.8613,7.1601 -0.01,0 -1.5041,8.2246 -1.5039,8.2246 2e-4,0.01 1.6137,8.127 1.6152,8.127 2e-4,0.019 4.6125,7.1601 4.6153,7.1601 l 202.539,202.543 -286.457,0 -0.057,-0.068 c 0,0.01 -8.3317,1.8379 -8.336,1.8379 -0.01,0.01 -6.8509,4.6445 -6.8554,4.6445 l 0,-0.049 c -0.01,0.01 -4.7631,7.0625 -4.7676,7.0625 -0.01,0 -1.6119,8.418 -1.6152,8.418 l 0,37.666 c 0,0 1.6006,8.5137 1.6582,8.5137 0,0.01 4.7456,6.8711 4.7461,6.8711 0.01,0 6.8942,4.6426 6.8964,4.6426 0.01,0.01 8.3673,1.8398 8.3711,1.8398 l 286.3594,0 -202.3672,202.3672 0,-0.076 c -0.01,0.01 -4.86,7.1582 -4.8613,7.1582 -0.01,0.01 -1.5059,8.2246 -1.5059,8.2246 2e-4,0.019 1.6161,8.127 1.6172,8.127 0,0 4.6307,7.1602 4.6153,7.1602 l 26.6367,26.6171 c 0.01,0.01 7.278,4.7403 7.2812,4.7403 0,0 8.104,1.6445 8.1074,1.6445 0.012,0 8.2126,-1.5469 8.2168,-1.5469 0,0 7.1714,-4.8379 7.1739,-4.8379 l 202.6679,-202.664 0,286.8574 -0.053,-0.057 c 0,0.01 1.66,8.5136 1.6582,8.5136 0,0.01 4.7442,6.8692 4.7442,6.8692 0.01,0.01 6.8947,4.6445 6.8965,4.6445 0,0 8.3086,1.7411 8.3711,1.8379 l 37.6543,-0.01 c 0.01,0 8.5322,-1.7422 8.5371,-1.7422 0,0 6.8506,-4.6425 6.8554,-4.6425 0.01,-0.01 4.7413,-6.8711 4.7461,-6.8711 0,0 1.6329,-8.5137 1.6367,-8.5137 l 0,-286.6953 202.5235,202.5195 c -0.01,0.019 7.2754,4.7422 7.2793,4.7422 0.01,0.01 8.1065,1.5469 8.1094,1.5469 0.012,0 8.2129,-1.5469 8.2168,-1.5469 0,0 7.1699,-4.8379 7.1738,-4.8379 l 26.625,-26.6269 c 0.01,0 4.7193,-7.0625 4.7793,-7.0625 -2e-4,-0.01 1.6402,-8.3213 1.5996,-8.418 -2e-4,-0.01 -1.6153,-8.127 -1.6172,-8.127 -0.012,0.019 -4.7135,-7.2558 -4.7754,-7.2558 l -202.0156,-202.0293 285.957,0 c 0.01,0.01 8.5313,-1.7422 8.5352,-1.7422 0.01,0 6.8516,-4.6445 6.8554,-4.6445 0.01,-0.01 4.7403,-6.8692 4.7461,-6.8692 0,0 1.6329,-8.5136 1.6368,-8.5136 l 0,-37.6563 c 0,-0.01 -1.626,-8.3212 -1.6231,-8.418 -0.01,-0.01 -4.7212,-7.0625 -4.7793,-7.0625 -0.01,-0.01 -6.8955,-4.6445 -6.8984,-4.6445 0,0.01 -8.5079,-1.839 -8.5117,-1.7422 l -286.8243,0 202.9258,-202.9199 c 0.01,-0.01 4.7174,-7.0625 4.7774,-7.0625 -2e-4,-0.01 1.6425,-8.3203 1.6425,-8.3203 -2e-4,-0.01 -1.6162,-8.127 -1.6171,-8.127 -0.01,-0.01 -4.8477,-7.1601 -4.8497,-7.1601 l -26.6289,-26.627 c -0.01,0 -7.0439,-4.7402 -7.0468,-4.7402 -0.01,-0.01 -8.1046,-1.5489 -8.1094,-1.5489 -0.012,0 -8.3467,1.5489 -8.3496,1.5489 -0.01,0.01 -7.0664,4.7402 -7.0684,4.7402 l -202.6719,202.668 0,-286.2715 c 0,-0.01 -1.6259,-8.3212 -1.623,-8.418 -0.01,-0.01 -4.7207,-7.0625 -4.7207,-7.0625 -0.01,-0.01 -6.8946,-4.6445 -6.8965,-4.6445 -0.01,0 -8.5322,-1.6445 -8.5351,-1.6445 l -37.6602,-0.01 z"
       id="rect20398-4-7" />
    <path
       style="color:#000000;font-style:normal;font-variant:normal;font-weight:normal;font-stretch:normal;font-size:medium;line-height:normal;font-family:sans-serif;text-indent:0;text-align:start;text-decoration:none;text-decoration-line:none;text-decoration-style:solid;text-decoration-color:#000000;letter-spacing:normal;word-spacing:normal;text-transform:none;direction:ltr;block-progression:tb;writing-mode:lr-tb;baseline-shift:baseline;text-anchor:start;white-space:normal;clip-rule:nonzero;display:inline;overflow:visible;visibility:visible;opacity:1;isolation:auto;mix-blend-mode:normal;color-interpolation:sRGB;color-interpolation-filters:linearRGB;solid-color:#000000;solid-opacity:1;fill:#000000;fill-opacity:1;fill-rule:nonzero;stroke:none;stroke-width:80;stroke-linecap:round;stroke-linejoin:round;stroke-miterlimit:4;stroke-dasharray:none;stroke-dashoffset:0;stroke-opacity:1;color-rendering:auto;image-rendering:auto;shape-rendering:auto;text-rendering:auto;enable-background:accumulate"
       d="m 2552.7898,-1917.0312 c -174.4842,-2.3799 -342.27,111.3275 -406.4915,273.2582 -65.7902,155.8008 -29.4187,347.5708 88.8851,468.4426 115.0263,123.8297 304.5532,169.4637 463.3054,111.4273 166.3595,-56.6747 288.5746,-221.2313 292.9783,-397.19 8.8625,-170.9452 -93.875,-339.9699 -248.5592,-412.5671 -59.0266,-28.5789 -124.5461,-43.4575 -190.1181,-43.371 z m 0,80 c 159.4805,-3.0204 310.6037,114.043 347.727,269.1222 40.6988,149.0185 -27.8712,318.9347 -161.362,397.0144 -136.3004,85.5433 -328.4699,62.7465 -440.394,-53.1076 -118.1139,-113.9435 -139.1474,-311.087 -48.5313,-447.736 64.1785,-101.9465 182.0501,-166.4666 302.5603,-165.293 z m 113.4199,102.0176 c -39.9674,72.5091 -79.9349,145.0182 -119.9023,217.5273 -37.0324,3.9378 -45.8293,60.121 -11.6614,75.1054 22.5699,15.6663 40.2472,-10.392 60.793,-9.494 61.0974,0 122.1948,0 183.2922,0 0,-16.6667 0,-33.3333 0,-50 -61.3125,0 -122.625,0 -183.9375,0 38.4017,-69.668 76.8034,-139.3359 115.2051,-209.0039 -14.5964,-8.0449 -29.1927,-16.0899 -43.7891,-24.1348 z"
       id="path3487-0-6-2"
       inkscape:connector-curvature="0" />
    <path
       style="color:#000000;font-style:normal;font-variant:normal;font-weight:normal;font-stretch:normal;font-size:medium;line-height:normal;font-family:sans-serif;text-indent:0;text-align:start;text-decoration:none;text-decoration-line:none;text-decoration-style:solid;text-decoration-color:#000000;letter-spacing:normal;word-spacing:normal;text-transform:none;direction:ltr;block-progression:tb;writing-mode:lr-tb;baseline-shift:baseline;text-anchor:start;white-space:normal;clip-rule:nonzero;display:inline;overflow:visible;visibility:visible;opacity:1;isolation:auto;mix-blend-mode:normal;color-interpolation:sRGB;color-interpolation-filters:linearRGB;solid-color:#000000;solid-opacity:1;fill:#000000;fill-opacity:1;fill-rule:nonzero;stroke:none;stroke-width:0.51678038;stroke-linecap:round;stroke-linejoin:miter;stroke-miterlimit:4;stroke-dasharray:none;stroke-dashoffset:200;stroke-opacity:1;color-rendering:auto;image-rendering:auto;shape-rendering:auto;text-rendering:auto;enable-background:accumulate"
       d="m 3818.1593,-2908.8509 -226.4729,226.4729 -230.6322,-230.6321 -179.2258,179.2258 230.6322,230.6322 -226.4662,226.4661 176.3814,176.3814 226.4662,-226.4661 230.7658,230.7658 179.2258,-179.2258 -230.7658,-230.7658 226.4729,-226.473 z"
       id="path8845"
       inkscape:connector-curvature="0" />
    <path
       style="color:#000000;font-style:normal;font-variant:normal;font-weight:normal;font-stretch:normal;font-size:medium;line-height:normal;font-family:sans-serif;text-indent:0;text-align:start;text-decoration:none;text-decoration-line:none;text-decoration-style:solid;text-decoration-color:#000000;letter-spacing:normal;word-spacing:normal;text-transform:none;direction:ltr;block-progression:tb;writing-mode:lr-tb;baseline-shift:baseline;text-anchor:start;white-space:normal;clip-rule:nonzero;display:inline;overflow:visible;visibility:visible;opacity:1;isolation:auto;mix-blend-mode:normal;color-interpolation:sRGB;color-interpolation-filters:linearRGB;solid-color:#000000;solid-opacity:1;fill:#000000;fill-opacity:1;fill-rule:nonzero;stroke:none;stroke-width:0.51678038;stroke-linecap:round;stroke-linejoin:miter;stroke-miterlimit:4;stroke-dasharray:none;stroke-dashoffset:200;stroke-opacity:1;color-rendering:auto;image-rendering:auto;shape-rendering:auto;text-rendering:auto;enable-background:accumulate"
       d="m 3807.7631,-1890.6172 -226.4729,226.4729 -230.6322,-230.6321 -179.2258,179.2258 230.6322,230.6322 -226.4662,226.4661 176.3814,176.3814 226.4662,-226.4661 230.7658,230.7658 179.2258,-179.2258 -230.7658,-230.7658 226.4729,-226.473 z m 0,70.8213 105.6953,105.6953 -226.4661,226.466 230.6321,230.6322 -108.4099,108.4098 -230.6321,-230.6321 -226.4661,226.4661 -105.6953,-105.6953 226.4661,-226.4661 -230.7657,-230.7657 108.4099,-108.4099 230.7657,230.7658 17.7673,-17.7673 z"
       id="rect4138-4-9-8"
       inkscape:connector-curvature="0"
       sodipodi:nodetypes="ccccccccccccccccccccccccccc" />
    <path
       style="color:#000000;font-style:normal;font-variant:normal;font-weight:normal;font-stretch:normal;font-size:medium;line-height:normal;font-family:sans-serif;text-indent:0;text-align:start;text-decoration:none;text-decoration-line:none;text-decoration-style:solid;text-decoration-color:#000000;letter-spacing:normal;word-spacing:normal;text-transform:none;direction:ltr;block-progression:tb;writing-mode:lr-tb;baseline-shift:baseline;text-anchor:start;white-space:normal;clip-rule:nonzero;display:inline;overflow:visible;visibility:visible;opacity:0.98000004;isolation:auto;mix-blend-mode:normal;color-interpolation:sRGB;color-interpolation-filters:linearRGB;solid-color:#000000;solid-opacity:1;fill:#000000;fill-opacity:1;fill-rule:nonzero;stroke:none;stroke-width:50;stroke-linecap:square;stroke-linejoin:miter;stroke-miterlimit:4;stroke-dasharray:none;stroke-dashoffset:0;stroke-opacity:1;color-rendering:auto;image-rendering:auto;shape-rendering:auto;text-rendering:auto;enable-background:accumulate"
       d="m 6538.2857,147.2195 0,256 -256,0 0,288 256,0 0,256 288,0 0,-256 256,0 0,-288.001 -256,0 0,-255.999 z m 48,48 192,0 0,256 256,0 0,192 -256,0 0,256 -192,0 0,-257.5004 -256,0 0,-190.4996 256,0 z"
       id="rect10567-3"
       inkscape:connector-curvature="0"
       sodipodi:nodetypes="cccccccccccccccccccccccccc" />
    <path
       style="color:#000000;font-style:normal;font-variant:normal;font-weight:normal;font-stretch:normal;font-size:medium;line-height:normal;font-family:sans-serif;text-indent:0;text-align:start;text-decoration:none;text-decoration-line:none;text-decoration-style:solid;text-decoration-color:#000000;letter-spacing:normal;word-spacing:normal;text-transform:none;direction:ltr;block-progression:tb;writing-mode:lr-tb;baseline-shift:baseline;text-anchor:start;white-space:normal;clip-rule:nonzero;display:inline;overflow:visible;visibility:visible;opacity:0.98000004;isolation:auto;mix-blend-mode:normal;color-interpolation:sRGB;color-interpolation-filters:linearRGB;solid-color:#000000;solid-opacity:1;fill:#000000;fill-opacity:1;fill-rule:nonzero;stroke:none;stroke-width:50;stroke-linecap:square;stroke-linejoin:miter;stroke-miterlimit:4;stroke-dasharray:none;stroke-dashoffset:0;stroke-opacity:1;color-rendering:auto;image-rendering:auto;shape-rendering:auto;text-rendering:auto;enable-background:accumulate"
       d="m 6538.2857,-1900.7806 0,256 -256,0 0,288 256,0 0,256 288,0 0,-256 256,0 0,-288.001 -256,0 0,-255.999 z"
       id="path11332" />
  </g>
</svg>
