<?xml version="1.0" encoding="UTF-8" standalone="no"?>
<svg
   xmlns:dc="http://purl.org/dc/elements/1.1/"
   xmlns:cc="http://creativecommons.org/ns#"
   xmlns:rdf="http://www.w3.org/1999/02/22-rdf-syntax-ns#"
   xmlns:svg="http://www.w3.org/2000/svg"
   xmlns="http://www.w3.org/2000/svg"
   version="1.1"
   id="svg2"
   viewBox="0 0 2000 2000"
   height="2000"
   width="2000">
  <defs
     id="defs4" />
  <metadata
     id="metadata7">
    <rdf:RDF>
      <cc:Work
         rdf:about="">
        <dc:format>image/svg+xml</dc:format>
        <dc:type
           rdf:resource="http://purl.org/dc/dcmitype/StillImage" />
        <dc:title></dc:title>
        <cc:license
           rdf:resource="https://github.com/bpmn-io/bpmn-font/blob/master/LICENSE" />
        <dc:creator>
          <cc:Agent>
            <dc:title>Jörg Dotzki</dc:title>
          </cc:Agent>
        </dc:creator>
        <dc:subject>
          <rdf:Bag>
            <rdf:li>BPMN</rdf:li>
            <rdf:li>bpmn-io</rdf:li>
            <rdf:li>bpmn.io</rdf:li>
            <rdf:li>Font</rdf:li>
          </rdf:Bag>
        </dc:subject>
      </cc:Work>
    </rdf:RDF>
  </metadata>
  <g
     transform="translate(0,947.63784)"
     id="layer1">
    <path
       id="rect4136"
       d="m 300.00001,92.232481 c 58.33243,-138.228514 134.89425,-282.230651 266.546,-360.085751 97.7838,-58.39135 218.70131,-22.41896 308.42844,34.81898 138.18715,85.20714 246.29115,211.842759 382.60565,299.507821 82.3352,48.264229 184.7331,8.717415 244.7474,-58.0565283 C 1574.729,-76.028426 1657.5431,-155.60546 1700,-261.56396 c 0,110.01254 0,220.025092 0,330.037636 C 1638.6687,190.14392 1559.7687,316.62637 1433.608,375.64299 1330.3799,420.08262 1210.4599,393.43191 1121.0842,329.05734 990.06485,241.07844 893.59804,105.3675 751.22975,34.277737 682.05792,-1.7268886 593.85297,6.7321249 535.89898,60.900295 431.41199,153.40413 371.53434,284.22024 300.00001,402.36216 c 0,-103.37656 0,-206.75312 0,-310.129679 z"
       style="opacity:1;fill:#000000;fill-opacity:1;stroke:none;stroke-width:20;stroke-linecap:round;stroke-miterlimit:4;stroke-dasharray:none;stroke-dashoffset:200;stroke-opacity:1" />
  </g>
</svg>
