<?xml version="1.0" encoding="UTF-8" standalone="no"?>
<svg
   xmlns:dc="http://purl.org/dc/elements/1.1/"
   xmlns:cc="http://creativecommons.org/ns#"
   xmlns:rdf="http://www.w3.org/1999/02/22-rdf-syntax-ns#"
   xmlns:svg="http://www.w3.org/2000/svg"
   xmlns="http://www.w3.org/2000/svg"
   version="1.1"
   id="svg2"
   viewBox="0 0 2000 2000"
   height="2000"
   width="2000">
  <defs
     id="defs4" />
  <metadata
     id="metadata7">
    <rdf:RDF>
      <cc:Work
         rdf:about="">
        <dc:format>image/svg+xml</dc:format>
        <dc:type
           rdf:resource="http://purl.org/dc/dcmitype/StillImage" />
        <dc:title></dc:title>
        <cc:license
           rdf:resource="https://github.com/bpmn-io/bpmn-font/blob/master/LICENSE" />
        <dc:creator>
          <cc:Agent>
            <dc:title>Jörg Dotzki</dc:title>
          </cc:Agent>
        </dc:creator>
        <dc:subject>
          <rdf:Bag>
            <rdf:li>BPMN</rdf:li>
            <rdf:li>bpmn-io</rdf:li>
            <rdf:li>bpmn.io</rdf:li>
            <rdf:li>Font</rdf:li>
          </rdf:Bag>
        </dc:subject>
      </cc:Work>
    </rdf:RDF>
  </metadata>
  <g
     transform="translate(0,947.63784)"
     id="layer1">
    <path
       id="path4417"
       d="m 1003.1719,-427.54214 c -39.60796,5.794 -68.12868,38.56118 -102.1447,57.51603 -186.37683,125.49923 -373.21723,250.34472 -559.3042,376.25275 -35.93279,27.59579 -23.84863,86.43052 16.0756,103.58172 206.32507,138.4236 412.21958,277.524 618.81387,415.5246 41.83143,24.8132 96.65733,-16.1808 88.32893,-63.0759 0,-105.8146 0,-211.6291 0,-317.4437 188.9638,126.7544 377.4965,254.1864 566.7296,380.5177 41.8315,24.8133 96.6575,-16.1808 88.329,-63.076 -0.2007,-278.6032 0.4013,-557.22646 -0.3009,-835.81704 -2.7279,-48.53139 -67.3754,-71.26567 -101.6214,-38.12699 -184.3787,123.91483 -368.7575,247.82966 -553.1363,371.74449 -0.7888,-113.15884 1.5844,-226.51615 -1.1984,-339.55004 -5.2041,-28.0178 -32.0958,-49.35538 -60.5711,-48.04762 z m -58.23049,172.58399 c 0,204.92837 0,409.85671 0,614.78511 C 792.48112,257.36276 640.02084,154.89866 487.56055,52.43446 640.02084,-50.02974 792.48112,-152.49395 944.94141,-254.95815 Z M 1600,-254.9562 c 0,204.92709 0,409.85416 0,614.78126 C 1447.5397,257.36156 1295.0794,154.89796 1142.6191,52.43446 1295.0794,-50.02909 1447.5397,-152.49265 1600,-254.9562 Z"
       style="color:#000000;font-style:normal;font-variant:normal;font-weight:normal;font-stretch:normal;font-size:medium;line-height:normal;font-family:sans-serif;text-indent:0;text-align:start;text-decoration:none;text-decoration-line:none;text-decoration-style:solid;text-decoration-color:#000000;letter-spacing:normal;word-spacing:normal;text-transform:none;direction:ltr;block-progression:tb;writing-mode:lr-tb;baseline-shift:baseline;text-anchor:start;white-space:normal;clip-rule:nonzero;display:inline;overflow:visible;visibility:visible;opacity:1;isolation:auto;mix-blend-mode:normal;color-interpolation:sRGB;color-interpolation-filters:linearRGB;solid-color:#000000;solid-opacity:1;fill:#000000;fill-opacity:1;fill-rule:nonzero;stroke:none;stroke-width:120;stroke-linecap:round;stroke-linejoin:round;stroke-miterlimit:4;stroke-dasharray:none;stroke-dashoffset:200;stroke-opacity:1;color-rendering:auto;image-rendering:auto;shape-rendering:auto;text-rendering:auto;enable-background:accumulate" />
  </g>
</svg>
