<?xml version="1.0" encoding="UTF-8" standalone="no"?>
<svg
   xmlns:dc="http://purl.org/dc/elements/1.1/"
   xmlns:cc="http://creativecommons.org/ns#"
   xmlns:rdf="http://www.w3.org/1999/02/22-rdf-syntax-ns#"
   xmlns:svg="http://www.w3.org/2000/svg"
   xmlns="http://www.w3.org/2000/svg"
   version="1.1"
   id="svg2"
   viewBox="0 0 2000 2000"
   height="2000"
   width="2000">
  <defs
     id="defs4" />
  <metadata
     id="metadata7">
    <rdf:RDF>
      <cc:Work
         rdf:about="">
        <dc:format>image/svg+xml</dc:format>
        <dc:type
           rdf:resource="http://purl.org/dc/dcmitype/StillImage" />
        <dc:title></dc:title>
        <cc:license
           rdf:resource="https://github.com/bpmn-io/bpmn-font/blob/master/LICENSE" />
        <dc:creator>
          <cc:Agent>
            <dc:title>Jörg Dotzki</dc:title>
          </cc:Agent>
        </dc:creator>
        <dc:subject>
          <rdf:Bag>
            <rdf:li>BPMN</rdf:li>
            <rdf:li>bpmn-io</rdf:li>
            <rdf:li>bpmn.io</rdf:li>
            <rdf:li>Font</rdf:li>
          </rdf:Bag>
        </dc:subject>
      </cc:Work>
    </rdf:RDF>
  </metadata>
  <g
     transform="translate(0,947.63784)"
     id="layer1">
    <path
       id="path4451"
       d="m 1057.0703,-536.8019 c -251.96066,-3.53538 -493.62301,172.22866 -565.93613,414.14756 -55.58419,173.97657 -23.10548,373.061 85.52208,520.0263 -89.69531,-17.3633 -179.39063,-34.7266 -269.08594,-52.0899 -7.60156,39.2715 -15.20313,78.543 -22.80469,117.8145 161.28841,31.2213 322.57683,62.4427 483.86524,93.664 31.22917,-159.9954 62.45833,-319.9909 93.6875,-479.9863 -39.25977,-7.6628 -78.51953,-15.3255 -117.7793,-22.9883 -18.95378,97.1055 -37.90755,194.2109 -56.86133,291.3164 -138.7329,-165.6011 -136.72949,-427.77296 4.36682,-591.37897 137.41756,-171.71599 399.20335,-221.00758 590.73365,-114 183.2317,94.56792 284.8875,318.59636 234.8961,518.74577 -44.7698,208.9108 -247.4038,367.3398 -460.604,363.0532 -55.485,-3.9353 -83.37472,76.1957 -37.4367,107.5608 40.1043,24.9864 90.8465,7.3636 134.8085,4.4747 248.1809,-37.7478 457.5194,-249.4518 489.5199,-498.9095 36.9941,-238.02524 -91.3838,-488.93562 -304.8033,-600.24159 -86.1681,-46.76847 -184.0681,-71.36408 -282.0884,-71.20867 z"
       style="color:#000000;font-style:normal;font-variant:normal;font-weight:normal;font-stretch:normal;font-size:medium;line-height:normal;font-family:sans-serif;text-indent:0;text-align:start;text-decoration:none;text-decoration-line:none;text-decoration-style:solid;text-decoration-color:#000000;letter-spacing:normal;word-spacing:normal;text-transform:none;direction:ltr;block-progression:tb;writing-mode:lr-tb;baseline-shift:baseline;text-anchor:start;white-space:normal;clip-rule:nonzero;display:inline;overflow:visible;visibility:visible;opacity:1;isolation:auto;mix-blend-mode:normal;color-interpolation:sRGB;color-interpolation-filters:linearRGB;solid-color:#000000;solid-opacity:1;fill:#000000;fill-opacity:1;fill-rule:nonzero;stroke:none;stroke-width:120;stroke-linecap:round;stroke-linejoin:round;stroke-miterlimit:4;stroke-dasharray:none;stroke-dashoffset:200;stroke-opacity:1;color-rendering:auto;image-rendering:auto;shape-rendering:auto;text-rendering:auto;enable-background:accumulate" />
  </g>
</svg>
