<?xml version="1.0" encoding="UTF-8" standalone="no"?>
<svg
   xmlns:dc="http://purl.org/dc/elements/1.1/"
   xmlns:cc="http://creativecommons.org/ns#"
   xmlns:rdf="http://www.w3.org/1999/02/22-rdf-syntax-ns#"
   xmlns:svg="http://www.w3.org/2000/svg"
   xmlns="http://www.w3.org/2000/svg"
   version="1.1"
   id="svg2"
   viewBox="0 0 2000 2000"
   height="2000"
   width="2000">
  <defs
     id="defs4" />
  <metadata
     id="metadata7">
    <rdf:RDF>
      <cc:Work
         rdf:about="">
        <dc:format>image/svg+xml</dc:format>
        <dc:type
           rdf:resource="http://purl.org/dc/dcmitype/StillImage" />
        <dc:title></dc:title>
        <cc:license
           rdf:resource="https://github.com/bpmn-io/bpmn-font/blob/master/LICENSE" />
        <dc:creator>
          <cc:Agent>
            <dc:title>Jörg Dotzki</dc:title>
          </cc:Agent>
        </dc:creator>
        <dc:subject>
          <rdf:Bag>
            <rdf:li>BPMN</rdf:li>
            <rdf:li>bpmn-io</rdf:li>
            <rdf:li>bpmn.io</rdf:li>
            <rdf:li>Font</rdf:li>
          </rdf:Bag>
        </dc:subject>
      </cc:Work>
    </rdf:RDF>
  </metadata>
  <g
     transform="translate(0,947.63784)"
     id="layer1">
    <path
       id="path4135"
       transform="translate(0,-947.63784)"
       d="M 919.37891 382.98828 C 897.07985 382.99534 876.42602 391.24619 858.8125 402.60352 L 858.7832 402.62109 L 858.75586 402.64062 C 764.06211 463.96011 439.8885 688.93075 368.62891 737.8418 L 368.62695 737.84375 L 368.625 737.84375 C 304.25376 782.03986 260.89214 848.74751 235.96289 927.7793 L 235.95898 927.79492 L 235.95508 927.80859 C 210.0027 1010.3241 213.33304 1100.2119 213.58398 1175.4941 L 213.58594 1175.5137 L 213.58594 1175.5332 C 213.84074 1232.2188 215.19212 1281.6884 229.89453 1341.6816 C 229.89553 1341.6866 229.89744 1341.692 229.89844 1341.6973 C 251.2713 1429.4993 292.66639 1493.0333 351.12891 1531.9824 C 409.58875 1570.9297 481.74302 1584.75 562.70312 1585 C 854.98652 1586.0972 1147.4442 1586.4897 1439.8848 1585 L 1439.9102 1585 L 1439.9355 1585 C 1472.1442 1584.7888 1502.8949 1571.2476 1522.0703 1547.3223 C 1541.2443 1523.3988 1549.087 1492.4573 1549.5 1458.5117 C 1549.7909 1435.7437 1546.5893 1414.2247 1539.1934 1395 L 1571.5684 1395 C 1603.0995 1395 1632.0021 1386.016 1652.7207 1367.084 C 1673.4323 1348.1584 1684.0251 1322.4631 1689.5293 1295.4043 L 1689.5293 1295.3965 C 1697.2116 1257.7567 1693.5837 1220.59 1678.6133 1189.4004 C 1711.5589 1186.7389 1740.6465 1174.2976 1759.3535 1151.4941 C 1780.3767 1125.8673 1786.5009 1093.2887 1786.6094 1058.7734 C 1786.7238 1022.74 1777.9802 988.35302 1757.7969 961.00781 C 1737.6137 933.6626 1704.0255 915.05176 1666.2305 914.99805 L 1666.2207 914.99805 L 1666.209 914.99805 C 1652.4498 914.98657 1640.0493 915.00635 1624.4277 914.99805 C 1631.9444 896.25389 1635.2488 875.17154 1635.1797 852.99219 L 1635.1797 852.93555 L 1635.1797 852.87891 C 1634.9519 817.10655 1625.9288 782.92541 1605.6445 755.75195 C 1585.3606 728.57897 1551.8364 709.9987 1514.0586 709.99805 C 1289.6388 709.11253 1067.8072 712.155 879.15625 711.20117 C 888.98683 701.31624 898.53379 691.67619 909.02734 681.24023 C 941.50862 648.93721 972.72655 618.49752 988.85352 597.62891 C 1027.4086 548.00648 1033.1613 480.77723 1000.7031 431.32422 C 983.59029 405.18088 958.49595 387.49228 931.55273 383.81055 C 928.18377 383.35019 924.8448 383.0899 921.54102 383.01172 L 921.54102 383.01367 C 920.81831 382.99657 920.09823 382.98805 919.37891 382.98828 z M 919.92578 453.01562 C 920.69385 453.02416 921.41106 453.07733 922.07422 453.16797 C 927.37949 453.89292 933.05983 455.78817 942.14453 469.67383 L 942.16211 469.69922 L 942.17773 469.72461 C 954.86945 489.05096 954.30896 528.02989 933.55469 554.7168 L 933.51953 554.76172 L 933.48438 554.80664 C 925.93786 564.57639 892.03049 599.42252 859.66602 631.60938 C 827.30154 663.79624 796.53208 693.50491 781.30859 712.05078 C 766.75168 729.78466 772.09283 744.6981 776.04102 754.0332 C 779.9892 763.3683 784.5057 774.26988 804.63867 779.05273 C 810.66655 780.48469 810.99854 780.07253 812.92773 780.20508 C 814.85693 780.33763 816.85106 780.42902 819.19531 780.51367 C 823.88381 780.68297 829.88273 780.81106 837.28906 780.91992 C 1063.754 782.29908 1287.7116 779.67931 1513.998 780 L 1514.0293 780 L 1514.0605 780 C 1531.2724 780 1540.6175 785.65704 1549.5527 797.62695 C 1558.482 809.58885 1565.0212 829.44025 1565.1816 853.2793 C 1565.2476 878.00948 1559.325 893.09925 1552.125 901.41211 C 1544.925 909.72493 1535.2797 914.9327 1514.6504 915 L 1030 915 L 1030 985 L 1514.7422 985 L 1514.791 985 C 1581.2694 985.0062 1616.3318 984.95843 1666.1543 985 C 1683.4616 985.02951 1692.6831 990.66165 1701.4785 1002.5781 C 1710.2778 1014.4998 1716.688 1034.4049 1716.6113 1058.5527 L 1716.6113 1058.5547 C 1716.5303 1084.3774 1711.2652 1099.7505 1705.2363 1107.0996 C 1699.2075 1114.4487 1690.5982 1119.8316 1665.7539 1120.002 C 1657.3241 1120.0598 1596.946 1120.0156 1571.8906 1120.0449 C 1571.4936 1120.0399 1571.105 1120.0032 1570.707 1120.002 C 1390.4805 1119.1514 1210.2524 1120 1030.0254 1120 L 1030 1120 L 1029.9746 1190 L 1030 1190 C 1030.043 1190 1412.5167 1190.2386 1571.3301 1190.0469 C 1591.0301 1190.326 1602.841 1198.2575 1612.2637 1213.6484 C 1621.8272 1229.2694 1626.5869 1253.7579 1620.9434 1281.4043 L 1620.9434 1281.418 L 1620.9434 1281.4316 C 1617.207 1299.8121 1611.5308 1309.9046 1605.5078 1315.4082 C 1599.4848 1320.9118 1591.1733 1325 1571.5742 1325 C 1391.0507 1324.9139 1210.5297 1324.5478 1030.0059 1325 L 1029.9141 1325 L 1030.0059 1395 L 1030.0977 1395 L 1439.4043 1395 L 1439.4199 1395 C 1454.127 1395.0958 1460.6667 1399.0084 1467.3809 1407.9766 C 1474.0951 1416.9447 1479.8203 1433.619 1479.5117 1457.6289 L 1479.5117 1457.6426 L 1479.5117 1457.6543 C 1479.2276 1481.0659 1473.56 1495.9259 1467.4551 1503.543 C 1461.3503 1511.16 1455.0501 1514.8999 1439.4824 1515.002 C 1147.359 1516.4898 855.12644 1516.0987 562.97266 1515.002 L 562.95898 1515.002 L 562.94727 1515.002 C 489.89431 1514.7789 432.49137 1502.0704 389.94727 1473.7266 C 347.39676 1445.3826 316.33958 1400.8581 297.9082 1325.1289 L 297.90039 1325.0996 L 297.89453 1325.0703 C 285.02432 1272.5777 283.83532 1231.06 283.58398 1175.2598 L 283.58398 1175.2188 C 283.32833 1098.6482 281.8595 1015.1692 302.73047 948.81055 C 324.12233 881.00932 358.71817 829.5583 408.24219 795.55469 L 408.24609 795.55273 C 480.37064 746.04796 806.47508 519.89392 896.74609 461.43359 L 896.75 461.43164 C 905.22608 455.9669 912.24926 453.64295 917.46875 453.12891 C 918.3388 453.04322 919.15772 453.00709 919.92578 453.01562 z "
       style="color:#000000;font-style:normal;font-variant:normal;font-weight:normal;font-stretch:normal;font-size:medium;line-height:normal;font-family:sans-serif;text-indent:0;text-align:start;text-decoration:none;text-decoration-line:none;text-decoration-style:solid;text-decoration-color:#000000;letter-spacing:normal;word-spacing:normal;text-transform:none;direction:ltr;block-progression:tb;writing-mode:lr-tb;baseline-shift:baseline;text-anchor:start;white-space:normal;clip-rule:nonzero;display:inline;overflow:visible;visibility:visible;opacity:1;isolation:auto;mix-blend-mode:normal;color-interpolation:sRGB;color-interpolation-filters:linearRGB;solid-color:#000000;solid-opacity:1;fill:#000000;fill-opacity:1;fill-rule:nonzero;stroke:none;stroke-width:70;stroke-linecap:round;stroke-linejoin:miter;stroke-miterlimit:4;stroke-dasharray:none;stroke-dashoffset:0;stroke-opacity:1;color-rendering:auto;image-rendering:auto;shape-rendering:auto;text-rendering:auto;enable-background:accumulate" />
  </g>
</svg>
