<?xml version="1.0" encoding="UTF-8" standalone="no"?>
<!-- Created with Inkscape (http://www.inkscape.org/) -->

<svg
   xmlns:dc="http://purl.org/dc/elements/1.1/"
   xmlns:cc="http://creativecommons.org/ns#"
   xmlns:rdf="http://www.w3.org/1999/02/22-rdf-syntax-ns#"
   xmlns:svg="http://www.w3.org/2000/svg"
   xmlns="http://www.w3.org/2000/svg"
   xmlns:sodipodi="http://sodipodi.sourceforge.net/DTD/sodipodi-0.dtd"
   xmlns:inkscape="http://www.inkscape.org/namespaces/inkscape"
   width="2000"
   height="2000"
   viewBox="0 0 2000 2000"
   id="svg2"
   version="1.1"
   inkscape:version="0.91 r13725"
   sodipodi:docname="manual.svg">
  <defs
     id="defs4" />
  <sodipodi:namedview
     id="base"
     pagecolor="#ffffff"
     bordercolor="#666666"
     borderopacity="1.0"
     inkscape:pageopacity="0.0"
     inkscape:pageshadow="2"
     inkscape:zoom="0.300037"
     inkscape:cx="-281.3713"
     inkscape:cy="1146.7922"
     inkscape:document-units="px"
     inkscape:current-layer="layer1"
     showgrid="true"
     units="px"
     showguides="false"
     inkscape:window-width="1878"
     inkscape:window-height="1035"
     inkscape:window-x="42"
     inkscape:window-y="0"
     inkscape:window-maximized="0">
    <inkscape:grid
       type="xygrid"
       id="grid4008"
       empspacing="20"
       dotted="false" />
  </sodipodi:namedview>
  <metadata
     id="metadata7">
    <rdf:RDF>
      <cc:Work
         rdf:about="">
        <dc:format>image/svg+xml</dc:format>
        <dc:type
           rdf:resource="http://purl.org/dc/dcmitype/StillImage" />
        <dc:title />
        <cc:license
           rdf:resource="https://github.com/bpmn-io/bpmn-font/blob/master/LICENSE" />
        <dc:creator>
          <cc:Agent>
            <dc:title>Jörg Dotzki</dc:title>
          </cc:Agent>
        </dc:creator>
        <dc:subject>
          <rdf:Bag>
            <rdf:li>BPMN</rdf:li>
            <rdf:li>bpmn-io</rdf:li>
            <rdf:li>bpmn.io</rdf:li>
            <rdf:li>Font</rdf:li>
          </rdf:Bag>
        </dc:subject>
      </cc:Work>
    </rdf:RDF>
  </metadata>
  <g
     inkscape:label="Ebene 1"
     inkscape:groupmode="layer"
     id="layer1"
     transform="translate(0,947.63784)">
    <path
       style="color:#000000;font-style:normal;font-variant:normal;font-weight:normal;font-stretch:normal;font-size:medium;line-height:normal;font-family:sans-serif;text-indent:0;text-align:start;text-decoration:none;text-decoration-line:none;text-decoration-style:solid;text-decoration-color:#000000;letter-spacing:normal;word-spacing:normal;text-transform:none;direction:ltr;block-progression:tb;writing-mode:lr-tb;baseline-shift:baseline;text-anchor:start;white-space:normal;clip-rule:nonzero;display:inline;overflow:visible;visibility:visible;opacity:1;isolation:auto;mix-blend-mode:normal;color-interpolation:sRGB;color-interpolation-filters:linearRGB;solid-color:#000000;solid-opacity:1;fill:#000000;fill-opacity:1;fill-rule:nonzero;stroke:none;stroke-width:9.99999905;stroke-linecap:round;stroke-linejoin:miter;stroke-miterlimit:4;stroke-dasharray:none;stroke-dashoffset:0;stroke-opacity:1;color-rendering:auto;image-rendering:auto;shape-rendering:auto;text-rendering:auto;enable-background:accumulate"
       d="m 920.84961,-534.62305 c -15.51983,-0.33864 -31.15081,5.36823 -45.7793,14.80078 l -0.004,0.002 -0.004,0.002 c -92.77231,60.07524 -417.82318,285.58792 -489.45703,334.75586 -58.01191,39.82987 -97.61811,100.003145 -121.03125,174.228516 l -0.002,0.002 0,0.002 C 240.79592,64.766153 243.33118,151.91483 243.58398,227.75391 l 0,0.004 0,0.002 c 0.25318,56.32363 1.5342,102.3932 15.45899,159.18945 3.4e-4,0.001 0.002,0.002 0.002,0.004 3.1e-4,0.001 -3.1e-4,0.003 0,0.004 20.09483,82.55815 56.83739,145.43122 108.32031,187.63672 51.48372,42.20615 117.53988,63.5544 195.45118,63.79297 292.23509,1.09704 584.60219,1.48901 876.91409,0 l 0,0 0,0 c 24.694,-0.1619 44.7941,-6.35915 58.6094,-20.59766 13.8149,-14.23818 20.7968,-35.84953 21.1543,-65.28515 l 0,-0.002 c 0.3894,-30.3234 -6.5874,-51.04832 -20.7461,-63.92187 -14.1587,-12.87349 -34.455,-17.22406 -59.0782,-17.38477 l -0,0 c -110.695,-0.77093 -368.3688,-0.0351 -377.1797,-0.01 l -0,-42.49219 503.0743,0 c 26.0044,0 47.0327,-3.34371 63.1425,-13.14844 16.1089,-9.80413 26.6177,-26.14038 31.4239,-49.7793 7.3739,-36.12323 2.022,-63.79619 -14.2774,-82.20507 -16.2973,-18.40663 -42.6517,-26.83549 -75.2656,-26.91797 l -0.012,0 c -154.1905,-0.77388 -499.2655,-0.32787 -508.0879,-0.31641 l 0,-37.63867 c 9.559,0.008 541.0388,0.42665 603.5351,-0.002 32.3135,-0.22161 55.4626,-9.26289 70.0938,-26.64453 14.6312,-17.38165 20.3934,-42.20996 20.4902,-73 0.098,-30.937597 -7.8003,-53.902691 -23.5195,-68.91602 -15.7192,-15.013329 -38.5822,-21.551547 -66.9023,-21.591797 l -0,0 C 1479.9214,28.377781 1069.295,27.537351 1062.4941,27.523438 l 0,-36.3378911 c 8.7697,-0.034287 316.656,-1.2363279 452.1993,-1.2363279 l 0.01,0 0.01,0 c 29.0561,-0.08103 52.1054,-8.662754 67.5664,-25.595703 15.461,-16.932949 23.0076,-41.651077 22.9102,-72.904296 l 0,-0.008 0,-0.008 c -0.1953,-30.66977 -8.2367,-55.44462 -23.8926,-72.56445 -15.6544,-17.11822 -38.698,-26.12136 -67.2226,-26.12305 l -0.01,0 c -109.9183,-0.19596 -281.8008,0.56181 -427.9316,0.96094 -73.0668,0.19957 -139.69335,0.31072 -188.89843,0.16602 -24.60254,-0.0724 -44.8524,-0.21017 -59.35156,-0.42969 -7.24958,-0.10976 -13.06644,-0.24024 -17.23829,-0.39258 -2.08592,-0.0762 -3.76338,-0.157 -4.96874,-0.24023 -1.20537,-0.0832 -2.15673,-0.25141 -1.78907,-0.16407 0.85491,0.2031 -0.47113,-0.48722 -0.98828,-1.73046 -0.51715,-1.24325 0.0669,-2.02026 -0.66797,-1.125 10.70027,-13.03551 43.20454,-45.19702 75.64453,-77.45899 32.43369,-32.25569 64.80667,-64.58362 77.25782,-80.69922 l 0.002,-0.002 c 30.94995,-39.79888 34.48684,-94.94276 10.48633,-131.49609 l -0.002,-0.004 c -13.67197,-20.89539 -30.45137,-31.81736 -48.125,-34.23242 -2.20933,-0.3019 -4.4235,-0.47311 -6.64062,-0.52149 z m -0.23047,10 c 1.8549,0.0385 3.69479,0.18061 5.51758,0.42969 14.58232,1.99264 28.58779,10.65796 41.11328,29.80274 l 0.002,0.004 0.002,0.004 c 21.17681,32.24706 18.38586,83.35434 -10.01758,119.87695 l -0.006,0.006 -0.006,0.008 c -11.22099,14.52675 -43.98318,47.49118 -76.4043,79.73438 -32.42111,32.24319 -64.49314,63.79003 -76.32422,78.20312 -3.1341,3.81811 -2.19016,8.05496 -0.83593,11.31055 1.35423,3.25558 3.41084,6.54981 7.91211,7.61914 1.22835,0.2918 2.02416,0.31445 3.41015,0.41016 1.386,0.0957 3.14257,0.18124 5.29297,0.25976 4.3008,0.15705 10.16245,0.28809 17.45117,0.39844 14.57745,0.2207 34.85138,0.35727 59.47461,0.42969 49.24646,0.14482 115.88163,0.0336 188.95503,-0.16602 146.1469,-0.39917 318.0412,-1.15682 427.8946,-0.96094 l 0,0 0.01,0 c 26.4621,0 46.286,8.0392 59.8497,22.8711 13.5636,14.83189 21.0889,36.91791 21.2734,65.88086 0.089,29.624126 -7.0137,51.5657 -20.2949,66.111325 -13.2839,14.548595 -33.0744,22.264164 -60.211,22.339844 -137.5442,7e-5 -457.2031,1.253906 -457.2031,1.253906 l -4.9805,0.01953 0,56.283203 4.9903,0.0098 c 0,0 420.8656,0.860849 608.6914,1.017578 26.7968,0.03809 46.7445,6.156503 60.0078,18.824219 13.2633,12.667715 20.5206,32.408619 20.4277,61.652348 -0.093,29.54794 -5.7197,51.83592 -18.1406,66.59179 -12.4209,14.75587 -31.9877,22.87465 -62.5117,23.08399 -62.6159,0.42942 -608.4629,0 -608.4629,0 l -5.0039,-0.004 0,57.6543 5.0078,-0.006 c 0,0 356.9795,-0.47087 513.043,0.3125 l 0.01,0 0.01,0 c 30.9137,0.0762 54.0716,8.02543 67.8144,23.54687 13.7428,15.52145 18.9593,39.33117 11.9688,73.57617 l -0,0.002 0,0.002 c -4.4331,21.80816 -13.1925,34.93595 -26.8242,43.23242 -13.6317,8.29648 -32.8175,11.69141 -57.9433,11.69141 l -513.0743,0 0,5 0,57.51562 5.0137,-0.0137 c 0,0 269.6646,-0.78306 382.0976,0 l 0,0 c 23.4688,0.15296 40.9822,4.38376 52.4199,14.78321 11.4377,10.39944 17.8443,27.63872 17.4746,56.39843 l 0,0.002 0,0.002 c -0.3388,27.92363 -6.8689,46.62707 -18.334,58.44336 -11.465,11.81629 -28.4137,17.41116 -51.4961,17.5625 -292.267,1.48875 -584.60324,1.09697 -876.82028,0 l -0.002,0 -0.002,0 C 486.7391,628.15436 423.23063,607.46218 373.70508,566.86133 324.17953,526.26047 288.46848,465.56138 268.75977,384.58398 l -0.002,-0.004 0,-0.004 C 255.09486,328.85167 253.83666,283.91808 253.58398,227.7207 l 0,-0.006 c -0.25351,-76.02208 -2.5218,-162.253849 20.52735,-235.5410119 22.9076,-72.6226651 61.26092,-130.6177081 117.15234,-168.9921881 71.75697,-49.25244 397.08424,-274.9329 489.22461,-334.59961 l 0.008,-0.006 c 13.44139,-8.66542 27.14149,-13.46827 40.12305,-13.19922 z"
       id="path4135"
       inkscape:connector-curvature="0" />
  </g>
</svg>
