<?xml version="1.0" encoding="UTF-8" standalone="no"?>
<!-- Created with Inkscape (http://www.inkscape.org/) -->

<svg
   xmlns:dc="http://purl.org/dc/elements/1.1/"
   xmlns:cc="http://creativecommons.org/ns#"
   xmlns:rdf="http://www.w3.org/1999/02/22-rdf-syntax-ns#"
   xmlns:svg="http://www.w3.org/2000/svg"
   xmlns="http://www.w3.org/2000/svg"
   xmlns:sodipodi="http://sodipodi.sourceforge.net/DTD/sodipodi-0.dtd"
   xmlns:inkscape="http://www.inkscape.org/namespaces/inkscape"
   width="2000"
   height="2000"
   viewBox="0 0 2000 2000"
   id="svg2"
   version="1.1"
   inkscape:version="0.91 r13725"
   sodipodi:docname="manual.svg">
  <defs
     id="defs4" />
  <sodipodi:namedview
     id="base"
     pagecolor="#ffffff"
     bordercolor="#666666"
     borderopacity="1.0"
     inkscape:pageopacity="0.0"
     inkscape:pageshadow="2"
     inkscape:zoom="0.300037"
     inkscape:cx="323.55409"
     inkscape:cy="1146.7922"
     inkscape:document-units="px"
     inkscape:current-layer="layer1"
     showgrid="true"
     units="px"
     showguides="false"
     inkscape:window-width="1878"
     inkscape:window-height="1035"
     inkscape:window-x="42"
     inkscape:window-y="0"
     inkscape:window-maximized="0">
    <inkscape:grid
       type="xygrid"
       id="grid4008"
       empspacing="20"
       dotted="false" />
  </sodipodi:namedview>
  <metadata
     id="metadata7">
    <rdf:RDF>
      <cc:Work
         rdf:about="">
        <dc:format>image/svg+xml</dc:format>
        <dc:type
           rdf:resource="http://purl.org/dc/dcmitype/StillImage" />
        <dc:title />
        <cc:license
           rdf:resource="https://github.com/bpmn-io/bpmn-font/blob/master/LICENSE" />
        <dc:creator>
          <cc:Agent>
            <dc:title>Jörg Dotzki</dc:title>
          </cc:Agent>
        </dc:creator>
        <dc:subject>
          <rdf:Bag>
            <rdf:li>BPMN</rdf:li>
            <rdf:li>bpmn-io</rdf:li>
            <rdf:li>bpmn.io</rdf:li>
            <rdf:li>Font</rdf:li>
          </rdf:Bag>
        </dc:subject>
      </cc:Work>
    </rdf:RDF>
  </metadata>
  <g
     inkscape:label="Ebene 1"
     inkscape:groupmode="layer"
     id="layer1"
     transform="translate(0,947.63784)">
    <path
       style="color:#000000;font-style:normal;font-variant:normal;font-weight:normal;font-stretch:normal;font-size:medium;line-height:normal;font-family:sans-serif;text-indent:0;text-align:start;text-decoration:none;text-decoration-line:none;text-decoration-style:solid;text-decoration-color:#000000;letter-spacing:normal;word-spacing:normal;text-transform:none;direction:ltr;block-progression:tb;writing-mode:lr-tb;baseline-shift:baseline;text-anchor:start;white-space:normal;clip-rule:nonzero;display:inline;overflow:visible;visibility:visible;opacity:1;isolation:auto;mix-blend-mode:normal;color-interpolation:sRGB;color-interpolation-filters:linearRGB;solid-color:#000000;solid-opacity:1;fill:#000000;fill-opacity:1;fill-rule:nonzero;stroke:none;stroke-width:10;stroke-linecap:round;stroke-linejoin:miter;stroke-miterlimit:4;stroke-dasharray:none;stroke-dashoffset:0;stroke-opacity:1;color-rendering:auto;image-rendering:auto;shape-rendering:auto;text-rendering:auto;enable-background:accumulate"
       d="m 929.91211,-467.96289 c -13.89024,-0.30382 -27.8453,4.80148 -40.86914,13.19727 l -0.004,0.002 -0.004,0.002 c -82.20318,53.21794 -370.07614,252.89051 -433.51368,296.42188 l -0.002,0 c -51.50114,35.35093 -86.65047,88.756747 -107.41601,154.5722619 l 0,0.00195 -0.002,0.00195 C 327.00171,63.30609 329.26247,140.52613 329.48633,207.66797 l 0,0.002 0,0.004 c 0.22426,49.87927 1.36119,90.73589 13.70898,141.08789 3.5e-4,0.001 0.002,0.002 0.002,0.004 3.1e-4,0.001 -3.2e-4,0.003 0,0.004 17.81977,73.19244 50.41968,128.98822 96.1289,166.45117 45.71001,37.4636 104.35973,56.40359 173.4668,56.61524 258.82767,0.97139 517.77473,1.31847 776.67183,0 l 0,0 0,0 c 21.9629,-0.14396 39.944,-5.6659 52.3144,-18.41211 12.3698,-12.74556 18.5804,-32.04749 18.8984,-58.19727 l 0,-0.002 c 0.3461,-26.93986 -5.8667,-45.49271 -18.5625,-57.0332 -12.6957,-11.54043 -30.831,-15.39826 -52.705,-15.54102 l -0,0 c -97.8324,-0.68118 -324.7162,-0.0349 -333.4922,-0.01 l -0,-36.47851 444.9902,0 c 23.0818,0 41.8129,-2.95871 56.2227,-11.72656 14.4088,-8.76725 23.8155,-23.41493 28.0937,-44.45117 6.553,-32.09347 1.805,-56.81957 -12.7773,-73.28516 -14.5804,-16.46332 -38.1038,-23.95384 -67.086,-24.02734 l -0.012,0 c -136.3428,-0.68414 -440.6319,-0.29267 -449.4316,-0.28126 l 0,-32.18164 c 9.5373,0.008 478.6583,0.37729 533.9707,-0.002 28.7214,-0.19692 49.4266,-8.25387 62.5117,-23.79492 13.0851,-15.54105 18.1972,-37.67121 18.2832,-65.00586 0.087,-27.491225 -6.9451,-48.01158 -21.0078,-61.439453 -14.0627,-13.427873 -34.477,-19.239628 -59.6465,-19.275391 l -0,0 -0,0 c -164.7951,-0.137472 -527.3194,-0.88065 -534.1074,-0.894531 l 0,-31.0332031 c 8.7408,-0.034152 280.1081,-1.0917969 399.9316,-1.0917969 l 0.01,0 0.01,0 c 25.8439,-0.072057 46.4455,-7.721664 60.2637,-22.851563 13.8181,-15.129898 20.5279,-37.174944 20.4414,-64.941406 l 0,-0.0078 0,-0.0078 c -0.1737,-27.254831 -7.3267,-49.346871 -21.3125,-64.636721 -13.9841,-15.28784 -34.5768,-23.3143 -59.9571,-23.3164 l -0.01,0 c -97.3563,-0.17351 -249.5865,0.49815 -379.0098,0.85156 -64.7134,0.17671 -123.72514,0.27265 -167.30273,0.14453 -21.7888,-0.0641 -39.72144,-0.1846 -52.55859,-0.37891 -6.41858,-0.0971 -11.5683,-0.21303 -15.25586,-0.34765 -1.84379,-0.0673 -3.32555,-0.13991 -4.38282,-0.21289 -1.05726,-0.073 -1.90692,-0.22983 -1.49023,-0.13086 1.06277,0.25241 -0.0704,-0.20986 -0.48047,-1.19532 -0.41002,-0.98545 0.19466,-1.47463 -0.67773,-0.4121 9.41226,-11.46357 38.22645,-39.9752 66.95898,-68.54297 28.72511,-28.56039 57.37332,-57.14842 68.47266,-71.50977 27.55833,-35.42713 30.73539,-84.48775 9.31836,-117.10156 l -0.006,-0.008 c -12.17413,-18.59914 -27.19339,-28.40016 -43.02149,-30.5625 -1.97881,-0.27034 -3.96099,-0.4234 -5.94531,-0.4668 z m -0.23047,10 c 1.62218,0.0335 3.22991,0.15746 4.82227,0.375 12.73886,1.74031 24.98385,9.28519 36.01171,26.13672 l 0.004,0.004 0.002,0.004 c 18.59381,28.30679 16.16269,73.3269 -8.84765,105.47852 l -0.004,0.008 -0.006,0.006 c -9.86801,12.77206 -38.90744,41.99788 -67.62109,70.54687 -28.71365,28.549 -57.09343,56.44602 -67.63672,69.28711 -2.99734,3.65059 -2.07359,7.60153 -0.82617,10.59961 1.24742,2.99808 3.11006,6.06455 7.40234,7.08399 1.179,0.28 1.87543,0.2915 3.11328,0.37695 1.23785,0.0854 2.79879,0.16081 4.70703,0.23047 3.81649,0.13932 9.00909,0.25577 15.4668,0.35351 12.91542,0.19549 30.87216,0.31479 52.68164,0.37891 43.61897,0.12825 102.63933,0.0322 167.35933,-0.14453 129.4401,-0.35345 281.6814,-1.02501 378.9727,-0.85156 l 0.01,0 0,0 c 23.3191,0 40.6946,7.06427 52.5879,20.0664 11.8932,13.00213 18.5286,32.40165 18.6914,57.949221 0.079,26.137946 -6.1879,45.407254 -17.8262,58.150391 -11.6407,12.74576 -28.9814,19.528997 -52.9063,19.595703 -121.8235,6.1e-5 -404.9375,1.109375 -404.9375,1.109375 l -4.9804,0.01953 0,50.976563 4.9902,0.01172 c 0,0 372.7536,0.763569 539.1074,0.902344 23.6465,0.0336 41.1474,5.42522 52.7539,16.507813 11.6066,11.082592 17.996,28.378843 17.9141,54.175781 -0.082,26.09225 -5.0572,45.68026 -15.9316,58.5957 -10.8745,12.91544 -27.9993,20.05167 -54.9317,20.23633 -55.4323,0.38006 -538.8984,0 -538.8984,0 l -5.0039,-0.004 0,52.19727 5.0058,-0.006 c 0,0 316.172,-0.41627 454.3887,0.27735 l 0.01,0 0.01,0 c 27.2824,0.0673 47.6114,7.07982 59.6367,20.6582 12.0254,13.57837 16.6362,34.43752 10.4668,64.65234 l 0,0.002 -0,0.002 c -3.905,19.20508 -11.5624,30.6462 -23.4942,37.90625 -11.9317,7.26004 -28.8201,10.26953 -51.0234,10.26953 l -454.9902,0 0,5 0,51.50195 5.0137,-0.0137 c 0,0 238.8395,-0.6933 338.4102,0 l 0,0 c 20.72,0.13501 36.0725,3.87462 46.0469,12.94141 9.9744,9.06678 15.6153,24.13008 15.289,49.50586 l 0,0.002 0,0.002 c -0.299,24.63843 -6.0543,41.03315 -16.0742,51.35742 -10.0198,10.32428 -24.8533,15.24356 -45.2051,15.37696 -258.8516,1.3182 -517.76715,0.97132 -776.57612,0 l -0.002,0 c -67.30674,-0.20543 -123.41035,-18.48903 -167.1621,-54.34766 -43.75176,-35.85863 -75.32239,-89.48044 -92.75586,-161.0918 l 0,-0.004 -0.002,-0.004 c -12.08584,-49.28002 -13.1981,-89.00093 -13.42187,-138.7539 l 0,-0.006 C 339.26176,140.30403 337.26828,64.000518 357.64062,-0.75976562 377.90058,-64.972852 411.79831,-116.1998 461.17969,-150.0957 c 63.56064,-43.61585 351.70999,-243.45611 433.28125,-296.26563 l 0.008,-0.006 c 11.83675,-7.62885 23.86033,-11.82996 35.21289,-11.5957 z"
       id="path4135"
       inkscape:connector-curvature="0" />
  </g>
</svg>
