<svg xmlns="http://www.w3.org/2000/svg" width="2000" height="2000"><g color="#000" font-weight="400" font-family="sans-serif" stroke="#000" stroke-linecap="round"><path style="line-height:normal;text-indent:0;text-align:start;text-decoration-line:none;text-decoration-style:solid;text-decoration-color:#000;text-transform:none;block-progression:tb;white-space:normal;isolation:auto;mix-blend-mode:normal;solid-color:#000;solid-opacity:1" d="M775.382 435.919h688.37c-95.662 59.648-162.469 114.48-206.577 166.003-49.32 57.612-70.521 111.644-71.137 162.45-1.232 101.61 77.337 185.164 155.475 265.19 78.139 80.025 156.036 157.301 164.666 239.46 4.314 41.078-7.507 84.285-46.402 133.344-38.553 48.628-104.083 102.354-205.449 161.715H566.383c84.656-52.562 142.286-101.176 178.994-147.476 41.632-52.511 56.198-102.74 51.236-149.978-9.924-94.479-93.222-173.357-171.062-253.077-77.84-79.72-150.037-159.505-148.954-248.9.542-44.698 18.77-93.086 65.628-147.822 46.482-54.295 121.262-114.35 233.157-180.91zM769.016 413l-2.699 1.603c-114.757 68.004-192.18 129.707-241.5 187.32-49.322 57.611-70.522 111.643-71.138 162.449-1.232 101.61 77.332 185.164 155.47 265.19 78.14 80.025 156.041 157.301 164.67 239.46 4.315 41.078-7.506 84.285-46.4 133.344-38.896 49.059-105.134 103.29-208.041 163.278L482.739 1587h777.865l2.677-1.558c104.39-60.852 172.823-116.326 214.455-168.837 41.632-52.511 56.198-102.74 51.236-149.978-9.924-94.479-93.222-173.357-171.062-253.077-77.84-79.72-150.037-159.505-148.954-248.9.542-44.698 18.77-93.086 65.628-147.822 46.858-54.735 122.367-115.302 235.775-182.507L1546.335 413z" overflow="visible" stroke-width="70"/><path style="line-height:normal;text-indent:0;text-align:start;text-decoration-line:none;text-decoration-style:solid;text-decoration-color:#000;text-transform:none;block-progression:tb;white-space:normal;isolation:auto;mix-blend-mode:normal;solid-color:#000;solid-opacity:1" d="M916.72 1332.912v22.918h437.988v-22.918zm-63.196-231.175v22.92h421.987v-22.92zm-206.795-231.17v22.92h436.384v-22.92zm16.402-231.173v22.918h421.399v-22.918z" overflow="visible" stroke-width="20"/></g></svg>