<?xml version="1.0" encoding="UTF-8" standalone="no"?>
<svg
   xmlns:dc="http://purl.org/dc/elements/1.1/"
   xmlns:cc="http://creativecommons.org/ns#"
   xmlns:rdf="http://www.w3.org/1999/02/22-rdf-syntax-ns#"
   xmlns:svg="http://www.w3.org/2000/svg"
   xmlns="http://www.w3.org/2000/svg"
   version="1.1"
   id="svg2"
   viewBox="0 0 2000 2000"
   height="2000"
   width="2000">
  <defs
     id="defs4" />
  <metadata
     id="metadata7">
    <rdf:RDF>
      <cc:Work
         rdf:about="">
        <dc:format>image/svg+xml</dc:format>
        <dc:type
           rdf:resource="http://purl.org/dc/dcmitype/StillImage" />
        <dc:title></dc:title>
        <cc:license
           rdf:resource="https://github.com/bpmn-io/bpmn-font/blob/master/LICENSE" />
        <dc:creator>
          <cc:Agent>
            <dc:title>Jörg Dotzki</dc:title>
          </cc:Agent>
        </dc:creator>
        <dc:subject>
          <rdf:Bag>
            <rdf:li>BPMN</rdf:li>
            <rdf:li>bpmn-io</rdf:li>
            <rdf:li>bpmn.io</rdf:li>
            <rdf:li>Font</rdf:li>
          </rdf:Bag>
        </dc:subject>
      </cc:Work>
    </rdf:RDF>
  </metadata>
  <g
     style="display:inline"
     transform="translate(0,947.63784)"
     id="layer1" />
  <g
     style="display:inline"
     id="layer3">
    <path
       id="path7110"
       d="M 759.41016 378 L 751.14844 382.9043 L 748.44922 384.50781 C 631.65776 453.72038 551.2844 517.18548 498.22852 579.16016 C 445.09916 641.22062 419.412 703.70808 418.68164 763.94727 C 417.22817 883.82775 505.65392 973.66586 584.10742 1054.0137 C 662.50124 1134.3003 732.43001 1210.0155 739.01172 1272.6777 C 742.36637 1304.6164 734.81689 1336.6966 699.99219 1380.6211 C 665.314 1424.3609 602.37552 1476.7493 501.75195 1535.4062 L 353.19336 1622 L 1270.0469 1622 L 1280.8965 1615.6875 L 1280.9082 1615.6777 C 1387.5436 1553.5161 1459.3849 1496.0867 1505.1621 1438.3477 C 1551.0758 1380.4366 1569.7557 1319.8482 1563.7812 1262.9688 C 1551.9436 1150.2668 1460.136 1068.1422 1382.9531 989.0957 C 1305.7103 909.98783 1243.1007 835.37489 1243.9531 765.07227 C 1244.3835 729.58122 1258.0249 689.98786 1301.1719 639.58789 C 1344.245 589.27401 1416.8675 530.40674 1528.2031 464.42969 L 1528.2031 464.42773 L 1674.0449 378 L 759.41016 378 z M 785.25195 470.91797 L 1349.8945 470.91797 C 1300.1653 507.99629 1260.8461 543.81554 1230.5879 579.16016 C 1177.4586 641.22061 1151.7714 703.70807 1151.041 763.94727 C 1149.5876 883.82876 1238.0176 973.66632 1316.4707 1054.0137 C 1394.8641 1134.2998 1464.7873 1210.0143 1471.3691 1272.6777 C 1474.7238 1304.6165 1467.1762 1336.6966 1432.3516 1380.6211 C 1398.9553 1422.7439 1338.8961 1473.0068 1244.5625 1529.082 L 678.47266 1529.082 C 717.74278 1498.4553 748.94092 1468.4466 772.80273 1438.3496 C 818.71647 1380.4385 837.39619 1319.8501 831.42188 1262.9707 C 819.58425 1150.2687 727.77664 1068.1442 650.59375 989.09766 C 573.35098 909.9898 510.74334 835.37687 511.5957 765.07422 C 512.02602 729.58325 525.66558 689.98982 568.8125 639.58984 C 610.43918 590.96566 680.08673 534.2435 785.25195 470.91797 z M 653.13086 629.39258 L 653.13086 672.3125 L 1094.5293 672.3125 L 1094.5293 629.39258 L 653.13086 629.39258 z M 636.72852 860.56836 L 636.72852 903.48633 L 1093.1133 903.48633 L 1093.1133 860.56836 L 636.72852 860.56836 z M 843.52344 1091.7383 L 843.52344 1134.6562 L 1285.5117 1134.6562 L 1285.5117 1091.7383 L 843.52344 1091.7383 z M 906.7207 1322.9121 L 906.7207 1365.8301 L 1364.707 1365.8301 L 1364.707 1322.9121 L 906.7207 1322.9121 z "
       style="color:#000000;font-style:normal;font-variant:normal;font-weight:normal;font-stretch:normal;font-size:medium;line-height:normal;font-family:sans-serif;text-indent:0;text-align:start;text-decoration:none;text-decoration-line:none;text-decoration-style:solid;text-decoration-color:#000000;letter-spacing:normal;word-spacing:normal;text-transform:none;direction:ltr;block-progression:tb;writing-mode:lr-tb;baseline-shift:baseline;text-anchor:start;white-space:normal;clip-rule:nonzero;display:inline;overflow:visible;visibility:visible;opacity:1;isolation:auto;mix-blend-mode:normal;color-interpolation:sRGB;color-interpolation-filters:linearRGB;solid-color:#000000;solid-opacity:1;fill:#000000;fill-opacity:1;fill-rule:nonzero;stroke:none;stroke-width:70;stroke-linecap:round;stroke-linejoin:miter;stroke-miterlimit:4;stroke-dasharray:none;stroke-dashoffset:0;stroke-opacity:1;color-rendering:auto;image-rendering:auto;shape-rendering:auto;text-rendering:auto;enable-background:accumulate" />
  </g>
</svg>
