<?xml version="1.0" encoding="UTF-8" standalone="no"?>
<svg
   xmlns:dc="http://purl.org/dc/elements/1.1/"
   xmlns:cc="http://creativecommons.org/ns#"
   xmlns:rdf="http://www.w3.org/1999/02/22-rdf-syntax-ns#"
   xmlns:svg="http://www.w3.org/2000/svg"
   xmlns="http://www.w3.org/2000/svg"
   width="2000"
   height="2000"
   viewBox="0 0 2000 2000"
   id="svg2"
   version="1.1">
  <defs
     id="defs4" />
  <metadata
     id="metadata7">
    <rdf:RDF>
      <cc:Work
         rdf:about="">
        <dc:format>image/svg+xml</dc:format>
        <dc:type
           rdf:resource="http://purl.org/dc/dcmitype/StillImage" />
        <dc:title></dc:title>
        <cc:license
           rdf:resource="https://github.com/bpmn-io/bpmn-font/blob/master/LICENSE" />
        <dc:creator>
          <cc:Agent>
            <dc:title>Jörg Dotzki</dc:title>
          </cc:Agent>
        </dc:creator>
        <dc:subject>
          <rdf:Bag>
            <rdf:li>BPMN</rdf:li>
            <rdf:li>bpmn-io</rdf:li>
            <rdf:li>bpmn.io</rdf:li>
            <rdf:li>Font</rdf:li>
          </rdf:Bag>
        </dc:subject>
      </cc:Work>
    </rdf:RDF>
  </metadata>
  <g
     id="layer6"
     style="display:inline">
    <path
       id="path4170"
       d="M 825.74609 438.17383 C 825.69979 475.1723 825.7563 512.17163 825.85156 549.16992 C 794.29829 558.09661 765.46524 570.55412 738.23633 585.81445 L 658.6543 507.18945 L 509.84766 656.85742 L 589.42383 735.46875 C 574.05216 763.02029 562.04871 792.29945 553.67188 822.71094 L 440.94727 822.91602 L 440.94727 1033.7051 L 554.84961 1033.2949 C 565.26551 1074.5933 587.93422 1111.7201 610.51172 1144.918 L 610.51172 963.09375 L 510.94727 963.45117 L 510.94727 892.78906 L 610.01562 892.60938 L 615.57617 864.4375 C 623.68569 823.35291 639.74603 784.18805 662.82031 749.14453 L 678.60547 725.17188 L 609.00195 656.41016 L 659.0957 606.02539 L 728.82617 674.91797 L 752.55664 659.08203 C 788.8205 635.15649 828.48451 619.11851 868.03711 610.76562 L 895.99609 604.96094 L 895.74609 508.17578 L 967.71289 508.17578 L 967.15625 604.45703 L 995.58398 604.45703 L 1155.9902 604.45703 C 1138.2768 583.31338 1064.8698 555.79938 1037.4824 548.13281 L 1038.1172 438.17578 C 959.71716 438.17378 898.25174 438.18016 825.74609 438.17383 z M 1024.9043 639.83203 L 1025.1914 750.82422 C 993.63698 759.75091 964.80383 772.20673 937.57422 787.46875 L 857.99023 708.84375 L 709.18359 858.51172 L 788.76172 937.12305 C 773.38937 964.67608 761.38462 993.9543 753.00781 1024.3672 L 640.28516 1024.5703 L 640.28516 1235.3594 L 754.18555 1234.9512 C 763.15098 1266.2082 775.57969 1294.751 790.81055 1321.6973 L 709.31641 1402.873 L 859.78125 1550.752 L 940.98242 1469.9277 C 968.79672 1485.3724 998.3629 1497.3637 1029.0156 1505.709 L 1029.0684 1620.4219 C 1101.4601 1621.0557 1178.5354 1620.7292 1240.4043 1620.7227 L 1240.4043 1504.6523 C 1271.9821 1495.7485 1300.9053 1483.2014 1328.1406 1467.9473 L 1409.2754 1547.9434 L 1558.1797 1398.4629 L 1476.875 1318.3398 C 1492.282 1290.7142 1504.2874 1261.3861 1512.6738 1230.9414 L 1623.0527 1230.2598 L 1623.0527 1019.6738 L 1511.4355 1020.3535 C 1502.4631 989.06652 1490.2142 960.71674 1474.7812 933.5918 L 1551.9023 856.27344 L 1401.5215 708.14258 L 1324.5 785.42773 C 1296.7997 770.10877 1267.3537 758.14537 1236.8203 749.78906 L 1237.4531 639.83203 L 1024.9043 639.83203 z M 1095.084 709.83203 L 1167.0508 709.83203 L 1166.4961 806.11523 L 1194.9219 811.69336 C 1236.1943 819.79239 1275.7525 835.83275 1310.9375 858.76562 L 1334.7617 874.29492 L 1401.9785 806.84961 L 1452.5957 856.71094 L 1385.2852 924.19336 L 1401.4805 948.09961 C 1425.2452 983.9725 1441.0088 1022.7495 1449.9082 1062.6797 L 1455.7637 1090.6914 L 1553.0449 1090.0996 L 1553.0449 1160.6895 L 1456.3066 1161.2852 L 1450.75 1189.2969 C 1442.5902 1230.4276 1426.5649 1269.591 1403.4512 1304.6953 L 1387.6484 1328.7012 L 1458.9062 1398.9238 L 1408.8203 1449.2031 L 1337.5547 1378.9375 L 1313.8652 1394.6758 C 1277.59 1418.3823 1238.2406 1434.7985 1198.541 1442.8867 L 1170.3965 1448.5078 L 1170.3965 1550.7227 C 1151.1555 1550.7694 1130.1656 1550.7393 1099.0273 1550.6953 L 1098.9824 1449.2461 L 1070.7109 1443.7246 C 1029.3808 1435.6538 989.8877 1419.6871 954.76367 1396.6582 L 931.00977 1381.084 L 859.46875 1452.2949 L 808.84375 1402.5371 L 880.48438 1331.1758 L 864.13672 1307.1719 C 840.34989 1271.3777 824.61382 1232.5596 815.69922 1192.6758 L 809.84961 1164.75 L 710.28516 1165.1055 L 710.28516 1094.4453 L 809.35352 1094.2637 L 814.91406 1066.0957 C 823.02364 1025.0108 839.08423 985.84383 862.1582 950.80078 L 877.94336 926.82617 L 808.33789 858.06445 L 858.43164 807.67969 L 928.16406 876.57227 L 951.89453 860.73828 C 988.20439 836.96856 1026.7354 821.19689 1067.375 812.42383 L 1095.3359 806.61914 L 1095.084 709.83203 z M 1132.25 967.03516 C 1045.6031 967.03516 974.61133 1038.0288 974.61133 1124.6758 C 974.61133 1211.3228 1045.6031 1282.3125 1132.25 1282.3125 C 1218.8969 1282.3125 1289.8887 1211.3228 1289.8887 1124.6758 C 1289.8887 1038.0288 1218.8969 967.03516 1132.25 967.03516 z M 1132.25 1037.0352 C 1181.0662 1037.0352 1219.8887 1075.8597 1219.8887 1124.6758 C 1219.8887 1173.4919 1181.0662 1212.3125 1132.25 1212.3125 C 1083.4338 1212.3125 1044.6133 1173.4919 1044.6133 1124.6758 C 1044.6133 1075.8597 1083.4338 1037.0352 1132.25 1037.0352 z "
       style="color:#000000;font-style:normal;font-variant:normal;font-weight:normal;font-stretch:normal;font-size:medium;line-height:normal;font-family:sans-serif;text-indent:0;text-align:start;text-decoration:none;text-decoration-line:none;text-decoration-style:solid;text-decoration-color:#000000;letter-spacing:normal;word-spacing:normal;text-transform:none;direction:ltr;block-progression:tb;writing-mode:lr-tb;baseline-shift:baseline;text-anchor:start;white-space:normal;clip-rule:nonzero;display:inline;overflow:visible;visibility:visible;opacity:1;isolation:auto;mix-blend-mode:normal;color-interpolation:sRGB;color-interpolation-filters:linearRGB;solid-color:#000000;solid-opacity:1;fill:#000000;fill-opacity:1;fill-rule:nonzero;stroke:none;stroke-width:70;stroke-linecap:round;stroke-linejoin:miter;stroke-miterlimit:4;stroke-dasharray:none;stroke-dashoffset:0;stroke-opacity:1;color-rendering:auto;image-rendering:auto;shape-rendering:auto;text-rendering:auto;enable-background:accumulate" />
  </g>
  <g
     id="layer1"
     transform="translate(0,949.63784)"
     style="display:inline">
    <g
       id="g4137"
       transform="matrix(1.1161206,0,0,1.1161228,91.593841,25.188891)" />
  </g>
</svg>
