<svg xmlns="http://www.w3.org/2000/svg" height="2000" width="2000"><path d="M1130.71 627.789c-38.976-25.404-82.7-43.13-128.386-52.095l.591-102.517h-142.26 0l.267 103.322c-22.455 4.662-44.772 11.39-66.634 20.506-21.861 9.145-42.217 20.327-61.158 32.966l-74.256-73.362-99.45 100.026 74.164 73.264c-25.558 38.817-43.358 82.212-52.35 127.764l-105.291.19V998.58l106.158-.382c4.655 22.218 11.411 44.494 20.585 66.175 9.22 21.82 20.401 42.082 33.18 60.847" fill="none" stroke="#000" stroke-width="70" stroke-linecap="round"/><g transform="translate(91.594 974.827) scale(1.11612)" fill="none" stroke="#000" stroke-width="62.717"><path d="M997.93 547.347v-97.233c20.037-4 40.034-10.123 59.58-18.235 19.587-8.209 37.866-18.236 54.959-29.592l67.921 66.967 89.145-89.487-67.963-66.973a322.22 322.22 0 0 0 46.944-114.535l92.253-.568V71.73l-93.07.568c-4.17-19.95-10.142-39.738-18.402-59.23-8.26-19.526-18.279-37.705-29.728-54.604l64.323-64.485-90.044-88.696-64.242 64.461c-34.921-22.76-74.096-38.642-115.029-46.675l.529-91.85H867.648l.239 92.572c-20.119 4.177-40.115 10.202-59.702 18.37-19.587 8.194-37.825 18.213-54.796 29.537l-66.53-65.73-89.104 89.62 66.45 65.642C641.304-3.993 625.356 34.889 617.3 75.7l-94.338.17v126.084l95.115-.34c4.17 19.906 10.223 39.863 18.442 59.288 8.26 19.549 18.279 37.704 29.729 54.517L598.04 383.36l90.085 88.536 68.044-67.73c34.922 22.897 74.097 38.722 115.07 46.723l.043 96.414c42.195.32 126.647.043 126.647.043z" stroke-linecap="round"/><ellipse cx="932.387" cy="134.257" rx="109.88" ry="109.879" stroke-linecap="square" stroke-dashoffset="700"/></g></svg>