<?xml version="1.0" encoding="UTF-8" standalone="no"?>
<!-- Created with Inkscape (http://www.inkscape.org/) -->

<svg
   xmlns:dc="http://purl.org/dc/elements/1.1/"
   xmlns:cc="http://creativecommons.org/ns#"
   xmlns:rdf="http://www.w3.org/1999/02/22-rdf-syntax-ns#"
   xmlns:svg="http://www.w3.org/2000/svg"
   xmlns="http://www.w3.org/2000/svg"
   xmlns:sodipodi="http://sodipodi.sourceforge.net/DTD/sodipodi-0.dtd"
   xmlns:inkscape="http://www.inkscape.org/namespaces/inkscape"
   width="2000"
   height="2000"
   viewBox="0 0 2000 2000"
   id="svg2"
   version="1.1"
   inkscape:version="0.91 r13725"
   sodipodi:docname="service.svg">
  <defs
     id="defs4" />
  <sodipodi:namedview
     id="base"
     pagecolor="#ffffff"
     bordercolor="#666666"
     borderopacity="1.0"
     inkscape:pageopacity="0.0"
     inkscape:pageshadow="2"
     inkscape:zoom="0.4345"
     inkscape:cx="-61.660909"
     inkscape:cy="1000"
     inkscape:document-units="px"
     inkscape:current-layer="layer1"
     showgrid="true"
     units="px"
     showguides="false"
     inkscape:window-width="1878"
     inkscape:window-height="1035"
     inkscape:window-x="42"
     inkscape:window-y="0"
     inkscape:window-maximized="0">
    <inkscape:grid
       type="xygrid"
       id="grid4008"
       empspacing="20"
       dotted="false" />
  </sodipodi:namedview>
  <metadata
     id="metadata7">
    <rdf:RDF>
      <cc:Work
         rdf:about="">
        <dc:format>image/svg+xml</dc:format>
        <dc:type
           rdf:resource="http://purl.org/dc/dcmitype/StillImage" />
        <dc:title />
        <cc:license
           rdf:resource="https://github.com/bpmn-io/bpmn-font/blob/master/LICENSE" />
        <dc:creator>
          <cc:Agent>
            <dc:title>Jörg Dotzki</dc:title>
          </cc:Agent>
        </dc:creator>
        <dc:subject>
          <rdf:Bag>
            <rdf:li>BPMN</rdf:li>
            <rdf:li>bpmn-io</rdf:li>
            <rdf:li>bpmn.io</rdf:li>
            <rdf:li>Font</rdf:li>
          </rdf:Bag>
        </dc:subject>
      </cc:Work>
    </rdf:RDF>
  </metadata>
  <g
     inkscape:label="Ebene 1"
     inkscape:groupmode="layer"
     id="layer1"
     transform="translate(0,947.63784)">
    <path
       style="color:#000000;font-style:normal;font-variant:normal;font-weight:normal;font-stretch:normal;font-size:medium;line-height:normal;font-family:sans-serif;text-indent:0;text-align:start;text-decoration:none;text-decoration-line:none;text-decoration-style:solid;text-decoration-color:#000000;letter-spacing:normal;word-spacing:normal;text-transform:none;direction:ltr;block-progression:tb;writing-mode:lr-tb;baseline-shift:baseline;text-anchor:start;white-space:normal;clip-rule:nonzero;display:inline;overflow:visible;visibility:visible;opacity:1;isolation:auto;mix-blend-mode:normal;color-interpolation:sRGB;color-interpolation-filters:linearRGB;solid-color:#000000;solid-opacity:1;fill:#000000;fill-opacity:1;fill-rule:nonzero;stroke:none;stroke-width:9.99999905;stroke-linecap:round;stroke-linejoin:miter;stroke-miterlimit:4;stroke-dasharray:none;stroke-dashoffset:0;stroke-opacity:1;color-rendering:auto;image-rendering:auto;shape-rendering:auto;text-rendering:auto;enable-background:accumulate"
       d="M 791.64258 408.17773 L 791.65625 413.19141 L 791.91211 512.52734 C 770.51337 517.20537 749.23446 523.68656 728.36328 532.39062 L 728.36133 532.39258 L 728.35938 532.39453 C 707.48583 541.12558 688.02743 551.73277 669.8125 563.61523 L 594.84375 489.55078 L 488.3418 596.66797 L 563.22852 670.64648 C 539.26197 707.95647 522.30369 749.3029 513.22852 792.67188 L 406.94727 792.86328 L 406.94727 943.59766 L 514.14258 943.21094 C 518.81829 964.39945 525.32615 985.61804 534.08594 1006.3203 C 542.87501 1027.1211 553.47971 1046.4774 565.47461 1064.5332 L 488.63477 1141.0742 L 596.3125 1246.9004 L 670.2832 1173.2715 L 670.2832 1203.252 L 736.64844 1203.0137 C 751.07894 1208.6398 765.86731 1213.356 780.92188 1217.123 C 784.83065 1232.1214 789.69229 1247.0736 795.68359 1261.7852 L 795.71484 1328.9961 L 800.67383 1329.0332 C 807.35666 1329.0837 815.46873 1329.1123 823.84766 1329.1348 L 751.9707 1400.7305 L 859.64844 1506.5547 L 936.29492 1430.2617 C 973.78763 1454.2391 1015.4488 1471.0793 1059.0059 1480.0938 L 1059.0527 1588.6484 L 1064.0137 1588.6855 C 1111.1805 1589.043 1205.4199 1588.7344 1205.4199 1588.7344 L 1205.9082 1588.7324 L 1210.4043 1587.832 L 1210.4043 1583.7344 L 1210.4043 1479.2031 C 1231.751 1474.6726 1253.0171 1468.1079 1273.8184 1459.4746 L 1273.8281 1459.4727 L 1273.8379 1459.4668 C 1294.7187 1450.7158 1314.225 1440.0938 1332.5625 1428.1758 L 1409.0859 1503.623 L 1515.6406 1396.6582 L 1439.0566 1321.1914 C 1463.0665 1283.8112 1479.9878 1242.4537 1489.0996 1199.082 L 1593.0547 1198.4434 L 1593.0547 1047.8535 L 1488.1406 1048.4941 C 1483.4758 1027.2946 1477.0454 1006.2309 1468.2441 985.46094 L 1468.2441 985.45898 C 1459.4513 964.67471 1448.8405 945.28789 1436.8418 927.14648 L 1509.3438 854.46094 L 1401.7188 748.44531 L 1329.7168 820.69336 L 1329.7168 788.20117 L 1324.6855 788.23047 L 1264.9434 788.5957 C 1250.7604 783.09428 1236.2381 778.46076 1221.4609 774.74609 C 1217.6147 759.98303 1212.817 745.3106 1206.9219 730.77148 L 1207.2832 667.83203 L 1173.7832 667.83203 C 1173.7009 667.70763 1173.6189 667.58338 1173.5371 667.45898 L 1246.0039 594.80664 L 1138.3789 488.79297 L 1065.9648 561.45312 C 1028.4906 537.62198 986.85162 520.73708 943.34766 511.6875 L 943.94531 408.17773 L 791.64258 408.17773 z M 801.66992 418.17773 L 933.88672 418.17773 L 933.30078 519.80469 L 937.36133 520.60156 C 982.41688 529.44297 1025.5453 546.9273 1063.9805 571.97852 L 1067.3848 574.19727 L 1138.4434 502.89258 L 1231.8184 594.86914 L 1160.666 666.20312 L 1161.7695 667.83203 L 1054.9824 667.83203 L 1054.9805 667.83398 L 1055.1504 733.92969 C 994.45243 649.5787 880.9681 614.71858 780.94336 656.54492 C 664.84968 705.07926 610.11835 838.75972 658.91797 954.21484 L 658.91797 954.2168 C 676.28927 995.27827 704.5176 1028.6412 738.86914 1052.3945 L 670.2832 1052.5176 L 670.2832 1052.5195 L 670.2832 1159.1641 L 596.26758 1232.8359 L 502.85156 1141.0273 L 578.33789 1065.834 L 576.00391 1062.4043 C 563.40337 1043.9017 552.38197 1023.9322 543.29492 1002.4258 L 543.29492 1002.4238 C 534.25685 981.06391 527.5931 959.09768 523 937.17383 L 522.16406 933.18359 L 416.94727 933.5625 L 416.94727 802.8457 L 521.34961 802.65625 L 522.14453 798.63086 C 531.00978 753.71757 548.55998 710.92789 573.76367 672.65039 L 576.01953 669.22461 L 502.50586 596.60352 L 594.90625 503.66992 L 668.51562 576.39258 L 671.9043 574.13086 C 690.60023 561.65541 710.67269 550.63146 732.21289 541.62109 L 732.21875 541.61914 C 753.76941 532.63215 775.77633 525.99534 797.9375 521.39453 L 801.93164 520.56641 L 801.66992 418.17773 z M 866.75781 648.82422 C 942.06215 648.02394 1014.481 686.26222 1055.1973 751.71289 L 1055.25 772.18359 C 1033.8516 776.86123 1012.5726 783.34077 991.70117 792.04492 L 991.69922 792.04492 L 991.69531 792.04688 C 970.82171 800.77796 951.36325 811.38705 933.14844 823.26953 L 858.17969 749.20312 L 751.67773 856.32227 L 826.56641 930.30078 C 802.59977 967.61095 785.64156 1008.9571 776.56641 1052.3262 L 757.29883 1052.3613 C 718.68811 1029.4244 686.84752 994.56747 668.12891 950.32227 L 668.12891 950.32031 C 621.45 839.88004 673.6986 712.21611 784.80078 665.76953 L 784.80273 665.76953 C 811.57559 654.5742 839.35747 649.11541 866.75781 648.82422 z M 1065.0078 677.83398 L 1180.3008 677.83398 L 1197.2227 677.83398 L 1196.9141 731.67578 L 1196.9121 731.67578 L 1196.6367 779.46094 L 1200.6992 780.25781 C 1205.8777 781.27401 1211.0342 782.41882 1216.1738 783.66602 L 1218.7441 784.28906 C 1233.5807 788.00568 1248.1621 792.66322 1262.3848 798.23047 L 1262.3809 798.25586 C 1283.1455 806.38392 1303.1439 816.43479 1322.0605 828.29688 L 1324.8457 830.04297 C 1325.6711 830.57123 1326.4973 831.09959 1327.3184 831.63477 L 1330.7227 833.85156 L 1401.7812 762.54883 L 1495.1562 854.52539 L 1424.0039 925.85742 L 1426.3184 929.27148 C 1438.9232 947.87489 1449.9452 967.87717 1459.0332 989.35938 L 1459.0332 989.36133 C 1468.1159 1010.7949 1474.6868 1032.5646 1479.2812 1054.543 L 1480.1172 1058.5449 L 1583.0527 1057.918 L 1583.0527 1188.5059 L 1480.9785 1189.1348 L 1480.1836 1193.1367 C 1471.272 1238.0566 1453.7661 1280.8469 1428.5176 1319.1934 L 1426.2598 1322.623 L 1501.457 1396.7266 L 1409.0195 1489.5195 L 1333.8594 1415.416 L 1330.4766 1417.6641 C 1311.6374 1430.181 1291.5166 1441.2164 1269.9707 1450.2461 C 1248.4521 1459.1759 1226.4503 1465.9089 1204.4258 1470.3066 L 1200.4043 1471.1094 L 1200.4043 1578.7441 C 1192.4958 1578.769 1114.8916 1578.991 1069.0488 1578.6953 L 1069.002 1471.959 L 1064.9609 1471.1699 C 1019.8581 1462.3624 976.73896 1444.9403 938.3125 1419.7461 L 934.91992 1417.5215 L 859.60352 1492.4902 L 766.1875 1400.6816 L 837.98047 1329.168 L 844.17188 1329.1816 L 841.67188 1325.4922 L 841.67578 1325.4883 L 840.52539 1323.7988 L 838.87109 1321.3574 C 836.54547 1317.9248 834.27357 1314.4418 832.05859 1310.9082 C 826.89031 1302.6632 822.02999 1294.1409 817.50586 1285.3379 C 816.85956 1284.0803 816.22037 1282.8179 815.58789 1281.5488 C 814.95541 1280.2797 814.32942 1279.0053 813.71094 1277.7246 C 813.09246 1276.444 812.48126 1275.1575 811.87695 1273.8652 C 811.27264 1272.573 810.67591 1271.2746 810.08594 1269.9707 C 809.49597 1268.6668 808.91335 1267.3565 808.33789 1266.041 C 807.76267 1264.726 807.19337 1263.4067 806.63281 1262.0801 L 806.63281 1262.0781 L 806.63281 1262.0762 C 806.20628 1261.0681 805.78081 1259.9853 805.30859 1258.8359 L 804.03516 1255.7344 L 804.03125 1255.7344 C 798.574 1242.0642 794.06702 1228.1747 790.43164 1214.2324 L 789.83594 1211.8809 L 789.80273 1211.752 C 789.77039 1211.6242 789.74119 1211.4969 789.70898 1211.3691 C 788.52419 1206.6704 787.43194 1201.9761 786.44336 1197.291 L 786.44336 1192.8359 L 785.50195 1192.8398 L 785.50195 1192.8379 L 781.42578 1192.8535 L 757.97656 1192.9375 L 737.54492 1193.0098 L 680.2832 1193.2168 L 680.2832 1175.3672 L 680.2832 1062.5 L 784.6875 1062.3105 L 785.48242 1058.2871 C 794.34768 1013.3738 811.89791 970.58017 837.10156 932.30273 L 839.35742 928.87891 L 765.8418 856.25781 L 858.24219 763.32227 L 931.85156 836.04688 L 935.24219 833.78516 C 953.93869 821.30934 974.01008 810.28389 995.55078 801.27344 L 995.55469 801.27148 C 1017.1055 792.28433 1039.1151 785.6518 1061.2773 781.05078 L 1065.2715 780.22266 L 1065.2402 768.06055 L 1065.2324 764.94141 L 1065.0078 677.83398 z M 1206.752 760.11133 C 1208.0105 764.10109 1209.11 768.10969 1210.2188 772.11719 C 1209.0412 771.86013 1207.8679 771.58538 1206.6875 771.33984 L 1206.6875 771.33789 L 1206.752 760.11133 z M 1319.7168 798.26172 L 1319.7168 815.24023 C 1309.4198 809.12788 1298.8359 803.52765 1288.0059 798.45508 L 1319.7168 798.26172 z M 1133.0918 898.48047 C 1131.2436 898.47457 1129.3945 898.49016 1127.543 898.5293 L 1127.543 898.52148 C 1127.7149 898.51778 1127.6514 898.51788 1127.4746 898.52148 L 1127.4668 898.52148 L 1127.4648 898.52148 C 1126.7338 898.53679 1126.0994 898.57169 1125.5625 898.58789 L 1125.5625 898.5957 C 1122.4594 898.68826 1119.3529 898.83033 1116.2441 899.05078 L 1116.2441 899.04297 C 1115.7427 899.07869 1115.3349 899.12209 1115.0176 899.14648 L 1115.0176 899.15234 C 1091.2604 900.96617 1067.4073 906.52884 1044.2812 916.19922 C 965.91219 948.96162 915.516 1020.5266 906.04297 1099.0918 L 906.02344 1099.0898 C 906.02302 1099.0928 906.02385 1099.0917 906.02344 1099.0957 C 906.01744 1099.1489 906.01767 1099.1477 906.01367 1099.1855 C 906.00467 1099.263 905.99269 1099.3591 905.99219 1099.3633 L 905.99414 1099.3633 C 905.99403 1099.3643 905.99219 1099.3743 905.99219 1099.375 L 906.00977 1099.377 C 905.70898 1101.8984 905.45432 1104.4262 905.23828 1106.9609 L 905.21875 1106.959 C 905.21861 1106.961 905.21889 1106.9648 905.21875 1106.9668 C 905.21275 1107.0415 905.1992 1107.1834 905.1875 1107.3125 C 905.1815 1107.3782 905.17847 1107.4049 905.17188 1107.4863 C 905.17173 1107.4883 905.17201 1107.4882 905.17188 1107.4902 L 905.19141 1107.4922 C 904.75568 1112.7512 904.50663 1118.0362 904.44141 1123.3379 L 904.42578 1123.3379 C 904.42573 1123.3419 904.42587 1123.3625 904.42578 1123.3672 C 904.42505 1123.4073 904.42192 1123.5335 904.41992 1123.6191 C 904.41792 1123.6994 904.41802 1123.7252 904.41602 1123.8555 C 904.4159 1123.8694 904.4161 1123.8684 904.41602 1123.8828 L 904.43164 1123.8828 C 904.37992 1129.1168 904.51515 1134.3663 904.83203 1139.623 L 904.82031 1139.623 C 904.83631 1139.8902 904.85209 1140.1727 904.87109 1140.4707 C 904.87109 1140.4707 904.87109 1140.4727 904.87109 1140.4727 L 904.88281 1140.4727 C 905.21199 1145.6089 905.72187 1150.7506 906.41016 1155.8906 L 906.40039 1155.8926 C 906.45989 1156.3368 906.52187 1156.7809 906.58398 1157.2246 L 906.58984 1157.2246 C 906.94197 1159.7393 907.32811 1162.2533 907.76758 1164.7656 L 907.76172 1164.7676 C 907.76262 1164.7726 907.76267 1164.7723 907.76367 1164.7773 L 907.76172 1164.7773 C 907.78522 1164.911 907.79435 1164.9542 907.81055 1165.0391 C 907.82475 1165.113 907.84782 1165.2396 907.85352 1165.2715 L 907.85547 1165.2715 C 907.85547 1165.2715 907.85547 1165.2734 907.85547 1165.2734 L 907.86133 1165.2715 C 908.27679 1167.6149 908.73828 1169.9554 909.23047 1172.2949 L 909.22461 1172.2969 C 909.22461 1172.2969 909.22461 1172.2988 909.22461 1172.2988 C 909.32755 1172.7879 909.43337 1173.2901 909.54492 1173.8027 L 909.55078 1173.8008 C 910.08809 1176.2706 910.6555 1178.7399 911.2793 1181.2031 L 911.27734 1181.2031 C 911.35584 1181.513 911.41887 1181.7354 911.45312 1181.8691 C 911.45312 1181.8691 911.45312 1181.8711 911.45312 1181.8711 L 911.45703 1181.8711 C 912.04244 1184.1534 912.67164 1186.4301 913.33203 1188.7051 L 913.33008 1188.7051 L 913.32812 1188.7051 C 913.48173 1189.234 913.63767 1189.7584 913.79297 1190.2793 L 913.79492 1190.2793 C 915.24808 1195.1526 916.87484 1200.0068 918.67773 1204.834 C 919.00858 1205.7198 919.34585 1206.6299 919.70703 1207.5605 L 919.70898 1207.5605 C 919.89911 1208.0504 920.08942 1208.54 920.2832 1209.0293 L 920.28125 1209.0293 C 920.91695 1210.6343 921.57014 1212.2487 922.25586 1213.8711 L 922.25586 1213.873 C 923.25961 1216.2457 924.31349 1218.5815 925.38867 1220.9023 C 925.38867 1220.9023 925.38867 1220.9043 925.38867 1220.9043 C 925.65545 1221.4798 925.9237 1222.0501 926.19141 1222.6152 C 928.41001 1227.302 930.77145 1231.8817 933.27148 1236.3496 C 933.27148 1236.3496 933.27148 1236.3516 933.27148 1236.3516 C 933.47583 1236.7168 933.67906 1237.0726 933.87695 1237.4219 C 933.87739 1237.4226 933.87847 1237.4231 933.87891 1237.4238 C 989.98649 1336.4246 1113.5539 1380.3841 1221.3906 1335.2598 C 1337.4418 1286.7144 1392.1732 1152.946 1343.3711 1037.5859 C 1322.5951 988.47963 1286.3222 950.39878 1242.5664 926.5918 L 1242.5742 926.57812 C 1242.0962 926.31799 1241.6506 926.08406 1241.2422 925.86523 L 1241.2402 925.86523 L 1241.2363 925.87305 C 1239.562 924.97622 1237.879 924.09721 1236.1836 923.24219 L 1236.1875 923.23438 C 1235.8014 923.03961 1235.3847 922.8257 1234.9336 922.60156 L 1234.9258 922.61914 C 1232.8659 921.59597 1230.7941 920.59977 1228.7051 919.63867 L 1228.7129 919.62305 C 1228.4239 919.49002 1228.1796 919.38187 1227.9805 919.29102 L 1227.9727 919.30664 C 1226.112 918.45846 1224.2398 917.6345 1222.3574 916.83594 L 1222.3633 916.82227 C 1221.8752 916.6152 1221.3927 916.41329 1220.916 916.21484 L 1220.9141 916.21484 L 1220.9102 916.22461 C 1219.021 915.43822 1217.1205 914.67948 1215.2109 913.94336 L 1215.2168 913.92773 C 1215.0114 913.8486 1214.7624 913.74882 1214.4688 913.63672 L 1214.4629 913.65234 C 1212.3517 912.84692 1210.2262 912.07749 1208.0918 911.33398 L 1208.0977 911.31445 C 1207.4724 911.0967 1206.9016 910.91179 1206.3906 910.73828 L 1206.3887 910.74219 C 1204.7478 910.18488 1203.0989 909.64941 1201.4453 909.12891 L 1201.4492 909.11914 C 1200.8733 908.93786 1200.273 908.74549 1199.6426 908.55273 L 1199.6367 908.56836 C 1195.2581 907.22935 1190.8394 906.01173 1186.3828 904.93359 L 1186.3848 904.92773 C 1185.8937 904.80899 1185.4201 904.69887 1184.9648 904.5918 L 1184.9629 904.5918 L 1184.9609 904.60352 C 1183.141 904.1754 1181.3156 903.76885 1179.4844 903.38477 L 1179.4863 903.375 C 1179.0116 903.27548 1178.4882 903.1596 1177.9121 903.04297 L 1177.9102 903.05469 C 1175.6871 902.60457 1173.4547 902.19137 1171.2168 901.80664 L 1171.2207 901.78906 C 1170.8125 901.71902 1170.4858 901.6729 1170.2461 901.63281 L 1170.2441 901.63281 L 1170.2441 901.63477 C 1168.308 901.31046 1166.3659 901.01911 1164.4199 900.74414 L 1164.4219 900.73242 C 1163.7738 900.64093 1163.1373 900.55758 1162.5117 900.47461 L 1162.5117 900.47656 C 1160.628 900.22647 1158.7394 900.0043 1156.8477 899.80078 L 1156.8477 899.79297 C 1156.5244 899.75822 1156.1412 899.70965 1155.6953 899.66406 L 1155.6934 899.68164 C 1153.4343 899.45015 1151.1713 899.24851 1148.9023 899.08398 L 1148.9023 899.07227 C 1148.272 899.02668 1147.697 898.99655 1147.1777 898.96289 L 1147.1777 898.96875 C 1145.0268 898.82909 1142.873 898.71566 1140.7148 898.63672 C 1140.467 898.62577 1140.2234 898.61412 1139.9609 898.60547 L 1139.959 898.60547 L 1139.959 898.61328 C 1137.6731 898.53723 1135.3841 898.48779 1133.0918 898.48047 z M 1133.0996 908.46094 L 1133.1016 908.46094 C 1135.2805 908.46747 1137.4562 908.51447 1139.6289 908.58594 L 1139.6289 908.59961 C 1140.2325 908.61948 1140.8644 908.6481 1141.5254 908.67578 L 1141.5273 908.65039 C 1143.198 908.71987 1144.8653 908.81433 1146.5312 908.92188 L 1146.5293 908.94141 C 1147.1363 908.98078 1147.687 909.01111 1148.1816 909.04688 L 1148.1836 909.0332 C 1150.3539 909.18979 1152.5188 909.3809 1154.6797 909.60156 L 1154.6777 909.61328 C 1154.9841 909.64459 1155.3506 909.68831 1155.7793 909.73438 L 1155.7812 909.71484 C 1157.5914 909.90893 1159.3988 910.12069 1161.2012 910.35938 L 1161.1973 910.38672 C 1161.8187 910.46915 1162.4265 910.5505 1163.0234 910.63477 L 1163.0254 910.61523 C 1164.8873 910.8777 1166.7452 911.15513 1168.5977 911.46484 L 1168.5938 911.49414 C 1168.9896 911.56041 1169.3031 911.60573 1169.5293 911.64453 L 1169.5312 911.62891 C 1171.6715 911.99622 1173.8056 912.39434 1175.9316 912.82422 L 1175.9277 912.84375 C 1176.3808 912.93548 1176.8809 913.04625 1177.4336 913.16211 L 1177.4395 913.13672 C 1179.1916 913.50374 1180.9384 913.89353 1182.6797 914.30273 L 1182.6738 914.32617 C 1183.1455 914.43708 1183.5991 914.54346 1184.0332 914.64844 L 1184.041 914.61914 C 1188.3062 915.64998 1192.5343 916.81293 1196.7246 918.09375 L 1196.7188 918.11523 C 1197.2701 918.28382 1197.8446 918.46852 1198.4473 918.6582 L 1198.457 918.62891 C 1200.0389 919.12664 1201.6158 919.63889 1203.1855 920.17188 L 1203.1738 920.20703 C 1203.7763 920.41161 1204.3235 920.58887 1204.8086 920.75781 L 1204.8145 920.74023 C 1206.8572 921.45162 1208.8917 922.1863 1210.9121 922.95703 L 1210.9023 922.98047 C 1211.098 923.05515 1211.3373 923.15044 1211.6211 923.25977 L 1211.6211 923.25781 L 1211.6289 923.23633 C 1213.4567 923.94086 1215.2758 924.66721 1217.084 925.41992 L 1217.0723 925.44727 C 1217.5414 925.64255 1218.0038 925.8362 1218.459 926.0293 L 1218.4707 926.00391 C 1220.2712 926.76781 1222.0602 927.55773 1223.8398 928.36914 L 1223.8301 928.38867 C 1224.1085 928.51565 1224.3434 928.61974 1224.5332 928.70703 L 1224.543 928.6875 C 1226.5409 929.60686 1228.5242 930.55834 1230.4941 931.53711 L 1230.4844 931.55664 C 1230.8531 931.73986 1231.2525 931.94657 1231.6836 932.16406 L 1231.6992 932.13477 C 1233.3208 932.95281 1234.9299 933.79622 1236.5312 934.6543 L 1236.5176 934.67969 C 1236.9788 934.92684 1237.4065 935.14994 1237.7949 935.36133 L 1237.8066 935.3418 C 1279.6292 958.10658 1314.2937 994.52154 1334.1621 1041.4824 C 1380.8399 1151.8211 1328.5882 1279.5778 1217.5332 1326.0332 L 1217.5332 1326.0352 C 1114.3302 1369.2206 996.22696 1327.1918 942.57617 1232.4922 C 942.57617 1232.4922 942.57617 1232.4902 942.57617 1232.4902 C 942.55183 1232.4473 942.52817 1232.4061 942.50391 1232.3633 C 942.33497 1232.0646 942.1657 1231.7665 941.99805 1231.4668 C 941.99805 1231.4668 941.99805 1231.4648 941.99805 1231.4648 L 941.99609 1231.4648 C 939.6074 1227.1944 937.35073 1222.8174 935.23047 1218.3379 C 935.23047 1218.3379 935.23047 1218.3359 935.23047 1218.3359 C 935.14767 1218.1612 935.06644 1217.9886 934.98438 1217.8145 C 934.80887 1217.442 934.63349 1217.0675 934.46289 1216.6992 C 934.46277 1216.699 934.46105 1216.6995 934.46094 1216.6992 C 933.4332 1214.4805 932.42639 1212.2467 931.4668 1209.9785 C 931.46656 1209.978 931.46703 1209.9771 931.4668 1209.9766 C 930.61908 1207.9709 929.81396 1205.9578 929.03125 1203.9414 C 928.78083 1203.2962 928.52963 1202.6232 928.27734 1201.9492 C 928.20004 1201.7442 928.12156 1201.5391 928.04492 1201.334 C 926.32104 1196.7195 924.76503 1192.0798 923.375 1187.4219 L 923.37695 1187.4219 C 923.2588 1187.0256 923.14232 1186.6339 923.02734 1186.2422 C 922.99558 1186.134 922.96298 1186.0239 922.93164 1185.916 C 922.30025 1183.7428 921.69855 1181.5668 921.13867 1179.3867 L 921.14062 1179.3867 C 921.14013 1179.3847 921.13967 1179.3848 921.13867 1179.3828 C 921.09027 1179.1943 921.06347 1179.0984 921.03125 1178.9785 C 921.01315 1178.9112 920.9821 1178.7947 920.9707 1178.75 C 920.9707 1178.75 920.9707 1178.748 920.9707 1178.748 L 920.96875 1178.748 C 920.37188 1176.394 919.82876 1174.0359 919.31445 1171.6758 L 919.31641 1171.6758 C 919.21472 1171.2085 919.1132 1170.7297 919.00977 1170.2383 C 918.53881 1168.0038 918.09504 1165.7674 917.69727 1163.5293 L 917.70117 1163.5293 C 917.70081 1163.5273 917.70153 1163.5274 917.70117 1163.5254 C 917.65797 1163.282 917.62638 1163.1285 917.61328 1163.0547 C 917.61306 1163.0537 917.61133 1163.0479 917.61133 1163.0469 L 917.60742 1163.0469 C 917.18631 1160.6456 916.8162 1158.2433 916.47852 1155.8398 L 916.48633 1155.8379 C 916.48633 1155.8379 916.48633 1155.8359 916.48633 1155.8359 C 916.42713 1155.4137 916.36964 1154.9905 916.3125 1154.5645 L 916.30664 1154.5645 C 915.64678 1149.6541 915.15693 1144.7422 914.83984 1139.8359 L 914.84961 1139.8359 C 914.84961 1139.8359 914.84961 1139.834 914.84961 1139.834 C 914.83341 1139.5817 914.81798 1139.3108 914.80078 1139.0234 L 914.79102 1139.0234 C 914.48526 1133.9962 914.35344 1128.9758 914.40039 1123.9707 L 914.41602 1123.9707 C 914.41606 1123.9667 914.41593 1123.9461 914.41602 1123.9414 C 914.41618 1123.9132 914.41987 1123.779 914.42188 1123.6973 C 914.42387 1123.6163 914.42478 1123.5781 914.42578 1123.4551 C 914.4259 1123.4402 914.42569 1123.4413 914.42578 1123.4258 L 914.4082 1123.4258 C 914.46846 1118.3686 914.70609 1113.3287 915.11914 1108.3125 L 915.13672 1108.3145 C 915.13672 1108.3145 915.13672 1108.3125 915.13672 1108.3125 L 915.13867 1108.3125 C 915.14467 1108.2452 915.15522 1108.1079 915.16602 1107.9902 C 915.17202 1107.9203 915.17619 1107.8868 915.18359 1107.7988 C 915.18397 1107.7938 915.18555 1107.7941 915.18555 1107.7891 L 915.16602 1107.7871 C 915.37048 1105.3761 915.61175 1102.9707 915.89648 1100.5723 L 915.91992 1100.5742 C 915.93452 1100.4543 915.93661 1100.4266 915.94141 1100.3809 C 915.94341 1100.3596 915.95017 1100.2962 915.95117 1100.291 C 915.95121 1100.2907 915.95114 1100.2852 915.95117 1100.2852 L 915.92969 1100.2832 C 924.94914 1025.1729 973.12324 956.78617 1048.1387 925.42578 L 1048.1387 925.42383 C 1070.2593 916.17389 1093.0679 910.85077 1115.7812 909.10938 L 1115.7812 909.11719 C 1116.2671 909.08005 1116.6581 909.03872 1116.9551 909.01758 L 1116.9551 909.01172 C 1119.927 908.80002 1122.8968 908.66374 1125.8633 908.57422 L 1125.8633 908.58398 C 1126.5764 908.56255 1127.2072 908.53124 1127.7559 908.51953 L 1127.7559 908.50977 C 1129.5388 908.47144 1131.3199 908.45561 1133.0996 908.46094 z M 777.25391 1202.8672 L 777.47461 1202.8672 C 777.69939 1203.8805 777.94601 1204.8917 778.17969 1205.9043 C 774.5754 1204.944 770.9746 1203.9768 767.4043 1202.9043 L 777.25391 1202.8672 z M 805.69531 1284.0625 C 811.7047 1296.2672 818.35551 1307.9375 825.53125 1319.127 C 818.51314 1319.1089 811.69086 1319.0881 805.71094 1319.0527 L 805.69531 1284.0625 z "
       transform="translate(0,-947.63784)"
       id="path4170" />
  </g>
</svg>
