<?xml version="1.0" encoding="UTF-8" standalone="no"?>
<!-- Created with Inkscape (http://www.inkscape.org/) -->

<svg
   xmlns:dc="http://purl.org/dc/elements/1.1/"
   xmlns:cc="http://creativecommons.org/ns#"
   xmlns:rdf="http://www.w3.org/1999/02/22-rdf-syntax-ns#"
   xmlns:svg="http://www.w3.org/2000/svg"
   xmlns="http://www.w3.org/2000/svg"
   xmlns:sodipodi="http://sodipodi.sourceforge.net/DTD/sodipodi-0.dtd"
   xmlns:inkscape="http://www.inkscape.org/namespaces/inkscape"
   width="2000"
   height="2000"
   viewBox="0 0 2000 2000"
   id="svg2"
   version="1.1"
   inkscape:version="0.91 r13725"
   sodipodi:docname="user.svg">
  <defs
     id="defs4" />
  <sodipodi:namedview
     id="base"
     pagecolor="#ffffff"
     bordercolor="#666666"
     borderopacity="1.0"
     inkscape:pageopacity="0.0"
     inkscape:pageshadow="2"
     inkscape:zoom="0.58716216"
     inkscape:cx="693.1683"
     inkscape:cy="999.99998"
     inkscape:document-units="px"
     inkscape:current-layer="layer1"
     showgrid="true"
     units="px"
     showguides="false"
     inkscape:window-width="1878"
     inkscape:window-height="1035"
     inkscape:window-x="42"
     inkscape:window-y="0"
     inkscape:window-maximized="0">
    <inkscape:grid
       type="xygrid"
       id="grid4008"
       empspacing="20"
       dotted="false" />
  </sodipodi:namedview>
  <metadata
     id="metadata7">
    <rdf:RDF>
      <cc:Work
         rdf:about="">
        <dc:format>image/svg+xml</dc:format>
        <dc:type
           rdf:resource="http://purl.org/dc/dcmitype/StillImage" />
        <dc:title />
        <cc:license
           rdf:resource="https://github.com/bpmn-io/bpmn-font/blob/master/LICENSE" />
        <dc:creator>
          <cc:Agent>
            <dc:title>Jörg Dotzki</dc:title>
          </cc:Agent>
        </dc:creator>
        <dc:subject>
          <rdf:Bag>
            <rdf:li>BPMN</rdf:li>
            <rdf:li>bpmn-io</rdf:li>
            <rdf:li>bpmn.io</rdf:li>
            <rdf:li>Font</rdf:li>
          </rdf:Bag>
        </dc:subject>
      </cc:Work>
    </rdf:RDF>
  </metadata>
  <g
     inkscape:label="Ebene 1"
     inkscape:groupmode="layer"
     id="layer1"
     transform="translate(0,947.63784)">
    <path
       style="color:#000000;font-style:normal;font-variant:normal;font-weight:normal;font-stretch:normal;font-size:medium;line-height:normal;font-family:sans-serif;text-indent:0;text-align:start;text-decoration:none;text-decoration-line:none;text-decoration-style:solid;text-decoration-color:#000000;letter-spacing:normal;word-spacing:normal;text-transform:none;direction:ltr;block-progression:tb;writing-mode:lr-tb;baseline-shift:baseline;text-anchor:start;white-space:normal;clip-rule:nonzero;display:inline;overflow:visible;visibility:visible;opacity:1;isolation:auto;mix-blend-mode:normal;color-interpolation:sRGB;color-interpolation-filters:linearRGB;solid-color:#000000;solid-opacity:1;fill:#000000;fill-opacity:1;fill-rule:nonzero;stroke:none;stroke-width:9.99999905;stroke-linecap:round;stroke-linejoin:miter;stroke-miterlimit:4;stroke-dasharray:none;stroke-dashoffset:0;stroke-opacity:1;color-rendering:auto;image-rendering:auto;shape-rendering:auto;text-rendering:auto;enable-background:accumulate"
       d="M 984.45117 413 L 974.86523 413.68555 C 805.69626 413.68555 693.83398 535.02147 693.83398 691.27344 C 693.83398 771.0068 751.74776 840.79141 809.06836 891.21484 C 778.34797 901.76957 701.29813 930.03757 623.28125 973.81836 C 578.60444 998.88968 534.6022 1028.6378 500.89453 1062.6094 C 467.18688 1096.5809 443.49325 1135.1047 441.32812 1177.498 L 441.31445 1177.7031 L 441.31445 1586.5371 L 637.71289 1586.5371 C 639.45341 1587.155 641.35326 1587.155 643.09375 1586.5371 L 1558.6855 1586.5371 L 1558.6855 1177.9062 C 1558.6855 1140.1465 1534.5769 1104.3012 1499.6875 1071.2773 C 1464.7982 1038.2535 1418.5183 1007.7172 1371.293 981.16406 C 1287.7448 934.18785 1205.2176 901.39783 1173.7285 890.06055 C 1228.9475 839.09915 1269.9531 769.26867 1269.9531 691.27344 C 1269.9531 534.86412 1153.6201 413 984.45117 413 z M 907.68945 576.60352 C 934.4909 576.4411 961.91506 582.03926 988.53516 596.34375 C 1105.0785 658.93815 1230.4661 682.66284 1252.4902 663.21289 C 1253.4 672.41541 1253.8711 681.77435 1253.8711 691.27344 C 1253.8711 767.95173 1210.9575 837.77695 1153.4219 887.00781 L 1142.4492 896.39648 L 1156.209 900.7793 C 1167.7222 904.44689 1225.998 926.21849 1293.6309 958.90039 C 1290.0905 1099.0466 1154.3849 1212.502 986.39648 1212.502 C 818.39134 1212.502 682.92357 1102.751 679.10742 962.73438 C 749.81431 928.08541 813.48852 906.41508 827.18945 901.95703 L 840.95508 897.47852 L 829.87891 888.1582 C 770.92585 838.54336 709.91797 767.44512 709.91797 691.27344 C 709.91797 681.58919 710.38926 672.05338 711.29688 662.67969 C 730.95574 645.63766 815.62762 577.16142 907.68945 576.60352 z M 1303.4727 963.70508 C 1323.1248 973.38563 1343.3976 983.93121 1363.4102 995.18359 C 1409.9478 1021.3501 1455.3155 1051.4249 1488.6309 1082.959 C 1521.9464 1114.4931 1542.6016 1147.1521 1542.6016 1177.9062 L 1542.6016 1570.4531 L 1361.0371 1570.4531 L 1361.0371 1281.6348 L 1344.9551 1281.6348 L 1344.9551 1570.4531 L 648.44141 1570.4531 L 648.44141 1281.6348 C 648.59518 1270.7597 632.20369 1270.7597 632.35742 1281.6348 L 632.35742 1570.4531 L 457.40039 1570.4531 L 457.40039 1178.2363 C 459.31103 1141.3825 480.26056 1106.2384 512.31055 1073.9375 C 544.38435 1041.6126 587.28726 1012.4604 631.15039 987.8457 C 643.862 980.71232 656.65015 973.97015 669.2832 967.61719 C 676.05827 1111.6044 815.84057 1222.502 986.39648 1222.502 C 1157.1038 1222.502 1297.0163 1107.947 1303.4727 963.70508 z "
       transform="translate(0,-947.63784)"
       id="path4135" />
  </g>
</svg>
