<?xml version="1.0" encoding="UTF-8" standalone="no"?>
<svg
   xmlns:dc="http://purl.org/dc/elements/1.1/"
   xmlns:cc="http://creativecommons.org/ns#"
   xmlns:rdf="http://www.w3.org/1999/02/22-rdf-syntax-ns#"
   xmlns:svg="http://www.w3.org/2000/svg"
   xmlns="http://www.w3.org/2000/svg"
   version="1.1"
   id="svg2"
   viewBox="0 0 2000 2000"
   height="2000"
   width="2000">
  <defs
     id="defs4" />
  <metadata
     id="metadata7">
    <rdf:RDF>
      <cc:Work
         rdf:about="">
        <dc:format>image/svg+xml</dc:format>
        <dc:type
           rdf:resource="http://purl.org/dc/dcmitype/StillImage" />
        <dc:title></dc:title>
        <cc:license
           rdf:resource="https://github.com/bpmn-io/bpmn-font/blob/master/LICENSE" />
        <dc:creator>
          <cc:Agent>
            <dc:title>Ricardo Matias</dc:title>
          </cc:Agent>
        </dc:creator>
        <dc:subject>
          <rdf:Bag>
            <rdf:li>BPMN</rdf:li>
            <rdf:li>bpmn-io</rdf:li>
            <rdf:li>bpmn.io</rdf:li>
            <rdf:li>Font</rdf:li>
          </rdf:Bag>
        </dc:subject>
      </cc:Work>
    </rdf:RDF>
  </metadata>
  <g
     style="display:inline"
     transform="translate(0,947.63784)"
     id="layer1">
    <path
       id="path4662"
       transform="translate(0,-947.63784)"
       d="M 27.601562 21.826172 L 27.736328 24.134766 L 27.828125 25.691406 L 27.601562 25.515625 L 98.304688 1225.6641 L 98.505859 1225.4043 L 98.603516 1227.0605 L 363.00195 886.86914 L 604.11914 1323.5859 L 604.70898 1323.2402 L 604.90039 1323.5859 L 796.56836 1211.5195 L 549.30859 783.04492 L 953.16797 746.54688 L 952.83984 746.29102 L 957.08203 745.9082 L 27.601562 21.826172 z M 29.962891 26.318359 L 951.61523 744.30078 L 950.42383 744.4082 L 30.027344 27.404297 L 29.962891 26.318359 z M 547.00977 783.25391 L 793.71484 1210.7637 L 793.11328 1211.1152 L 546.24609 783.32227 L 547.00977 783.25391 z M 940 902 L 940 1179.8379 L 1020 1179.8379 L 1020 982 L 1180 982 L 1217.707 982 L 1217.707 902 L 1180 902 L 940 902 z M 1340 902 L 1340 982 L 1580 982 L 1580 902 L 1340 902 z M 1700 902 L 1700 982 L 1900 982 L 1900 1182 L 1980 1182 L 1980 902 L 1700 902 z M 940 1342 L 940 1582 L 1020 1582 L 1020 1342 L 940 1342 z M 1899.4277 1342 L 1899.4277 1582 L 1979.4277 1582 L 1979.4277 1342 L 1899.4277 1342 z M 1900 1702 L 1900 1902 L 1700 1902 L 1700 1982 L 1980 1982 L 1980 1702 L 1900 1702 z M 940 1704 L 940 1984 L 1220 1984 L 1220 1904 L 1020 1904 L 1020 1704 L 940 1704 z M 1340 1904 L 1340 1984 L 1580 1984 L 1580 1904 L 1340 1904 z "
       style="color:#000000;font-style:normal;font-variant:normal;font-weight:normal;font-stretch:normal;font-size:medium;line-height:normal;font-family:sans-serif;text-indent:0;text-align:start;text-decoration:none;text-decoration-line:none;text-decoration-style:solid;text-decoration-color:#000000;letter-spacing:normal;word-spacing:normal;text-transform:none;direction:ltr;block-progression:tb;writing-mode:lr-tb;baseline-shift:baseline;text-anchor:start;white-space:normal;clip-rule:nonzero;display:inline;overflow:visible;visibility:visible;opacity:1;isolation:auto;mix-blend-mode:normal;color-interpolation:sRGB;color-interpolation-filters:linearRGB;solid-color:#000000;solid-opacity:1;fill:#000000;fill-opacity:1;fill-rule:evenodd;stroke:none;stroke-width:2.0935843px;stroke-linecap:butt;stroke-linejoin:miter;stroke-miterlimit:4;stroke-dasharray:none;stroke-dashoffset:0;stroke-opacity:1;color-rendering:auto;image-rendering:auto;shape-rendering:auto;text-rendering:auto;enable-background:accumulate;marker-end:" />
  </g>
  <g
     id="layer2" />
</svg>
