<?xml version="1.0" encoding="UTF-8" standalone="no"?>
<svg
   xmlns:dc="http://purl.org/dc/elements/1.1/"
   xmlns:cc="http://creativecommons.org/ns#"
   xmlns:rdf="http://www.w3.org/1999/02/22-rdf-syntax-ns#"
   xmlns:svg="http://www.w3.org/2000/svg"
   xmlns="http://www.w3.org/2000/svg"
   version="1.1"
   id="svg5330"
   viewBox="0 0 2000 2000"
   height="2000"
   width="2000">
  <defs
     id="defs5332" />
  <metadata
     id="metadata5335">
    <rdf:RDF>
      <cc:Work
         rdf:about="">
        <dc:format>image/svg+xml</dc:format>
        <dc:type
           rdf:resource="http://purl.org/dc/dcmitype/StillImage" />
        <dc:title></dc:title>
      </cc:Work>
    </rdf:RDF>
  </metadata>
  <g
     transform="translate(0,947.63784)"
     id="layer1">
    <path
       id="path5905"
       transform="translate(0,-947.63784)"
       d="M 1011.5488 47.941406 L 566.16992 528.46094 L 577.32812 528.46094 L 579.45508 528.46094 L 965.5 528.46094 L 965.5 965.5 L 536.96484 965.5 L 536.96484 566.16797 L 528.88477 573.24414 L 56.605469 986.87695 L 536.96484 1445.834 L 536.96484 1046.5 L 965.5 1046.5 L 965.5 1468.2324 L 566.07227 1468.2324 L 573.73047 1476.4648 L 1013.125 1948.7109 L 1445.9277 1478.0254 L 1443.7793 1478.0254 L 1443.7793 1473.1289 L 1443.7793 1468.2324 L 1046.5 1468.2324 L 1046.5 1046.5 L 1476.9023 1046.5 L 1476.9023 1445.8301 L 1957.1914 1025.123 L 1953.3438 1021.4473 L 1476.9023 566.17188 L 1476.9023 965.5 L 1046.5 965.5 L 1046.5 528.46094 L 1445.8301 528.46094 L 1438.4746 520.32422 L 1011.5488 47.941406 z "
       style="color:#000000;font-style:normal;font-variant:normal;font-weight:normal;font-stretch:normal;font-size:medium;line-height:normal;font-family:sans-serif;text-indent:0;text-align:start;text-decoration:none;text-decoration-line:none;text-decoration-style:solid;text-decoration-color:#000000;letter-spacing:normal;word-spacing:normal;text-transform:none;direction:ltr;block-progression:tb;writing-mode:lr-tb;baseline-shift:baseline;text-anchor:start;white-space:normal;clip-rule:nonzero;display:inline;overflow:visible;visibility:visible;opacity:1;isolation:auto;mix-blend-mode:normal;color-interpolation:sRGB;color-interpolation-filters:linearRGB;solid-color:#000000;solid-opacity:1;fill:#000000;fill-opacity:1;fill-rule:evenodd;stroke:none;stroke-width:9.7410059;stroke-linecap:butt;stroke-linejoin:miter;stroke-miterlimit:4;stroke-dasharray:none;stroke-dashoffset:0;stroke-opacity:1;color-rendering:auto;image-rendering:auto;shape-rendering:auto;text-rendering:auto;enable-background:accumulate" />
  </g>
  <g
     id="g5939"
     transform="translate(0,947.63784)" />
</svg>
