<?xml version="1.0" encoding="UTF-8" standalone="no"?>
<svg
   xmlns:dc="http://purl.org/dc/elements/1.1/"
   xmlns:cc="http://creativecommons.org/ns#"
   xmlns:rdf="http://www.w3.org/1999/02/22-rdf-syntax-ns#"
   xmlns:svg="http://www.w3.org/2000/svg"
   xmlns="http://www.w3.org/2000/svg"
   width="2000"
   height="2000"
   viewBox="0 0 2000 2000"
   id="svg2"
   version="1.1">
  <defs
     id="defs4" />
  <metadata
     id="metadata7">
    <rdf:RDF>
      <cc:Work
         rdf:about="">
        <dc:format>image/svg+xml</dc:format>
        <dc:type
           rdf:resource="http://purl.org/dc/dcmitype/StillImage" />
        <dc:title></dc:title>
        <cc:license
           rdf:resource="https://github.com/bpmn-io/bpmn-font/blob/master/LICENSE" />
        <dc:creator>
          <cc:Agent>
            <dc:title>Jörg Dotzki</dc:title>
          </cc:Agent>
        </dc:creator>
        <dc:subject>
          <rdf:Bag>
            <rdf:li>BPMN</rdf:li>
            <rdf:li>bpmn-io</rdf:li>
            <rdf:li>bpmn.io</rdf:li>
            <rdf:li>Font</rdf:li>
          </rdf:Bag>
        </dc:subject>
      </cc:Work>
    </rdf:RDF>
  </metadata>
  <g
     transform="matrix(0.9,0,0,0.9,98.208682,99.172463)"
     id="layer1"
     style="display:inline">
    <path
       style="color:#000000;font-style:normal;font-variant:normal;font-weight:normal;font-stretch:normal;font-size:medium;line-height:normal;font-family:sans-serif;text-indent:0;text-align:start;text-decoration:none;text-decoration-line:none;text-decoration-style:solid;text-decoration-color:#000000;letter-spacing:normal;word-spacing:normal;text-transform:none;direction:ltr;block-progression:tb;writing-mode:lr-tb;baseline-shift:baseline;text-anchor:start;white-space:normal;clip-rule:nonzero;display:inline;overflow:visible;visibility:visible;opacity:1;isolation:auto;mix-blend-mode:normal;color-interpolation:sRGB;color-interpolation-filters:linearRGB;solid-color:#000000;solid-opacity:1;fill:#000000;fill-opacity:1;fill-rule:evenodd;stroke:none;stroke-width:75;stroke-linecap:butt;stroke-linejoin:miter;stroke-miterlimit:4;stroke-dasharray:none;stroke-dashoffset:0;stroke-opacity:1;color-rendering:auto;image-rendering:auto;shape-rendering:auto;text-rendering:auto;enable-background:accumulate"
       d="m 998.37891,111.4707 c -42.93027,-0.2563 -80.14941,24.81043 -99.97266,58.10938 -19.82325,33.29895 -28.20865,73.41068 -32.98242,117.83398 -9.54754,88.8466 -2.40046,196.87228 -1.27344,291.42188 0.58452,49.03712 0.31848,99.66821 -0.16601,148.04687 -12.26767,-31.04991 -24.08676,-61.31711 -33.45899,-86.20508 l -0.0606,-0.16211 -0.0605,-0.1582 C 796.11894,551.77639 764.17875,461.46622 720.31836,395.23438 698.38817,362.11845 672.95539,333.95559 638.99805,318.03711 605.04071,302.11863 563.31555,302.2806 523.88867,319.89844 l -0.33203,0.15039 -0.33008,0.15429 c -38.20989,17.97291 -62.12737,53.91875 -69.13672,91.66407 -7.00935,37.74532 -1.75191,77.75015 7.91993,120.77539 19.34366,86.05047 58.57891,185.53423 85.31054,284.15039 21.09793,77.83276 41.5541,156.17964 58.60157,222.18363 -25.1781,-25.4659 -53.26245,-52.34024 -83.5586,-78.08793 C 470.36347,916.69576 413.1966,875.8869 354.24219,853.83789 295.28777,831.78888 227.63743,830.48802 177.67383,874.74023 l -0.38281,0.33789 -0.37305,0.34961 c -39.27197,36.73947 -58.73992,82.25039 -53.61524,126.64257 5.12469,44.3922 29.47029,83.3457 61.46094,123.3477 63.98131,80.0039 164.51695,167.6233 261.5586,284.0136 108.62759,130.2863 226.96964,338.4925 311.13867,447.9122 l 11.25781,14.6367 737.07225,0 8.2402,-26.2793 c 14.4351,-46.0281 30.4654,-137.9279 56.1661,-252.7793 25.7006,-114.8514 59.9717,-249.6399 105.6523,-368.0762 60.715,-157.4161 122.9568,-305.56276 150.9238,-423.12109 13.9835,-58.77917 20.4744,-110.15843 9.0274,-155.64453 -11.4187,-45.37344 -49.3942,-82.83784 -100.2266,-91.72852 -44.6946,-8.50596 -87.0237,11.33448 -116.7129,41.44727 -29.7837,30.20874 -52.2644,70.44674 -73.2148,115.51758 -16.2358,34.9281 -31.2822,73.11232 -46.082,111.47656 -0.3189,-64.00975 -0.3824,-79.34335 -0.836,-165.84375 -0.5056,-96.40514 5.5351,-204.42606 -1.6953,-291.31055 -3.6152,-43.44224 -9.8223,-81.73578 -26.0586,-113.92187 -15.7974,-31.31617 -50.0731,-57.38008 -88.5234,-56.00196 -37.485,-1.85664 -71.665,17.43374 -92.625,44.08399 -21.4025,27.21285 -33.9019,60.85085 -43.9395,97.84961 -20.075,73.9975 -28.8733,163.48729 -42.4004,237.36133 -6.4604,35.28183 -12.6615,70.3392 -18.6367,104.38476 -4.4736,-35.27002 -8.9303,-72.86399 -13.0312,-113.58984 -9.0267,-89.64179 -15.3834,-196.55999 -34.0254,-284.09571 -9.3211,-43.76785 -21.2592,-82.93219 -41.6934,-114.70117 -20.4341,-31.76898 -55.6213,-57.18332 -96.59179,-55.4414 l 2.93749,-0.01 c -1.3475,-0.0483 -2.70167,-0.0778 -4.06639,-0.0859 z m -0.44922,75 c 0.58104,0.003 1.19284,0.0163 1.82812,0.0391 l 1.46879,0.0527 1.4687,-0.0625 c 12.5824,-0.53496 18.5616,2.78961 30.3262,21.08008 11.7646,18.29047 23.0585,50.50661 31.416,89.75 16.715,78.48677 23.5077,184.1096 32.7598,275.99023 20.3122,201.71864 49.1132,347.81641 49.1132,347.81641 l 73.8086,-1.25195 c 0,0 27.3605,-168.73029 57.1407,-331.36719 14.3609,-78.42845 23.6081,-167.08949 41.0097,-231.23242 8.7008,-32.07147 19.7967,-57.50203 30.5078,-71.1211 10.7112,-13.61907 16.1655,-16.61577 30.5586,-15.56054 l 2.7852,0.20312 2.7851,-0.21094 c 11.4461,-0.86564 11.0652,-1.04238 19.1075,14.90039 8.0423,15.94277 15.0315,47.35752 18.2773,86.36133 6.4917,78.00763 0.9149,185.83007 1.4375,285.48633 0.9696,184.90124 1.7871,354.50975 1.7871,354.50975 l 71.3086,16.0449 c 43.5431,-90.7249 78.3283,-202.13113 116.834,-284.96871 19.2529,-41.41879 39.6887,-75.28201 58.6113,-94.47461 18.9226,-19.1926 30.9155,-24.00859 49.4258,-20.41211 l 0.3985,0.0762 0.4003,0.0684 c 28.6151,4.91866 34.5411,12.22364 40.5743,36.19727 6.0331,23.97362 3.4281,66.65727 -9.2579,119.98242 -25.3719,106.65028 -86.7605,254.87644 -147.9375,413.49024 -48.0052,124.4635 -82.8014,262.2112 -108.8652,378.6856 -21.0304,93.981 -36.9957,175.4108 -47.6914,220.4375 l -643.32031,0 c -76.66945,-104.2533 -191.008,-302.3721 -302.06836,-435.5762 -101.3798,-121.5934 -204.30212,-212.442 -260.59179,-282.8281 -28.14484,-35.1931 -43.13856,-64.4148 -45.52735,-85.10748 -2.37359,-20.56108 2.44438,-36.98764 29.86914,-62.79492 25.80962,-22.67898 55.68335,-23.27121 100.29102,-6.58789 44.76408,16.74181 97.45031,52.83979 145.82422,93.95119 96.74782,82.2228 176.75586,182.207 176.75586,182.207 l 65.69336,-32.5 c 0,0 -48.22189,-192.33886 -96.53516,-370.57225 -28.18538,-103.97921 -67.32607,-204.47586 -84.52344,-280.97852 -8.59868,-38.25133 -11.15399,-70.16726 -7.35351,-90.63281 3.77617,-20.33469 9.27084,-28.9099 27.00195,-37.32617 23.81309,-10.5686 37.19411,-9.38345 52.33203,-2.28711 15.21488,7.13241 32.97831,24.05067 50.62305,50.69531 35.28949,53.28927 68.0047,141.21766 102.67187,230.78515 l -0.12109,-0.32031 c 35.39515,93.99181 103.14453,259.61524 103.14453,259.61524 l 72.19531,-13.11328 c 0,0 5.29092,-182.80079 3.46875,-335.66797 -1.16104,-97.4043 -7.54056,-204.45535 0.84766,-282.51368 4.19411,-39.02916 12.64292,-70.32745 22.85547,-87.48242 10.21255,-17.15497 16.23198,-21.58714 35.08008,-21.47461 z"
       id="path5458" />
  </g>
</svg>
