<svg xmlns="http://www.w3.org/2000/svg" width="2000" height="2000"><path style="isolation:auto;mix-blend-mode:normal;solid-color:#000;solid-opacity:1" d="M806.673 1750.205h621.961c22.031-70.25 62.033-342.206 146.35-560.816 109.703-284.426 222.535-533.47 79.188-558.11-114.053-22.16-164.268 222.17-239.25 378.398 0 0-.735-152.653-1.608-319.073-.925-176.455 20.91-388.517-71.236-381.548-95.054-6.969-102.434 176.632-127.533 313.704C1187.657 769.598 1163 921.667 1163 921.667s-25.608-129.884-43.734-309.888c-16.45-163.37-23.671-382.574-120.066-378.476-114.205-4.098-91.583 212.301-89.508 386.42 1.627 136.477-3.108 300.727-3.108 300.727s-61.033-149.246-92.487-232.773c-62.058-160.334-116.378-320.83-230.62-269.78-101.186 47.595-9.532 225.224 39.893 407.56 43.362 159.965 86.72 332.892 86.72 332.892S416.995 790.805 280.49 911.705c-120.896 113.1 66.75 220.16 245.33 434.345 101.267 121.459 208.574 310.194 280.852 404.155z" color="#000" overflow="visible" fill="none" stroke="#000" stroke-width="67.5"/></svg>