<svg xmlns="http://www.w3.org/2000/svg" height="2048" width="2048"><path d="M95 1842.643v-182h100v82h32v100H95zm232 0v-100h200v100H327zm300 0v-100h200v100H627zm300 0v-100h200v100H927zm300 0v-100h200v100h-200zm300 0v-100h200v100h-200zm298 0v-100h26v-82h100v182h-126zm-1730-282v-188h100v188H95zm1756 0v-188h100v188h-100zM96 1276V196h1856v1080H96zm1756-97.7V286.759H192v891.54l1660 .003z" style="line-height:normal;text-indent:0;text-align:start;text-decoration-line:none;text-decoration-style:solid;text-decoration-color:#000;text-transform:none;block-progression:tb;white-space:normal;isolation:auto;mix-blend-mode:normal;solid-color:#000;solid-opacity:1" color="#000" font-weight="400" font-family="sans-serif" overflow="visible"/></svg>