<svg xmlns="http://www.w3.org/2000/svg" height="2048" width="2048"><path d="M95 196v182h100v-82h32V196H95zm232 0v100h200V196H327zm300 0v100h200V196H627zm300 0v100h200V196H927zm300 0v100h200V196h-200zm300 0v100h200V196h-200zm298 0v100h26v82h100V196h-126zM95 478v188h100V478H95zm1756 0v188h100V478h-100zM96 762.643v1080h1856v-1080H96zm1756 97.699v891.543H192V860.344l1660-.002z" style="line-height:normal;text-indent:0;text-align:start;text-decoration-line:none;text-decoration-style:solid;text-decoration-color:#000;text-transform:none;block-progression:tb;white-space:normal;isolation:auto;mix-blend-mode:normal;solid-color:#000;solid-opacity:1" color="#000" font-weight="400" font-family="sans-serif" overflow="visible"/></svg>