<svg xmlns="http://www.w3.org/2000/svg" height="2048" width="2048"><path d="M96 294v1460h1856V294H96zm96 90.758h1660V737h-26v100h26v374h-26v100h26v345.299H192V1311h36v-100h-36V837h36V737h-36V384.758zM328 737v100h200V737H328zm300 0v100h200V737H628zm300 0v100h200V737H928zm300 0v100h200V737h-200zm300 0v100h200V737h-200zM328 1211v100h200v-100H328zm300 0v100h200v-100H628zm300 0v100h200v-100H928zm300 0v100h200v-100h-200zm300 0v100h200v-100h-200z" style="line-height:normal;text-indent:0;text-align:start;text-decoration-line:none;text-decoration-style:solid;text-decoration-color:#000;text-transform:none;block-progression:tb;white-space:normal;isolation:auto;mix-blend-mode:normal;solid-color:#000;solid-opacity:1" color="#000" font-weight="400" font-family="sans-serif" overflow="visible"/></svg>