<?xml version="1.0" encoding="UTF-8" standalone="no"?>
<!-- Created with Inkscape (http://www.inkscape.org/) -->

<svg
   xmlns:dc="http://purl.org/dc/elements/1.1/"
   xmlns:cc="http://creativecommons.org/ns#"
   xmlns:rdf="http://www.w3.org/1999/02/22-rdf-syntax-ns#"
   xmlns:svg="http://www.w3.org/2000/svg"
   xmlns="http://www.w3.org/2000/svg"
   xmlns:sodipodi="http://sodipodi.sourceforge.net/DTD/sodipodi-0.dtd"
   xmlns:inkscape="http://www.inkscape.org/namespaces/inkscape"
   width="2000"
   height="2000"
   viewBox="0 0 2000 2000"
   id="svg2"
   version="1.1"
   inkscape:version="0.91 r13725"
   sodipodi:docname="04-escalation-intermediate-event.svg">
  <defs
     id="defs4" />
  <sodipodi:namedview
     id="base"
     pagecolor="#ffffff"
     bordercolor="#666666"
     borderopacity="1.0"
     inkscape:pageopacity="0.0"
     inkscape:pageshadow="2"
     inkscape:zoom="0.4345"
     inkscape:cx="-595.27992"
     inkscape:cy="1000"
     inkscape:document-units="px"
     inkscape:current-layer="layer1"
     showgrid="true"
     units="px"
     showguides="false"
     inkscape:window-width="1878"
     inkscape:window-height="1035"
     inkscape:window-x="42"
     inkscape:window-y="0"
     inkscape:window-maximized="0">
    <inkscape:grid
       type="xygrid"
       id="grid4008"
       empspacing="20"
       dotted="false" />
  </sodipodi:namedview>
  <metadata
     id="metadata7">
    <rdf:RDF>
      <cc:Work
         rdf:about="">
        <dc:format>image/svg+xml</dc:format>
        <dc:type
           rdf:resource="http://purl.org/dc/dcmitype/StillImage" />
        <dc:title />
        <cc:license
           rdf:resource="https://github.com/bpmn-io/bpmn-font/blob/master/LICENSE" />
        <dc:creator>
          <cc:Agent>
            <dc:title>Jörg Dotzki</dc:title>
          </cc:Agent>
        </dc:creator>
        <dc:subject>
          <rdf:Bag>
            <rdf:li>BPMN</rdf:li>
            <rdf:li>bpmn-io</rdf:li>
            <rdf:li>bpmn.io</rdf:li>
            <rdf:li>Font</rdf:li>
          </rdf:Bag>
        </dc:subject>
      </cc:Work>
    </rdf:RDF>
  </metadata>
  <g
     inkscape:label="Ebene 1"
     inkscape:groupmode="layer"
     id="layer1"
     transform="translate(0,947.63784)">
    <path
       style="opacity:1;fill:#000000;fill-opacity:1;fill-rule:evenodd;stroke:none;stroke-width:160;stroke-linecap:square;stroke-miterlimit:4;stroke-dasharray:none;stroke-dashoffset:0;stroke-opacity:1"
       d="M 1000 10 C 737.46641 10 485.60413 114.32556 299.96484 299.96484 C 114.32556 485.60412 10 737.46641 10 1000 C 10 1262.5336 114.32556 1514.3978 299.96484 1700.0371 C 485.60413 1885.6764 737.46641 1990 1000 1990 C 1262.5336 1990 1514.3959 1885.6764 1700.0352 1700.0371 C 1885.6744 1514.3978 1990 1262.5336 1990 1000 C 1990 737.46641 1885.6744 485.60412 1700.0352 299.96484 C 1514.3959 114.32556 1262.5336 10 1000 10 z M 1000 170 C 1220.1604 170 1431.2215 257.42463 1586.8984 413.10156 C 1742.5754 568.77849 1830 779.83958 1830 1000 C 1830 1220.1604 1742.5754 1431.2235 1586.8984 1586.9004 C 1431.2215 1742.5773 1220.1604 1830 1000 1830 C 779.83958 1830 568.77849 1742.5773 413.10156 1586.9004 C 257.42464 1431.2235 170 1220.1604 170 1000 C 170 779.83958 257.42464 568.77849 413.10156 413.10156 C 568.77849 257.42463 779.83958 170 1000 170 z M 999.83984 445.09375 C 878.13559 781.15802 780.21204 1207.9435 658.50781 1544.0078 C 780.21204 1422.5228 878.13559 1296.0299 999.83984 1174.5449 L 1341.1719 1544.0078 C 1234.4206 1207.9435 1106.5912 781.15802 999.83984 445.09375 z "
       transform="translate(0,-947.63784)"
       id="rect4141" />
  </g>
</svg>
