<?xml version="1.0" encoding="UTF-8" standalone="no"?>
<!-- Created with Inkscape (http://www.inkscape.org/) -->

<svg
   xmlns:dc="http://purl.org/dc/elements/1.1/"
   xmlns:cc="http://creativecommons.org/ns#"
   xmlns:rdf="http://www.w3.org/1999/02/22-rdf-syntax-ns#"
   xmlns:svg="http://www.w3.org/2000/svg"
   xmlns="http://www.w3.org/2000/svg"
   xmlns:sodipodi="http://sodipodi.sourceforge.net/DTD/sodipodi-0.dtd"
   xmlns:inkscape="http://www.inkscape.org/namespaces/inkscape"
   width="2000"
   height="2000"
   viewBox="0 0 2000 2000"
   id="svg2"
   version="1.1"
   inkscape:version="0.91 r13725"
   sodipodi:docname="13-terminate-end-event.svg">
  <defs
     id="defs4" />
  <sodipodi:namedview
     id="base"
     pagecolor="#ffffff"
     bordercolor="#666666"
     borderopacity="1.0"
     inkscape:pageopacity="0.0"
     inkscape:pageshadow="2"
     inkscape:zoom="0.4345"
     inkscape:cx="-220.84772"
     inkscape:cy="1185.3399"
     inkscape:document-units="px"
     inkscape:current-layer="layer1"
     showgrid="true"
     units="px"
     showguides="false"
     inkscape:window-width="1878"
     inkscape:window-height="1035"
     inkscape:window-x="42"
     inkscape:window-y="0"
     inkscape:window-maximized="0">
    <inkscape:grid
       type="xygrid"
       id="grid4008"
       empspacing="20"
       dotted="false" />
  </sodipodi:namedview>
  <metadata
     id="metadata7">
    <rdf:RDF>
      <cc:Work
         rdf:about="">
        <dc:format>image/svg+xml</dc:format>
        <dc:type
           rdf:resource="http://purl.org/dc/dcmitype/StillImage" />
        <dc:title />
        <cc:license
           rdf:resource="https://github.com/bpmn-io/bpmn-font/blob/master/LICENSE" />
        <dc:creator>
          <cc:Agent>
            <dc:title>Jörg Dotzki</dc:title>
          </cc:Agent>
        </dc:creator>
        <dc:subject>
          <rdf:Bag>
            <rdf:li>BPMN</rdf:li>
            <rdf:li>bpmn-io</rdf:li>
            <rdf:li>bpmn.io</rdf:li>
            <rdf:li>Font</rdf:li>
          </rdf:Bag>
        </dc:subject>
      </cc:Work>
    </rdf:RDF>
  </metadata>
  <g
     inkscape:label="Ebene 1"
     inkscape:groupmode="layer"
     id="layer1"
     transform="translate(0,947.63784)">
    <path
       style="color:#000000;font-style:normal;font-variant:normal;font-weight:normal;font-stretch:normal;font-size:medium;line-height:normal;font-family:sans-serif;text-indent:0;text-align:start;text-decoration:none;text-decoration-line:none;text-decoration-style:solid;text-decoration-color:#000000;letter-spacing:normal;word-spacing:normal;text-transform:none;direction:ltr;block-progression:tb;writing-mode:lr-tb;baseline-shift:baseline;text-anchor:start;white-space:normal;clip-rule:nonzero;display:inline;overflow:visible;visibility:visible;opacity:1;isolation:auto;mix-blend-mode:normal;color-interpolation:sRGB;color-interpolation-filters:linearRGB;solid-color:#000000;solid-opacity:1;fill:#000000;fill-opacity:1;fill-rule:nonzero;stroke:none;stroke-width:160;stroke-linecap:round;stroke-linejoin:miter;stroke-miterlimit:4;stroke-dasharray:none;stroke-dashoffset:0;stroke-opacity:1;color-rendering:auto;image-rendering:auto;shape-rendering:auto;text-rendering:auto;enable-background:accumulate"
       d="m 1000,-937.63867 c -262.53359,0 -514.39587,104.32556 -700.03516,289.96484 C 114.32556,-462.03455 10,-210.17226 10,52.361328 10,314.89492 114.32556,566.75916 299.96484,752.39844 485.60413,938.03772 737.46641,1042.3613 1000,1042.3613 c 262.5336,0 514.3959,-104.32358 700.0352,-289.96286 C 1885.6744,566.75916 1990,314.89492 1990,52.361328 1990,-210.17226 1885.6744,-462.03455 1700.0352,-647.67383 1514.3959,-833.31311 1262.5336,-937.63867 1000,-937.63867 Z m 0,160 c 220.1604,0 431.2215,87.42463 586.8984,243.10156 C 1742.5754,-378.86018 1830,-167.79909 1830,52.361328 1830,272.52175 1742.5754,483.58479 1586.8984,639.26172 1431.2215,794.93865 1220.1604,882.36133 1000,882.36133 779.83958,882.36133 568.77849,794.93865 413.10156,639.26172 257.42464,483.58479 170,272.52175 170,52.361328 170,-167.79909 257.42464,-378.86018 413.10156,-534.53711 568.77849,-690.21404 779.83958,-777.63867 1000,-777.63867 Z"
       id="path4136"
       inkscape:connector-curvature="0" />
    <path
       style="opacity:1;fill:#000000;fill-opacity:1;stroke:none;stroke-width:160;stroke-linecap:round;stroke-miterlimit:4;stroke-dasharray:none;stroke-opacity:1"
       d="M 1000 400 C 893.84351 400 790.58748 428.13176 700.19922 480.26758 C 655.09436 506.28401 613.19418 538.27848 575.73633 575.73633 C 463.2145 688.25816 400 840.87011 400 1000 C 400 1159.1299 463.2145 1311.7418 575.73633 1424.2637 C 688.25816 1536.7855 840.87011 1600 1000 1600 C 1159.1299 1600 1311.7418 1536.7855 1424.2637 1424.2637 C 1536.7855 1311.7418 1600 1159.1299 1600 1000 C 1600 840.87011 1536.7855 688.25816 1424.2637 575.73633 C 1311.7418 463.2145 1159.1299 400 1000 400 z "
       transform="translate(0,-947.63784)"
       id="circle4135" />
  </g>
</svg>
