<?xml version="1.0" encoding="UTF-8" standalone="no"?>
<svg
   xmlns:dc="http://purl.org/dc/elements/1.1/"
   xmlns:cc="http://creativecommons.org/ns#"
   xmlns:rdf="http://www.w3.org/1999/02/22-rdf-syntax-ns#"
   xmlns:svg="http://www.w3.org/2000/svg"
   xmlns="http://www.w3.org/2000/svg"
   width="2048"
   height="2048"
   id="svg3891"
   version="1.1">
  <defs
     id="defs3893" />
  <metadata
     id="metadata3896">
    <rdf:RDF>
      <cc:Work
         rdf:about="">
        <dc:format>image/svg+xml</dc:format>
        <dc:type
           rdf:resource="http://purl.org/dc/dcmitype/StillImage" />
        <dc:title></dc:title>
      </cc:Work>
    </rdf:RDF>
  </metadata>
  <path
     id="path4481"
     d="M 1005.0195,99.369141 C 557.43068,99.746001 145.95825,472.71202 103.73047,918.85146 58.417152,1298.8394 272.26558,1696.0061 621.29779,1857.4103 c 324.1368,158.4228 740.17571,108.2877 1009.00961,-135.6475 273.5261,-236.6903 393.0393,-640.13 272.8914,-984.32077 -114.257,-351.14907 -451.4602,-619.97699 -822.8404,-636.25093 -25.0791,-1.639618 -50.2143,-1.947536 -75.3389,-1.821959 z m 18.334,289.732419 c 329.628,-9.58502 631.8271,281.13572 635.6949,610.89788 14.2549,301.67316 -212.3842,597.90786 -513.0171,648.48456 C 855.11762,1706.759 532.468,1538.6294 430.64089,1256.2023 321.01887,976.91244 432.85827,623.72443 699.6852,477.13647 c 97.55911,-57.28344 210.50666,-88.1759 323.6683,-88.03491 z m 0.6485,175.85742 c -146.99911,106.70241 -293.99004,213.41607 -440.98442,320.125 56.14556,172.65262 112.29391,345.30442 168.43945,517.95702 181.69532,0 363.39067,0 545.08597,0 56.1456,-172.6526 112.2938,-345.3044 168.4394,-517.95702 C 1317.9891,778.37536 1170.9953,671.6676 1024.002,564.95898 Z"
     style="color:#000000;font-style:normal;font-variant:normal;font-weight:normal;font-stretch:normal;font-size:medium;line-height:normal;font-family:sans-serif;text-indent:0;text-align:start;text-decoration:none;text-decoration-line:none;text-decoration-style:solid;text-decoration-color:#000000;letter-spacing:normal;word-spacing:normal;text-transform:none;direction:ltr;block-progression:tb;writing-mode:lr-tb;baseline-shift:baseline;text-anchor:start;white-space:normal;clip-rule:nonzero;display:inline;overflow:visible;visibility:visible;opacity:1;isolation:auto;mix-blend-mode:normal;color-interpolation:sRGB;color-interpolation-filters:linearRGB;solid-color:#000000;solid-opacity:1;fill:#000000;fill-opacity:1;fill-rule:nonzero;stroke:none;stroke-width:2.99732637;stroke-linecap:butt;stroke-linejoin:miter;stroke-miterlimit:4;stroke-dasharray:none;stroke-dashoffset:0;stroke-opacity:1;color-rendering:auto;image-rendering:auto;shape-rendering:auto;text-rendering:auto;enable-background:accumulate" />
</svg>
