<?xml version="1.0" encoding="UTF-8" standalone="no"?>
<svg
   xmlns:dc="http://purl.org/dc/elements/1.1/"
   xmlns:cc="http://creativecommons.org/ns#"
   xmlns:rdf="http://www.w3.org/1999/02/22-rdf-syntax-ns#"
   xmlns:svg="http://www.w3.org/2000/svg"
   xmlns="http://www.w3.org/2000/svg"
   width="2048"
   height="2048"
   id="svg3891"
   version="1.1">
  <defs
     id="defs3893" />
  <metadata
     id="metadata3896">
    <rdf:RDF>
      <cc:Work
         rdf:about="">
        <dc:format>image/svg+xml</dc:format>
        <dc:type
           rdf:resource="http://purl.org/dc/dcmitype/StillImage" />
        <dc:title></dc:title>
      </cc:Work>
    </rdf:RDF>
  </metadata>
  <path
     id="path4481"
     d="M 1005.3027,98.988281 C 557.71373,99.365367 146.23966,472.33048 104.01172,918.47059 58.698401,1298.4585 272.54684,1695.6252 621.57903,1857.0294 945.71588,2015.4523 1361.7548,1965.317 1630.5887,1721.3819 1904.1151,1484.6918 2023.6304,1081.2522 1903.4819,737.06106 1789.2241,385.91257 1452.0212,117.0806 1080.6397,100.80979 c -25.0784,-1.639259 -50.2131,-1.947049 -75.337,-1.821509 z m 18.334,289.732419 c 329.6279,-9.58811 631.8249,281.13767 635.693,610.89787 14.2549,301.67313 -212.3842,597.90793 -513.0172,648.48463 -290.91361,58.275 -613.56325,-109.8546 -715.39036,-392.2817 -109.622,-279.28988 2.21735,-632.47813 269.04449,-779.06589 97.55974,-57.28345 210.50789,-88.17582 323.67007,-88.03491 z M 794.72266,615.49805 c -59.74154,59.74154 -119.48307,119.48307 -179.22461,179.22461 76.87695,76.87761 153.75391,153.75523 230.63086,230.63284 -75.48828,75.4889 -150.97657,150.9779 -226.46485,226.4668 58.79362,58.7936 117.58724,117.5872 176.38086,176.3808 75.48893,-75.4889 150.97785,-150.9779 226.46678,-226.4668 76.9219,76.9219 153.8437,153.8438 230.7656,230.7657 59.7416,-59.7416 119.4831,-119.4831 179.2247,-179.2247 -76.9219,-76.9219 -153.8438,-153.8437 -230.7657,-230.7656 75.4909,-75.49153 150.9818,-150.98306 226.4727,-226.47459 -58.7936,-58.79362 -117.5873,-117.58724 -176.3809,-176.38086 -75.4909,75.49089 -150.9817,150.98177 -226.4726,226.47266 C 948.47789,769.25196 871.60027,692.375 794.72266,615.49805 Z"
     style="color:#000000;font-style:normal;font-variant:normal;font-weight:normal;font-stretch:normal;font-size:medium;line-height:normal;font-family:sans-serif;text-indent:0;text-align:start;text-decoration:none;text-decoration-line:none;text-decoration-style:solid;text-decoration-color:#000000;letter-spacing:normal;word-spacing:normal;text-transform:none;direction:ltr;block-progression:tb;writing-mode:lr-tb;baseline-shift:baseline;text-anchor:start;white-space:normal;clip-rule:nonzero;display:inline;overflow:visible;visibility:visible;opacity:1;isolation:auto;mix-blend-mode:normal;color-interpolation:sRGB;color-interpolation-filters:linearRGB;solid-color:#000000;solid-opacity:1;fill:#000000;fill-opacity:1;fill-rule:nonzero;stroke:none;stroke-width:2.99732637;stroke-linecap:butt;stroke-linejoin:miter;stroke-miterlimit:4;stroke-dasharray:none;stroke-dashoffset:0;stroke-opacity:1;color-rendering:auto;image-rendering:auto;shape-rendering:auto;text-rendering:auto;enable-background:accumulate" />
</svg>
