<?xml version="1.0" encoding="UTF-8" standalone="no"?>
<svg
   xmlns:dc="http://purl.org/dc/elements/1.1/"
   xmlns:cc="http://creativecommons.org/ns#"
   xmlns:rdf="http://www.w3.org/1999/02/22-rdf-syntax-ns#"
   xmlns:svg="http://www.w3.org/2000/svg"
   xmlns="http://www.w3.org/2000/svg"
   version="1.1"
   id="svg3891"
   height="2048"
   width="2048">
  <defs
     id="defs3893" />
  <metadata
     id="metadata3896">
    <rdf:RDF>
      <cc:Work
         rdf:about="">
        <dc:format>image/svg+xml</dc:format>
        <dc:type
           rdf:resource="http://purl.org/dc/dcmitype/StillImage" />
        <dc:title></dc:title>
      </cc:Work>
    </rdf:RDF>
  </metadata>
  <g
     transform="translate(0,995.63783)"
     id="layer1">
    <path
       id="path4481-5-4"
       d="m 1022.25,-896.28431 c -450.27718,-9.21985 -870.44899,360.94206 -917.28663,809.18882 -49.497461,379.09836 158.62881,778.96426 505.84634,944.17596 327.86485,164.75003 753.01379,115.1334 1024.92749,-134.8932 274.5927,-240.8284 389.3184,-650.6203 262.2807,-995.77136 -116.801,-340.19468 -443.4762,-599.2818 -804.7969,-620.00932 -23.6123,-1.78321 -47.2915,-2.6765 -70.971,-2.6909 z m -10.4824,99.75976 c 412.893,-15.54892 800.9522,328.74882 833.3068,741.03156 39.7358,363.60536 -189.0399,740.29246 -537.1885,860.12606 -338.43232,125.1412 -753.85656,3.4449 -958.25708,-297.5355 C 139.8411,213.23997 148.17317,-220.52288 386.20916,-496.21039 538.56087,-679.72504 772.32398,-795.63135 1011.7676,-796.52455 Z m 16.3965,89.92383 c -381.95292,-12.1471 -733.34925,323.17969 -740.24957,705.15368 -16.83775,345.16801 238.97874,683.90321 580.72025,749.64161 316.64342,69.3173 670.44282,-93.3594 811.71582,-387.8808 146.1076,-287.645 80.7642,-670.44083 -168.5252,-880.55738 -132.0887,-117.00393 -306.8046,-186.15839 -483.6613,-186.35711 z m -4.4942,98.04883 c 336.7078,-8.91613 643.3673,294.1083 637.9672,631.14646 5.9519,311.5733 -244.8213,607.6963 -557.6586,639.1099 -293.71508,38.5646 -603.39407,-149.7694 -687.83742,-437.1041 -88.51436,-273.76654 27.77622,-603.49594 282.86364,-744.45367 97.80337,-57.62292 211.09884,-88.87892 324.66518,-88.69859 z m -124.48435,189.90625 c 0,106.76042 0,213.52083 0,320.28125 -108.72136,0 -217.44271,0 -326.16407,0 0,84.48762 0,168.97526 0,253.46286 108.72136,0 217.44271,0 326.16407,0 0,106.7572 0,213.5143 0,320.2715 83.14715,0 166.29425,0 249.44145,0 0,-106.7572 0,-213.5143 0,-320.2715 108.7838,0 217.5677,0 326.3515,0 0,-84.4876 0,-168.97524 0,-253.46286 -108.7838,0 -217.5677,0 -326.3515,0 0,-106.76042 0,-213.52083 0,-320.28125 -83.1471,0 -166.2943,0 -249.44145,0 z m 50.07617,50.07812 c 49.82553,0 99.65108,0 149.47658,0 0,106.75716 0,213.51433 0,320.27149 108.7207,0 217.4414,0 326.1621,0 0,51.10547 0,102.2109 0,153.3164 -108.7207,0 -217.4414,0 -326.1621,0 0,106.7565 0,213.513 0,320.2695 -49.8255,0 -99.65105,0 -149.47658,0 0,-106.7565 0,-213.513 0,-320.2695 -108.78385,0 -217.56771,0 -326.35156,0 0,-51.1055 0,-102.21093 0,-153.3164 108.78385,0 217.56771,0 326.35156,0 0,-106.75716 0,-213.51433 0,-320.27149 z"
       style="color:#000000;font-style:normal;font-variant:normal;font-weight:normal;font-stretch:normal;font-size:medium;line-height:normal;font-family:sans-serif;text-indent:0;text-align:start;text-decoration:none;text-decoration-line:none;text-decoration-style:solid;text-decoration-color:#000000;letter-spacing:normal;word-spacing:normal;text-transform:none;direction:ltr;block-progression:tb;writing-mode:lr-tb;baseline-shift:baseline;text-anchor:start;white-space:normal;clip-rule:nonzero;display:inline;overflow:visible;visibility:visible;opacity:1;isolation:auto;mix-blend-mode:normal;color-interpolation:sRGB;color-interpolation-filters:linearRGB;solid-color:#000000;solid-opacity:1;fill:#000000;fill-opacity:1;fill-rule:nonzero;stroke:none;stroke-width:1.03356075;stroke-linecap:round;stroke-linejoin:round;stroke-miterlimit:4;stroke-dasharray:none;stroke-dashoffset:0;stroke-opacity:1;color-rendering:auto;image-rendering:auto;shape-rendering:auto;text-rendering:auto;enable-background:accumulate" />
  </g>
</svg>
