<?xml version="1.0" encoding="UTF-8" standalone="no"?>
<svg
   xmlns:dc="http://purl.org/dc/elements/1.1/"
   xmlns:cc="http://creativecommons.org/ns#"
   xmlns:rdf="http://www.w3.org/1999/02/22-rdf-syntax-ns#"
   xmlns:svg="http://www.w3.org/2000/svg"
   xmlns="http://www.w3.org/2000/svg"
   version="1.1"
   id="svg3891"
   height="2048"
   width="2048">
  <defs
     id="defs3893" />
  <metadata
     id="metadata3896">
    <rdf:RDF>
      <cc:Work
         rdf:about="">
        <dc:format>image/svg+xml</dc:format>
        <dc:type
           rdf:resource="http://purl.org/dc/dcmitype/StillImage" />
        <dc:title></dc:title>
      </cc:Work>
    </rdf:RDF>
  </metadata>
  <g
     transform="translate(0,995.63783)"
     id="layer1">
    <g
       id="layer1-4"
       transform="matrix(0.74578486,0,0,0.64639158,-1085.7848,-2914.814)" />
    <path
       d="m 1023.8841,-410.66202 c -174.48423,-2.3799 -342.27004,111.3275 -406.49154,273.2582 -65.7902,155.8008 -29.4187,347.5708 88.88511,468.4426 115.0263,123.8297 304.55323,169.4637 463.30543,111.4273 166.3595,-56.6747 288.5746,-221.2313 292.9783,-397.19 8.8625,-170.9452 -93.875,-339.9699 -248.5592,-412.5671 -59.0266,-28.5789 -124.5461,-43.4575 -190.1181,-43.371 z m 0,80 c 159.4805,-3.0204 310.6037,114.043 347.727,269.1222 40.6988,149.0185 -27.8712,318.9347 -161.362,397.0144 -136.3004,85.5433 -328.46993,62.7465 -440.39403,-53.1076 -118.11391,-113.9435 -139.14741,-311.087 -48.5313,-447.736 64.1785,-101.9465 182.0501,-166.4666 302.56033,-165.293 z m 113.4199,102.0176 c -39.9674,72.5091 -79.9349,145.0182 -119.9023,217.5273 -37.03243,3.9377995 -45.82933,60.121 -11.6614,75.1054 22.5699,15.6663 40.2472,-10.392 60.793,-9.494 61.0974,0 122.1948,0 183.2922,0 0,-16.6667 0,-33.3333 0,-50.0000005 -61.3125,0 -122.625,0 -183.9375,0 38.4017,-69.6679995 76.8034,-139.3358995 115.2051,-209.0038995 -14.5964,-8.0449 -29.1927,-16.0899 -43.7891,-24.1348 z m -113.6145,-477.99816 -8.5098,0.0527 -0.3106,0.002 -0.3105,0.006 -8.4981,0.1582 -0.3085,0.006 -0.3106,0.01 -8.48632,0.26367 -0.3086,0.01 -0.31054,0.0137 -8.47071,0.36718 -0.31054,0.0137 -0.3086,0.0156 -8.45703,0.47266 -0.30859,0.0176 -0.30859,0.0215 -8.44336,0.57617 -0.30664,0.0195 -0.3086,0.0254 -8.42578,0.67969 -0.30859,0.0254 -0.30664,0.0273 -8.41016,0.78321 -0.30664,0.0293 -0.30664,0.0313 -2.88281,0.30468 -9.13672,1.83789 -8.63672,3.5 -7.83789,5.04493 -6.76563,6.41015 -5.45703,7.55274 -3.96289,8.4375 -2.32617,9.02343 -0.61133,9.30078 1.125,9.25196 2.82227,8.88086 4.42187,8.20508 5.86719,7.24023 7.10937,6.02734 8.10352,4.60157 8.81836,3.01757 9.22461,1.33008 7.73633,-0.21484 2.59375,-0.27149 7.83593,-0.73046 7.66602,-0.61915 7.85352,-0.53515 7.85546,-0.43946 7.87306,-0.34374 7.873,-0.24415 7.8887,-0.14648 7.9004,-0.0488 7.9004,0.0488 7.8887,0.14648 7.873,0.24415 7.8731,0.34374 7.8554,0.43946 7.8535,0.53515 7.6661,0.61915 7.8261,0.72851 7.793,0.82227 7.791,0.91992 7.7793,1.01367 7.6055,1.08789 7.7441,1.20508 7.7227,1.29687 7.6679,1.38868 7.6836,1.48632 7.5118,1.55079 7.6347,1.67187 7.6446,1.77344 7.4375,1.82031 7.5683,1.95312 7.3945,2.00196 7.461,2.11914 7.5176,2.23633 7.3086,2.26953 7.4179,2.40234 7.2891,2.46094 7.3535,2.58398 7.3691,2.68946 7.2911,2.76367 6.9746,2.74023 7.2695,2.95899 7.1191,2.99804 0.336,0.14258 0.012,-0.0273 8.5059,2.79492 9.2402,1.21875 9.3047,-0.51953 9.0468,-2.23633 8.4766,-3.87695 7.6074,-5.38281 6.4786,-6.70118 5.121,-7.78515 3.586,-8.60157 1.9297,-9.11914 0.2031,-9.3164 -1.5293,-9.19336 -3.2109,-8.75 -4.7774,-8.00195 -6.1777,-6.97657 -7.3672,-5.70898 -6.834,-3.63281 -0.2246,-0.0977 -0.2793,-0.12109 -0.2812,-0.11914 -7.6993,-3.24414 -0.2793,-0.11719 -0.2832,-0.11524 -7.7363,-3.15039 -0.2832,-0.11328 -0.2832,-0.11328 -7.7754,-3.05469 -0.2832,-0.11133 -0.2851,-0.10742 -7.8126,-2.96094 -0.2851,-0.10742 -0.2871,-0.10547 -7.8496,-2.86523 -0.2852,-0.10352 -0.289,-0.10156 -7.8829,-2.76953 -0.289,-0.10156 -0.2891,-0.0977 -7.918,-2.67383 -0.289,-0.0976 -0.291,-0.0937 -7.9532,-2.57813 -0.289,-0.0937 -0.291,-0.0898 -7.9864,-2.48242 -0.291,-0.0899 -0.2929,-0.0879 -8.0176,-2.38281 -0.293,-0.0879 -0.293,-0.082 -8.0488,-2.28711 -0.293,-0.084 -0.2949,-0.0801 -8.0801,-2.18946 -0.2949,-0.0781 -0.2949,-0.0781 -8.1094,-2.08984 -0.2949,-0.0762 -0.2969,-0.0723 -8.1367,-1.99219 -0.2969,-0.0742 -0.2988,-0.0684 -8.1641,-1.89453 -0.2968,-0.0684 -0.2989,-0.0664 -8.1914,-1.79297 -0.2988,-0.0664 -0.3008,-0.0605 -8.2168,-1.69531 -0.2988,-0.0625 -0.3008,-0.0586 -8.2422,-1.59375 -0.3007,-0.0586 -0.3028,-0.0547 -8.2656,-1.49414 -0.3008,-0.0547 -0.3027,-0.0508 -8.2891,-1.39453 -0.3027,-0.0508 -0.3028,-0.0469 -8.3125,-1.29297 -0.3027,-0.0488 -0.3047,-0.043 -8.332,-1.19141 -0.3047,-0.043 -0.3047,-0.041 -8.3535,-1.08985 -0.3047,-0.0391 -0.3066,-0.0371 -8.3711,-0.98633 -0.3067,-0.0371 -0.3066,-0.0312 -8.3906,-0.88671 -0.3067,-0.0313 -0.3066,-0.0293 -8.4102,-0.78321 -0.3066,-0.0273 -0.3086,-0.0254 -8.4258,-0.67969 -0.3086,-0.0254 -0.3066,-0.0195 -8.4434,-0.57617 -0.3086,-0.0215 -0.3086,-0.0176 -8.457,-0.47266 -0.3086,-0.0156 -0.3105,-0.0137 -8.4707,-0.36718 -0.3106,-0.0137 -0.3086,-0.01 -8.4863,-0.26367 -0.3106,-0.01 -0.3085,-0.006 -8.4981,-0.1582 -0.3105,-0.006 -0.3106,-0.002 -8.5098,-0.0527 -0.3105,-0.002 z m -325.89653,79.38477 -9.06055,2.17969 -7.10742,3.06054 -3.45898,1.81836 -0.26954,0.14258 -0.26757,0.14453 -7.35547,3.98438 -0.26953,0.14453 -0.26563,0.14843 -7.30859,4.07618 -0.26758,0.14843 -0.26367,0.15039 -7.26172,4.16602 -0.26367,0.15234 -0.26367,0.1543 -7.21094,4.25586 -0.26367,0.1543 -0.26172,0.1582 -7.16211,4.3457 -0.26172,0.15821 -0.25977,0.16211 -7.11133,4.43359 -0.25976,0.16211 -0.25781,0.16601 -7.06055,4.52149 -0.25781,0.16601 -0.25586,0.16797 -7.00781,4.61133 -0.25586,0.16797 -0.25391,0.17187 -6.95703,4.70118 -0.25391,0.16992 -0.25195,0.17578 -6.90039,4.78711 -0.25195,0.17578 -0.25,0.17773 -6.84766,4.875 -0.25,0.17774 -0.24805,0.18164 -6.79101,4.96289 -0.24805,0.18164 -0.24609,0.18359 -6.73438,5.04883 -0.24609,0.18555 -0.24414,0.1875 -6.67774,5.13477 -0.24219,0.1875 -0.24218,0.1914 -6.61914,5.22071 -0.24219,0.1914 -0.23828,0.19336 -6.56055,5.30859 -0.24023,0.19336 -0.23633,0.19727 -6.5,5.39258 -0.23828,0.19726 -0.23438,0.19922 -6.43945,5.47852 -0.23438,0.19922 -0.23242,0.20312 -6.37695,5.5625 -0.23242,0.20313 -0.23047,0.20703 -6.31445,5.64648 -0.23047,0.20703 -0.22852,0.20899 -6.25195,5.73047 -0.22656,0.20898 -0.22657,0.21094 -6.18554,5.81445 -0.22657,0.21289 -0.22265,0.21485 -6.1211,5.89843 -0.22461,0.21485 -0.2207,0.21679 -6.05469,5.98047 -0.2207,0.21875 -0.2168,0.22071 -5.98047,6.05468 -0.21874,0.22071 -0.21485,0.22265 -5.89844,6.1211 -0.21484,0.22461 -0.21094,0.22461 -5.81445,6.1875 -0.21289,0.2246 -0.20899,0.22852 -5.73046,6.25195 -0.20899,0.22657 -0.20703,0.23046 -5.64648,6.31446 -0.20508,0.23047 -0.20313,0.23242 -5.5625,6.3789 -0.20312,0.23243 -0.20117,0.23437 -5.47657,6.43945 -0.20117,0.23438 -0.19726,0.23828 -5.39258,6.5 -0.19727,0.23633 -0.19336,0.24023 -5.30664,6.5586 -0.19531,0.24023 -0.18945,0.24219 -5.22266,6.61914 -0.18945,0.24023 -0.1875,0.24414 -5.13672,6.67774 -0.1875,0.24414 -0.1836,0.24609 -5.05078,6.73438 -0.18359,0.24609 -0.18164,0.24805 -4.96289,6.79101 -0.17969,0.24805 -0.17969,0.25 -4.875,6.8457 -0.17773,0.25 -0.17383,0.25196 -4.78906,6.90234 -0.17383,0.25195 -0.17187,0.25391 -4.69922,6.95508 -0.17188,0.2539 -0.16992,0.25586 -3.91602,5.95313 -4.375,8.23047 -2.77148,8.89648 -1.07227,9.25977 0.66407,9.29492 2.37695,9.01172 4.00977,8.41406 5.5,7.52149 6.80273,6.37304 7.86523,4.99805 8.65625,3.45312 9.14844,1.78516 9.31836,0.0566 9.16992,-1.67383 8.69727,-3.3457 7.92773,-4.90234 6.87696,-6.28907 4.74218,-6.11523 3.7461,-5.69141 4.33789,-6.41992 4.48828,-6.4707 4.42187,-6.20899 4.65235,-6.37304 4.65039,-6.20118 4.8125,-6.25585 4.79492,-6.08204 4.9668,-6.13867 4.96875,-5.98633 5.11132,-6.00976 5.13282,-5.88281 5.25781,-5.88282 5.35156,-5.83593 5.34961,-5.69141 5.43164,-5.63672 5.49805,-5.56836 5.64648,-5.57812 5.71094,-5.50196 5.68945,-5.34961 5.83008,-5.34375 5.90039,-5.27539 5.85938,-5.11328 6.02148,-5.12109 5.98828,-4.96875 6.11914,-4.95313 6.1211,-4.82617 6.1582,-4.73633 6.28711,-4.71289 6.26172,-4.57812 6.3125,-4.49414 6.36719,-4.41797 6.52148,-4.4082 6.46289,-4.25196 6.51953,-4.17578 6.5625,-4.09375 6.65039,-4.03515 6.65625,-3.92774 6.81641,-3.91406 6.74023,-3.75781 6.9043,-3.73829 3.15235,-1.6582 7.80859,-5.08789 6.72851,-6.44727 5.41407,-7.58593 3.91406,-8.45899 2.27539,-9.03711 0.55664,-9.30273 -1.17773,-9.24609 -2.8711,-8.86524 -4.46875,-8.17969 -5.91015,-7.20703 -7.14258,-5.98633 -8.13086,-4.55468 -8.83399,-2.96875 -9.23242,-1.27539 z m 804.09763,122.34179 -9.0625,2.16993 -8.5039,3.81445 -7.6465,5.32812 -6.5273,6.65235 -5.1777,7.75 -3.6485,8.57422 -1.9961,9.10351 -0.2715,9.31641 1.4629,9.20508 3.1465,8.77343 4.7188,8.03516 4.9961,5.91016 5.205,5.27148 5.4317,5.63672 5.3496,5.69141 5.3516,5.83593 5.2578,5.88282 5.1328,5.88281 5.1113,6.00976 4.9688,5.98633 4.9667,6.13867 4.795,6.08204 4.8125,6.25585 4.6504,6.20118 4.6523,6.37304 4.4219,6.20899 4.4883,6.4707 4.3379,6.41797 4.3242,6.57422 4.1699,6.51172 4.0957,6.56836 4.0078,6.60742 3.9902,6.76562 3.8438,6.70118 3.7891,6.79687 3.6757,6.79102 3.5586,6.76562 3.5703,6.99414 3.3926,6.84961 3.3985,7.07813 3.25,6.99023 3.1406,6.9668 3.1347,7.19336 2.9903,7.0957 2.9375,7.2168 2.7969,7.11328 2.7773,7.33203 2.6719,7.31836 2.5332,7.21289 2.4961,7.39062 2.4199,7.46485 2.2676,7.29687 2.2246,7.48438 1.2539,4.41406 3.3711,8.6875 4.9258,7.91211 6.3066,6.86133 7.4727,5.57031 8.375,4.08789 8.9882,2.46094 9.2911,0.75 9.2675,-0.98633 8.9219,-2.6875 8.2695,-4.29883 7.3282,-5.75781 6.1328,-7.01953 4.7226,-8.0332 3.1504,-8.77149 1.4668,-9.20312 -0.2656,-9.31641 -1.5312,-7.58594 -1.3477,-4.73828 -0.084,-0.29492 -0.086,-0.29102 -2.3848,-8.01757 -0.086,-0.29297 -0.092,-0.29102 -2.4805,-7.98633 -0.09,-0.29101 -0.094,-0.29102 -2.5781,-7.95312 -0.094,-0.28907 -0.098,-0.28906 -2.6739,-7.91992 -0.098,-0.28906 -0.1016,-0.28711 -2.7695,-7.88477 -0.1016,-0.28711 -0.1035,-0.28711 -2.8652,-7.84765 -0.1055,-0.28711 -0.1074,-0.28516 -2.9609,-7.8125 -0.1075,-0.28515 -0.1113,-0.28321 -3.0566,-7.77539 -0.1114,-0.2832 -0.1152,-0.2832 -3.1484,-7.73633 -0.1153,-0.28321 -0.1191,-0.28125 -3.2441,-7.69726 -0.1172,-0.28125 -0.1231,-0.2793 -3.3359,-7.6582 -0.1231,-0.2793 -0.125,-0.2793 -3.4316,-7.61718 -0.125,-0.27735 -0.127,-0.27734 -3.5254,-7.57617 -0.1289,-0.27539 -0.1308,-0.27539 -3.6172,-7.53321 -0.1309,-0.27539 -0.1367,-0.27343 -3.709,-7.49024 -0.1347,-0.27344 -0.1387,-0.27148 -3.8008,-7.44531 -0.1387,-0.27344 -0.1425,-0.26953 -3.8926,-7.40039 -0.1406,-0.26953 -0.1465,-0.26953 -3.9824,-7.35547 -0.1465,-0.26758 -0.1485,-0.26758 -4.0742,-7.30664 -0.1484,-0.26758 -0.1524,-0.26562 -4.164,-7.25977 -0.1524,-0.26562 -0.1543,-0.26172 -4.2558,-7.21289 -0.1563,-0.26368 -0.1582,-0.25976 -4.3437,-7.16211 -0.1582,-0.26172 -0.1621,-0.25976 -4.4336,-7.11133 -0.1621,-0.25977 -0.1661,-0.25781 -4.5234,-7.06055 -0.1641,-0.25781 -0.1679,-0.25586 -4.6114,-7.00977 -0.1699,-0.25586 -0.1719,-0.2539 -4.6992,-6.95508 -0.1718,-0.25391 -0.1739,-0.25195 -4.789,-6.90234 -0.1739,-0.25196 -0.1777,-0.25 -4.875,-6.8457 -0.1797,-0.25 -0.1797,-0.24805 -4.9629,-6.79101 -0.1816,-0.24805 -0.1836,-0.24609 -5.0508,-6.73438 -0.1836,-0.24609 -0.1875,-0.24414 -5.1367,-6.67774 -0.1875,-0.24414 -0.1895,-0.24023 -5.2226,-6.61914 -0.1895,-0.24219 -0.1953,-0.24023 -5.3066,-6.5586 -0.1934,-0.24023 -0.1972,-0.23633 -5.3926,-6.5 -0.1973,-0.23828 -0.2012,-0.23438 -5.4765,-6.43945 -0.2012,-0.23437 -0.2031,-0.23243 -5.5625,-6.3789 -0.2031,-0.23242 -0.2051,-0.23047 -5.6465,-6.31446 -0.207,-0.23046 -0.209,-0.22657 -5.7305,-6.25195 -0.209,-0.22852 -0.2129,-0.2246 -5.8144,-6.1875 -0.2109,-0.22461 -0.2149,-0.22461 -5.8984,-6.1211 -0.2149,-0.22265 -0.2187,-0.22071 -5.3946,-5.46093 -7.1367,-5.99219 -8.1269,-4.5625 -8.8321,-2.97461 -9.2304,-1.28516 z m -1154.9531,349.90821 -9.13672,1.83398 -8.63867,3.4961 -7.83984,5.04101 -6.76758,6.40625 -5.46094,7.55274 -3.96484,8.43359 -2.05469,7.46094 -1.47461,7.62109 -0.0586,0.30078 -0.0547,0.30078 -1.49414,8.265628 -0.0547,0.302734 -0.0508,0.302735 -1.39453,8.289062 -0.0508,0.302735 -0.0469,0.302734 -1.29297,8.310547 -0.0469,0.304687 -0.0449,0.304688 -1.19141,8.332031 -0.043,0.304688 -0.0391,0.304687 -1.08985,8.353516 -0.041,0.304687 -0.0352,0.304688 -0.98828,8.373047 -0.0371,0.30664 -0.0312,0.306641 -0.88476,8.390625 -0.0332,0.306641 -0.0293,0.30664 -0.78125,8.410157 -0.0293,0.30664 -0.0254,0.306641 -0.67969,8.427734 -0.0234,0.306641 -0.0215,0.308594 -0.57617,8.443359 -0.0215,0.308594 -0.0176,0.308593 -0.4707,8.4570316 -0.0176,0.3085938 -0.0137,0.3085937 -0.36719,8.47265628 -0.0137,0.30859372 -0.01,0.3105469 -0.26367,8.4863281 -0.01,0.3085939 -0.006,0.310547 -0.1582,8.498047 -0.004,0.310546 -0.002,0.310547 -0.0547,8.509766 0,0.310547 0,0.310547 0.0547,8.509765 0.002,0.310547 0.004,0.308594 0.1582,8.5 0.006,0.308594 0.01,0.310547 0.26367,8.484375 0.01,0.310547 0.0137,0.308593 0.36719,8.472657 0.0137,0.308593 0.0176,0.308594 0.4707,8.458984 0.0176,0.308594 0.0215,0.308594 0.57617,8.441406 0.0215,0.308594 0.0234,0.308594 0.67969,8.425781 0.0254,0.30664 0.0293,0.308594 0.78125,8.408204 0.0293,0.30664 0.0332,0.30664 0.88476,8.39258 0.0312,0.30664 0.0371,0.30469 0.98828,8.37304 0.0352,0.30664 0.041,0.30469 1.08985,8.35352 0.0391,0.30468 0.043,0.30469 1.19141,8.33203 0.0449,0.30469 0.0469,0.30274 1.29297,8.31054 0.0469,0.30469 0.0508,0.30273 1.39453,8.28711 0.0508,0.30274 0.0547,0.30273 1.49414,8.26563 0.0547,0.30078 0.0586,0.30273 1.5957,8.24024 0.0566,0.30078 0.0625,0.30078 1.69532,8.2168 0.0625,0.29883 0.0645,0.30078 1.79492,8.18945 0.0644,0.29883 0.0703,0.29883 1.89257,8.16406 0.0703,0.29883 0.0723,0.29687 1.99219,8.13672 0.0723,0.29687 0.0762,0.29493 2.09179,8.10937 0.0762,0.29492 0.0801,0.29493 2.1875,8.07812 0.0801,0.29492 0.084,0.29492 2.28711,8.04883 0.084,0.29297 0.0859,0.29297 2.38476,8.01758 0.0859,0.29297 0.0918,0.29101 2.48047,7.98438 0.0898,0.29297 0.0937,0.28906 1.01953,3.14453 3.6875,8.55859 5.21094,7.72657 6.55664,6.625 7.66992,5.29296 8.51953,3.77735 9.07227,2.13086 9.3125,0.41211 9.22461,-1.32617 8.81836,-3.01368 8.10742,-4.59765 7.11133,-6.02344 5.87109,-7.23828 4.42578,-8.20117 2.82617,-8.88086 1.13086,-9.25196 -0.60742,-9.29882 -1.80859,-7.52539 -0.95313,-2.93946 -2.26562,-7.29492 -2.22461,-7.48437 -2.10352,-7.4043 -2.04297,-7.53516 -1.90234,-7.37304 -1.90234,-7.76954 -1.72852,-7.46289 -1.67578,-7.63867 -1.54102,-7.47851 -1.48828,-7.68164 -1.39648,-7.72852 -1.29492,-7.69727 -1.18164,-7.58593 -1.13086,-7.91602 -0.99414,-7.62305 -0.91797,-7.773433 -0.82422,-7.810547 -0.71485,-7.669922 -0.64453,-7.992187 L 390.22266,67.75 389.7832,59.888672 389.43555,51.875 l -0.23828,-7.722656 -0.14649,-7.894532 -0.0488,-7.90039 0.0488,-7.898438 0.14649,-7.892578 0.23828,-7.7265622 0.34765,-8.0234376 0.43946,-7.8613282 0.52539,-7.683594 0.64453,-7.99414 0.71289,-7.65625 0.82226,-7.792969 0.92188,-7.810547 0.99219,-7.603516 1.13086,-7.917968 1.17578,-7.560547 1.30468,-7.75 1.38868,-7.675781 1.41015,-7.292969 0.91016,-9.273437 -0.82617,-9.2832 -2.53516,-8.96875 -4.15625,-8.3418 -5.63086,-7.42578 -6.91211,-6.25195 -7.95117,-4.86133 -8.7168,-3.29883 -9.17773,-1.62695 z m 1346.2695,242.941404 -9.0625,2.169922 -8.5058,3.8125 -7.6485,5.326172 -6.5273,6.652342 -5.1797,7.74609 -3.6504,8.57618 -1.7266,7.31445 -0.014,-0.002 -0.035,0.21484 0,0.004 0,0.0254 -1.3008,7.72656 -1.3965,7.72852 -1.4883,7.68164 -1.541,7.47851 -1.6758,7.63867 -1.7285,7.46289 -1.9023,7.76954 -1.9024,7.37304 -2.043,7.53516 -2.1035,7.4043 -2.2246,7.48437 -2.2656,7.29883 -2.4043,7.41601 -2.4941,7.38868 -2.5508,7.25976 -2.6719,7.32031 -2.7578,7.2793 -2.8379,7.2168 -2.9375,7.21679 -2.9688,7.04297 -3.1113,7.13868 -3.164,7.02539 -3.2207,6.92773 -3.3985,7.07617 -3.4219,6.91016 -3.5703,6.99414 -3.5937,6.83203 -3.6406,6.7207 -3.8262,6.86719 -3.8438,6.70117 -3.9531,6.70117 -4.0078,6.60743 -4.0918,6.5625 -4.1738,6.51757 -4.2793,6.50391 -4.3828,6.48828 -4.4883,6.47071 -4.4219,6.21289 -4.6504,6.36523 -4.6523,6.20313 -4.8692,6.33007 -2.5605,3.2461 -5.0645,7.82226 -3.5273,8.62696 -1.8633,9.13281 -0.1348,9.31836 1.5957,9.18164 3.2715,8.72656 4.834,7.96875 6.2285,6.93164 7.4082,5.65625 8.3282,4.18164 8.9609,2.56446 9.2793,0.85742 9.2793,-0.88086 8.9531,-2.58594 8.3184,-4.20312 7.3926,-5.67383 5.25,-5.6875 2.8124,-3.56446 0.1895,-0.24218 0.1875,-0.24414 5.1367,-6.67774 0.1875,-0.24219 0.1836,-0.24609 5.0508,-6.73437 0.1836,-0.2461 0.1816,-0.24805 4.9629,-6.79101 0.1797,-0.24805 0.1797,-0.25 4.875,-6.84765 0.1777,-0.25 0.1739,-0.25196 4.789,-6.90234 0.1739,-0.25195 0.1718,-0.25391 4.6992,-6.95508 0.1719,-0.2539 0.1699,-0.25586 4.6114,-7.00782 0.1679,-0.25586 0.1641,-0.25781 4.5234,-7.06054 0.1661,-0.25782 0.1621,-0.25976 4.4336,-7.11133 0.1621,-0.25977 0.1582,-0.26172 4.3437,-7.1621 0.1582,-0.26172 0.1563,-0.26368 4.2558,-7.21093 0.1543,-0.26367 0.1524,-0.26563 4.164,-7.25977 0.1524,-0.26562 0.1484,-0.26563 4.0742,-7.30859 0.1485,-0.26758 0.1465,-0.26758 3.9824,-7.35546 0.1465,-0.26758 0.1406,-0.27149 3.8926,-7.40039 0.1425,-0.26953 0.1387,-0.27148 3.8008,-7.44727 0.1387,-0.27148 0.1347,-0.27344 3.709,-7.49024 0.1367,-0.27343 0.1309,-0.27344 3.6172,-7.53516 0.1308,-0.27343 0.1289,-0.27735 3.5254,-7.57617 0.127,-0.27539 0.125,-0.2793 3.4316,-7.61718 0.125,-0.27735 0.1231,-0.2793 3.3359,-7.6582 0.1231,-0.28125 0.1172,-0.27929 3.2441,-7.69922 0.1191,-0.28125 0.1153,-0.28125 3.1484,-7.73828 0.1152,-0.28126 0.1114,-0.28515 3.0566,-7.77539 0.1113,-0.2832 0.1075,-0.28516 2.9609,-7.8125 0.1074,-0.28516 0.1055,-0.28515 2.8652,-7.84961 0.1035,-0.28711 0.1016,-0.28711 2.7695,-7.88477 0.1016,-0.28711 0.098,-0.28906 2.6739,-7.91992 0.098,-0.28711 0.094,-0.29102 2.5781,-7.95312 0.094,-0.28906 0.09,-0.29297 2.4805,-7.98438 0.092,-0.29101 0.086,-0.29297 2.3848,-8.01758 0.086,-0.29297 0.084,-0.29297 2.2871,-8.04883 0.084,-0.29492 0.08,-0.29492 2.1875,-8.07812 0.08,-0.29493 0.076,-0.29492 2.0918,-8.10937 0.076,-0.29493 0.072,-0.29687 1.9922,-8.13672 0.072,-0.29687 0.07,-0.29883 1.8926,-8.16406 0.07,-0.29883 0.065,-0.29883 1.7949,-8.18945 0.064,-0.30078 0.062,-0.29883 1.6953,-8.2168 0.062,-0.30078 0.057,-0.30078 1.5957,-8.24024 0.059,-0.30273 0.055,-0.30078 1.4941,-8.26563 0.055,-0.30273 0.051,-0.30274 1.3945,-8.28711 0.051,-0.30273 0.047,-0.30469 0.061,-0.38672 0.5684,-9.30273 -1.168,-9.24609 -2.8633,-8.86915 -4.4609,-8.18359 -5.9004,-7.21289 -7.1367,-5.99414 -8.127,-4.564453 -8.8301,-2.976563 -9.2324,-1.287109 z M 485.25977,417.67578 l -8.80274,3.06641 -8.07812,4.64453 -7.07813,6.06445 -5.82812,7.27149 -4.37891,8.22851 -2.77344,8.89649 -1.07617,9.25781 0.66211,9.29687 2.375,9.01172 4.00586,8.41406 4.46484,6.32032 2.28907,2.75976 0.19726,0.23633 0.20117,0.23633 5.47657,6.4375 0.20117,0.23633 0.20312,0.23242 5.5625,6.37695 0.20313,0.23242 0.20508,0.23047 5.64648,6.31446 0.20703,0.23047 0.20899,0.22851 5.73046,6.25 0.20899,0.22852 0.21289,0.22656 5.81445,6.18555 0.21094,0.22656 0.21484,0.22265 5.89844,6.1211 0.21485,0.22265 0.21874,0.22071 5.98047,6.05469 0.2168,0.2207 0.2207,0.21875 6.05469,5.98047 0.2207,0.21875 0.22461,0.21484 6.1211,5.89649 0.22265,0.21484 0.22657,0.21289 6.18554,5.81445 0.22657,0.21094 0.22656,0.21094 6.25195,5.73047 0.22852,0.20898 0.23047,0.20508 6.31445,5.64844 0.23047,0.20507 0.23242,0.20313 6.37695,5.5625 0.23242,0.20312 0.23438,0.19922 6.43945,5.47852 0.23438,0.19922 0.23828,0.19726 6.5,5.39453 0.23633,0.19532 0.24023,0.19531 6.56055,5.30664 0.23828,0.19336 0.24219,0.19141 6.61914,5.22265 0.24218,0.18945 0.24219,0.1875 6.67774,5.13672 0.24414,0.1875 0.24609,0.1836 6.73438,5.04883 0.24609,0.18554 0.24805,0.18164 6.79101,4.96094 0.24805,0.18164 0.25,0.17774 6.84766,4.875 0.25,0.17968 0.25195,0.17383 6.90039,4.78711 0.25195,0.17578 0.25391,0.17188 6.95703,4.69922 0.25391,0.17187 0.25586,0.16797 7.00781,4.61133 0.25586,0.16992 0.25781,0.16406 7.06055,4.52344 0.25781,0.16406 0.25976,0.16211 7.11133,4.43359 0.25977,0.16211 0.26172,0.16016 7.16211,4.34375 0.26172,0.1582 0.26367,0.15625 7.21094,4.25391 0.26367,0.15625 0.26367,0.15234 7.26172,4.16407 0.26367,0.15234 0.26758,0.14844 7.30859,4.07422 0.26563,0.14843 0.26953,0.14453 7.35547,3.98438 0.26757,0.14453 0.26954,0.14258 7.40234,3.89258 0.26953,0.14258 0.27149,0.13867 7.44531,3.80078 0.27148,0.13867 0.27344,0.13477 7.49023,3.70898 0.27344,0.13477 0.27539,0.13281 7.53321,3.61719 0.27539,0.13086 0.27734,0.1289 7.57617,3.52344 0.27539,0.12891 0.27735,0.125 7.61914,3.43164 0.27734,0.125 0.2793,0.12109 7.6582,3.33789 0.2793,0.12109 0.28125,0.11915 7.69922,3.24414 0.27929,0.11718 0.28321,0.11524 7.73632,3.15039 0.28321,0.11523 0.2832,0.11133 7.45117,2.92773 8.95313,2.58594 9.27929,0.87696 9.2793,-0.85743 8.96094,-2.5664 8.32617,-4.1836 7.4082,-5.6582 6.22657,-6.93164 4.83398,-7.96875 3.26953,-8.72852 1.5957,-9.18164 -0.13867,-9.31836 -1.86523,-9.13086 -3.52735,-8.62695 -5.0664,-7.82226 -6.42969,-6.7461 -7.57031,-5.43554 -6.96289,-3.37891 -7.16602,-2.81445 -7.26758,-2.96094 -7.04296,-2.9668 -7.06446,-3.08008 -6.96875,-3.13671 -7.24609,-3.3711 -6.88477,-3.30469 -6.91406,-3.42382 -6.93359,-3.53907 -6.83008,-3.59179 -6.78516,-3.67383 -6.86133,-3.82617 -6.70312,-3.84375 -6.65625,-3.92774 -6.6543,-4.03515 -6.55859,-4.08789 -6.62891,-4.24805 -6.4668,-4.25391 -6.41601,-4.33594 -6.36719,-4.41406 -6.41406,-4.56836 -6.36133,-4.64844 -6.28125,-4.71093 -6.15625,-4.73828 -6.02734,-4.75586 -6.1211,-4.95117 -6.07812,-5.04493 -5.83985,-4.96875 -6.0371,-5.26367 -5.81446,-5.20312 -5.74804,-5.26758 -5.7754,-5.42969 -5.6289,-5.42187 -5.72852,-5.65821 -5.41992,-5.48828 -5.57812,-5.78906 -5.34375,-5.6875 -5.35352,-5.83984 -5.12109,-5.72657 -5.20313,-5.96484 -5.10937,-6.00586 -2.06836,-2.49219 -6.59375,-6.58789 -7.70117,-5.24805 -8.54102,-3.72851 -9.08594,-2.07813 -9.3125,-0.35546 z m 870.79683,155.57813 -8.9746,2.50781 -6.9902,3.32031 -3.457,1.98047 -6.8672,3.83008 -6.7852,3.67383 -6.8301,3.59179 -6.9335,3.53907 -6.9141,3.42382 -6.8848,3.30469 -7.2461,3.3711 -6.9687,3.13671 -7.0645,3.08008 -7.0429,2.9668 -7.2676,2.95898 -7.25,2.84961 -7.1485,2.70899 -7.3691,2.68945 -7.2109,2.5332 -7.4375,2.51172 -7.2715,2.35742 -7.5899,2.35743 -7.3789,2.19335 -7.3222,2.08008 -7.5332,2.04102 -7.5606,1.94922 -7.4433,1.82226 -7.6485,1.77539 -7.4824,1.63868 -7.8066,1.61132 -7.6797,1.48438 -7.5254,1.36133 -7.5723,1.27343 -7.8945,1.22852 -7.6094,1.08789 -7.7812,1.01758 -7.6329,0.90039 -7.9433,0.83984 -7.8242,0.72657 -7.67,0.61914 -8.0039,0.54492 -7.8515,0.4375 -7.7207,0.33398 -7.8789,0.2461 -8.125,0.15039 -9.2618,1.04101 -8.9082,2.74219 -8.2421,4.34766 -7.29497,5.80078 -6.08984,7.05469 -4.67578,8.0625 -3.09766,8.78906 -1.41406,9.21289 0.32226,9.31445 2.04493,9.0918 3.69531,8.55664 5.2207,7.7207 6.56051,6.61719 7.6778,5.28516 8.5234,3.76953 9.0742,2.12109 7.7246,0.45508 8.4161,-0.15625 0.3085,-0.006 0.3106,-0.01 8.4863,-0.26171 0.3086,-0.01 0.3106,-0.0137 8.4707,-0.36719 0.3105,-0.0137 0.3086,-0.0176 8.457,-0.47266 0.3086,-0.0176 0.3086,-0.0195 8.4434,-0.57617 0.3066,-0.0215 0.3086,-0.0254 8.4258,-0.67969 0.3086,-0.0234 0.3066,-0.0293 8.4102,-0.78321 0.3066,-0.0273 0.3067,-0.0332 8.3906,-0.88477 0.3066,-0.0332 0.3067,-0.0352 8.3711,-0.98828 0.3066,-0.0352 0.3047,-0.041 8.3535,-1.08985 0.3047,-0.0391 0.3047,-0.0449 8.332,-1.19141 0.3047,-0.043 0.3027,-0.0469 8.3125,-1.29297 0.3028,-0.0469 0.3027,-0.0508 8.2891,-1.39453 0.3027,-0.0508 0.3008,-0.0547 8.2656,-1.49609 0.3028,-0.0527 0.3007,-0.0586 8.2422,-1.5957 0.3008,-0.0586 0.2988,-0.0606 8.2168,-1.69531 0.3008,-0.0625 0.2988,-0.0645 8.1914,-1.79492 0.2989,-0.0664 0.2968,-0.0684 8.1641,-1.89454 0.2988,-0.0684 0.2969,-0.0723 8.1367,-1.99219 0.2969,-0.0723 0.2949,-0.0781 8.1094,-2.08984 0.2949,-0.0762 0.2949,-0.0801 8.0801,-2.18946 0.2949,-0.0801 0.293,-0.082 8.0488,-2.2871 0.293,-0.084 0.293,-0.0859 8.0176,-2.38476 0.2929,-0.0879 0.291,-0.0899 7.9864,-2.48047 0.291,-0.0918 0.289,-0.0937 7.9532,-2.57617 0.291,-0.0957 0.289,-0.0976 7.918,-2.67383 0.2891,-0.0977 0.289,-0.0996 7.8829,-2.76953 0.289,-0.10156 0.2852,-0.10547 7.8496,-2.86523 0.2871,-0.10352 0.2851,-0.10937 7.8126,-2.95899 0.2851,-0.10937 0.2832,-0.11133 7.7754,-3.05469 0.2832,-0.11133 0.2832,-0.11523 7.7363,-3.15039 0.2832,-0.11524 0.2793,-0.11718 7.6993,-3.24414 0.2812,-0.11915 0.2793,-0.12109 7.6582,-3.33789 0.2793,-0.12109 0.2773,-0.125 7.6192,-3.43164 0.2773,-0.125 0.2754,-0.12891 7.5762,-3.52344 0.2773,-0.1289 0.2754,-0.13086 7.5332,-3.61719 0.2754,-0.13281 0.2735,-0.13477 7.4902,-3.70898 0.2734,-0.13477 0.2715,-0.13867 7.4453,-3.80078 0.2715,-0.13867 0.2695,-0.14258 7.4024,-3.89258 0.2695,-0.14258 0.2676,-0.14453 7.3555,-3.98438 0.2695,-0.14453 0.2656,-0.14843 7.3086,-4.07422 0.2676,-0.14844 0.2637,-0.15234 3.748,-2.15039 7.6152,-5.36915 6.4883,-6.6914 5.1328,-7.7793 3.6016,-8.5957 1.9434,-9.11524 0.2168,-9.3164 -1.5157,-9.19531 -3.1953,-8.75586 -4.7656,-8.00977 -6.168,-6.98633 -7.3593,-5.71875 -8.2911,-4.25586 -8.9375,-2.64258 -9.2734,-0.9375 z m -332.3671,-1469.89649 -10.8711,0.0684 -0.3086,0.002 -0.3106,0.006 -10.8554,0.20118 -0.3106,0.006 -0.3105,0.01 -10.83793,0.33594 -0.31055,0.01 -0.3086,0.0137 -10.82226,0.46875 -0.30859,0.0137 -0.31055,0.0176 -10.80274,0.60351 -0.30859,0.0176 -0.30859,0.0195 -10.78516,0.73633 -0.30664,0.0215 -0.30859,0.0234 -10.76368,0.86914 -0.30664,0.0254 -0.30859,0.0273 -10.74219,1 -0.30664,0.0293 -0.30664,0.0312 -10.71875,1.13086 -0.30664,0.0332 -0.30469,0.0352 -10.69531,1.26172 -0.30664,0.0371 -0.30469,0.0391 -10.66992,1.39258 -0.30469,0.041 -0.30468,0.043 -10.64258,1.52149 -0.30469,0.043 -0.30469,0.0488 -10.61523,1.65039 -0.30469,0.0488 -0.30273,0.0508 -10.58789,1.77929 -0.30079,0.0508 -0.30273,0.0547 -10.55859,1.91016 -0.30079,0.0547 -0.30078,0.0586 -10.52929,2.03711 -0.30078,0.0586 -0.29883,0.0605 -10.4961,2.16601 -0.30078,0.0606 -0.29883,0.0664 -10.46289,2.29101 -0.29882,0.0664 -0.29688,0.0684 -10.42969,2.41992 -0.29687,0.0684 -0.29688,0.0723 -10.39453,2.54687 -0.29687,0.0723 -0.29688,0.0762 -9.83398,2.53515 -8.76758,3.15821 -8.03125,4.73047 -7.01172,6.13867 -5.75195,7.33398 -4.29102,8.27344 -2.67969,8.92578 -0.97851,9.26758 0.75976,9.28906 2.47071,8.98633 4.09375,8.37305 5.57812,7.46679 6.86524,6.30079 7.91797,4.91796 8.6914,3.36328 9.16406,1.69336 9.32032,-0.0391 7.62109,-1.34765 9.5625,-2.46485 9.73242,-2.38281 9.875,-2.29297 9.9043,-2.16797 9.94141,-2.04883 9.78711,-1.89453 10.02539,-1.81445 9.84179,-1.6543 10.19727,-1.58789 9.91601,-1.41797 10.09766,-1.3164 10.0957,-1.19141 10.13868,-1.07031 10.15624,-0.94531 10.15821,-0.81836 10.1914,-0.69336 10.19922,-0.56836 10.22657,-0.44336 10.07228,-0.3125 10.25,-0.18945 10.2617,-0.0645 10.2617,0.0645 10.25,0.18945 10.0723,0.3125 10.2265,0.44336 10.1993,0.56836 10.1914,0.69336 10.1582,0.81836 10.1562,0.94531 10.1387,1.07031 10.0957,1.19141 10.0977,1.3164 9.916,1.41797 10.1972,1.58789 9.8418,1.6543 10.0254,1.81445 9.7871,1.89453 9.9414,2.04883 8.8926,1.94727 9.25,1.13867 9.3008,-0.59961 9.0273,-2.31445 8.4415,-3.95117 7.5624,-5.44727 6.418,-6.75586 5.0547,-7.83203 3.5117,-8.63086 1.8496,-9.13477 0.1231,-9.32031 -1.6094,-9.17969 -3.2851,-8.7207 -4.8458,-7.96094 -6.2402,-6.92187 -7.416,-5.64649 -8.334,-4.16992 -7.4082,-2.23633 -9.1523,-2.0039 -0.2989,-0.0664 -0.3007,-0.0606 -10.4961,-2.16601 -0.2989,-0.0605 -0.3007,-0.0586 -10.5293,-2.03711 -0.3008,-0.0586 -0.3008,-0.0547 -10.5586,-1.91016 -0.3027,-0.0547 -0.3008,-0.0508 -10.5879,-1.77929 -0.3027,-0.0508 -0.3047,-0.0488 -10.6153,-1.65039 -0.3046,-0.0488 -0.3047,-0.043 -10.6426,-1.52149 -0.3047,-0.043 -0.3047,-0.041 -10.6699,-1.39258 -0.3047,-0.0391 -0.3066,-0.0371 -10.6954,-1.26172 -0.3046,-0.0352 -0.3067,-0.0332 -10.7187,-1.13086 -0.3067,-0.0312 -0.3066,-0.0293 -10.7422,-1 -0.3086,-0.0273 -0.3066,-0.0254 -10.7637,-0.86914 -0.3086,-0.0234 -0.3066,-0.0215 -10.7852,-0.73633 -0.3086,-0.0195 -0.3086,-0.0176 -10.8027,-0.60351 -0.3106,-0.0176 -0.3086,-0.0137 -10.8222,-0.46875 -0.3086,-0.0137 -0.3106,-0.01 -10.8379,-0.33594 -0.3105,-0.01 -0.3106,-0.006 -10.8554,-0.20118 -0.3106,-0.006 -0.3086,-0.002 -10.8711,-0.0684 -0.3105,-0.002 z m 512.207,169.9043 -9.1172,1.93359 -8.5996,3.5918 -7.7832,5.125 -6.6973,6.48047 -5.3789,7.61133 -3.873,8.47851 -2.2325,9.04688 -0.5136,9.30664 1.2226,9.23828 2.9141,8.85351 4.5078,8.15625 5.9434,7.17969 5.875,5.03516 2.6347,1.92578 8.1778,6.12891 7.9043,6.08007 8.1113,6.40039 7.8633,6.36133 7.791,6.46289 7.793,6.63086 7.7324,6.7461 7.4765,6.6875 7.6504,7.01172 7.4102,6.96484 7.3281,7.06055 7.3262,7.23437 7.1601,7.25 7.1368,7.40625 7.0332,7.48438 6.7949,7.41015 6.8379,7.64453 6.7402,7.72657 6.5547,7.70312 6.541,7.88477 6.3652,7.86523 6.2598,7.93359 6.291,8.17969 6.0586,8.08008 5.9512,8.14453 5.8457,8.21094 5.748,8.28125 5.711,8.45117 5.5351,8.41406 5.4278,8.47071 5.3886,8.64257 5.2813,8.70704 5.0664,8.58984 5.002,8.7207 4.8886,8.76563 4.8457,8.94922 4.6387,8.81836 4.5625,8.93945 2.3301,4.69922 4.8945,7.93164 6.2832,6.88281 7.4512,5.59766 8.3613,4.11914 8.9785,2.49609 9.2871,0.78516 9.2715,-0.95313 8.9336,-2.65429 8.2852,-4.26758 7.3476,-5.73242 6.1582,-6.99415 4.7539,-8.01757 3.1817,-8.75977 1.5019,-9.19726 -0.2304,-9.31836 -1.9571,-9.11133 -2.8867,-7.17969 -2.4199,-4.88867 -0.1367,-0.27344 -0.1387,-0.27148 -4.8535,-9.51172 -0.1387,-0.27149 -0.1426,-0.26953 -4.9726,-9.45312 -0.1407,-0.27149 -0.1464,-0.26758 -5.0879,-9.39453 -0.1465,-0.26953 -0.1484,-0.26562 -5.2032,-9.33594 -0.1504,-0.26562 -0.1504,-0.26563 -5.3203,-9.27539 -0.1523,-0.26367 -0.1563,-0.26367 -5.4336,-9.2129 -0.1562,-0.26171 -0.1582,-0.26172 -5.5488,-9.14844 -0.1602,-0.26172 -0.1601,-0.25976 -5.6641,-9.08399 -0.1621,-0.25976 -0.166,-0.25782 -5.7774,-9.01953 -0.164,-0.25781 -0.17,-0.25586 -5.8906,-8.95312 -0.168,-0.25586 -0.1718,-0.25391 -6.002,-8.88477 -0.1719,-0.2539 -0.1757,-0.25196 -6.1153,-8.8164 -0.1758,-0.25196 -0.1777,-0.25 -6.2266,-8.74414 -0.1796,-0.25195 -0.1797,-0.24609 -6.3399,-8.67578 -0.1816,-0.24805 -0.1836,-0.24609 -6.4492,-8.60157 -0.1856,-0.24609 -0.1875,-0.24414 -6.5605,-8.5293 -0.1875,-0.24414 -0.1895,-0.24219 -6.6699,-8.45507 -0.1914,-0.24024 -0.1934,-0.24023 -6.7812,-8.37891 -0.1934,-0.24023 -0.1972,-0.23633 -6.8887,-8.30274 -0.1973,-0.23828 -0.1992,-0.23437 -6.998,-8.22461 -0.1993,-0.23633 -0.2031,-0.23242 -7.1055,-8.14649 -0.2031,-0.23242 -0.2051,-0.23047 -7.2148,-8.0664 -0.2051,-0.23047 -0.209,-0.22656 -7.3203,-7.98438 -0.209,-0.22852 -0.2128,-0.22656 -7.4278,-7.90234 -0.2109,-0.22461 -0.2149,-0.22461 -7.5332,-7.81836 -0.2148,-0.22266 -0.2188,-0.2207 -7.6386,-7.73437 -0.2188,-0.22071 -0.2207,-0.21875 -7.7344,-7.63867 -0.2207,-0.21875 -0.2226,-0.21484 -7.8203,-7.53321 -0.2227,-0.21484 -0.2246,-0.21289 -7.9043,-7.42578 -0.2246,-0.21289 -0.2285,-0.20899 -7.9844,-7.32031 -0.2285,-0.20898 -0.2305,-0.20703 -8.0664,-7.21289 -0.2285,-0.20508 -0.2344,-0.20313 -8.1445,-7.10547 -0.2344,-0.20312 -0.2344,-0.20117 -8.2246,-6.9961 -0.2343,-0.20117 -0.2383,-0.19726 -8.3028,-6.88868 -0.2363,-0.19531 -0.2402,-0.19531 -8.3789,-6.7793 -0.2403,-0.19336 -0.2421,-0.1914 -8.4551,-6.66993 -0.2403,-0.1914 -0.2441,-0.1875 -8.5293,-6.56055 -0.2441,-0.1875 -0.2461,-0.18359 -8.6016,-6.44922 -0.2461,-0.18555 -0.248,-0.17969 -2.9082,-2.125 -8.0039,-4.77343 -8.752,-3.20508 -9.1934,-1.52539 z m -1062.6797,20.11523 -9.06836,2.15039 -8.50977,3.79883 -6.42773,4.3086 -2.33789,1.84375 -0.24219,0.1914 -0.24024,0.19336 -8.3789,6.7793 -0.24024,0.19531 -0.23632,0.19531 -8.30274,6.88868 -0.23828,0.19726 -0.23437,0.20117 -8.22461,6.9961 -0.23438,0.20117 -0.23437,0.20312 -8.14453,7.10547 -0.23438,0.20313 -0.22852,0.20508 -8.0664,7.21289 -0.23047,0.20703 -0.22852,0.20898 -7.98437,7.32031 -0.22852,0.20899 -0.22461,0.21289 -7.90429,7.42578 -0.22461,0.21289 -0.22266,0.21484 -7.82031,7.53321 -0.22266,0.21484 -0.2207,0.21875 -7.73438,7.63867 -0.2207,0.21875 -0.21875,0.22071 -7.63867,7.73437 -0.21875,0.2207 -0.21484,0.22266 -7.53321,7.81836 -0.21484,0.22461 -0.21094,0.22461 -7.42773,7.90234 -0.21289,0.22656 -0.20899,0.22852 -7.32031,7.98438 -0.20898,0.22656 -0.20508,0.23047 -7.21485,8.0664 -0.20507,0.23047 -0.20313,0.23242 -7.10547,8.14649 -0.20312,0.23242 -0.19922,0.23633 -6.99805,8.22461 -0.19922,0.23437 -0.19726,0.23828 -6.88868,8.30274 -0.19726,0.23633 -0.19336,0.24023 -6.78125,8.37891 -0.19336,0.24023 -0.19141,0.24024 -6.66992,8.45507 -0.18945,0.24219 -0.1875,0.24414 -6.56055,8.5293 -0.1875,0.24414 -0.18555,0.24609 -6.44921,8.60157 -0.1836,0.24609 -0.18164,0.24805 -6.33984,8.67578 -0.17969,0.24609 -0.17969,0.25195 -6.22656,8.74414 -0.17773,0.25 -0.17578,0.25196 -6.11524,8.8164 -0.17578,0.25196 -0.17188,0.2539 -6.00195,8.88477 -0.17187,0.25391 -0.16797,0.25586 -5.89063,8.95312 -0.16992,0.25586 -0.16406,0.25781 -5.77735,9.01953 -0.16601,0.25782 -0.16211,0.25976 -5.66406,9.08399 -0.16016,0.25976 -0.16016,0.26172 -5.54882,9.14844 -0.15821,0.26172 -0.15625,0.26171 -5.43359,9.2129 -0.15625,0.26367 -0.15234,0.26367 -5.32032,9.27539 -0.15039,0.26563 -0.15039,0.26562 -5.20312,9.33594 -0.14844,0.26562 -0.14649,0.26953 -5.08789,9.39453 -0.14648,0.26758 -0.14063,0.27149 -4.97265,9.45312 -0.14258,0.26953 -0.13867,0.27149 -4.85352,9.51172 -0.13867,0.27148 -0.13672,0.27344 -4.73633,9.56836 -0.13671,0.27344 -0.13086,0.27539 -4.6211,9.62304 -0.13086,0.27539 -0.1289,0.27539 -4.50196,9.67774 -0.12695,0.27734 -0.12695,0.27735 -2.59961,5.77539 -3.01953,8.8164 -1.33008,9.22461 0.40625,9.3125 2.125,9.07227 3.77344,8.52344 5.28906,7.67382 6.62109,6.5586 7.72461,5.21484 8.55664,3.69141 9.09375,2.04101 9.31446,0.31641 9.21093,-1.41797 8.78907,-3.10156 8.06054,-4.67969 7.05078,-6.09375 5.79688,-7.29687 3.71484,-6.78907 2.47461,-5.49609 4.28906,-9.21875 4.33985,-9.03711 4.48633,-9.05469 4.56054,-8.93554 4.63868,-8.81836 4.8457,-8.94922 4.88867,-8.76563 5.00195,-8.7207 5.06641,-8.58984 5.28125,-8.70704 5.38867,-8.64257 5.42774,-8.47071 5.53515,-8.41406 5.71094,-8.45117 5.74805,-8.28125 5.8457,-8.21094 5.95117,-8.14453 6.0586,-8.08008 6.29101,-8.17969 6.25977,-7.93359 6.36523,-7.86523 6.54102,-7.88477 6.55468,-7.70312 6.74024,-7.72657 6.83789,-7.64453 6.79492,-7.41015 7.0332,-7.48438 7.13672,-7.40625 7.16016,-7.25 7.32617,-7.23437 7.32813,-7.06055 7.41015,-6.96484 7.65039,-7.01172 7.47656,-6.6875 7.73243,-6.7461 7.79297,-6.63086 7.79101,-6.46289 7.86914,-6.36719 2.13477,-1.68554 6.74609,-6.42774 5.4375,-7.57031 3.9375,-8.44726 2.30078,-9.03125 0.58594,-9.30079 -1.15039,-9.24804 -2.84766,-8.875 -4.44531,-8.19141 -5.88867,-7.22461 -7.125,-6.00586 -8.11719,-4.58008 -8.82617,-2.99218 -9.22852,-1.30469 z m 1417.2148,644.613284 -9.041,2.269532 -8.4609,3.90625 -7.5879,5.410156 -6.4551,6.724609 -5.0918,7.804688 -3.5566,8.613281 -1.8965,9.125 -0.2637,7.734375 0.3477,8.0371094 0.3183,10.2363281 0.1914,10.2441405 0.062,10.261719 -0.062,10.257812 -0.1914,10.246094 -0.3183,10.232422 -0.4434,10.214844 -0.5703,10.207031 -0.6953,10.177734 -0.8223,10.189453 -0.9297,9.990238 -1.0683,10.11914 -1.1953,10.13476 -1.3145,10.07032 -1.4414,10.07226 -1.5351,9.86914 -1.6914,10.05078 -1.8028,9.97071 -1.9043,9.84179 -2.0488,9.93946 -2.1641,9.875 -2.2636,9.76367 -2.4473,9.99023 -2.4941,9.66602 -2.5977,9.59375 -2.7773,9.7793 -2.8848,9.69726 -3.002,9.66602 -3.0722,9.47851 -3.252,9.62695 -3.3711,9.59376 -3.3965,9.30273 -3.6035,9.50781 -3.5879,9.13281 -3.8652,9.49415 -3.8906,9.23046 -4.0625,9.32227 -4.0899,9.07812 -4.2871,9.21875 -4.3105,8.97461 -4.5137,9.11524 -4.6641,9.13476 -3.4453,8.66016 -1.7773,9.14844 -0.049,9.32031 1.6796,9.16602 3.3536,8.69726 4.9082,7.92188 6.2949,6.87304 7.459,5.58594 8.3671,4.10547 8.9844,2.48047 9.2871,0.77148 9.2696,-0.96679 8.9297,-2.66993 8.2773,-4.28125 7.3418,-5.74218 6.1465,-7.00586 4.041,-6.59961 4.8457,-9.4961 0.1387,-0.27148 0.1367,-0.27344 4.7363,-9.56836 0.1367,-0.27344 0.1309,-0.27343 4.6211,-9.625 0.1308,-0.27344 0.129,-0.27734 4.5019,-9.67774 0.127,-0.27539 0.1269,-0.2793 4.3809,-9.73046 0.1269,-0.27735 0.1211,-0.27929 4.2637,-9.78321 0.1211,-0.27929 0.1191,-0.28126 4.1426,-9.83203 0.1191,-0.28125 0.1153,-0.2832 4.0234,-9.88281 0.1133,-0.28321 0.1133,-0.2832 3.9023,-9.93164 0.1114,-0.2832 0.1074,-0.28516 3.7812,-9.98047 0.1094,-0.28515 0.1035,-0.28516 3.6602,-10.02734 0.1054,-0.28516 0.1,-0.28906 3.5391,-10.07031 0.1016,-0.28907 0.098,-0.28711 3.4141,-10.11718 0.098,-0.28907 0.094,-0.28906 3.293,-10.1582 0.094,-0.29102 0.092,-0.29101 3.168,-10.20117 0.092,-0.29102 0.086,-0.29297 3.0449,-10.24023 0.088,-0.29297 0.084,-0.29492 2.9199,-10.2793 0.084,-0.29492 0.08,-0.29493 2.7949,-10.31835 0.08,-0.29493 0.076,-0.29687 2.6718,-10.35742 0.076,-0.29493 0.072,-0.29687 2.5449,-10.39453 0.072,-0.29688 0.07,-0.29687 2.4179,-10.42969 0.07,-0.29883 0.064,-0.29883 2.293,-10.46289 0.064,-0.29882 0.062,-0.29883 2.1641,-10.4961 0.062,-0.30078 0.059,-0.30078 2.0371,-10.52734 0.059,-0.30078 0.055,-0.30078 1.9082,-10.5586 0.055,-0.30273 0.051,-0.30274 1.7812,-10.58789 0.051,-0.30273 0.047,-0.30274 1.6523,-10.61718 0.047,-0.30274 0.043,-0.30469 1.5235,-10.64257 0.043,-0.30469 0.041,-0.30469 1.3906,-10.66992 0.041,-0.30664 0.035,-0.30469 1.2617,-10.69531 0.037,-0.30664 0.031,-0.30469 1.1309,-10.7207 0.033,-0.30664 0.029,-0.30664 0.9981,-10.74219 0.029,-0.30664 0.025,-0.30664 0.8672,-10.763674 0.025,-0.308594 0.022,-0.308594 0.7344,-10.783203 0.022,-0.308594 0.017,-0.308593 0.6036,-10.804688 0.016,-0.308594 0.014,-0.308594 0.4707,-10.822265 0.014,-0.308594 0.01,-0.310547 0.3359,-10.839844 0.01,-0.308593 0.01,-0.310547 0.2011,-10.855469 0.01,-0.310547 0,-0.310547 0.068,-10.86914 -0.025,-0.279297 0.025,-0.341797 -0.068,-10.871094 0,-0.310547 -0.01,-0.310546 -0.2011,-10.8554692 -0.01,-0.3085938 -0.01,-0.3105469 -0.3359,-10.8398437 -0.01,-0.3085938 -0.014,-0.3085937 -0.3633,-8.3808589 -1.2715,-9.234376 -2.9609,-8.835937 -4.5508,-8.132813 -5.9805,-7.148437 -7.2031,-5.914063 -8.1758,-4.474609 -8.8633,-2.878906 -9.2441,-1.183594 z m -1746.5234,32.574219 -9.14062,1.818359 -8.64453,3.482422 -7.84766,5.027344 -6.7793,6.394531 -5.47265,7.5429691 -3.98047,8.4277344 -2.345704,9.0195315 -0.646485,7.710937 L 99,28.046875 l 0,0.310547 0,0.310547 0.06836,10.86914 0.002,0.310547 0.0059,0.310547 0.201172,10.855469 0.0059,0.310547 0.0098,0.308593 0.335937,10.839844 0.0098,0.310547 0.01367,0.308594 0.470701,10.822265 0.0137,0.308594 0.0156,0.308594 0.60352,10.804688 0.0176,0.308593 0.0215,0.308594 0.73438,10.783203 0.0215,0.308594 0.0254,0.308594 0.86719,10.763674 0.0254,0.30664 0.0293,0.30664 0.99804,10.74219 0.0293,0.30664 0.0332,0.30664 1.13086,10.7207 0.0312,0.30469 0.0371,0.30664 1.26172,10.69531 0.0352,0.30469 0.041,0.30664 1.39063,10.66992 0.041,0.30469 0.043,0.30469 1.52344,10.64257 0.043,0.30469 0.0469,0.30274 1.65235,10.61718 0.0469,0.30274 0.0508,0.30273 1.78125,10.58789 0.0508,0.30274 0.0547,0.30273 1.90821,10.5586 0.0547,0.30078 0.0586,0.30078 2.03711,10.52734 0.0586,0.30078 0.0625,0.30078 2.16406,10.4961 0.0625,0.29883 0.0645,0.29882 2.29296,10.46289 0.0645,0.29883 0.0703,0.29883 2.41797,10.42969 0.0703,0.29687 0.0723,0.29688 2.54492,10.39453 0.0723,0.29687 0.0762,0.29493 2.67187,10.35742 0.0762,0.29687 0.0801,0.29493 2.79492,10.31835 0.0801,0.29493 0.084,0.29492 2.91992,10.2793 0.084,0.29492 0.0879,0.29297 3.04492,10.24023 0.0859,0.29297 0.0918,0.29102 3.16797,10.20117 0.0918,0.29101 0.0937,0.29102 3.29297,10.1582 0.0937,0.28906 0.0977,0.28907 3.41406,10.11718 0.0977,0.28711 0.10156,0.28907 3.53906,10.07031 0.0996,0.28906 0.10547,0.28516 3.66016,10.02734 0.10351,0.28516 0.10938,0.28515 3.78125,9.98047 0.10742,0.28516 0.11133,0.2832 3.90234,9.93164 0.11328,0.2832 0.11328,0.28321 4.02344,9.88281 0.11524,0.2832 0.11914,0.28125 4.14258,9.83203 0.11914,0.28126 0.12109,0.27929 4.26367,9.78321 0.1211,0.27929 0.12695,0.27735 4.38086,9.73046 0.12695,0.2793 0.12695,0.27539 4.50196,9.67774 0.1289,0.27734 0.13086,0.27344 4.6211,9.625 0.13086,0.27343 0.13671,0.27344 4.73633,9.56836 0.13672,0.27344 0.13867,0.27148 1.1836,2.31836 4.99218,7.8711 6.36524,6.80664 7.51953,5.50586 8.41016,4.01562 9.00781,2.38672 9.29687,0.67188 9.25782,-1.06446 8.90039,-2.76562 8.23242,-4.36719 7.2793,-5.82031 6.07226,-7.07032 4.6543,-8.07421 3.07617,-8.79883 1.38867,-9.21485 -0.34375,-9.3125 -2.06836,-9.08789 -2.97461,-7.14453 -0.99804,-1.95703 -4.51563,-9.11719 -4.31054,-8.97461 -4.28711,-9.21875 -4.08985,-9.07812 -4.0625,-9.32227 -3.89062,-9.23046 -3.86524,-9.49415 -3.58788,-9.13281 -3.60351,-9.50781 -3.39649,-9.30273 -3.37109,-9.59376 -3.25196,-9.62695 -3.07226,-9.47851 -3.00195,-9.66602 -2.88477,-9.69726 -2.77735,-9.7793 -2.59765,-9.59375 -2.49414,-9.66602 -2.44727,-9.99023 -2.26367,-9.76367 -2.16406,-9.875 -2.04883,-9.93946 -1.9043,-9.84179 -1.80273,-9.97071 -1.69141,-10.05078 -1.53515,-9.86914 -1.44141,-10.07226 -1.31445,-10.07032 -1.19531,-10.13476 -1.06836,-10.11914 -0.92969,-9.990238 -0.82227,-10.189453 -0.69531,-10.177734 -0.57031,-10.207031 -0.44336,-10.214844 -0.31837,-10.232422 -0.1914,-10.246094 -0.0625,-10.259765 0.0469,-7.746094 -0.81055,-9.285156 -2.51953,-8.9726565 -4.14258,-8.3476563 -5.61914,-7.4355472 -6.90038,-6.263671 -7.94337,-4.875 -8.71094,-3.314454 -9.17382,-1.640625 z m 311.81836,684.572267 -8.80468,3.05469 -8.08594,4.63671 -7.08203,6.05665 -5.83789,7.26562 -4.38672,8.22266 -2.78321,8.89453 -1.08593,9.25781 0.65039,9.29688 2.36718,9.01367 3.9961,8.41992 5.49023,7.53125 5.55469,5.38672 1.81641,1.50586 0.23632,0.19726 0.24024,0.19336 8.3789,6.7793 0.24024,0.19531 0.24219,0.18946 8.45507,6.66992 0.24024,0.1914 0.24414,0.1875 8.5293,6.56055 0.24414,0.1875 0.24609,0.18359 8.60156,6.45118 0.2461,0.18359 0.24804,0.18164 8.67579,6.33789 0.24804,0.18164 0.25,0.17774 8.7461,6.22851 0.25,0.17774 0.25195,0.17578 8.81641,6.11523 0.25,0.17383 0.25586,0.17187 8.88476,6.00391 0.25391,0.17188 0.25586,0.16796 8.95117,5.89063 0.25586,0.16797 0.25781,0.16601 9.01953,5.77735 0.25781,0.16406 0.25977,0.16211 9.08398,5.66406 0.25977,0.16211 0.26172,0.1582 9.14844,5.55079 0.26171,0.1582 0.26368,0.1543 9.21093,5.43554 0.26368,0.15625 0.26562,0.15235 9.27344,5.31836 0.26562,0.15234 0.26563,0.14844 9.33594,5.20508 0.26757,0.14843 0.26758,0.14649 9.39453,5.08789 0.26953,0.14453 0.26954,0.14258 9.45312,4.97265 0.27149,0.14063 0.27148,0.13867 9.51172,4.85547 0.27148,0.13867 0.27344,0.13477 9.56641,4.73828 0.27343,0.13476 0.27539,0.13282 9.62305,4.61914 0.27539,0.13281 0.27539,0.12891 9.67774,4.5 0.27734,0.1289 0.27734,0.125 9.73047,4.38281 0.2793,0.125 0.2793,0.12305 9.78125,4.26172 0.28125,0.12305 0.27929,0.11718 9.83399,4.14453 0.28125,0.11719 0.28125,0.11524 9.88476,4.02343 0.28125,0.11524 0.28516,0.11133 9.93164,3.90234 0.2832,0.11328 0.28516,0.10742 9.98047,3.78125 0.2832,0.10743 0.28711,0.10546 10.02539,3.66016 0.28711,0.10352 0.28711,0.10156 10.07227,3.53906 0.28711,0.0996 0.28906,0.0977 10.11523,3.41601 0.28906,0.0977 0.29102,0.0937 10.1582,3.29297 0.29102,0.0937 0.29102,0.0898 10.19921,3.16992 0.29297,0.0899 0.29102,0.0879 10.24219,3.04492 0.29296,0.0879 0.29297,0.082 10.28125,2.92188 0.29493,0.084 0.29492,0.0801 10.31836,2.79492 0.29492,0.0801 0.29687,0.0762 10.35547,2.67188 0.29688,0.0762 0.29687,0.0723 10.39453,2.54492 0.29688,0.0723 0.29687,0.0703 10.42969,2.41797 0.29688,0.0684 0.29882,0.0664 9.18164,2.01172 9.25196,1.13672 9.29883,-0.59961 9.02929,-2.31446 8.44141,-3.94922 7.56055,-5.44921 6.41992,-6.75586 5.05273,-7.83008 3.51367,-8.63282 1.84961,-9.13476 0.1211,-9.31836 -1.60743,-9.17969 -3.28515,-8.72265 -4.84766,-7.96094 -6.23828,-6.92188 -7.41601,-5.64453 -8.33594,-4.16992 -7.4082,-2.23633 -8.88477,-1.94726 -9.72656,-2.25391 -9.88086,-2.41992 -9.77149,-2.51953 -9.77539,-2.64844 -9.63476,-2.73633 -9.69922,-2.88476 -9.56445,-2.97266 -9.58204,-3.10352 -9.625,-3.25 -9.40039,-3.30273 -9.55078,-3.48828 -9.31445,-3.5293 -9.46094,-3.7168 -9.30273,-3.7871 -9.23047,-3.89063 -9.32227,-4.0625 -9.07812,-4.08984 -9.0918,-4.22852 -9.10547,-4.37109 -8.99023,-4.45117 -8.875,-4.5293 -9.00586,-4.73438 -8.82422,-4.77929 -8.89258,-4.95508 -8.70898,-4.9961 -8.77735,-5.17968 -8.52343,-5.16992 -8.53321,-5.32227 -8.58789,-5.5 -8.4082,-5.53125 -8.34375,-5.63867 -8.38477,-5.81836 -8.21679,-5.84961 -8.14844,-5.95508 -8.07422,-6.05273 -8.10156,-6.23047 -8.01367,-6.32422 -7.86329,-6.36133 -1.57226,-1.30469 -7.69727,-5.25586 -8.53711,-3.73828 -9.08203,-2.08789 -9.3125,-0.36523 z m 1110.81054,4.22461 -9.041,2.26367 -8.4629,3.90234 -6.375,4.38672 -3.668,2.9668 -8.0136,6.32422 -8.1016,6.23047 -8.0742,6.05273 -8.1485,5.95508 -8.2168,5.84961 -8.3847,5.81836 -8.3438,5.63867 -8.4082,5.53125 -8.5879,5.5 -8.5332,5.32227 -8.5234,5.16992 -8.7773,5.17968 -8.709,4.9961 -8.8926,4.95508 -8.8242,4.77929 -9.0059,4.73438 -8.875,4.5293 -8.9902,4.45117 -9.1055,4.37109 -9.0918,4.22852 -9.0781,4.08984 -9.3223,4.0625 -9.2304,3.89063 -9.3028,3.7871 -9.4609,3.7168 -9.3145,3.5293 -9.5508,3.48828 -9.4003,3.30273 -9.625,3.25 -9.5821,3.10352 -9.5644,2.97266 -9.6992,2.88476 -9.6348,2.73633 -9.7754,2.64844 -9.7715,2.51953 -9.8808,2.41992 -9.7286,2.25586 -9.7597,2.13867 -6.4121,1.32227 -8.9121,2.72461 -8.252,4.33203 -7.3047,5.78906 -6.1035,7.04297 -4.6914,8.05273 -3.1133,8.78516 -1.4297,9.20898 0.3028,9.31446 2.0273,9.09765 3.6816,8.5625 5.2051,7.73047 6.5488,6.62891 7.6661,5.30078 8.5175,3.7832 9.0704,2.13868 9.3105,0.41796 7.6777,-0.97265 6.6075,-1.36133 0.3007,-0.0625 0.2989,-0.0664 10.4629,-2.29101 0.2988,-0.0664 0.2969,-0.0684 10.4296,-2.41797 0.2969,-0.0703 0.2969,-0.0723 10.3945,-2.54492 0.2969,-0.0723 0.2969,-0.0762 10.3554,-2.67188 0.2969,-0.0762 0.2949,-0.0801 10.3184,-2.79492 0.2949,-0.0801 0.2949,-0.084 10.2813,-2.92188 0.293,-0.082 0.2929,-0.0879 10.2422,-3.04492 0.291,-0.0879 0.293,-0.0899 10.1992,-3.16992 0.291,-0.0898 0.2911,-0.0937 10.1582,-3.29297 0.291,-0.0937 0.289,-0.0977 10.1153,-3.41601 0.289,-0.0977 0.2871,-0.0996 10.0723,-3.53906 0.2871,-0.10156 0.2871,-0.10352 10.0254,-3.66016 0.2871,-0.10546 0.2832,-0.10743 9.9805,-3.78125 0.2852,-0.10742 0.2832,-0.11328 9.9316,-3.90234 0.2852,-0.11133 0.2812,-0.11524 9.8848,-4.02343 0.2812,-0.11524 0.2813,-0.11719 9.834,-4.14453 0.2793,-0.11718 0.2812,-0.12305 9.7813,-4.26172 0.2793,-0.12305 0.2792,-0.125 9.7305,-4.38281 0.2774,-0.125 0.2773,-0.1289 9.6777,-4.5 0.2754,-0.12891 0.2754,-0.13281 9.6231,-4.61914 0.2754,-0.13282 0.2734,-0.13476 9.5664,-4.73828 0.2734,-0.13477 0.2715,-0.13867 9.5117,-4.85547 0.2715,-0.13867 0.2715,-0.14063 9.4531,-4.97265 0.2696,-0.14258 0.2695,-0.14453 9.3945,-5.08789 0.2676,-0.14649 0.2676,-0.14843 9.3359,-5.20508 0.2656,-0.14844 0.2657,-0.15234 9.2734,-5.31836 0.2656,-0.15235 0.2637,-0.15625 9.2109,-5.43554 0.2637,-0.1543 0.2617,-0.1582 9.1485,-5.55079 0.2617,-0.1582 0.2598,-0.16211 9.0839,-5.66406 0.2598,-0.16211 0.2578,-0.16406 9.0196,-5.77735 0.2578,-0.16601 0.2558,-0.16797 8.9512,-5.89063 0.2559,-0.16796 0.2539,-0.17188 8.8847,-6.00391 0.2559,-0.17187 0.25,-0.17383 8.8164,-6.11523 0.2519,-0.17578 0.25,-0.17774 8.7461,-6.22851 0.25,-0.17774 0.2481,-0.18164 8.6758,-6.33789 0.248,-0.18164 0.2461,-0.18359 8.6016,-6.45118 0.2461,-0.18359 0.2441,-0.1875 8.5293,-6.56055 0.2441,-0.1875 0.2403,-0.1914 8.4551,-6.66992 0.2421,-0.18946 0.2403,-0.19531 3.9492,-3.19531 6.666,-6.51172 5.3438,-7.63477 3.832,-8.49609 2.1914,-9.0586 0.4707,-9.30859 -1.2656,-9.23242 -2.9571,-8.83789 -4.5449,-8.13672 -5.9765,-7.15234 -7.1993,-5.91797 -8.1738,-4.47852 -8.8613,-2.88476 -9.2442,-1.18946 z"
       style="color:#000000;font-style:normal;font-variant:normal;font-weight:normal;font-stretch:normal;font-size:medium;line-height:normal;font-family:sans-serif;text-indent:0;text-align:start;text-decoration:none;text-decoration-line:none;text-decoration-style:solid;text-decoration-color:#000000;letter-spacing:normal;word-spacing:normal;text-transform:none;direction:ltr;block-progression:tb;writing-mode:lr-tb;baseline-shift:baseline;text-anchor:start;white-space:normal;clip-rule:nonzero;display:inline;overflow:visible;visibility:visible;opacity:1;isolation:auto;mix-blend-mode:normal;color-interpolation:sRGB;color-interpolation-filters:linearRGB;solid-color:#000000;solid-opacity:1;fill:#000000;fill-opacity:1;fill-rule:nonzero;stroke:none;stroke-width:80;stroke-linecap:round;stroke-linejoin:round;stroke-miterlimit:4;stroke-dasharray:none;stroke-dashoffset:0;stroke-opacity:1;color-rendering:auto;image-rendering:auto;shape-rendering:auto;text-rendering:auto;enable-background:accumulate"
       id="path3487-0-6-2" />
  </g>
</svg>
