<?xml version="1.0" encoding="UTF-8" standalone="no"?>
<svg
   xmlns:dc="http://purl.org/dc/elements/1.1/"
   xmlns:cc="http://creativecommons.org/ns#"
   xmlns:rdf="http://www.w3.org/1999/02/22-rdf-syntax-ns#"
   xmlns:svg="http://www.w3.org/2000/svg"
   xmlns="http://www.w3.org/2000/svg"
   version="1.1"
   id="svg3891"
   height="2048"
   width="2048">
  <defs
     id="defs3893" />
  <metadata
     id="metadata3896">
    <rdf:RDF>
      <cc:Work
         rdf:about="">
        <dc:format>image/svg+xml</dc:format>
        <dc:type
           rdf:resource="http://purl.org/dc/dcmitype/StillImage" />
        <dc:title></dc:title>
      </cc:Work>
    </rdf:RDF>
  </metadata>
  <g
     transform="translate(0,995.63783)"
     id="layer1">
    <path
       id="path4481-5-4"
       transform="translate(0,-995.63783)"
       d="M 1022.25 99.353516 C 1019.8056 99.35203 1017.3604 99.359719 1014.916 99.376953 C 602.35774 95.990603 214.14562 405.69692 123.51367 807.92773 C 36.078513 1162.2272 180.16151 1560.4324 478.51953 1772.2148 C 775.07526 1991.4085 1204.4708 2009.7438 1514.9395 1808.2656 C 1819.9986 1618.6783 1996.922 1243.1695 1938.8125 887.29297 C 1886.5097 526.19182 1603.8047 210.3241 1247.3242 126.8457 C 1173.7992 108.44663 1098.0268 99.399576 1022.25 99.353516 z M 1011.7676 199.11328 C 1018.4582 199.08687 1025.1531 199.14899 1031.8516 199.30273 C 1415.2119 195.43261 1773.8339 497.20607 1835.6133 875.73242 C 1901.0095 1217.6668 1725.181 1590.2141 1415.4102 1751.627 C 1098.6955 1925.9273 670.92841 1860.6479 425.01367 1593.8809 C 172.89093 1333.6639 123.90784 902.12659 318.19531 594.79102 C 462.42605 356.81102 732.9923 200.21371 1011.7676 199.11328 z M 1028.1641 289.03711 C 1021.3972 289.02794 1014.6256 289.1193 1007.8535 289.3125 C 654.85303 289.3125 331.38452 581.45847 293.46289 932.41992 C 248.30807 1261.3024 455.19274 1604.32 769.0293 1714.7344 C 1066.3515 1827.0935 1429.58 1720.5402 1615.1738 1461.2715 C 1815.4531 1196.0524 1803.9342 793.628 1580.668 545.22461 C 1444.1573 386.28773 1237.9379 289.32143 1028.1641 289.03711 z M 1023.6699 387.08594 C 1028.1817 387.0927 1032.6928 387.14973 1037.2051 387.25586 C 1349.667 387.25586 1634.4163 650.91753 1658.2617 962.55859 C 1690.8373 1259.4158 1487.1145 1562.241 1197.043 1638.2598 C 917.48586 1719.8031 592.02612 1584.1763 459.57812 1323.166 C 317.02278 1059.3693 390.12662 698.51909 633.92773 519.82617 C 744.59552 434.26063 883.8041 386.87638 1023.6699 387.08594 z M 1015.7109 584.94922 C 844.18237 586.16124 680.61062 698.83384 617.39258 858.23438 C 551.60238 1014.0352 587.9735 1205.804 706.27734 1326.6758 C 821.30364 1450.5055 1010.8318 1496.1399 1169.584 1438.1035 C 1335.9435 1381.4288 1458.1568 1216.8728 1462.5605 1040.9141 C 1471.423 869.96886 1368.6862 700.94486 1214.002 628.34766 C 1154.9754 599.76876 1089.4568 584.89006 1023.8848 584.97656 C 1021.1584 584.93938 1018.4336 584.92998 1015.7109 584.94922 z M 1031.3535 664.92188 C 1188.0597 665.62293 1335.0681 781.44157 1371.6113 934.09766 C 1412.3101 1083.1162 1343.7408 1253.0336 1210.25 1331.1133 C 1073.9496 1416.6566 881.77957 1393.858 769.85547 1278.0039 C 651.74153 1164.0604 630.70808 966.91853 721.32422 830.26953 C 785.50272 728.32303 903.37455 663.80296 1023.8848 664.97656 C 1026.3766 664.92937 1028.8661 664.91075 1031.3535 664.92188 z M 1137.3047 766.99414 C 1097.3373 839.50324 1057.3697 912.01238 1017.4023 984.52148 C 980.36992 988.45928 971.57231 1044.6426 1005.7402 1059.627 C 1028.3101 1075.2933 1045.9874 1049.2348 1066.5332 1050.1328 L 1249.8262 1050.1328 L 1249.8262 1000.1328 L 1065.8887 1000.1328 C 1104.2904 930.46481 1142.6921 860.79691 1181.0938 791.12891 C 1166.4974 783.08401 1151.9011 775.03904 1137.3047 766.99414 z "
       style="color:#000000;font-style:normal;font-variant:normal;font-weight:normal;font-stretch:normal;font-size:medium;line-height:normal;font-family:sans-serif;text-indent:0;text-align:start;text-decoration:none;text-decoration-line:none;text-decoration-style:solid;text-decoration-color:#000000;letter-spacing:normal;word-spacing:normal;text-transform:none;direction:ltr;block-progression:tb;writing-mode:lr-tb;baseline-shift:baseline;text-anchor:start;white-space:normal;clip-rule:nonzero;display:inline;overflow:visible;visibility:visible;opacity:1;isolation:auto;mix-blend-mode:normal;color-interpolation:sRGB;color-interpolation-filters:linearRGB;solid-color:#000000;solid-opacity:1;fill:#000000;fill-opacity:1;fill-rule:nonzero;stroke:none;stroke-width:1.03356075;stroke-linecap:round;stroke-linejoin:round;stroke-miterlimit:4;stroke-dasharray:none;stroke-dashoffset:0;stroke-opacity:1;color-rendering:auto;image-rendering:auto;shape-rendering:auto;text-rendering:auto;enable-background:accumulate" />
  </g>
</svg>
