<?xml version="1.0" encoding="UTF-8" standalone="no"?>
<svg
   xmlns:dc="http://purl.org/dc/elements/1.1/"
   xmlns:cc="http://creativecommons.org/ns#"
   xmlns:rdf="http://www.w3.org/1999/02/22-rdf-syntax-ns#"
   xmlns:svg="http://www.w3.org/2000/svg"
   xmlns="http://www.w3.org/2000/svg"
   version="1.1"
   id="svg3891"
   height="2048"
   width="2048">
  <defs
     id="defs3893" />
  <metadata
     id="metadata3896">
    <rdf:RDF>
      <cc:Work
         rdf:about="">
        <dc:format>image/svg+xml</dc:format>
        <dc:type
           rdf:resource="http://purl.org/dc/dcmitype/StillImage" />
        <dc:title></dc:title>
      </cc:Work>
    </rdf:RDF>
  </metadata>
  <g
     transform="translate(0,995.63783)"
     id="layer1">
    <g
       id="layer1-6"
       transform="matrix(96.752895,0,0,96.752895,55.328158,-100816.34)">
      <path
         id="path4481-5-4"
         d="m 9.9179325,1032.7348 c -4.6270392,-0.056 -8.92271005,3.7569 -9.40491998,8.3632 -0.51158626,3.9182 1.63951988,8.0511 5.22822668,9.7587 3.3886815,1.7027 7.7828498,1.1899 10.5932408,-1.3943 2.838084,-2.4891 4.023843,-6.7245 2.710832,-10.2918 -1.19766,-3.4828 -4.521147,-6.1493 -8.21891,-6.4002 -0.302055,-0.026 -0.605315,-0.038 -0.9084695,-0.036 z m 0.1750395,1.0328 c 4.254501,-0.059 8.172263,3.5711 8.42065,7.8242 0.334545,3.7677 -2.103675,7.6172 -5.731776,8.7803 -3.4680372,1.1987 -7.6601014,-0.072 -9.7400778,-3.1327 -2.17453673,-3.0452 -2.08059614,-7.5437 0.3966916,-10.3922 1.6189339,-1.9368 4.1191016,-3.1387 6.6545122,-3.0796 z m -0.2480347,0.9303 c -3.9293939,-0.015 -7.4593313,3.5133 -7.4460632,7.445 -0.095146,3.5678 2.6110772,7.0133 6.1570528,7.6184 3.2352191,0.637 6.8012611,-1.043 8.2396741,-4.039 1.515778,-2.983 0.828925,-6.955 -1.766359,-9.1228 -1.414522,-1.2423 -3.297189,-1.9561 -5.1843047,-1.9016 z m 0.3033667,1.0123 c 3.481338,-0.016 6.587514,3.1807 6.453926,6.6652 -0.01449,3.1699 -2.580044,6.141 -5.763786,6.4619 -3.0357297,0.3986 -6.2364562,-1.5479 -7.1092328,-4.5177 -0.9181888,-2.8382 0.2953921,-6.257 2.9461791,-7.7077 1.0459098,-0.6106 2.2614246,-0.9303 3.4729137,-0.9017 z"
         style="color:#000000;font-style:normal;font-variant:normal;font-weight:normal;font-stretch:normal;font-size:medium;line-height:normal;font-family:sans-serif;text-indent:0;text-align:start;text-decoration:none;text-decoration-line:none;text-decoration-style:solid;text-decoration-color:#000000;letter-spacing:normal;word-spacing:normal;text-transform:none;direction:ltr;block-progression:tb;writing-mode:lr-tb;baseline-shift:baseline;text-anchor:start;white-space:normal;clip-rule:nonzero;display:inline;overflow:visible;visibility:visible;opacity:1;isolation:auto;mix-blend-mode:normal;color-interpolation:sRGB;color-interpolation-filters:linearRGB;solid-color:#000000;solid-opacity:1;fill:#000000;fill-opacity:1;fill-rule:nonzero;stroke:none;stroke-width:1.03356075;stroke-linecap:round;stroke-linejoin:round;stroke-miterlimit:4;stroke-dasharray:none;stroke-dashoffset:0;stroke-opacity:1;color-rendering:auto;image-rendering:auto;shape-rendering:auto;text-rendering:auto;enable-background:accumulate" />
    </g>
  </g>
</svg>
