<?xml version="1.0" encoding="UTF-8" standalone="no"?>
<svg
   xmlns:dc="http://purl.org/dc/elements/1.1/"
   xmlns:cc="http://creativecommons.org/ns#"
   xmlns:rdf="http://www.w3.org/1999/02/22-rdf-syntax-ns#"
   xmlns:svg="http://www.w3.org/2000/svg"
   xmlns="http://www.w3.org/2000/svg"
   version="1.1"
   id="svg3891"
   height="2048"
   width="2048">
  <defs
     id="defs3893" />
  <metadata
     id="metadata3896">
    <rdf:RDF>
      <cc:Work
         rdf:about="">
        <dc:format>image/svg+xml</dc:format>
        <dc:type
           rdf:resource="http://purl.org/dc/dcmitype/StillImage" />
        <dc:title></dc:title>
      </cc:Work>
    </rdf:RDF>
  </metadata>
  <g
     transform="translate(0,995.63783)"
     id="layer1">
    <g
       id="layer1-4"
       transform="matrix(0.74578486,0,0,0.64639158,-1085.7848,-2914.814)" />
    <path
       id="rect4138-2"
       d="M 1024.0009,-404.76184 C 892.84536,-169.34582 761.68976,66.070171 630.5342,301.48618 c 262.31053,0 524.6211,0 786.9316,0 -131.155,-235.416007 -262.3099,-470.83201 -393.4649,-706.24802 z m 0,102.7344 c 102.791,184.50454 205.5821,369.009087 308.3731,553.51363 -205.582,0 -411.16407,0 -616.7461,0 102.791,-184.504543 205.582,-369.00909 308.373,-553.51363 z M 1024,-896.64369 c -83.78988,1.20119 -169.45072,9.07958 -248.85611,36.31197 -49.26944,25.85441 -14.76006,107.77605 38.22525,91.03094 130.38482,-35.16185 268.80196,-35.0931 400.33006,-6.22266 54.0027,4.35325 71.0003,-79.58849 19.5586,-96.58594 C 1165.0556,-889.232 1094.2521,-896.32101 1024,-896.64369 Z m 521.2148,169.69922 c -52.7883,-6.0468 -73.5898,72.75739 -26.249,95.29294 106.0256,78.63308 190.413,184.20952 249.2881,301.9512 30.3685,44.8674 106.5059,5.64961 87.6074,-45.125 -65.7223,-137.9785 -167.4773,-259.66341 -292.7011,-347.38867 -5.753,-2.55325 -11.7045,-4.02819 -17.9454,-4.73047 z M 482.52734,-707.0558 c -44.071,5.12762 -71.72232,46.79379 -104.42578,73.26367 -84.68538,83.2287 -155.11942,182.28036 -200.91601,292.01368 -15.38848,51.9467 63.2537,85.87734 90.48242,39.03906 55.8185,-125.49434 142.71651,-236.23244 250.22656,-321.54492 27.5132,-29.77719 5.19274,-82.0533 -35.36719,-82.77149 z M 1024,-706.64369 c -40.39962,3.82693 -97.70492,-9.30689 -117.63086,36.71766 -16.27706,42.38443 30.98259,78.53231 70.38672,65.04297 104.48954,-8.45728 210.02494,11.75234 306.18394,52.47269 52.1299,14.75388 85.0969,-64.29404 37.9316,-90.95117 C 1228.3172,-685.90131 1125.711,-706.34488 1024,-706.64369 Z M 707.10156,-627.714 c -48.31722,8.7324 -87.73961,43.94882 -127.85351,70.90234 -69.57303,54.34452 -134.05396,119.2317 -176.76955,196.80187 -19.13584,52.24698 61.45167,89.75826 89.46095,41.76645 60.43069,-95.75246 150.1097,-169.15066 247.80099,-223.95827 31.52283,-28.85276 9.92852,-84.6267 -32.63888,-85.51239 z m 804.09764,122.34765 c -50.5915,-4.03263 -70.5901,67.83057 -28.9999,94.10526 76.6621,77.52258 126.5895,177.05656 158.9494,279.92681 27.0499,48.623515 108.1,12.12153 90.0701,-40.43832 -34.9282,-122.4711 -101.2853,-236.9675 -193.8318,-324.77148 -7.8386,-5.19677 -16.8181,-8.18938 -26.1878,-8.82227 z M 356.25586,-155.11439 c -47.53885,-4.04847 -57.59995,47.79457 -60.5197,84.18164 -14.81424,111.576305 -5.41969,227.41789 32.49621,333.61722 23.49906,48.81602 104.54341,21.12024 93.25,-31.8672 C 385.97126,122.86064 380.09989,6.263992 402.16206,-105.0558 c 0.35989,-25.4467 -20.52687,-48.21831 -45.9062,-50.05859 z m 1543.47854,92.55468 c -43.1217,-2.148609 -58.6389,45.403443 -50.7989,80.65628 2.4567,138.39453 -32.9994,275.95865 -96.0156,398.748 -17.9017,51.13519 58.9912,88.85816 88.4725,43.4043 78.9482,-147.27424 116.5971,-317.44771 105.3231,-484.24022 -5.0041,-21.569674 -24.8406,-37.864478 -46.9811,-38.56836 z M 153.22852,-29.52455 c -45.22139,-4.235294 -60.350543,44.81586 -53.935387,81.15822 3.906127,139.6622 38.233007,279.52892 104.603997,402.709 30.91138,44.49342 106.56595,4.3497 87.04883,-46.1895 C 228.36657,285.83896 197.08213,148.57185 198.23895,11.32507 194.30959,-10.464723 175.30582,-27.723306 153.22852,-29.52455 Z M 1702.5234,87.48517 c -44.9401,-2.730002 -55.0761,46.13947 -59.0685,80.543 -20.4365,97.85383 -69.5282,186.89467 -128.1506,266.51349 -23.5512,50.41105 53.5178,94.70491 85.5451,49.29511 78.7724,-100.25687 132.8272,-221.35612 149.3945,-348.0176 -0.5787,-25.44279 -22.2894,-47.431331 -47.7205,-48.334 z M 494.47656,416.29767 c -46.71363,1.06428 -62.6021,64.90495 -27.15625,91.9903 80.51151,92.93227 184.32566,166.92516 300.39649,208.1269 52.6356,12.83461 82.6897,-67.36274 34.58203,-92.2793 -106.17179,-40.49241 -200.66646,-109.07023 -273.18164,-196.4277 -9.76015,-7.85841 -22.12585,-11.92083 -34.64063,-11.4102 z m 870.86524,156.1543 c -46.8818,11.24408 -86.9802,43.97304 -134.4902,56.2696 -69.5639,26.4521 -144.5443,30.99293 -217.3575,38.373 -50.24319,17.78576 -33.12562,99.95065 20.0293,96.1992 127.3165,-1.95157 255.1758,-36.19204 363.9414,-102.8424 34.95,-28.6175 13.137,-88.60579 -32.123,-87.9994 z m -900.39649,81.3164 c -48.17843,0.50254 -64.18179,70.46722 -22.88527,93.57826 114.85562,92.60977 252.0818,158.96128 397.2134,186.57604 54.00224,4.35471 71.00025,-79.59104 19.55664,-96.5839 -134.4265,-28.36427 -260.98988,-90.06669 -366.95313,-177.3789 -8.3141,-4.39792 -17.53847,-6.49005 -26.93164,-6.1915 z m 1110.89449,5.045 c -44.2716,5.22655 -71.7773,48.66534 -111.1289,66.9687 -87.7032,57.36318 -188.0655,91.4026 -288.9446,115.98107 -50.4752,23.41287 -20.0177,106.92327 33.7239,92.79243 147.1305,-30.43017 288.0365,-96.03634 402.7344,-193.4141 27.1447,-30.11203 4.1794,-82.11199 -36.3848,-82.3281 z"
       style="color:#000000;font-style:normal;font-variant:normal;font-weight:normal;font-stretch:normal;font-size:medium;line-height:normal;font-family:sans-serif;text-indent:0;text-align:start;text-decoration:none;text-decoration-line:none;text-decoration-style:solid;text-decoration-color:#000000;letter-spacing:normal;word-spacing:normal;text-transform:none;direction:ltr;block-progression:tb;writing-mode:lr-tb;baseline-shift:baseline;text-anchor:start;white-space:normal;clip-rule:nonzero;display:inline;overflow:visible;visibility:visible;opacity:1;isolation:auto;mix-blend-mode:normal;color-interpolation:sRGB;color-interpolation-filters:linearRGB;solid-color:#000000;solid-opacity:1;fill:#000000;fill-opacity:1;fill-rule:nonzero;stroke:none;stroke-width:49.99999619;stroke-linecap:round;stroke-linejoin:miter;stroke-miterlimit:4;stroke-dasharray:none;stroke-dashoffset:200;stroke-opacity:1;color-rendering:auto;image-rendering:auto;shape-rendering:auto;text-rendering:auto;enable-background:accumulate" />
  </g>
</svg>
