<?xml version="1.0" encoding="UTF-8" standalone="no"?>
<svg
   xmlns:dc="http://purl.org/dc/elements/1.1/"
   xmlns:cc="http://creativecommons.org/ns#"
   xmlns:rdf="http://www.w3.org/1999/02/22-rdf-syntax-ns#"
   xmlns:svg="http://www.w3.org/2000/svg"
   xmlns="http://www.w3.org/2000/svg"
   version="1.1"
   id="svg3891"
   height="2048"
   width="2048">
  <defs
     id="defs3893" />
  <metadata
     id="metadata3896">
    <rdf:RDF>
      <cc:Work
         rdf:about="">
        <dc:format>image/svg+xml</dc:format>
        <dc:type
           rdf:resource="http://purl.org/dc/dcmitype/StillImage" />
        <dc:title></dc:title>
      </cc:Work>
    </rdf:RDF>
  </metadata>
  <g
     transform="translate(0,995.63783)"
     id="layer1">
    <path
       id="path4481-5-4"
       d="m 1022.25,-896.28431 c -450.27718,-9.21985 -870.44899,360.94206 -917.28663,809.18882 -49.497461,379.09836 158.62881,778.96426 505.84634,944.17596 327.86485,164.75003 753.01379,115.1334 1024.92749,-134.8932 274.5927,-240.8284 389.3184,-650.6203 262.2807,-995.77136 -116.801,-340.19468 -443.4762,-599.2818 -804.7969,-620.00932 -23.6123,-1.78321 -47.2915,-2.6765 -70.971,-2.6909 z m -10.4824,99.75976 c 412.893,-15.54892 800.9522,328.74882 833.3068,741.03156 39.7358,363.60536 -189.0399,740.29246 -537.1885,860.12606 -338.43232,125.1412 -753.85656,3.4449 -958.25708,-297.5355 C 139.8411,213.23997 148.17317,-220.52288 386.20916,-496.21039 538.56087,-679.72504 772.32398,-795.63135 1011.7676,-796.52455 Z m 16.3965,89.92383 c -381.95292,-12.1471 -733.34925,323.17969 -740.24957,705.15368 -16.83775,345.16801 238.97874,683.90321 580.72025,749.64161 316.64342,69.3173 670.44282,-93.3594 811.71582,-387.8808 146.1076,-287.645 80.7642,-670.44083 -168.5252,-880.55738 -132.0887,-117.00393 -306.8046,-186.15839 -483.6613,-186.35711 z m -4.4942,98.04883 c 336.7078,-8.91613 643.3673,294.1083 637.9672,631.14646 5.9519,311.5733 -244.8213,607.6963 -557.6586,639.1099 -293.71508,38.5646 -603.39407,-149.7694 -687.83742,-437.1041 -88.51436,-273.76654 27.77622,-603.49594 282.86364,-744.45367 97.80337,-57.62292 211.09884,-88.87892 324.66518,-88.69859 z m -228.94724,228.41211 c -59.74154,59.74154 -119.48307,119.48307 -179.22461,179.22461 76.87695,76.87761 153.75391,153.75523 230.63086,230.63284 -75.48828,75.4889 -150.97657,150.9779 -226.46485,226.4668 58.79362,58.7936 117.58724,117.5872 176.38086,176.3808 75.48893,-75.4889 150.97785,-150.9779 226.46678,-226.4668 76.9219,76.9219 153.8437,153.8438 230.7656,230.7657 59.7416,-59.7416 119.4831,-119.4831 179.2247,-179.2247 -76.9219,-76.9219 -153.8438,-153.8437 -230.7657,-230.7656 75.4909,-75.49153 150.9818,-150.98306 226.4727,-226.47459 -58.7936,-58.79362 -117.5873,-117.58724 -176.3809,-176.38086 -75.4909,75.49089 -150.9817,150.98177 -226.4726,226.47266 -76.87761,-76.87695 -153.75523,-153.75391 -230.63284,-230.63086 z m -0.12696,70.67968 c 76.92187,76.92188 153.84373,153.84375 230.7656,230.76563 75.4888,-75.48842 150.9779,-150.97654 226.4668,-226.46484 35.2318,35.23177 70.4635,70.46354 105.6953,105.69531 -75.4889,75.48829 -150.9779,150.97658 -226.4668,226.46487 76.8776,76.8776 153.7553,153.7552 230.6329,230.6328 -36.1367,36.1367 -72.2735,72.2734 -108.4102,108.4101 -76.877,-76.8776 -153.7539,-153.7552 -230.6309,-230.6328 -75.48892,75.4889 -150.97784,150.9779 -226.46676,226.4668 -35.23177,-35.2318 -70.46354,-70.4635 -105.69531,-105.6953 75.48893,-75.4889 150.97786,-150.9779 226.46679,-226.4668 -76.92187,-76.92187 -153.84375,-153.84374 -230.76562,-230.76561 36.13607,-36.13672 72.27213,-72.27344 108.4082,-108.41016 z"
       style="color:#000000;font-style:normal;font-variant:normal;font-weight:normal;font-stretch:normal;font-size:medium;line-height:normal;font-family:sans-serif;text-indent:0;text-align:start;text-decoration:none;text-decoration-line:none;text-decoration-style:solid;text-decoration-color:#000000;letter-spacing:normal;word-spacing:normal;text-transform:none;direction:ltr;block-progression:tb;writing-mode:lr-tb;baseline-shift:baseline;text-anchor:start;white-space:normal;clip-rule:nonzero;display:inline;overflow:visible;visibility:visible;opacity:1;isolation:auto;mix-blend-mode:normal;color-interpolation:sRGB;color-interpolation-filters:linearRGB;solid-color:#000000;solid-opacity:1;fill:#000000;fill-opacity:1;fill-rule:nonzero;stroke:none;stroke-width:1.03356075;stroke-linecap:round;stroke-linejoin:round;stroke-miterlimit:4;stroke-dasharray:none;stroke-dashoffset:0;stroke-opacity:1;color-rendering:auto;image-rendering:auto;shape-rendering:auto;text-rendering:auto;enable-background:accumulate" />
  </g>
</svg>
