<?xml version="1.0" encoding="UTF-8" standalone="no"?>
<svg
   xmlns:dc="http://purl.org/dc/elements/1.1/"
   xmlns:cc="http://creativecommons.org/ns#"
   xmlns:rdf="http://www.w3.org/1999/02/22-rdf-syntax-ns#"
   xmlns:svg="http://www.w3.org/2000/svg"
   xmlns="http://www.w3.org/2000/svg"
   width="2048"
   height="2048"
   id="svg3891"
   version="1.1">
  <defs
     id="defs3893" />
  <metadata
     id="metadata3896">
    <rdf:RDF>
      <cc:Work
         rdf:about="">
        <dc:format>image/svg+xml</dc:format>
        <dc:type
           rdf:resource="http://purl.org/dc/dcmitype/StillImage" />
        <dc:title></dc:title>
      </cc:Work>
    </rdf:RDF>
  </metadata>
  <path
     id="path4481"
     d="M 1024,99 C 660.243,94.066359 309.75108,328.17005 171.77443,664.19216 27.655596,994.3445 102.53809,1404.4753 354.63638,1661.963 c 242.46368,260.9919 641.95021,356.7855 976.52052,234.6709 346.7397,-118.0735 602.7227,-458.5932 616.6378,-825.0913 C 1971.1341,711.41193 1759.2592,352.12132 1434.8414,195.24966 1307.8069,131.85562 1165.9493,98.797017 1024,99 Z m 0,100 c 359.2827,-6.24861 700.9839,251.83638 793.7466,598.93035 97.0301,326.90765 -34.2142,705.40425 -315.9068,899.02415 C 1209.2273,1912.0289 775.30015,1896.4688 498.97745,1660.7987 220.5634,1438.8188 120.90394,1028.223 263.74921,702.61685 387.55667,401.60453 698.33781,195.17882 1024,199 Z M 991.27539,721.17383 C 848.35091,822.08332 705.42643,922.99281 562.50195,1023.9023 c 142.93434,100.9607 285.84746,201.9514 428.77344,302.9239 0,-97.5716 0,-195.1433 0,-292.7149 138.01701,97.6523 276.15791,195.1299 414.22261,292.7149 0,-201.8841 0,-403.76825 0,-605.65237 -138.0742,97.51042 -276.1484,195.02085 -414.22261,292.53127 0,-97.51042 0,-195.02085 0,-292.53127 z m -50.07812,96.375 c 0,137.44402 0,274.88807 0,412.33207 C 843.81446,1161.1569 746.43164,1092.433 649.04883,1023.709 746.43164,954.98894 843.81446,886.26889 941.19727,817.54883 Z m 414.41403,0 c 0,137.57292 0,275.14587 0,412.71877 -97.3828,-68.7884 -194.7656,-137.5769 -292.1484,-206.3653 97.3828,-68.78449 194.7656,-137.56898 292.1484,-206.35347 z"
     style="color:#000000;font-style:normal;font-variant:normal;font-weight:normal;font-stretch:normal;font-size:medium;line-height:normal;font-family:sans-serif;text-indent:0;text-align:start;text-decoration:none;text-decoration-line:none;text-decoration-style:solid;text-decoration-color:#000000;letter-spacing:normal;word-spacing:normal;text-transform:none;direction:ltr;block-progression:tb;writing-mode:lr-tb;baseline-shift:baseline;text-anchor:start;white-space:normal;clip-rule:nonzero;display:inline;overflow:visible;visibility:visible;opacity:1;isolation:auto;mix-blend-mode:normal;color-interpolation:sRGB;color-interpolation-filters:linearRGB;solid-color:#000000;solid-opacity:1;fill:#000000;fill-opacity:1;fill-rule:nonzero;stroke:none;stroke-width:99.99999237;stroke-linecap:butt;stroke-linejoin:miter;stroke-miterlimit:4;stroke-dasharray:none;stroke-dashoffset:0;stroke-opacity:1;color-rendering:auto;image-rendering:auto;shape-rendering:auto;text-rendering:auto;enable-background:accumulate" />
</svg>
