<?xml version="1.0" encoding="UTF-8" standalone="no"?>
<svg
   xmlns:dc="http://purl.org/dc/elements/1.1/"
   xmlns:cc="http://creativecommons.org/ns#"
   xmlns:rdf="http://www.w3.org/1999/02/22-rdf-syntax-ns#"
   xmlns:svg="http://www.w3.org/2000/svg"
   xmlns="http://www.w3.org/2000/svg"
   width="2048"
   height="2048"
   id="svg3891"
   version="1.1">
  <defs
     id="defs3893" />
  <metadata
     id="metadata3896">
    <rdf:RDF>
      <cc:Work
         rdf:about="">
        <dc:format>image/svg+xml</dc:format>
        <dc:type
           rdf:resource="http://purl.org/dc/dcmitype/StillImage" />
        <dc:title></dc:title>
      </cc:Work>
    </rdf:RDF>
  </metadata>
  <path
     id="path4481"
     d="M 1024,99 C 660.243,94.066359 309.75108,328.17005 171.77443,664.19216 27.655596,994.3445 102.53809,1404.4753 354.63638,1661.963 c 242.46368,260.9919 641.95021,356.7855 976.52052,234.6709 346.7397,-118.0735 602.7227,-458.5932 616.6378,-825.0913 C 1971.1341,711.41193 1759.2592,352.12132 1434.8414,195.24966 1307.8069,131.85562 1165.9493,98.797017 1024,99 Z m 0,100 c 359.2827,-6.24861 700.9839,251.83638 793.7466,598.93035 97.0301,326.90765 -34.2142,705.40425 -315.9068,899.02415 C 1209.2273,1912.0289 775.30015,1896.4688 498.97745,1660.7987 220.5634,1438.8188 120.90394,1028.223 263.74921,702.61685 387.55667,401.60453 698.33781,195.17882 1024,199 Z m 0,391.875 c -131.15512,235.41657 -262.30987,470.8333 -393.46484,706.25 262.30988,0 524.61974,0 786.92964,0 C 1286.3099,1061.7083 1155.1549,826.29167 1024,590.875 Z m 0,102.73633 c 102.7917,184.50456 205.5833,369.00907 308.375,553.51367 -205.5833,0 -411.16667,0 -616.75,0 C 818.41667,1062.6204 921.20833,878.11589 1024,693.61133 Z"
     style="color:#000000;font-style:normal;font-variant:normal;font-weight:normal;font-stretch:normal;font-size:medium;line-height:normal;font-family:sans-serif;text-indent:0;text-align:start;text-decoration:none;text-decoration-line:none;text-decoration-style:solid;text-decoration-color:#000000;letter-spacing:normal;word-spacing:normal;text-transform:none;direction:ltr;block-progression:tb;writing-mode:lr-tb;baseline-shift:baseline;text-anchor:start;white-space:normal;clip-rule:nonzero;display:inline;overflow:visible;visibility:visible;opacity:1;isolation:auto;mix-blend-mode:normal;color-interpolation:sRGB;color-interpolation-filters:linearRGB;solid-color:#000000;solid-opacity:1;fill:#000000;fill-opacity:1;fill-rule:nonzero;stroke:none;stroke-width:99.99999237;stroke-linecap:butt;stroke-linejoin:miter;stroke-miterlimit:4;stroke-dasharray:none;stroke-dashoffset:0;stroke-opacity:1;color-rendering:auto;image-rendering:auto;shape-rendering:auto;text-rendering:auto;enable-background:accumulate" />
</svg>
