<?xml version="1.0" encoding="UTF-8" standalone="no"?>
<svg
   xmlns:dc="http://purl.org/dc/elements/1.1/"
   xmlns:cc="http://creativecommons.org/ns#"
   xmlns:rdf="http://www.w3.org/1999/02/22-rdf-syntax-ns#"
   xmlns:svg="http://www.w3.org/2000/svg"
   xmlns="http://www.w3.org/2000/svg"
   version="1.1"
   id="svg3891"
   height="2048"
   width="2048">
  <defs
     id="defs3893" />
  <metadata
     id="metadata3896">
    <rdf:RDF>
      <cc:Work
         rdf:about="">
        <dc:format>image/svg+xml</dc:format>
        <dc:type
           rdf:resource="http://purl.org/dc/dcmitype/StillImage" />
        <dc:title></dc:title>
      </cc:Work>
    </rdf:RDF>
  </metadata>
  <g
     transform="translate(0,995.63783)"
     id="layer1">
    <g
       id="layer1-4"
       transform="matrix(0.74578486,0,0,0.64639158,-1085.7848,-2914.814)" />
    <path
       d="m 880.00001,-371.63783 0,256 -256.00002,0 0,287.99999 256.00002,0 0,256 287.99999,0 0,-256 256,0 0,-288.00099 -256,0 0,-255.999 z m 48,48 191.99999,0 0,256.000005 256,0 0,191.999985 -256,0 0,256 -191.99999,0 0,-257.5004 -256.00001,0 0,-190.499585 256.00001,0 z m 103.35739,-569.31725 -12.7617,0.0215 -0.3359,0 -0.3379,0.006 -12.7598,0.19335 -0.3379,0.006 -0.3359,0.01 -12.75588,0.36523 -0.33789,0.01 -0.33594,0.0137 -12.75,0.53711 -0.33593,0.0156 -0.33789,0.0176 -12.74024,0.70899 -0.33789,0.0195 -0.33594,0.0234 -12.73047,0.88086 -0.33593,0.0234 -0.33594,0.0273 -12.7168,1.05273 -0.33594,0.0274 -0.33593,0.0312 -12.70117,1.22461 -0.33594,0.0332 -0.33594,0.0352 -12.68164,1.39649 -0.33594,0.0371 -0.33594,0.041 -12.66015,1.56641 -0.33594,0.041 -0.33594,0.0469 -12.63476,1.73633 -0.33594,0.0469 -0.33594,0.0508 -12.60937,1.9082 -0.33594,0.0508 -0.33594,0.0547 -12.58008,2.08008 -0.33593,0.0547 -0.33594,0.0606 -12.54687,2.25 -0.3379,0.0606 -0.33398,0.0644 -12.51367,2.41992 -0.33594,0.0664 -0.33594,0.0684 -12.47656,2.59179 -0.33789,0.0703 -0.33398,0.0742 -12.4375,2.76171 -0.33594,0.0742 -0.33594,0.0801 -12.39453,2.93164 -0.33789,0.0801 -0.33399,0.084 -6.6875,1.68165 -8.78906,3.10156 -8.05859,4.68164 -7.05078,6.09375 -5.79688,7.29883 -4.3418,8.24609 -2.73632,8.9082 -1.03516,9.26172 0.70117,9.29492 2.41407,9 4.04296,8.39844 5.5293,7.50195 6.82813,6.34375 7.88476,4.9668 8.67188,3.41797 9.15429,1.74805 9.31836,0.0215 7.62891,-1.30078 6.33594,-1.5918 11.69531,-2.76562 11.77148,-2.61719 11.97657,-2.48437 11.72265,-2.26758 11.89844,-2.13281 11.93555,-1.97266 11.83007,-1.79102 12.00196,-1.65039 11.88476,-1.4707 12.05274,-1.32617 12.06836,-1.16406 12.08984,-0.99805 12.11133,-0.83985 11.98047,-0.66601 12.1289,-0.50977 12.13286,-0.34765 11.9921,-0.18164 12.1407,-0.0215 12.1328,0.14258 11.9883,0.30469 11.9707,0.46289 12.248,0.64062 11.9395,0.78711 12.0742,0.96094 12.0488,1.12305 12.0274,1.28906 11.8632,1.43359 11.9317,1.60743 11.9511,1.77734 12.0098,1.95898 11.8613,2.10157 11.6622,2.23437 3.0234,0.62109 9.2637,1.02149 9.2929,-0.71484 8.9981,-2.42774 8.3906,-4.05469 7.4922,-5.54297 6.334,-6.83593 4.957,-7.89453 3.4043,-8.67579 1.7344,-9.15625 0.01,-9.32031 -1.7246,-9.1582 -3.3925,-8.67969 -4.9473,-7.89844 -6.3242,-6.8457 -7.4864,-5.55078 -8.3867,-4.06641 -7.4355,-2.14257 -3.2949,-0.67774 -0.3418,-0.0703 -0.3418,-0.0664 -12.504,-2.39453 -0.3398,-0.0644 -0.3418,-0.0606 -12.5391,-2.22266 -0.3398,-0.0605 -0.3418,-0.0547 -12.5723,-2.04883 -0.3398,-0.0547 -0.3398,-0.0508 -12.6016,-1.875 -0.3399,-0.0508 -0.3417,-0.0469 -12.629,-1.70117 -0.3378,-0.0469 -0.3418,-0.041 -12.6524,-1.52929 -0.3398,-0.041 -0.3399,-0.0352 -12.6758,-1.35743 -0.3378,-0.0371 -0.3399,-0.0312 -12.6953,-1.18359 -0.3398,-0.0312 -0.3379,-0.0273 -12.7129,-1.01172 -0.3379,-0.0273 -0.3379,-0.0215 -12.7285,-0.83984 -0.3379,-0.0215 -0.3379,-0.0176 -12.7383,-0.66797 -0.3379,-0.0176 -0.3379,-0.0117 -12.75,-0.49414 -0.3359,-0.0137 -0.3379,-0.008 -12.7559,-0.32226 -0.3378,-0.01 -0.336,-0.004 -12.7598,-0.15039 -0.3378,-0.004 z m 503.8946,160.92578 -9.1114,1.96289 -8.5879,3.6211 -7.7656,5.15039 -6.6758,6.5039 -5.3535,7.62891 -3.8437,8.49023 -2.2012,9.05665 -0.4824,9.30664 1.2519,9.23437 2.9453,8.84375 4.5352,8.14063 5.9668,7.16015 5.8926,5.01563 3.0117,2.18359 0.064,0.0469 5.0157,3.70312 0.061,0.0449 4.7031,3.53125 0.082,0.0625 4.4316,3.38477 0.068,0.0527 4.8183,3.74219 4.7813,3.77734 0.088,0.0703 4.5488,3.65625 0.125,0.10156 4.4531,3.64258 4.6914,3.90039 0.1133,0.0937 4.4297,3.74609 4.3965,3.7793 0.094,0.082 4.5899,4.01367 4.5566,4.05274 0.098,0.0879 4.3105,3.90234 4.4922,4.13281 0.1,0.0918 4.2344,3.96289 4.4238,4.21094 4.1563,4.02344 0.1113,0.10937 4.4707,4.4043 0.031,0.0312 3.9786,3.98437 0.084,0.0859 4.2872,4.36914 4.0918,4.23828 0.051,0.0527 4.3301,4.5664 0.096,0.10157 3.9805,4.27148 3.9922,4.35547 0.041,0.0449 4.2168,4.68359 4.0664,4.59571 0.094,0.10547 3.9571,4.55468 0.055,0.0625 3.8535,4.51172 3.9629,4.7207 3.7402,4.53126 0.096,0.11914 3.8887,4.79882 3.8769,4.86719 3.6602,4.67969 0.068,0.0898 3.8809,5.05274 0.084,0.10937 3.6523,4.84571 0.078,0.10351 3.6933,4.99023 0.4531,0.61329 0.4727,0.59765 5.4805,6.94727 5.3535,6.94336 5.1777,6.86523 5.0625,6.86914 5.1153,7.09571 4.9804,7.07226 4.8242,7.00781 4.7149,7.00196 0.064,0.0977 4.8145,7.32227 4.6816,7.28906 4.6074,7.3457 4.4532,7.26758 4.5351,7.58203 4.2989,7.36524 4.3007,7.55078 4.2227,7.59766 4.0703,7.50781 4.0684,7.68945 3.9453,7.66016 2.6328,5.24219 4.9414,7.90429 6.3203,6.84766 7.4824,5.55664 8.3848,4.07031 8.9922,2.44531 9.291,0.73243 9.2656,-1.00391 8.918,-2.70508 8.2617,-4.31445 7.3164,-5.77344 6.1192,-7.0293 4.7089,-8.04296 3.1329,-8.77735 1.4492,-9.20703 -0.2832,-9.31445 -2.0078,-9.10157 -2.9278,-7.16406 -2.7558,-5.48633 -0.1172,-0.23242 -0.1192,-0.23437 -4.2011,-8.15039 -0.1192,-0.23243 -0.123,-0.23242 -4.2852,-8.10547 -0.123,-0.23242 -0.125,-0.23047 -4.3711,-8.06054 -0.125,-0.23047 -0.1289,-0.23047 -4.4551,-8.01563 -0.127,-0.22851 -0.1308,-0.23047 -4.5391,-7.9668 -0.1308,-0.22851 -0.1328,-0.22852 -4.625,-7.91992 -0.1329,-0.22852 -0.1347,-0.22656 -4.709,-7.86914 -0.1348,-0.22852 -0.1386,-0.2246 -4.7911,-7.82032 -0.1386,-0.22656 -0.1407,-0.22461 -4.873,-7.76953 -0.1426,-0.22656 -0.1426,-0.22266 -4.957,-7.7168 -0.1445,-0.2246 -0.1465,-0.22266 -5.0371,-7.66602 -0.1465,-0.22265 -0.1504,-0.22266 -5.1211,-7.60937 -0.1484,-0.22266 -0.1524,-0.2207 -5.2031,-7.55664 -0.1523,-0.22071 -0.1543,-0.21875 -5.2832,-7.50195 -0.1543,-0.21875 -0.1582,-0.21875 -5.3653,-7.44336 -0.1562,-0.2207 -0.1602,-0.2168 -5.4472,-7.38672 -0.1602,-0.2168 -0.1621,-0.21679 -5.5254,-7.32813 -0.1641,-0.21679 -0.166,-0.21485 -5.6054,-7.26758 -0.1661,-0.21679 -0.1699,-0.21289 -5.209,-6.60352 -3.5058,-4.73633 -0.1309,-0.17578 -0.1308,-0.17578 -3.9961,-5.29688 -0.1309,-0.17382 -0.1328,-0.17383 -4.0352,-5.25195 -0.1328,-0.17383 -0.1328,-0.17188 -4.0723,-5.20703 -0.1347,-0.17187 -0.1367,-0.16993 -4.1094,-5.16406 -0.1367,-0.17187 -0.1368,-0.16797 -4.1484,-5.11914 -0.1367,-0.16992 -0.1387,-0.16797 -4.1875,-5.07422 -0.1387,-0.16797 -0.1386,-0.16602 -4.2246,-5.03125 -0.1387,-0.16601 -0.1406,-0.16602 -4.2618,-4.98633 -0.1406,-0.16406 -0.1426,-0.16406 -4.2968,-4.94141 -0.1426,-0.16406 -0.1426,-0.16016 -4.334,-4.89843 -0.1445,-0.16211 -0.1445,-0.16016 -4.3692,-4.85351 -0.1445,-0.16016 -0.1465,-0.16016 -4.4062,-4.80859 -0.1446,-0.1582 -0.1465,-0.15821 -4.4414,-4.76562 -0.1464,-0.15625 -0.1485,-0.15625 -4.4765,-4.72071 -0.1485,-0.15624 -0.1484,-0.1543 -4.5117,-4.67578 -0.1485,-0.1543 -0.1504,-0.15234 -4.5449,-4.63282 -0.1504,-0.15234 -0.1504,-0.15039 -4.58,-4.58984 -0.1524,-0.15039 -0.1504,-0.14844 -4.6152,-4.54492 -0.1504,-0.14844 -0.1543,-0.14844 -4.6465,-4.5 -0.1523,-0.14844 -0.1543,-0.14648 -4.6817,-4.45508 -0.1523,-0.14648 -0.1543,-0.14454 -4.7149,-4.4121 -0.1543,-0.14258 -0.1562,-0.14453 -4.7461,-4.36719 -0.1543,-0.14258 -0.1562,-0.14062 -4.7793,-4.32422 -0.1563,-0.14063 -0.1562,-0.14062 -4.8125,-4.2793 -0.1563,-0.13867 -0.1582,-0.13867 -4.8418,-4.23438 -0.1582,-0.13867 -0.1582,-0.13477 -4.873,-4.1914 -0.1582,-0.13672 -0.1602,-0.13477 -4.9043,-4.14648 -0.1602,-0.13477 -0.1601,-0.13281 -4.9336,-4.10352 -0.1602,-0.13281 -0.1621,-0.13086 -4.9648,-4.05859 -0.1602,-0.13086 -0.1621,-0.13086 -4.9961,-4.01367 -0.1601,-0.13086 -0.1621,-0.12695 -5.0254,-3.97071 -0.1621,-0.1289 -0.1621,-0.125 -5.0547,-3.92774 -0.1621,-0.125 -0.1641,-0.125 -5.084,-3.88281 -0.1621,-0.125 -0.1641,-0.12305 -5.1132,-3.83789 -0.1641,-0.12304 -0.1641,-0.1211 -5.1406,-3.79492 -0.1641,-0.12109 -0.166,-0.11914 -3.3398,-2.42579 -8.0215,-4.74609 -8.7617,-3.17578 -9.1992,-1.49414 z m -1067.28325,24.63282 -9.07227,2.13476 -8.51757,3.7832 -6.43555,4.29688 -0.41992,0.33008 -0.16016,0.12304 -0.15625,0.12696 -4.98242,3.98047 -0.1582,0.12695 -0.15625,0.12695 -4.95313,4.02344 -0.15625,0.12695 -0.15625,0.12891 -4.92187,4.06641 -0.15625,0.1289 -0.15625,0.13086 -4.89063,4.10742 -0.15625,0.13086 -0.15625,0.13282 -4.85937,4.14843 -0.1543,0.13281 -0.1543,0.13282 -4.82812,4.1914 -0.15625,0.13477 -0.15235,0.13477 -4.79687,4.23242 -0.1543,0.13672 -0.15234,0.13671 -4.76563,4.27539 -0.15234,0.13672 -0.15234,0.13868 -4.73243,4.3164 -0.15234,0.13867 -0.15234,0.14063 -4.69922,4.35937 -0.15235,0.14063 -0.15039,0.14062 -4.66601,4.40039 -0.15039,0.14258 -0.15039,0.14453 -4.63282,4.44141 -0.15039,0.14453 -0.14843,0.14453 -4.59961,4.48438 -0.15039,0.14453 -0.14649,0.14844 -4.56641,4.52539 -0.14843,0.14648 -0.14649,0.14844 -4.53125,4.56641 -0.14843,0.15039 -0.14649,0.14843 -4.49609,4.60938 -0.14649,0.15039 -0.14453,0.15234 -4.46289,4.65039 -0.14453,0.15235 -0.14453,0.15234 -4.42578,4.69336 -0.14649,0.1543 -0.14258,0.15429 -4.39062,4.73438 -0.14453,0.1543 -0.14258,0.15625 -4.35351,4.77539 -0.14258,0.1582 -0.14258,0.1582 -4.31641,4.81641 -0.14258,0.1582 -0.14062,0.16016 -4.28125,4.85937 -0.14063,0.16016 -0.14062,0.16016 -4.24414,4.90039 -0.13867,0.16211 -0.13868,0.1621 -4.20703,4.94336 -0.13867,0.16211 -0.13867,0.16407 -4.16797,4.98437 -0.13867,0.16406 -0.13672,0.16602 -4.13086,5.02539 -0.13672,0.16602 -0.13476,0.16796 -4.09375,5.06641 -0.13477,0.16797 -0.13476,0.16797 -4.05469,5.10937 -0.13281,0.16992 -0.13282,0.16993 -4.01562,5.15039 -0.13281,0.16992 -0.13282,0.17187 -3.97656,5.19141 -0.13086,0.17188 -0.13086,0.17382 -3.9375,5.23243 -0.1289,0.17382 -0.12891,0.17383 -3.89844,5.27539 -0.1289,0.17578 -0.12696,0.17383 -3.85742,5.31836 -0.12695,0.17578 -0.12696,0.17578 -3.8164,5.35938 -0.12696,0.17773 -0.125,0.17774 -3.77539,5.40039 -0.125,0.17773 -0.12304,0.17969 -3.73633,5.44141 -0.12305,0.17968 -0.12109,0.18164 -3.69336,5.48243 -0.12305,0.18164 -0.11914,0.18164 -3.65234,5.52539 -0.1211,0.18164 -0.11914,0.18359 -3.60937,5.56641 -0.11914,0.18359 -0.11719,0.1836 -2.67187,4.20117 -2.94336,4.00781 -0.12891,0.17578 -0.12891,0.17774 -3.8789,5.38086 -0.12891,0.17773 -0.125,0.17773 -3.82617,5.4043 -0.12695,0.17969 -0.12305,0.17773 -3.77344,5.42969 -0.12304,0.17969 -0.12305,0.17969 -3.71875,5.45312 -0.12305,0.17969 -0.12109,0.17969 -3.66406,5.47656 -0.1211,0.18164 -0.11914,0.18164 -3.61133,5.49805 -0.11914,0.18164 -0.11719,0.18359 -3.55859,5.52149 -0.11719,0.18164 -0.11523,0.18359 -3.50391,5.54297 -0.11718,0.18359 -0.11329,0.1836 -3.45117,5.5664 -0.11328,0.1836 -0.11328,0.18554 -3.39844,5.58789 -0.11133,0.1836 -0.11132,0.18554 -3.34375,5.60938 -0.11133,0.18555 -0.10938,0.18554 -3.29101,5.63086 -0.10938,0.18555 -0.10742,0.18555 -3.23828,5.65234 -0.10742,0.18555 -0.10547,0.1875 -3.18555,5.67187 -0.10547,0.18555 -0.10351,0.18945 -3.13477,5.69141 -0.10351,0.1875 -0.10157,0.1875 -3.08007,5.71289 -0.10157,0.1875 -0.0996,0.1875 -3.02929,5.73242 -0.0996,0.1875 -0.0996,0.18945 -2.97657,5.75196 -0.0977,0.1875 -0.0957,0.18945 -2.92579,5.76953 -0.0957,0.18945 -0.0937,0.19141 -2.87305,5.78711 -0.0937,0.18945 -0.0937,0.19141 -2.82031,5.80664 -0.0918,0.18945 -0.0918,0.19141 -2.76953,5.82422 -0.0899,0.1914 -0.0879,0.19141 -2.71875,5.8418 -0.0879,0.1914 -0.0879,0.19141 -0.70312,1.54687 -3.05274,8.80469 -1.36328,9.22071 0.36914,9.31054 2.0918,9.08203 3.74219,8.53711 5.25976,7.69336 6.5957,6.58399 7.70508,5.24414 8.54297,3.72461 9.08594,2.07422 9.3125,0.35156 9.2168,-1.38282 8.80078,-3.07031 8.07812,-4.64843 7.07422,-6.06836 5.82422,-7.27344 3.74023,-6.77539 0.60547,-1.33008 2.53516,-5.45117 2.63086,-5.53516 0.0644,-0.13476 2.45117,-5.04493 0.0254,-0.0527 2.76758,-5.57617 2.77149,-5.46485 0.043,-0.084 2.73438,-5.27734 0.0488,-0.0957 2.72461,-5.15234 2.91601,-5.40235 0.0703,-0.13281 2.84375,-5.16015 3.01367,-5.36328 0.0508,-0.0899 2.95898,-5.1582 0.0684,-0.11914 2.94922,-5.04102 3.0293,-5.08398 0.0723,-0.11914 3.20703,-5.27344 3.25586,-5.25 3.31055,-5.23438 0.0527,-0.084 3.30664,-5.12891 0.0176,-0.0273 3.13282,-4.77148 0.0879,-0.13282 3.45898,-5.16797 3.50195,-5.13671 3.55665,-5.11719 0.0586,-0.084 3.44531,-4.86523 3.65625,-5.07227 3.77344,-5.13672 0.99023,-1.34765 0.89649,-1.41016 3.47265,-5.45703 3.40625,-5.25195 0.0625,-0.0957 3.28125,-4.96289 3.33789,-4.95703 0.043,-0.0625 3.58985,-5.23047 3.55664,-5.08593 0.0742,-0.10547 3.50195,-4.91016 0.0645,-0.0918 3.46875,-4.7793 3.67969,-4.97852 3.6875,-4.90429 0.0879,-0.11524 3.55664,-4.64258 3.76953,-4.83203 3.66211,-4.61719 0.0586,-0.0723 3.86328,-4.78516 3.875,-4.71289 4.02539,-4.8125 0.0273,-0.0312 3.93164,-4.61523 3.68555,-4.25586 0.0117,-0.0117 4.24219,-4.81641 0.0273,-0.0312 3.93945,-4.39453 0.0957,-0.10547 4.01171,-4.39648 0.0586,-0.0644 3.98437,-4.29493 4.1836,-4.43359 0.0723,-0.0781 3.87891,-4.04296 0.0371,-0.0371 4.36523,-4.47657 0.0937,-0.0957 4.08008,-4.11133 4.32227,-4.28515 0.10156,-0.0996 4.14062,-4.03321 4.38868,-4.20703 0.10742,-0.10351 4.20703,-3.96485 4.25,-3.94336 0.0898,-0.082 4.61524,-4.20898 0.0273,-0.0254 4.38477,-3.93164 0.0742,-0.0664 4.17969,-3.68945 0.0625,-0.0547 4.45703,-3.86914 0.0234,-0.0195 4.52539,-3.86719 0.10742,-0.0898 4.66407,-3.91602 0.11914,-0.0996 4.4375,-3.66406 4.72656,-3.83984 0.084,-0.0684 4.35157,-3.47657 0.0937,-0.0742 0.32617,-0.25586 6.75781,-6.41797 5.45117,-7.5586 3.95313,-8.43945 2.31836,-9.02734 0.60156,-9.30078 -1.13477,-9.25 -2.83007,-8.88086 -4.42969,-8.19922 -5.875,-7.23438 -7.11524,-6.01953 -8.10937,-4.59375 -8.82031,-3.00976 -9.22461,-1.32032 z m 1422.17775,641.078121 -9.0332,2.296875 -8.4492,3.93164 -7.5723,5.431641 -6.4336,6.744141 -5.0703,7.820312 -3.5313,8.625 -1.8691,9.128906 -0.2402,7.736328 0.3808,8.1855472 0.3125,8.8144532 0.2129,8.6347656 0.1211,8.630859 0.025,8.845703 0.064,0.671876 -0.037,0.855468 0.2149,6.330078 0.1582,6.416016 0,0.0957 0.096,6.105469 0,0.08008 0.043,5.882812 -0.01,6.390626 0,0.06836 -0.064,6.101562 0,0.05273 -0.1114,5.886718 -0.1699,6.166016 -0.2207,6.13086 -0.2754,6.125 -0.3281,6.130859 -0.3809,6.115238 -0.4355,6.09961 -0.01,0.12109 -0.4766,5.97071 -0.01,0.0957 -0.5117,5.78125 -0.5879,6.08984 -0.6406,6.07227 -0.6915,6.04883 -0.7031,5.73047 -0.014,0.10742 -0.8203,6.23828 -0.01,0.0703 -0.8086,5.75196 -0.8965,6.0371 -0.9434,5.98438 -0.019,0.12695 -0.9492,5.70313 -1.0488,6.00195 -1.0918,5.95313 -0.024,0.125 -1.084,5.63867 -1.1992,5.97265 -1.25,5.96094 -0.018,0.0879 -1.2324,5.64258 -1.3476,5.94141 -0.027,0.12109 -1.3164,5.58399 -1.4492,5.92578 -0.033,0.13672 -1.4043,5.55078 -1.5449,5.89648 -0.037,0.14258 -1.4551,5.3789 -0.024,0.0801 -1.6542,5.92774 -0.041,0.14258 -1.6484,5.71875 -0.01,0.0234 -1.6641,5.60157 -0.037,0.125 -1.6816,5.49414 -1.7383,5.52929 -0.025,0.0781 -1.8789,5.80859 -1.8125,5.45899 -0.041,0.11914 -1.9707,5.77929 -0.045,0.12891 -1.9239,5.49023 -0.049,0.13868 -1.9941,5.54492 -0.025,0.0703 -1.9239,5.22656 -0.035,0.0918 -2.1309,5.65233 -2.084,5.40236 -0.037,0.0957 -2.1816,5.52148 -4.5703,11.17579 -4.6582,10.9082 -4.8614,10.90625 -5.0781,10.94141 -5.1562,10.67578 -5.3262,10.61523 -5.5156,10.59375 -2.9102,5.38672 -3.6445,8.57813 -1.9903,9.10351 -0.2656,9.31641 1.4668,9.20312 3.1504,8.77149 4.7246,8.03515 6.1309,7.01758 7.3281,5.75781 8.2695,4.29883 8.9239,2.6875 9.2675,0.98633 9.2891,-0.75 8.9902,-2.46289 8.375,-4.08789 7.4707,-5.57031 6.3086,-6.86133 4.1934,-6.50392 3.0703,-5.68164 0.1777,-0.33203 0.1739,-0.33202 5.8633,-11.25977 0.1757,-0.33398 0.168,-0.33789 5.6934,-11.34767 0.1718,-0.33983 0.1641,-0.3418 5.5215,-11.43359 0.166,-0.34375 0.1621,-0.34766 5.3457,-11.51758 0.1621,-0.34961 0.1563,-0.35156 5.1699,-11.60156 0.1562,-0.35352 0.1524,-0.35548 4.9902,-11.68358 0.1543,-0.35938 0.1465,-0.35937 4.8105,-11.76367 0.1094,-0.2715 0.1094,-0.27343 2.3359,-5.91211 0.072,-0.18164 0.07,-0.1836 2.291,-5.93164 0.07,-0.18359 0.07,-0.18555 2.2441,-5.94922 0.068,-0.18554 0.068,-0.18555 2.1992,-5.96875 0.068,-0.1875 0.066,-0.18554 2.1504,-5.98828 0.068,-0.1875 0.064,-0.1875 2.1035,-6.00781 0.066,-0.1875 0.064,-0.18946 2.0566,-6.02539 0.064,-0.18946 0.062,-0.18945 2.0097,-6.04492 0.062,-0.18946 0.062,-0.1914 1.961,-6.0625 0.062,-0.19141 0.061,-0.19141 1.9121,-6.08203 0.061,-0.1914 0.059,-0.19335 1.8652,-6.09767 0.059,-0.19335 0.059,-0.19532 1.8164,-6.11523 0.057,-0.19531 0.057,-0.19336 1.7676,-6.13476 0.057,-0.19532 0.055,-0.19531 1.7168,-6.15039 0.055,-0.19726 0.055,-0.19727 1.6679,-6.16797 0.053,-0.19726 0.053,-0.19727 1.6191,-6.18555 0.051,-0.19726 0.051,-0.19922 1.5703,-6.20117 0.049,-0.19922 0.049,-0.19922 1.5195,-6.21875 0.049,-0.19922 0.047,-0.20117 1.4688,-6.23438 0.049,-0.20117 0.045,-0.20117 1.418,-6.25 0.047,-0.20312 0.043,-0.20313 1.3672,-6.26562 0.045,-0.20313 0.043,-0.20312 1.3144,-6.28125 0.043,-0.20508 0.041,-0.20313 1.2657,-6.29883 0.041,-0.20312 0.039,-0.20508 1.2129,-6.31445 0.039,-0.20508 0.037,-0.20508 1.1602,-6.32812 0.039,-0.20703 0.035,-0.20704 1.1093,-6.34179 0.035,-0.20703 0.035,-0.20899 1.0566,-6.35742 0.033,-0.20703 0.033,-0.20899 1.0039,-6.37109 0.033,-0.20898 0.031,-0.20899 0.9492,-6.38672 0.031,-0.21093 0.029,-0.20899 0.8965,-6.40039 0.029,-0.21094 0.029,-0.21093 0.8418,-6.41407 0.027,-0.21093 0.027,-0.21094 0.7891,-6.42774 0.025,-0.21289 0.025,-0.21093 0.7344,-6.44336 0.025,-0.21094 0.021,-0.21289 0.6816,-6.45508 0.022,-0.21289 0.021,-0.21289 0.627,-6.46875 0.019,-0.21485 0.02,-0.21289 0.5723,-6.48242 0.018,-0.21289 0.017,-0.21484 0.5176,-6.49414 0.016,-0.21485 0.016,-0.21484 0.4609,-6.50781 0.016,-0.21485 0.014,-0.21484 0.4062,-6.51953 0.014,-0.2168 0.012,-0.21484 0.3496,-6.53321 0.012,-0.214844 0.01,-0.216797 0.293,-6.542968 0.01,-0.216797 0.01,-0.216797 0.2383,-6.556641 0.01,-0.216797 0.01,-0.216796 0.1797,-6.56836 0.01,-0.216797 0,-0.216797 0.125,-6.580078 0,-0.216797 0,-0.21875 0.066,-6.589843 0,-0.21875 0,-0.216797 0.01,-6.601563 0,-0.21875 0,-0.21875 -0.049,-6.611328 0,-0.21875 0,-0.21875 -0.1074,-6.623047 0,-0.21875 0,-0.21875 -0.166,-6.634765 0,-0.21875 -0.01,-0.21875 -0.1973,-5.898438 -0.025,-8.396484 0,-0.273438 0,-0.271484 -0.127,-9.1777345 0,-0.2695313 -0.01,-0.2714843 -0.2285,-9.17382815 -0.01,-0.27148437 -0.01,-0.26953126 -0.3261,-9.16992212 -0.01,-0.269531 -0.012,-0.269531 -0.3985,-8.580078 -1.2988,-9.228516 -2.9863,-8.828125 -4.5762,-8.119141 -6,-7.130859 -7.2207,-5.890625 -8.1894,-4.451172 -8.8731,-2.851562 -9.248,-1.158204 z m -1746.92775,38.1875 -9.10547,1.986328 -8.57812,3.640625 -7.75586,5.169922 -6.66016,6.519531 -5.33398,7.6406249 -3.82422,8.5 -2.17969,9.0605471 -0.505859,7.722656 0.07813,6.392578 0.0039,0.357422 0.0098,0.357422 0.335937,12.707031 0.0098,0.355469 0.01367,0.355469 0.517582,12.705078 0.0137,0.353515 0.0195,0.353516 0.69727,12.699219 0.0195,0.351562 0.0234,0.351563 0.87695,12.691406 0.0234,0.349609 0.0293,0.351563 1.05468,12.679687 0.0293,0.34961 0.0332,0.347656 1.23243,12.66797 0.0352,0.3457 0.0371,0.3457 1.41016,12.6543 0.0371,0.34375 0.043,0.34375 1.58593,12.63672 0.043,0.3418 0.0469,0.34375 1.75976,12.61523 0.0488,0.33985 0.0508,0.34179 1.93359,12.5918 0.0527,0.33984 0.0566,0.33789 2.10742,12.56836 0.0566,0.33789 0.0605,0.33594 2.28125,12.54102 0.0606,0.33593 0.0644,0.33594 2.45117,12.50977 0.0664,0.33398 0.0703,0.33399 2.62109,12.47851 0.0703,0.33203 0.0742,0.33203 2.79101,12.44336 0.0742,0.33204 0.0801,0.33007 2.96093,12.40625 0.0781,0.33008 0.082,0.32813 3.12891,12.36718 0.084,0.32618 0.0879,0.32812 3.29492,12.32422 0.0879,0.32617 0.0918,0.32617 3.46289,12.2793 0.0918,0.32617 0.0957,0.32227 3.62891,12.23437 0.0957,0.32227 0.0996,0.32226 3.79297,12.18555 0.0996,0.32031 0.10547,0.32032 3.95703,12.13281 0.10352,0.32031 0.10937,0.31836 4.12109,12.08008 0.10743,0.31836 0.11328,0.3164 4.2832,12.02344 0.11133,0.31641 0.11719,0.31445 4.44531,11.96484 0.11719,0.31446 0.12109,0.31445 4.60547,11.90234 0.12109,0.31446 0.125,0.3125 4.76367,11.83789 0.12696,0.3125 0.1289,0.31055 4.92383,11.77343 0.13086,0.31055 0.13477,0.31055 5.08007,11.70312 0.13477,0.30859 0.13867,0.3086 5.23828,11.63281 0.13868,0.30859 0.14257,0.30665 5.39453,11.55859 0.14454,0.30664 0.14648,0.30664 5.55078,11.48242 0.14844,0.30469 0.15234,0.30469 1.79102,3.58203 4.92773,7.91211 6.31055,6.85742 7.47461,5.56836 8.37695,4.08398 8.99024,2.45899 9.28906,0.74805 9.26758,-0.99024 8.92187,-2.69141 8.26758,-4.30078 7.32617,-5.76172 6.13086,-7.01953 4.71875,-8.03711 3.14844,-8.77148 1.46289,-9.20508 -0.26953,-9.31641 -1.99219,-9.10351 -2.91602,-7.16797 -1.61132,-3.2207 -5.29297,-10.94727 -5.06641,-10.85742 -5.00195,-11.10742 -4.7793,-11.00391 -4.68164,-11.1914 -4.5,-11.18555 -4.38281,-11.32617 -4.19922,-11.30469 -4.04688,-11.36328 -3.9082,-11.45313 -3.75195,-11.5039 -3.61133,-11.60157 -3.41602,-11.51562 -3.26953,-11.5918 -3.14843,-11.76758 -2.95118,-11.66601 -2.7832,-11.66602 -2.66406,-11.86523 -2.4961,-11.88867 -2.30273,-11.75196 -2.16992,-11.93554 -1.98633,-11.83789 -1.83398,-11.94727 -1.65235,-11.84375 -1.5039,-11.98828 -1.33399,-11.994141 -1.16797,-11.998047 -0.99609,-11.986328 -0.82813,-11.998047 -0.6582,-11.992188 -0.48633,-11.988281 -0.3164,-11.972656 -0.0742,-6.025391 -0.98047,-9.267578 -2.68359,-8.923828 -4.29493,-8.2734375 -5.7539,-7.3300785 -7.01563,-6.136718 -8.03125,-4.726563 -8.76953,-3.154297 -9.20312,-1.472656 z M 1564.752,655.8418 l -9.0352,2.27929 -8.457,3.91797 -6.3672,4.40039 -0.8516,0.69141 -9.4355,7.45508 -9.5567,7.34375 -9.7285,7.26758 -9.8223,7.13671 -9.8222,6.93555 -9.9453,6.82227 -10,6.66797 -10.1856,6.59179 -10.2656,6.45117 -10.3516,6.3086 -10.3242,6.10156 -10.5097,6.02149 -10.5215,5.84179 -10.6543,5.72461 -10.67,5.54883 -10.8984,5.47656 -10.7402,5.21485 -10.9121,5.11523 -11.0235,4.98047 -10.9765,4.7793 -11.1309,4.6621 -11.25,4.5293 -11.0605,4.27149 -11.3926,4.21875 -11.2676,3.99218 -11.3105,3.82618 -11.4727,3.69921 -11.4258,3.50391 -11.5371,3.35938 -11.5684,3.18359 -11.6367,3.02148 -11.5039,2.8086 -8.7734,2.00586 -8.8516,2.91406 -8.1582,4.50586 -7.1797,5.94336 -5.9531,7.17187 -4.5176,8.15039 -2.9258,8.84961 -1.2343,9.23633 0.5019,9.30664 2.2207,9.05274 3.8633,8.48047 5.3692,7.61914 6.6894,6.48828 7.7774,5.13476 8.5937,3.60352 9.1152,1.94531 9.3184,0.21875 7.6543,-1.13672 9.0996,-2.08008 0.3594,-0.082 0.3574,-0.0859 12.3359,-3.01172 0.3575,-0.0879 0.3535,-0.0918 12.2929,-3.19336 0.3516,-0.0898 0.3516,-0.0977 12.2461,-3.37109 0.3496,-0.0977 0.3476,-0.0996 12.1992,-3.55078 0.3457,-0.10156 0.3458,-0.10547 12.1484,-3.72461 0.3418,-0.10547 0.3418,-0.11133 12.0976,-3.90039 0.3399,-0.10937 0.3379,-0.11524 12.041,-4.07422 0.3379,-0.11328 0.334,-0.11914 11.9863,-4.24414 0.334,-0.11914 0.3301,-0.12305 11.9277,-4.41601 0.3301,-0.1211 0.33,-0.12695 11.8672,-4.58594 0.3262,-0.12695 0.3262,-0.13086 11.8047,-4.75195 0.3222,-0.12891 0.3223,-0.13477 11.7402,-4.91796 0.3223,-0.13477 0.3184,-0.13867 11.6738,-5.08203 0.3164,-0.13867 0.3164,-0.14258 11.6055,-5.24414 0.3144,-0.14258 0.3125,-0.14649 11.5352,-5.40625 0.3105,-0.14453 0.3106,-0.15039 11.4609,-5.5664 0.3086,-0.14844 0.3066,-0.1543 11.3868,-5.72461 0.3046,-0.15234 0.3047,-0.1582 11.3086,-5.87891 0.3028,-0.1582 0.3007,-0.16211 11.2305,-6.03321 0.2988,-0.16211 0.2989,-0.16406 11.1484,-6.18945 0.2969,-0.16406 0.2949,-0.16993 11.0664,-6.33984 0.293,-0.16797 0.2929,-0.17187 10.9805,-6.49024 0.291,-0.17383 0.2891,-0.17578 10.8926,-6.63867 0.289,-0.17578 0.2852,-0.17969 10.8047,-6.78711 0.2851,-0.17968 0.2832,-0.1836 10.7129,-6.93164 0.2813,-0.18359 0.2812,-0.1875 10.6192,-7.07617 0.2793,-0.1875 0.2773,-0.18946 10.5234,-7.2207 0.2774,-0.19141 0.2754,-0.19336 10.4238,-7.36132 0.2754,-0.19336 0.2734,-0.19727 10.3243,-7.50195 0.2714,-0.19727 0.2696,-0.20117 10.2246,-7.64062 0.2695,-0.20118 0.2656,-0.20508 10.1192,-7.77539 0.2676,-0.20507 0.2636,-0.20899 10.0137,-7.91015 0.2637,-0.20899 0.2617,-0.21289 1.0723,-0.86914 6.6543,-6.52539 5.3281,-7.64649 3.8183,-8.50195 2.1719,-9.0625 0.4551,-9.30859 -1.2832,-9.23047 -2.9727,-8.83399 -4.5605,-8.12695 -5.9903,-7.14062 -7.2109,-5.9043 -8.1816,-4.46484 -8.8672,-2.86719 -9.2461,-1.17188 z m -1108.44731,3.15234 -8.83789,2.95703 -8.13477,4.54883 -7.14844,5.97852 -5.91601,7.20117 -4.47656,8.17383 -2.88282,8.86328 -1.1875,9.24414 0.54883,9.30273 2.26758,9.04102 3.9043,8.46289 5.40625,7.58984 5.49609,5.44922 2.68945,2.28125 0.29688,0.25195 0.30078,0.2461 9.81836,8.07226 0.30273,0.24805 0.30469,0.24414 9.94727,7.91797 0.23242,0.18555 0.23242,0.17968 5.02148,3.90235 0.15625,0.12109 0.15625,0.12109 5.05469,3.86329 0.15625,0.11914 0.15821,0.11914 5.08593,3.82422 0.15821,0.11914 0.16015,0.11914 5.11719,3.78515 0.16016,0.11719 0.1621,0.11719 5.14844,3.74609 0.16211,0.11719 0.16211,0.11719 5.18164,3.70508 0.16211,0.11718 0.16406,0.11524 5.21094,3.66406 0.16602,0.11523 0.16406,0.11524 5.24414,3.625 0.16602,0.11328 0.16601,0.11328 5.27539,3.58399 0.16602,0.11328 0.16797,0.11328 5.30664,3.54101 0.16797,0.11328 0.16992,0.11133 5.33593,3.5 0.16993,0.11133 0.17187,0.11133 5.36719,3.45898 0.17187,0.10938 0.17188,0.10937 5.39844,3.41797 0.17187,0.10938 0.17383,0.10742 5.42969,3.375 0.17383,0.10742 0.17578,0.10742 5.45898,3.33203 0.17578,0.10547 0.17578,0.10743 5.49024,3.2871 0.17773,0.10743 0.17774,0.10351 5.51953,3.2461 0.17773,0.10351 0.17969,0.10352 5.55078,3.20312 0.17969,0.10352 0.17969,0.10156 5.58203,3.1582 0.17969,0.10157 0.18164,0.10156 5.61132,3.11328 0.18164,0.10156 0.1836,0.0996 5.64062,3.06836 0.1836,0.0996 0.18359,0.0977 5.67188,3.02539 0.18359,0.0976 0.18555,0.0977 5.70117,2.97852 0.18554,0.0977 0.1875,0.0957 5.73047,2.9336 0.18555,0.0957 0.18945,0.0937 5.75977,2.88867 0.1875,0.0937 0.18945,0.0937 5.78907,2.8418 0.18945,0.0937 0.1914,0.0918 5.81836,2.79492 0.18946,0.0918 0.1914,0.0898 5.84961,2.74805 0.19141,0.0918 0.19336,0.0879 5.875,2.70118 0.19336,0.0898 0.19531,0.0859 5.9043,2.65625 0.19531,0.0859 0.19531,0.0859 5.9336,2.60742 0.19531,0.0859 0.19726,0.084 5.96289,2.55859 0.19727,0.0859 0.19727,0.082 5.99218,2.51172 0.19727,0.082 0.19922,0.082 6.01953,2.46094 0.19922,0.082 0.19922,0.0801 6.04882,2.41406 0.20118,0.0781 0.19922,0.0781 6.07812,2.36523 0.20117,0.0781 0.20117,0.0762 6.10547,2.31445 0.20117,0.0781 0.20313,0.0742 6.13477,2.26562 0.20117,0.0742 0.20507,0.0742 6.16016,2.21484 0.20508,0.0723 0.20312,0.0723 6.19141,2.16602 0.20313,0.0703 0.20703,0.0703 6.21679,2.11524 0.20508,0.0684 0.20703,0.0684 6.2461,2.06445 0.20507,0.0684 0.20704,0.0664 6.27343,2.01172 0.20703,0.0664 0.20899,0.0645 6.30078,1.96093 0.20703,0.0645 0.20899,0.0644 6.32812,1.9082 0.20899,0.0625 0.20898,0.0625 6.35547,1.85547 0.20898,0.0625 0.21094,0.0586 6.38281,1.80469 0.21094,0.0605 0.21094,0.0566 4.82226,1.31836 4.71094,1.6289 0.20703,0.0703 0.20703,0.0703 6.28321,2.10937 0.20703,0.0703 0.20898,0.0684 6.28906,2.05078 0.20899,0.0684 0.20703,0.0644 6.29688,1.99414 0.20898,0.0644 0.20703,0.0645 6.30469,1.93554 0.20898,0.0645 0.20703,0.0605 6.3125,1.87696 0.20704,0.0625 0.20898,0.0605 6.31641,1.81836 0.20898,0.0606 0.20898,0.0586 6.32227,1.76172 0.20899,0.0586 0.21093,0.0566 6.32813,1.70312 0.20898,0.0566 0.20899,0.0547 6.33398,1.64649 0.20899,0.0547 0.20898,0.0527 6.33984,1.58984 0.20899,0.0527 0.20898,0.0508 6.34375,1.5332 0.21094,0.0508 0.20898,0.0488 0.2168,0.0488 9.23438,1.25586 9.30859,-0.47852 9.05664,-2.19922 8.49023,-3.8418 7.63086,-5.3496 6.50586,-6.67383 5.1543,-7.76563 3.62305,-8.58594 1.96679,-9.10937 0.24219,-9.31641 -1.49023,-9.19922 -3.17383,-8.76367 -4.74414,-8.02343 -6.15039,-7.00196 -7.3418,-5.73828 -8.28125,-4.27734 -7.17969,-2.26953 0.004,-0.0137 -0.20313,-0.0488 -5.99609,-1.44922 -5.92969,-1.48828 -0.13476,-0.0332 -5.49805,-1.42968 -0.0781,-0.0215 -5.83204,-1.56836 -0.0859,-0.0234 -5.81836,-1.61914 -0.0899,-0.0254 -5.94921,-1.71289 -6.0293,-1.79297 -5.61328,-1.72265 -0.12696,-0.041 -5.94336,-1.8789 -5.86328,-1.91211 -5.85937,-1.9668 -6.10938,-2.11133 -1.56054,-0.53906 -1.58985,-0.43555 -6.1875,-1.6914 -6.01172,-1.69922 -5.99218,-1.75196 -0.11524,-0.0332 -5.64453,-1.70312 -5.87891,-1.83008 -5.91406,-1.89649 -5.88672,-1.94531 -5.93554,-2.01953 -0.0274,-0.01 -5.55078,-1.94336 -5.82031,-2.09179 -5.78516,-2.13672 -0.10547,-0.0391 -5.47461,-2.07813 -5.50195,-2.13867 -0.0566,-0.0234 -5.59375,-2.22851 -0.12305,-0.0508 -5.68945,-2.32618 -5.67578,-2.3789 -0.12891,-0.0547 -5.32617,-2.28516 -5.60937,-2.46484 -5.49414,-2.4707 -5.57227,-2.56055 -0.11719,-0.0547 -5.24023,-2.46484 -5.42969,-2.60938 -5.40625,-2.65234 -5.37891,-2.69727 -5.21679,-2.66992 -0.041,-0.0215 -5.51953,-2.88282 -5.07422,-2.70507 -0.13672,-0.0742 -5.13867,-2.79492 -0.0508,-0.0274 -5.4375,-3.01758 -0.12305,-0.0684 -5.01562,-2.83984 -5.03711,-2.9043 -0.084,-0.0488 -5.08398,-2.98633 -0.11133,-0.0664 -5.22851,-3.13281 -4.90821,-2.99414 -0.13281,-0.084 -5.12305,-3.17968 -4.88281,-3.0918 -0.0977,-0.0625 -5.23633,-3.375 -0.0332,-0.0215 -4.91015,-3.22266 -0.0859,-0.0566 -4.82617,-3.22266 -4.75,-3.22656 -0.084,-0.0586 -4.97461,-3.4375 -4.74023,-3.33203 -0.0918,-0.0664 -4.96875,-3.55274 -0.11914,-0.0859 -4.66406,-3.39453 -4.64062,-3.42969 -0.0742,-0.0566 -4.88282,-3.66992 -0.1289,-0.0977 -4.42578,-3.38281 -0.10938,-0.084 -4.73828,-3.68359 -9.31836,-7.41992 -9.33594,-7.67383 -2.30664,-1.95899 -7.63672,-5.33984 -8.49609,-3.83203 -9.06055,-2.1875 -9.30664,-0.4668 z"
       style="color:#000000;font-style:normal;font-variant:normal;font-weight:normal;font-stretch:normal;font-size:medium;line-height:normal;font-family:sans-serif;text-indent:0;text-align:start;text-decoration:none;text-decoration-line:none;text-decoration-style:solid;text-decoration-color:#000000;letter-spacing:normal;word-spacing:normal;text-transform:none;direction:ltr;block-progression:tb;writing-mode:lr-tb;baseline-shift:baseline;text-anchor:start;white-space:normal;clip-rule:nonzero;display:inline;overflow:visible;visibility:visible;opacity:0.98000004;isolation:auto;mix-blend-mode:normal;color-interpolation:sRGB;color-interpolation-filters:linearRGB;solid-color:#000000;solid-opacity:1;fill:#000000;fill-opacity:1;fill-rule:nonzero;stroke:none;stroke-width:50;stroke-linecap:square;stroke-linejoin:miter;stroke-miterlimit:4;stroke-dasharray:none;stroke-dashoffset:0;stroke-opacity:1;color-rendering:auto;image-rendering:auto;shape-rendering:auto;text-rendering:auto;enable-background:accumulate"
       id="rect10567" />
  </g>
</svg>
