<?xml version="1.0" encoding="UTF-8" standalone="no"?>
<svg
   xmlns:dc="http://purl.org/dc/elements/1.1/"
   xmlns:cc="http://creativecommons.org/ns#"
   xmlns:rdf="http://www.w3.org/1999/02/22-rdf-syntax-ns#"
   xmlns:svg="http://www.w3.org/2000/svg"
   xmlns="http://www.w3.org/2000/svg"
   version="1.1"
   id="svg3891"
   height="2048"
   width="2048">
  <defs
     id="defs3893" />
  <metadata
     id="metadata3896">
    <rdf:RDF>
      <cc:Work
         rdf:about="">
        <dc:format>image/svg+xml</dc:format>
        <dc:type
           rdf:resource="http://purl.org/dc/dcmitype/StillImage" />
        <dc:title></dc:title>
      </cc:Work>
    </rdf:RDF>
  </metadata>
  <g
     transform="translate(0,995.63783)"
     id="layer1">
    <g
       id="layer1-4"
       transform="matrix(0.74578486,0,0,0.64639158,-1085.7848,-2914.814)" />
    <path
       id="rect4138-2"
       d="M 1024.0009,-404.76185 C 892.84542,-169.34579 761.68975,66.070168 630.5342,301.48619 c 262.31053,0 524.6211,0 786.9316,0 -131.155,-235.415999 -262.3099,-470.83204 -393.4649,-706.24804 z m 0,102.73437 c 102.791,184.50457 205.5821,369.009099 308.3731,553.51367 -205.582,0 -411.16407,0 -616.7461,0 102.791,-184.504557 205.582,-369.00911 308.373,-553.51367 z m 7.6964,-590.92871 c -90.93865,13.64561 -242.82423,-16.46708 -283.67768,79.96402 35.85593,98.5444 158.94866,3.94704 236.52269,21.08008 82.23179,-7.50462 164.31519,11.62753 245.10979,14.99137 98.9708,-93.01434 -79.3478,-118.44879 -148.1467,-114.46483 -16.5888,-0.88354 -33.1971,-1.38594 -49.8081,-1.57064 z m 512.873,160.68555 c -126.8457,40.1836 23.1906,130.81069 68.3468,179.11034 62.6387,66.65599 113.0776,143.73044 157.1146,223.62206 85.6696,58.20448 106.7843,-72.94158 46.9055,-117.50807 -67.0417,-109.81101 -151.2391,-214.40665 -261.2079,-283.06456 l -11.159,-2.15977 0,0 z m -1067.291,24.46093 c -103.75725,41.22381 -168.35519,147.48603 -232.06207,235.10769 -44.78797,47.06936 -128.01601,211.40977 0.26229,185.83063 65.0247,-85.01255 108.19666,-191.36633 189.08455,-267.08225 38.44064,-40.54262 158.00493,-116.4976 42.71523,-153.85607 z M 1899.4512,-66.8976 c -96.005,25.13915 -27.0626,154.364546 -57.315,225.43052 -13.3238,89.81831 -43.234,176.99915 -86.6245,256.70225 -13.3287,96.03522 115.2538,67.45559 116.7989,-11.48251 63.1579,-135.53469 89.0107,-288.44823 72.5667,-437.15031 -6.1435,-19.275862 -25.4231,-32.857754 -45.4261,-33.49995 z M 152.53516,-28.38978 C 55.487027,-6.0513773 115.95805,125.98191 117.39,195.9811 138.87398,289.92147 163.24024,389.86723 220.94405,467.80232 358.83918,486.41203 254.04803,332.45812 237.89471,265.6705 212.94032,183.38851 199.49826,97.608145 198.28711,11.62777 194.13335,-9.9106902 174.43546,-27.141089 152.53516,-28.38978 Z M 1574.0547,655.27817 c -101.5841,50.03384 -191.1859,131.10614 -305.297,159.97475 -67.2305,-0.89537 -177.9218,73.58994 -77.0303,121.6642 154.0202,-25.83074 298.8451,-100.26375 418.8664,-199.37915 27.3219,-29.26443 3.4979,-82.91465 -36.5391,-82.2598 z m -1108.51564,2.4473 c -115.98292,45.47053 24.1003,139.17176 82.7876,168.61758 93.08848,52.32674 195.5721,94.69579 301.4331,108.61231 C 952.22156,888.46359 836.57789,813.74197 771.22387,814.97375 669.94189,783.90127 574.25171,734.20325 493.52936,665.30161 l -13.14656,-6.00374 -14.84374,-1.5724 0,0 z"
       style="color:#000000;font-style:normal;font-variant:normal;font-weight:normal;font-stretch:normal;font-size:medium;line-height:normal;font-family:sans-serif;text-indent:0;text-align:start;text-decoration:none;text-decoration-line:none;text-decoration-style:solid;text-decoration-color:#000000;letter-spacing:normal;word-spacing:normal;text-transform:none;direction:ltr;block-progression:tb;writing-mode:lr-tb;baseline-shift:baseline;text-anchor:start;white-space:normal;clip-rule:nonzero;display:inline;overflow:visible;visibility:visible;opacity:1;isolation:auto;mix-blend-mode:normal;color-interpolation:sRGB;color-interpolation-filters:linearRGB;solid-color:#000000;solid-opacity:1;fill:#000000;fill-opacity:1;fill-rule:nonzero;stroke:none;stroke-width:49.99999619;stroke-linecap:round;stroke-linejoin:miter;stroke-miterlimit:4;stroke-dasharray:none;stroke-dashoffset:200;stroke-opacity:1;color-rendering:auto;image-rendering:auto;shape-rendering:auto;text-rendering:auto;enable-background:accumulate" />
  </g>
</svg>
