<?xml version="1.0" encoding="UTF-8" standalone="no"?>
<svg
   xmlns:dc="http://purl.org/dc/elements/1.1/"
   xmlns:cc="http://creativecommons.org/ns#"
   xmlns:rdf="http://www.w3.org/1999/02/22-rdf-syntax-ns#"
   xmlns:svg="http://www.w3.org/2000/svg"
   xmlns="http://www.w3.org/2000/svg"
   width="2048"
   height="2048"
   id="svg3891"
   version="1.1">
  <defs
     id="defs3893" />
  <metadata
     id="metadata3896">
    <rdf:RDF>
      <cc:Work
         rdf:about="">
        <dc:format>image/svg+xml</dc:format>
        <dc:type
           rdf:resource="http://purl.org/dc/dcmitype/StillImage" />
        <dc:title></dc:title>
      </cc:Work>
    </rdf:RDF>
  </metadata>
  <path
     id="path4481"
     d="M 1024,99 C 660.243,94.066359 309.75108,328.17005 171.77443,664.19216 27.655596,994.3445 102.53809,1404.4753 354.63638,1661.963 c 242.46368,260.9919 641.95021,356.7855 976.52052,234.6709 346.7397,-118.0735 602.7227,-458.5932 616.6378,-825.0913 C 1971.1341,711.41193 1759.2592,352.12132 1434.8414,195.24966 1307.8069,131.85562 1165.9493,98.797017 1024,99 Z m 0,100 c 359.2827,-6.24861 700.9839,251.83638 793.7466,598.93035 97.0301,326.90765 -34.2142,705.40425 -315.9068,899.02415 C 1209.2273,1912.0289 775.30015,1896.4688 498.97745,1660.7987 220.5634,1438.8188 120.90394,1028.223 263.74921,702.61685 387.55667,401.60453 698.33781,195.17882 1024,199 Z m 0,415.40039 c -96.78456,269.33118 -158.21489,549.86631 -255,819.19731 88.7945,-88.2724 166.21051,-187.1603 255,-275.4375 85,91.8125 170,183.625 255,275.4375 -86.6176,-272.5605 -168.3825,-546.6368 -255,-819.19731 z m 1.8535,169.49609 c 47.5548,149.64144 92.4451,300.11442 140,449.75582 -46.6667,-50.4069 -93.3333,-100.8138 -140,-151.2207 -39.45607,34.5998 -141.91956,166.9537 -135.34814,138.2206 50.43047,-143.9123 83.79567,-293.21245 135.34814,-436.75572 z"
     style="color:#000000;font-style:normal;font-variant:normal;font-weight:normal;font-stretch:normal;font-size:medium;line-height:normal;font-family:sans-serif;text-indent:0;text-align:start;text-decoration:none;text-decoration-line:none;text-decoration-style:solid;text-decoration-color:#000000;letter-spacing:normal;word-spacing:normal;text-transform:none;direction:ltr;block-progression:tb;writing-mode:lr-tb;baseline-shift:baseline;text-anchor:start;white-space:normal;clip-rule:nonzero;display:inline;overflow:visible;visibility:visible;opacity:1;isolation:auto;mix-blend-mode:normal;color-interpolation:sRGB;color-interpolation-filters:linearRGB;solid-color:#000000;solid-opacity:1;fill:#000000;fill-opacity:1;fill-rule:nonzero;stroke:none;stroke-width:99.99999237;stroke-linecap:butt;stroke-linejoin:miter;stroke-miterlimit:4;stroke-dasharray:none;stroke-dashoffset:0;stroke-opacity:1;color-rendering:auto;image-rendering:auto;shape-rendering:auto;text-rendering:auto;enable-background:accumulate" />
</svg>
