<?xml version="1.0" encoding="UTF-8" standalone="no"?>
<svg
   xmlns:dc="http://purl.org/dc/elements/1.1/"
   xmlns:cc="http://creativecommons.org/ns#"
   xmlns:rdf="http://www.w3.org/1999/02/22-rdf-syntax-ns#"
   xmlns:svg="http://www.w3.org/2000/svg"
   xmlns="http://www.w3.org/2000/svg"
   width="2048"
   height="2048"
   id="svg3891"
   version="1.1">
  <defs
     id="defs3893" />
  <metadata
     id="metadata3896">
    <rdf:RDF>
      <cc:Work
         rdf:about="">
        <dc:format>image/svg+xml</dc:format>
        <dc:type
           rdf:resource="http://purl.org/dc/dcmitype/StillImage" />
        <dc:title></dc:title>
      </cc:Work>
    </rdf:RDF>
  </metadata>
  <path
     id="path4481"
     d="M 1024,99 C 660.243,94.066359 309.75108,328.17005 171.77443,664.19216 27.655596,994.3445 102.53809,1404.4753 354.63638,1661.963 c 242.46368,260.9919 641.95021,356.7855 976.52052,234.6709 346.7397,-118.0735 602.7227,-458.5932 616.6378,-825.0913 C 1971.1341,711.41193 1759.2592,352.12132 1434.8414,195.24966 1307.8069,131.85562 1165.9493,98.797017 1024,99 Z m 0,100 c 359.2827,-6.24861 700.9839,251.83638 793.7466,598.93035 97.0301,326.90765 -34.2142,705.40425 -315.9068,899.02415 C 1209.2273,1912.0289 775.30015,1896.4688 498.97745,1660.7987 220.5634,1438.8188 120.90394,1028.223 263.74921,702.61685 387.55667,401.60453 698.33781,195.17882 1024,199 Z M 604.375,703.95117 c 0,213.36588 0,426.73173 0,640.09763 279.75,0 559.5,0 839.25,0 0,-213.3659 0,-426.73175 0,-640.09763 -279.75,0 -559.5,0 -839.25,0 z m 186.43359,100.00391 c 155.43814,0 310.87631,0 466.31441,0 -82.5961,50.82446 -165.1995,162.39824 -247.7853,174.57168 C 936.49735,920.33284 863.65273,862.14425 790.80859,803.95508 Z m 552.93751,58.87304 c 0,127.07226 0,254.14448 0,381.21678 -213.1641,0 -426.32813,0 -639.49219,0 0,-127.0625 0,-254.12499 0,-381.18748 106.55077,85.15235 213.09674,170.31068 319.65229,255.45708 106.6181,-85.1562 213.2266,-170.32429 319.8399,-255.48638 z"
     style="color:#000000;font-style:normal;font-variant:normal;font-weight:normal;font-stretch:normal;font-size:medium;line-height:normal;font-family:sans-serif;text-indent:0;text-align:start;text-decoration:none;text-decoration-line:none;text-decoration-style:solid;text-decoration-color:#000000;letter-spacing:normal;word-spacing:normal;text-transform:none;direction:ltr;block-progression:tb;writing-mode:lr-tb;baseline-shift:baseline;text-anchor:start;white-space:normal;clip-rule:nonzero;display:inline;overflow:visible;visibility:visible;opacity:1;isolation:auto;mix-blend-mode:normal;color-interpolation:sRGB;color-interpolation-filters:linearRGB;solid-color:#000000;solid-opacity:1;fill:#000000;fill-opacity:1;fill-rule:nonzero;stroke:none;stroke-width:99.99999237;stroke-linecap:butt;stroke-linejoin:miter;stroke-miterlimit:4;stroke-dasharray:none;stroke-dashoffset:0;stroke-opacity:1;color-rendering:auto;image-rendering:auto;shape-rendering:auto;text-rendering:auto;enable-background:accumulate" />
</svg>
