<?xml version="1.0" encoding="UTF-8" standalone="no"?>
<svg
   xmlns:dc="http://purl.org/dc/elements/1.1/"
   xmlns:cc="http://creativecommons.org/ns#"
   xmlns:rdf="http://www.w3.org/1999/02/22-rdf-syntax-ns#"
   xmlns:svg="http://www.w3.org/2000/svg"
   xmlns="http://www.w3.org/2000/svg"
   version="1.1"
   id="svg3891"
   height="2048"
   width="2048">
  <defs
     id="defs3893" />
  <metadata
     id="metadata3896">
    <rdf:RDF>
      <cc:Work
         rdf:about="">
        <dc:format>image/svg+xml</dc:format>
        <dc:type
           rdf:resource="http://purl.org/dc/dcmitype/StillImage" />
        <dc:title></dc:title>
      </cc:Work>
    </rdf:RDF>
  </metadata>
  <g
     transform="translate(0,995.63783)"
     id="layer1">
    <g
       id="layer1-4"
       transform="matrix(0.74578486,0,0,0.64639158,-1085.7848,-2914.814)" />
    <path
       id="path4140"
       d="m 1464.9807,-110.55798 c -146.9931,-106.70877 -293.9863,-213.41753 -440.9794,-320.1263 -146.9948,106.70766 -293.98785,213.41772 -440.98198,320.1263 56.14639,172.655533 112.29277,345.31107 168.43916,517.9666 181.69434,0 363.38872,0 545.08302,0 56.1464,-172.65553 112.2928,-345.311067 168.4392,-517.9666 z m -58.8045,19.089298 c -48.659,149.634834 -97.3181,299.269672 -145.9771,448.904502 -157.4661,0 -314.93215,0 -472.39822,0 C 739.14186,207.80099 690.48284,58.166152 641.82382,-91.468682 769.21545,-183.94831 896.60707,-276.42795 1023.9987,-368.90758 c 127.3925,92.47963 254.785,184.95927 382.1775,277.438898 z M 1031.6973,-892.95619 c -87.35155,0.91589 -176.77847,8.0251 -259.87102,35.53297 -49.43048,25.54551 -15.43566,107.68228 37.65419,91.26862 131.06284,-33.53953 269.32463,-34.46012 401.74613,-8.33204 54.0501,3.67947 70.0048,-80.47132 18.3518,-96.82227 -64.663,-15.09525 -131.5524,-20.90806 -197.8811,-21.64728 z m 512.873,160.68555 c -53.8944,-5.77275 -73.0463,74.60318 -24.5956,96.33593 107.7969,78.95383 186.4082,190.8384 250.0581,306.39617 35.6856,42.69131 108.461,-8.35658 80.8941,-56.60545 -68.5002,-131.65223 -162.5093,-253.63937 -284.852,-339.36097 -6.3748,-4.21476 -14.0437,-5.81346 -21.5046,-6.76568 z m -1067.291,24.46093 c -42.47619,4.49848 -69.21282,44.07133 -100.38477,69.78321 -73.0403,72.29117 -131.01446,158.56038 -181.29282,247.73986 -17.8857,30.88351 -41.02115,76.99791 -1.74671,102.28202 35.58778,24.98372 74.17609,-7.64084 83.70473,-42.96271 46.03573,-85.32898 100.99032,-167.22713 169.73328,-236.03956 24.93035,-31.71451 74.76829,-47.55581 77.52523,-92.29484 -0.48464,-25.44464 -22.11339,-47.50924 -47.53894,-48.50798 z M 1899.4512,-66.8976 c -44.6294,-1.947762 -58.1177,47.389427 -50.5247,83.133306 7.5323,138.554124 -27.2619,277.495084 -93.4148,398.999464 -19.0854,50.70513 56.9116,90.20366 87.4395,45.4454 84.3148,-148.55244 120.7264,-324.56943 101.9251,-494.078217 -6.2047,-19.318175 -25.323,-32.805812 -45.4251,-33.499953 z M 152.53516,-28.38978 C 107.76114,-31.828309 92.816418,17.008337 100.15029,53.035241 106.94224,192.409 142.52275,331.26615 207.6326,454.83097 c 30.54992,44.74309 106.52818,5.21788 87.42383,-45.4805 C 233.48787,286.13891 200.23267,149.3281 198.28692,11.62777 193.95954,-10.088855 174.64176,-26.991659 152.53516,-28.38978 Z M 1574.0547,655.27817 c -44.1172,5.71845 -71.9621,48.30948 -111.0623,67.1374 -87.589,57.96946 -187.3021,94.41773 -288.0323,121.01343 -49.9703,24.47906 -17.7384,107.32814 35.6903,92.05427 146.2071,-33.43411 285.1983,-101.30244 399.9434,-197.9453 27.0868,-30.16457 4.0268,-82.11953 -36.5391,-82.2598 z m -1108.51564,2.4473 c -48.93163,0.0742 -64.84152,71.02995 -22.88827,94.16634 96.31845,81.07058 212.18904,135.84128 333.24374,168.50556 35.78757,10.28147 85.75469,32.64437 109.54297,-10.2344 20.5017,-36.36285 -13.10702,-75.04076 -50.36512,-76.7696 C 721.00457,803.60243 608.7589,759.07932 516.92892,683.36234 501.88278,671.04477 486.70597,656.06238 465.53906,657.72547 Z"
       style="color:#000000;font-style:normal;font-variant:normal;font-weight:normal;font-stretch:normal;font-size:medium;line-height:normal;font-family:sans-serif;text-indent:0;text-align:start;text-decoration:none;text-decoration-line:none;text-decoration-style:solid;text-decoration-color:#000000;letter-spacing:normal;word-spacing:normal;text-transform:none;direction:ltr;block-progression:tb;writing-mode:lr-tb;baseline-shift:baseline;text-anchor:start;white-space:normal;clip-rule:nonzero;display:inline;overflow:visible;visibility:visible;opacity:1;isolation:auto;mix-blend-mode:normal;color-interpolation:sRGB;color-interpolation-filters:linearRGB;solid-color:#000000;solid-opacity:1;fill:#000000;fill-opacity:1;fill-rule:nonzero;stroke:none;stroke-width:36.98733139;stroke-linecap:round;stroke-linejoin:miter;stroke-miterlimit:4;stroke-dasharray:none;stroke-dashoffset:0;stroke-opacity:1;color-rendering:auto;image-rendering:auto;shape-rendering:auto;text-rendering:auto;enable-background:accumulate" />
  </g>
</svg>
