<?xml version="1.0" encoding="UTF-8" standalone="no"?>
<svg
   xmlns:dc="http://purl.org/dc/elements/1.1/"
   xmlns:cc="http://creativecommons.org/ns#"
   xmlns:rdf="http://www.w3.org/1999/02/22-rdf-syntax-ns#"
   xmlns:svg="http://www.w3.org/2000/svg"
   xmlns="http://www.w3.org/2000/svg"
   version="1.1"
   id="svg2"
   viewBox="0 0 2000 2000"
   height="2000"
   width="2000">
  <defs
     id="defs4" />
  <metadata
     id="metadata7">
    <rdf:RDF>
      <cc:Work
         rdf:about="">
        <dc:format>image/svg+xml</dc:format>
        <dc:type
           rdf:resource="http://purl.org/dc/dcmitype/StillImage" />
        <dc:title></dc:title>
        <cc:license
           rdf:resource="https://github.com/bpmn-io/bpmn-font/blob/master/LICENSE" />
        <dc:creator>
          <cc:Agent>
            <dc:title>Jörg Dotzki</dc:title>
          </cc:Agent>
        </dc:creator>
        <dc:subject>
          <rdf:Bag>
            <rdf:li>BPMN</rdf:li>
            <rdf:li>bpmn-io</rdf:li>
            <rdf:li>bpmn.io</rdf:li>
            <rdf:li>Font</rdf:li>
          </rdf:Bag>
        </dc:subject>
      </cc:Work>
    </rdf:RDF>
  </metadata>
  <g
     transform="translate(0,947.63784)"
     id="layer1">
    <path
       id="path4136"
       d="m 1000.0449,-608.55273 c -157.81266,0 -315.36613,13.01049 -438.7617,39.92187 -61.69778,13.45569 -114.83321,30.18084 -156.49023,52.13281 -40.12412,21.14419 -72.77527,48.41535 -82.84375,87.82617 -0.69331,2.05845 -1.19351,4.17696 -1.49414,6.32813 l -1.08594,5.26953 0.73633,3.57031 c -0.51535,315.041281 0,614.82949 0,938.8711 l 0.7207,3.49609 c 8.633,41.89172 42.30977,70.4074 83.9668,92.35938 41.65702,21.95198 94.79245,38.67516 156.49023,52.13086 123.39557,26.91138 280.94904,39.92382 438.7617,39.92382 157.8127,0 315.3662,-13.01244 438.7617,-39.92382 61.6978,-13.4557 114.8333,-30.17888 156.4903,-52.13086 41.657,-21.95198 75.3357,-50.46766 83.9687,-92.35938 l 0.7188,-3.49609 c -0,-309.85815 0.01,-647.33319 0,-940.84766 0.096,-1.4965 0.096,-2.99764 0,-4.49414 l 0,-0.66797 -0.1192,-0.57422 c -0.3037,-2.86398 -0.9597,-5.67953 -1.9531,-8.38281 -10.3403,-38.91405 -42.8049,-65.9196 -82.6152,-86.89844 -41.657,-21.95197 -94.7925,-38.67712 -156.4903,-52.13281 -123.3955,-26.91138 -280.949,-39.92187 -438.7617,-39.92187 z m 0,70 c 153.9084,0 308.076,13.06619 423.8457,38.31445 57.8849,12.62413 106.1932,28.50022 138.7715,45.66797 26.0001,13.70124 39.6105,27.31335 45.1797,37.49609 -5.5695,10.18265 -19.1804,23.79528 -45.1797,37.4961 -32.5783,17.16775 -80.8866,33.04188 -138.7715,45.66601 -115.7697,25.24826 -269.9373,38.31641 -423.8457,38.31641 -153.90834,0 -308.07597,-13.06815 -423.84568,-38.31641 -57.88486,-12.62413 -106.19322,-28.49826 -138.77149,-45.66601 -25.99925,-13.70082 -39.61016,-27.31345 -45.17968,-37.4961 5.56919,-10.18274 19.17961,-23.79485 45.17968,-37.49609 32.57827,-17.16775 80.88663,-33.04384 138.77149,-45.66797 115.76971,-25.24826 269.93734,-38.31445 423.84568,-38.31445 z m -609.93943,212.64257 c 4.76495,2.85244 9.66013,5.6105 14.6875,8.25977 41.65702,21.95198 94.79245,38.67517 156.49023,52.13086 123.39557,26.91138 280.94904,39.92383 438.7617,39.92383 157.8127,0 315.3662,-13.01245 438.7617,-39.92383 61.6978,-13.45569 114.8333,-30.17888 156.4903,-52.13086 5.0273,-2.64927 9.9225,-5.40733 14.6875,-8.25977 l 0,82.0625 c -3.4205,10.40901 -16.9417,26.30677 -47.3223,42.31641 -32.5783,17.16775 -80.8866,33.04189 -138.7715,45.66602 -115.7697,25.24825 -269.9373,38.3164 -423.8457,38.3164 -153.90834,0 -308.07597,-13.06815 -423.84568,-38.3164 -57.88486,-12.62413 -106.19322,-28.49827 -138.77149,-45.66602 -30.38057,-16.00964 -43.90182,-31.9074 -47.32226,-42.31641 z m 0,178.04688 c 4.76495,2.85243 9.66013,5.61049 14.6875,8.25976 41.65702,21.95198 94.79245,38.67517 156.49023,52.130864 123.39557,26.911384 280.94904,39.923828 438.7617,39.923828 157.8127,0 315.3662,-13.012444 438.7617,-39.923828 61.6978,-13.455694 114.8333,-30.178884 156.4903,-52.130864 5.0273,-2.64927 9.9225,-5.40733 14.6875,-8.25976 l 0,82.062499 c -3.4205,10.409002 -16.9417,26.306769 -47.3223,42.316406 -32.5783,17.1677511 -80.8866,33.0418872 -138.7715,45.666016 -115.7697,25.248256 -269.9373,38.316406 -423.8457,38.316406 -153.90834,0 -308.07597,-13.06815 -423.84568,-38.316406 C 518.31436,9.5575122 470.006,-6.3166238 437.42773,-23.484375 407.04716,-39.494012 393.52591,-55.391778 390.10547,-65.800781 Z m 0,178.048827 c 4.76494,2.852428 9.66014,5.608546 14.6875,8.257812 41.65702,21.951979 94.79245,38.675168 156.49023,52.13086 123.39557,26.911381 280.94904,39.923831 438.7617,39.923831 157.8127,0 315.3662,-13.01245 438.7617,-39.923831 61.6978,-13.455692 114.8333,-30.178881 156.4903,-52.13086 5.0273,-2.649266 9.9225,-5.405384 14.6875,-8.257812 l 0,486.792973 c -3.4205,10.409 -16.9417,26.30676 -47.3223,42.3164 -32.5783,17.16775 -80.8866,33.04384 -138.7715,45.66797 -115.7697,25.24826 -269.9373,38.31445 -423.8457,38.31445 -153.90834,0 -308.07597,-13.06619 -423.84568,-38.31445 -57.88486,-12.62413 -106.19322,-28.50022 -138.77149,-45.66797 -30.38057,-16.00964 -43.90182,-31.9074 -47.32226,-42.3164 z"
       style="color:#000000;font-style:normal;font-variant:normal;font-weight:normal;font-stretch:normal;font-size:medium;line-height:normal;font-family:sans-serif;text-indent:0;text-align:start;text-decoration:none;text-decoration-line:none;text-decoration-style:solid;text-decoration-color:#000000;letter-spacing:normal;word-spacing:normal;text-transform:none;direction:ltr;block-progression:tb;writing-mode:lr-tb;baseline-shift:baseline;text-anchor:start;white-space:normal;clip-rule:nonzero;display:inline;overflow:visible;visibility:visible;opacity:1;isolation:auto;mix-blend-mode:normal;color-interpolation:sRGB;color-interpolation-filters:linearRGB;solid-color:#000000;solid-opacity:1;fill:#000000;fill-opacity:1;fill-rule:nonzero;stroke:none;stroke-width:70;stroke-linecap:round;stroke-linejoin:miter;stroke-miterlimit:4;stroke-dasharray:none;stroke-dashoffset:0;stroke-opacity:1;color-rendering:auto;image-rendering:auto;shape-rendering:auto;text-rendering:auto;enable-background:accumulate" />
  </g>
</svg>
