<?xml version="1.0" encoding="UTF-8" standalone="no"?>
<svg
   xmlns:dc="http://purl.org/dc/elements/1.1/"
   xmlns:cc="http://creativecommons.org/ns#"
   xmlns:rdf="http://www.w3.org/1999/02/22-rdf-syntax-ns#"
   xmlns:svg="http://www.w3.org/2000/svg"
   xmlns="http://www.w3.org/2000/svg"
   version="1.1"
   id="svg2"
   viewBox="0 0 2000 2000"
   height="2000"
   width="2000">
  <defs
     id="defs4" />
  <metadata
     id="metadata7">
    <rdf:RDF>
      <cc:Work
         rdf:about="">
        <dc:format>image/svg+xml</dc:format>
        <dc:type
           rdf:resource="http://purl.org/dc/dcmitype/StillImage" />
        <dc:title></dc:title>
        <cc:license
           rdf:resource="https://github.com/bpmn-io/bpmn-font/blob/master/LICENSE" />
        <dc:creator>
          <cc:Agent>
            <dc:title>Jörg Dotzki</dc:title>
          </cc:Agent>
        </dc:creator>
        <dc:subject>
          <rdf:Bag>
            <rdf:li>BPMN</rdf:li>
            <rdf:li>bpmn-io</rdf:li>
            <rdf:li>bpmn.io</rdf:li>
            <rdf:li>Font</rdf:li>
          </rdf:Bag>
        </dc:subject>
      </cc:Work>
    </rdf:RDF>
  </metadata>
  <g
     transform="translate(0,947.63784)"
     id="layer1">
    <path
       id="path4136"
       transform="translate(0,-947.63784)"
       d="M 1251.9355 207.89648 C 965.7051 207.89713 679.47459 207.89744 393.24414 207.89844 L 393.24414 1792.1094 L 1606.7559 1792.1094 L 1606.7559 572.25391 C 1488.4824 450.80143 1370.209 329.34896 1251.9355 207.89648 z M 1147.7285 297.89648 L 1147.7285 669.54492 L 1516.7559 669.54492 L 1516.7559 1702.1094 L 483.24414 1702.1094 L 483.24414 297.89844 C 704.73893 297.89779 926.23373 297.89748 1147.7285 297.89648 z M 1237.7285 322.30859 L 1488.2324 579.54492 L 1237.7285 579.54492 L 1237.7285 322.30859 z M 783.16797 364.91406 L 783.16797 411.14453 L 783.16797 550.2168 L 571.13281 550.2168 L 571.13281 709.76367 L 783.16797 709.76367 L 783.16797 895.06836 L 1065.3184 629.99023 L 783.16797 364.91406 z M 823.16797 457.37695 L 1006.9004 629.99023 L 823.16797 802.60352 L 823.16797 669.76367 L 611.13281 669.76367 L 611.13281 590.2168 L 823.16797 590.2168 L 823.16797 457.37695 z "
       style="color:#000000;font-style:normal;font-variant:normal;font-weight:normal;font-stretch:normal;font-size:medium;line-height:normal;font-family:sans-serif;text-indent:0;text-align:start;text-decoration:none;text-decoration-line:none;text-decoration-style:solid;text-decoration-color:#000000;letter-spacing:normal;word-spacing:normal;text-transform:none;direction:ltr;block-progression:tb;writing-mode:lr-tb;baseline-shift:baseline;text-anchor:start;white-space:normal;clip-rule:nonzero;display:inline;overflow:visible;visibility:visible;opacity:1;isolation:auto;mix-blend-mode:normal;color-interpolation:sRGB;color-interpolation-filters:linearRGB;solid-color:#000000;solid-opacity:1;fill:#000000;fill-opacity:1;fill-rule:nonzero;stroke:none;stroke-width:90;stroke-linecap:round;stroke-linejoin:miter;stroke-miterlimit:4;stroke-dasharray:none;stroke-dashoffset:0;stroke-opacity:1;color-rendering:auto;image-rendering:auto;shape-rendering:auto;text-rendering:auto;enable-background:accumulate" />
  </g>
</svg>
