<?xml version="1.0" encoding="UTF-8" standalone="no"?>
<!-- Created with Inkscape (http://www.inkscape.org/) -->

<svg
   xmlns:dc="http://purl.org/dc/elements/1.1/"
   xmlns:cc="http://creativecommons.org/ns#"
   xmlns:rdf="http://www.w3.org/1999/02/22-rdf-syntax-ns#"
   xmlns:svg="http://www.w3.org/2000/svg"
   xmlns="http://www.w3.org/2000/svg"
   xmlns:sodipodi="http://sodipodi.sourceforge.net/DTD/sodipodi-0.dtd"
   xmlns:inkscape="http://www.inkscape.org/namespaces/inkscape"
   width="2000"
   height="2000"
   viewBox="0 0 2000 2000"
   id="svg2"
   version="1.1"
   inkscape:version="0.91 r"
   sodipodi:docname="manual.svg">
  <defs
     id="defs4" />
  <sodipodi:namedview
     id="base"
     pagecolor="#ffffff"
     bordercolor="#666666"
     borderopacity="1.0"
     inkscape:pageopacity="0.0"
     inkscape:pageshadow="2"
     inkscape:zoom="0.22627417"
     inkscape:cx="1600.3098"
     inkscape:cy="1088.0177"
     inkscape:document-units="px"
     inkscape:current-layer="layer1"
     showgrid="true"
     units="px"
     showguides="false"
     inkscape:window-width="1920"
     inkscape:window-height="1028"
     inkscape:window-x="0"
     inkscape:window-y="0"
     inkscape:window-maximized="1">
    <inkscape:grid
       type="xygrid"
       id="grid4008"
       empspacing="100"
       dotted="false"
       color="#3f3fff"
       opacity="0.15686275"
       snapvisiblegridlinesonly="true" />
  </sodipodi:namedview>
  <metadata
     id="metadata7">
    <rdf:RDF>
      <cc:Work
         rdf:about="">
        <dc:format>image/svg+xml</dc:format>
        <dc:type
           rdf:resource="http://purl.org/dc/dcmitype/StillImage" />
        <dc:title></dc:title>
        <cc:license
           rdf:resource="https://github.com/bpmn-io/bpmn-font/blob/master/LICENSE" />
        <dc:creator>
          <cc:Agent>
            <dc:title>Jörg Dotzki</dc:title>
          </cc:Agent>
        </dc:creator>
        <dc:subject>
          <rdf:Bag>
            <rdf:li>BPMN</rdf:li>
            <rdf:li>bpmn-io</rdf:li>
            <rdf:li>bpmn.io</rdf:li>
            <rdf:li>Font</rdf:li>
          </rdf:Bag>
        </dc:subject>
      </cc:Work>
    </rdf:RDF>
  </metadata>
  <g
     inkscape:label="Ebene 1"
     inkscape:groupmode="layer"
     id="layer1"
     transform="translate(0,947.63784)">
    <path
       style="opacity:1;fill:none;fill-opacity:1;stroke:#000000;stroke-width:70;stroke-linecap:round;stroke-miterlimit:4;stroke-dasharray:none;stroke-opacity:1"
       id="path4135"
       d="m 1057.4944,412.36216 514.0738,0 c 51.1303,0 74.4288,-26.14666 83.6678,-71.59605 14.3644,-70.36824 -21.1355,-133.24726 -84.6687,-133.40395 -156.1118,-0.78362 -513.0744,-4e-5 -513.0744,-4e-5 l -27.4929,0 c 0,0 573.1563,0.43093 635.9935,4e-5 62.8374,-0.43094 85.428,-35.99838 85.6178,-96.33637 0.1911,-60.181317 -30.311,-108.585286 -85.428,-108.66362 -187.8149,-0.156714 -570.455,0 -570.455,0 l -65.7283,0 484.6926,0 c 56.1926,-0.156713 85.681,-36.010353 85.4912,-96.89689 -0.3798,-59.63272 -31.1337,-108.10309 -86.1241,-108.10309 -219.7715,-0.39189 -687.56108,3.27142 -701.33223,0 -3.64636,-0.86624 -6.76556,-7.8211 -4.36633,-10.74395 22.53134,-27.4486 129.1545,-127.41505 152.8213,-158.05422 29.6783,-38.16189 32.8423,-91.29067 10.2513,-125.69118 -26.1979,-40.0426 -61.57147,-39.18065 -93.65441,-18.49333 -92.45207,59.86787 -417.6481,285.46933 -489.34433,334.68008 C 331.48298,-141.8382 292.50249,-82.753973 269.34203,-9.3296717 245.9284,65.113256 248.33165,151.80598 248.58476,227.73787 c 0.2529,56.26326 1.52129,101.76557 15.31633,158.0288 39.80312,163.53949 144.91007,216.12527 298.93359,216.59549 292.22705,1.09701 584.58072,1.4889 876.87112,0 47.7764,-0.31324 74.1008,-34.56128 74.7968,-91.92156 0.7595,-59.08422 -26.7673,-97.765 -74.8602,-98.07844 -112.5119,-0.78361 -409.6424,0 -409.6424,0 z"
       inkscape:connector-curvature="0"
       sodipodi:nodetypes="cccccczcccccccssccccccccccccc" />
  </g>
</svg>
