<?xml version="1.0" encoding="UTF-8" standalone="no"?>
<!-- Created with Inkscape (http://www.inkscape.org/) -->

<svg
   xmlns:dc="http://purl.org/dc/elements/1.1/"
   xmlns:cc="http://creativecommons.org/ns#"
   xmlns:rdf="http://www.w3.org/1999/02/22-rdf-syntax-ns#"
   xmlns:svg="http://www.w3.org/2000/svg"
   xmlns="http://www.w3.org/2000/svg"
   xmlns:sodipodi="http://sodipodi.sourceforge.net/DTD/sodipodi-0.dtd"
   xmlns:inkscape="http://www.inkscape.org/namespaces/inkscape"
   width="2000"
   height="2000"
   viewBox="0 0 2000 2000"
   id="svg2"
   version="1.1"
   inkscape:version="0.91 r13725"
   sodipodi:docname="service.svg">
  <defs
     id="defs4" />
  <sodipodi:namedview
     id="base"
     pagecolor="#ffffff"
     bordercolor="#666666"
     borderopacity="1.0"
     inkscape:pageopacity="0.0"
     inkscape:pageshadow="2"
     inkscape:zoom="0.4345"
     inkscape:cx="356.06061"
     inkscape:cy="1000"
     inkscape:document-units="px"
     inkscape:current-layer="layer1"
     showgrid="true"
     units="px"
     showguides="false"
     inkscape:window-width="1878"
     inkscape:window-height="1035"
     inkscape:window-x="42"
     inkscape:window-y="0"
     inkscape:window-maximized="0">
    <inkscape:grid
       type="xygrid"
       id="grid4008"
       empspacing="20"
       dotted="false" />
  </sodipodi:namedview>
  <metadata
     id="metadata7">
    <rdf:RDF>
      <cc:Work
         rdf:about="">
        <dc:format>image/svg+xml</dc:format>
        <dc:type
           rdf:resource="http://purl.org/dc/dcmitype/StillImage" />
        <dc:title />
        <cc:license
           rdf:resource="https://github.com/bpmn-io/bpmn-font/blob/master/LICENSE" />
        <dc:creator>
          <cc:Agent>
            <dc:title>Jörg Dotzki</dc:title>
          </cc:Agent>
        </dc:creator>
        <dc:subject>
          <rdf:Bag>
            <rdf:li>BPMN</rdf:li>
            <rdf:li>bpmn-io</rdf:li>
            <rdf:li>bpmn.io</rdf:li>
            <rdf:li>Font</rdf:li>
          </rdf:Bag>
        </dc:subject>
      </cc:Work>
    </rdf:RDF>
  </metadata>
  <g
     inkscape:label="Ebene 1"
     inkscape:groupmode="layer"
     id="layer1"
     transform="translate(0,947.63784)">
    <g
       id="g4137"
       transform="matrix(1.1161206,0,0,1.1161228,91.593841,25.188891)">
      <path
         inkscape:connector-curvature="0"
         id="path4170"
         d="m 631.70755,-501.42305 0.23839,92.57212 c -20.11879,4.17679 -40.11362,10.20449 -59.70082,18.37307 -19.58721,8.19299 -37.82544,18.21158 -54.79565,29.53546 l -66.52994,-65.7291 -89.10391,89.61886 66.44862,65.64215 c -22.89949,34.77798 -38.84784,73.65841 -46.9036,114.47059 l -94.33722,0.17109 0,126.084528 95.11409,-0.342162 c 4.1704,19.906162 10.22353,39.8647654 18.44284,59.289678 8.26009,19.549195 18.27866,37.703479 29.72841,54.516212 l -68.20708,67.941934 90.08551,88.53626 68.04441,-67.72877 c 0.90403,0.59272 1.82197,1.16123 2.73165,1.74447 l 0,-97.40168 72.24565,-0.131821 C 559.35477,54.733741 529.74931,22.527111 512.42649,-18.419698 469.65333,-119.6166 517.579,-236.69448 619.35903,-279.24382 c 92.33649,-38.61134 197.81514,-2.7578 248.46785,79.83914 l -0.17949,-69.3779 99.54252,0 c -1.1743,-1.80908 -2.35536,-3.61271 -3.56181,-5.39328 l 64.3228,-64.48664 -90.04348,-88.69613 -64.24142,64.46139 c -34.92174,-22.76121 -74.09648,-38.64211 -115.02935,-46.67449 l 0.53007,-91.85133 -127.45917,0 z m 363.09331,285.38699 -0.22436,39.10482 c 4.71212,0.92468 9.3976,1.96508 14.0593,3.0963 -3.5749,-14.18213 -8.1352,-28.26322 -13.83494,-42.20112 z m 110.02884,55.12481 -54.2179,0.33095 c 18.8624,7.38345 37.0303,16.51394 54.2179,27.29177 l 0,-27.62272 z m -176.6289,98.815216 c -0.55693,0.01149 -1.11429,0.04207 -1.67152,0.05887 0.57844,-0.01738 1.1579,-0.04653 1.73602,-0.05887 -0.0215,4.59e-4 -0.0429,-4.74e-4 -0.0645,0 z m 10.94623,0.07295 c 0.58004,0.01924 1.15934,0.04595 1.73884,0.07007 -0.57962,-0.02427 -1.15869,-0.05098 -1.73884,-0.07007 z m 6.32431,0.314117 c 0.50474,0.03274 1.01021,0.05888 1.51445,0.09535 -0.50428,-0.03647 -1.00966,-0.06261 -1.51445,-0.09535 z m -27.10616,0.07008 c -0.35888,0.02556 -0.71799,0.06218 -1.07695,0.08975 0.35916,-0.02743 0.71785,-0.06419 1.07695,-0.08975 z m 34.5719,0.544087 c 0.33702,0.03446 0.67293,0.07596 1.00965,0.112149 -0.33682,-0.03619 -0.67253,-0.07769 -1.00965,-0.112149 z m 5.97374,0.709568 c 0.55865,0.0741 1.11654,0.14845 1.67433,0.227184 -0.55765,-0.07869 -1.11582,-0.153117 -1.67433,-0.227184 z m 6.77863,1.015271 c 0.28468,0.04767 0.571,0.0886 0.8554,0.137422 -0.28451,-0.04882 -0.57062,-0.08975 -0.8554,-0.137422 z m 6.71975,1.23684 c 0.46104,0.09334 0.91959,0.195206 1.37985,0.291688 -0.46022,-0.0965 -0.91886,-0.198393 -1.37985,-0.291688 z m 6.18127,1.357433 c 0.41526,0.09765 0.83067,0.194243 1.24523,0.294488 -0.41456,-0.10023 -0.82999,-0.196828 -1.24523,-0.294488 z m 12.86736,3.472123 c 0.52941,0.161876 1.05658,0.330243 1.58457,0.496427 -0.52798,-0.166184 -1.05517,-0.334551 -1.58457,-0.496427 z m 5.91483,1.915564 c 0.49876,0.169372 1.00025,0.331593 1.49764,0.504828 -0.4975,-0.173293 -0.99878,-0.335413 -1.49764,-0.504828 z m 7.08154,2.540984 c 0.2194,0.08372 0.4372,0.170765 0.6563,0.255214 -0.2191,-0.08443 -0.437,-0.17154 -0.6563,-0.255214 z m 5.6512,2.260526 c 0.424,0.17648 0.8477,0.353506 1.2705,0.532873 -0.4228,-0.179381 -0.8465,-0.356364 -1.2705,-0.532873 z m 6.1925,2.695236 c 0.2147,0.09793 0.4307,0.193037 0.645,0.291688 -0.2144,-0.09865 -0.4303,-0.193769 -0.645,-0.291688 z m 6.0971,2.902791 c 0.3675,0.182568 0.733,0.370493 1.0994,0.555302 -0.3666,-0.184924 -0.7317,-0.372633 -1.0994,-0.555302 z m 5.5278,2.860702 c 0.3897,0.208775 0.7812,0.414104 1.1695,0.625435 -0.3884,-0.21136 -0.7798,-0.416631 -1.1695,-0.625435 z M 734.14437,113.66393 c -0.01,0.0831 -0.0181,0.16647 -0.028,0.24961 0.0101,-0.0831 0.0181,-0.16654 0.028,-0.24961 z m -0.70394,6.88815 c -0.0129,0.15626 -0.0291,0.31205 -0.0421,0.46837 0.0129,-0.15635 0.0289,-0.31208 0.0421,-0.46837 z m -0.69554,14.35124 c -0.001,0.15431 -0.007,0.30842 -0.009,0.46277 10e-4,-0.15432 0.007,-0.30849 0.009,-0.46277 z m 0.34497,14.26991 c 0.0149,0.24779 0.029,0.49541 0.0448,0.74323 -0.0159,-0.24767 -0.0299,-0.49558 -0.0448,-0.74323 z m 1.38545,14.25028 c 0.0521,0.38911 0.1054,0.77765 0.15986,1.16673 -0.0546,-0.38892 -0.10769,-0.77778 -0.15986,-1.16673 z m 1.19194,7.78002 c 0.0256,0.1459 0.0554,0.29162 0.0813,0.43751 -0.0258,-0.14582 -0.0559,-0.29167 -0.0813,-0.43751 z m 1.28169,6.59086 c 0.0925,0.43948 0.18487,0.87888 0.28046,1.31817 -0.0956,-0.43948 -0.18788,-0.87849 -0.28046,-1.31817 z m 1.79773,7.80245 c 0.0493,0.19461 0.10439,0.3888 0.15424,0.58336 -0.05,-0.19455 -0.10496,-0.38876 -0.15424,-0.58336 z m 1.79773,6.57124 c 0.13369,0.46032 0.2695,0.9199 0.40666,1.37986 -0.13713,-0.45993 -0.27298,-0.91957 -0.40666,-1.37986 z m -122.46704,9.44595 -39.31443,0.14029 c 13.8164,5.42879 28.00348,9.91812 42.46114,13.4117 -1.14359,-4.51574 -2.20033,-9.03458 -3.14671,-13.55193 z m 127.15347,4.68652 c 0.29763,0.79687 0.59445,1.59437 0.90306,2.38955 -0.30866,-0.7953 -0.60537,-1.59256 -0.90306,-2.38955 z m 1.40508,3.67686 c 0.56131,1.41723 1.13391,2.83208 1.73042,4.2434 -0.59659,-1.41149 -1.16901,-2.82599 -1.73042,-4.2434 z m 4.4761,10.40514 c 0.23262,0.50178 0.46755,1.0015 0.70394,1.50048 -0.23626,-0.49914 -0.47142,-0.99855 -0.70394,-1.50048 z m 6.90765,13.5351 c 0.17582,0.31403 0.35271,0.62678 0.53006,0.93955 -0.17724,-0.31278 -0.35437,-0.62552 -0.53006,-0.93955 z m -122.70264,24.03561 0.0253,56.71229 c 8.55354,0.0646 19.50902,0.0919 30.48005,0.11488 -11.27028,-16.63466 -21.14584,-34.57601 -29.30212,-53.87952 -0.41439,-0.97936 -0.79974,-1.96568 -1.20317,-2.94765 z"
         style="opacity:1;fill:none;fill-opacity:1;stroke:#000000;stroke-width:8.95959568;stroke-linecap:round;stroke-miterlimit:4;stroke-dasharray:none;stroke-opacity:1" />
      <path
         style="opacity:1;fill:none;fill-opacity:1;stroke:#000000;stroke-width:8.95959568;stroke-linecap:round;stroke-miterlimit:4;stroke-dasharray:none;stroke-opacity:1"
         id="path4136"
         d="m 997.93019,547.34665 0,-97.23234 c 20.03721,-4.0009 40.03341,-10.12305 59.57971,-18.23545 19.5873,-8.20886 37.8659,-18.23545 54.9588,-29.59219 l 67.9216,66.96763 89.1445,-89.48771 -67.9624,-66.97274 c 22.9404,-34.841 38.8473,-73.72259 46.944,-114.53477 l 92.2523,-0.56767 0,-125.961939 -93.0702,0.567595 c -4.1703,-19.949213 -10.1412,-39.738458 -18.4014,-59.230904 -8.2601,-19.52533 -18.2787,-37.704585 -29.7284,-54.602988 l 64.323,-64.485404 -90.0441,-88.69605 -64.2413,64.4616 c -34.9217,-22.76121 -74.0963,-38.64267 -115.02917,-46.67505 l 0.52871,-91.85076 -127.45777,0 0.23894,92.57262 c -20.1188,4.17679 -40.1151,10.20191 -59.70231,18.37048 -19.5872,8.19299 -37.82506,18.21217 -54.79527,29.53605 l -66.53119,-65.72938 -89.10372,89.61936 66.44964,65.64196 C 641.30467,-3.9934136 625.35671,34.888204 617.30095,75.700385 l -94.33772,0.170564 0,126.083401 95.1147,-0.3405 c 4.1704,19.90616 10.22317,39.8628 18.44248,59.28771 8.26009,19.5492 18.27864,37.70459 29.72838,54.51732 l -68.20794,67.94258 90.08518,88.53601 68.04424,-67.72981 c 34.92174,22.89627 74.0963,38.72155 115.07008,46.72272 l 0.0431,96.41346 c 42.19471,0.31976 126.64676,0.0428 126.64676,0.0428 z M 1010.525,320.5913 C 908.78569,363.16501 791.1394,315.32488 748.36652,214.22052 705.59336,113.02362 753.51896,-4.0546576 855.29899,-46.60399 956.99733,-89.130074 1074.6436,-41.331942 1117.4166,59.766182 1160.1897,160.87452 1112.2641,278.03289 1010.525,320.5913 Z"
         inkscape:connector-curvature="0"
         sodipodi:nodetypes="cccccczcccccccsscccccccccccccccccccccccccc" />
    </g>
  </g>
</svg>
