<?xml version="1.0" encoding="UTF-8" standalone="no"?>
<svg
   xmlns:dc="http://purl.org/dc/elements/1.1/"
   xmlns:cc="http://creativecommons.org/ns#"
   xmlns:rdf="http://www.w3.org/1999/02/22-rdf-syntax-ns#"
   xmlns:svg="http://www.w3.org/2000/svg"
   xmlns="http://www.w3.org/2000/svg"
   xmlns:sodipodi="http://sodipodi.sourceforge.net/DTD/sodipodi-0.dtd"
   xmlns:inkscape="http://www.inkscape.org/namespaces/inkscape"
   version="1.1"
   id="svg2"
   viewBox="0 0 2000 2000"
   height="2000"
   width="2000"
   inkscape:version="0.91 r"
   sodipodi:docname="service.svg">
  <sodipodi:namedview
     pagecolor="#ffffff"
     bordercolor="#666666"
     borderopacity="1"
     objecttolerance="10"
     gridtolerance="10"
     guidetolerance="10"
     inkscape:pageopacity="0"
     inkscape:pageshadow="2"
     inkscape:window-width="1294"
     inkscape:window-height="927"
     id="namedview4297"
     showgrid="false"
     inkscape:zoom="0.16"
     inkscape:cx="826.74745"
     inkscape:cy="939.20082"
     inkscape:window-x="0"
     inkscape:window-y="0"
     inkscape:window-maximized="0"
     inkscape:current-layer="g4137" />
  <defs
     id="defs4" />
  <metadata
     id="metadata7">
    <rdf:RDF>
      <cc:Work
         rdf:about="">
        <dc:format>image/svg+xml</dc:format>
        <dc:type
           rdf:resource="http://purl.org/dc/dcmitype/StillImage" />
        <dc:title />
        <cc:license
           rdf:resource="https://github.com/bpmn-io/bpmn-font/blob/master/LICENSE" />
        <dc:creator>
          <cc:Agent>
            <dc:title>Jörg Dotzki</dc:title>
          </cc:Agent>
        </dc:creator>
        <dc:subject>
          <rdf:Bag>
            <rdf:li>BPMN</rdf:li>
            <rdf:li>bpmn-io</rdf:li>
            <rdf:li>bpmn.io</rdf:li>
            <rdf:li>Font</rdf:li>
          </rdf:Bag>
        </dc:subject>
      </cc:Work>
    </rdf:RDF>
  </metadata>
  <g
     style="display:inline"
     id="layer6">
    <path
       style="opacity:1;fill:none;fill-opacity:1;stroke:#000000;stroke-width:70;stroke-linecap:round;stroke-linejoin:miter;stroke-miterlimit:4;stroke-dasharray:none;stroke-opacity:1"
       d="m 1130.7105,627.78885 c -38.9769,-25.40431 -82.7007,-43.12934 -128.3867,-52.09447 l 0.5917,-102.51736 -142.2599,0 0,10e-6 0.2661,103.32186 c -22.455,4.66181 -44.7716,11.38946 -66.63329,20.5066 -21.86169,9.14438 -42.21776,20.32636 -61.15856,32.9652 l -74.25543,-73.36175 -99.45071,100.02565 74.16467,73.2647 c -25.55859,38.8165 -43.35887,82.21181 -52.35007,127.76321 l -105.29172,0.191 0,140.7258 106.1588,-0.3819 c 4.65467,22.2177 11.41069,44.494 20.58443,66.1746 9.21926,21.8193 20.40119,42.0817 33.18049,60.8468"
       id="path4170"
       inkscape:connector-curvature="0"
       sodipodi:nodetypes="ccccccccccccccccc" />
  </g>
  <g
     style="display:inline"
     transform="translate(0,949.63784)"
     id="layer1">
    <g
       transform="matrix(1.1161206,0,0,1.1161228,91.593841,25.188891)"
       id="g4137">
      <path
         d="m 997.93019,547.34665 0,-97.23234 c 20.03721,-4.0009 40.03341,-10.12305 59.57971,-18.23545 19.5873,-8.20886 37.8659,-18.23545 54.9588,-29.59219 l 67.9216,66.96763 89.1445,-89.48771 -67.9624,-66.97274 c 22.9404,-34.841 38.8473,-73.72259 46.944,-114.53477 l 92.2523,-0.56767 0,-125.961939 -93.0702,0.567595 c -4.1703,-19.949213 -10.1412,-39.738458 -18.4014,-59.230904 -8.2601,-19.52533 -18.2787,-37.704585 -29.7284,-54.602988 l 64.323,-64.485404 -90.0441,-88.69605 -64.2413,64.4616 c -34.9217,-22.76121 -74.0963,-38.64267 -115.02917,-46.67505 l 0.52871,-91.85076 -127.45777,0 0.23894,92.57262 c -20.1188,4.17679 -40.1151,10.20191 -59.70231,18.37048 -19.5872,8.19299 -37.82506,18.21217 -54.79527,29.53605 l -66.53119,-65.72938 -89.10372,89.61936 66.44964,65.64196 C 641.30467,-3.9934136 625.35671,34.888204 617.30095,75.700385 l -94.33772,0.170564 0,126.083401 95.1147,-0.3405 c 4.1704,19.90616 10.22317,39.8628 18.44248,59.28771 8.26009,19.5492 18.27864,37.70459 29.72838,54.51732 l -68.20794,67.94258 90.08518,88.53601 68.04424,-67.72981 c 34.92174,22.89627 74.0963,38.72155 115.07008,46.72272 l 0.0431,96.41346 c 42.19471,0.31976 126.64676,0.0428 126.64676,0.0428 z"
         id="path4136"
         style="opacity:1;fill:none;fill-opacity:1;stroke:#000000;stroke-width:62.71717453;stroke-linecap:round;stroke-miterlimit:4;stroke-dasharray:none;stroke-opacity:1"
         inkscape:connector-curvature="0"
         sodipodi:nodetypes="cccccccccccccccccccccccccccccccccccccc" />
      <ellipse
         style="fill:none;fill-opacity:1;fill-rule:nonzero;stroke:#000000;stroke-width:62.71717453;stroke-linecap:square;stroke-linejoin:miter;stroke-miterlimit:4;stroke-dasharray:none;stroke-dashoffset:700;stroke-opacity:1"
         id="path4839"
         cx="932.38733"
         cy="134.25687"
         rx="109.87955"
         ry="109.87933" />
    </g>
  </g>
</svg>
